{
  "header": {
    "PPQ": 480,
    "bpm": 67.00002903334591,
    "timeSignature": [
      4,
      4
    ],
    "name": "adele"
  },
  "startTime": 3.5820879999999997,
  "duration": 290.1845757458412,
  "tracks": [
    {
      "startTime": 3.5820879999999997,
      "duration": 290.1845757458412,
      "length": 1939,
      "notes": [
        {
          "name": "F#2",
          "midi": 42,
          "time": 3.5820879999999997,
          "velocity": 0.6850393700787402,
          "duration": 0.16044769166666661
        },
        {
          "name": "F#2",
          "midi": 42,
          "time": 4.477609999999999,
          "velocity": 0.5905511811023622,
          "duration": 0.17350738749999994
        },
        {
          "name": "F#2",
          "midi": 42,
          "time": 5.373131999999999,
          "velocity": 0.6850393700787402,
          "duration": 0.16044769166666661
        },
        {
          "name": "F#2",
          "midi": 42,
          "time": 6.268653999999999,
          "velocity": 0.5905511811023622,
          "duration": 0.17350738749999994
        },
        {
          "name": "A2",
          "midi": 45,
          "time": 7.1641759999999985,
          "velocity": 0.5275590551181102,
          "duration": 3.0764912041666728
        },
        {
          "name": "E3",
          "midi": 52,
          "time": 7.1641759999999985,
          "velocity": 0.5275590551181102,
          "duration": 3.1380583416666736
        },
        {
          "name": "A3",
          "midi": 57,
          "time": 7.1641759999999985,
          "velocity": 0.5275590551181102,
          "duration": 0.5708952749999998
        },
        {
          "name": "C#4",
          "midi": 61,
          "time": 7.3880564999999985,
          "velocity": 0.5275590551181102,
          "duration": 0.2555969041666666
        },
        {
          "name": "E4",
          "midi": 64,
          "time": 7.611936999999998,
          "velocity": 0.5590551181102362,
          "duration": 0.2444028791666666
        },
        {
          "name": "C#4",
          "midi": 61,
          "time": 7.835817499999998,
          "velocity": 0.5590551181102362,
          "duration": 0.20895513333333415
        },
        {
          "name": "A3",
          "midi": 57,
          "time": 8.059698,
          "velocity": 0.5433070866141733,
          "duration": 0.4552236833333332
        },
        {
          "name": "C#4",
          "midi": 61,
          "time": 8.283578499999999,
          "velocity": 0.5511811023622047,
          "duration": 0.22014915833333326
        },
        {
          "name": "E4",
          "midi": 64,
          "time": 8.507458999999999,
          "velocity": 0.5118110236220472,
          "duration": 0.25559690416666747
        },
        {
          "name": "C#4",
          "midi": 61,
          "time": 8.731339499999999,
          "velocity": 0.5511811023622047,
          "duration": 0.21082080416666749
        },
        {
          "name": "A3",
          "midi": 57,
          "time": 8.95522,
          "velocity": 0.5590551181102362,
          "duration": 0.5466415541666674
        },
        {
          "name": "C#4",
          "midi": 61,
          "time": 9.1791005,
          "velocity": 0.5511811023622047,
          "duration": 0.20149244999999993
        },
        {
          "name": "E4",
          "midi": 64,
          "time": 9.402981,
          "velocity": 0.5275590551181102,
          "duration": 0.24253720833333503
        },
        {
          "name": "C#4",
          "midi": 61,
          "time": 9.626861500000002,
          "velocity": 0.5511811023622047,
          "duration": 0.20708946250000082
        },
        {
          "name": "A3",
          "midi": 57,
          "time": 9.850742000000004,
          "velocity": 0.5433070866141733,
          "duration": 0.4048505708333341
        },
        {
          "name": "C#4",
          "midi": 61,
          "time": 10.074622500000004,
          "velocity": 0.5511811023622047,
          "duration": 0.19776110833333505
        },
        {
          "name": "E4",
          "midi": 64,
          "time": 10.298503000000006,
          "velocity": 0.5118110236220472,
          "duration": 0.19216409583333416
        },
        {
          "name": "C#4",
          "midi": 61,
          "time": 10.522383500000007,
          "velocity": 0.5354330708661418,
          "duration": 0.15298500833333328
        },
        {
          "name": "G#2",
          "midi": 44,
          "time": 10.746264000000007,
          "velocity": 0.5590551181102362,
          "duration": 3.186565783333341
        },
        {
          "name": "E3",
          "midi": 52,
          "time": 10.746264000000007,
          "velocity": 0.5590551181102362,
          "duration": 3.2444015791666754
        },
        {
          "name": "G#3",
          "midi": 56,
          "time": 10.746264000000007,
          "velocity": 0.5590551181102362,
          "duration": 0.6828355249999998
        },
        {
          "name": "C#4",
          "midi": 61,
          "time": 10.970144500000007,
          "velocity": 0.5118110236220472,
          "duration": 0.22388049999999993
        },
        {
          "name": "E4",
          "midi": 64,
          "time": 11.194025000000007,
          "velocity": 0.5590551181102362,
          "duration": 0.23507452499999992
        },
        {
          "name": "C#4",
          "midi": 61,
          "time": 11.417905500000007,
          "velocity": 0.5118110236220472,
          "duration": 0.21082080416666749
        },
        {
          "name": "G#3",
          "midi": 56,
          "time": 11.641786000000009,
          "velocity": 0.5669291338582677,
          "duration": 0.49440277083333584
        },
        {
          "name": "C#4",
          "midi": 61,
          "time": 11.865666500000009,
          "velocity": 0.5433070866141733,
          "duration": 0.19216409583333416
        },
        {
          "name": "E4",
          "midi": 64,
          "time": 12.08954700000001,
          "velocity": 0.5433070866141733,
          "duration": 0.22761184166666837
        },
        {
          "name": "C#4",
          "midi": 61,
          "time": 12.313427500000012,
          "velocity": 0.5354330708661418,
          "duration": 0.20149244999999993
        },
        {
          "name": "G#3",
          "midi": 56,
          "time": 12.537308000000012,
          "velocity": 0.5511811023622047,
          "duration": 0.5317161875000007
        },
        {
          "name": "C#4",
          "midi": 61,
          "time": 12.761188500000012,
          "velocity": 0.5354330708661418,
          "duration": 0.19776110833333327
        },
        {
          "name": "E4",
          "midi": 64,
          "time": 12.985069000000012,
          "velocity": 0.5590551181102362,
          "duration": 0.25559690416666925
        },
        {
          "name": "C#4",
          "midi": 61,
          "time": 13.208949500000013,
          "velocity": 0.5196850393700787,
          "duration": 0.19029842500000171
        },
        {
          "name": "G#3",
          "midi": 56,
          "time": 13.432830000000015,
          "velocity": 0.5669291338582677,
          "duration": 0.5970146666666682
        },
        {
          "name": "C#4",
          "midi": 61,
          "time": 13.656710500000015,
          "velocity": 0.5354330708661418,
          "duration": 0.17537305833333328
        },
        {
          "name": "E4",
          "midi": 64,
          "time": 13.880591000000015,
          "velocity": 0.5590551181102362,
          "duration": 0.24067153750000259
        },
        {
          "name": "C#4",
          "midi": 61,
          "time": 14.104471500000017,
          "velocity": 0.5275590551181102,
          "duration": 0.18470141250000083
        },
        {
          "name": "F#2",
          "midi": 42,
          "time": 14.328352000000018,
          "velocity": 0.5669291338582677,
          "duration": 3.0839538875000105
        },
        {
          "name": "C#3",
          "midi": 49,
          "time": 14.328352000000018,
          "velocity": 0.5669291338582677,
          "duration": 3.063431508333343
        },
        {
          "name": "F#3",
          "midi": 54,
          "time": 14.328352000000018,
          "velocity": 0.5669291338582677,
          "duration": 0.5485072250000034
        },
        {
          "name": "C#4",
          "midi": 61,
          "time": 14.55223250000002,
          "velocity": 0.5354330708661418,
          "duration": 0.13992531250000084
        },
        {
          "name": "F#4",
          "midi": 66,
          "time": 14.776113000000022,
          "velocity": 0.5905511811023622,
          "duration": 0.2276118416666666
        },
        {
          "name": "C#4",
          "midi": 61,
          "time": 14.999993500000022,
          "velocity": 0.5905511811023622,
          "duration": 0.2052237916666666
        },
        {
          "name": "F#3",
          "midi": 54,
          "time": 15.223874000000022,
          "velocity": 0.5905511811023622,
          "duration": 0.26492525833333325
        },
        {
          "name": "C#4",
          "midi": 61,
          "time": 15.447754500000022,
          "velocity": 0.5748031496062992,
          "duration": 0.24999989166666658
        },
        {
          "name": "F#4",
          "midi": 66,
          "time": 15.671635000000022,
          "velocity": 0.5354330708661418,
          "duration": 0.2518655625000008
        },
        {
          "name": "C#4",
          "midi": 61,
          "time": 15.895515500000021,
          "velocity": 0.5433070866141733,
          "duration": 0.21268647499999993
        },
        {
          "name": "F#3",
          "midi": 54,
          "time": 16.119396000000023,
          "velocity": 0.5354330708661418,
          "duration": 0.264925258333335
        },
        {
          "name": "C#4",
          "midi": 61,
          "time": 16.343276500000023,
          "velocity": 0.5354330708661418,
          "duration": 0.20895513333333682
        },
        {
          "name": "F#4",
          "midi": 66,
          "time": 16.567157000000027,
          "velocity": 0.5354330708661418,
          "duration": 0.24067153749999903
        },
        {
          "name": "C#4",
          "midi": 61,
          "time": 16.791037500000026,
          "velocity": 0.5748031496062992,
          "duration": 0.17350738749999906
        },
        {
          "name": "F#3",
          "midi": 54,
          "time": 17.014918000000026,
          "velocity": 0.5748031496062992,
          "duration": 0.5354475291666709
        },
        {
          "name": "C#4",
          "midi": 61,
          "time": 17.238798500000026,
          "velocity": 0.5905511811023622,
          "duration": 0.1548506791666675
        },
        {
          "name": "F#4",
          "midi": 66,
          "time": 17.46267900000003,
          "velocity": 0.5905511811023622,
          "duration": 0.23694019583333414
        },
        {
          "name": "C#4",
          "midi": 61,
          "time": 17.68655950000003,
          "velocity": 0.6141732283464567,
          "duration": 0.2126864750000017
        },
        {
          "name": "D2",
          "midi": 38,
          "time": 17.910440000000033,
          "velocity": 0.5984251968503937,
          "duration": 3.4085806125000495
        },
        {
          "name": "A2",
          "midi": 45,
          "time": 17.910440000000033,
          "velocity": 0.5984251968503937,
          "duration": 3.4179089666667153
        },
        {
          "name": "D3",
          "midi": 50,
          "time": 17.910440000000033,
          "velocity": 0.5984251968503937,
          "duration": 3.4179089666667153
        },
        {
          "name": "A3",
          "midi": 57,
          "time": 17.910440000000033,
          "velocity": 0.5984251968503937,
          "duration": 0.6716415000000033
        },
        {
          "name": "D4",
          "midi": 62,
          "time": 18.134320500000037,
          "velocity": 0.5905511811023622,
          "duration": 0.27052227083333236
        },
        {
          "name": "F#4",
          "midi": 66,
          "time": 18.358201000000037,
          "velocity": 0.5826771653543307,
          "duration": 0.2350745250000017
        },
        {
          "name": "D4",
          "midi": 62,
          "time": 18.582081500000037,
          "velocity": 0.5826771653543307,
          "duration": 0.22947751250000437
        },
        {
          "name": "A3",
          "midi": 57,
          "time": 18.80596200000004,
          "velocity": 0.5905511811023622,
          "duration": 0.44402965833333496
        },
        {
          "name": "D4",
          "midi": 62,
          "time": 19.02984250000004,
          "velocity": 0.6220472440944882,
          "duration": 0.24253720833333858
        },
        {
          "name": "F#4",
          "midi": 66,
          "time": 19.253723000000043,
          "velocity": 0.5984251968503937,
          "duration": 0.24067153750000259
        },
        {
          "name": "D4",
          "midi": 62,
          "time": 19.477603500000047,
          "velocity": 0.5984251968503937,
          "duration": 0.20522379166666482
        },
        {
          "name": "A3",
          "midi": 57,
          "time": 19.701484000000047,
          "velocity": 0.5984251968503937,
          "duration": 0.2518655625000008
        },
        {
          "name": "D4",
          "midi": 62,
          "time": 19.925364500000047,
          "velocity": 0.5984251968503937,
          "duration": 0.20522379166666838
        },
        {
          "name": "F#4",
          "midi": 66,
          "time": 20.14924500000005,
          "velocity": 0.5905511811023622,
          "duration": 0.24067153749999903
        },
        {
          "name": "D4",
          "midi": 62,
          "time": 20.37312550000005,
          "velocity": 0.5905511811023622,
          "duration": 0.22388049999999993
        },
        {
          "name": "A3",
          "midi": 57,
          "time": 20.59700600000005,
          "velocity": 0.5669291338582677,
          "duration": 0.26865660000002833
        },
        {
          "name": "E5",
          "midi": 76,
          "time": 20.59700600000005,
          "velocity": 0.7086614173228346,
          "duration": 1.3358203166666982
        },
        {
          "name": "D4",
          "midi": 62,
          "time": 20.82088650000008,
          "velocity": 0.5590551181102362,
          "duration": 0.19776110833333505
        },
        {
          "name": "F#4",
          "midi": 66,
          "time": 21.044767000000082,
          "velocity": 0.5433070866141733,
          "duration": 0.2164178166666666
        },
        {
          "name": "D4",
          "midi": 62,
          "time": 21.268647500000082,
          "velocity": 0.5354330708661418,
          "duration": 0.11007457916666752
        },
        {
          "name": "A2",
          "midi": 45,
          "time": 21.492528000000082,
          "velocity": 0.6141732283464567,
          "duration": 3.0764912041666683
        },
        {
          "name": "E3",
          "midi": 52,
          "time": 21.492528000000082,
          "velocity": 0.6141732283464567,
          "duration": 3.138058341666671
        },
        {
          "name": "A3",
          "midi": 57,
          "time": 21.492528000000082,
          "velocity": 0.6141732283464567,
          "duration": 0.570895274999998
        },
        {
          "name": "C#4",
          "midi": 61,
          "time": 21.71640850000008,
          "velocity": 0.5669291338582677,
          "duration": 0.2555969041666657
        },
        {
          "name": "E4",
          "midi": 64,
          "time": 21.94028900000008,
          "velocity": 0.5984251968503937,
          "duration": 0.24440287916666747
        },
        {
          "name": "C#5",
          "midi": 73,
          "time": 21.94028900000008,
          "velocity": 0.6771653543307087,
          "duration": 1.3358203166666698
        },
        {
          "name": "C#4",
          "midi": 61,
          "time": 22.16416950000008,
          "velocity": 0.5984251968503937,
          "duration": 0.20895513333333326
        },
        {
          "name": "A3",
          "midi": 57,
          "time": 22.38805000000008,
          "velocity": 0.5826771653543307,
          "duration": 0.45522368333333674
        },
        {
          "name": "C#4",
          "midi": 61,
          "time": 22.61193050000008,
          "velocity": 0.5905511811023622,
          "duration": 0.22014915833333504
        },
        {
          "name": "E4",
          "midi": 64,
          "time": 22.835811000000085,
          "velocity": 0.5511811023622047,
          "duration": 0.2555969041666657
        },
        {
          "name": "C#4",
          "midi": 61,
          "time": 23.059691500000085,
          "velocity": 0.5905511811023622,
          "duration": 0.2108208041666657
        },
        {
          "name": "A3",
          "midi": 57,
          "time": 23.283572000000085,
          "velocity": 0.5984251968503937,
          "duration": 0.5466415541666656
        },
        {
          "name": "C#4",
          "midi": 61,
          "time": 23.507452500000085,
          "velocity": 0.5905511811023622,
          "duration": 0.20149244999999993
        },
        {
          "name": "E4",
          "midi": 64,
          "time": 23.731333000000085,
          "velocity": 0.5748031496062992,
          "duration": 0.24253720833333503
        },
        {
          "name": "C#4",
          "midi": 61,
          "time": 23.955213500000085,
          "velocity": 0.5905511811023622,
          "duration": 0.20708946250000082
        },
        {
          "name": "A3",
          "midi": 57,
          "time": 24.179094000000084,
          "velocity": 0.5826771653543307,
          "duration": 0.4048505708333323
        },
        {
          "name": "B4",
          "midi": 71,
          "time": 24.179094000000084,
          "velocity": 0.6771653543307087,
          "duration": 0.2164178166666666
        },
        {
          "name": "C#4",
          "midi": 61,
          "time": 24.402974500000084,
          "velocity": 0.5905511811023622,
          "duration": 0.1977611083333315
        },
        {
          "name": "A4",
          "midi": 69,
          "time": 24.402974500000084,
          "velocity": 0.6377952755905512,
          "duration": 0.66417881666667
        },
        {
          "name": "E4",
          "midi": 64,
          "time": 24.626855000000084,
          "velocity": 0.5511811023622047,
          "duration": 0.19216409583333416
        },
        {
          "name": "C#4",
          "midi": 61,
          "time": 24.850735500000084,
          "velocity": 0.5905511811023622,
          "duration": 0.15298500833333506
        },
        {
          "name": "G#2",
          "midi": 44,
          "time": 25.074616000000088,
          "velocity": 0.5905511811023622,
          "duration": 3.1865657833333465
        },
        {
          "name": "E3",
          "midi": 52,
          "time": 25.074616000000088,
          "velocity": 0.6062992125984252,
          "duration": 3.2444015791666807
        },
        {
          "name": "G#3",
          "midi": 56,
          "time": 25.074616000000088,
          "velocity": 0.5905511811023622,
          "duration": 0.6828355250000016
        },
        {
          "name": "F#4",
          "midi": 66,
          "time": 25.074616000000088,
          "velocity": 0.49606299212598426,
          "duration": 0.2164178166666666
        },
        {
          "name": "C#4",
          "midi": 61,
          "time": 25.298496500000088,
          "velocity": 0.5511811023622047,
          "duration": 0.22388049999999993
        },
        {
          "name": "E4",
          "midi": 64,
          "time": 25.522377000000088,
          "velocity": 0.5826771653543307,
          "duration": 0.2350745250000017
        },
        {
          "name": "C#4",
          "midi": 61,
          "time": 25.746257500000088,
          "velocity": 0.5511811023622047,
          "duration": 0.21082080416666926
        },
        {
          "name": "G#3",
          "midi": 56,
          "time": 25.97013800000009,
          "velocity": 0.6062992125984252,
          "duration": 0.4944027708333323
        },
        {
          "name": "E5",
          "midi": 76,
          "time": 25.97013800000009,
          "velocity": 0.7007874015748031,
          "duration": 0.18656708333333327
        },
        {
          "name": "C#4",
          "midi": 61,
          "time": 26.19401850000009,
          "velocity": 0.5826771653543307,
          "duration": 0.19216409583333416
        },
        {
          "name": "E5",
          "midi": 76,
          "time": 26.19401850000009,
          "velocity": 0.6141732283464567,
          "duration": 0.4402983166666665
        },
        {
          "name": "E4",
          "midi": 64,
          "time": 26.41789900000009,
          "velocity": 0.5826771653543307,
          "duration": 0.22761184166666837
        },
        {
          "name": "C#4",
          "midi": 61,
          "time": 26.64177950000009,
          "velocity": 0.5826771653543307,
          "duration": 0.2014924500000035
        },
        {
          "name": "C#5",
          "midi": 73,
          "time": 26.64177950000009,
          "velocity": 0.6850393700787402,
          "duration": 1.1119398166666734
        },
        {
          "name": "G#3",
          "midi": 56,
          "time": 26.865660000000094,
          "velocity": 0.5905511811023622,
          "duration": 0.5317161875000025
        },
        {
          "name": "C#4",
          "midi": 61,
          "time": 27.089540500000094,
          "velocity": 0.5748031496062992,
          "duration": 0.19776110833333505
        },
        {
          "name": "E4",
          "midi": 64,
          "time": 27.313421000000098,
          "velocity": 0.5826771653543307,
          "duration": 0.2555969041666657
        },
        {
          "name": "C#4",
          "midi": 61,
          "time": 27.537301500000098,
          "velocity": 0.5590551181102362,
          "duration": 0.19029842499999816
        },
        {
          "name": "G#3",
          "midi": 56,
          "time": 27.761182000000098,
          "velocity": 0.6062992125984252,
          "duration": 0.59701466666667
        },
        {
          "name": "B4",
          "midi": 71,
          "time": 27.761182000000098,
          "velocity": 0.6929133858267716,
          "duration": 0.2164178166666666
        },
        {
          "name": "C#4",
          "midi": 61,
          "time": 27.985062500000097,
          "velocity": 0.5748031496062992,
          "duration": 0.17537305833333505
        },
        {
          "name": "A4",
          "midi": 69,
          "time": 27.985062500000097,
          "velocity": 0.6535433070866141,
          "duration": 0.66417881666667
        },
        {
          "name": "E4",
          "midi": 64,
          "time": 28.2089430000001,
          "velocity": 0.5984251968503937,
          "duration": 0.24067153749999903
        },
        {
          "name": "C#4",
          "midi": 61,
          "time": 28.4328235000001,
          "velocity": 0.5669291338582677,
          "duration": 0.18470141250000083
        },
        {
          "name": "F#2",
          "midi": 42,
          "time": 28.6567040000001,
          "velocity": 0.5905511811023622,
          "duration": 3.083953887500023
        },
        {
          "name": "C#3",
          "midi": 49,
          "time": 28.6567040000001,
          "velocity": 0.5905511811023622,
          "duration": 3.0634315083333554
        },
        {
          "name": "F#3",
          "midi": 54,
          "time": 28.6567040000001,
          "velocity": 0.5905511811023622,
          "duration": 0.5485072250000016
        },
        {
          "name": "F#4",
          "midi": 66,
          "time": 28.6567040000001,
          "velocity": 0.4881889763779528,
          "duration": 0.2164178166666666
        },
        {
          "name": "C#4",
          "midi": 61,
          "time": 28.8805845000001,
          "velocity": 0.5590551181102362,
          "duration": 0.13992531250000084
        },
        {
          "name": "F#4",
          "midi": 66,
          "time": 29.1044650000001,
          "velocity": 0.5669291338582677,
          "duration": 0.22761184166667192
        },
        {
          "name": "C#4",
          "midi": 61,
          "time": 29.328345500000104,
          "velocity": 0.5748031496062992,
          "duration": 0.20522379166666838
        },
        {
          "name": "F#3",
          "midi": 54,
          "time": 29.552226000000108,
          "velocity": 0.5433070866141733,
          "duration": 0.264925258333335
        },
        {
          "name": "E5",
          "midi": 76,
          "time": 29.552226000000108,
          "velocity": 0.6692913385826772,
          "duration": 0.40485057083333587
        },
        {
          "name": "C#4",
          "midi": 61,
          "time": 29.776106500000108,
          "velocity": 0.5669291338582677,
          "duration": 0.24999989166667191
        },
        {
          "name": "F#4",
          "midi": 66,
          "time": 29.99998700000011,
          "velocity": 0.5748031496062992,
          "duration": 0.25186556250000436
        },
        {
          "name": "E5",
          "midi": 76,
          "time": 29.99998700000011,
          "velocity": 0.6141732283464567,
          "duration": 0.20522379166666838
        },
        {
          "name": "C#4",
          "midi": 61,
          "time": 30.223867500000114,
          "velocity": 0.5669291338582677,
          "duration": 0.2126864750000017
        },
        {
          "name": "C#5",
          "midi": 73,
          "time": 30.223867500000114,
          "velocity": 0.6692913385826772,
          "duration": 1.1119398166666734
        },
        {
          "name": "F#3",
          "midi": 54,
          "time": 30.447748000000118,
          "velocity": 0.5826771653543307,
          "duration": 0.264925258333335
        },
        {
          "name": "C#4",
          "midi": 61,
          "time": 30.671628500000118,
          "velocity": 0.5511811023622047,
          "duration": 0.20895513333333682
        },
        {
          "name": "F#4",
          "midi": 66,
          "time": 30.89550900000012,
          "velocity": 0.5826771653543307,
          "duration": 0.24067153749999903
        },
        {
          "name": "C#4",
          "midi": 61,
          "time": 31.11938950000012,
          "velocity": 0.5748031496062992,
          "duration": 0.17350738749999906
        },
        {
          "name": "F#3",
          "midi": 54,
          "time": 31.34327000000012,
          "velocity": 0.5826771653543307,
          "duration": 0.5354475291666709
        },
        {
          "name": "B4",
          "midi": 71,
          "time": 31.34327000000012,
          "velocity": 0.6692913385826772,
          "duration": 0.2164178166666666
        },
        {
          "name": "C#4",
          "midi": 61,
          "time": 31.56715050000012,
          "velocity": 0.5590551181102362,
          "duration": 0.1548506791666675
        },
        {
          "name": "A4",
          "midi": 69,
          "time": 31.56715050000012,
          "velocity": 0.6220472440944882,
          "duration": 0.6641788166666664
        },
        {
          "name": "F#4",
          "midi": 66,
          "time": 31.791031000000125,
          "velocity": 0.5905511811023622,
          "duration": 0.23694019583333414
        },
        {
          "name": "C#4",
          "midi": 61,
          "time": 32.014911500000125,
          "velocity": 0.5590551181102362,
          "duration": 0.21268647499999815
        },
        {
          "name": "D2",
          "midi": 38,
          "time": 32.238792000000124,
          "velocity": 0.5984251968503937,
          "duration": 3.4085806125000104
        },
        {
          "name": "A2",
          "midi": 45,
          "time": 32.238792000000124,
          "velocity": 0.5984251968503937,
          "duration": 3.4179089666666798
        },
        {
          "name": "F#3",
          "midi": 54,
          "time": 32.238792000000124,
          "velocity": 0.5984251968503937,
          "duration": 0.6716414999999998
        },
        {
          "name": "F#4",
          "midi": 66,
          "time": 32.238792000000124,
          "velocity": 0.48031496062992124,
          "duration": 0.21641781666666304
        },
        {
          "name": "D4",
          "midi": 62,
          "time": 32.462672500000124,
          "velocity": 0.5590551181102362,
          "duration": 0.27052227083333236
        },
        {
          "name": "F#4",
          "midi": 66,
          "time": 32.686553000000124,
          "velocity": 0.5826771653543307,
          "duration": 0.2350745250000017
        },
        {
          "name": "D4",
          "midi": 62,
          "time": 32.910433500000124,
          "velocity": 0.5826771653543307,
          "duration": 0.22947751249999726
        },
        {
          "name": "F#3",
          "midi": 54,
          "time": 33.134314000000124,
          "velocity": 0.5905511811023622,
          "duration": 0.44402965833333496
        },
        {
          "name": "E5",
          "midi": 76,
          "time": 33.134314000000124,
          "velocity": 0.7007874015748031,
          "duration": 0.18656708333332972
        },
        {
          "name": "D4",
          "midi": 62,
          "time": 33.358194500000124,
          "velocity": 0.5826771653543307,
          "duration": 0.24253720833333148
        },
        {
          "name": "E5",
          "midi": 76,
          "time": 33.358194500000124,
          "velocity": 0.6456692913385826,
          "duration": 0.44029831666666297
        },
        {
          "name": "F#4",
          "midi": 66,
          "time": 33.582075000000124,
          "velocity": 0.5826771653543307,
          "duration": 0.24067153749999903
        },
        {
          "name": "D4",
          "midi": 62,
          "time": 33.805955500000124,
          "velocity": 0.6062992125984252,
          "duration": 0.20522379166666838
        },
        {
          "name": "C#5",
          "midi": 73,
          "time": 33.805955500000124,
          "velocity": 0.6850393700787402,
          "duration": 0.8880593166666699
        },
        {
          "name": "F#3",
          "midi": 54,
          "time": 34.029836000000124,
          "velocity": 0.5905511811023622,
          "duration": 0.2518655625000008
        },
        {
          "name": "D4",
          "midi": 62,
          "time": 34.253716500000124,
          "velocity": 0.5826771653543307,
          "duration": 0.20522379166666838
        },
        {
          "name": "F#4",
          "midi": 66,
          "time": 34.477597000000124,
          "velocity": 0.5826771653543307,
          "duration": 0.24067153750000614
        },
        {
          "name": "D4",
          "midi": 62,
          "time": 34.70147750000013,
          "velocity": 0.6141732283464567,
          "duration": 0.22388049999999993
        },
        {
          "name": "B4",
          "midi": 71,
          "time": 34.70147750000013,
          "velocity": 0.6929133858267716,
          "duration": 0.8880593166666699
        },
        {
          "name": "F#3",
          "midi": 54,
          "time": 34.92535800000013,
          "velocity": 0.5905511811023622,
          "duration": 0.2686565999999999
        },
        {
          "name": "D4",
          "midi": 62,
          "time": 35.14923850000013,
          "velocity": 0.5905511811023622,
          "duration": 0.1977611083333315
        },
        {
          "name": "F#4",
          "midi": 66,
          "time": 35.37311900000013,
          "velocity": 0.5905511811023622,
          "duration": 0.21641781666667015
        },
        {
          "name": "D4",
          "midi": 62,
          "time": 35.59699950000014,
          "velocity": 0.5905511811023622,
          "duration": 0.11007457916666397
        },
        {
          "name": "A4",
          "midi": 69,
          "time": 35.59699950000014,
          "velocity": 0.6614173228346457,
          "duration": 0.839551875000005
        },
        {
          "name": "A2",
          "midi": 45,
          "time": 35.82088000000014,
          "velocity": 0.5905511811023622,
          "duration": 3.0764912041666648
        },
        {
          "name": "E3",
          "midi": 52,
          "time": 35.82088000000014,
          "velocity": 0.5905511811023622,
          "duration": 3.138058341666664
        },
        {
          "name": "A3",
          "midi": 57,
          "time": 35.82088000000014,
          "velocity": 0.5905511811023622,
          "duration": 0.5708952750000051
        },
        {
          "name": "C#4",
          "midi": 61,
          "time": 36.04476050000014,
          "velocity": 0.5669291338582677,
          "duration": 0.2555969041666728
        },
        {
          "name": "E4",
          "midi": 64,
          "time": 36.268641000000144,
          "velocity": 0.5984251968503937,
          "duration": 0.24440287916666392
        },
        {
          "name": "C#4",
          "midi": 61,
          "time": 36.492521500000144,
          "velocity": 0.5984251968503937,
          "duration": 0.20895513333331195
        },
        {
          "name": "E5",
          "midi": 76,
          "time": 36.492521500000144,
          "velocity": 0.6771653543307087,
          "duration": 0.8880593166666344
        },
        {
          "name": "A3",
          "midi": 57,
          "time": 36.716402000000116,
          "velocity": 0.5826771653543307,
          "duration": 0.45522368333332963
        },
        {
          "name": "C#4",
          "midi": 61,
          "time": 36.94028250000011,
          "velocity": 0.5905511811023622,
          "duration": 0.22014915833333504
        },
        {
          "name": "E4",
          "midi": 64,
          "time": 37.16416300000011,
          "velocity": 0.5511811023622047,
          "duration": 0.2555969041666728
        },
        {
          "name": "C#4",
          "midi": 61,
          "time": 37.388043500000116,
          "velocity": 0.5905511811023622,
          "duration": 0.2108208041666657
        },
        {
          "name": "C#5",
          "midi": 73,
          "time": 37.388043500000116,
          "velocity": 0.6771653543307087,
          "duration": 1.111939816666677
        },
        {
          "name": "A3",
          "midi": 57,
          "time": 37.611924000000116,
          "velocity": 0.5984251968503937,
          "duration": 0.5466415541666763
        },
        {
          "name": "C#4",
          "midi": 61,
          "time": 37.835804500000116,
          "velocity": 0.5905511811023622,
          "duration": 0.2014924500000035
        },
        {
          "name": "E4",
          "midi": 64,
          "time": 38.05968500000012,
          "velocity": 0.5748031496062992,
          "duration": 0.24253720833333148
        },
        {
          "name": "C#4",
          "midi": 61,
          "time": 38.28356550000012,
          "velocity": 0.5905511811023622,
          "duration": 0.20708946250000082
        },
        {
          "name": "A3",
          "midi": 57,
          "time": 38.50744600000013,
          "velocity": 0.5826771653543307,
          "duration": 0.4048505708333394
        },
        {
          "name": "B4",
          "midi": 71,
          "time": 38.50744600000013,
          "velocity": 0.6771653543307087,
          "duration": 0.21641781666667015
        },
        {
          "name": "C#4",
          "midi": 61,
          "time": 38.73132650000014,
          "velocity": 0.5905511811023622,
          "duration": 0.1977611083333315
        },
        {
          "name": "A4",
          "midi": 69,
          "time": 38.73132650000014,
          "velocity": 0.6377952755905512,
          "duration": 0.6641788166666629
        },
        {
          "name": "E4",
          "midi": 64,
          "time": 38.95520700000014,
          "velocity": 0.5511811023622047,
          "duration": 0.19216409583333416
        },
        {
          "name": "C#4",
          "midi": 61,
          "time": 39.179087500000136,
          "velocity": 0.5905511811023622,
          "duration": 0.1529850083333315
        },
        {
          "name": "G#2",
          "midi": 44,
          "time": 39.40296800000013,
          "velocity": 0.5905511811023622,
          "duration": 3.186565783333343
        },
        {
          "name": "E3",
          "midi": 52,
          "time": 39.40296800000013,
          "velocity": 0.6062992125984252,
          "duration": 3.244401579166677
        },
        {
          "name": "G#3",
          "midi": 56,
          "time": 39.40296800000013,
          "velocity": 0.5905511811023622,
          "duration": 0.68283552500003
        },
        {
          "name": "F5",
          "midi": 77,
          "time": 39.40296800000013,
          "velocity": 0.6771653543307087,
          "duration": 0.8638055958333979
        },
        {
          "name": "C#4",
          "midi": 61,
          "time": 39.626848500000136,
          "velocity": 0.5511811023622047,
          "duration": 0.22388050000002124
        },
        {
          "name": "E4",
          "midi": 64,
          "time": 39.85072900000016,
          "velocity": 0.5826771653543307,
          "duration": 0.2350745250000017
        },
        {
          "name": "C#4",
          "midi": 61,
          "time": 40.074609500000165,
          "velocity": 0.5511811023622047,
          "duration": 0.21082080416669413
        },
        {
          "name": "G#3",
          "midi": 56,
          "time": 40.29849000000019,
          "velocity": 0.6062992125984252,
          "duration": 0.49440277083328255
        },
        {
          "name": "C#5",
          "midi": 73,
          "time": 40.29849000000019,
          "velocity": 0.6771653543307087,
          "duration": 0.8768652916666113
        },
        {
          "name": "C#4",
          "midi": 61,
          "time": 40.522370500000164,
          "velocity": 0.5826771653543307,
          "duration": 0.19216409583331284
        },
        {
          "name": "E4",
          "midi": 64,
          "time": 40.74625100000014,
          "velocity": 0.5826771653543307,
          "duration": 0.22761184166666482
        },
        {
          "name": "C#4",
          "midi": 61,
          "time": 40.97013150000014,
          "velocity": 0.5826771653543307,
          "duration": 0.20149244999999638
        },
        {
          "name": "G#3",
          "midi": 56,
          "time": 41.194012000000136,
          "velocity": 0.5905511811023622,
          "duration": 0.5317161875000025
        },
        {
          "name": "A4",
          "midi": 69,
          "time": 41.194012000000136,
          "velocity": 0.6535433070866141,
          "duration": 0.44029831666666297
        },
        {
          "name": "C#4",
          "midi": 61,
          "time": 41.417892500000136,
          "velocity": 0.5354330708661418,
          "duration": 0.1977611083333315
        },
        {
          "name": "E4",
          "midi": 64,
          "time": 41.641773000000136,
          "velocity": 0.5826771653543307,
          "duration": 0.2555969041666657
        },
        {
          "name": "C#4",
          "midi": 61,
          "time": 41.865653500000136,
          "velocity": 0.5590551181102362,
          "duration": 0.19029842500000171
        },
        {
          "name": "G#3",
          "midi": 56,
          "time": 42.089534000000135,
          "velocity": 0.6062992125984252,
          "duration": 0.5970146666666736
        },
        {
          "name": "C#4",
          "midi": 61,
          "time": 42.313414500000135,
          "velocity": 0.5748031496062992,
          "duration": 0.17537305833333505
        },
        {
          "name": "B4",
          "midi": 71,
          "time": 42.313414500000135,
          "velocity": 0.6850393700787402,
          "duration": 0.4402983166666772
        },
        {
          "name": "E4",
          "midi": 64,
          "time": 42.537295000000135,
          "velocity": 0.5984251968503937,
          "duration": 0.24067153750001324
        },
        {
          "name": "C#4",
          "midi": 61,
          "time": 42.76117550000015,
          "velocity": 0.5669291338582677,
          "duration": 0.18470141249999728
        },
        {
          "name": "A4",
          "midi": 69,
          "time": 42.76117550000015,
          "velocity": 0.6299212598425197,
          "duration": 0.21641781666666304
        },
        {
          "name": "F#2",
          "midi": 42,
          "time": 42.98505600000015,
          "velocity": 0.5748031496062992,
          "duration": 3.0839538875000017
        },
        {
          "name": "C#3",
          "midi": 49,
          "time": 42.98505600000015,
          "velocity": 0.5748031496062992,
          "duration": 3.0634315083333377
        },
        {
          "name": "F#3",
          "midi": 54,
          "time": 42.98505600000015,
          "velocity": 0.5748031496062992,
          "duration": 0.5485072250000016
        },
        {
          "name": "F#4",
          "midi": 66,
          "time": 42.98505600000015,
          "velocity": 0.6771653543307087,
          "duration": 0.40298489999999987
        },
        {
          "name": "C#4",
          "midi": 61,
          "time": 43.20893650000015,
          "velocity": 0.5354330708661418,
          "duration": 0.1399253124999973
        },
        {
          "name": "F#4",
          "midi": 66,
          "time": 43.43281700000015,
          "velocity": 0.5669291338582677,
          "duration": 0.21641781666667015
        },
        {
          "name": "F#4",
          "midi": 66,
          "time": 43.43281700000015,
          "velocity": 0.6141732283464567,
          "duration": 0.22761184166667192
        },
        {
          "name": "C#4",
          "midi": 61,
          "time": 43.656697500000156,
          "velocity": 0.5748031496062992,
          "duration": 0.20522379166666838
        },
        {
          "name": "A4",
          "midi": 69,
          "time": 43.656697500000156,
          "velocity": 0.6850393700787402,
          "duration": 0.6660444875000024
        },
        {
          "name": "F#3",
          "midi": 54,
          "time": 43.880578000000156,
          "velocity": 0.5433070866141733,
          "duration": 0.264925258333335
        },
        {
          "name": "C#4",
          "midi": 61,
          "time": 44.104458500000156,
          "velocity": 0.5669291338582677,
          "duration": 0.24999989166666836
        },
        {
          "name": "F#4",
          "midi": 66,
          "time": 44.328339000000156,
          "velocity": 0.5748031496062992,
          "duration": 0.20522379166666838
        },
        {
          "name": "F#4",
          "midi": 66,
          "time": 44.328339000000156,
          "velocity": 0.5118110236220472,
          "duration": 0.2518655625000008
        },
        {
          "name": "C#4",
          "midi": 61,
          "time": 44.552219500000156,
          "velocity": 0.5669291338582677,
          "duration": 0.21268647499999815
        },
        {
          "name": "F#3",
          "midi": 54,
          "time": 44.776100000000156,
          "velocity": 0.5826771653543307,
          "duration": 0.264925258333335
        },
        {
          "name": "C#4",
          "midi": 61,
          "time": 44.999980500000156,
          "velocity": 0.5511811023622047,
          "duration": 0.20895513333333326
        },
        {
          "name": "F#4",
          "midi": 66,
          "time": 45.223861000000156,
          "velocity": 0.5826771653543307,
          "duration": 0.24067153749999903
        },
        {
          "name": "C#4",
          "midi": 61,
          "time": 45.447741500000156,
          "velocity": 0.5748031496062992,
          "duration": 0.1735073875000026
        },
        {
          "name": "F#3",
          "midi": 54,
          "time": 45.671622000000156,
          "velocity": 0.5826771653543307,
          "duration": 0.5354475291666674
        },
        {
          "name": "C#4",
          "midi": 61,
          "time": 45.895502500000156,
          "velocity": 0.5590551181102362,
          "duration": 0.15485067916666395
        },
        {
          "name": "F#4",
          "midi": 66,
          "time": 45.895502500000156,
          "velocity": 0.6299212598425197,
          "duration": 0.18470141249999728
        },
        {
          "name": "F#4",
          "midi": 66,
          "time": 46.119383000000155,
          "velocity": 0.5905511811023622,
          "duration": 0.18470141250000438
        },
        {
          "name": "F#4",
          "midi": 66,
          "time": 46.119383000000155,
          "velocity": 0.6456692913385826,
          "duration": 0.23694019583334125
        },
        {
          "name": "C#4",
          "midi": 61,
          "time": 46.34326350000016,
          "velocity": 0.5590551181102362,
          "duration": 0.21268647499999815
        },
        {
          "name": "F#4",
          "midi": 66,
          "time": 46.34326350000016,
          "velocity": 0.6377952755905512,
          "duration": 0.1977611083333315
        },
        {
          "name": "D2",
          "midi": 38,
          "time": 46.56714400000016,
          "velocity": 0.5984251968503937,
          "duration": 3.4085806125000175
        },
        {
          "name": "A2",
          "midi": 45,
          "time": 46.56714400000016,
          "velocity": 0.5984251968503937,
          "duration": 3.417908966666687
        },
        {
          "name": "F#3",
          "midi": 54,
          "time": 46.56714400000016,
          "velocity": 0.5984251968503937,
          "duration": 0.6716415000000069
        },
        {
          "name": "B4",
          "midi": 71,
          "time": 46.56714400000016,
          "velocity": 0.6692913385826772,
          "duration": 0.21641781666666304
        },
        {
          "name": "D4",
          "midi": 62,
          "time": 46.79102450000016,
          "velocity": 0.5590551181102362,
          "duration": 0.27052227083333946
        },
        {
          "name": "A4",
          "midi": 69,
          "time": 46.79102450000016,
          "velocity": 0.5826771653543307,
          "duration": 0.21641781666667015
        },
        {
          "name": "F#4",
          "midi": 66,
          "time": 47.01490500000017,
          "velocity": 0.5826771653543307,
          "duration": 0.2350745250000017
        },
        {
          "name": "B4",
          "midi": 71,
          "time": 47.01490500000017,
          "velocity": 0.6535433070866141,
          "duration": 0.8880593166666699
        },
        {
          "name": "D4",
          "midi": 62,
          "time": 47.23878550000017,
          "velocity": 0.5826771653543307,
          "duration": 0.22947751249999726
        },
        {
          "name": "F#3",
          "midi": 54,
          "time": 47.46266600000017,
          "velocity": 0.5905511811023622,
          "duration": 0.44402965833333496
        },
        {
          "name": "D4",
          "midi": 62,
          "time": 47.68654650000017,
          "velocity": 0.5826771653543307,
          "duration": 0.24253720833333148
        },
        {
          "name": "F#4",
          "midi": 66,
          "time": 47.91042700000017,
          "velocity": 0.5826771653543307,
          "duration": 0.24067153749999903
        },
        {
          "name": "C#5",
          "midi": 73,
          "time": 47.91042700000017,
          "velocity": 0.6377952755905512,
          "duration": 0.8880593166666699
        },
        {
          "name": "D4",
          "midi": 62,
          "time": 48.13430750000017,
          "velocity": 0.6062992125984252,
          "duration": 0.20522379166666838
        },
        {
          "name": "F#3",
          "midi": 54,
          "time": 48.35818800000017,
          "velocity": 0.5905511811023622,
          "duration": 0.2518655625000008
        },
        {
          "name": "D4",
          "midi": 62,
          "time": 48.58206850000017,
          "velocity": 0.5826771653543307,
          "duration": 0.20522379166666838
        },
        {
          "name": "F#4",
          "midi": 66,
          "time": 48.805949000000176,
          "velocity": 0.5826771653543307,
          "duration": 0.24067153749999903
        },
        {
          "name": "D4",
          "midi": 62,
          "time": 49.029829500000176,
          "velocity": 0.6141732283464567,
          "duration": 0.22388049999999993
        },
        {
          "name": "F#3",
          "midi": 54,
          "time": 49.253710000000176,
          "velocity": 0.5905511811023622,
          "duration": 0.2686565999999999
        },
        {
          "name": "D4",
          "midi": 62,
          "time": 49.477590500000176,
          "velocity": 0.6141732283464567,
          "duration": 0.1977611083333315
        },
        {
          "name": "F#4",
          "midi": 66,
          "time": 49.701471000000176,
          "velocity": 0.6141732283464567,
          "duration": 0.21641781666667015
        },
        {
          "name": "E5",
          "midi": 76,
          "time": 49.701471000000176,
          "velocity": 0.7086614173228346,
          "duration": 1.3358203166666769
        },
        {
          "name": "D4",
          "midi": 62,
          "time": 49.92535150000018,
          "velocity": 0.6141732283464567,
          "duration": 0.11007457916666397
        },
        {
          "name": "A2",
          "midi": 45,
          "time": 50.14923200000018,
          "velocity": 0.6141732283464567,
          "duration": 3.0764912041666364
        },
        {
          "name": "E3",
          "midi": 52,
          "time": 50.14923200000018,
          "velocity": 0.6141732283464567,
          "duration": 3.1380583416666354
        },
        {
          "name": "A3",
          "midi": 57,
          "time": 50.14923200000018,
          "velocity": 0.6141732283464567,
          "duration": 0.570895274999998
        },
        {
          "name": "C#4",
          "midi": 61,
          "time": 50.373112500000175,
          "velocity": 0.5669291338582677,
          "duration": 0.2555969041666728
        },
        {
          "name": "E4",
          "midi": 64,
          "time": 50.59699300000018,
          "velocity": 0.5984251968503937,
          "duration": 0.24440287916666392
        },
        {
          "name": "C#4",
          "midi": 61,
          "time": 50.82087350000018,
          "velocity": 0.5984251968503937,
          "duration": 0.20895513333333326
        },
        {
          "name": "A3",
          "midi": 57,
          "time": 51.04475400000019,
          "velocity": 0.5826771653543307,
          "duration": 0.45522368333333674
        },
        {
          "name": "C#5",
          "midi": 73,
          "time": 51.04475400000019,
          "velocity": 0.6771653543307087,
          "duration": 0.8880593166666699
        },
        {
          "name": "C#4",
          "midi": 61,
          "time": 51.26863450000019,
          "velocity": 0.5905511811023622,
          "duration": 0.22014915833333504
        },
        {
          "name": "E4",
          "midi": 64,
          "time": 51.49251500000019,
          "velocity": 0.5511811023622047,
          "duration": 0.2555969041666728
        },
        {
          "name": "C#4",
          "midi": 61,
          "time": 51.716395500000196,
          "velocity": 0.5905511811023622,
          "duration": 0.2108208041666657
        },
        {
          "name": "A3",
          "midi": 57,
          "time": 51.940276000000196,
          "velocity": 0.5984251968503937,
          "duration": 0.5466415541666763
        },
        {
          "name": "C#4",
          "midi": 61,
          "time": 52.164156500000196,
          "velocity": 0.5905511811023622,
          "duration": 0.2014924500000035
        },
        {
          "name": "E4",
          "midi": 64,
          "time": 52.3880370000002,
          "velocity": 0.5748031496062992,
          "duration": 0.24253720833333148
        },
        {
          "name": "C#4",
          "midi": 61,
          "time": 52.6119175000002,
          "velocity": 0.5905511811023622,
          "duration": 0.2070894624999582
        },
        {
          "name": "F#5",
          "midi": 78,
          "time": 52.6119175000002,
          "velocity": 0.7086614173228346,
          "duration": 0.6641788166666132
        },
        {
          "name": "A3",
          "midi": 57,
          "time": 52.83579800000015,
          "velocity": 0.5826771653543307,
          "duration": 0.4048505708333323
        },
        {
          "name": "C#4",
          "midi": 61,
          "time": 53.05967850000015,
          "velocity": 0.5905511811023622,
          "duration": 0.1977611083333315
        },
        {
          "name": "E4",
          "midi": 64,
          "time": 53.28355900000015,
          "velocity": 0.5511811023622047,
          "duration": 0.19216409583333416
        },
        {
          "name": "E5",
          "midi": 76,
          "time": 53.28355900000015,
          "velocity": 0.6377952755905512,
          "duration": 0.1772387291666675
        },
        {
          "name": "C#4",
          "midi": 61,
          "time": 53.50743950000015,
          "velocity": 0.5905511811023622,
          "duration": 0.1529850083333315
        },
        {
          "name": "E5",
          "midi": 76,
          "time": 53.50743950000015,
          "velocity": 0.7007874015748031,
          "duration": 0.8582085833333366
        },
        {
          "name": "G#2",
          "midi": 44,
          "time": 53.731320000000146,
          "velocity": 0.5905511811023622,
          "duration": 3.1865657833332293
        },
        {
          "name": "E3",
          "midi": 52,
          "time": 53.731320000000146,
          "velocity": 0.6062992125984252,
          "duration": 3.2444015791665635
        },
        {
          "name": "G#3",
          "midi": 56,
          "time": 53.731320000000146,
          "velocity": 0.5905511811023622,
          "duration": 0.6828355250000158
        },
        {
          "name": "C#4",
          "midi": 61,
          "time": 53.95520050000015,
          "velocity": 0.5511811023622047,
          "duration": 0.22388049999999993
        },
        {
          "name": "E4",
          "midi": 64,
          "time": 54.17908100000015,
          "velocity": 0.5826771653543307,
          "duration": 0.2350745250000088
        },
        {
          "name": "C#4",
          "midi": 61,
          "time": 54.40296150000016,
          "velocity": 0.5511811023622047,
          "duration": 0.21082080416667281
        },
        {
          "name": "E5",
          "midi": 76,
          "time": 54.40296150000016,
          "velocity": 0.6692913385826772,
          "duration": 0.10447756666666663
        },
        {
          "name": "D5",
          "midi": 74,
          "time": 54.51490175000016,
          "velocity": 0.6141732283464567,
          "duration": 0.10447756666666663
        },
        {
          "name": "G#3",
          "midi": 56,
          "time": 54.62684200000017,
          "velocity": 0.6062992125984252,
          "duration": 0.4944027708333323
        },
        {
          "name": "C#5",
          "midi": 73,
          "time": 54.62684200000017,
          "velocity": 0.6850393700787402,
          "duration": 1.1138054874998602
        },
        {
          "name": "C#4",
          "midi": 61,
          "time": 54.85072250000017,
          "velocity": 0.5511811023622047,
          "duration": 0.19216409583333416
        },
        {
          "name": "E4",
          "midi": 64,
          "time": 55.07460300000017,
          "velocity": 0.5826771653543307,
          "duration": 0.22761184166666482
        },
        {
          "name": "C#4",
          "midi": 61,
          "time": 55.29848350000017,
          "velocity": 0.5826771653543307,
          "duration": 0.20149244999991112
        },
        {
          "name": "G#3",
          "midi": 56,
          "time": 55.52236400000007,
          "velocity": 0.5905511811023622,
          "duration": 0.5317161874999599
        },
        {
          "name": "C#4",
          "midi": 61,
          "time": 55.746244500000024,
          "velocity": 0.5354330708661418,
          "duration": 0.1977611083333315
        },
        {
          "name": "E4",
          "midi": 64,
          "time": 55.970125000000024,
          "velocity": 0.5826771653543307,
          "duration": 0.2555969041666657
        },
        {
          "name": "C#4",
          "midi": 61,
          "time": 56.194005500000024,
          "velocity": 0.5590551181102362,
          "duration": 0.19029842500000171
        },
        {
          "name": "G#3",
          "midi": 56,
          "time": 56.417886000000024,
          "velocity": 0.6062992125984252,
          "duration": 0.5970146666666878
        },
        {
          "name": "C#5",
          "midi": 73,
          "time": 56.417886000000024,
          "velocity": 0.6929133858267716,
          "duration": 0.18843275416666927
        },
        {
          "name": "C#4",
          "midi": 61,
          "time": 56.64176650000003,
          "velocity": 0.5748031496062992,
          "duration": 0.17537305833335637
        },
        {
          "name": "C#5",
          "midi": 73,
          "time": 56.64176650000003,
          "velocity": 0.6614173228346457,
          "duration": 0.6641788166666771
        },
        {
          "name": "E4",
          "midi": 64,
          "time": 56.86564700000005,
          "velocity": 0.5984251968503937,
          "duration": 0.24067153749999193
        },
        {
          "name": "C#4",
          "midi": 61,
          "time": 57.089527500000045,
          "velocity": 0.5669291338582677,
          "duration": 0.18470141249999728
        },
        {
          "name": "F#2",
          "midi": 42,
          "time": 57.313408000000045,
          "velocity": 0.5984251968503937,
          "duration": 3.083953887500023
        },
        {
          "name": "C#3",
          "midi": 49,
          "time": 57.313408000000045,
          "velocity": 0.5984251968503937,
          "duration": 3.063431508333359
        },
        {
          "name": "F#3",
          "midi": 54,
          "time": 57.313408000000045,
          "velocity": 0.5748031496062992,
          "duration": 0.5485072250000016
        },
        {
          "name": "F#4",
          "midi": 66,
          "time": 57.313408000000045,
          "velocity": 0.6771653543307087,
          "duration": 0.4048505708333323
        },
        {
          "name": "C#4",
          "midi": 61,
          "time": 57.537288500000045,
          "velocity": 0.6141732283464567,
          "duration": 0.1399253124999973
        },
        {
          "name": "F#4",
          "midi": 66,
          "time": 57.761169000000045,
          "velocity": 0.6141732283464567,
          "duration": 0.21641781666667015
        },
        {
          "name": "F#4",
          "midi": 66,
          "time": 57.761169000000045,
          "velocity": 0.6220472440944882,
          "duration": 0.22761184166667192
        },
        {
          "name": "C#4",
          "midi": 61,
          "time": 57.98504950000005,
          "velocity": 0.6220472440944882,
          "duration": 0.20522379166666838
        },
        {
          "name": "A4",
          "midi": 69,
          "time": 57.98504950000005,
          "velocity": 0.6771653543307087,
          "duration": 0.8880593166666699
        },
        {
          "name": "F#3",
          "midi": 54,
          "time": 58.20893000000005,
          "velocity": 0.6299212598425197,
          "duration": 0.264925258333335
        },
        {
          "name": "C#4",
          "midi": 61,
          "time": 58.43281050000005,
          "velocity": 0.6377952755905512,
          "duration": 0.24999989166666836
        },
        {
          "name": "F#4",
          "midi": 66,
          "time": 58.65669100000005,
          "velocity": 0.6377952755905512,
          "duration": 0.2518655625000079
        },
        {
          "name": "C#4",
          "midi": 61,
          "time": 58.88057150000006,
          "velocity": 0.6456692913385826,
          "duration": 0.21268647499999815
        },
        {
          "name": "F#4",
          "midi": 66,
          "time": 58.88057150000006,
          "velocity": 0.6692913385826772,
          "duration": 0.4402983166666701
        },
        {
          "name": "F#3",
          "midi": 54,
          "time": 59.10445200000006,
          "velocity": 0.6456692913385826,
          "duration": 0.26492525833334213
        },
        {
          "name": "C#4",
          "midi": 61,
          "time": 59.328332500000066,
          "velocity": 0.6456692913385826,
          "duration": 0.20895513333333326
        },
        {
          "name": "E4",
          "midi": 64,
          "time": 59.328332500000066,
          "velocity": 0.44881889763779526,
          "duration": 0.21641781666667015
        },
        {
          "name": "F#4",
          "midi": 66,
          "time": 59.55221300000007,
          "velocity": 0.6377952755905512,
          "duration": 0.24067153749999903
        },
        {
          "name": "C#4",
          "midi": 61,
          "time": 59.77609350000007,
          "velocity": 0.6377952755905512,
          "duration": 0.1735073875000026
        },
        {
          "name": "F#3",
          "midi": 54,
          "time": 59.99997400000007,
          "velocity": 0.6299212598425197,
          "duration": 0.5354475291666674
        },
        {
          "name": "C#4",
          "midi": 61,
          "time": 60.22385450000007,
          "velocity": 0.6220472440944882,
          "duration": 0.15485067916666395
        },
        {
          "name": "E4",
          "midi": 64,
          "time": 60.22385450000007,
          "velocity": 0.6692913385826772,
          "duration": 0.21641781666666304
        },
        {
          "name": "F#4",
          "midi": 66,
          "time": 60.44773500000007,
          "velocity": 0.6220472440944882,
          "duration": 0.23694019583333414
        },
        {
          "name": "F#4",
          "midi": 66,
          "time": 60.44773500000007,
          "velocity": 0.6929133858267716,
          "duration": 0.44029831666666297
        },
        {
          "name": "C#4",
          "midi": 61,
          "time": 60.67161550000007,
          "velocity": 0.6220472440944882,
          "duration": 0.21268647499999815
        },
        {
          "name": "D2",
          "midi": 38,
          "time": 60.89549600000007,
          "velocity": 0.6377952755905512,
          "duration": 3.408580612499854
        },
        {
          "name": "A2",
          "midi": 45,
          "time": 60.89549600000007,
          "velocity": 0.6377952755905512,
          "duration": 3.4179089666665234
        },
        {
          "name": "F#3",
          "midi": 54,
          "time": 60.89549600000007,
          "velocity": 0.6377952755905512,
          "duration": 0.6716414999998435
        },
        {
          "name": "B4",
          "midi": 71,
          "time": 60.89549600000007,
          "velocity": 0.6850393700787402,
          "duration": 1.0615667041665091
        },
        {
          "name": "A3",
          "midi": 57,
          "time": 61.11937649999998,
          "velocity": 0.6141732283464567,
          "duration": 0.2705222708332684
        },
        {
          "name": "F#4",
          "midi": 66,
          "time": 61.343256999999916,
          "velocity": 0.6141732283464567,
          "duration": 0.2350745250000017
        },
        {
          "name": "A3",
          "midi": 57,
          "time": 61.567137499999916,
          "velocity": 0.6220472440944882,
          "duration": 0.22947751249999726
        },
        {
          "name": "F#3",
          "midi": 54,
          "time": 61.791017999999916,
          "velocity": 0.6220472440944882,
          "duration": 0.44402965833333496
        },
        {
          "name": "A3",
          "midi": 57,
          "time": 62.014898499999916,
          "velocity": 0.6220472440944882,
          "duration": 0.24253720833333148
        },
        {
          "name": "B4",
          "midi": 71,
          "time": 62.014898499999916,
          "velocity": 0.7007874015748031,
          "duration": 0.21641781666667015
        },
        {
          "name": "F#4",
          "midi": 66,
          "time": 62.238778999999916,
          "velocity": 0.6220472440944882,
          "duration": 0.24067153749999903
        },
        {
          "name": "A4",
          "midi": 69,
          "time": 62.238778999999916,
          "velocity": 0.6456692913385826,
          "duration": 0.21641781666666304
        },
        {
          "name": "A3",
          "midi": 57,
          "time": 62.462659499999916,
          "velocity": 0.6220472440944882,
          "duration": 0.20522379166666838
        },
        {
          "name": "B4",
          "midi": 71,
          "time": 62.462659499999916,
          "velocity": 0.6850393700787402,
          "duration": 0.66417881666667
        },
        {
          "name": "F#3",
          "midi": 54,
          "time": 62.686539999999916,
          "velocity": 0.6220472440944882,
          "duration": 0.2518655625000008
        },
        {
          "name": "A3",
          "midi": 57,
          "time": 62.910420499999915,
          "velocity": 0.6220472440944882,
          "duration": 0.20522379166666838
        },
        {
          "name": "F#4",
          "midi": 66,
          "time": 63.13430099999992,
          "velocity": 0.6220472440944882,
          "duration": 0.24067153749999903
        },
        {
          "name": "C#5",
          "midi": 73,
          "time": 63.13430099999992,
          "velocity": 0.6220472440944882,
          "duration": 0.44029831666666297
        },
        {
          "name": "A3",
          "midi": 57,
          "time": 63.35818149999992,
          "velocity": 0.6220472440944882,
          "duration": 0.22388049999999993
        },
        {
          "name": "F#3",
          "midi": 54,
          "time": 63.58206199999992,
          "velocity": 0.6220472440944882,
          "duration": 0.2686565999999999
        },
        {
          "name": "A3",
          "midi": 57,
          "time": 63.80594249999992,
          "velocity": 0.6220472440944882,
          "duration": 0.1977611083333315
        },
        {
          "name": "F#4",
          "midi": 66,
          "time": 64.02982299999992,
          "velocity": 0.6220472440944882,
          "duration": 0.21641781666666304
        },
        {
          "name": "A3",
          "midi": 57,
          "time": 64.25370349999992,
          "velocity": 0.6220472440944882,
          "duration": 0.11007457916667818
        },
        {
          "name": "E2",
          "midi": 40,
          "time": 64.47758399999992,
          "velocity": 0.5984251968503937,
          "duration": 1.7835813166666412
        },
        {
          "name": "B2",
          "midi": 47,
          "time": 64.47758399999992,
          "velocity": 0.5984251968503937,
          "duration": 1.7835813166666412
        },
        {
          "name": "F#3",
          "midi": 54,
          "time": 64.47758399999992,
          "velocity": 0.5984251968503937,
          "duration": 0.6716414999999785
        },
        {
          "name": "B4",
          "midi": 71,
          "time": 64.47758399999992,
          "velocity": 0.7007874015748031,
          "duration": 0.21641781666666304
        },
        {
          "name": "G#3",
          "midi": 56,
          "time": 64.70146449999991,
          "velocity": 0.5905511811023622,
          "duration": 0.27052227083332525
        },
        {
          "name": "C#5",
          "midi": 73,
          "time": 64.70146449999991,
          "velocity": 0.6299212598425197,
          "duration": 0.18283574166666483
        },
        {
          "name": "E4",
          "midi": 64,
          "time": 64.92534499999991,
          "velocity": 0.5826771653543307,
          "duration": 0.2350745249999875
        },
        {
          "name": "C#5",
          "midi": 73,
          "time": 64.92534499999991,
          "velocity": 0.6456692913385826,
          "duration": 0.18283574166666483
        },
        {
          "name": "G#3",
          "midi": 56,
          "time": 65.1492254999999,
          "velocity": 0.5826771653543307,
          "duration": 0.22947751249999726
        },
        {
          "name": "C#5",
          "midi": 73,
          "time": 65.1492254999999,
          "velocity": 0.6929133858267716,
          "duration": 0.4253729499999963
        },
        {
          "name": "F#3",
          "midi": 54,
          "time": 65.3731059999999,
          "velocity": 0.5905511811023622,
          "duration": 0.44402965833333496
        },
        {
          "name": "G#3",
          "midi": 56,
          "time": 65.5969864999999,
          "velocity": 0.5826771653543307,
          "duration": 0.24253720833333148
        },
        {
          "name": "B4",
          "midi": 71,
          "time": 65.5969864999999,
          "velocity": 0.6614173228346457,
          "duration": 0.18283574166666483
        },
        {
          "name": "E4",
          "midi": 64,
          "time": 65.8208669999999,
          "velocity": 0.5826771653543307,
          "duration": 0.24067153750000614
        },
        {
          "name": "B4",
          "midi": 71,
          "time": 65.8208669999999,
          "velocity": 0.6850393700787402,
          "duration": 0.21641781666667725
        },
        {
          "name": "G#3",
          "midi": 56,
          "time": 66.0447474999999,
          "velocity": 0.6062992125984252,
          "duration": 0.20522379166666838
        },
        {
          "name": "A4",
          "midi": 69,
          "time": 66.0447474999999,
          "velocity": 0.6692913385826772,
          "duration": 0.21641781666666304
        },
        {
          "name": "F#2",
          "midi": 42,
          "time": 66.2686279999999,
          "velocity": 0.5984251968503937,
          "duration": 1.6175366124999897
        },
        {
          "name": "C#3",
          "midi": 49,
          "time": 66.2686279999999,
          "velocity": 0.5984251968503937,
          "duration": 1.626864966666659
        },
        {
          "name": "F#3",
          "midi": 54,
          "time": 66.2686279999999,
          "velocity": 0.5905511811023622,
          "duration": 0.2518655625000008
        },
        {
          "name": "B4",
          "midi": 71,
          "time": 66.2686279999999,
          "velocity": 0.7401574803149606,
          "duration": 0.3917908749999981
        },
        {
          "name": "A3",
          "midi": 57,
          "time": 66.4925084999999,
          "velocity": 0.5826771653543307,
          "duration": 0.20522379166665417
        },
        {
          "name": "E4",
          "midi": 64,
          "time": 66.7163889999999,
          "velocity": 0.5826771653543307,
          "duration": 0.24067153749999193
        },
        {
          "name": "B4",
          "midi": 71,
          "time": 66.7163889999999,
          "velocity": 0.6771653543307087,
          "duration": 0.21641781666666304
        },
        {
          "name": "A3",
          "midi": 57,
          "time": 66.94026949999989,
          "velocity": 0.6141732283464567,
          "duration": 0.22388049999999282
        },
        {
          "name": "A4",
          "midi": 69,
          "time": 66.94026949999989,
          "velocity": 0.6771653543307087,
          "duration": 0.21641781666666304
        },
        {
          "name": "F#3",
          "midi": 54,
          "time": 67.16414999999988,
          "velocity": 0.5905511811023622,
          "duration": 0.2686565999999999
        },
        {
          "name": "B4",
          "midi": 71,
          "time": 67.16414999999988,
          "velocity": 0.6771653543307087,
          "duration": 0.21641781666666304
        },
        {
          "name": "A3",
          "midi": 57,
          "time": 67.38803049999987,
          "velocity": 0.6141732283464567,
          "duration": 0.1977611083333528
        },
        {
          "name": "A4",
          "midi": 69,
          "time": 67.38803049999987,
          "velocity": 0.6929133858267716,
          "duration": 0.19589543750001326
        },
        {
          "name": "E4",
          "midi": 64,
          "time": 67.61191099999989,
          "velocity": 0.6141732283464567,
          "duration": 0.21641781666666304
        },
        {
          "name": "A4",
          "midi": 69,
          "time": 67.61191099999989,
          "velocity": 0.6692913385826772,
          "duration": 0.1156715916666684
        },
        {
          "name": "A4",
          "midi": 69,
          "time": 67.76489600833322,
          "velocity": 0.6929133858267716,
          "duration": 0.7313429666666593
        },
        {
          "name": "A3",
          "midi": 57,
          "time": 67.83579149999989,
          "velocity": 0.6141732283464567,
          "duration": 0.11007457916666397
        },
        {
          "name": "D2",
          "midi": 38,
          "time": 68.05967199999988,
          "velocity": 0.5984251968503937,
          "duration": 3.4085806124999465
        },
        {
          "name": "A2",
          "midi": 45,
          "time": 68.05967199999988,
          "velocity": 0.5984251968503937,
          "duration": 3.417908966666616
        },
        {
          "name": "F#3",
          "midi": 54,
          "time": 68.05967199999988,
          "velocity": 0.5984251968503937,
          "duration": 0.6716414999999927
        },
        {
          "name": "A3",
          "midi": 57,
          "time": 68.28355249999989,
          "velocity": 0.5590551181102362,
          "duration": 0.27052227083332525
        },
        {
          "name": "D4",
          "midi": 62,
          "time": 68.50743299999988,
          "velocity": 0.5826771653543307,
          "duration": 0.2350745249999875
        },
        {
          "name": "B4",
          "midi": 71,
          "time": 68.50743299999988,
          "velocity": 0.6850393700787402,
          "duration": 0.1324626291666675
        },
        {
          "name": "A4",
          "midi": 69,
          "time": 68.64735831249988,
          "velocity": 0.6141732283464567,
          "duration": 0.3003730041666586
        },
        {
          "name": "A3",
          "midi": 57,
          "time": 68.73131349999987,
          "velocity": 0.5826771653543307,
          "duration": 0.22947751249999726
        },
        {
          "name": "F#3",
          "midi": 54,
          "time": 68.95519399999986,
          "velocity": 0.5905511811023622,
          "duration": 0.44402965833333496
        },
        {
          "name": "B4",
          "midi": 71,
          "time": 68.95519399999986,
          "velocity": 0.7007874015748031,
          "duration": 0.21641781666667725
        },
        {
          "name": "A3",
          "midi": 57,
          "time": 69.17907449999987,
          "velocity": 0.5826771653543307,
          "duration": 0.24253720833333148
        },
        {
          "name": "A4",
          "midi": 69,
          "time": 69.17907449999987,
          "velocity": 0.6141732283464567,
          "duration": 0.21641781666666304
        },
        {
          "name": "D4",
          "midi": 62,
          "time": 69.40295499999986,
          "velocity": 0.5826771653543307,
          "duration": 0.24067153750000614
        },
        {
          "name": "B4",
          "midi": 71,
          "time": 69.40295499999986,
          "velocity": 0.6771653543307087,
          "duration": 0.6641788166666771
        },
        {
          "name": "A3",
          "midi": 57,
          "time": 69.62683549999987,
          "velocity": 0.6062992125984252,
          "duration": 0.20522379166666838
        },
        {
          "name": "F#3",
          "midi": 54,
          "time": 69.85071599999988,
          "velocity": 0.5905511811023622,
          "duration": 0.2518655624999866
        },
        {
          "name": "A3",
          "midi": 57,
          "time": 70.07459649999987,
          "velocity": 0.5826771653543307,
          "duration": 0.20522379166665417
        },
        {
          "name": "A4",
          "midi": 69,
          "time": 70.07459649999987,
          "velocity": 0.6771653543307087,
          "duration": 0.21641781666664883
        },
        {
          "name": "D4",
          "midi": 62,
          "time": 70.29847699999985,
          "velocity": 0.5826771653543307,
          "duration": 0.24067153749999193
        },
        {
          "name": "B4",
          "midi": 71,
          "time": 70.29847699999985,
          "velocity": 0.6929133858267716,
          "duration": 0.1361939708333324
        },
        {
          "name": "A4",
          "midi": 69,
          "time": 70.43840231249985,
          "velocity": 0.6141732283464567,
          "duration": 0.3003730041666586
        },
        {
          "name": "A3",
          "midi": 57,
          "time": 70.52235749999984,
          "velocity": 0.6141732283464567,
          "duration": 0.22388049999999282
        },
        {
          "name": "F#3",
          "midi": 54,
          "time": 70.74623799999983,
          "velocity": 0.5905511811023622,
          "duration": 0.2686565999999999
        },
        {
          "name": "B4",
          "midi": 71,
          "time": 70.74623799999983,
          "velocity": 0.7007874015748031,
          "duration": 0.21641781666666304
        },
        {
          "name": "A3",
          "midi": 57,
          "time": 70.97011849999983,
          "velocity": 0.6141732283464567,
          "duration": 0.1977611083333386
        },
        {
          "name": "A4",
          "midi": 69,
          "time": 70.97011849999983,
          "velocity": 0.6141732283464567,
          "duration": 0.18656708333334393
        },
        {
          "name": "D4",
          "midi": 62,
          "time": 71.19399899999983,
          "velocity": 0.6141732283464567,
          "duration": 0.21641781666666304
        },
        {
          "name": "A4",
          "midi": 69,
          "time": 71.19399899999983,
          "velocity": 0.6929133858267716,
          "duration": 0.18656708333332972
        },
        {
          "name": "A3",
          "midi": 57,
          "time": 71.41787949999983,
          "velocity": 0.6141732283464567,
          "duration": 0.11007457916666397
        },
        {
          "name": "A4",
          "midi": 69,
          "time": 71.41787949999983,
          "velocity": 0.6535433070866141,
          "duration": 0.21641781666666304
        },
        {
          "name": "E2",
          "midi": 40,
          "time": 71.64175999999982,
          "velocity": 0.5984251968503937,
          "duration": 1.7835813166666412
        },
        {
          "name": "B2",
          "midi": 47,
          "time": 71.64175999999982,
          "velocity": 0.5984251968503937,
          "duration": 1.7835813166666412
        },
        {
          "name": "F#3",
          "midi": 54,
          "time": 71.64175999999982,
          "velocity": 0.5984251968503937,
          "duration": 0.6716414999999785
        },
        {
          "name": "B4",
          "midi": 71,
          "time": 71.64175999999982,
          "velocity": 0.7086614173228346,
          "duration": 0.21641781666666304
        },
        {
          "name": "G#3",
          "midi": 56,
          "time": 71.86564049999981,
          "velocity": 0.5590551181102362,
          "duration": 0.27052227083332525
        },
        {
          "name": "C#5",
          "midi": 73,
          "time": 71.86564049999981,
          "velocity": 0.6141732283464567,
          "duration": 0.18656708333332972
        },
        {
          "name": "E4",
          "midi": 64,
          "time": 72.0895209999998,
          "velocity": 0.5826771653543307,
          "duration": 0.2350745249999875
        },
        {
          "name": "C#5",
          "midi": 73,
          "time": 72.0895209999998,
          "velocity": 0.6771653543307087,
          "duration": 0.18656708333332972
        },
        {
          "name": "G#3",
          "midi": 56,
          "time": 72.3134014999998,
          "velocity": 0.5826771653543307,
          "duration": 0.22947751249999726
        },
        {
          "name": "C#5",
          "midi": 73,
          "time": 72.3134014999998,
          "velocity": 0.6771653543307087,
          "duration": 0.18656708333332972
        },
        {
          "name": "F#3",
          "midi": 54,
          "time": 72.53728199999979,
          "velocity": 0.5905511811023622,
          "duration": 0.44402965833333496
        },
        {
          "name": "C#5",
          "midi": 73,
          "time": 72.53728199999979,
          "velocity": 0.7086614173228346,
          "duration": 0.4402983166666701
        },
        {
          "name": "G#3",
          "midi": 56,
          "time": 72.7611624999998,
          "velocity": 0.5826771653543307,
          "duration": 0.24253720833333148
        },
        {
          "name": "E4",
          "midi": 64,
          "time": 72.98504299999979,
          "velocity": 0.5826771653543307,
          "duration": 0.24067153750000614
        },
        {
          "name": "G#3",
          "midi": 56,
          "time": 73.2089234999998,
          "velocity": 0.6062992125984252,
          "duration": 0.20522379166666838
        },
        {
          "name": "B4",
          "midi": 71,
          "time": 73.2089234999998,
          "velocity": 0.6692913385826772,
          "duration": 0.18470141250000438
        },
        {
          "name": "F#2",
          "midi": 42,
          "time": 73.43280399999979,
          "velocity": 0.5984251968503937,
          "duration": 1.6175366124999613
        },
        {
          "name": "C#3",
          "midi": 49,
          "time": 73.43280399999979,
          "velocity": 0.5984251968503937,
          "duration": 1.6268649666666306
        },
        {
          "name": "F#3",
          "midi": 54,
          "time": 73.43280399999979,
          "velocity": 0.5905511811023622,
          "duration": 0.2518655625000008
        },
        {
          "name": "B4",
          "midi": 71,
          "time": 73.43280399999979,
          "velocity": 0.7086614173228346,
          "duration": 0.21641781666667725
        },
        {
          "name": "A3",
          "midi": 57,
          "time": 73.6566844999998,
          "velocity": 0.5826771653543307,
          "duration": 0.20522379166665417
        },
        {
          "name": "A4",
          "midi": 69,
          "time": 73.6566844999998,
          "velocity": 0.6692913385826772,
          "duration": 0.21641781666664883
        },
        {
          "name": "E4",
          "midi": 64,
          "time": 73.88056499999978,
          "velocity": 0.5826771653543307,
          "duration": 0.24067153749999193
        },
        {
          "name": "B4",
          "midi": 71,
          "time": 73.88056499999978,
          "velocity": 0.7086614173228346,
          "duration": 0.21641781666666304
        },
        {
          "name": "A3",
          "midi": 57,
          "time": 74.10444549999977,
          "velocity": 0.6141732283464567,
          "duration": 0.22388049999999282
        },
        {
          "name": "A4",
          "midi": 69,
          "time": 74.10444549999977,
          "velocity": 0.6692913385826772,
          "duration": 0.21641781666666304
        },
        {
          "name": "F#3",
          "midi": 54,
          "time": 74.32832599999976,
          "velocity": 0.5905511811023622,
          "duration": 0.2686565999999999
        },
        {
          "name": "B4",
          "midi": 71,
          "time": 74.32832599999976,
          "velocity": 0.7086614173228346,
          "duration": 0.21641781666666304
        },
        {
          "name": "A3",
          "midi": 57,
          "time": 74.55220649999976,
          "velocity": 0.6141732283464567,
          "duration": 0.1977611083333386
        },
        {
          "name": "A4",
          "midi": 69,
          "time": 74.55220649999976,
          "velocity": 0.6692913385826772,
          "duration": 0.21641781666667725
        },
        {
          "name": "E4",
          "midi": 64,
          "time": 74.77608699999976,
          "velocity": 0.6141732283464567,
          "duration": 0.21641781666666304
        },
        {
          "name": "B4",
          "midi": 71,
          "time": 74.77608699999976,
          "velocity": 0.6929133858267716,
          "duration": 0.21641781666666304
        },
        {
          "name": "A3",
          "midi": 57,
          "time": 74.99996749999976,
          "velocity": 0.6141732283464567,
          "duration": 0.11007457916666397
        },
        {
          "name": "C#5",
          "midi": 73,
          "time": 74.99996749999976,
          "velocity": 0.6377952755905512,
          "duration": 0.21641781666666304
        },
        {
          "name": "D2",
          "midi": 38,
          "time": 75.22384799999975,
          "velocity": 0.5826771653543307,
          "duration": 5.14178881666669
        },
        {
          "name": "A2",
          "midi": 45,
          "time": 75.22384799999975,
          "velocity": 0.5826771653543307,
          "duration": 5.151117170833359
        },
        {
          "name": "F#3",
          "midi": 54,
          "time": 75.22384799999975,
          "velocity": 0.5826771653543307,
          "duration": 0.6716414999999927
        },
        {
          "name": "F#4",
          "midi": 66,
          "time": 75.22384799999975,
          "velocity": 0.5984251968503937,
          "duration": 0.6828355249999873
        },
        {
          "name": "A3",
          "midi": 57,
          "time": 75.44772849999974,
          "velocity": 0.5748031496062992,
          "duration": 0.27052227083333946
        },
        {
          "name": "F#4",
          "midi": 66,
          "time": 75.67160899999975,
          "velocity": 0.5511811023622047,
          "duration": 0.44029831666665586
        },
        {
          "name": "A3",
          "midi": 57,
          "time": 75.89548949999974,
          "velocity": 0.5511811023622047,
          "duration": 0.22947751249999726
        },
        {
          "name": "F#3",
          "midi": 54,
          "time": 76.11936999999973,
          "velocity": 0.5433070866141733,
          "duration": 0.44402965833333496
        },
        {
          "name": "A3",
          "midi": 57,
          "time": 76.34325049999974,
          "velocity": 0.5433070866141733,
          "duration": 0.24253720833333148
        },
        {
          "name": "A4",
          "midi": 69,
          "time": 76.34325049999974,
          "velocity": 0.6220472440944882,
          "duration": 0.21641781666666304
        },
        {
          "name": "F#4",
          "midi": 66,
          "time": 76.56713099999973,
          "velocity": 0.5433070866141733,
          "duration": 0.24067153750000614
        },
        {
          "name": "B4",
          "midi": 71,
          "time": 76.56713099999973,
          "velocity": 0.6771653543307087,
          "duration": 0.21641781666667725
        },
        {
          "name": "A3",
          "midi": 57,
          "time": 76.79101149999974,
          "velocity": 0.5275590551181102,
          "duration": 0.20522379166666838
        },
        {
          "name": "A4",
          "midi": 69,
          "time": 76.79101149999974,
          "velocity": 0.6456692913385826,
          "duration": 0.21641781666666304
        },
        {
          "name": "F#3",
          "midi": 54,
          "time": 77.01489199999973,
          "velocity": 0.5118110236220472,
          "duration": 0.2518655625000008
        },
        {
          "name": "B4",
          "midi": 71,
          "time": 77.01489199999973,
          "velocity": 0.6535433070866141,
          "duration": 0.8582085833333366
        },
        {
          "name": "G#3",
          "midi": 56,
          "time": 77.23877249999974,
          "velocity": 0.5039370078740157,
          "duration": 0.20522379166665417
        },
        {
          "name": "E4",
          "midi": 64,
          "time": 77.46265299999973,
          "velocity": 0.5039370078740157,
          "duration": 0.24067153750000614
        },
        {
          "name": "G#3",
          "midi": 56,
          "time": 77.68653349999974,
          "velocity": 0.48031496062992124,
          "duration": 0.22388049999999282
        },
        {
          "name": "F#3",
          "midi": 54,
          "time": 77.91041399999973,
          "velocity": 0.4566929133858268,
          "duration": 0.26865660000005676
        },
        {
          "name": "C#5",
          "midi": 73,
          "time": 77.91041399999973,
          "velocity": 0.6062992125984252,
          "duration": 1.783581316666698
        },
        {
          "name": "G#3",
          "midi": 56,
          "time": 78.13429449999978,
          "velocity": 0.44881889763779526,
          "duration": 0.1977611083333386
        },
        {
          "name": "E4",
          "midi": 64,
          "time": 78.35817499999979,
          "velocity": 0.4251968503937008,
          "duration": 0.21641781666666304
        },
        {
          "name": "G#3",
          "midi": 56,
          "time": 78.58205549999978,
          "velocity": 0.4094488188976378,
          "duration": 0.11007457916666397
        },
        {
          "name": "F#3",
          "midi": 54,
          "time": 78.80593599999978,
          "velocity": 0.4251968503937008,
          "duration": 0.6716414999999927
        },
        {
          "name": "A3",
          "midi": 57,
          "time": 79.02981649999977,
          "velocity": 0.4015748031496063,
          "duration": 0.27052227083333946
        },
        {
          "name": "F#4",
          "midi": 66,
          "time": 79.25369699999978,
          "velocity": 0.4015748031496063,
          "duration": 0.2350745249999875
        },
        {
          "name": "A3",
          "midi": 57,
          "time": 79.47757749999977,
          "velocity": 0.3937007874015748,
          "duration": 0.22947751249999726
        },
        {
          "name": "F#3",
          "midi": 54,
          "time": 79.70145799999976,
          "velocity": 0.3858267716535433,
          "duration": 0.44402965833333496
        },
        {
          "name": "A3",
          "midi": 57,
          "time": 79.92533849999977,
          "velocity": 0.3858267716535433,
          "duration": 0.24253720833333148
        },
        {
          "name": "F#4",
          "midi": 66,
          "time": 80.14921899999976,
          "velocity": 0.3700787401574803,
          "duration": 0.24067153750002035
        },
        {
          "name": "A3",
          "midi": 57,
          "time": 80.37309949999977,
          "velocity": 0.3228346456692913,
          "duration": 0.1604476916666755
        },
        {
          "name": "A1",
          "midi": 33,
          "time": 80.59697999999977,
          "velocity": 0.7480314960629921,
          "duration": 1.7052231416668064
        },
        {
          "name": "A2",
          "midi": 45,
          "time": 80.59697999999977,
          "velocity": 0.7480314960629921,
          "duration": 1.7145514958334758
        },
        {
          "name": "A3",
          "midi": 57,
          "time": 80.59697999999977,
          "velocity": 0.7480314960629921,
          "duration": 0.5708952750000122
        },
        {
          "name": "C#4",
          "midi": 61,
          "time": 80.82086049999978,
          "velocity": 0.7007874015748031,
          "duration": 0.2555969041666657
        },
        {
          "name": "A5",
          "midi": 81,
          "time": 80.82086049999978,
          "velocity": 0.7952755905511811,
          "duration": 0.18097007083332528
        },
        {
          "name": "A4",
          "midi": 69,
          "time": 81.04474099999977,
          "velocity": 0.7322834645669292,
          "duration": 0.24440287916668524
        },
        {
          "name": "A5",
          "midi": 81,
          "time": 81.04474099999977,
          "velocity": 0.7795275590551181,
          "duration": 0.1847014125000186
        },
        {
          "name": "C#4",
          "midi": 61,
          "time": 81.2686214999998,
          "velocity": 0.7322834645669292,
          "duration": 0.20895513333333326
        },
        {
          "name": "A5",
          "midi": 81,
          "time": 81.2686214999998,
          "velocity": 0.7874015748031497,
          "duration": 0.41044758333333675
        },
        {
          "name": "A3",
          "midi": 57,
          "time": 81.4925019999998,
          "velocity": 0.7165354330708661,
          "duration": 0.4552236833334291
        },
        {
          "name": "C#4",
          "midi": 61,
          "time": 81.7163824999998,
          "velocity": 0.7244094488188977,
          "duration": 0.2201491583334132
        },
        {
          "name": "G#5",
          "midi": 80,
          "time": 81.7163824999998,
          "velocity": 0.7795275590551181,
          "duration": 0.3973878875001162
        },
        {
          "name": "A4",
          "midi": 69,
          "time": 81.94026299999989,
          "velocity": 0.6850393700787402,
          "duration": 0.2555969041666941
        },
        {
          "name": "C#4",
          "midi": 61,
          "time": 82.16414349999991,
          "velocity": 0.7244094488188977,
          "duration": 0.21082080416667281
        },
        {
          "name": "G#5",
          "midi": 80,
          "time": 82.16414349999991,
          "velocity": 0.7952755905511811,
          "duration": 0.4402983166666701
        },
        {
          "name": "E2",
          "midi": 40,
          "time": 82.38802399999992,
          "velocity": 0.7480314960629921,
          "duration": 1.7145514958333479
        },
        {
          "name": "B2",
          "midi": 47,
          "time": 82.38802399999992,
          "velocity": 0.7480314960629921,
          "duration": 1.7145514958333479
        },
        {
          "name": "G#3",
          "midi": 56,
          "time": 82.38802399999992,
          "velocity": 0.7322834645669292,
          "duration": 0.5466415541666692
        },
        {
          "name": "B3",
          "midi": 59,
          "time": 82.61190449999991,
          "velocity": 0.7244094488188977,
          "duration": 0.2014924500000035
        },
        {
          "name": "F#5",
          "midi": 78,
          "time": 82.61190449999991,
          "velocity": 0.6456692913385826,
          "duration": 0.2145521458333377
        },
        {
          "name": "G#4",
          "midi": 68,
          "time": 82.83578499999992,
          "velocity": 0.7086614173228346,
          "duration": 0.2425372083333457
        },
        {
          "name": "B3",
          "midi": 59,
          "time": 83.05966549999992,
          "velocity": 0.7244094488188977,
          "duration": 0.20708946250000793
        },
        {
          "name": "G#3",
          "midi": 56,
          "time": 83.28354599999993,
          "velocity": 0.7165354330708661,
          "duration": 0.4048505708333323
        },
        {
          "name": "G#5",
          "midi": 80,
          "time": 83.28354599999993,
          "velocity": 0.7716535433070866,
          "duration": 0.1902984249999946
        },
        {
          "name": "B3",
          "midi": 59,
          "time": 83.50742649999992,
          "velocity": 0.7244094488188977,
          "duration": 0.1977611083333386
        },
        {
          "name": "G#5",
          "midi": 80,
          "time": 83.50742649999992,
          "velocity": 0.7322834645669292,
          "duration": 0.39738788750000253
        },
        {
          "name": "G#4",
          "midi": 68,
          "time": 83.73130699999993,
          "velocity": 0.6850393700787402,
          "duration": 0.19216409583333416
        },
        {
          "name": "B3",
          "midi": 59,
          "time": 83.95518749999994,
          "velocity": 0.7244094488188977,
          "duration": 0.1529850083333315
        },
        {
          "name": "A5",
          "midi": 81,
          "time": 83.95518749999994,
          "velocity": 0.7795275590551181,
          "duration": 0.4402983166668264
        },
        {
          "name": "F#2",
          "midi": 42,
          "time": 84.17906800000007,
          "velocity": 0.7244094488188977,
          "duration": 1.7835813166668117
        },
        {
          "name": "C#3",
          "midi": 49,
          "time": 84.17906800000007,
          "velocity": 0.7401574803149606,
          "duration": 1.7835813166668117
        },
        {
          "name": "A3",
          "midi": 57,
          "time": 84.17906800000007,
          "velocity": 0.7244094488188977,
          "duration": 0.68283552500003
        },
        {
          "name": "C#4",
          "midi": 61,
          "time": 84.4029485000001,
          "velocity": 0.6850393700787402,
          "duration": 0.22388050000000703
        },
        {
          "name": "F#5",
          "midi": 78,
          "time": 84.4029485000001,
          "velocity": 0.7795275590551181,
          "duration": 2.367536287500428
        },
        {
          "name": "A4",
          "midi": 69,
          "time": 84.6268290000001,
          "velocity": 0.7165354330708661,
          "duration": 0.2350745250000017
        },
        {
          "name": "C#4",
          "midi": 61,
          "time": 84.85070950000011,
          "velocity": 0.6850393700787402,
          "duration": 0.2108208041666586
        },
        {
          "name": "A3",
          "midi": 57,
          "time": 85.0745900000001,
          "velocity": 0.7401574803149606,
          "duration": 0.4944027708333465
        },
        {
          "name": "C#4",
          "midi": 61,
          "time": 85.29847050000011,
          "velocity": 0.7165354330708661,
          "duration": 0.19216409583333416
        },
        {
          "name": "A4",
          "midi": 69,
          "time": 85.52235100000011,
          "velocity": 0.7165354330708661,
          "duration": 0.2276118416666577
        },
        {
          "name": "C#4",
          "midi": 61,
          "time": 85.7462315000001,
          "velocity": 0.7165354330708661,
          "duration": 0.20149245000006033
        },
        {
          "name": "D2",
          "midi": 38,
          "time": 85.97011200000024,
          "velocity": 0.7244094488188977,
          "duration": 1.6753724083336294
        },
        {
          "name": "D3",
          "midi": 50,
          "time": 85.97011200000024,
          "velocity": 0.7401574803149606,
          "duration": 1.7332082041669565
        },
        {
          "name": "A3",
          "midi": 57,
          "time": 85.97011200000024,
          "velocity": 0.7244094488188977,
          "duration": 0.5317161875002796
        },
        {
          "name": "D4",
          "midi": 62,
          "time": 86.19399250000052,
          "velocity": 0.7007874015748031,
          "duration": 0.1977611083333386
        },
        {
          "name": "A4",
          "midi": 69,
          "time": 86.41787300000053,
          "velocity": 0.7165354330708661,
          "duration": 0.2555969041666657
        },
        {
          "name": "D4",
          "midi": 62,
          "time": 86.64175350000052,
          "velocity": 0.6929133858267716,
          "duration": 0.19029842500000882
        },
        {
          "name": "A3",
          "midi": 57,
          "time": 86.86563400000053,
          "velocity": 0.7401574803149606,
          "duration": 0.5970146666666665
        },
        {
          "name": "F#5",
          "midi": 78,
          "time": 86.86563400000053,
          "velocity": 0.7874015748031497,
          "duration": 0.4402983166666701
        },
        {
          "name": "D4",
          "midi": 62,
          "time": 87.08951450000053,
          "velocity": 0.7086614173228346,
          "duration": 0.17537305833333505
        },
        {
          "name": "A4",
          "midi": 69,
          "time": 87.31339500000053,
          "velocity": 0.7322834645669292,
          "duration": 0.24067153750000614
        },
        {
          "name": "G#5",
          "midi": 80,
          "time": 87.31339500000053,
          "velocity": 0.7874015748031497,
          "duration": 0.4402983166666843
        },
        {
          "name": "D4",
          "midi": 62,
          "time": 87.53727550000053,
          "velocity": 0.7007874015748031,
          "duration": 0.18470141250000438
        },
        {
          "name": "A1",
          "midi": 33,
          "time": 87.76115600000055,
          "velocity": 0.7480314960629921,
          "duration": 1.7052231416666928
        },
        {
          "name": "A2",
          "midi": 45,
          "time": 87.76115600000055,
          "velocity": 0.7480314960629921,
          "duration": 1.714551495833362
        },
        {
          "name": "A3",
          "midi": 57,
          "time": 87.76115600000055,
          "velocity": 0.7480314960629921,
          "duration": 0.570895274999998
        },
        {
          "name": "A5",
          "midi": 81,
          "time": 87.76115600000055,
          "velocity": 0.7874015748031497,
          "duration": 0.21641781666666304
        },
        {
          "name": "C#4",
          "midi": 61,
          "time": 87.98503650000055,
          "velocity": 0.7007874015748031,
          "duration": 0.2555969041666657
        },
        {
          "name": "E5",
          "midi": 76,
          "time": 87.98503650000055,
          "velocity": 0.7559055118110236,
          "duration": 0.41417892500000164
        },
        {
          "name": "A4",
          "midi": 69,
          "time": 88.20891700000054,
          "velocity": 0.7322834645669292,
          "duration": 0.24440287916667103
        },
        {
          "name": "C#4",
          "midi": 61,
          "time": 88.43279750000055,
          "velocity": 0.7322834645669292,
          "duration": 0.20895513333333326
        },
        {
          "name": "E5",
          "midi": 76,
          "time": 88.43279750000055,
          "velocity": 0.7244094488188977,
          "duration": 0.41417892500000164
        },
        {
          "name": "A3",
          "midi": 57,
          "time": 88.65667800000055,
          "velocity": 0.7165354330708661,
          "duration": 0.45522368333334384
        },
        {
          "name": "C#4",
          "midi": 61,
          "time": 88.88055850000055,
          "velocity": 0.7244094488188977,
          "duration": 0.22014915833334214
        },
        {
          "name": "G#5",
          "midi": 80,
          "time": 88.88055850000055,
          "velocity": 0.7874015748031497,
          "duration": 0.41417892500003006
        },
        {
          "name": "A4",
          "midi": 69,
          "time": 89.10443900000055,
          "velocity": 0.6850393700787402,
          "duration": 0.2555969041666941
        },
        {
          "name": "C#4",
          "midi": 61,
          "time": 89.32831950000057,
          "velocity": 0.7244094488188977,
          "duration": 0.21082080416667281
        },
        {
          "name": "G#5",
          "midi": 80,
          "time": 89.32831950000057,
          "velocity": 0.7874015748031497,
          "duration": 0.660447474999998
        },
        {
          "name": "E2",
          "midi": 40,
          "time": 89.55220000000058,
          "velocity": 0.7480314960629921,
          "duration": 1.7145514958334331
        },
        {
          "name": "E3",
          "midi": 52,
          "time": 89.55220000000058,
          "velocity": 0.7480314960629921,
          "duration": 1.7145514958334331
        },
        {
          "name": "B3",
          "midi": 59,
          "time": 89.55220000000058,
          "velocity": 0.7322834645669292,
          "duration": 0.5466415541666549
        },
        {
          "name": "E4",
          "midi": 64,
          "time": 89.77608050000057,
          "velocity": 0.7244094488188977,
          "duration": 0.2014924500000035
        },
        {
          "name": "G#4",
          "midi": 68,
          "time": 89.99996100000057,
          "velocity": 0.7086614173228346,
          "duration": 0.2425372083333457
        },
        {
          "name": "E4",
          "midi": 64,
          "time": 90.22384150000057,
          "velocity": 0.7244094488188977,
          "duration": 0.20708946250000793
        },
        {
          "name": "B3",
          "midi": 59,
          "time": 90.44772200000058,
          "velocity": 0.7165354330708661,
          "duration": 0.4048505708333465
        },
        {
          "name": "E4",
          "midi": 64,
          "time": 90.67160250000059,
          "velocity": 0.7244094488188977,
          "duration": 0.1977611083333528
        },
        {
          "name": "A5",
          "midi": 81,
          "time": 90.67160250000059,
          "velocity": 0.7874015748031497,
          "duration": 0.6604474750000975
        },
        {
          "name": "G#4",
          "midi": 68,
          "time": 90.89548300000065,
          "velocity": 0.6850393700787402,
          "duration": 0.19216409583336258
        },
        {
          "name": "E4",
          "midi": 64,
          "time": 91.11936350000069,
          "velocity": 0.7244094488188977,
          "duration": 0.1529850083333315
        },
        {
          "name": "F#2",
          "midi": 42,
          "time": 91.34324400000068,
          "velocity": 0.7244094488188977,
          "duration": 1.7835813166666838
        },
        {
          "name": "C#3",
          "midi": 49,
          "time": 91.34324400000068,
          "velocity": 0.7401574803149606,
          "duration": 1.7835813166666838
        },
        {
          "name": "A3",
          "midi": 57,
          "time": 91.34324400000068,
          "velocity": 0.7244094488188977,
          "duration": 0.6828355250000016
        },
        {
          "name": "F#5",
          "midi": 78,
          "time": 91.34324400000068,
          "velocity": 0.7874015748031497,
          "duration": 1.76865595000001
        },
        {
          "name": "C#4",
          "midi": 61,
          "time": 91.56712450000067,
          "velocity": 0.7086614173228346,
          "duration": 0.22388050000000703
        },
        {
          "name": "A4",
          "midi": 69,
          "time": 91.79100500000068,
          "velocity": 0.7165354330708661,
          "duration": 0.2350745250000017
        },
        {
          "name": "C#4",
          "midi": 61,
          "time": 92.01488550000069,
          "velocity": 0.6850393700787402,
          "duration": 0.2108208041666586
        },
        {
          "name": "A3",
          "midi": 57,
          "time": 92.23876600000068,
          "velocity": 0.7401574803149606,
          "duration": 0.4944027708333465
        },
        {
          "name": "C#4",
          "midi": 61,
          "time": 92.46264650000069,
          "velocity": 0.7165354330708661,
          "duration": 0.19216409583333416
        },
        {
          "name": "A4",
          "midi": 69,
          "time": 92.6865270000007,
          "velocity": 0.7165354330708661,
          "duration": 0.2276118416666577
        },
        {
          "name": "C#4",
          "midi": 61,
          "time": 92.91040750000069,
          "velocity": 0.7165354330708661,
          "duration": 0.2014924500000035
        },
        {
          "name": "D2",
          "midi": 38,
          "time": 93.1342880000007,
          "velocity": 0.7244094488188977,
          "duration": 1.6753724083335584
        },
        {
          "name": "D3",
          "midi": 50,
          "time": 93.1342880000007,
          "velocity": 0.7401574803149606,
          "duration": 1.7332082041668855
        },
        {
          "name": "A3",
          "midi": 57,
          "time": 93.1342880000007,
          "velocity": 0.7244094488188977,
          "duration": 0.5317161875000096
        },
        {
          "name": "A5",
          "midi": 81,
          "time": 93.1342880000007,
          "velocity": 0.7874015748031497,
          "duration": 0.8563429125000113
        },
        {
          "name": "D4",
          "midi": 62,
          "time": 93.3581685000007,
          "velocity": 0.7007874015748031,
          "duration": 0.1977611083333386
        },
        {
          "name": "A4",
          "midi": 69,
          "time": 93.58204900000071,
          "velocity": 0.7165354330708661,
          "duration": 0.2555969041666657
        },
        {
          "name": "D4",
          "midi": 62,
          "time": 93.8059295000007,
          "velocity": 0.6929133858267716,
          "duration": 0.19029842500000882
        },
        {
          "name": "A3",
          "midi": 57,
          "time": 94.02981000000071,
          "velocity": 0.7401574803149606,
          "duration": 0.5970146666668654
        },
        {
          "name": "C#6",
          "midi": 85,
          "time": 94.02981000000071,
          "velocity": 0.7874015748031497,
          "duration": 0.4104475833335357
        },
        {
          "name": "D4",
          "midi": 62,
          "time": 94.25369050000089,
          "velocity": 0.7086614173228346,
          "duration": 0.17537305833336347
        },
        {
          "name": "A4",
          "midi": 69,
          "time": 94.4775710000009,
          "velocity": 0.7322834645669292,
          "duration": 0.24067153750000614
        },
        {
          "name": "C#6",
          "midi": 85,
          "time": 94.4775710000009,
          "velocity": 0.7874015748031497,
          "duration": 0.41417892500001585
        },
        {
          "name": "D4",
          "midi": 62,
          "time": 94.70145150000091,
          "velocity": 0.7007874015748031,
          "duration": 0.18470141250000438
        },
        {
          "name": "A2",
          "midi": 45,
          "time": 94.92533200000092,
          "velocity": 0.7480314960629921,
          "duration": 1.7145514958333337
        },
        {
          "name": "E3",
          "midi": 52,
          "time": 94.92533200000092,
          "velocity": 0.7480314960629921,
          "duration": 1.7052231416666643
        },
        {
          "name": "A3",
          "midi": 57,
          "time": 94.92533200000092,
          "velocity": 0.7480314960629921,
          "duration": 0.5708952750000122
        },
        {
          "name": "C#6",
          "midi": 85,
          "time": 94.92533200000092,
          "velocity": 0.7874015748031497,
          "duration": 0.27798495416666924
        },
        {
          "name": "C#4",
          "midi": 61,
          "time": 95.14921250000093,
          "velocity": 0.7007874015748031,
          "duration": 0.2555969041666657
        },
        {
          "name": "C#6",
          "midi": 85,
          "time": 95.23316768750092,
          "velocity": 0.7874015748031497,
          "duration": 0.35634312916667454
        },
        {
          "name": "A4",
          "midi": 69,
          "time": 95.37309300000092,
          "velocity": 0.7322834645669292,
          "duration": 0.24440287916667103
        },
        {
          "name": "C#4",
          "midi": 61,
          "time": 95.59697350000093,
          "velocity": 0.7322834645669292,
          "duration": 0.20895513333333326
        },
        {
          "name": "A3",
          "midi": 57,
          "time": 95.82085400000094,
          "velocity": 0.7165354330708661,
          "duration": 0.4552236833333154
        },
        {
          "name": "C#4",
          "midi": 61,
          "time": 96.04473450000094,
          "velocity": 0.7244094488188977,
          "duration": 0.2201491583332853
        },
        {
          "name": "E6",
          "midi": 88,
          "time": 96.04473450000094,
          "velocity": 0.7874015748031497,
          "duration": 0.44029831666664165
        },
        {
          "name": "A4",
          "midi": 69,
          "time": 96.2686150000009,
          "velocity": 0.6850393700787402,
          "duration": 0.2555969041666799
        },
        {
          "name": "C#4",
          "midi": 61,
          "time": 96.49249550000091,
          "velocity": 0.7244094488188977,
          "duration": 0.21082080416667281
        },
        {
          "name": "C#6",
          "midi": 85,
          "time": 96.49249550000091,
          "velocity": 0.7874015748031497,
          "duration": 0.6641788166668618
        },
        {
          "name": "E2",
          "midi": 40,
          "time": 96.71637600000092,
          "velocity": 0.7480314960629921,
          "duration": 1.7145514958335184
        },
        {
          "name": "E3",
          "midi": 52,
          "time": 96.71637600000092,
          "velocity": 0.7480314960629921,
          "duration": 1.7145514958335184
        },
        {
          "name": "G#3",
          "midi": 56,
          "time": 96.71637600000092,
          "velocity": 0.7322834645669292,
          "duration": 0.5466415541668539
        },
        {
          "name": "B3",
          "midi": 59,
          "time": 96.94025650000091,
          "velocity": 0.7244094488188977,
          "duration": 0.2014924500001456
        },
        {
          "name": "G#4",
          "midi": 68,
          "time": 97.1641370000011,
          "velocity": 0.7086614173228346,
          "duration": 0.2425372083333457
        },
        {
          "name": "B3",
          "midi": 59,
          "time": 97.38801750000111,
          "velocity": 0.7244094488188977,
          "duration": 0.20708946250000793
        },
        {
          "name": "G#3",
          "midi": 56,
          "time": 97.61189800000112,
          "velocity": 0.7165354330708661,
          "duration": 0.4048505708333323
        },
        {
          "name": "D6",
          "midi": 86,
          "time": 97.61189800000112,
          "velocity": 0.7874015748031497,
          "duration": 0.21641781666666304
        },
        {
          "name": "B3",
          "midi": 59,
          "time": 97.83577850000111,
          "velocity": 0.7244094488188977,
          "duration": 0.1977611083333386
        },
        {
          "name": "C#6",
          "midi": 85,
          "time": 97.83577850000111,
          "velocity": 0.6929133858267716,
          "duration": 0.21641781666667725
        },
        {
          "name": "G#4",
          "midi": 68,
          "time": 98.05965900000112,
          "velocity": 0.6850393700787402,
          "duration": 0.19216409583333416
        },
        {
          "name": "B5",
          "midi": 83,
          "time": 98.05965900000112,
          "velocity": 0.7559055118110236,
          "duration": 0.21641781666666304
        },
        {
          "name": "B3",
          "midi": 59,
          "time": 98.28353950000111,
          "velocity": 0.7244094488188977,
          "duration": 0.1529850083333315
        },
        {
          "name": "A5",
          "midi": 81,
          "time": 98.28353950000111,
          "velocity": 0.6850393700787402,
          "duration": 0.18470141250000438
        },
        {
          "name": "F#2",
          "midi": 42,
          "time": 98.50742000000112,
          "velocity": 0.7244094488188977,
          "duration": 1.7835813166673944
        },
        {
          "name": "C#3",
          "midi": 49,
          "time": 98.50742000000112,
          "velocity": 0.7401574803149606,
          "duration": 1.7835813166673944
        },
        {
          "name": "A3",
          "midi": 57,
          "time": 98.50742000000112,
          "velocity": 0.7244094488188977,
          "duration": 0.6828355250003568
        },
        {
          "name": "C#6",
          "midi": 85,
          "time": 98.50742000000112,
          "velocity": 0.7874015748031497,
          "duration": 0.30597001666684776
        },
        {
          "name": "C#4",
          "midi": 61,
          "time": 98.7313005000013,
          "velocity": 0.6850393700787402,
          "duration": 0.22388050000003545
        },
        {
          "name": "C#6",
          "midi": 85,
          "time": 98.8488377625013,
          "velocity": 0.7874015748031497,
          "duration": 0.7332086375001694
        },
        {
          "name": "A4",
          "midi": 69,
          "time": 98.95518100000133,
          "velocity": 0.7165354330708661,
          "duration": 0.2350745250001438
        },
        {
          "name": "C#4",
          "midi": 61,
          "time": 99.17906150000148,
          "velocity": 0.6850393700787402,
          "duration": 0.2108208041666586
        },
        {
          "name": "A3",
          "midi": 57,
          "time": 99.40294200000147,
          "velocity": 0.7086614173228346,
          "duration": 0.494402770833517
        },
        {
          "name": "C#4",
          "midi": 61,
          "time": 99.62682250000148,
          "velocity": 0.7007874015748031,
          "duration": 0.1921640958335047
        },
        {
          "name": "C#6",
          "midi": 85,
          "time": 99.62682250000148,
          "velocity": 0.7874015748031497,
          "duration": 0.41791026666683706
        },
        {
          "name": "A4",
          "midi": 69,
          "time": 99.85070300000166,
          "velocity": 0.6929133858267716,
          "duration": 0.2276118416666577
        },
        {
          "name": "C#4",
          "midi": 61,
          "time": 100.07458350000165,
          "velocity": 0.6929133858267716,
          "duration": 0.20149245000018823
        },
        {
          "name": "A5",
          "midi": 81,
          "time": 100.07458350000165,
          "velocity": 0.7637795275590551,
          "duration": 0.216417816666862
        },
        {
          "name": "D2",
          "midi": 38,
          "time": 100.29846400000184,
          "velocity": 0.6929133858267716,
          "duration": 1.6753724083333736
        },
        {
          "name": "D3",
          "midi": 50,
          "time": 100.29846400000184,
          "velocity": 0.6929133858267716,
          "duration": 1.7332082041667007
        },
        {
          "name": "A3",
          "midi": 57,
          "time": 100.29846400000184,
          "velocity": 0.6929133858267716,
          "duration": 0.5317161875000096
        },
        {
          "name": "F#5",
          "midi": 78,
          "time": 100.29846400000184,
          "velocity": 0.7086614173228346,
          "duration": 0.8544772416666859
        },
        {
          "name": "D4",
          "midi": 62,
          "time": 100.52234450000185,
          "velocity": 0.6929133858267716,
          "duration": 0.1977611083333386
        },
        {
          "name": "A4",
          "midi": 69,
          "time": 100.74622500000186,
          "velocity": 0.6850393700787402,
          "duration": 0.2555969041666657
        },
        {
          "name": "D4",
          "midi": 62,
          "time": 100.97010550000185,
          "velocity": 0.6850393700787402,
          "duration": 0.19029842500000882
        },
        {
          "name": "A3",
          "midi": 57,
          "time": 101.19398600000186,
          "velocity": 0.6850393700787402,
          "duration": 0.5970146666666807
        },
        {
          "name": "A5",
          "midi": 81,
          "time": 101.19398600000186,
          "velocity": 0.7480314960629921,
          "duration": 0.19216409583333416
        },
        {
          "name": "D4",
          "midi": 62,
          "time": 101.41786650000186,
          "velocity": 0.6850393700787402,
          "duration": 0.17537305833333505
        },
        {
          "name": "A5",
          "midi": 81,
          "time": 101.41786650000186,
          "velocity": 0.7244094488188977,
          "duration": 0.41791026666668074
        },
        {
          "name": "A4",
          "midi": 69,
          "time": 101.64174700000187,
          "velocity": 0.7322834645669292,
          "duration": 0.24067153750000614
        },
        {
          "name": "D4",
          "midi": 62,
          "time": 101.86562750000188,
          "velocity": 0.7007874015748031,
          "duration": 0.18470141250000438
        },
        {
          "name": "A5",
          "midi": 81,
          "time": 101.86562750000188,
          "velocity": 0.7480314960629921,
          "duration": 0.18843275416666927
        },
        {
          "name": "A1",
          "midi": 33,
          "time": 102.08950800000189,
          "velocity": 0.7165354330708661,
          "duration": 1.7052231416666785
        },
        {
          "name": "A2",
          "midi": 45,
          "time": 102.08950800000189,
          "velocity": 0.7165354330708661,
          "duration": 1.7145514958333479
        },
        {
          "name": "A3",
          "midi": 57,
          "time": 102.08950800000189,
          "velocity": 0.7165354330708661,
          "duration": 0.5708952750000122
        },
        {
          "name": "A5",
          "midi": 81,
          "time": 102.08950800000189,
          "velocity": 0.7795275590551181,
          "duration": 0.6641788166666771
        },
        {
          "name": "C#4",
          "midi": 61,
          "time": 102.31338850000189,
          "velocity": 0.6535433070866141,
          "duration": 0.2555969041666657
        },
        {
          "name": "A4",
          "midi": 69,
          "time": 102.53726900000188,
          "velocity": 0.6771653543307087,
          "duration": 0.24440287916667103
        },
        {
          "name": "C#4",
          "midi": 61,
          "time": 102.76114950000189,
          "velocity": 0.6771653543307087,
          "duration": 0.20895513333331905
        },
        {
          "name": "E5",
          "midi": 76,
          "time": 102.76114950000189,
          "velocity": 0.7480314960629921,
          "duration": 0.18097007083332528
        },
        {
          "name": "A3",
          "midi": 57,
          "time": 102.98503000000188,
          "velocity": 0.6614173228346457,
          "duration": 0.45522368333332963
        },
        {
          "name": "E5",
          "midi": 76,
          "time": 102.98503000000188,
          "velocity": 0.7637795275590551,
          "duration": 0.6361937541666691
        },
        {
          "name": "C#4",
          "midi": 61,
          "time": 103.20891050000189,
          "velocity": 0.6692913385826772,
          "duration": 0.22014915833332793
        },
        {
          "name": "A4",
          "midi": 69,
          "time": 103.43279100000188,
          "velocity": 0.6299212598425197,
          "duration": 0.2555969041666799
        },
        {
          "name": "C#4",
          "midi": 61,
          "time": 103.65667150000189,
          "velocity": 0.6692913385826772,
          "duration": 0.21082080416667281
        },
        {
          "name": "E5",
          "midi": 76,
          "time": 103.65667150000189,
          "velocity": 0.7480314960629921,
          "duration": 0.1809700708333395
        },
        {
          "name": "E2",
          "midi": 40,
          "time": 103.8805520000019,
          "velocity": 0.6929133858267716,
          "duration": 1.7145514958337458
        },
        {
          "name": "B2",
          "midi": 47,
          "time": 103.8805520000019,
          "velocity": 0.6929133858267716,
          "duration": 1.7145514958337458
        },
        {
          "name": "B3",
          "midi": 59,
          "time": 103.8805520000019,
          "velocity": 0.6771653543307087,
          "duration": 0.5466415541666692
        },
        {
          "name": "F#5",
          "midi": 78,
          "time": 103.8805520000019,
          "velocity": 0.7637795275590551,
          "duration": 0.21641781666666304
        },
        {
          "name": "E4",
          "midi": 64,
          "time": 104.10443250000189,
          "velocity": 0.6692913385826772,
          "duration": 0.2014924500000035
        },
        {
          "name": "E5",
          "midi": 76,
          "time": 104.10443250000189,
          "velocity": 0.7637795275590551,
          "duration": 0.4123132541666763
        },
        {
          "name": "G#4",
          "midi": 68,
          "time": 104.3283130000019,
          "velocity": 0.6535433070866141,
          "duration": 0.2425372083333457
        },
        {
          "name": "E4",
          "midi": 64,
          "time": 104.5521935000019,
          "velocity": 0.6692913385826772,
          "duration": 0.20708946250000793
        },
        {
          "name": "E5",
          "midi": 76,
          "time": 104.5521935000019,
          "velocity": 0.7244094488188977,
          "duration": 0.18283574166667904
        },
        {
          "name": "B3",
          "midi": 59,
          "time": 104.77607400000191,
          "velocity": 0.6614173228346457,
          "duration": 0.40485057083351705
        },
        {
          "name": "F#5",
          "midi": 78,
          "time": 104.77607400000191,
          "velocity": 0.7874015748031497,
          "duration": 0.6361937541668539
        },
        {
          "name": "E4",
          "midi": 64,
          "time": 104.99995450000209,
          "velocity": 0.6692913385826772,
          "duration": 0.1977611083333386
        },
        {
          "name": "G#4",
          "midi": 68,
          "time": 105.2238350000021,
          "velocity": 0.6299212598425197,
          "duration": 0.19216409583333416
        },
        {
          "name": "E4",
          "midi": 64,
          "time": 105.4477155000021,
          "velocity": 0.6692913385826772,
          "duration": 0.15298500833354467
        },
        {
          "name": "F#5",
          "midi": 78,
          "time": 105.4477155000021,
          "velocity": 0.7874015748031497,
          "duration": 0.41231325416686104
        },
        {
          "name": "F#2",
          "midi": 42,
          "time": 105.67159600000231,
          "velocity": 0.6692913385826772,
          "duration": 1.7835813166670818
        },
        {
          "name": "C#3",
          "midi": 49,
          "time": 105.67159600000231,
          "velocity": 0.6850393700787402,
          "duration": 1.7835813166670818
        },
        {
          "name": "A3",
          "midi": 57,
          "time": 105.67159600000231,
          "velocity": 0.6692913385826772,
          "duration": 0.6828355250001579
        },
        {
          "name": "C#4",
          "midi": 61,
          "time": 105.8954765000023,
          "velocity": 0.6535433070866141,
          "duration": 0.22388050000016335
        },
        {
          "name": "F#5",
          "midi": 78,
          "time": 105.8954765000023,
          "velocity": 0.7874015748031497,
          "duration": 2.0093274875005847
        },
        {
          "name": "F#4",
          "midi": 66,
          "time": 106.11935700000247,
          "velocity": 0.6614173228346457,
          "duration": 0.2350745250000017
        },
        {
          "name": "C#4",
          "midi": 61,
          "time": 106.34323750000247,
          "velocity": 0.6299212598425197,
          "duration": 0.2108208041666586
        },
        {
          "name": "A3",
          "midi": 57,
          "time": 106.56711800000247,
          "velocity": 0.6850393700787402,
          "duration": 0.4944027708333465
        },
        {
          "name": "C#4",
          "midi": 61,
          "time": 106.79099850000247,
          "velocity": 0.6614173228346457,
          "duration": 0.19216409583333416
        },
        {
          "name": "F#4",
          "midi": 66,
          "time": 107.01487900000248,
          "velocity": 0.6614173228346457,
          "duration": 0.2276118416666577
        },
        {
          "name": "C#4",
          "midi": 61,
          "time": 107.23875950000247,
          "velocity": 0.6614173228346457,
          "duration": 0.20149245000023086
        },
        {
          "name": "D2",
          "midi": 38,
          "time": 107.46264000000274,
          "velocity": 0.6692913385826772,
          "duration": 1.6753724083335158
        },
        {
          "name": "D3",
          "midi": 50,
          "time": 107.46264000000274,
          "velocity": 0.6850393700787402,
          "duration": 1.7332082041668428
        },
        {
          "name": "A3",
          "midi": 57,
          "time": 107.46264000000274,
          "velocity": 0.6692913385826772,
          "duration": 0.5317161875001517
        },
        {
          "name": "D4",
          "midi": 62,
          "time": 107.68652050000289,
          "velocity": 0.6456692913385826,
          "duration": 0.1977611083333386
        },
        {
          "name": "F#4",
          "midi": 66,
          "time": 107.91040100000289,
          "velocity": 0.6614173228346457,
          "duration": 0.2555969041666657
        },
        {
          "name": "D4",
          "midi": 62,
          "time": 108.13428150000288,
          "velocity": 0.6377952755905512,
          "duration": 0.19029842500000882
        },
        {
          "name": "A3",
          "midi": 57,
          "time": 108.35816200000289,
          "velocity": 0.6850393700787402,
          "duration": 0.5970146666666807
        },
        {
          "name": "A5",
          "midi": 81,
          "time": 108.35816200000289,
          "velocity": 0.7480314960629921,
          "duration": 0.19216409583333416
        },
        {
          "name": "D4",
          "midi": 62,
          "time": 108.5820425000029,
          "velocity": 0.6535433070866141,
          "duration": 0.17537305833333505
        },
        {
          "name": "A5",
          "midi": 81,
          "time": 108.5820425000029,
          "velocity": 0.7244094488188977,
          "duration": 0.41791026666668074
        },
        {
          "name": "F#4",
          "midi": 66,
          "time": 108.8059230000029,
          "velocity": 0.6771653543307087,
          "duration": 0.24067153750000614
        },
        {
          "name": "D4",
          "midi": 62,
          "time": 109.02980350000291,
          "velocity": 0.6456692913385826,
          "duration": 0.18470141250000438
        },
        {
          "name": "A5",
          "midi": 81,
          "time": 109.02980350000291,
          "velocity": 0.6929133858267716,
          "duration": 0.18843275416666927
        },
        {
          "name": "A1",
          "midi": 33,
          "time": 109.25368400000292,
          "velocity": 0.6692913385826772,
          "duration": 1.7052231416666785
        },
        {
          "name": "A2",
          "midi": 45,
          "time": 109.25368400000292,
          "velocity": 0.6692913385826772,
          "duration": 1.7145514958333479
        },
        {
          "name": "A3",
          "midi": 57,
          "time": 109.25368400000292,
          "velocity": 0.6692913385826772,
          "duration": 0.5708952750000122
        },
        {
          "name": "A5",
          "midi": 81,
          "time": 109.25368400000292,
          "velocity": 0.7716535433070866,
          "duration": 0.6641788166666771
        },
        {
          "name": "C#4",
          "midi": 61,
          "time": 109.47756450000293,
          "velocity": 0.6456692913385826,
          "duration": 0.2555969041666657
        },
        {
          "name": "E4",
          "midi": 64,
          "time": 109.70144500000292,
          "velocity": 0.6771653543307087,
          "duration": 0.24440287916667103
        },
        {
          "name": "C#4",
          "midi": 61,
          "time": 109.92532550000293,
          "velocity": 0.6771653543307087,
          "duration": 0.20895513333331905
        },
        {
          "name": "E5",
          "midi": 76,
          "time": 109.92532550000293,
          "velocity": 0.6771653543307087,
          "duration": 0.18097007083332528
        },
        {
          "name": "A3",
          "midi": 57,
          "time": 110.14920600000292,
          "velocity": 0.6614173228346457,
          "duration": 0.45522368333332963
        },
        {
          "name": "E5",
          "midi": 76,
          "time": 110.14920600000292,
          "velocity": 0.7480314960629921,
          "duration": 0.6361937541666691
        },
        {
          "name": "C#4",
          "midi": 61,
          "time": 110.37308650000293,
          "velocity": 0.6692913385826772,
          "duration": 0.22014915833332793
        },
        {
          "name": "E4",
          "midi": 64,
          "time": 110.59696700000292,
          "velocity": 0.6299212598425197,
          "duration": 0.2555969041666799
        },
        {
          "name": "C#4",
          "midi": 61,
          "time": 110.82084750000293,
          "velocity": 0.6692913385826772,
          "duration": 0.21082080416667281
        },
        {
          "name": "E5",
          "midi": 76,
          "time": 110.82084750000293,
          "velocity": 0.6771653543307087,
          "duration": 0.1809700708333395
        },
        {
          "name": "E2",
          "midi": 40,
          "time": 111.04472800000293,
          "velocity": 0.6692913385826772,
          "duration": 1.7145514958334047
        },
        {
          "name": "B2",
          "midi": 47,
          "time": 111.04472800000293,
          "velocity": 0.6692913385826772,
          "duration": 1.7145514958334047
        },
        {
          "name": "G#3",
          "midi": 56,
          "time": 111.04472800000293,
          "velocity": 0.6692913385826772,
          "duration": 0.5466415541666692
        },
        {
          "name": "E5",
          "midi": 76,
          "time": 111.04472800000293,
          "velocity": 0.7165354330708661,
          "duration": 0.21641781666666304
        },
        {
          "name": "B3",
          "midi": 59,
          "time": 111.26860850000293,
          "velocity": 0.6692913385826772,
          "duration": 0.2014924500000035
        },
        {
          "name": "C#5",
          "midi": 73,
          "time": 111.26860850000293,
          "velocity": 0.7244094488188977,
          "duration": 0.4123132541666763
        },
        {
          "name": "E4",
          "midi": 64,
          "time": 111.49248900000293,
          "velocity": 0.6535433070866141,
          "duration": 0.2425372083333457
        },
        {
          "name": "B3",
          "midi": 59,
          "time": 111.71636950000294,
          "velocity": 0.6692913385826772,
          "duration": 0.20708946250000793
        },
        {
          "name": "C#5",
          "midi": 73,
          "time": 111.71636950000294,
          "velocity": 0.7244094488188977,
          "duration": 0.18283574166667904
        },
        {
          "name": "G#3",
          "midi": 56,
          "time": 111.94025000000295,
          "velocity": 0.6614173228346457,
          "duration": 0.40485057083340337
        },
        {
          "name": "C#5",
          "midi": 73,
          "time": 111.94025000000295,
          "velocity": 0.7322834645669292,
          "duration": 0.44029831666674113
        },
        {
          "name": "B3",
          "midi": 59,
          "time": 112.16413050000301,
          "velocity": 0.6692913385826772,
          "duration": 0.1977611083333386
        },
        {
          "name": "E4",
          "midi": 64,
          "time": 112.38801100000302,
          "velocity": 0.6299212598425197,
          "duration": 0.19216409583333416
        },
        {
          "name": "B4",
          "midi": 71,
          "time": 112.38801100000302,
          "velocity": 0.7322834645669292,
          "duration": 0.21641781666666304
        },
        {
          "name": "B3",
          "midi": 59,
          "time": 112.61189150000301,
          "velocity": 0.6692913385826772,
          "duration": 0.1529850083333315
        },
        {
          "name": "A4",
          "midi": 69,
          "time": 112.61189150000301,
          "velocity": 0.7007874015748031,
          "duration": 0.4123132541666479
        },
        {
          "name": "F#2",
          "midi": 42,
          "time": 112.835772000003,
          "velocity": 0.6692913385826772,
          "duration": 1.7835813166666696
        },
        {
          "name": "C#3",
          "midi": 49,
          "time": 112.835772000003,
          "velocity": 0.6692913385826772,
          "duration": 1.7835813166666696
        },
        {
          "name": "A3",
          "midi": 57,
          "time": 112.835772000003,
          "velocity": 0.6692913385826772,
          "duration": 0.6828355250000016
        },
        {
          "name": "C#4",
          "midi": 61,
          "time": 113.059652500003,
          "velocity": 0.5984251968503937,
          "duration": 0.22388050000000703
        },
        {
          "name": "A4",
          "midi": 69,
          "time": 113.059652500003,
          "velocity": 0.6850393700787402,
          "duration": 1.108208475000012
        },
        {
          "name": "F#4",
          "midi": 66,
          "time": 113.283533000003,
          "velocity": 0.6062992125984252,
          "duration": 0.2350745250000017
        },
        {
          "name": "C#4",
          "midi": 61,
          "time": 113.50741350000301,
          "velocity": 0.5984251968503937,
          "duration": 0.2108208041666586
        },
        {
          "name": "A3",
          "midi": 57,
          "time": 113.731294000003,
          "velocity": 0.5905511811023622,
          "duration": 0.4944027708333323
        },
        {
          "name": "C#4",
          "midi": 61,
          "time": 113.95517450000301,
          "velocity": 0.6141732283464567,
          "duration": 0.19216409583333416
        },
        {
          "name": "F#4",
          "midi": 66,
          "time": 114.179055000003,
          "velocity": 0.5826771653543307,
          "duration": 0.2276118416666577
        },
        {
          "name": "C#4",
          "midi": 61,
          "time": 114.402935500003,
          "velocity": 0.5905511811023622,
          "duration": 0.2014924500000035
        },
        {
          "name": "D2",
          "midi": 38,
          "time": 114.626816000003,
          "velocity": 0.5984251968503937,
          "duration": 3.475744762500071
        },
        {
          "name": "A2",
          "midi": 45,
          "time": 114.626816000003,
          "velocity": 0.5984251968503937,
          "duration": 3.505595495833404
        },
        {
          "name": "A3",
          "midi": 57,
          "time": 114.626816000003,
          "velocity": 0.5984251968503937,
          "duration": 0.5317161875000096
        },
        {
          "name": "B4",
          "midi": 71,
          "time": 114.626816000003,
          "velocity": 0.6850393700787402,
          "duration": 0.4421639875000096
        },
        {
          "name": "D4",
          "midi": 62,
          "time": 114.85069650000301,
          "velocity": 0.5748031496062992,
          "duration": 0.1977611083333386
        },
        {
          "name": "F#4",
          "midi": 66,
          "time": 115.07457700000302,
          "velocity": 0.5748031496062992,
          "duration": 0.2555969041666657
        },
        {
          "name": "C#5",
          "midi": 73,
          "time": 115.07457700000302,
          "velocity": 0.6771653543307087,
          "duration": 0.4421639874999954
        },
        {
          "name": "D4",
          "midi": 62,
          "time": 115.29845750000301,
          "velocity": 0.5748031496062992,
          "duration": 0.19029842500000882
        },
        {
          "name": "A3",
          "midi": 57,
          "time": 115.52233800000302,
          "velocity": 0.5748031496062992,
          "duration": 0.5970146666666807
        },
        {
          "name": "D4",
          "midi": 62,
          "time": 115.74621850000302,
          "velocity": 0.5748031496062992,
          "duration": 0.17537305833333505
        },
        {
          "name": "F#4",
          "midi": 66,
          "time": 115.97009900000303,
          "velocity": 0.5748031496062992,
          "duration": 0.24067153750000614
        },
        {
          "name": "D4",
          "midi": 62,
          "time": 116.19397950000304,
          "velocity": 0.5354330708661418,
          "duration": 0.18470141250000438
        },
        {
          "name": "A3",
          "midi": 57,
          "time": 116.41786000000305,
          "velocity": 0.5275590551181102,
          "duration": 0.5317161875000096
        },
        {
          "name": "D4",
          "midi": 62,
          "time": 116.64174050000305,
          "velocity": 0.5826771653543307,
          "duration": 0.1977611083333386
        },
        {
          "name": "F#4",
          "midi": 66,
          "time": 116.86562100000306,
          "velocity": 0.6299212598425197,
          "duration": 0.2555969041666657
        },
        {
          "name": "D4",
          "midi": 62,
          "time": 117.08950150000305,
          "velocity": 0.6692913385826772,
          "duration": 0.19029842500000882
        },
        {
          "name": "A3",
          "midi": 57,
          "time": 117.31338200000306,
          "velocity": 0.7086614173228346,
          "duration": 0.5970146666666807
        },
        {
          "name": "D4",
          "midi": 62,
          "time": 117.53726250000307,
          "velocity": 0.7559055118110236,
          "duration": 0.17537305833333505
        },
        {
          "name": "F#4",
          "midi": 66,
          "time": 117.76114300000307,
          "velocity": 0.7480314960629921,
          "duration": 0.24067153750000614
        },
        {
          "name": "D4",
          "midi": 62,
          "time": 117.98502350000308,
          "velocity": 0.6377952755905512,
          "duration": 0.18470141249999017
        },
        {
          "name": "A2",
          "midi": 45,
          "time": 118.20890400000307,
          "velocity": 0.6220472440944882,
          "duration": 3.0764912041666577
        },
        {
          "name": "E3",
          "midi": 52,
          "time": 118.20890400000307,
          "velocity": 0.6220472440944882,
          "duration": 3.138058341666664
        },
        {
          "name": "A3",
          "midi": 57,
          "time": 118.20890400000307,
          "velocity": 0.5905511811023622,
          "duration": 0.5708952750000122
        },
        {
          "name": "C#4",
          "midi": 61,
          "time": 118.43278450000308,
          "velocity": 0.5905511811023622,
          "duration": 0.2555969041666657
        },
        {
          "name": "E4",
          "midi": 64,
          "time": 118.65666500000307,
          "velocity": 0.6220472440944882,
          "duration": 0.24440287916667103
        },
        {
          "name": "C#4",
          "midi": 61,
          "time": 118.88054550000308,
          "velocity": 0.6220472440944882,
          "duration": 0.20895513333330484
        },
        {
          "name": "E5",
          "midi": 76,
          "time": 118.88054550000308,
          "velocity": 0.7086614173228346,
          "duration": 0.8880593166666273
        },
        {
          "name": "A3",
          "midi": 57,
          "time": 119.10442600000306,
          "velocity": 0.6062992125984252,
          "duration": 0.4552236833333154
        },
        {
          "name": "C#4",
          "midi": 61,
          "time": 119.32830650000305,
          "velocity": 0.6141732283464567,
          "duration": 0.22014915833332793
        },
        {
          "name": "E4",
          "midi": 64,
          "time": 119.55218700000304,
          "velocity": 0.6456692913385826,
          "duration": 0.2555969041666657
        },
        {
          "name": "C#4",
          "midi": 61,
          "time": 119.77606750000304,
          "velocity": 0.6456692913385826,
          "duration": 0.21082080416667281
        },
        {
          "name": "C#5",
          "midi": 73,
          "time": 119.77606750000304,
          "velocity": 0.6771653543307087,
          "duration": 1.1119398166667054
        },
        {
          "name": "A3",
          "midi": 57,
          "time": 119.99994800000304,
          "velocity": 0.6456692913385826,
          "duration": 0.5466415541666834
        },
        {
          "name": "C#4",
          "midi": 61,
          "time": 120.22382850000305,
          "velocity": 0.6141732283464567,
          "duration": 0.2014924500000035
        },
        {
          "name": "E4",
          "midi": 64,
          "time": 120.44770900000306,
          "velocity": 0.5984251968503937,
          "duration": 0.2425372083333457
        },
        {
          "name": "C#4",
          "midi": 61,
          "time": 120.67158950000307,
          "velocity": 0.6141732283464567,
          "duration": 0.20708946250000793
        },
        {
          "name": "A3",
          "midi": 57,
          "time": 120.89547000000307,
          "velocity": 0.6062992125984252,
          "duration": 0.4048505708333323
        },
        {
          "name": "B4",
          "midi": 71,
          "time": 120.89547000000307,
          "velocity": 0.6771653543307087,
          "duration": 0.21641781666666304
        },
        {
          "name": "C#4",
          "midi": 61,
          "time": 121.11935050000307,
          "velocity": 0.6141732283464567,
          "duration": 0.1977611083333386
        },
        {
          "name": "A4",
          "midi": 69,
          "time": 121.11935050000307,
          "velocity": 0.6377952755905512,
          "duration": 0.6641788166666771
        },
        {
          "name": "E4",
          "midi": 64,
          "time": 121.34323100000307,
          "velocity": 0.5748031496062992,
          "duration": 0.19216409583333416
        },
        {
          "name": "C#4",
          "midi": 61,
          "time": 121.56711150000308,
          "velocity": 0.6141732283464567,
          "duration": 0.1529850083333315
        },
        {
          "name": "G#2",
          "midi": 44,
          "time": 121.79099200000307,
          "velocity": 0.6141732283464567,
          "duration": 3.1865657833335916
        },
        {
          "name": "E3",
          "midi": 52,
          "time": 121.79099200000307,
          "velocity": 0.6299212598425197,
          "duration": 3.2444015791669187
        },
        {
          "name": "G#3",
          "midi": 56,
          "time": 121.79099200000307,
          "velocity": 0.6141732283464567,
          "duration": 0.6828355250000158
        },
        {
          "name": "C#4",
          "midi": 61,
          "time": 122.01487250000308,
          "velocity": 0.5748031496062992,
          "duration": 0.22388050000000703
        },
        {
          "name": "E4",
          "midi": 64,
          "time": 122.23875300000309,
          "velocity": 0.6062992125984252,
          "duration": 0.2350745250000017
        },
        {
          "name": "C#4",
          "midi": 61,
          "time": 122.4626335000031,
          "velocity": 0.5748031496062992,
          "duration": 0.21082080416667281
        },
        {
          "name": "E5",
          "midi": 76,
          "time": 122.4626335000031,
          "velocity": 0.7007874015748031,
          "duration": 0.8880593166666984
        },
        {
          "name": "G#3",
          "midi": 56,
          "time": 122.6865140000031,
          "velocity": 0.6299212598425197,
          "duration": 0.4944027708333607
        },
        {
          "name": "C#4",
          "midi": 61,
          "time": 122.91039450000312,
          "velocity": 0.6062992125984252,
          "duration": 0.19216409583333416
        },
        {
          "name": "E4",
          "midi": 64,
          "time": 123.13427500000313,
          "velocity": 0.6062992125984252,
          "duration": 0.2276118416666577
        },
        {
          "name": "C#4",
          "midi": 61,
          "time": 123.35815550000312,
          "velocity": 0.6062992125984252,
          "duration": 0.2014924500000035
        },
        {
          "name": "C#5",
          "midi": 73,
          "time": 123.35815550000312,
          "velocity": 0.6850393700787402,
          "duration": 1.1119398166666912
        },
        {
          "name": "G#3",
          "midi": 56,
          "time": 123.58203600000313,
          "velocity": 0.6141732283464567,
          "duration": 0.5317161875000096
        },
        {
          "name": "C#4",
          "midi": 61,
          "time": 123.80591650000314,
          "velocity": 0.5590551181102362,
          "duration": 0.1977611083333386
        },
        {
          "name": "E4",
          "midi": 64,
          "time": 124.02979700000314,
          "velocity": 0.6062992125984252,
          "duration": 0.2555969041666657
        },
        {
          "name": "C#4",
          "midi": 61,
          "time": 124.25367750000314,
          "velocity": 0.5826771653543307,
          "duration": 0.19029842500000882
        },
        {
          "name": "G#3",
          "midi": 56,
          "time": 124.47755800000314,
          "velocity": 0.6299212598425197,
          "duration": 0.5970146666668512
        },
        {
          "name": "B4",
          "midi": 71,
          "time": 124.47755800000314,
          "velocity": 0.6929133858267716,
          "duration": 0.18843275416666927
        },
        {
          "name": "C#4",
          "midi": 61,
          "time": 124.70143850000316,
          "velocity": 0.5984251968503937,
          "duration": 0.17537305833337768
        },
        {
          "name": "B4",
          "midi": 71,
          "time": 124.70143850000316,
          "velocity": 0.5984251968503937,
          "duration": 0.6641788166668476
        },
        {
          "name": "E4",
          "midi": 64,
          "time": 124.92531900000327,
          "velocity": 0.5826771653543307,
          "duration": 0.24067153750006298
        },
        {
          "name": "C#4",
          "midi": 61,
          "time": 125.14919950000333,
          "velocity": 0.5905511811023622,
          "duration": 0.18470141250000438
        },
        {
          "name": "F#2",
          "midi": 42,
          "time": 125.37308000000334,
          "velocity": 0.5984251968503937,
          "duration": 3.0839538875000017
        },
        {
          "name": "C#3",
          "midi": 49,
          "time": 125.37308000000334,
          "velocity": 0.5984251968503937,
          "duration": 3.0634315083333377
        },
        {
          "name": "F#3",
          "midi": 54,
          "time": 125.37308000000334,
          "velocity": 0.5984251968503937,
          "duration": 0.5485072249999945
        },
        {
          "name": "C#4",
          "midi": 61,
          "time": 125.59696050000333,
          "velocity": 0.5590551181102362,
          "duration": 0.1399253125000115
        },
        {
          "name": "F#4",
          "midi": 66,
          "time": 125.82084100000334,
          "velocity": 0.5905511811023622,
          "duration": 0.2276118416666577
        },
        {
          "name": "C#4",
          "midi": 61,
          "time": 126.04472150000333,
          "velocity": 0.5984251968503937,
          "duration": 0.20522379166666838
        },
        {
          "name": "F#3",
          "midi": 54,
          "time": 126.26860200000334,
          "velocity": 0.5669291338582677,
          "duration": 0.264925258333335
        },
        {
          "name": "E5",
          "midi": 76,
          "time": 126.26860200000334,
          "velocity": 0.6535433070866141,
          "duration": 0.4048505708333323
        },
        {
          "name": "C#4",
          "midi": 61,
          "time": 126.49248250000335,
          "velocity": 0.5905511811023622,
          "duration": 0.24999989166666126
        },
        {
          "name": "F#4",
          "midi": 66,
          "time": 126.71636300000334,
          "velocity": 0.5984251968503937,
          "duration": 0.2518655625000008
        },
        {
          "name": "E5",
          "midi": 76,
          "time": 126.71636300000334,
          "velocity": 0.6299212598425197,
          "duration": 0.20522379166666838
        },
        {
          "name": "C#4",
          "midi": 61,
          "time": 126.94024350000335,
          "velocity": 0.5905511811023622,
          "duration": 0.21268647499999815
        },
        {
          "name": "C#5",
          "midi": 73,
          "time": 126.94024350000335,
          "velocity": 0.6692913385826772,
          "duration": 1.1119398166666628
        },
        {
          "name": "F#3",
          "midi": 54,
          "time": 127.16412400000334,
          "velocity": 0.6062992125984252,
          "duration": 0.264925258333335
        },
        {
          "name": "C#4",
          "midi": 61,
          "time": 127.38800450000335,
          "velocity": 0.5748031496062992,
          "duration": 0.20895513333333326
        },
        {
          "name": "F#4",
          "midi": 66,
          "time": 127.61188500000335,
          "velocity": 0.6062992125984252,
          "duration": 0.24067153750000614
        },
        {
          "name": "C#4",
          "midi": 61,
          "time": 127.83576550000336,
          "velocity": 0.5984251968503937,
          "duration": 0.1735073874999955
        },
        {
          "name": "F#3",
          "midi": 54,
          "time": 128.05964600000334,
          "velocity": 0.6062992125984252,
          "duration": 0.5354475291666745
        },
        {
          "name": "B4",
          "midi": 71,
          "time": 128.05964600000334,
          "velocity": 0.6692913385826772,
          "duration": 0.21641781666667725
        },
        {
          "name": "C#4",
          "midi": 61,
          "time": 128.28352650000335,
          "velocity": 0.5826771653543307,
          "duration": 0.15485067916665685
        },
        {
          "name": "A4",
          "midi": 69,
          "time": 128.28352650000335,
          "velocity": 0.6692913385826772,
          "duration": 0.6287310708333393
        },
        {
          "name": "F#4",
          "midi": 66,
          "time": 128.50740700000335,
          "velocity": 0.6141732283464567,
          "duration": 0.23694019583334125
        },
        {
          "name": "C#4",
          "midi": 61,
          "time": 128.73128750000336,
          "velocity": 0.5826771653543307,
          "duration": 0.21268647500002658
        },
        {
          "name": "D2",
          "midi": 38,
          "time": 128.9551680000034,
          "velocity": 0.6220472440944882,
          "duration": 3.4085806125003444
        },
        {
          "name": "D3",
          "midi": 50,
          "time": 128.9551680000034,
          "velocity": 0.6220472440944882,
          "duration": 3.4179089666669995
        },
        {
          "name": "F#3",
          "midi": 54,
          "time": 128.9551680000034,
          "velocity": 0.6220472440944882,
          "duration": 0.6716415000000211
        },
        {
          "name": "D5",
          "midi": 74,
          "time": 128.9551680000034,
          "velocity": 0.7165354330708661,
          "duration": 0.8395518750000406
        },
        {
          "name": "D4",
          "midi": 62,
          "time": 129.1790485000034,
          "velocity": 0.6220472440944882,
          "duration": 0.27052227083333946
        },
        {
          "name": "F#4",
          "midi": 66,
          "time": 129.4029290000034,
          "velocity": 0.6062992125984252,
          "duration": 0.2350745250000159
        },
        {
          "name": "D4",
          "midi": 62,
          "time": 129.62680950000342,
          "velocity": 0.6456692913385826,
          "duration": 0.22947751250001147
        },
        {
          "name": "F#3",
          "midi": 54,
          "time": 129.85069000000342,
          "velocity": 0.6929133858267716,
          "duration": 0.4440296583333634
        },
        {
          "name": "D5",
          "midi": 74,
          "time": 129.85069000000342,
          "velocity": 0.7007874015748031,
          "duration": 0.26119391666668434
        },
        {
          "name": "D4",
          "midi": 62,
          "time": 130.07457050000343,
          "velocity": 0.7244094488188977,
          "duration": 0.2425372083333741
        },
        {
          "name": "D5",
          "midi": 74,
          "time": 130.1491973333368,
          "velocity": 0.7007874015748031,
          "duration": 0.26119391666668434
        },
        {
          "name": "F#4",
          "midi": 66,
          "time": 130.29845100000347,
          "velocity": 0.7322834645669292,
          "duration": 0.24067153750002035
        },
        {
          "name": "D5",
          "midi": 74,
          "time": 130.44770466667015,
          "velocity": 0.6220472440944882,
          "duration": 0.29104465000000346
        },
        {
          "name": "D4",
          "midi": 62,
          "time": 130.52233150000347,
          "velocity": 0.7086614173228346,
          "duration": 0.20522379166666838
        },
        {
          "name": "F#3",
          "midi": 54,
          "time": 130.74621200000348,
          "velocity": 0.7244094488188977,
          "duration": 0.2518655625000008
        },
        {
          "name": "C#5",
          "midi": 73,
          "time": 130.74621200000348,
          "velocity": 0.7165354330708661,
          "duration": 0.6287310708333393
        },
        {
          "name": "D4",
          "midi": 62,
          "time": 130.9700925000035,
          "velocity": 0.7244094488188977,
          "duration": 0.20522379166666838
        },
        {
          "name": "F#4",
          "midi": 66,
          "time": 131.1939730000035,
          "velocity": 0.6929133858267716,
          "duration": 0.24067153749999193
        },
        {
          "name": "D4",
          "midi": 62,
          "time": 131.41785350000347,
          "velocity": 0.6850393700787402,
          "duration": 0.22388050000003545
        },
        {
          "name": "C#5",
          "midi": 73,
          "time": 131.41785350000347,
          "velocity": 0.6220472440944882,
          "duration": 0.1809700708333537
        },
        {
          "name": "F#3",
          "midi": 54,
          "time": 131.6417340000035,
          "velocity": 0.6456692913385826,
          "duration": 0.2686566000002131
        },
        {
          "name": "B4",
          "midi": 71,
          "time": 131.6417340000035,
          "velocity": 0.6929133858267716,
          "duration": 0.44029831666688324
        },
        {
          "name": "D4",
          "midi": 62,
          "time": 131.86561450000372,
          "velocity": 0.6377952755905512,
          "duration": 0.1977611083333386
        },
        {
          "name": "F#4",
          "midi": 66,
          "time": 132.08949500000372,
          "velocity": 0.6377952755905512,
          "duration": 0.21641781666667725
        },
        {
          "name": "A4",
          "midi": 69,
          "time": 132.08949500000372,
          "velocity": 0.6614173228346457,
          "duration": 0.40485057083336073
        },
        {
          "name": "D4",
          "midi": 62,
          "time": 132.31337550000373,
          "velocity": 0.6377952755905512,
          "duration": 0.11007457916667818
        },
        {
          "name": "A1",
          "midi": 33,
          "time": 132.53725600000377,
          "velocity": 0.6377952755905512,
          "duration": 3.1380583416666354
        },
        {
          "name": "A2",
          "midi": 45,
          "time": 132.53725600000377,
          "velocity": 0.6377952755905512,
          "duration": 3.076491204166615
        },
        {
          "name": "A3",
          "midi": 57,
          "time": 132.53725600000377,
          "velocity": 0.6377952755905512,
          "duration": 0.5708952750000265
        },
        {
          "name": "A4",
          "midi": 69,
          "time": 132.53725600000377,
          "velocity": 0.7165354330708661,
          "duration": 0.626865400000014
        },
        {
          "name": "C#4",
          "midi": 61,
          "time": 132.76113650000377,
          "velocity": 0.6220472440944882,
          "duration": 0.2555969041666799
        },
        {
          "name": "E4",
          "midi": 64,
          "time": 132.98501700000378,
          "velocity": 0.6220472440944882,
          "duration": 0.2444028791666426
        },
        {
          "name": "C#4",
          "midi": 61,
          "time": 133.20889750000376,
          "velocity": 0.6220472440944882,
          "duration": 0.2089551333332622
        },
        {
          "name": "E5",
          "midi": 76,
          "time": 133.20889750000376,
          "velocity": 0.7322834645669292,
          "duration": 0.440298316666599
        },
        {
          "name": "A3",
          "midi": 57,
          "time": 133.43277800000368,
          "velocity": 0.6062992125984252,
          "duration": 0.45522368333334384
        },
        {
          "name": "C#4",
          "midi": 61,
          "time": 133.6566585000037,
          "velocity": 0.6141732283464567,
          "duration": 0.22014915833332793
        },
        {
          "name": "C#5",
          "midi": 73,
          "time": 133.6566585000037,
          "velocity": 0.5984251968503937,
          "duration": 0.1940297666666595
        },
        {
          "name": "E4",
          "midi": 64,
          "time": 133.8805390000037,
          "velocity": 0.5748031496062992,
          "duration": 0.2555969041666799
        },
        {
          "name": "C#5",
          "midi": 73,
          "time": 133.8805390000037,
          "velocity": 0.7086614173228346,
          "duration": 0.8880593166666699
        },
        {
          "name": "C#4",
          "midi": 61,
          "time": 134.1044195000037,
          "velocity": 0.6141732283464567,
          "duration": 0.21082080416667281
        },
        {
          "name": "A3",
          "midi": 57,
          "time": 134.3283000000037,
          "velocity": 0.6220472440944882,
          "duration": 0.5466415541666549
        },
        {
          "name": "C#4",
          "midi": 61,
          "time": 134.55218050000371,
          "velocity": 0.6141732283464567,
          "duration": 0.20149244999998928
        },
        {
          "name": "E4",
          "midi": 64,
          "time": 134.7760610000037,
          "velocity": 0.5984251968503937,
          "duration": 0.2425372083333457
        },
        {
          "name": "C#4",
          "midi": 61,
          "time": 134.9999415000037,
          "velocity": 0.6141732283464567,
          "duration": 0.20708946249999372
        },
        {
          "name": "A3",
          "midi": 57,
          "time": 135.2238220000037,
          "velocity": 0.6062992125984252,
          "duration": 0.4048505708333323
        },
        {
          "name": "C#4",
          "midi": 61,
          "time": 135.44770250000371,
          "velocity": 0.6141732283464567,
          "duration": 0.1977611083333386
        },
        {
          "name": "B4",
          "midi": 71,
          "time": 135.44770250000371,
          "velocity": 0.7086614173228346,
          "duration": 0.21641781666667725
        },
        {
          "name": "E4",
          "midi": 64,
          "time": 135.67158300000372,
          "velocity": 0.5748031496062992,
          "duration": 0.19216409583333416
        },
        {
          "name": "A4",
          "midi": 69,
          "time": 135.67158300000372,
          "velocity": 0.6692913385826772,
          "duration": 0.4402983166666843
        },
        {
          "name": "C#4",
          "midi": 61,
          "time": 135.89546350000373,
          "velocity": 0.6141732283464567,
          "duration": 0.1529850083333315
        },
        {
          "name": "G#1",
          "midi": 32,
          "time": 136.11934400000374,
          "velocity": 0.6299212598425197,
          "duration": 3.244401579166606
        },
        {
          "name": "G#2",
          "midi": 44,
          "time": 136.11934400000374,
          "velocity": 0.6141732283464567,
          "duration": 3.186565783333265
        },
        {
          "name": "G#3",
          "midi": 56,
          "time": 136.11934400000374,
          "velocity": 0.6141732283464567,
          "duration": 0.6828355250000016
        },
        {
          "name": "C#4",
          "midi": 61,
          "time": 136.3432245000037,
          "velocity": 0.6141732283464567,
          "duration": 0.22388050000000703
        },
        {
          "name": "E4",
          "midi": 64,
          "time": 136.56710500000372,
          "velocity": 0.6062992125984252,
          "duration": 0.2350745250000159
        },
        {
          "name": "C#4",
          "midi": 61,
          "time": 136.79098550000373,
          "velocity": 0.6141732283464567,
          "duration": 0.21082080416667281
        },
        {
          "name": "A4",
          "midi": 69,
          "time": 136.79098550000373,
          "velocity": 0.6299212598425197,
          "duration": 0.18656708333332972
        },
        {
          "name": "G#3",
          "midi": 56,
          "time": 137.01486600000374,
          "velocity": 0.6299212598425197,
          "duration": 0.49440277083326123
        },
        {
          "name": "E5",
          "midi": 76,
          "time": 137.01486600000374,
          "velocity": 0.7244094488188977,
          "duration": 0.6679101583332567
        },
        {
          "name": "C#4",
          "midi": 61,
          "time": 137.23874650000366,
          "velocity": 0.5748031496062992,
          "duration": 0.19216409583333416
        },
        {
          "name": "E4",
          "midi": 64,
          "time": 137.46262700000366,
          "velocity": 0.6062992125984252,
          "duration": 0.22761184166668613
        },
        {
          "name": "C#4",
          "midi": 61,
          "time": 137.68650750000367,
          "velocity": 0.6062992125984252,
          "duration": 0.2014924500000177
        },
        {
          "name": "C#5",
          "midi": 73,
          "time": 137.68650750000367,
          "velocity": 0.6535433070866141,
          "duration": 1.074626400000028
        },
        {
          "name": "G#3",
          "midi": 56,
          "time": 137.91038800000368,
          "velocity": 0.6141732283464567,
          "duration": 0.5317161875000238
        },
        {
          "name": "C#4",
          "midi": 61,
          "time": 138.13426850000369,
          "velocity": 0.6141732283464567,
          "duration": 0.1977611083333386
        },
        {
          "name": "E4",
          "midi": 64,
          "time": 138.3581490000037,
          "velocity": 0.6062992125984252,
          "duration": 0.2555969041666799
        },
        {
          "name": "C#4",
          "midi": 61,
          "time": 138.5820295000037,
          "velocity": 0.5826771653543307,
          "duration": 0.19029842500000882
        },
        {
          "name": "G#3",
          "midi": 56,
          "time": 138.8059100000037,
          "velocity": 0.6299212598425197,
          "duration": 0.597014666666638
        },
        {
          "name": "C#5",
          "midi": 73,
          "time": 138.8059100000037,
          "velocity": 0.6850393700787402,
          "duration": 0.8544772416666433
        },
        {
          "name": "C#4",
          "midi": 61,
          "time": 139.02979050000368,
          "velocity": 0.5984251968503937,
          "duration": 0.17537305833332084
        },
        {
          "name": "E4",
          "midi": 64,
          "time": 139.25367100000366,
          "velocity": 0.6220472440944882,
          "duration": 0.24067153750002035
        },
        {
          "name": "C#4",
          "midi": 61,
          "time": 139.47755150000367,
          "velocity": 0.5905511811023622,
          "duration": 0.18470141250000438
        },
        {
          "name": "F#1",
          "midi": 30,
          "time": 139.70143200000368,
          "velocity": 0.6220472440944882,
          "duration": 3.0634315083335366
        },
        {
          "name": "F#2",
          "midi": 42,
          "time": 139.70143200000368,
          "velocity": 0.6220472440944882,
          "duration": 3.0839538875002006
        },
        {
          "name": "F#3",
          "midi": 54,
          "time": 139.70143200000368,
          "velocity": 0.5984251968503937,
          "duration": 0.548507224999895
        },
        {
          "name": "F#4",
          "midi": 66,
          "time": 139.70143200000368,
          "velocity": 0.6456692913385826,
          "duration": 0.6399250958332345
        },
        {
          "name": "C#4",
          "midi": 61,
          "time": 139.92531250000357,
          "velocity": 0.5590551181102362,
          "duration": 0.1399253124999973
        },
        {
          "name": "F#4",
          "midi": 66,
          "time": 140.14919300000358,
          "velocity": 0.5905511811023622,
          "duration": 0.22761184166668613
        },
        {
          "name": "C#4",
          "midi": 61,
          "time": 140.37307350000358,
          "velocity": 0.5984251968503937,
          "duration": 0.2052237916665547
        },
        {
          "name": "C#5",
          "midi": 73,
          "time": 140.37307350000358,
          "velocity": 0.7244094488188977,
          "duration": 0.4402983166665706
        },
        {
          "name": "F#3",
          "midi": 54,
          "time": 140.59695400000348,
          "velocity": 0.5669291338582677,
          "duration": 0.264925258333335
        },
        {
          "name": "C#4",
          "midi": 61,
          "time": 140.82083450000349,
          "velocity": 0.5905511811023622,
          "duration": 0.24999989166664704
        },
        {
          "name": "B4",
          "midi": 71,
          "time": 140.82083450000349,
          "velocity": 0.6456692913385826,
          "duration": 0.21641781666664883
        },
        {
          "name": "F#4",
          "midi": 66,
          "time": 141.04471500000346,
          "velocity": 0.5984251968503937,
          "duration": 0.2518655625000008
        },
        {
          "name": "C#5",
          "midi": 73,
          "time": 141.04471500000346,
          "velocity": 0.7244094488188977,
          "duration": 0.8880593166670394
        },
        {
          "name": "C#4",
          "midi": 61,
          "time": 141.26859550000347,
          "velocity": 0.5905511811023622,
          "duration": 0.21268647499999815
        },
        {
          "name": "F#3",
          "midi": 54,
          "time": 141.49247600000348,
          "velocity": 0.6062992125984252,
          "duration": 0.2649252583334487
        },
        {
          "name": "C#4",
          "midi": 61,
          "time": 141.7163565000035,
          "velocity": 0.5748031496062992,
          "duration": 0.20895513333366011
        },
        {
          "name": "F#4",
          "midi": 66,
          "time": 141.94023700000383,
          "velocity": 0.6062992125984252,
          "duration": 0.24067153750002035
        },
        {
          "name": "C#4",
          "midi": 61,
          "time": 142.16411750000384,
          "velocity": 0.5984251968503937,
          "duration": 0.17350738750002392
        },
        {
          "name": "F#3",
          "midi": 54,
          "time": 142.38799800000388,
          "velocity": 0.6062992125984252,
          "duration": 0.5354475291666745
        },
        {
          "name": "A4",
          "midi": 69,
          "time": 142.38799800000388,
          "velocity": 0.7086614173228346,
          "duration": 0.39365654583332343
        },
        {
          "name": "C#4",
          "midi": 61,
          "time": 142.61187850000388,
          "velocity": 0.5826771653543307,
          "duration": 0.15485067916665685
        },
        {
          "name": "F#4",
          "midi": 66,
          "time": 142.8357590000039,
          "velocity": 0.6141732283464567,
          "duration": 0.23694019583331283
        },
        {
          "name": "A4",
          "midi": 69,
          "time": 142.8357590000039,
          "velocity": 0.6850393700787402,
          "duration": 0.18283574166665062
        },
        {
          "name": "C#4",
          "midi": 61,
          "time": 143.05963950000387,
          "velocity": 0.5826771653543307,
          "duration": 0.21268647500002658
        },
        {
          "name": "A4",
          "midi": 69,
          "time": 143.05963950000387,
          "velocity": 0.6456692913385826,
          "duration": 0.19589543750001326
        },
        {
          "name": "D1",
          "midi": 26,
          "time": 143.28352000000388,
          "velocity": 0.6220472440944882,
          "duration": 3.41790896666663
        },
        {
          "name": "D2",
          "midi": 38,
          "time": 143.28352000000388,
          "velocity": 0.6220472440944882,
          "duration": 3.408580612499975
        },
        {
          "name": "F#3",
          "midi": 54,
          "time": 143.28352000000388,
          "velocity": 0.6220472440944882,
          "duration": 0.6716414999999358
        },
        {
          "name": "D5",
          "midi": 74,
          "time": 143.28352000000388,
          "velocity": 0.7401574803149606,
          "duration": 0.8880593166666131
        },
        {
          "name": "A3",
          "midi": 57,
          "time": 143.50740050000383,
          "velocity": 0.5826771653543307,
          "duration": 0.27052227083331104
        },
        {
          "name": "F#4",
          "midi": 66,
          "time": 143.7312810000038,
          "velocity": 0.6062992125984252,
          "duration": 0.2350745250000159
        },
        {
          "name": "A3",
          "midi": 57,
          "time": 143.9551615000038,
          "velocity": 0.6062992125984252,
          "duration": 0.22947751250001147
        },
        {
          "name": "F#3",
          "midi": 54,
          "time": 144.17904200000382,
          "velocity": 0.6141732283464567,
          "duration": 0.4440296583332781
        },
        {
          "name": "B4",
          "midi": 71,
          "time": 144.17904200000382,
          "velocity": 0.7322834645669292,
          "duration": 0.8880593166666699
        },
        {
          "name": "A3",
          "midi": 57,
          "time": 144.40292250000377,
          "velocity": 0.6062992125984252,
          "duration": 0.2425372083333457
        },
        {
          "name": "F#4",
          "midi": 66,
          "time": 144.62680300000378,
          "velocity": 0.6062992125984252,
          "duration": 0.2406715375000772
        },
        {
          "name": "A3",
          "midi": 57,
          "time": 144.85068350000387,
          "velocity": 0.6299212598425197,
          "duration": 0.20522379166661153
        },
        {
          "name": "F#3",
          "midi": 54,
          "time": 145.07456400000382,
          "velocity": 0.6141732283464567,
          "duration": 0.2518655625000008
        },
        {
          "name": "A4",
          "midi": 69,
          "time": 145.07456400000382,
          "velocity": 0.7165354330708661,
          "duration": 1.5317157541666973
        },
        {
          "name": "A3",
          "midi": 57,
          "time": 145.29844450000382,
          "velocity": 0.6062992125984252,
          "duration": 0.20522379166666838
        },
        {
          "name": "F#4",
          "midi": 66,
          "time": 145.52232500000383,
          "velocity": 0.6062992125984252,
          "duration": 0.24067153750002035
        },
        {
          "name": "A3",
          "midi": 57,
          "time": 145.74620550000384,
          "velocity": 0.6377952755905512,
          "duration": 0.22388050000000703
        },
        {
          "name": "F#3",
          "midi": 54,
          "time": 145.97008600000385,
          "velocity": 0.6141732283464567,
          "duration": 0.2686566000000141
        },
        {
          "name": "A3",
          "midi": 57,
          "time": 146.19396650000385,
          "velocity": 0.6377952755905512,
          "duration": 0.1977611083333386
        },
        {
          "name": "F#4",
          "midi": 66,
          "time": 146.41784700000386,
          "velocity": 0.5984251968503937,
          "duration": 0.21641781666664883
        },
        {
          "name": "A3",
          "midi": 57,
          "time": 146.64172750000384,
          "velocity": 0.5984251968503937,
          "duration": 0.11007457916667818
        },
        {
          "name": "A4",
          "midi": 69,
          "time": 146.64172750000384,
          "velocity": 0.6929133858267716,
          "duration": 0.21641781666667725
        },
        {
          "name": "E1",
          "midi": 28,
          "time": 146.86560800000385,
          "velocity": 0.6220472440944882,
          "duration": 1.7835813166667265
        },
        {
          "name": "E2",
          "midi": 40,
          "time": 146.86560800000385,
          "velocity": 0.6220472440944882,
          "duration": 1.7835813166667265
        },
        {
          "name": "F#3",
          "midi": 54,
          "time": 146.86560800000385,
          "velocity": 0.6220472440944882,
          "duration": 0.6716415000000211
        },
        {
          "name": "B4",
          "midi": 71,
          "time": 146.86560800000385,
          "velocity": 0.7086614173228346,
          "duration": 0.21641781666667725
        },
        {
          "name": "G#3",
          "midi": 56,
          "time": 147.08948850000385,
          "velocity": 0.5826771653543307,
          "duration": 0.27052227083333946
        },
        {
          "name": "C#5",
          "midi": 73,
          "time": 147.08948850000385,
          "velocity": 0.6614173228346457,
          "duration": 0.18283574166667904
        },
        {
          "name": "E4",
          "midi": 64,
          "time": 147.31336900000386,
          "velocity": 0.6062992125984252,
          "duration": 0.2350745250000159
        },
        {
          "name": "C#5",
          "midi": 73,
          "time": 147.31336900000386,
          "velocity": 0.6850393700787402,
          "duration": 0.18656708333332972
        },
        {
          "name": "G#3",
          "midi": 56,
          "time": 147.53724950000387,
          "velocity": 0.6062992125984252,
          "duration": 0.22947751250001147
        },
        {
          "name": "C#5",
          "midi": 73,
          "time": 147.53724950000387,
          "velocity": 0.7401574803149606,
          "duration": 0.4402983166666843
        },
        {
          "name": "F#3",
          "midi": 54,
          "time": 147.76113000000387,
          "velocity": 0.6141732283464567,
          "duration": 0.44402965833333496
        },
        {
          "name": "G#3",
          "midi": 56,
          "time": 147.98501050000388,
          "velocity": 0.6062992125984252,
          "duration": 0.2425372083333457
        },
        {
          "name": "B4",
          "midi": 71,
          "time": 147.98501050000388,
          "velocity": 0.6850393700787402,
          "duration": 0.18656708333332972
        },
        {
          "name": "E4",
          "midi": 64,
          "time": 148.2088910000039,
          "velocity": 0.6062992125984252,
          "duration": 0.24067153750002035
        },
        {
          "name": "B4",
          "midi": 71,
          "time": 148.2088910000039,
          "velocity": 0.7165354330708661,
          "duration": 0.21641781666667725
        },
        {
          "name": "G#3",
          "midi": 56,
          "time": 148.4327715000039,
          "velocity": 0.6299212598425197,
          "duration": 0.20522379166666838
        },
        {
          "name": "A4",
          "midi": 69,
          "time": 148.4327715000039,
          "velocity": 0.6771653543307087,
          "duration": 0.21641781666667725
        },
        {
          "name": "F#1",
          "midi": 30,
          "time": 148.6566520000039,
          "velocity": 0.6220472440944882,
          "duration": 1.6268649666667159
        },
        {
          "name": "F#2",
          "midi": 42,
          "time": 148.6566520000039,
          "velocity": 0.6220472440944882,
          "duration": 1.6175366125000608
        },
        {
          "name": "F#3",
          "midi": 54,
          "time": 148.6566520000039,
          "velocity": 0.6141732283464567,
          "duration": 0.2518655625000008
        },
        {
          "name": "B4",
          "midi": 71,
          "time": 148.6566520000039,
          "velocity": 0.7322834645669292,
          "duration": 0.402984900000007
        },
        {
          "name": "A3",
          "midi": 57,
          "time": 148.8805325000039,
          "velocity": 0.6062992125984252,
          "duration": 0.20522379166666838
        },
        {
          "name": "E4",
          "midi": 64,
          "time": 149.10441300000392,
          "velocity": 0.6062992125984252,
          "duration": 0.24067153750002035
        },
        {
          "name": "B4",
          "midi": 71,
          "time": 149.10441300000392,
          "velocity": 0.7165354330708661,
          "duration": 0.21641781666667725
        },
        {
          "name": "A3",
          "midi": 57,
          "time": 149.32829350000392,
          "velocity": 0.6377952755905512,
          "duration": 0.22388050000000703
        },
        {
          "name": "A4",
          "midi": 69,
          "time": 149.32829350000392,
          "velocity": 0.6771653543307087,
          "duration": 0.18470141250000438
        },
        {
          "name": "F#3",
          "midi": 54,
          "time": 149.55217400000393,
          "velocity": 0.6141732283464567,
          "duration": 0.2686566000000141
        },
        {
          "name": "B4",
          "midi": 71,
          "time": 149.55217400000393,
          "velocity": 0.7165354330708661,
          "duration": 0.21641781666667725
        },
        {
          "name": "A3",
          "midi": 57,
          "time": 149.77605450000394,
          "velocity": 0.6377952755905512,
          "duration": 0.1977611083333386
        },
        {
          "name": "A4",
          "midi": 69,
          "time": 149.77605450000394,
          "velocity": 0.6771653543307087,
          "duration": 0.18656708333332972
        },
        {
          "name": "E4",
          "midi": 64,
          "time": 149.99993500000394,
          "velocity": 0.6377952755905512,
          "duration": 0.21641781666667725
        },
        {
          "name": "A4",
          "midi": 69,
          "time": 149.99993500000394,
          "velocity": 0.6929133858267716,
          "duration": 0.10820890833332442
        },
        {
          "name": "A4",
          "midi": 69,
          "time": 150.14545732500395,
          "velocity": 0.6771653543307087,
          "duration": 0.7481340041667295
        },
        {
          "name": "A3",
          "midi": 57,
          "time": 150.22381550000395,
          "velocity": 0.6377952755905512,
          "duration": 0.11007457916667818
        },
        {
          "name": "D2",
          "midi": 38,
          "time": 150.447696000004,
          "velocity": 0.6220472440944882,
          "duration": 3.408580612500117
        },
        {
          "name": "D3",
          "midi": 50,
          "time": 150.447696000004,
          "velocity": 0.6220472440944882,
          "duration": 3.417908966666772
        },
        {
          "name": "F#3",
          "midi": 54,
          "time": 150.447696000004,
          "velocity": 0.6220472440944882,
          "duration": 0.6716415000000211
        },
        {
          "name": "A3",
          "midi": 57,
          "time": 150.671576500004,
          "velocity": 0.5826771653543307,
          "duration": 0.27052227083333946
        },
        {
          "name": "D4",
          "midi": 62,
          "time": 150.895457000004,
          "velocity": 0.6062992125984252,
          "duration": 0.2350745250000159
        },
        {
          "name": "B4",
          "midi": 71,
          "time": 150.895457000004,
          "velocity": 0.7165354330708661,
          "duration": 0.11007457916667818
        },
        {
          "name": "A4",
          "midi": 69,
          "time": 151.007397250004,
          "velocity": 0.6692913385826772,
          "duration": 0.32835806666668077
        },
        {
          "name": "A3",
          "midi": 57,
          "time": 151.119337500004,
          "velocity": 0.6062992125984252,
          "duration": 0.22947751250001147
        },
        {
          "name": "F#3",
          "midi": 54,
          "time": 151.34321800000401,
          "velocity": 0.6141732283464567,
          "duration": 0.4440296583333634
        },
        {
          "name": "B4",
          "midi": 71,
          "time": 151.34321800000401,
          "velocity": 0.7007874015748031,
          "duration": 0.21641781666667725
        },
        {
          "name": "A3",
          "midi": 57,
          "time": 151.56709850000402,
          "velocity": 0.6062992125984252,
          "duration": 0.2425372083333741
        },
        {
          "name": "A4",
          "midi": 69,
          "time": 151.56709850000402,
          "velocity": 0.6377952755905512,
          "duration": 0.21641781666667725
        },
        {
          "name": "D4",
          "midi": 62,
          "time": 151.79097900000406,
          "velocity": 0.6062992125984252,
          "duration": 0.24067153750002035
        },
        {
          "name": "B4",
          "midi": 71,
          "time": 151.79097900000406,
          "velocity": 0.7007874015748031,
          "duration": 0.6641788166666913
        },
        {
          "name": "A3",
          "midi": 57,
          "time": 152.01485950000406,
          "velocity": 0.6299212598425197,
          "duration": 0.20522379166666838
        },
        {
          "name": "F#3",
          "midi": 54,
          "time": 152.23874000000407,
          "velocity": 0.6141732283464567,
          "duration": 0.2518655625000008
        },
        {
          "name": "A3",
          "midi": 57,
          "time": 152.46262050000408,
          "velocity": 0.6062992125984252,
          "duration": 0.20522379166666838
        },
        {
          "name": "A4",
          "midi": 69,
          "time": 152.46262050000408,
          "velocity": 0.6929133858267716,
          "duration": 0.18656708333332972
        },
        {
          "name": "D4",
          "midi": 62,
          "time": 152.68650100000409,
          "velocity": 0.6062992125984252,
          "duration": 0.24067153750002035
        },
        {
          "name": "B4",
          "midi": 71,
          "time": 152.68650100000409,
          "velocity": 0.7165354330708661,
          "duration": 0.11567159166668262
        },
        {
          "name": "A4",
          "midi": 69,
          "time": 152.7984412500041,
          "velocity": 0.6692913385826772,
          "duration": 0.32835806666668077
        },
        {
          "name": "A3",
          "midi": 57,
          "time": 152.9103815000041,
          "velocity": 0.6377952755905512,
          "duration": 0.22388050000000703
        },
        {
          "name": "F#3",
          "midi": 54,
          "time": 153.1342620000041,
          "velocity": 0.6141732283464567,
          "duration": 0.2686566000000141
        },
        {
          "name": "B4",
          "midi": 71,
          "time": 153.1342620000041,
          "velocity": 0.7007874015748031,
          "duration": 0.21641781666667725
        },
        {
          "name": "A3",
          "midi": 57,
          "time": 153.3581425000041,
          "velocity": 0.6377952755905512,
          "duration": 0.1977611083333386
        },
        {
          "name": "A4",
          "midi": 69,
          "time": 153.3581425000041,
          "velocity": 0.6377952755905512,
          "duration": 0.17537305833334926
        },
        {
          "name": "D4",
          "midi": 62,
          "time": 153.5820230000041,
          "velocity": 0.6377952755905512,
          "duration": 0.21641781666667725
        },
        {
          "name": "A4",
          "midi": 69,
          "time": 153.5820230000041,
          "velocity": 0.7007874015748031,
          "duration": 0.44029831666665586
        },
        {
          "name": "A3",
          "midi": 57,
          "time": 153.80590350000412,
          "velocity": 0.6377952755905512,
          "duration": 0.11007457916664976
        },
        {
          "name": "E1",
          "midi": 28,
          "time": 154.0297840000041,
          "velocity": 0.6220472440944882,
          "duration": 1.783581316666755
        },
        {
          "name": "E2",
          "midi": 40,
          "time": 154.0297840000041,
          "velocity": 0.6220472440944882,
          "duration": 1.783581316666755
        },
        {
          "name": "F#3",
          "midi": 54,
          "time": 154.0297840000041,
          "velocity": 0.6220472440944882,
          "duration": 0.6716415000000211
        },
        {
          "name": "C#5",
          "midi": 73,
          "time": 154.0297840000041,
          "velocity": 0.7244094488188977,
          "duration": 0.18470141250000438
        },
        {
          "name": "G#3",
          "midi": 56,
          "time": 154.2536645000041,
          "velocity": 0.5826771653543307,
          "duration": 0.27052227083333946
        },
        {
          "name": "C#5",
          "midi": 73,
          "time": 154.2536645000041,
          "velocity": 0.6692913385826772,
          "duration": 0.18470141250000438
        },
        {
          "name": "E4",
          "midi": 64,
          "time": 154.4775450000041,
          "velocity": 0.6062992125984252,
          "duration": 0.2350745250000159
        },
        {
          "name": "C#5",
          "midi": 73,
          "time": 154.4775450000041,
          "velocity": 0.6692913385826772,
          "duration": 0.18470141250000438
        },
        {
          "name": "G#3",
          "midi": 56,
          "time": 154.70142550000412,
          "velocity": 0.6062992125984252,
          "duration": 0.22947751250001147
        },
        {
          "name": "C#5",
          "midi": 73,
          "time": 154.70142550000412,
          "velocity": 0.6692913385826772,
          "duration": 0.18470141250000438
        },
        {
          "name": "F#3",
          "midi": 54,
          "time": 154.92530600000413,
          "velocity": 0.6141732283464567,
          "duration": 0.4440296583333634
        },
        {
          "name": "C#5",
          "midi": 73,
          "time": 154.92530600000413,
          "velocity": 0.7086614173228346,
          "duration": 0.4402983166666843
        },
        {
          "name": "G#3",
          "midi": 56,
          "time": 155.14918650000413,
          "velocity": 0.6062992125984252,
          "duration": 0.2425372083333741
        },
        {
          "name": "E4",
          "midi": 64,
          "time": 155.37306700000417,
          "velocity": 0.6062992125984252,
          "duration": 0.24067153750002035
        },
        {
          "name": "G#3",
          "midi": 56,
          "time": 155.59694750000418,
          "velocity": 0.6299212598425197,
          "duration": 0.20522379166666838
        },
        {
          "name": "F#1",
          "midi": 30,
          "time": 155.82082800000418,
          "velocity": 0.6220472440944882,
          "duration": 1.6268649666666875
        },
        {
          "name": "F#2",
          "midi": 42,
          "time": 155.82082800000418,
          "velocity": 0.6220472440944882,
          "duration": 1.6175366125000323
        },
        {
          "name": "F#3",
          "midi": 54,
          "time": 155.82082800000418,
          "velocity": 0.6141732283464567,
          "duration": 0.2518655625000008
        },
        {
          "name": "B4",
          "midi": 71,
          "time": 155.82082800000418,
          "velocity": 0.7401574803149606,
          "duration": 0.21641781666667725
        },
        {
          "name": "A3",
          "midi": 57,
          "time": 156.0447085000042,
          "velocity": 0.6062992125984252,
          "duration": 0.20522379166663995
        },
        {
          "name": "A4",
          "midi": 69,
          "time": 156.0447085000042,
          "velocity": 0.6692913385826772,
          "duration": 0.21641781666664883
        },
        {
          "name": "E4",
          "midi": 64,
          "time": 156.26858900000417,
          "velocity": 0.6062992125984252,
          "duration": 0.24067153750002035
        },
        {
          "name": "B4",
          "midi": 71,
          "time": 156.26858900000417,
          "velocity": 0.7322834645669292,
          "duration": 0.21641781666667725
        },
        {
          "name": "A3",
          "midi": 57,
          "time": 156.49246950000418,
          "velocity": 0.6377952755905512,
          "duration": 0.22388050000000703
        },
        {
          "name": "A4",
          "midi": 69,
          "time": 156.49246950000418,
          "velocity": 0.6850393700787402,
          "duration": 0.21641781666667725
        },
        {
          "name": "F#3",
          "midi": 54,
          "time": 156.71635000000418,
          "velocity": 0.6141732283464567,
          "duration": 0.2686566000000141
        },
        {
          "name": "B4",
          "midi": 71,
          "time": 156.71635000000418,
          "velocity": 0.7322834645669292,
          "duration": 0.21641781666667725
        },
        {
          "name": "A3",
          "midi": 57,
          "time": 156.9402305000042,
          "velocity": 0.6377952755905512,
          "duration": 0.1977611083333386
        },
        {
          "name": "A4",
          "midi": 69,
          "time": 156.9402305000042,
          "velocity": 0.6850393700787402,
          "duration": 0.21641781666667725
        },
        {
          "name": "E4",
          "midi": 64,
          "time": 157.1641110000042,
          "velocity": 0.6377952755905512,
          "duration": 0.21641781666667725
        },
        {
          "name": "B4",
          "midi": 71,
          "time": 157.1641110000042,
          "velocity": 0.7322834645669292,
          "duration": 0.21641781666667725
        },
        {
          "name": "A3",
          "midi": 57,
          "time": 157.3879915000042,
          "velocity": 0.6377952755905512,
          "duration": 0.11007457916667818
        },
        {
          "name": "C#5",
          "midi": 73,
          "time": 157.3879915000042,
          "velocity": 0.6850393700787402,
          "duration": 0.21641781666667725
        },
        {
          "name": "D2",
          "midi": 38,
          "time": 157.6118720000042,
          "velocity": 0.6220472440944882,
          "duration": 7.156713316667151
        },
        {
          "name": "D3",
          "midi": 50,
          "time": 157.6118720000042,
          "velocity": 0.6220472440944882,
          "duration": 7.166041670833806
        },
        {
          "name": "F#3",
          "midi": 54,
          "time": 157.6118720000042,
          "velocity": 0.6220472440944882,
          "duration": 0.6716415000000211
        },
        {
          "name": "F#4",
          "midi": 66,
          "time": 157.6118720000042,
          "velocity": 0.6850393700787402,
          "duration": 0.8880593166666984
        },
        {
          "name": "A3",
          "midi": 57,
          "time": 157.83575250000422,
          "velocity": 0.5984251968503937,
          "duration": 0.27052227083333946
        },
        {
          "name": "D4",
          "midi": 62,
          "time": 158.05963300000423,
          "velocity": 0.6299212598425197,
          "duration": 0.2350745250000159
        },
        {
          "name": "A3",
          "midi": 57,
          "time": 158.28351350000423,
          "velocity": 0.6377952755905512,
          "duration": 0.22947751250001147
        },
        {
          "name": "F#3",
          "midi": 54,
          "time": 158.50739400000424,
          "velocity": 0.5905511811023622,
          "duration": 0.4440296583333634
        },
        {
          "name": "A3",
          "midi": 57,
          "time": 158.73127450000425,
          "velocity": 0.5905511811023622,
          "duration": 0.2425372083333741
        },
        {
          "name": "A4",
          "midi": 69,
          "time": 158.73127450000425,
          "velocity": 0.6220472440944882,
          "duration": 0.21641781666667725
        },
        {
          "name": "D4",
          "midi": 62,
          "time": 158.95515500000428,
          "velocity": 0.5905511811023622,
          "duration": 0.24067153750002035
        },
        {
          "name": "B4",
          "midi": 71,
          "time": 158.95515500000428,
          "velocity": 0.6771653543307087,
          "duration": 0.21641781666667725
        },
        {
          "name": "A3",
          "midi": 57,
          "time": 159.1790355000043,
          "velocity": 0.5905511811023622,
          "duration": 0.20522379166666838
        },
        {
          "name": "A4",
          "midi": 69,
          "time": 159.1790355000043,
          "velocity": 0.6456692913385826,
          "duration": 0.21641781666667725
        },
        {
          "name": "F#3",
          "midi": 54,
          "time": 159.4029160000043,
          "velocity": 0.6141732283464567,
          "duration": 0.2518655625000008
        },
        {
          "name": "B4",
          "midi": 71,
          "time": 159.4029160000043,
          "velocity": 0.7165354330708661,
          "duration": 0.8470145583333704
        },
        {
          "name": "G#3",
          "midi": 56,
          "time": 159.6267965000043,
          "velocity": 0.6220472440944882,
          "duration": 0.20522379166666838
        },
        {
          "name": "E4",
          "midi": 64,
          "time": 159.8506770000043,
          "velocity": 0.6456692913385826,
          "duration": 0.24067153750002035
        },
        {
          "name": "G#3",
          "midi": 56,
          "time": 160.07455750000432,
          "velocity": 0.6456692913385826,
          "duration": 0.22388050000000703
        },
        {
          "name": "F#3",
          "midi": 54,
          "time": 160.29843800000432,
          "velocity": 0.6456692913385826,
          "duration": 0.26865660000018465
        },
        {
          "name": "B4",
          "midi": 71,
          "time": 160.29843800000432,
          "velocity": 0.6456692913385826,
          "duration": 2.070894625000335
        },
        {
          "name": "G#3",
          "midi": 56,
          "time": 160.52231850000447,
          "velocity": 0.6535433070866141,
          "duration": 0.19776110833336702
        },
        {
          "name": "E4",
          "midi": 64,
          "time": 160.7461990000045,
          "velocity": 0.6535433070866141,
          "duration": 0.21641781666667725
        },
        {
          "name": "G#3",
          "midi": 56,
          "time": 160.97007950000452,
          "velocity": 0.6535433070866141,
          "duration": 0.11007457916667818
        },
        {
          "name": "F#3",
          "midi": 54,
          "time": 161.19396000000455,
          "velocity": 0.6771653543307087,
          "duration": 0.6716415000000211
        },
        {
          "name": "A3",
          "midi": 57,
          "time": 161.41784050000456,
          "velocity": 0.6929133858267716,
          "duration": 0.27052227083333946
        },
        {
          "name": "F#4",
          "midi": 66,
          "time": 161.64172100000457,
          "velocity": 0.6929133858267716,
          "duration": 0.2350745250000159
        },
        {
          "name": "A3",
          "midi": 57,
          "time": 161.86560150000457,
          "velocity": 0.6929133858267716,
          "duration": 0.22947751249995463
        },
        {
          "name": "F#3",
          "midi": 54,
          "time": 162.08948200000452,
          "velocity": 0.7007874015748031,
          "duration": 0.4440296583334771
        },
        {
          "name": "A3",
          "midi": 57,
          "time": 162.31336250000467,
          "velocity": 0.7086614173228346,
          "duration": 0.2425372083333457
        },
        {
          "name": "F#4",
          "midi": 66,
          "time": 162.53724300000468,
          "velocity": 0.7086614173228346,
          "duration": 0.24067153750002035
        },
        {
          "name": "A3",
          "midi": 57,
          "time": 162.7611235000047,
          "velocity": 0.7086614173228346,
          "duration": 0.20522379166666838
        },
        {
          "name": "F#3",
          "midi": 54,
          "time": 162.9850040000047,
          "velocity": 0.7086614173228346,
          "duration": 0.7164176000000282
        },
        {
          "name": "B3",
          "midi": 59,
          "time": 163.2088845000047,
          "velocity": 0.7086614173228346,
          "duration": 0.2388058666666666
        },
        {
          "name": "G#4",
          "midi": 68,
          "time": 163.4327650000047,
          "velocity": 0.7086614173228346,
          "duration": 0.341417762500015
        },
        {
          "name": "B3",
          "midi": 59,
          "time": 163.65664550000471,
          "velocity": 0.6771653543307087,
          "duration": 0.24440287916667103
        },
        {
          "name": "F#3",
          "midi": 54,
          "time": 163.88052600000472,
          "velocity": 0.6299212598425197,
          "duration": 0.3395520916666612
        },
        {
          "name": "B3",
          "midi": 59,
          "time": 164.10440650000473,
          "velocity": 0.6220472440944882,
          "duration": 0.19589543749998484
        },
        {
          "name": "G#4",
          "midi": 68,
          "time": 164.3282870000047,
          "velocity": 0.5905511811023622,
          "duration": 0.2388058666666666
        },
        {
          "name": "A1",
          "midi": 33,
          "time": 164.7760480000047,
          "velocity": 0.7480314960629921,
          "duration": 1.7052231416667212
        },
        {
          "name": "A2",
          "midi": 45,
          "time": 164.7760480000047,
          "velocity": 0.7480314960629921,
          "duration": 1.7145514958333763
        },
        {
          "name": "A3",
          "midi": 57,
          "time": 164.7760480000047,
          "velocity": 0.7480314960629921,
          "duration": 0.5708952749999696
        },
        {
          "name": "C#4",
          "midi": 61,
          "time": 164.99992850000467,
          "velocity": 0.7007874015748031,
          "duration": 0.2555969041666515
        },
        {
          "name": "A5",
          "midi": 81,
          "time": 164.99992850000467,
          "velocity": 0.7952755905511811,
          "duration": 0.18097007083332528
        },
        {
          "name": "A4",
          "midi": 69,
          "time": 165.22380900000465,
          "velocity": 0.7322834645669292,
          "duration": 0.24440287916667103
        },
        {
          "name": "A5",
          "midi": 81,
          "time": 165.22380900000465,
          "velocity": 0.7795275590551181,
          "duration": 0.18470141250000438
        },
        {
          "name": "C#4",
          "midi": 61,
          "time": 165.44768950000466,
          "velocity": 0.7322834645669292,
          "duration": 0.20895513333331905
        },
        {
          "name": "A5",
          "midi": 81,
          "time": 165.44768950000466,
          "velocity": 0.7874015748031497,
          "duration": 0.41044758333330833
        },
        {
          "name": "A3",
          "midi": 57,
          "time": 165.67157000000464,
          "velocity": 0.7165354330708661,
          "duration": 0.4552236833334291
        },
        {
          "name": "C#4",
          "midi": 61,
          "time": 165.89545050000464,
          "velocity": 0.7244094488188977,
          "duration": 0.22014915833344162
        },
        {
          "name": "G#5",
          "midi": 80,
          "time": 165.89545050000464,
          "velocity": 0.7795275590551181,
          "duration": 0.3973878875000878
        },
        {
          "name": "A4",
          "midi": 69,
          "time": 166.11933100000473,
          "velocity": 0.6850393700787402,
          "duration": 0.2555969041666799
        },
        {
          "name": "C#4",
          "midi": 61,
          "time": 166.34321150000474,
          "velocity": 0.7244094488188977,
          "duration": 0.21082080416667281
        },
        {
          "name": "G#5",
          "midi": 80,
          "time": 166.34321150000474,
          "velocity": 0.7952755905511811,
          "duration": 0.4402983166666843
        },
        {
          "name": "E2",
          "midi": 40,
          "time": 166.56709200000475,
          "velocity": 0.7480314960629921,
          "duration": 1.7145514958333194
        },
        {
          "name": "B2",
          "midi": 47,
          "time": 166.56709200000475,
          "velocity": 0.7480314960629921,
          "duration": 1.7145514958333194
        },
        {
          "name": "G#3",
          "midi": 56,
          "time": 166.56709200000475,
          "velocity": 0.7322834645669292,
          "duration": 0.5466415541666549
        },
        {
          "name": "B3",
          "midi": 59,
          "time": 166.79097250000476,
          "velocity": 0.7244094488188977,
          "duration": 0.20149244999998928
        },
        {
          "name": "F#5",
          "midi": 78,
          "time": 166.79097250000476,
          "velocity": 0.6220472440944882,
          "duration": 0.2145521458333235
        },
        {
          "name": "G#4",
          "midi": 68,
          "time": 167.01485300000473,
          "velocity": 0.7086614173228346,
          "duration": 0.2425372083333457
        },
        {
          "name": "B3",
          "midi": 59,
          "time": 167.23873350000474,
          "velocity": 0.7244094488188977,
          "duration": 0.20708946249999372
        },
        {
          "name": "G#3",
          "midi": 56,
          "time": 167.46261400000475,
          "velocity": 0.7165354330708661,
          "duration": 0.4048505708333323
        },
        {
          "name": "G#5",
          "midi": 80,
          "time": 167.46261400000475,
          "velocity": 0.7716535433070866,
          "duration": 0.19029842500000882
        },
        {
          "name": "B3",
          "midi": 59,
          "time": 167.68649450000476,
          "velocity": 0.7244094488188977,
          "duration": 0.1977611083333386
        },
        {
          "name": "G#5",
          "midi": 80,
          "time": 167.68649450000476,
          "velocity": 0.7322834645669292,
          "duration": 0.39738788750000253
        },
        {
          "name": "G#4",
          "midi": 68,
          "time": 167.91037500000476,
          "velocity": 0.6850393700787402,
          "duration": 0.19216409583333416
        },
        {
          "name": "B3",
          "midi": 59,
          "time": 168.13425550000474,
          "velocity": 0.7244094488188977,
          "duration": 0.1529850083333315
        },
        {
          "name": "A5",
          "midi": 81,
          "time": 168.13425550000474,
          "velocity": 0.7795275590551181,
          "duration": 0.44029831666651376
        },
        {
          "name": "F#1",
          "midi": 30,
          "time": 168.35813600000463,
          "velocity": 0.7401574803149606,
          "duration": 1.7835813166665844
        },
        {
          "name": "F#2",
          "midi": 42,
          "time": 168.35813600000463,
          "velocity": 0.7244094488188977,
          "duration": 1.7835813166665844
        },
        {
          "name": "A3",
          "midi": 57,
          "time": 168.35813600000463,
          "velocity": 0.7244094488188977,
          "duration": 0.6828355249999731
        },
        {
          "name": "C#4",
          "midi": 61,
          "time": 168.58201650000458,
          "velocity": 0.6850393700787402,
          "duration": 0.22388050000000703
        },
        {
          "name": "F#5",
          "midi": 78,
          "time": 168.58201650000458,
          "velocity": 0.7795275590551181,
          "duration": 2.410446716666314
        },
        {
          "name": "A4",
          "midi": 69,
          "time": 168.8058970000046,
          "velocity": 0.7165354330708661,
          "duration": 0.2350745250000159
        },
        {
          "name": "C#4",
          "midi": 61,
          "time": 169.0297775000046,
          "velocity": 0.6850393700787402,
          "duration": 0.21082080416667281
        },
        {
          "name": "A3",
          "midi": 57,
          "time": 169.2536580000046,
          "velocity": 0.7401574803149606,
          "duration": 0.4944027708333465
        },
        {
          "name": "C#4",
          "midi": 61,
          "time": 169.4775385000046,
          "velocity": 0.7165354330708661,
          "duration": 0.19216409583333416
        },
        {
          "name": "A4",
          "midi": 69,
          "time": 169.70141900000462,
          "velocity": 0.7165354330708661,
          "duration": 0.22761184166668613
        },
        {
          "name": "C#4",
          "midi": 61,
          "time": 169.92529950000463,
          "velocity": 0.7165354330708661,
          "duration": 0.20149244999998928
        },
        {
          "name": "D2",
          "midi": 38,
          "time": 170.14918000000452,
          "velocity": 0.7244094488188977,
          "duration": 1.7350738749997276
        },
        {
          "name": "D3",
          "midi": 50,
          "time": 170.14918000000452,
          "velocity": 0.7401574803149606,
          "duration": 1.7332082041664023
        },
        {
          "name": "A3",
          "midi": 57,
          "time": 170.14918000000452,
          "velocity": 0.7244094488188977,
          "duration": 0.5317161874997112
        },
        {
          "name": "D4",
          "midi": 62,
          "time": 170.37306050000421,
          "velocity": 0.7007874015748031,
          "duration": 0.1977611083333386
        },
        {
          "name": "A4",
          "midi": 69,
          "time": 170.59694100000422,
          "velocity": 0.7165354330708661,
          "duration": 0.2555969041666799
        },
        {
          "name": "D4",
          "midi": 62,
          "time": 170.82082150000423,
          "velocity": 0.6929133858267716,
          "duration": 0.19029842500000882
        },
        {
          "name": "A3",
          "midi": 57,
          "time": 171.04470200000424,
          "velocity": 0.7401574803149606,
          "duration": 0.5970146666666665
        },
        {
          "name": "F#5",
          "midi": 78,
          "time": 171.04470200000424,
          "velocity": 0.7874015748031497,
          "duration": 0.44029831666665586
        },
        {
          "name": "D4",
          "midi": 62,
          "time": 171.26858250000424,
          "velocity": 0.7086614173228346,
          "duration": 0.17537305833332084
        },
        {
          "name": "A4",
          "midi": 69,
          "time": 171.49246300000422,
          "velocity": 0.7322834645669292,
          "duration": 0.24067153750002035
        },
        {
          "name": "G#5",
          "midi": 80,
          "time": 171.49246300000422,
          "velocity": 0.7874015748031497,
          "duration": 0.4402983166667127
        },
        {
          "name": "D4",
          "midi": 62,
          "time": 171.71634350000423,
          "velocity": 0.7007874015748031,
          "duration": 0.1847014125000328
        },
        {
          "name": "A1",
          "midi": 33,
          "time": 171.94022400000426,
          "velocity": 0.7480314960629921,
          "duration": 1.705223141666778
        },
        {
          "name": "A2",
          "midi": 45,
          "time": 171.94022400000426,
          "velocity": 0.7480314960629921,
          "duration": 1.7145514958334331
        },
        {
          "name": "A3",
          "midi": 57,
          "time": 171.94022400000426,
          "velocity": 0.7480314960629921,
          "duration": 0.5708952750000265
        },
        {
          "name": "A5",
          "midi": 81,
          "time": 171.94022400000426,
          "velocity": 0.7874015748031497,
          "duration": 0.21641781666667725
        },
        {
          "name": "C#4",
          "midi": 61,
          "time": 172.16410450000427,
          "velocity": 0.7007874015748031,
          "duration": 0.2555969041666799
        },
        {
          "name": "E5",
          "midi": 76,
          "time": 172.16410450000427,
          "velocity": 0.7559055118110236,
          "duration": 0.41417892500001585
        },
        {
          "name": "A4",
          "midi": 69,
          "time": 172.38798500000428,
          "velocity": 0.7322834645669292,
          "duration": 0.24440287916667103
        },
        {
          "name": "C#4",
          "midi": 61,
          "time": 172.61186550000428,
          "velocity": 0.7322834645669292,
          "duration": 0.20895513333331905
        },
        {
          "name": "E5",
          "midi": 76,
          "time": 172.61186550000428,
          "velocity": 0.7244094488188977,
          "duration": 0.41417892499998743
        },
        {
          "name": "A3",
          "midi": 57,
          "time": 172.83574600000426,
          "velocity": 0.7165354330708661,
          "duration": 0.45522368333345753
        },
        {
          "name": "C#4",
          "midi": 61,
          "time": 173.05962650000427,
          "velocity": 0.7244094488188977,
          "duration": 0.22014915833344162
        },
        {
          "name": "G#5",
          "midi": 80,
          "time": 173.05962650000427,
          "velocity": 0.7874015748031497,
          "duration": 0.4141789250001011
        },
        {
          "name": "A4",
          "midi": 69,
          "time": 173.2835070000044,
          "velocity": 0.6850393700787402,
          "duration": 0.2555969041666515
        },
        {
          "name": "C#4",
          "midi": 61,
          "time": 173.50738750000437,
          "velocity": 0.7244094488188977,
          "duration": 0.21082080416667281
        },
        {
          "name": "G#5",
          "midi": 80,
          "time": 173.50738750000437,
          "velocity": 0.7874015748031497,
          "duration": 0.794775774999863
        },
        {
          "name": "E2",
          "midi": 40,
          "time": 173.73126800000438,
          "velocity": 0.7086614173228346,
          "duration": 1.714551495833149
        },
        {
          "name": "E3",
          "midi": 52,
          "time": 173.73126800000438,
          "velocity": 0.7086614173228346,
          "duration": 1.714551495833149
        },
        {
          "name": "B3",
          "midi": 59,
          "time": 173.73126800000438,
          "velocity": 0.7086614173228346,
          "duration": 0.5466415541665128
        },
        {
          "name": "E4",
          "midi": 64,
          "time": 173.95514850000438,
          "velocity": 0.7244094488188977,
          "duration": 0.201492449999904
        },
        {
          "name": "G#4",
          "midi": 68,
          "time": 174.17902900000422,
          "velocity": 0.7086614173228346,
          "duration": 0.2425372083333457
        },
        {
          "name": "E4",
          "midi": 64,
          "time": 174.40290950000423,
          "velocity": 0.7244094488188977,
          "duration": 0.20708946249999372
        },
        {
          "name": "B3",
          "midi": 59,
          "time": 174.62679000000423,
          "velocity": 0.7165354330708661,
          "duration": 0.4048505708333323
        },
        {
          "name": "E4",
          "midi": 64,
          "time": 174.85067050000424,
          "velocity": 0.7244094488188977,
          "duration": 0.1977611083333386
        },
        {
          "name": "A5",
          "midi": 81,
          "time": 174.85067050000424,
          "velocity": 0.7874015748031497,
          "duration": 0.6604474749999554
        },
        {
          "name": "G#4",
          "midi": 68,
          "time": 175.07455100000422,
          "velocity": 0.6850393700787402,
          "duration": 0.19216409583330574
        },
        {
          "name": "E4",
          "midi": 64,
          "time": 175.2984315000042,
          "velocity": 0.7244094488188977,
          "duration": 0.1529850083333315
        },
        {
          "name": "F#2",
          "midi": 42,
          "time": 175.5223120000042,
          "velocity": 0.7244094488188977,
          "duration": 1.7835813166667265
        },
        {
          "name": "C#3",
          "midi": 49,
          "time": 175.5223120000042,
          "velocity": 0.7401574803149606,
          "duration": 1.7835813166667265
        },
        {
          "name": "A3",
          "midi": 57,
          "time": 175.5223120000042,
          "velocity": 0.7244094488188977,
          "duration": 0.68283552500003
        },
        {
          "name": "F#5",
          "midi": 78,
          "time": 175.5223120000042,
          "velocity": 0.7874015748031497,
          "duration": 1.768655950000067
        },
        {
          "name": "C#4",
          "midi": 61,
          "time": 175.7461925000042,
          "velocity": 0.7086614173228346,
          "duration": 0.22388050000000703
        },
        {
          "name": "A4",
          "midi": 69,
          "time": 175.97007300000422,
          "velocity": 0.7165354330708661,
          "duration": 0.2350745250000159
        },
        {
          "name": "C#4",
          "midi": 61,
          "time": 176.19395350000423,
          "velocity": 0.6850393700787402,
          "duration": 0.21082080416667281
        },
        {
          "name": "A3",
          "midi": 57,
          "time": 176.41783400000423,
          "velocity": 0.7401574803149606,
          "duration": 0.4944027708333465
        },
        {
          "name": "C#4",
          "midi": 61,
          "time": 176.64171450000424,
          "velocity": 0.7165354330708661,
          "duration": 0.19216409583333416
        },
        {
          "name": "A4",
          "midi": 69,
          "time": 176.86559500000425,
          "velocity": 0.7165354330708661,
          "duration": 0.22761184166668613
        },
        {
          "name": "C#4",
          "midi": 61,
          "time": 177.08947550000426,
          "velocity": 0.7165354330708661,
          "duration": 0.2014924500000177
        },
        {
          "name": "D2",
          "midi": 38,
          "time": 177.31335600000426,
          "velocity": 0.7244094488188977,
          "duration": 1.6753724083333168
        },
        {
          "name": "D3",
          "midi": 50,
          "time": 177.31335600000426,
          "velocity": 0.7401574803149606,
          "duration": 1.733208204166658
        },
        {
          "name": "A3",
          "midi": 57,
          "time": 177.31335600000426,
          "velocity": 0.7244094488188977,
          "duration": 0.5317161874999954
        },
        {
          "name": "A5",
          "midi": 81,
          "time": 177.31335600000426,
          "velocity": 0.7874015748031497,
          "duration": 0.856342912499997
        },
        {
          "name": "D4",
          "midi": 62,
          "time": 177.53723650000424,
          "velocity": 0.7007874015748031,
          "duration": 0.1977611083333386
        },
        {
          "name": "A4",
          "midi": 69,
          "time": 177.76111700000425,
          "velocity": 0.7165354330708661,
          "duration": 0.2555969041666799
        },
        {
          "name": "D4",
          "midi": 62,
          "time": 177.98499750000425,
          "velocity": 0.6929133858267716,
          "duration": 0.19029842500000882
        },
        {
          "name": "A3",
          "midi": 57,
          "time": 178.20887800000426,
          "velocity": 0.7401574803149606,
          "duration": 0.597014666666638
        },
        {
          "name": "C#6",
          "midi": 85,
          "time": 178.20887800000426,
          "velocity": 0.7874015748031497,
          "duration": 0.4104475833332799
        },
        {
          "name": "D4",
          "midi": 62,
          "time": 178.43275850000424,
          "velocity": 0.7086614173228346,
          "duration": 0.17537305833329242
        },
        {
          "name": "A4",
          "midi": 69,
          "time": 178.65663900000422,
          "velocity": 0.7322834645669292,
          "duration": 0.24067153750002035
        },
        {
          "name": "C#6",
          "midi": 85,
          "time": 178.65663900000422,
          "velocity": 0.7874015748031497,
          "duration": 0.4141789250000443
        },
        {
          "name": "D4",
          "midi": 62,
          "time": 178.88051950000423,
          "velocity": 0.7007874015748031,
          "duration": 0.1847014125000328
        },
        {
          "name": "A2",
          "midi": 45,
          "time": 179.10440000000426,
          "velocity": 0.7480314960629921,
          "duration": 1.7145514958331773
        },
        {
          "name": "E3",
          "midi": 52,
          "time": 179.10440000000426,
          "velocity": 0.7480314960629921,
          "duration": 1.7052231416665222
        },
        {
          "name": "A3",
          "midi": 57,
          "time": 179.10440000000426,
          "velocity": 0.7480314960629921,
          "duration": 0.5708952750000833
        },
        {
          "name": "C#6",
          "midi": 85,
          "time": 179.10440000000426,
          "velocity": 0.7874015748031497,
          "duration": 0.27798495416666924
        },
        {
          "name": "C#4",
          "midi": 61,
          "time": 179.32828050000427,
          "velocity": 0.7007874015748031,
          "duration": 0.2555969041666799
        },
        {
          "name": "C#6",
          "midi": 85,
          "time": 179.41223568750428,
          "velocity": 0.7874015748031497,
          "duration": 0.3563431291664756
        },
        {
          "name": "A4",
          "midi": 69,
          "time": 179.55216100000428,
          "velocity": 0.7322834645669292,
          "duration": 0.24440287916647208
        },
        {
          "name": "C#4",
          "midi": 61,
          "time": 179.77604150000408,
          "velocity": 0.7322834645669292,
          "duration": 0.20895513333331905
        },
        {
          "name": "A3",
          "midi": 57,
          "time": 179.99992200000406,
          "velocity": 0.7165354330708661,
          "duration": 0.45522368333337226
        },
        {
          "name": "C#4",
          "midi": 61,
          "time": 180.22380250000404,
          "velocity": 0.7244094488188977,
          "duration": 0.2201491583334132
        },
        {
          "name": "E6",
          "midi": 88,
          "time": 180.22380250000404,
          "velocity": 0.7874015748031497,
          "duration": 0.31716404166672874
        },
        {
          "name": "A4",
          "midi": 69,
          "time": 180.4476830000041,
          "velocity": 0.6850393700787402,
          "duration": 0.2555969041666799
        },
        {
          "name": "C#4",
          "midi": 61,
          "time": 180.6715635000041,
          "velocity": 0.7244094488188977,
          "duration": 0.21082080416667281
        },
        {
          "name": "C#6",
          "midi": 85,
          "time": 180.6715635000041,
          "velocity": 0.7874015748031497,
          "duration": 0.6641788166666345
        },
        {
          "name": "E2",
          "midi": 40,
          "time": 180.89544400000412,
          "velocity": 0.7480314960629921,
          "duration": 1.714551495833291
        },
        {
          "name": "E3",
          "midi": 52,
          "time": 180.89544400000412,
          "velocity": 0.7480314960629921,
          "duration": 1.714551495833291
        },
        {
          "name": "B3",
          "midi": 59,
          "time": 180.89544400000412,
          "velocity": 0.7322834645669292,
          "duration": 0.5466415541666265
        },
        {
          "name": "E4",
          "midi": 64,
          "time": 181.11932450000413,
          "velocity": 0.7244094488188977,
          "duration": 0.2014924500000177
        },
        {
          "name": "G#4",
          "midi": 68,
          "time": 181.34320500000408,
          "velocity": 0.7086614173228346,
          "duration": 0.24253720833331727
        },
        {
          "name": "E4",
          "midi": 64,
          "time": 181.56708550000405,
          "velocity": 0.7244094488188977,
          "duration": 0.20708946249999372
        },
        {
          "name": "B3",
          "midi": 59,
          "time": 181.79096600000406,
          "velocity": 0.7165354330708661,
          "duration": 0.4048505708333323
        },
        {
          "name": "D6",
          "midi": 86,
          "time": 181.79096600000406,
          "velocity": 0.7874015748031497,
          "duration": 0.21641781666667725
        },
        {
          "name": "E4",
          "midi": 64,
          "time": 182.01484650000407,
          "velocity": 0.7244094488188977,
          "duration": 0.1977611083333386
        },
        {
          "name": "C#6",
          "midi": 85,
          "time": 182.01484650000407,
          "velocity": 0.6929133858267716,
          "duration": 0.21641781666667725
        },
        {
          "name": "G#4",
          "midi": 68,
          "time": 182.23872700000408,
          "velocity": 0.6850393700787402,
          "duration": 0.19216409583333416
        },
        {
          "name": "B5",
          "midi": 83,
          "time": 182.23872700000408,
          "velocity": 0.7559055118110236,
          "duration": 0.21641781666667725
        },
        {
          "name": "E4",
          "midi": 64,
          "time": 182.46260750000408,
          "velocity": 0.7244094488188977,
          "duration": 0.1529850083333315
        },
        {
          "name": "A5",
          "midi": 81,
          "time": 182.46260750000408,
          "velocity": 0.6850393700787402,
          "duration": 0.18470141250000438
        },
        {
          "name": "F#2",
          "midi": 42,
          "time": 182.6864880000041,
          "velocity": 0.7244094488188977,
          "duration": 1.7835813166664138
        },
        {
          "name": "C#3",
          "midi": 49,
          "time": 182.6864880000041,
          "velocity": 0.7401574803149606,
          "duration": 1.7835813166664138
        },
        {
          "name": "A3",
          "midi": 57,
          "time": 182.6864880000041,
          "velocity": 0.7244094488188977,
          "duration": 0.6828355249999731
        },
        {
          "name": "C#6",
          "midi": 85,
          "time": 182.6864880000041,
          "velocity": 0.7874015748031497,
          "duration": 0.31529837083331813
        },
        {
          "name": "C#4",
          "midi": 61,
          "time": 182.91036850000407,
          "velocity": 0.6850393700787402,
          "duration": 0.22388050000006388
        },
        {
          "name": "C#6",
          "midi": 85,
          "time": 183.04469680000406,
          "velocity": 0.7874015748031497,
          "duration": 0.7238802833333295
        },
        {
          "name": "A4",
          "midi": 69,
          "time": 183.13424900000413,
          "velocity": 0.7165354330708661,
          "duration": 0.23507452499993065
        },
        {
          "name": "C#4",
          "midi": 61,
          "time": 183.35812950000405,
          "velocity": 0.6850393700787402,
          "duration": 0.21082080416667281
        },
        {
          "name": "A3",
          "midi": 57,
          "time": 183.58201000000406,
          "velocity": 0.7401574803149606,
          "duration": 0.4944027708333181
        },
        {
          "name": "C#4",
          "midi": 61,
          "time": 183.80589050000407,
          "velocity": 0.7165354330708661,
          "duration": 0.19216409583330574
        },
        {
          "name": "C#6",
          "midi": 85,
          "time": 183.80589050000407,
          "velocity": 0.7480314960629921,
          "duration": 0.4179102666666381
        },
        {
          "name": "A4",
          "midi": 69,
          "time": 184.02977100000405,
          "velocity": 0.7165354330708661,
          "duration": 0.2276118416666577
        },
        {
          "name": "C#4",
          "midi": 61,
          "time": 184.25365150000403,
          "velocity": 0.7165354330708661,
          "duration": 0.20149244999981875
        },
        {
          "name": "A5",
          "midi": 81,
          "time": 184.25365150000403,
          "velocity": 0.7322834645669292,
          "duration": 0.2164178166664783
        },
        {
          "name": "D2",
          "midi": 38,
          "time": 184.47753200000383,
          "velocity": 0.7244094488188977,
          "duration": 1.6753724083333736
        },
        {
          "name": "D3",
          "midi": 50,
          "time": 184.47753200000383,
          "velocity": 0.7401574803149606,
          "duration": 1.733208204166715
        },
        {
          "name": "A3",
          "midi": 57,
          "time": 184.47753200000383,
          "velocity": 0.7244094488188977,
          "duration": 0.5317161874999954
        },
        {
          "name": "F#5",
          "midi": 78,
          "time": 184.47753200000383,
          "velocity": 0.6929133858267716,
          "duration": 0.8544772416666717
        },
        {
          "name": "D4",
          "midi": 62,
          "time": 184.7014125000038,
          "velocity": 0.7007874015748031,
          "duration": 0.1977611083333386
        },
        {
          "name": "A4",
          "midi": 69,
          "time": 184.92529300000382,
          "velocity": 0.7165354330708661,
          "duration": 0.2555969041666799
        },
        {
          "name": "D4",
          "midi": 62,
          "time": 185.14917350000383,
          "velocity": 0.6929133858267716,
          "duration": 0.19029842500000882
        },
        {
          "name": "A3",
          "midi": 57,
          "time": 185.37305400000383,
          "velocity": 0.7401574803149606,
          "duration": 0.5970146666666665
        },
        {
          "name": "A5",
          "midi": 81,
          "time": 185.37305400000383,
          "velocity": 0.7795275590551181,
          "duration": 0.19216409583333416
        },
        {
          "name": "D4",
          "midi": 62,
          "time": 185.59693450000384,
          "velocity": 0.7086614173228346,
          "duration": 0.17537305833332084
        },
        {
          "name": "A5",
          "midi": 81,
          "time": 185.59693450000384,
          "velocity": 0.7874015748031497,
          "duration": 0.41791026666666653
        },
        {
          "name": "A4",
          "midi": 69,
          "time": 185.82081500000382,
          "velocity": 0.7322834645669292,
          "duration": 0.24067153750004877
        },
        {
          "name": "D4",
          "midi": 62,
          "time": 186.04469550000385,
          "velocity": 0.7007874015748031,
          "duration": 0.1847014125000328
        },
        {
          "name": "A5",
          "midi": 81,
          "time": 186.04469550000385,
          "velocity": 0.7795275590551181,
          "duration": 0.1884327541667119
        },
        {
          "name": "A1",
          "midi": 33,
          "time": 186.26857600000392,
          "velocity": 0.7165354330708661,
          "duration": 1.7052231416666643
        },
        {
          "name": "A2",
          "midi": 45,
          "time": 186.26857600000392,
          "velocity": 0.7165354330708661,
          "duration": 1.7145514958333194
        },
        {
          "name": "A3",
          "midi": 57,
          "time": 186.26857600000392,
          "velocity": 0.7165354330708661,
          "duration": 0.5708952750000265
        },
        {
          "name": "A5",
          "midi": 81,
          "time": 186.26857600000392,
          "velocity": 0.8031496062992126,
          "duration": 0.6641788166666913
        },
        {
          "name": "C#4",
          "midi": 61,
          "time": 186.49245650000393,
          "velocity": 0.7007874015748031,
          "duration": 0.2555969041666799
        },
        {
          "name": "A4",
          "midi": 69,
          "time": 186.71633700000393,
          "velocity": 0.7244094488188977,
          "duration": 0.24440287916667103
        },
        {
          "name": "C#4",
          "midi": 61,
          "time": 186.94021750000394,
          "velocity": 0.7244094488188977,
          "duration": 0.20895513333331905
        },
        {
          "name": "E5",
          "midi": 76,
          "time": 186.94021750000394,
          "velocity": 0.6771653543307087,
          "duration": 0.18097007083332528
        },
        {
          "name": "A3",
          "midi": 57,
          "time": 187.16409800000392,
          "velocity": 0.7086614173228346,
          "duration": 0.45522368333334384
        },
        {
          "name": "E5",
          "midi": 76,
          "time": 187.16409800000392,
          "velocity": 0.7637795275590551,
          "duration": 0.6361937541666691
        },
        {
          "name": "C#4",
          "midi": 61,
          "time": 187.38797850000392,
          "velocity": 0.7165354330708661,
          "duration": 0.22014915833332793
        },
        {
          "name": "A4",
          "midi": 69,
          "time": 187.61185900000393,
          "velocity": 0.6771653543307087,
          "duration": 0.2555969041666515
        },
        {
          "name": "C#4",
          "midi": 61,
          "time": 187.8357395000039,
          "velocity": 0.7165354330708661,
          "duration": 0.2108208041666444
        },
        {
          "name": "E5",
          "midi": 76,
          "time": 187.8357395000039,
          "velocity": 0.6929133858267716,
          "duration": 0.20149244999998928
        },
        {
          "name": "E2",
          "midi": 40,
          "time": 188.0596200000039,
          "velocity": 0.7401574803149606,
          "duration": 1.71455149583295
        },
        {
          "name": "B2",
          "midi": 47,
          "time": 188.0596200000039,
          "velocity": 0.7401574803149606,
          "duration": 1.71455149583295
        },
        {
          "name": "G#3",
          "midi": 56,
          "time": 188.0596200000039,
          "velocity": 0.7244094488188977,
          "duration": 0.5466415541666549
        },
        {
          "name": "F#5",
          "midi": 78,
          "time": 188.0596200000039,
          "velocity": 0.7637795275590551,
          "duration": 0.21641781666667725
        },
        {
          "name": "B3",
          "midi": 59,
          "time": 188.2835005000039,
          "velocity": 0.7165354330708661,
          "duration": 0.20149244999998928
        },
        {
          "name": "E5",
          "midi": 76,
          "time": 188.2835005000039,
          "velocity": 0.7401574803149606,
          "duration": 0.4123132541666621
        },
        {
          "name": "G#4",
          "midi": 68,
          "time": 188.50738100000387,
          "velocity": 0.7007874015748031,
          "duration": 0.2425372083333457
        },
        {
          "name": "B3",
          "midi": 59,
          "time": 188.73126150000388,
          "velocity": 0.7165354330708661,
          "duration": 0.20708946250002214
        },
        {
          "name": "E5",
          "midi": 76,
          "time": 188.73126150000388,
          "velocity": 0.6850393700787402,
          "duration": 0.18283574166667904
        },
        {
          "name": "G#3",
          "midi": 56,
          "time": 188.95514200000392,
          "velocity": 0.7086614173228346,
          "duration": 0.40485057083310494
        },
        {
          "name": "B4",
          "midi": 71,
          "time": 188.95514200000392,
          "velocity": 0.7874015748031497,
          "duration": 0.6361937541664417
        },
        {
          "name": "B3",
          "midi": 59,
          "time": 189.1790225000037,
          "velocity": 0.7165354330708661,
          "duration": 0.1977611083333386
        },
        {
          "name": "G#4",
          "midi": 68,
          "time": 189.4029030000037,
          "velocity": 0.6771653543307087,
          "duration": 0.19216409583333416
        },
        {
          "name": "B3",
          "midi": 59,
          "time": 189.62678350000368,
          "velocity": 0.7165354330708661,
          "duration": 0.15298500833316098
        },
        {
          "name": "B4",
          "midi": 71,
          "time": 189.62678350000368,
          "velocity": 0.7401574803149606,
          "duration": 0.41231325416649156
        },
        {
          "name": "F#2",
          "midi": 42,
          "time": 189.85066400000352,
          "velocity": 0.7165354330708661,
          "duration": 1.783581316666698
        },
        {
          "name": "C#3",
          "midi": 49,
          "time": 189.85066400000352,
          "velocity": 0.7322834645669292,
          "duration": 1.783581316666698
        },
        {
          "name": "A3",
          "midi": 57,
          "time": 189.85066400000352,
          "velocity": 0.7165354330708661,
          "duration": 0.6828355250000016
        },
        {
          "name": "C#4",
          "midi": 61,
          "time": 190.0745445000035,
          "velocity": 0.7007874015748031,
          "duration": 0.22388050000000703
        },
        {
          "name": "A4",
          "midi": 69,
          "time": 190.0745445000035,
          "velocity": 0.7244094488188977,
          "duration": 1.5298500833334003
        },
        {
          "name": "F#4",
          "midi": 66,
          "time": 190.2984250000035,
          "velocity": 0.7086614173228346,
          "duration": 0.2350745250000159
        },
        {
          "name": "C#4",
          "midi": 61,
          "time": 190.5223055000035,
          "velocity": 0.6771653543307087,
          "duration": 0.21082080416667281
        },
        {
          "name": "A3",
          "midi": 57,
          "time": 190.74618600000352,
          "velocity": 0.7322834645669292,
          "duration": 0.4944027708333465
        },
        {
          "name": "C#4",
          "midi": 61,
          "time": 190.97006650000353,
          "velocity": 0.7086614173228346,
          "duration": 0.19216409583333416
        },
        {
          "name": "F#4",
          "midi": 66,
          "time": 191.19394700000353,
          "velocity": 0.7086614173228346,
          "duration": 0.22761184166668613
        },
        {
          "name": "C#4",
          "midi": 61,
          "time": 191.41782750000354,
          "velocity": 0.7086614173228346,
          "duration": 0.2014924500000177
        },
        {
          "name": "D2",
          "midi": 38,
          "time": 191.64170800000355,
          "velocity": 0.7165354330708661,
          "duration": 1.6753724083330894
        },
        {
          "name": "D3",
          "midi": 50,
          "time": 191.64170800000355,
          "velocity": 0.7322834645669292,
          "duration": 1.7332082041664307
        },
        {
          "name": "A3",
          "midi": 57,
          "time": 191.64170800000355,
          "velocity": 0.7165354330708661,
          "duration": 0.5317161874997396
        },
        {
          "name": "C#5",
          "midi": 73,
          "time": 191.64170800000355,
          "velocity": 0.6850393700787402,
          "duration": 0.8880593166664141
        },
        {
          "name": "D4",
          "midi": 62,
          "time": 191.86558850000353,
          "velocity": 0.6929133858267716,
          "duration": 0.1977611083330828
        },
        {
          "name": "F#4",
          "midi": 66,
          "time": 192.08946900000328,
          "velocity": 0.7086614173228346,
          "duration": 0.2555969041666799
        },
        {
          "name": "D4",
          "midi": 62,
          "time": 192.31334950000328,
          "velocity": 0.6850393700787402,
          "duration": 0.19029842500000882
        },
        {
          "name": "A3",
          "midi": 57,
          "time": 192.5372300000033,
          "velocity": 0.7322834645669292,
          "duration": 0.5970146666666665
        },
        {
          "name": "D4",
          "midi": 62,
          "time": 192.7611105000033,
          "velocity": 0.7007874015748031,
          "duration": 0.17537305833332084
        },
        {
          "name": "F#4",
          "midi": 66,
          "time": 192.98499100000328,
          "velocity": 0.7244094488188977,
          "duration": 0.24067153750002035
        },
        {
          "name": "D4",
          "midi": 62,
          "time": 193.20887150000328,
          "velocity": 0.6929133858267716,
          "duration": 0.1847014125000328
        },
        {
          "name": "B1",
          "midi": 35,
          "time": 193.43275200000332,
          "velocity": 0.7244094488188977,
          "duration": 3.46828207916721
        },
        {
          "name": "B2",
          "midi": 47,
          "time": 193.43275200000332,
          "velocity": 0.7244094488188977,
          "duration": 3.46828207916721
        },
        {
          "name": "G#3",
          "midi": 56,
          "time": 193.43275200000332,
          "velocity": 0.7244094488188977,
          "duration": 0.5708952750000265
        },
        {
          "name": "A4",
          "midi": 69,
          "time": 193.43275200000332,
          "velocity": 0.7716535433070866,
          "duration": 0.2593282458333306
        },
        {
          "name": "E4",
          "midi": 64,
          "time": 193.43275200000332,
          "velocity": 0.7716535433070866,
          "duration": 0.2593282458333306
        },
        {
          "name": "E4",
          "midi": 64,
          "time": 193.43275200000332,
          "velocity": 0.007874015748031496,
          "duration": 0.5559699083333669
        },
        {
          "name": "B3",
          "midi": 59,
          "time": 193.65663250000333,
          "velocity": 0.6929133858267716,
          "duration": 0.2555969041666799
        },
        {
          "name": "A4",
          "midi": 69,
          "time": 193.73125933333665,
          "velocity": 0.7165354330708661,
          "duration": 0.2910446500000319
        },
        {
          "name": "E4",
          "midi": 64,
          "time": 193.73125933333665,
          "velocity": 0.7165354330708661,
          "duration": 0.39365654583335186
        },
        {
          "name": "E4",
          "midi": 64,
          "time": 193.88051300000333,
          "velocity": 0.7244094488188977,
          "duration": 0.4048505708333323
        },
        {
          "name": "E5",
          "midi": 76,
          "time": 194.02976666667,
          "velocity": 0.7165354330708661,
          "duration": 0.2555969041666515
        },
        {
          "name": "E4",
          "midi": 64,
          "time": 194.02976666667,
          "velocity": 0.7165354330708661,
          "duration": 0.7126862583338323
        },
        {
          "name": "B3",
          "midi": 59,
          "time": 194.10439350000334,
          "velocity": 0.7244094488188977,
          "duration": 0.20895513333331905
        },
        {
          "name": "G#3",
          "midi": 56,
          "time": 194.32827400000332,
          "velocity": 0.7086614173228346,
          "duration": 0.45522368333385543
        },
        {
          "name": "B4",
          "midi": 71,
          "time": 194.32827400000332,
          "velocity": 0.7637795275590551,
          "duration": 0.41417892500052744
        },
        {
          "name": "E4",
          "midi": 64,
          "time": 194.32827400000332,
          "velocity": 0.7637795275590551,
          "duration": 0.7033579041672056
        },
        {
          "name": "B3",
          "midi": 59,
          "time": 194.5521545000036,
          "velocity": 0.7165354330708661,
          "duration": 0.2201491583335553
        },
        {
          "name": "E4",
          "midi": 64,
          "time": 194.77603500000384,
          "velocity": 0.6771653543307087,
          "duration": 0.4067162416666861
        },
        {
          "name": "B4",
          "midi": 71,
          "time": 194.77603500000384,
          "velocity": 0.7322834645669292,
          "duration": 0.4402983166666843
        },
        {
          "name": "E4",
          "midi": 64,
          "time": 194.77603500000384,
          "velocity": 0.7322834645669292,
          "duration": 0.7070892458333446
        },
        {
          "name": "B3",
          "midi": 59,
          "time": 194.99991550000385,
          "velocity": 0.7165354330708661,
          "duration": 0.21082080416667281
        },
        {
          "name": "G#3",
          "midi": 56,
          "time": 195.22379600000386,
          "velocity": 0.7244094488188977,
          "duration": 0.5466415541666549
        },
        {
          "name": "A4",
          "midi": 69,
          "time": 195.22379600000386,
          "velocity": 0.7637795275590551,
          "duration": 0.2593282458333306
        },
        {
          "name": "E4",
          "midi": 64,
          "time": 195.22379600000386,
          "velocity": 0.7637795275590551,
          "duration": 0.5578355791666638
        },
        {
          "name": "B3",
          "midi": 59,
          "time": 195.44767650000387,
          "velocity": 0.7165354330708661,
          "duration": 0.20149244999998928
        },
        {
          "name": "A4",
          "midi": 69,
          "time": 195.5223033333372,
          "velocity": 0.7165354330708661,
          "duration": 0.29104465000000346
        },
        {
          "name": "E4",
          "midi": 64,
          "time": 195.5223033333372,
          "velocity": 0.7165354330708661,
          "duration": 0.3917908749999981
        },
        {
          "name": "E4",
          "midi": 64,
          "time": 195.67155700000384,
          "velocity": 0.7007874015748031,
          "duration": 0.4048505708333323
        },
        {
          "name": "E5",
          "midi": 76,
          "time": 195.82081066667052,
          "velocity": 0.7165354330708661,
          "duration": 0.2555969041666515
        },
        {
          "name": "E4",
          "midi": 64,
          "time": 195.82081066667052,
          "velocity": 0.7165354330708661,
          "duration": 0.9384324291666815
        },
        {
          "name": "B3",
          "midi": 59,
          "time": 195.89543750000385,
          "velocity": 0.7165354330708661,
          "duration": 0.20708946249999372
        },
        {
          "name": "G#3",
          "midi": 56,
          "time": 196.11931800000386,
          "velocity": 0.7086614173228346,
          "duration": 0.4048505708333323
        },
        {
          "name": "C#5",
          "midi": 73,
          "time": 196.11931800000386,
          "velocity": 0.7637795275590551,
          "duration": 0.5522385666666878
        },
        {
          "name": "E4",
          "midi": 64,
          "time": 196.11931800000386,
          "velocity": 0.7637795275590551,
          "duration": 0.8880593166666699
        },
        {
          "name": "B3",
          "midi": 59,
          "time": 196.34319850000387,
          "velocity": 0.7165354330708661,
          "duration": 0.1977611083333386
        },
        {
          "name": "E4",
          "midi": 64,
          "time": 196.56707900000387,
          "velocity": 0.6771653543307087,
          "duration": 0.44402965833333496
        },
        {
          "name": "C#5",
          "midi": 73,
          "time": 196.71633266667055,
          "velocity": 0.7007874015748031,
          "duration": 0.12126860416665863
        },
        {
          "name": "B3",
          "midi": 59,
          "time": 196.79095950000388,
          "velocity": 0.7165354330708661,
          "duration": 0.15298500833330309
        },
        {
          "name": "C#5",
          "midi": 73,
          "time": 196.8655863333372,
          "velocity": 0.6850393700787402,
          "duration": 0.1119402499999751
        },
        {
          "name": "C#2",
          "midi": 37,
          "time": 197.0148400000039,
          "velocity": 0.7244094488188977,
          "duration": 3.473879091666788
        },
        {
          "name": "C#3",
          "midi": 49,
          "time": 197.0148400000039,
          "velocity": 0.7244094488188977,
          "duration": 3.473879091666788
        },
        {
          "name": "A3",
          "midi": 57,
          "time": 197.0148400000039,
          "velocity": 0.7244094488188977,
          "duration": 0.6828355250000016
        },
        {
          "name": "C#5",
          "midi": 73,
          "time": 197.0148400000039,
          "velocity": 0.7716535433070866,
          "duration": 0.2593282458333306
        },
        {
          "name": "F#4",
          "midi": 66,
          "time": 197.0148400000039,
          "velocity": 0.7716535433070866,
          "duration": 0.2593282458333306
        },
        {
          "name": "F#4",
          "midi": 66,
          "time": 197.0148400000039,
          "velocity": 0.007874015748031496,
          "duration": 0.29477599166665414
        },
        {
          "name": "C#4",
          "midi": 61,
          "time": 197.2387205000039,
          "velocity": 0.7007874015748031,
          "duration": 0.22388050000000703
        },
        {
          "name": "C#5",
          "midi": 73,
          "time": 197.31334733333722,
          "velocity": 0.7559055118110236,
          "duration": 0.25746257500000524
        },
        {
          "name": "E4",
          "midi": 64,
          "time": 197.31334733333722,
          "velocity": 0.7559055118110236,
          "duration": 0.25746257500000524
        },
        {
          "name": "E4",
          "midi": 64,
          "time": 197.31334733333722,
          "velocity": 0.007874015748031496,
          "duration": 0.5541042375000131
        },
        {
          "name": "F#4",
          "midi": 66,
          "time": 197.4626010000039,
          "velocity": 0.6929133858267716,
          "duration": 0.2350745249999875
        },
        {
          "name": "C#5",
          "midi": 73,
          "time": 197.61185466667055,
          "velocity": 0.7480314960629921,
          "duration": 0.2555969041666799
        },
        {
          "name": "E4",
          "midi": 64,
          "time": 197.61185466667055,
          "velocity": 0.7480314960629921,
          "duration": 0.6847011958333553
        },
        {
          "name": "C#4",
          "midi": 61,
          "time": 197.68648150000388,
          "velocity": 0.7086614173228346,
          "duration": 0.21082080416670124
        },
        {
          "name": "A3",
          "midi": 57,
          "time": 197.91036200000391,
          "velocity": 0.7086614173228346,
          "duration": 0.4944027708333465
        },
        {
          "name": "C#5",
          "midi": 73,
          "time": 197.91036200000391,
          "velocity": 0.7795275590551181,
          "duration": 0.38619386249999366
        },
        {
          "name": "E4",
          "midi": 64,
          "time": 197.91036200000391,
          "velocity": 0.7795275590551181,
          "duration": 0.8880593166666984
        },
        {
          "name": "C#4",
          "midi": 61,
          "time": 198.13424250000392,
          "velocity": 0.7086614173228346,
          "duration": 0.19216409583333416
        },
        {
          "name": "F#4",
          "midi": 66,
          "time": 198.35812300000393,
          "velocity": 0.7086614173228346,
          "duration": 0.22761184166668613
        },
        {
          "name": "C#5",
          "midi": 73,
          "time": 198.35812300000393,
          "velocity": 0.7559055118110236,
          "duration": 0.4402983166666843
        },
        {
          "name": "E4",
          "midi": 64,
          "time": 198.35812300000393,
          "velocity": 0.7559055118110236,
          "duration": 0.4440296583333634
        },
        {
          "name": "C#4",
          "midi": 61,
          "time": 198.58200350000394,
          "velocity": 0.6771653543307087,
          "duration": 0.2014924500000177
        },
        {
          "name": "A3",
          "midi": 57,
          "time": 198.80588400000397,
          "velocity": 0.7086614173228346,
          "duration": 0.5317161875000238
        },
        {
          "name": "D5",
          "midi": 74,
          "time": 198.80588400000397,
          "velocity": 0.7716535433070866,
          "duration": 0.2593282458333306
        },
        {
          "name": "F#4",
          "midi": 66,
          "time": 198.80588400000397,
          "velocity": 0.7716535433070866,
          "duration": 0.2593282458333306
        },
        {
          "name": "F#4",
          "midi": 66,
          "time": 198.80588400000397,
          "velocity": 0.007874015748031496,
          "duration": 0.29477599166665414
        },
        {
          "name": "C#4",
          "midi": 61,
          "time": 199.02976450000398,
          "velocity": 0.7086614173228346,
          "duration": 0.1977611083333386
        },
        {
          "name": "C#5",
          "midi": 73,
          "time": 199.1043913333373,
          "velocity": 0.7559055118110236,
          "duration": 0.25746257500003367
        },
        {
          "name": "E4",
          "midi": 64,
          "time": 199.1043913333373,
          "velocity": 0.7559055118110236,
          "duration": 0.25746257500003367
        },
        {
          "name": "E4",
          "midi": 64,
          "time": 199.1043913333373,
          "velocity": 0.007874015748031496,
          "duration": 0.5541042375000416
        },
        {
          "name": "F#4",
          "midi": 66,
          "time": 199.25364500000398,
          "velocity": 0.7086614173228346,
          "duration": 0.2555969041666799
        },
        {
          "name": "C#5",
          "midi": 73,
          "time": 199.40289866667067,
          "velocity": 0.7480314960629921,
          "duration": 0.2555969041666799
        },
        {
          "name": "E4",
          "midi": 64,
          "time": 199.40289866667067,
          "velocity": 0.7480314960629921,
          "duration": 0.7388056499999891
        },
        {
          "name": "C#4",
          "midi": 61,
          "time": 199.477525500004,
          "velocity": 0.7086614173228346,
          "duration": 0.19029842500000882
        },
        {
          "name": "A3",
          "midi": 57,
          "time": 199.701406000004,
          "velocity": 0.7086614173228346,
          "duration": 0.5970146666666665
        },
        {
          "name": "C#5",
          "midi": 73,
          "time": 199.701406000004,
          "velocity": 0.7559055118110236,
          "duration": 0.44029831666665586
        },
        {
          "name": "E4",
          "midi": 64,
          "time": 199.701406000004,
          "velocity": 0.7559055118110236,
          "duration": 1.524253070833339
        },
        {
          "name": "C#4",
          "midi": 61,
          "time": 199.925286500004,
          "velocity": 0.7086614173228346,
          "duration": 0.17537305833332084
        },
        {
          "name": "F#4",
          "midi": 66,
          "time": 200.14916700000398,
          "velocity": 0.7007874015748031,
          "duration": 0.24067153750002035
        },
        {
          "name": "C#4",
          "midi": 61,
          "time": 200.373047500004,
          "velocity": 0.6771653543307087,
          "duration": 0.18470141250000438
        },
        {
          "name": "D2",
          "midi": 38,
          "time": 200.596928000004,
          "velocity": 0.7244094488188977,
          "duration": 3.4682820791668973
        },
        {
          "name": "D3",
          "midi": 50,
          "time": 200.596928000004,
          "velocity": 0.7244094488188977,
          "duration": 3.4682820791668973
        },
        {
          "name": "A3",
          "midi": 57,
          "time": 200.596928000004,
          "velocity": 0.7244094488188977,
          "duration": 0.570895274999998
        },
        {
          "name": "A4",
          "midi": 69,
          "time": 200.596928000004,
          "velocity": 0.7716535433070866,
          "duration": 0.6641788166666629
        },
        {
          "name": "E4",
          "midi": 64,
          "time": 200.596928000004,
          "velocity": 0.7716535433070866,
          "duration": 0.852611570833318
        },
        {
          "name": "D4",
          "midi": 62,
          "time": 200.820808500004,
          "velocity": 0.6929133858267716,
          "duration": 0.2555969041666515
        },
        {
          "name": "A4",
          "midi": 69,
          "time": 201.04468900000398,
          "velocity": 0.7244094488188977,
          "duration": 0.24440287916667103
        },
        {
          "name": "D4",
          "midi": 62,
          "time": 201.268569500004,
          "velocity": 0.7244094488188977,
          "duration": 0.20895513333331905
        },
        {
          "name": "E5",
          "midi": 76,
          "time": 201.268569500004,
          "velocity": 0.6692913385826772,
          "duration": 0.18097007083332528
        },
        {
          "name": "E4",
          "midi": 64,
          "time": 201.268569500004,
          "velocity": 0.7165354330708661,
          "duration": 0.6380594250001366
        },
        {
          "name": "A3",
          "midi": 57,
          "time": 201.49245000000397,
          "velocity": 0.7086614173228346,
          "duration": 0.4552236833335144
        },
        {
          "name": "B4",
          "midi": 71,
          "time": 201.49245000000397,
          "velocity": 0.7637795275590551,
          "duration": 0.41417892500015796
        },
        {
          "name": "E4",
          "midi": 64,
          "time": 201.49245000000397,
          "velocity": 0.7637795275590551,
          "duration": 1.3376859875002083
        },
        {
          "name": "D4",
          "midi": 62,
          "time": 201.71633050000395,
          "velocity": 0.7165354330708661,
          "duration": 0.22014915833352688
        },
        {
          "name": "A4",
          "midi": 69,
          "time": 201.94021100000415,
          "velocity": 0.6771653543307087,
          "duration": 0.2555969041666799
        },
        {
          "name": "A4",
          "midi": 69,
          "time": 201.94021100000415,
          "velocity": 0.7322834645669292,
          "duration": 0.8899249875000237
        },
        {
          "name": "E4",
          "midi": 64,
          "time": 201.94021100000415,
          "velocity": 0.7716535433070866,
          "duration": 1.5373127666667017
        },
        {
          "name": "D4",
          "midi": 62,
          "time": 202.16409150000416,
          "velocity": 0.7165354330708661,
          "duration": 0.21082080416667281
        },
        {
          "name": "A3",
          "midi": 57,
          "time": 202.38797200000417,
          "velocity": 0.7244094488188977,
          "duration": 0.5466415541666834
        },
        {
          "name": "D4",
          "midi": 62,
          "time": 202.61185250000418,
          "velocity": 0.7165354330708661,
          "duration": 0.20149244999998928
        },
        {
          "name": "A4",
          "midi": 69,
          "time": 202.83573300000418,
          "velocity": 0.7007874015748031,
          "duration": 0.2425372083333457
        },
        {
          "name": "D4",
          "midi": 62,
          "time": 203.0596135000042,
          "velocity": 0.7165354330708661,
          "duration": 0.20708946249999372
        },
        {
          "name": "A3",
          "midi": 57,
          "time": 203.2834940000042,
          "velocity": 0.7086614173228346,
          "duration": 0.4048505708333323
        },
        {
          "name": "C#5",
          "midi": 73,
          "time": 203.2834940000042,
          "velocity": 0.7559055118110236,
          "duration": 0.1940297666666595
        },
        {
          "name": "E4",
          "midi": 64,
          "time": 203.2834940000042,
          "velocity": 0.7559055118110236,
          "duration": 0.8600742541666762
        },
        {
          "name": "D4",
          "midi": 62,
          "time": 203.5073745000042,
          "velocity": 0.7165354330708661,
          "duration": 0.1977611083333386
        },
        {
          "name": "C#5",
          "midi": 73,
          "time": 203.5073745000042,
          "velocity": 0.7244094488188977,
          "duration": 0.6361937541666691
        },
        {
          "name": "E4",
          "midi": 64,
          "time": 203.5073745000042,
          "velocity": 0.7559055118110236,
          "duration": 0.6679101583333136
        },
        {
          "name": "A4",
          "midi": 69,
          "time": 203.7312550000042,
          "velocity": 0.6771653543307087,
          "duration": 0.19216409583333416
        },
        {
          "name": "D4",
          "midi": 62,
          "time": 203.95513550000422,
          "velocity": 0.7165354330708661,
          "duration": 0.1529850083333315
        },
        {
          "name": "B1",
          "midi": 35,
          "time": 204.1790160000042,
          "velocity": 0.7244094488188977,
          "duration": 1.7835813166668117
        },
        {
          "name": "B2",
          "midi": 47,
          "time": 204.1790160000042,
          "velocity": 0.7244094488188977,
          "duration": 1.7835813166668117
        },
        {
          "name": "B3",
          "midi": 59,
          "time": 204.1790160000042,
          "velocity": 0.7244094488188977,
          "duration": 0.68283552500003
        },
        {
          "name": "B4",
          "midi": 71,
          "time": 204.1790160000042,
          "velocity": 0.7716535433070866,
          "duration": 0.68283552500003
        },
        {
          "name": "D4",
          "midi": 62,
          "time": 204.1790160000042,
          "velocity": 0.7716535433070866,
          "duration": 0.44776100000001406
        },
        {
          "name": "D4",
          "midi": 62,
          "time": 204.1790160000042,
          "velocity": 0.007874015748031496,
          "duration": 0.8824623041667508
        },
        {
          "name": "D4",
          "midi": 62,
          "time": 204.4028965000042,
          "velocity": 0.7007874015748031,
          "duration": 1.0876860958334476
        },
        {
          "name": "B4",
          "midi": 71,
          "time": 204.6267770000042,
          "velocity": 0.6929133858267716,
          "duration": 1.1231338416667995
        },
        {
          "name": "D4",
          "midi": 62,
          "time": 204.85065750000422,
          "velocity": 0.7086614173228346,
          "duration": 1.0447756666667942
        },
        {
          "name": "B3",
          "midi": 59,
          "time": 205.07453800000428,
          "velocity": 0.7086614173228346,
          "duration": 0.4944027708333749
        },
        {
          "name": "D4",
          "midi": 62,
          "time": 205.29841850000432,
          "velocity": 0.7086614173228346,
          "duration": 0.6492534500000318
        },
        {
          "name": "B4",
          "midi": 71,
          "time": 205.52229900000432,
          "velocity": 0.7086614173228346,
          "duration": 0.4104475833333652
        },
        {
          "name": "D4",
          "midi": 62,
          "time": 205.74617950000433,
          "velocity": 0.6771653543307087,
          "duration": 0.6641788166666913
        },
        {
          "name": "C#2",
          "midi": 37,
          "time": 205.97006000000434,
          "velocity": 0.7244094488188977,
          "duration": 1.751864912500082
        },
        {
          "name": "C#3",
          "midi": 49,
          "time": 205.97006000000434,
          "velocity": 0.7244094488188977,
          "duration": 1.751864912500082
        },
        {
          "name": "C#4",
          "midi": 61,
          "time": 205.97006000000434,
          "velocity": 0.7086614173228346,
          "duration": 0.5317161875000238
        },
        {
          "name": "B4",
          "midi": 71,
          "time": 205.97006000000434,
          "velocity": 0.7165354330708661,
          "duration": 0.4402983166666843
        },
        {
          "name": "D4",
          "midi": 62,
          "time": 205.97006000000434,
          "velocity": 0.7165354330708661,
          "duration": 0.8917906583333775
        },
        {
          "name": "E4",
          "midi": 64,
          "time": 206.19394050000435,
          "velocity": 0.7086614173228346,
          "duration": 0.1977611083333386
        },
        {
          "name": "A4",
          "midi": 69,
          "time": 206.41782100000435,
          "velocity": 0.7086614173228346,
          "duration": 0.2555969041666799
        },
        {
          "name": "E4",
          "midi": 64,
          "time": 206.64170150000436,
          "velocity": 0.7086614173228346,
          "duration": 0.19029842500000882
        },
        {
          "name": "C#4",
          "midi": 61,
          "time": 206.8655820000044,
          "velocity": 0.7086614173228346,
          "duration": 0.5970146666666665
        },
        {
          "name": "C#5",
          "midi": 73,
          "time": 206.8655820000044,
          "velocity": 0.6771653543307087,
          "duration": 0.8880593166666984
        },
        {
          "name": "E4",
          "midi": 64,
          "time": 206.8655820000044,
          "velocity": 0.6771653543307087,
          "duration": 0.3992535583333279
        },
        {
          "name": "E4",
          "midi": 64,
          "time": 206.8655820000044,
          "velocity": 0.007874015748031496,
          "duration": 0.8264921791666779
        },
        {
          "name": "E4",
          "midi": 64,
          "time": 207.0894625000044,
          "velocity": 0.7086614173228346,
          "duration": 0.6324624125000184
        },
        {
          "name": "A4",
          "midi": 69,
          "time": 207.31334300000438,
          "velocity": 0.7007874015748031,
          "duration": 0.24067153750002035
        },
        {
          "name": "E4",
          "midi": 64,
          "time": 207.5372235000044,
          "velocity": 0.6771653543307087,
          "duration": 2.007461816666705
        },
        {
          "name": "D2",
          "midi": 38,
          "time": 207.76110400000442,
          "velocity": 0.7086614173228346,
          "duration": 3.524252204166743
        },
        {
          "name": "D3",
          "midi": 50,
          "time": 207.76110400000442,
          "velocity": 0.7086614173228346,
          "duration": 3.5317148875000726
        },
        {
          "name": "D4",
          "midi": 62,
          "time": 207.76110400000442,
          "velocity": 0.7086614173228346,
          "duration": 0.6044773500000247
        },
        {
          "name": "A4",
          "midi": 69,
          "time": 207.76110400000442,
          "velocity": 0.6220472440944882,
          "duration": 0.7817160791666993
        },
        {
          "name": "E4",
          "midi": 64,
          "time": 207.76110400000442,
          "velocity": 0.6220472440944882,
          "duration": 2.513058612500032
        },
        {
          "name": "F#4",
          "midi": 66,
          "time": 207.98498450000443,
          "velocity": 0.6377952755905512,
          "duration": 0.2873133083333528
        },
        {
          "name": "A4",
          "midi": 69,
          "time": 208.20886500000444,
          "velocity": 0.6456692913385826,
          "duration": 1.1548502458333303
        },
        {
          "name": "F#4",
          "midi": 66,
          "time": 208.43274550000444,
          "velocity": 0.6456692913385826,
          "duration": 0.22574617083333237
        },
        {
          "name": "D4",
          "midi": 62,
          "time": 208.65662600000445,
          "velocity": 0.6141732283464567,
          "duration": 0.6082086916666469
        },
        {
          "name": "F#4",
          "midi": 66,
          "time": 208.88050650000443,
          "velocity": 0.6141732283464567,
          "duration": 0.20895513333334748
        },
        {
          "name": "A4",
          "midi": 69,
          "time": 209.10438700000444,
          "velocity": 0.6141732283464567,
          "duration": 0.44029831666665586
        },
        {
          "name": "F#4",
          "midi": 66,
          "time": 209.32826750000444,
          "velocity": 0.6141732283464567,
          "duration": 0.20335812083331462
        },
        {
          "name": "E4",
          "midi": 64,
          "time": 209.55214800000442,
          "velocity": 0.6141732283464567,
          "duration": 0.8917906583333775
        },
        {
          "name": "G#4",
          "midi": 68,
          "time": 209.77602850000443,
          "velocity": 0.6141732283464567,
          "duration": 0.2686566000000141
        },
        {
          "name": "B4",
          "midi": 71,
          "time": 209.99990900000444,
          "velocity": 0.6141732283464567,
          "duration": 0.4402983166666843
        },
        {
          "name": "G#4",
          "midi": 68,
          "time": 210.22378950000444,
          "velocity": 0.5984251968503937,
          "duration": 0.27798495416669766
        },
        {
          "name": "E4",
          "midi": 64,
          "time": 210.44767000000448,
          "velocity": 0.5905511811023622,
          "duration": 0.8638055958333553
        },
        {
          "name": "G#4",
          "midi": 68,
          "time": 210.67155050000449,
          "velocity": 0.5826771653543307,
          "duration": 0.3097013583333421
        },
        {
          "name": "B4",
          "midi": 71,
          "time": 210.8954310000045,
          "velocity": 0.5669291338582677,
          "duration": 0.2686566000000141
        },
        {
          "name": "G#4",
          "midi": 68,
          "time": 211.1193115000045,
          "velocity": 0.5433070866141733,
          "duration": 0.21641781666667725
        },
        {
          "name": "A2",
          "midi": 45,
          "time": 211.3431920000045,
          "velocity": 0.6692913385826772,
          "duration": 1.48507398333345
        },
        {
          "name": "E3",
          "midi": 52,
          "time": 211.3431920000045,
          "velocity": 0.6692913385826772,
          "duration": 1.5074620333334394
        },
        {
          "name": "C#4",
          "midi": 61,
          "time": 211.3431920000045,
          "velocity": 0.6692913385826772,
          "duration": 1.5279844125001034
        },
        {
          "name": "E4",
          "midi": 64,
          "time": 211.3431920000045,
          "velocity": 0.6692913385826772,
          "duration": 1.5391784375001123
        },
        {
          "name": "A4",
          "midi": 69,
          "time": 211.3431920000045,
          "velocity": 0.6692913385826772,
          "duration": 1.4701486166667905
        },
        {
          "name": "A5",
          "midi": 81,
          "time": 211.5670725000045,
          "velocity": 0.7637795275590551,
          "duration": 0.18097007083332528
        },
        {
          "name": "A5",
          "midi": 81,
          "time": 211.7909530000045,
          "velocity": 0.7401574803149606,
          "duration": 0.18470141250000438
        },
        {
          "name": "A5",
          "midi": 81,
          "time": 212.0148335000045,
          "velocity": 0.7874015748031497,
          "duration": 0.41044758333333675
        },
        {
          "name": "G#5",
          "midi": 80,
          "time": 212.4625945000045,
          "velocity": 0.7795275590551181,
          "duration": 0.3973878875000878
        },
        {
          "name": "G#5",
          "midi": 80,
          "time": 212.9103555000046,
          "velocity": 0.7952755905511811,
          "duration": 0.6641788166666629
        },
        {
          "name": "G#2",
          "midi": 44,
          "time": 213.13423600000462,
          "velocity": 0.6377952755905512,
          "duration": 1.2462681166666698
        },
        {
          "name": "E3",
          "midi": 52,
          "time": 213.13423600000462,
          "velocity": 0.6377952755905512,
          "duration": 1.2686561666666876
        },
        {
          "name": "B3",
          "midi": 59,
          "time": 213.13423600000462,
          "velocity": 0.6377952755905512,
          "duration": 1.2369397625000147
        },
        {
          "name": "E4",
          "midi": 64,
          "time": 213.13423600000462,
          "velocity": 0.6377952755905512,
          "duration": 1.2518651291666743
        },
        {
          "name": "G#4",
          "midi": 68,
          "time": 213.13423600000462,
          "velocity": 0.6377952755905512,
          "duration": 1.2761188500000173
        },
        {
          "name": "G#5",
          "midi": 80,
          "time": 214.02975800000462,
          "velocity": 0.7716535433070866,
          "duration": 0.19029842500000882
        },
        {
          "name": "G#5",
          "midi": 80,
          "time": 214.25363850000463,
          "velocity": 0.7322834645669292,
          "duration": 0.39738788750000253
        },
        {
          "name": "A5",
          "midi": 81,
          "time": 214.7013995000046,
          "velocity": 0.7637795275590551,
          "duration": 0.4402983166666843
        },
        {
          "name": "F#2",
          "midi": 42,
          "time": 214.92528000000465,
          "velocity": 0.6535433070866141,
          "duration": 1.2649248249999516
        },
        {
          "name": "C#3",
          "midi": 49,
          "time": 214.92528000000465,
          "velocity": 0.6535433070866141,
          "duration": 1.1977606749999552
        },
        {
          "name": "A3",
          "midi": 57,
          "time": 214.92528000000465,
          "velocity": 0.6535433070866141,
          "duration": 1.3246262916666183
        },
        {
          "name": "C#4",
          "midi": 61,
          "time": 214.92528000000465,
          "velocity": 0.6535433070866141,
          "duration": 1.332088974999948
        },
        {
          "name": "F#4",
          "midi": 66,
          "time": 214.92528000000465,
          "velocity": 0.6535433070866141,
          "duration": 1.3134322666666094
        },
        {
          "name": "F#5",
          "midi": 78,
          "time": 215.14916050000463,
          "velocity": 0.7322834645669292,
          "duration": 2.367536287499547
        },
        {
          "name": "D2",
          "midi": 38,
          "time": 216.71632400000448,
          "velocity": 0.6220472440944882,
          "duration": 1.7462678999996797
        },
        {
          "name": "A2",
          "midi": 45,
          "time": 216.71632400000448,
          "velocity": 0.6220472440944882,
          "duration": 1.7649246083330183
        },
        {
          "name": "A3",
          "midi": 57,
          "time": 216.71632400000448,
          "velocity": 0.6220472440944882,
          "duration": 1.779849974999678
        },
        {
          "name": "D4",
          "midi": 62,
          "time": 216.71632400000448,
          "velocity": 0.6220472440944882,
          "duration": 1.779849974999678
        },
        {
          "name": "F#4",
          "midi": 66,
          "time": 216.71632400000448,
          "velocity": 0.6220472440944882,
          "duration": 1.787312658333036
        },
        {
          "name": "F#5",
          "midi": 78,
          "time": 217.61184600000416,
          "velocity": 0.7401574803149606,
          "duration": 0.44029831666665586
        },
        {
          "name": "G#5",
          "midi": 80,
          "time": 218.05960700000415,
          "velocity": 0.7401574803149606,
          "duration": 0.4402983166666843
        },
        {
          "name": "A2",
          "midi": 45,
          "time": 218.5073680000042,
          "velocity": 0.6220472440944882,
          "duration": 1.4850739833334217
        },
        {
          "name": "E3",
          "midi": 52,
          "time": 218.5073680000042,
          "velocity": 0.6220472440944882,
          "duration": 1.507462033333411
        },
        {
          "name": "C#4",
          "midi": 61,
          "time": 218.5073680000042,
          "velocity": 0.6220472440944882,
          "duration": 1.527984412500075
        },
        {
          "name": "E4",
          "midi": 64,
          "time": 218.5073680000042,
          "velocity": 0.6220472440944882,
          "duration": 1.5391784375000839
        },
        {
          "name": "A4",
          "midi": 69,
          "time": 218.5073680000042,
          "velocity": 0.6220472440944882,
          "duration": 1.470148616666762
        },
        {
          "name": "A5",
          "midi": 81,
          "time": 218.5073680000042,
          "velocity": 0.7795275590551181,
          "duration": 0.21641781666667725
        },
        {
          "name": "E5",
          "midi": 76,
          "time": 218.7312485000042,
          "velocity": 0.7165354330708661,
          "duration": 0.41417892499998743
        },
        {
          "name": "E5",
          "midi": 76,
          "time": 219.17900950000418,
          "velocity": 0.7244094488188977,
          "duration": 0.41417892499998743
        },
        {
          "name": "G#5",
          "midi": 80,
          "time": 219.62677050000417,
          "velocity": 0.7874015748031497,
          "duration": 0.4141789250001011
        },
        {
          "name": "G#5",
          "midi": 80,
          "time": 220.07453150000427,
          "velocity": 0.7874015748031497,
          "duration": 0.6604474750000122
        },
        {
          "name": "G#2",
          "midi": 44,
          "time": 220.29841200000428,
          "velocity": 0.6220472440944882,
          "duration": 1.2462681166666698
        },
        {
          "name": "E3",
          "midi": 52,
          "time": 220.29841200000428,
          "velocity": 0.6220472440944882,
          "duration": 1.2686561666666591
        },
        {
          "name": "B3",
          "midi": 59,
          "time": 220.29841200000428,
          "velocity": 0.6220472440944882,
          "duration": 1.2369397625000147
        },
        {
          "name": "E4",
          "midi": 64,
          "time": 220.29841200000428,
          "velocity": 0.6220472440944882,
          "duration": 1.2518651291666743
        },
        {
          "name": "G#4",
          "midi": 68,
          "time": 220.29841200000428,
          "velocity": 0.6220472440944882,
          "duration": 1.276118849999989
        },
        {
          "name": "A5",
          "midi": 81,
          "time": 221.41781450000428,
          "velocity": 0.7716535433070866,
          "duration": 0.44029831666665586
        },
        {
          "name": "F#5",
          "midi": 78,
          "time": 221.86557550000427,
          "velocity": 0.6850393700787402,
          "duration": 0.18283574166667904
        },
        {
          "name": "F#2",
          "midi": 42,
          "time": 222.08945600000428,
          "velocity": 0.6220472440944882,
          "duration": 1.26492482499998
        },
        {
          "name": "C#3",
          "midi": 49,
          "time": 222.08945600000428,
          "velocity": 0.6220472440944882,
          "duration": 1.1977606749999836
        },
        {
          "name": "A3",
          "midi": 57,
          "time": 222.08945600000428,
          "velocity": 0.6220472440944882,
          "duration": 1.3246262916666467
        },
        {
          "name": "C#4",
          "midi": 61,
          "time": 222.08945600000428,
          "velocity": 0.6220472440944882,
          "duration": 1.3320889749999765
        },
        {
          "name": "F#4",
          "midi": 66,
          "time": 222.08945600000428,
          "velocity": 0.6220472440944882,
          "duration": 1.3134322666666378
        },
        {
          "name": "F#5",
          "midi": 78,
          "time": 222.08945600000428,
          "velocity": 0.7637795275590551,
          "duration": 1.7686559499999817
        },
        {
          "name": "D2",
          "midi": 38,
          "time": 223.88050000000425,
          "velocity": 0.6220472440944882,
          "duration": 1.7462679000001344
        },
        {
          "name": "A2",
          "midi": 45,
          "time": 223.88050000000425,
          "velocity": 0.6220472440944882,
          "duration": 1.7649246083334447
        },
        {
          "name": "D4",
          "midi": 62,
          "time": 223.88050000000425,
          "velocity": 0.6220472440944882,
          "duration": 0.8358205333333331
        },
        {
          "name": "F#4",
          "midi": 66,
          "time": 223.88050000000425,
          "velocity": 0.6220472440944882,
          "duration": 1.787312658333434
        },
        {
          "name": "A4",
          "midi": 69,
          "time": 223.88050000000425,
          "velocity": 0.6220472440944882,
          "duration": 1.654850029166795
        },
        {
          "name": "A5",
          "midi": 81,
          "time": 223.88050000000425,
          "velocity": 0.7480314960629921,
          "duration": 0.856342912499997
        },
        {
          "name": "A3",
          "midi": 57,
          "time": 224.77602200000425,
          "velocity": 0.6850393700787402,
          "duration": 0.8526115708334601
        },
        {
          "name": "D4",
          "midi": 62,
          "time": 224.77602200000425,
          "velocity": 0.6850393700787402,
          "duration": 0.8526115708334601
        },
        {
          "name": "C#6",
          "midi": 85,
          "time": 224.77602200000425,
          "velocity": 0.7480314960629921,
          "duration": 0.41044758333345044
        },
        {
          "name": "C#6",
          "midi": 85,
          "time": 225.22378300000437,
          "velocity": 0.7480314960629921,
          "duration": 0.41417892499998743
        },
        {
          "name": "A2",
          "midi": 45,
          "time": 225.67154400000436,
          "velocity": 0.5984251968503937,
          "duration": 1.7835813166668117
        },
        {
          "name": "E3",
          "midi": 52,
          "time": 225.67154400000436,
          "velocity": 0.5984251968503937,
          "duration": 1.7835813166668117
        },
        {
          "name": "C#4",
          "midi": 61,
          "time": 225.67154400000436,
          "velocity": 0.5984251968503937,
          "duration": 0.3638058125000043
        },
        {
          "name": "A4",
          "midi": 69,
          "time": 225.67154400000436,
          "velocity": 0.5984251968503937,
          "duration": 0.41044758333333675
        },
        {
          "name": "C#6",
          "midi": 85,
          "time": 225.67154400000436,
          "velocity": 0.7401574803149606,
          "duration": 0.27798495416666924
        },
        {
          "name": "C#6",
          "midi": 85,
          "time": 225.97937968750438,
          "velocity": 0.7480314960629921,
          "duration": 0.35634312916667454
        },
        {
          "name": "A3",
          "midi": 57,
          "time": 226.11930500000437,
          "velocity": 0.5748031496062992,
          "duration": 0.37313416666668786
        },
        {
          "name": "E4",
          "midi": 64,
          "time": 226.11930500000437,
          "velocity": 0.5748031496062992,
          "duration": 0.4085819125000114
        },
        {
          "name": "C#4",
          "midi": 61,
          "time": 226.5670660000044,
          "velocity": 0.5984251968503937,
          "duration": 0.3638058124999759
        },
        {
          "name": "A4",
          "midi": 69,
          "time": 226.5670660000044,
          "velocity": 0.5984251968503937,
          "duration": 0.4104475833333652
        },
        {
          "name": "E6",
          "midi": 88,
          "time": 226.79094650000437,
          "velocity": 0.7874015748031497,
          "duration": 0.4402983166668264
        },
        {
          "name": "A3",
          "midi": 57,
          "time": 227.0148270000045,
          "velocity": 0.5826771653543307,
          "duration": 0.3731341666667163
        },
        {
          "name": "E4",
          "midi": 64,
          "time": 227.0148270000045,
          "velocity": 0.5826771653543307,
          "duration": 0.40858191250003983
        },
        {
          "name": "C#6",
          "midi": 85,
          "time": 227.23870750000452,
          "velocity": 0.7322834645669292,
          "duration": 0.1940297666666595
        },
        {
          "name": "E2",
          "midi": 40,
          "time": 227.4625880000045,
          "velocity": 0.5984251968503937,
          "duration": 1.6958947874999808
        },
        {
          "name": "B2",
          "midi": 47,
          "time": 227.4625880000045,
          "velocity": 0.5984251968503937,
          "duration": 1.7555962541666474
        },
        {
          "name": "B3",
          "midi": 59,
          "time": 227.4625880000045,
          "velocity": 0.5905511811023622,
          "duration": 0.36380581250014643
        },
        {
          "name": "G#4",
          "midi": 68,
          "time": 227.4625880000045,
          "velocity": 0.5905511811023622,
          "duration": 0.410447583333422
        },
        {
          "name": "C#6",
          "midi": 85,
          "time": 227.46631934167118,
          "velocity": 0.7559055118110236,
          "duration": 0.43656697499997676
        },
        {
          "name": "G#3",
          "midi": 56,
          "time": 227.9103490000045,
          "velocity": 0.5748031496062992,
          "duration": 0.37313416666665944
        },
        {
          "name": "E4",
          "midi": 64,
          "time": 227.9103490000045,
          "velocity": 0.5748031496062992,
          "duration": 0.408581912499983
        },
        {
          "name": "B3",
          "midi": 59,
          "time": 228.35811000000447,
          "velocity": 0.6141732283464567,
          "duration": 0.3638058125000043
        },
        {
          "name": "G#4",
          "midi": 68,
          "time": 228.35811000000447,
          "velocity": 0.6141732283464567,
          "duration": 0.41044758333333675
        },
        {
          "name": "D6",
          "midi": 86,
          "time": 228.35811000000447,
          "velocity": 0.7480314960629921,
          "duration": 0.21641781666667725
        },
        {
          "name": "C#6",
          "midi": 85,
          "time": 228.58199050000448,
          "velocity": 0.6929133858267716,
          "duration": 0.21641781666667725
        },
        {
          "name": "G#3",
          "midi": 56,
          "time": 228.8058710000045,
          "velocity": 0.5826771653543307,
          "duration": 0.37313416666665944
        },
        {
          "name": "E4",
          "midi": 64,
          "time": 228.8058710000045,
          "velocity": 0.5826771653543307,
          "duration": 0.408581912499983
        },
        {
          "name": "B5",
          "midi": 83,
          "time": 228.8058710000045,
          "velocity": 0.7559055118110236,
          "duration": 0.21641781666667725
        },
        {
          "name": "A5",
          "midi": 81,
          "time": 229.0297515000045,
          "velocity": 0.6850393700787402,
          "duration": 0.18470141249997596
        },
        {
          "name": "F#2",
          "midi": 42,
          "time": 229.25363200000447,
          "velocity": 0.5748031496062992,
          "duration": 1.7835813166663286
        },
        {
          "name": "C#3",
          "midi": 49,
          "time": 229.25363200000447,
          "velocity": 0.5748031496062992,
          "duration": 1.7835813166663286
        },
        {
          "name": "C#4",
          "midi": 61,
          "time": 229.25363200000447,
          "velocity": 0.5984251968503937,
          "duration": 0.36380581249991906
        },
        {
          "name": "A4",
          "midi": 69,
          "time": 229.25363200000447,
          "velocity": 0.5984251968503937,
          "duration": 0.4104475833332799
        },
        {
          "name": "C#6",
          "midi": 85,
          "time": 229.25363200000447,
          "velocity": 0.7874015748031497,
          "duration": 0.2873133083332675
        },
        {
          "name": "C#6",
          "midi": 85,
          "time": 229.5950497625044,
          "velocity": 0.7874015748031497,
          "duration": 0.7257459541666265
        },
        {
          "name": "A3",
          "midi": 57,
          "time": 229.70139300000443,
          "velocity": 0.5748031496062992,
          "duration": 0.3731341666666026
        },
        {
          "name": "F#4",
          "midi": 66,
          "time": 229.70139300000443,
          "velocity": 0.5748031496062992,
          "duration": 0.40858191249992615
        },
        {
          "name": "C#4",
          "midi": 61,
          "time": 230.14915400000436,
          "velocity": 0.5984251968503937,
          "duration": 0.3638058125000896
        },
        {
          "name": "A4",
          "midi": 69,
          "time": 230.14915400000436,
          "velocity": 0.5984251968503937,
          "duration": 0.41044758333330833
        },
        {
          "name": "C#6",
          "midi": 85,
          "time": 230.37303450000437,
          "velocity": 0.7874015748031497,
          "duration": 0.4179102666666381
        },
        {
          "name": "A3",
          "midi": 57,
          "time": 230.59691500000434,
          "velocity": 0.5826771653543307,
          "duration": 0.3731341666664605
        },
        {
          "name": "F#4",
          "midi": 66,
          "time": 230.59691500000434,
          "velocity": 0.5826771653543307,
          "duration": 0.40858191249978404
        },
        {
          "name": "A5",
          "midi": 81,
          "time": 230.82079550000432,
          "velocity": 0.7637795275590551,
          "duration": 0.2164178166664783
        },
        {
          "name": "D2",
          "midi": 38,
          "time": 231.04467600000413,
          "velocity": 0.5748031496062992,
          "duration": 1.6772380791666706
        },
        {
          "name": "A2",
          "midi": 45,
          "time": 231.04467600000413,
          "velocity": 0.5748031496062992,
          "duration": 1.7350738750000119
        },
        {
          "name": "D4",
          "midi": 62,
          "time": 231.04467600000413,
          "velocity": 0.5905511811023622,
          "duration": 0.3638058125000043
        },
        {
          "name": "A4",
          "midi": 69,
          "time": 231.04467600000413,
          "velocity": 0.5905511811023622,
          "duration": 0.41044758333333675
        },
        {
          "name": "F#5",
          "midi": 78,
          "time": 231.04467600000413,
          "velocity": 0.7086614173228346,
          "duration": 0.4384326458333305
        },
        {
          "name": "A3",
          "midi": 57,
          "time": 231.49243700000412,
          "velocity": 0.5905511811023622,
          "duration": 0.37313416666665944
        },
        {
          "name": "F#4",
          "midi": 66,
          "time": 231.49243700000412,
          "velocity": 0.5905511811023622,
          "duration": 0.408581912499983
        },
        {
          "name": "D4",
          "midi": 62,
          "time": 231.9401980000041,
          "velocity": 0.6771653543307087,
          "duration": 0.3638058125000043
        },
        {
          "name": "A4",
          "midi": 69,
          "time": 231.9401980000041,
          "velocity": 0.6771653543307087,
          "duration": 0.41044758333333675
        },
        {
          "name": "A5",
          "midi": 81,
          "time": 231.9401980000041,
          "velocity": 0.7874015748031497,
          "duration": 0.19216409583333416
        },
        {
          "name": "A5",
          "midi": 81,
          "time": 232.1640785000041,
          "velocity": 0.7716535433070866,
          "duration": 0.41791026666666653
        },
        {
          "name": "A3",
          "midi": 57,
          "time": 232.38795900000412,
          "velocity": 0.6535433070866141,
          "duration": 0.37313416666668786
        },
        {
          "name": "F#4",
          "midi": 66,
          "time": 232.38795900000412,
          "velocity": 0.6535433070866141,
          "duration": 0.40858191250003983
        },
        {
          "name": "A5",
          "midi": 81,
          "time": 232.61183950000412,
          "velocity": 0.7874015748031497,
          "duration": 0.1884327541667119
        },
        {
          "name": "A2",
          "midi": 45,
          "time": 232.83572000000416,
          "velocity": 0.5984251968503937,
          "duration": 1.6753724083333736
        },
        {
          "name": "E3",
          "midi": 52,
          "time": 232.83572000000416,
          "velocity": 0.5984251968503937,
          "duration": 1.6753724083333736
        },
        {
          "name": "C#4",
          "midi": 61,
          "time": 232.83572000000416,
          "velocity": 0.5984251968503937,
          "duration": 0.3638058125000043
        },
        {
          "name": "A4",
          "midi": 69,
          "time": 232.83572000000416,
          "velocity": 0.5984251968503937,
          "duration": 0.41044758333333675
        },
        {
          "name": "A5",
          "midi": 81,
          "time": 232.83572000000416,
          "velocity": 0.7165354330708661,
          "duration": 0.6511191208333571
        },
        {
          "name": "A3",
          "midi": 57,
          "time": 233.28348100000417,
          "velocity": 0.5748031496062992,
          "duration": 0.37313416666668786
        },
        {
          "name": "E4",
          "midi": 64,
          "time": 233.28348100000417,
          "velocity": 0.5748031496062992,
          "duration": 0.40858191250003983
        },
        {
          "name": "E5",
          "midi": 76,
          "time": 233.50736150000418,
          "velocity": 0.6535433070866141,
          "duration": 0.1809700708333537
        },
        {
          "name": "C#4",
          "midi": 61,
          "time": 233.73124200000422,
          "velocity": 0.5984251968503937,
          "duration": 0.3638058125000043
        },
        {
          "name": "A4",
          "midi": 69,
          "time": 233.73124200000422,
          "velocity": 0.5984251968503937,
          "duration": 0.41044758333333675
        },
        {
          "name": "E5",
          "midi": 76,
          "time": 233.73124200000422,
          "velocity": 0.7086614173228346,
          "duration": 0.6361937541666691
        },
        {
          "name": "A3",
          "midi": 57,
          "time": 234.17900300000423,
          "velocity": 0.5826771653543307,
          "duration": 0.373134166666631
        },
        {
          "name": "E4",
          "midi": 64,
          "time": 234.17900300000423,
          "velocity": 0.5826771653543307,
          "duration": 0.40858191249995457
        },
        {
          "name": "E5",
          "midi": 76,
          "time": 234.4028835000042,
          "velocity": 0.6929133858267716,
          "duration": 0.2145521458333235
        },
        {
          "name": "G#2",
          "midi": 44,
          "time": 234.6267640000042,
          "velocity": 0.5984251968503937,
          "duration": 1.6958947874996113
        },
        {
          "name": "E3",
          "midi": 52,
          "time": 234.6267640000042,
          "velocity": 0.5984251968503937,
          "duration": 1.755596254166278
        },
        {
          "name": "B3",
          "midi": 59,
          "time": 234.6267640000042,
          "velocity": 0.5905511811023622,
          "duration": 0.3638058125000043
        },
        {
          "name": "G#4",
          "midi": 68,
          "time": 234.6267640000042,
          "velocity": 0.5905511811023622,
          "duration": 0.41044758333333675
        },
        {
          "name": "F#5",
          "midi": 78,
          "time": 234.6267640000042,
          "velocity": 0.7637795275590551,
          "duration": 0.21641781666667725
        },
        {
          "name": "E5",
          "midi": 76,
          "time": 234.8506445000042,
          "velocity": 0.7086614173228346,
          "duration": 0.4123132541666621
        },
        {
          "name": "G#3",
          "midi": 56,
          "time": 235.0745250000042,
          "velocity": 0.5748031496062992,
          "duration": 0.37313416666665944
        },
        {
          "name": "E4",
          "midi": 64,
          "time": 235.0745250000042,
          "velocity": 0.5748031496062992,
          "duration": 0.408581912499983
        },
        {
          "name": "E5",
          "midi": 76,
          "time": 235.29840550000418,
          "velocity": 0.7086614173228346,
          "duration": 0.21268647499999815
        },
        {
          "name": "B3",
          "midi": 59,
          "time": 235.5222860000042,
          "velocity": 0.6141732283464567,
          "duration": 0.36380581249980537
        },
        {
          "name": "G#4",
          "midi": 68,
          "time": 235.5222860000042,
          "velocity": 0.6141732283464567,
          "duration": 0.4104475833331378
        },
        {
          "name": "F#5",
          "midi": 78,
          "time": 235.74430082917084,
          "velocity": 0.7874015748031497,
          "duration": 0.4141789249998169
        },
        {
          "name": "G#3",
          "midi": 56,
          "time": 235.970047000004,
          "velocity": 0.5826771653543307,
          "duration": 0.3731341666664605
        },
        {
          "name": "E4",
          "midi": 64,
          "time": 235.970047000004,
          "velocity": 0.5826771653543307,
          "duration": 0.40858191249978404
        },
        {
          "name": "F#5",
          "midi": 78,
          "time": 236.19392750000398,
          "velocity": 0.7874015748031497,
          "duration": 0.41231325416646314
        },
        {
          "name": "F#2",
          "midi": 42,
          "time": 236.4178080000038,
          "velocity": 0.5748031496062992,
          "duration": 1.7835813166661865
        },
        {
          "name": "C#3",
          "midi": 49,
          "time": 236.4178080000038,
          "velocity": 0.5748031496062992,
          "duration": 1.7835813166661865
        },
        {
          "name": "A3",
          "midi": 57,
          "time": 236.4178080000038,
          "velocity": 0.5984251968503937,
          "duration": 0.3638058124999759
        },
        {
          "name": "F#4",
          "midi": 66,
          "time": 236.4178080000038,
          "velocity": 0.5984251968503937,
          "duration": 0.41044758333333675
        },
        {
          "name": "F#5",
          "midi": 78,
          "time": 236.64168850000377,
          "velocity": 0.7874015748031497,
          "duration": 1.0746263999998291
        },
        {
          "name": "F#3",
          "midi": 54,
          "time": 236.86556900000377,
          "velocity": 0.6377952755905512,
          "duration": 0.3731341666664889
        },
        {
          "name": "C#4",
          "midi": 61,
          "time": 236.86556900000377,
          "velocity": 0.6377952755905512,
          "duration": 0.40858191249981246
        },
        {
          "name": "A3",
          "midi": 57,
          "time": 237.3133300000036,
          "velocity": 0.7401574803149606,
          "duration": 0.3638058125000043
        },
        {
          "name": "F#4",
          "midi": 66,
          "time": 237.3133300000036,
          "velocity": 0.7401574803149606,
          "duration": 0.41044758333333675
        },
        {
          "name": "F#3",
          "midi": 54,
          "time": 237.7610910000036,
          "velocity": 0.7559055118110236,
          "duration": 0.3731341666663752
        },
        {
          "name": "C#4",
          "midi": 61,
          "time": 237.7610910000036,
          "velocity": 0.7559055118110236,
          "duration": 0.4085819124996988
        },
        {
          "name": "D5",
          "midi": 74,
          "time": 237.7610910000036,
          "velocity": 0.7007874015748031,
          "duration": 1.330223304166367
        },
        {
          "name": "D2",
          "midi": 38,
          "time": 238.2088520000033,
          "velocity": 0.7086614173228346,
          "duration": 1.6772380791666706
        },
        {
          "name": "A2",
          "midi": 45,
          "time": 238.2088520000033,
          "velocity": 0.7086614173228346,
          "duration": 1.7350738750000119
        },
        {
          "name": "A3",
          "midi": 57,
          "time": 238.2088520000033,
          "velocity": 0.7086614173228346,
          "duration": 0.3638058125000043
        },
        {
          "name": "F#4",
          "midi": 66,
          "time": 238.2088520000033,
          "velocity": 0.7086614173228346,
          "duration": 0.41044758333333675
        },
        {
          "name": "F#3",
          "midi": 54,
          "time": 238.65661300000332,
          "velocity": 0.6299212598425197,
          "duration": 0.37313416666665944
        },
        {
          "name": "D4",
          "midi": 62,
          "time": 238.65661300000332,
          "velocity": 0.6299212598425197,
          "duration": 0.408581912499983
        },
        {
          "name": "A3",
          "midi": 57,
          "time": 239.1043740000033,
          "velocity": 0.5826771653543307,
          "duration": 0.3638058125000043
        },
        {
          "name": "F#4",
          "midi": 66,
          "time": 239.1043740000033,
          "velocity": 0.5826771653543307,
          "duration": 0.41044758333333675
        },
        {
          "name": "F#3",
          "midi": 54,
          "time": 239.55213500000332,
          "velocity": 0.5590551181102362,
          "duration": 0.37313416666665944
        },
        {
          "name": "D4",
          "midi": 62,
          "time": 239.55213500000332,
          "velocity": 0.5590551181102362,
          "duration": 0.4085819125000114
        },
        {
          "name": "A1",
          "midi": 33,
          "time": 239.99989600000333,
          "velocity": 0.7559055118110236,
          "duration": 1.7052231416667496
        },
        {
          "name": "A2",
          "midi": 45,
          "time": 239.99989600000333,
          "velocity": 0.7559055118110236,
          "duration": 1.7145514958334047
        },
        {
          "name": "A3",
          "midi": 57,
          "time": 239.99989600000333,
          "velocity": 0.7559055118110236,
          "duration": 0.570895274999998
        },
        {
          "name": "C#4",
          "midi": 61,
          "time": 240.22377650000334,
          "velocity": 0.7007874015748031,
          "duration": 0.2555969041666515
        },
        {
          "name": "A5",
          "midi": 81,
          "time": 240.22377650000334,
          "velocity": 0.7952755905511811,
          "duration": 0.18097007083332528
        },
        {
          "name": "A4",
          "midi": 69,
          "time": 240.44765700000332,
          "velocity": 0.7322834645669292,
          "duration": 0.24440287916667103
        },
        {
          "name": "A5",
          "midi": 81,
          "time": 240.44765700000332,
          "velocity": 0.7795275590551181,
          "duration": 0.18470141250000438
        },
        {
          "name": "C#4",
          "midi": 61,
          "time": 240.67153750000332,
          "velocity": 0.7322834645669292,
          "duration": 0.20895513333331905
        },
        {
          "name": "A5",
          "midi": 81,
          "time": 240.67153750000332,
          "velocity": 0.7874015748031497,
          "duration": 0.41044758333330833
        },
        {
          "name": "A3",
          "midi": 57,
          "time": 240.8954180000033,
          "velocity": 0.7165354330708661,
          "duration": 0.4552236833334291
        },
        {
          "name": "C#4",
          "midi": 61,
          "time": 241.1192985000033,
          "velocity": 0.7244094488188977,
          "duration": 0.22014915833344162
        },
        {
          "name": "G#5",
          "midi": 80,
          "time": 241.1192985000033,
          "velocity": 0.7795275590551181,
          "duration": 0.3973878875000878
        },
        {
          "name": "A4",
          "midi": 69,
          "time": 241.3431790000034,
          "velocity": 0.6850393700787402,
          "duration": 0.2555969041666799
        },
        {
          "name": "C#4",
          "midi": 61,
          "time": 241.5670595000034,
          "velocity": 0.7244094488188977,
          "duration": 0.21082080416667281
        },
        {
          "name": "G#5",
          "midi": 80,
          "time": 241.5670595000034,
          "velocity": 0.7952755905511811,
          "duration": 0.4402983166666843
        },
        {
          "name": "E2",
          "midi": 40,
          "time": 241.79094000000342,
          "velocity": 0.7480314960629921,
          "duration": 1.7145514958333194
        },
        {
          "name": "B2",
          "midi": 47,
          "time": 241.79094000000342,
          "velocity": 0.7480314960629921,
          "duration": 1.7145514958333194
        },
        {
          "name": "G#3",
          "midi": 56,
          "time": 241.79094000000342,
          "velocity": 0.7322834645669292,
          "duration": 0.5466415541666549
        },
        {
          "name": "B3",
          "midi": 59,
          "time": 242.01482050000342,
          "velocity": 0.7244094488188977,
          "duration": 0.20149244999998928
        },
        {
          "name": "F#5",
          "midi": 78,
          "time": 242.01482050000342,
          "velocity": 0.6456692913385826,
          "duration": 0.2145521458333235
        },
        {
          "name": "G#4",
          "midi": 68,
          "time": 242.2387010000034,
          "velocity": 0.7086614173228346,
          "duration": 0.2425372083333457
        },
        {
          "name": "B3",
          "midi": 59,
          "time": 242.4625815000034,
          "velocity": 0.7244094488188977,
          "duration": 0.20708946249999372
        },
        {
          "name": "G#3",
          "midi": 56,
          "time": 242.68646200000342,
          "velocity": 0.7165354330708661,
          "duration": 0.4048505708333323
        },
        {
          "name": "G#5",
          "midi": 80,
          "time": 242.68646200000342,
          "velocity": 0.7716535433070866,
          "duration": 0.19029842500000882
        },
        {
          "name": "B3",
          "midi": 59,
          "time": 242.91034250000342,
          "velocity": 0.7244094488188977,
          "duration": 0.1977611083333386
        },
        {
          "name": "G#5",
          "midi": 80,
          "time": 242.91034250000342,
          "velocity": 0.7322834645669292,
          "duration": 0.39738788750000253
        },
        {
          "name": "G#4",
          "midi": 68,
          "time": 243.13422300000343,
          "velocity": 0.6850393700787402,
          "duration": 0.19216409583333416
        },
        {
          "name": "B3",
          "midi": 59,
          "time": 243.3581035000034,
          "velocity": 0.7244094488188977,
          "duration": 0.1529850083333315
        },
        {
          "name": "A5",
          "midi": 81,
          "time": 243.3581035000034,
          "velocity": 0.7795275590551181,
          "duration": 0.44029831666651376
        },
        {
          "name": "F#1",
          "midi": 30,
          "time": 243.5819840000033,
          "velocity": 0.7401574803149606,
          "duration": 1.7835813166665844
        },
        {
          "name": "F#2",
          "midi": 42,
          "time": 243.5819840000033,
          "velocity": 0.7244094488188977,
          "duration": 1.2742531791666352
        },
        {
          "name": "A3",
          "midi": 57,
          "time": 243.5819840000033,
          "velocity": 0.7244094488188977,
          "duration": 0.6828355249999731
        },
        {
          "name": "C#4",
          "midi": 61,
          "time": 243.80586450000325,
          "velocity": 0.6850393700787402,
          "duration": 0.22388050000000703
        },
        {
          "name": "F#5",
          "midi": 78,
          "time": 243.80586450000325,
          "velocity": 0.7795275590551181,
          "duration": 2.4123123874996395
        },
        {
          "name": "A4",
          "midi": 69,
          "time": 244.02974500000326,
          "velocity": 0.7165354330708661,
          "duration": 0.2350745250000159
        },
        {
          "name": "C#4",
          "midi": 61,
          "time": 244.25362550000327,
          "velocity": 0.6850393700787402,
          "duration": 0.21082080416667281
        },
        {
          "name": "A3",
          "midi": 57,
          "time": 244.47750600000327,
          "velocity": 0.7401574803149606,
          "duration": 0.4944027708333465
        },
        {
          "name": "C#4",
          "midi": 61,
          "time": 244.70138650000328,
          "velocity": 0.7165354330708661,
          "duration": 0.19216409583333416
        },
        {
          "name": "F#2",
          "midi": 42,
          "time": 244.9252670000033,
          "velocity": 0.7244094488188977,
          "duration": 0.440298316666599
        },
        {
          "name": "A4",
          "midi": 69,
          "time": 244.9252670000033,
          "velocity": 0.7165354330708661,
          "duration": 0.22761184166668613
        },
        {
          "name": "C#4",
          "midi": 61,
          "time": 245.1491475000033,
          "velocity": 0.7165354330708661,
          "duration": 0.20149244999998928
        },
        {
          "name": "D2",
          "midi": 38,
          "time": 245.3730280000032,
          "velocity": 0.7244094488188977,
          "duration": 0.8880593166663857
        },
        {
          "name": "A2",
          "midi": 45,
          "time": 245.3730280000032,
          "velocity": 0.7401574803149606,
          "duration": 0.8358205333330488
        },
        {
          "name": "A3",
          "midi": 57,
          "time": 245.3730280000032,
          "velocity": 0.7244094488188977,
          "duration": 0.5317161874997112
        },
        {
          "name": "D4",
          "midi": 62,
          "time": 245.59690850000288,
          "velocity": 0.7007874015748031,
          "duration": 0.1977611083333386
        },
        {
          "name": "A4",
          "midi": 69,
          "time": 245.8207890000029,
          "velocity": 0.7165354330708661,
          "duration": 0.2555969041666799
        },
        {
          "name": "D4",
          "midi": 62,
          "time": 246.0446695000029,
          "velocity": 0.6929133858267716,
          "duration": 0.19029842500000882
        },
        {
          "name": "A2",
          "midi": 45,
          "time": 246.2685500000029,
          "velocity": 0.7244094488188977,
          "duration": 0.3880595333333474
        },
        {
          "name": "D3",
          "midi": 50,
          "time": 246.2685500000029,
          "velocity": 0.7401574803149606,
          "duration": 0.8376862041667152
        },
        {
          "name": "A3",
          "midi": 57,
          "time": 246.2685500000029,
          "velocity": 0.7401574803149606,
          "duration": 0.5970146666666949
        },
        {
          "name": "F#5",
          "midi": 78,
          "time": 246.2685500000029,
          "velocity": 0.7874015748031497,
          "duration": 0.4402983166666843
        },
        {
          "name": "D4",
          "midi": 62,
          "time": 246.4924305000029,
          "velocity": 0.7086614173228346,
          "duration": 0.17537305833334926
        },
        {
          "name": "A2",
          "midi": 45,
          "time": 246.71631100000292,
          "velocity": 0.6850393700787402,
          "duration": 0.3917908750000265
        },
        {
          "name": "A4",
          "midi": 69,
          "time": 246.71631100000292,
          "velocity": 0.7322834645669292,
          "duration": 0.24067153750002035
        },
        {
          "name": "G#5",
          "midi": 80,
          "time": 246.71631100000292,
          "velocity": 0.7874015748031497,
          "duration": 0.4402983166667127
        },
        {
          "name": "D4",
          "midi": 62,
          "time": 246.94019150000292,
          "velocity": 0.7007874015748031,
          "duration": 0.1847014125000328
        },
        {
          "name": "A1",
          "midi": 33,
          "time": 247.16407200000296,
          "velocity": 0.7480314960629921,
          "duration": 1.705223141666778
        },
        {
          "name": "A2",
          "midi": 45,
          "time": 247.16407200000296,
          "velocity": 0.7480314960629921,
          "duration": 1.7182828375001122
        },
        {
          "name": "A3",
          "midi": 57,
          "time": 247.16407200000296,
          "velocity": 0.7480314960629921,
          "duration": 0.5708952750000265
        },
        {
          "name": "A5",
          "midi": 81,
          "time": 247.16407200000296,
          "velocity": 0.7874015748031497,
          "duration": 0.21641781666667725
        },
        {
          "name": "C#4",
          "midi": 61,
          "time": 247.38795250000297,
          "velocity": 0.7007874015748031,
          "duration": 0.2555969041666799
        },
        {
          "name": "E5",
          "midi": 76,
          "time": 247.38795250000297,
          "velocity": 0.7559055118110236,
          "duration": 0.41417892500001585
        },
        {
          "name": "A4",
          "midi": 69,
          "time": 247.61183300000297,
          "velocity": 0.7322834645669292,
          "duration": 0.24440287916667103
        },
        {
          "name": "C#4",
          "midi": 61,
          "time": 247.83571350000298,
          "velocity": 0.7322834645669292,
          "duration": 0.20895513333331905
        },
        {
          "name": "E5",
          "midi": 76,
          "time": 247.83571350000298,
          "velocity": 0.7244094488188977,
          "duration": 0.41417892499998743
        },
        {
          "name": "A3",
          "midi": 57,
          "time": 248.05959400000296,
          "velocity": 0.7165354330708661,
          "duration": 0.382462520833343
        },
        {
          "name": "C#4",
          "midi": 61,
          "time": 248.28347450000297,
          "velocity": 0.7244094488188977,
          "duration": 0.22014915833344162
        },
        {
          "name": "G#5",
          "midi": 80,
          "time": 248.28347450000297,
          "velocity": 0.7874015748031497,
          "duration": 0.4141789250001011
        },
        {
          "name": "A3",
          "midi": 57,
          "time": 248.5073550000031,
          "velocity": 0.7480314960629921,
          "duration": 0.3712684958333057
        },
        {
          "name": "A4",
          "midi": 69,
          "time": 248.5073550000031,
          "velocity": 0.6850393700787402,
          "duration": 0.2555969041666515
        },
        {
          "name": "C#4",
          "midi": 61,
          "time": 248.73123550000307,
          "velocity": 0.7244094488188977,
          "duration": 0.21082080416667281
        },
        {
          "name": "G#5",
          "midi": 80,
          "time": 248.73123550000307,
          "velocity": 0.7874015748031497,
          "duration": 0.7444026624998799
        },
        {
          "name": "E2",
          "midi": 40,
          "time": 248.95511600000307,
          "velocity": 0.7480314960629921,
          "duration": 1.7145514958331773
        },
        {
          "name": "B2",
          "midi": 47,
          "time": 248.95511600000307,
          "velocity": 0.7480314960629921,
          "duration": 1.7145514958331773
        },
        {
          "name": "B3",
          "midi": 59,
          "time": 248.95511600000307,
          "velocity": 0.7322834645669292,
          "duration": 0.5466415541665413
        },
        {
          "name": "E4",
          "midi": 64,
          "time": 249.17899650000308,
          "velocity": 0.7244094488188977,
          "duration": 0.201492449999904
        },
        {
          "name": "G#4",
          "midi": 68,
          "time": 249.40287700000295,
          "velocity": 0.7086614173228346,
          "duration": 0.2425372083333457
        },
        {
          "name": "E4",
          "midi": 64,
          "time": 249.62675750000295,
          "velocity": 0.7244094488188977,
          "duration": 0.20708946249999372
        },
        {
          "name": "B3",
          "midi": 59,
          "time": 249.85063800000296,
          "velocity": 0.7165354330708661,
          "duration": 0.4048505708333323
        },
        {
          "name": "E4",
          "midi": 64,
          "time": 250.07451850000297,
          "velocity": 0.7244094488188977,
          "duration": 0.1977611083333386
        },
        {
          "name": "A5",
          "midi": 81,
          "time": 250.07451850000297,
          "velocity": 0.7874015748031497,
          "duration": 0.6604474749999554
        },
        {
          "name": "G#4",
          "midi": 68,
          "time": 250.29839900000295,
          "velocity": 0.6850393700787402,
          "duration": 0.19216409583330574
        },
        {
          "name": "E4",
          "midi": 64,
          "time": 250.52227950000292,
          "velocity": 0.7244094488188977,
          "duration": 0.1529850083333315
        },
        {
          "name": "F#1",
          "midi": 30,
          "time": 250.74616000000293,
          "velocity": 0.7401574803149606,
          "duration": 1.7835813166667265
        },
        {
          "name": "F#2",
          "midi": 42,
          "time": 250.74616000000293,
          "velocity": 0.7244094488188977,
          "duration": 1.7835813166667265
        },
        {
          "name": "A3",
          "midi": 57,
          "time": 250.74616000000293,
          "velocity": 0.7244094488188977,
          "duration": 0.68283552500003
        },
        {
          "name": "F#5",
          "midi": 78,
          "time": 250.74616000000293,
          "velocity": 0.7874015748031497,
          "duration": 1.768655950000067
        },
        {
          "name": "C#4",
          "midi": 61,
          "time": 250.97004050000294,
          "velocity": 0.7086614173228346,
          "duration": 0.22388050000000703
        },
        {
          "name": "A4",
          "midi": 69,
          "time": 251.19392100000294,
          "velocity": 0.7165354330708661,
          "duration": 0.2350745250000159
        },
        {
          "name": "C#4",
          "midi": 61,
          "time": 251.41780150000295,
          "velocity": 0.6850393700787402,
          "duration": 0.21082080416667281
        },
        {
          "name": "A3",
          "midi": 57,
          "time": 251.64168200000296,
          "velocity": 0.7401574803149606,
          "duration": 0.4944027708333465
        },
        {
          "name": "C#4",
          "midi": 61,
          "time": 251.86556250000297,
          "velocity": 0.7165354330708661,
          "duration": 0.19216409583333416
        },
        {
          "name": "A4",
          "midi": 69,
          "time": 252.08944300000297,
          "velocity": 0.7165354330708661,
          "duration": 0.22761184166668613
        },
        {
          "name": "C#4",
          "midi": 61,
          "time": 252.31332350000298,
          "velocity": 0.7165354330708661,
          "duration": 0.2014924500000177
        },
        {
          "name": "D2",
          "midi": 38,
          "time": 252.537204000003,
          "velocity": 0.7244094488188977,
          "duration": 1.6753724083333168
        },
        {
          "name": "D3",
          "midi": 50,
          "time": 252.537204000003,
          "velocity": 0.7401574803149606,
          "duration": 1.733208204166658
        },
        {
          "name": "A3",
          "midi": 57,
          "time": 252.537204000003,
          "velocity": 0.7244094488188977,
          "duration": 0.5317161874999954
        },
        {
          "name": "A5",
          "midi": 81,
          "time": 252.537204000003,
          "velocity": 0.7874015748031497,
          "duration": 0.856342912499997
        },
        {
          "name": "D4",
          "midi": 62,
          "time": 252.76108450000297,
          "velocity": 0.7007874015748031,
          "duration": 0.1977611083333386
        },
        {
          "name": "A4",
          "midi": 69,
          "time": 252.98496500000297,
          "velocity": 0.7165354330708661,
          "duration": 0.2555969041666799
        },
        {
          "name": "D4",
          "midi": 62,
          "time": 253.20884550000298,
          "velocity": 0.6929133858267716,
          "duration": 0.19029842500000882
        },
        {
          "name": "A3",
          "midi": 57,
          "time": 253.432726000003,
          "velocity": 0.7401574803149606,
          "duration": 0.597014666666638
        },
        {
          "name": "C#6",
          "midi": 85,
          "time": 253.432726000003,
          "velocity": 0.7874015748031497,
          "duration": 0.4104475833332799
        },
        {
          "name": "D4",
          "midi": 62,
          "time": 253.65660650000297,
          "velocity": 0.7086614173228346,
          "duration": 0.17537305833329242
        },
        {
          "name": "A4",
          "midi": 69,
          "time": 253.88048700000294,
          "velocity": 0.7322834645669292,
          "duration": 0.24067153750002035
        },
        {
          "name": "C#6",
          "midi": 85,
          "time": 253.88048700000294,
          "velocity": 0.7874015748031497,
          "duration": 0.4141789250000443
        },
        {
          "name": "D4",
          "midi": 62,
          "time": 254.10436750000295,
          "velocity": 0.7007874015748031,
          "duration": 0.1847014125000328
        },
        {
          "name": "A1",
          "midi": 33,
          "time": 254.328248000003,
          "velocity": 0.7480314960629921,
          "duration": 0.8152981541666975
        },
        {
          "name": "A2",
          "midi": 45,
          "time": 254.328248000003,
          "velocity": 0.7480314960629921,
          "duration": 0.8152981541666975
        },
        {
          "name": "A3",
          "midi": 57,
          "time": 254.328248000003,
          "velocity": 0.7480314960629921,
          "duration": 0.5708952750000265
        },
        {
          "name": "C#6",
          "midi": 85,
          "time": 254.328248000003,
          "velocity": 0.7874015748031497,
          "duration": 0.27798495416666924
        },
        {
          "name": "C#4",
          "midi": 61,
          "time": 254.552128500003,
          "velocity": 0.7007874015748031,
          "duration": 0.2555969041666799
        },
        {
          "name": "C#6",
          "midi": 85,
          "time": 254.636083687503,
          "velocity": 0.7874015748031497,
          "duration": 0.35634312916667454
        },
        {
          "name": "A4",
          "midi": 69,
          "time": 254.776009000003,
          "velocity": 0.7322834645669292,
          "duration": 0.24440287916667103
        },
        {
          "name": "C#4",
          "midi": 61,
          "time": 254.999889500003,
          "velocity": 0.7322834645669292,
          "duration": 0.20895513333334748
        },
        {
          "name": "A1",
          "midi": 33,
          "time": 255.22377000000301,
          "velocity": 0.7480314960629921,
          "duration": 0.8097011416667215
        },
        {
          "name": "A2",
          "midi": 45,
          "time": 255.22377000000301,
          "velocity": 0.7480314960629921,
          "duration": 0.8190294958333766
        },
        {
          "name": "A3",
          "midi": 57,
          "time": 255.22377000000301,
          "velocity": 0.7165354330708661,
          "duration": 0.45522368333337226
        },
        {
          "name": "C#4",
          "midi": 61,
          "time": 255.447650500003,
          "velocity": 0.7244094488188977,
          "duration": 0.2201491583334132
        },
        {
          "name": "E6",
          "midi": 88,
          "time": 255.447650500003,
          "velocity": 0.7874015748031497,
          "duration": 0.44029831666674113
        },
        {
          "name": "A4",
          "midi": 69,
          "time": 255.67153100000306,
          "velocity": 0.6850393700787402,
          "duration": 0.2555969041666799
        },
        {
          "name": "C#4",
          "midi": 61,
          "time": 255.89541150000306,
          "velocity": 0.7244094488188977,
          "duration": 0.21082080416667281
        },
        {
          "name": "C#6",
          "midi": 85,
          "time": 255.89541150000306,
          "velocity": 0.7874015748031497,
          "duration": 0.6641788166671461
        },
        {
          "name": "E2",
          "midi": 40,
          "time": 256.11929200000304,
          "velocity": 0.7480314960629921,
          "duration": 0.8134324833338269
        },
        {
          "name": "E3",
          "midi": 52,
          "time": 256.11929200000304,
          "velocity": 0.7480314960629921,
          "duration": 0.8134324833338269
        },
        {
          "name": "B3",
          "midi": 59,
          "time": 256.11929200000304,
          "velocity": 0.7322834645669292,
          "duration": 0.546641554167195
        },
        {
          "name": "E4",
          "midi": 64,
          "time": 256.34317250000305,
          "velocity": 0.7244094488188977,
          "duration": 0.20149245000033034
        },
        {
          "name": "G#4",
          "midi": 68,
          "time": 256.56705300000357,
          "velocity": 0.7086614173228346,
          "duration": 0.24253720833331727
        },
        {
          "name": "E4",
          "midi": 64,
          "time": 256.7909335000036,
          "velocity": 0.7244094488188977,
          "duration": 0.20708946249993687
        },
        {
          "name": "E2",
          "midi": 40,
          "time": 257.0148140000035,
          "velocity": 0.7480314960629921,
          "duration": 0.8190294958333766
        },
        {
          "name": "B2",
          "midi": 47,
          "time": 257.0148140000035,
          "velocity": 0.7480314960629921,
          "duration": 0.8190294958333766
        },
        {
          "name": "B3",
          "midi": 59,
          "time": 257.0148140000035,
          "velocity": 0.7165354330708661,
          "duration": 0.4048505708333323
        },
        {
          "name": "D6",
          "midi": 86,
          "time": 257.0148140000035,
          "velocity": 0.7874015748031497,
          "duration": 0.21641781666664883
        },
        {
          "name": "E4",
          "midi": 64,
          "time": 257.23869450000353,
          "velocity": 0.7244094488188977,
          "duration": 0.1977611083333386
        },
        {
          "name": "C#6",
          "midi": 85,
          "time": 257.23869450000353,
          "velocity": 0.6929133858267716,
          "duration": 0.21641781666664883
        },
        {
          "name": "G#4",
          "midi": 68,
          "time": 257.46257500000354,
          "velocity": 0.6850393700787402,
          "duration": 0.19216409583333416
        },
        {
          "name": "B5",
          "midi": 83,
          "time": 257.46257500000354,
          "velocity": 0.7559055118110236,
          "duration": 0.21641781666664883
        },
        {
          "name": "E4",
          "midi": 64,
          "time": 257.68645550000355,
          "velocity": 0.7244094488188977,
          "duration": 0.15298500833335993
        },
        {
          "name": "A5",
          "midi": 81,
          "time": 257.68645550000355,
          "velocity": 0.6850393700787402,
          "duration": 0.1847014125000328
        },
        {
          "name": "F#2",
          "midi": 42,
          "time": 257.9103360000036,
          "velocity": 0.7244094488188977,
          "duration": 0.8041041291676265
        },
        {
          "name": "C#3",
          "midi": 49,
          "time": 257.9103360000036,
          "velocity": 0.7401574803149606,
          "duration": 0.8041041291676265
        },
        {
          "name": "A3",
          "midi": 57,
          "time": 257.9103360000036,
          "velocity": 0.7244094488188977,
          "duration": 0.6828355250009395
        },
        {
          "name": "C#6",
          "midi": 85,
          "time": 257.9103360000036,
          "velocity": 0.7874015748031497,
          "duration": 0.3059700166671746
        },
        {
          "name": "C#4",
          "midi": 61,
          "time": 258.1342165000041,
          "velocity": 0.6850393700787402,
          "duration": 0.22388050000006388
        },
        {
          "name": "C#6",
          "midi": 85,
          "time": 258.2629477875041,
          "velocity": 0.7874015748031497,
          "duration": 0.7145519291671008
        },
        {
          "name": "A4",
          "midi": 69,
          "time": 258.35809700000414,
          "velocity": 0.7165354330708661,
          "duration": 0.23507452500041381
        },
        {
          "name": "C#4",
          "midi": 61,
          "time": 258.58197750000454,
          "velocity": 0.6850393700787402,
          "duration": 0.21082080416670124
        },
        {
          "name": "F#2",
          "midi": 42,
          "time": 258.80585800000455,
          "velocity": 0.7244094488188977,
          "duration": 0.8880593166676931
        },
        {
          "name": "C#3",
          "midi": 49,
          "time": 258.80585800000455,
          "velocity": 0.7401574803149606,
          "duration": 0.8880593166676931
        },
        {
          "name": "A3",
          "midi": 57,
          "time": 258.80585800000455,
          "velocity": 0.7401574803149606,
          "duration": 0.49440277083380124
        },
        {
          "name": "C#4",
          "midi": 61,
          "time": 259.02973850000456,
          "velocity": 0.7165354330708661,
          "duration": 0.1921640958337889
        },
        {
          "name": "C#6",
          "midi": 85,
          "time": 259.02973850000456,
          "velocity": 0.7874015748031497,
          "duration": 0.4179102666671497
        },
        {
          "name": "A4",
          "midi": 69,
          "time": 259.253619000005,
          "velocity": 0.7165354330708661,
          "duration": 0.2276118416666577
        },
        {
          "name": "C#4",
          "midi": 61,
          "time": 259.477499500005,
          "velocity": 0.7165354330708661,
          "duration": 0.2014924500005577
        },
        {
          "name": "A5",
          "midi": 81,
          "time": 259.477499500005,
          "velocity": 0.7637795275590551,
          "duration": 0.21641781666721727
        },
        {
          "name": "D2",
          "midi": 38,
          "time": 259.7013800000056,
          "velocity": 0.7244094488188977,
          "duration": 0.7817160791666993
        },
        {
          "name": "D3",
          "midi": 50,
          "time": 259.7013800000056,
          "velocity": 0.7401574803149606,
          "duration": 0.7817160791666993
        },
        {
          "name": "A3",
          "midi": 57,
          "time": 259.7013800000056,
          "velocity": 0.7244094488188977,
          "duration": 0.5317161875000238
        },
        {
          "name": "F#5",
          "midi": 78,
          "time": 259.7013800000056,
          "velocity": 0.7086614173228346,
          "duration": 0.8544772416667001
        },
        {
          "name": "D4",
          "midi": 62,
          "time": 259.9252605000056,
          "velocity": 0.7007874015748031,
          "duration": 0.1977611083333386
        },
        {
          "name": "A4",
          "midi": 69,
          "time": 260.1491410000056,
          "velocity": 0.7165354330708661,
          "duration": 0.2555969041666799
        },
        {
          "name": "D4",
          "midi": 62,
          "time": 260.3730215000056,
          "velocity": 0.6929133858267716,
          "duration": 0.19029842500003724
        },
        {
          "name": "D2",
          "midi": 38,
          "time": 260.5969020000057,
          "velocity": 0.7244094488188977,
          "duration": 0.7798504083332887
        },
        {
          "name": "D3",
          "midi": 50,
          "time": 260.5969020000057,
          "velocity": 0.7401574803149606,
          "duration": 0.83768620416663
        },
        {
          "name": "A3",
          "midi": 57,
          "time": 260.5969020000057,
          "velocity": 0.7401574803149606,
          "duration": 0.5970146666666665
        },
        {
          "name": "A5",
          "midi": 81,
          "time": 260.5969020000057,
          "velocity": 0.7795275590551181,
          "duration": 0.19216409583333416
        },
        {
          "name": "D4",
          "midi": 62,
          "time": 260.8207825000057,
          "velocity": 0.7086614173228346,
          "duration": 0.17537305833332084
        },
        {
          "name": "A5",
          "midi": 81,
          "time": 260.8207825000057,
          "velocity": 0.7716535433070866,
          "duration": 0.4179102666666381
        },
        {
          "name": "A4",
          "midi": 69,
          "time": 261.0446630000057,
          "velocity": 0.7322834645669292,
          "duration": 0.2406715374999635
        },
        {
          "name": "D4",
          "midi": 62,
          "time": 261.26854350000565,
          "velocity": 0.7007874015748031,
          "duration": 0.18470141249997596
        },
        {
          "name": "A5",
          "midi": 81,
          "time": 261.26854350000565,
          "velocity": 0.7165354330708661,
          "duration": 0.18843275416662664
        },
        {
          "name": "A1",
          "midi": 33,
          "time": 261.4924240000056,
          "velocity": 0.6771653543307087,
          "duration": 1.7052231416667496
        },
        {
          "name": "A2",
          "midi": 45,
          "time": 261.4924240000056,
          "velocity": 0.6771653543307087,
          "duration": 1.7145514958334047
        },
        {
          "name": "A3",
          "midi": 57,
          "time": 261.4924240000056,
          "velocity": 0.6771653543307087,
          "duration": 0.570895274999998
        },
        {
          "name": "A5",
          "midi": 81,
          "time": 261.4924240000056,
          "velocity": 0.7795275590551181,
          "duration": 0.6641788166666629
        },
        {
          "name": "C#4",
          "midi": 61,
          "time": 261.7163045000056,
          "velocity": 0.6614173228346457,
          "duration": 0.2555969041666799
        },
        {
          "name": "A4",
          "midi": 69,
          "time": 261.9401850000056,
          "velocity": 0.6850393700787402,
          "duration": 0.24440287916667103
        },
        {
          "name": "C#4",
          "midi": 61,
          "time": 262.1640655000056,
          "velocity": 0.6850393700787402,
          "duration": 0.20895513333334748
        },
        {
          "name": "E5",
          "midi": 76,
          "time": 262.1640655000056,
          "velocity": 0.7165354330708661,
          "duration": 0.18097007083332528
        },
        {
          "name": "A3",
          "midi": 57,
          "time": 262.3879460000056,
          "velocity": 0.6692913385826772,
          "duration": 0.45522368333337226
        },
        {
          "name": "E5",
          "midi": 76,
          "time": 262.3879460000056,
          "velocity": 0.7559055118110236,
          "duration": 0.6361937541666975
        },
        {
          "name": "C#4",
          "midi": 61,
          "time": 262.61182650000563,
          "velocity": 0.6771653543307087,
          "duration": 0.22014915833335635
        },
        {
          "name": "A4",
          "midi": 69,
          "time": 262.83570700000564,
          "velocity": 0.6377952755905512,
          "duration": 0.2555969041666799
        },
        {
          "name": "C#4",
          "midi": 61,
          "time": 263.05958750000565,
          "velocity": 0.6771653543307087,
          "duration": 0.21082080416670124
        },
        {
          "name": "E5",
          "midi": 76,
          "time": 263.05958750000565,
          "velocity": 0.7480314960629921,
          "duration": 0.21641781666670568
        },
        {
          "name": "E2",
          "midi": 40,
          "time": 263.2834680000057,
          "velocity": 0.7007874015748031,
          "duration": 1.7145514958344847
        },
        {
          "name": "B2",
          "midi": 47,
          "time": 263.2834680000057,
          "velocity": 0.7007874015748031,
          "duration": 1.7145514958344847
        },
        {
          "name": "G#3",
          "midi": 56,
          "time": 263.2834680000057,
          "velocity": 0.6850393700787402,
          "duration": 0.5466415541666834
        },
        {
          "name": "F#5",
          "midi": 78,
          "time": 263.2834680000057,
          "velocity": 0.7637795275590551,
          "duration": 0.21641781666664883
        },
        {
          "name": "B3",
          "midi": 59,
          "time": 263.5073485000057,
          "velocity": 0.6771653543307087,
          "duration": 0.20149244999998928
        },
        {
          "name": "E5",
          "midi": 76,
          "time": 263.5073485000057,
          "velocity": 0.7637795275590551,
          "duration": 0.4123132541666905
        },
        {
          "name": "G#4",
          "midi": 68,
          "time": 263.7312290000057,
          "velocity": 0.6614173228346457,
          "duration": 0.24253720833331727
        },
        {
          "name": "B3",
          "midi": 59,
          "time": 263.95510950000573,
          "velocity": 0.6771653543307087,
          "duration": 0.20708946249993687
        },
        {
          "name": "E5",
          "midi": 76,
          "time": 263.95510950000573,
          "velocity": 0.7244094488188977,
          "duration": 0.1828357416666222
        },
        {
          "name": "G#3",
          "midi": 56,
          "time": 264.1789900000057,
          "velocity": 0.6692913385826772,
          "duration": 0.40485057083350284
        },
        {
          "name": "F#5",
          "midi": 78,
          "time": 264.1789900000057,
          "velocity": 0.7874015748031497,
          "duration": 0.636193754167266
        },
        {
          "name": "B3",
          "midi": 59,
          "time": 264.4028705000057,
          "velocity": 0.6771653543307087,
          "duration": 0.19776110833367966
        },
        {
          "name": "G#4",
          "midi": 68,
          "time": 264.62675100000627,
          "velocity": 0.6377952755905512,
          "duration": 0.19216409583333416
        },
        {
          "name": "B3",
          "midi": 59,
          "time": 264.8506315000063,
          "velocity": 0.6771653543307087,
          "duration": 0.15298500833392836
        },
        {
          "name": "F#5",
          "midi": 78,
          "time": 264.8506315000063,
          "velocity": 0.7874015748031497,
          "duration": 0.41231325416725895
        },
        {
          "name": "F#2",
          "midi": 42,
          "time": 265.07451200000685,
          "velocity": 0.6771653543307087,
          "duration": 1.7835813166670391
        },
        {
          "name": "C#3",
          "midi": 49,
          "time": 265.07451200000685,
          "velocity": 0.6929133858267716,
          "duration": 1.7835813166670391
        },
        {
          "name": "A3",
          "midi": 57,
          "time": 265.07451200000685,
          "velocity": 0.6771653543307087,
          "duration": 0.682835525000371
        },
        {
          "name": "C#4",
          "midi": 61,
          "time": 265.29839250000686,
          "velocity": 0.6614173228346457,
          "duration": 0.2238805000003481
        },
        {
          "name": "F#5",
          "midi": 78,
          "time": 265.29839250000686,
          "velocity": 0.7874015748031497,
          "duration": 1.5279844125003592
        },
        {
          "name": "F#4",
          "midi": 66,
          "time": 265.5222730000072,
          "velocity": 0.6692913385826772,
          "duration": 0.2350745250000159
        },
        {
          "name": "C#4",
          "midi": 61,
          "time": 265.7461535000072,
          "velocity": 0.6692913385826772,
          "duration": 0.21082080416670124
        },
        {
          "name": "A3",
          "midi": 57,
          "time": 265.9700340000072,
          "velocity": 0.6692913385826772,
          "duration": 0.4944027708333465
        },
        {
          "name": "C#4",
          "midi": 61,
          "time": 266.1939145000072,
          "velocity": 0.6692913385826772,
          "duration": 0.19216409583333416
        },
        {
          "name": "F#4",
          "midi": 66,
          "time": 266.41779500000723,
          "velocity": 0.6692913385826772,
          "duration": 0.2276118416666577
        },
        {
          "name": "C#4",
          "midi": 61,
          "time": 266.64167550000724,
          "velocity": 0.6692913385826772,
          "duration": 0.20149244999998928
        },
        {
          "name": "D2",
          "midi": 38,
          "time": 266.86555600000725,
          "velocity": 0.6692913385826772,
          "duration": 1.6753724083334873
        },
        {
          "name": "A2",
          "midi": 45,
          "time": 266.86555600000725,
          "velocity": 0.6692913385826772,
          "duration": 1.7332082041668286
        },
        {
          "name": "A3",
          "midi": 57,
          "time": 266.86555600000725,
          "velocity": 0.6692913385826772,
          "duration": 0.5317161875001375
        },
        {
          "name": "A5",
          "midi": 81,
          "time": 266.86555600000725,
          "velocity": 0.7874015748031497,
          "duration": 0.8563429125001676
        },
        {
          "name": "D4",
          "midi": 62,
          "time": 267.08943650000737,
          "velocity": 0.6692913385826772,
          "duration": 0.1977611083333386
        },
        {
          "name": "F#4",
          "midi": 66,
          "time": 267.3133170000074,
          "velocity": 0.6692913385826772,
          "duration": 0.2555969041666799
        },
        {
          "name": "D4",
          "midi": 62,
          "time": 267.5371975000074,
          "velocity": 0.6692913385826772,
          "duration": 0.19029842500003724
        },
        {
          "name": "A3",
          "midi": 57,
          "time": 267.76107800000744,
          "velocity": 0.6692913385826772,
          "duration": 0.5970146666666665
        },
        {
          "name": "A5",
          "midi": 81,
          "time": 267.76107800000744,
          "velocity": 0.7480314960629921,
          "duration": 0.19216409583333416
        },
        {
          "name": "D4",
          "midi": 62,
          "time": 267.98495850000745,
          "velocity": 0.6692913385826772,
          "duration": 0.17537305833332084
        },
        {
          "name": "A5",
          "midi": 81,
          "time": 267.98495850000745,
          "velocity": 0.7244094488188977,
          "duration": 0.4179102666666381
        },
        {
          "name": "F#4",
          "midi": 66,
          "time": 268.20883900000746,
          "velocity": 0.6692913385826772,
          "duration": 0.2406715374999635
        },
        {
          "name": "D4",
          "midi": 62,
          "time": 268.4327195000074,
          "velocity": 0.6535433070866141,
          "duration": 0.18470141249997596
        },
        {
          "name": "A5",
          "midi": 81,
          "time": 268.4327195000074,
          "velocity": 0.6929133858267716,
          "duration": 0.18843275416662664
        },
        {
          "name": "A1",
          "midi": 33,
          "time": 268.65660000000736,
          "velocity": 0.6535433070866141,
          "duration": 1.7052231416667496
        },
        {
          "name": "A2",
          "midi": 45,
          "time": 268.65660000000736,
          "velocity": 0.6535433070866141,
          "duration": 1.7145514958334047
        },
        {
          "name": "E3",
          "midi": 52,
          "time": 268.65660000000736,
          "velocity": 0.6535433070866141,
          "duration": 0.570895274999998
        },
        {
          "name": "A5",
          "midi": 81,
          "time": 268.65660000000736,
          "velocity": 0.7480314960629921,
          "duration": 0.6641788166666629
        },
        {
          "name": "A3",
          "midi": 57,
          "time": 268.88048050000737,
          "velocity": 0.6535433070866141,
          "duration": 0.2555969041666799
        },
        {
          "name": "C#4",
          "midi": 61,
          "time": 269.1043610000074,
          "velocity": 0.6535433070866141,
          "duration": 0.24440287916667103
        },
        {
          "name": "A3",
          "midi": 57,
          "time": 269.3282415000074,
          "velocity": 0.6535433070866141,
          "duration": 0.20895513333334748
        },
        {
          "name": "E5",
          "midi": 76,
          "time": 269.3282415000074,
          "velocity": 0.6771653543307087,
          "duration": 0.18097007083332528
        },
        {
          "name": "E3",
          "midi": 52,
          "time": 269.5521220000074,
          "velocity": 0.6299212598425197,
          "duration": 0.45522368333337226
        },
        {
          "name": "E5",
          "midi": 76,
          "time": 269.5521220000074,
          "velocity": 0.7165354330708661,
          "duration": 0.6361937541666975
        },
        {
          "name": "A3",
          "midi": 57,
          "time": 269.7760025000074,
          "velocity": 0.6299212598425197,
          "duration": 0.22014915833335635
        },
        {
          "name": "C#4",
          "midi": 61,
          "time": 269.9998830000074,
          "velocity": 0.6299212598425197,
          "duration": 0.2555969041666799
        },
        {
          "name": "A3",
          "midi": 57,
          "time": 270.2237635000074,
          "velocity": 0.6220472440944882,
          "duration": 0.21082080416670124
        },
        {
          "name": "E5",
          "midi": 76,
          "time": 270.2237635000074,
          "velocity": 0.6771653543307087,
          "duration": 0.18097007083338212
        },
        {
          "name": "E2",
          "midi": 40,
          "time": 270.4476440000074,
          "velocity": 0.6220472440944882,
          "duration": 1.714551495833291
        },
        {
          "name": "B2",
          "midi": 47,
          "time": 270.4476440000074,
          "velocity": 0.6220472440944882,
          "duration": 1.714551495833291
        },
        {
          "name": "E3",
          "midi": 52,
          "time": 270.4476440000074,
          "velocity": 0.6220472440944882,
          "duration": 0.5466415541666834
        },
        {
          "name": "F#5",
          "midi": 78,
          "time": 270.4476440000074,
          "velocity": 0.7165354330708661,
          "duration": 0.21641781666664883
        },
        {
          "name": "G#3",
          "midi": 56,
          "time": 270.6715245000074,
          "velocity": 0.6220472440944882,
          "duration": 0.20149244999998928
        },
        {
          "name": "E5",
          "midi": 76,
          "time": 270.6715245000074,
          "velocity": 0.7244094488188977,
          "duration": 0.6735071708333749
        },
        {
          "name": "B3",
          "midi": 59,
          "time": 270.89540500000743,
          "velocity": 0.6220472440944882,
          "duration": 0.24253720833331727
        },
        {
          "name": "G#3",
          "midi": 56,
          "time": 271.11928550000744,
          "velocity": 0.6220472440944882,
          "duration": 0.20708946249999372
        },
        {
          "name": "E3",
          "midi": 52,
          "time": 271.34316600000744,
          "velocity": 0.6220472440944882,
          "duration": 0.4048505708332186
        },
        {
          "name": "G#3",
          "midi": 56,
          "time": 271.56704650000745,
          "velocity": 0.6220472440944882,
          "duration": 0.1977611083332249
        },
        {
          "name": "B4",
          "midi": 71,
          "time": 271.56704650000745,
          "velocity": 0.7322834645669292,
          "duration": 0.41417892499987374
        },
        {
          "name": "B3",
          "midi": 59,
          "time": 271.79092700000734,
          "velocity": 0.6220472440944882,
          "duration": 0.19216409583333416
        },
        {
          "name": "G#3",
          "midi": 56,
          "time": 272.01480750000735,
          "velocity": 0.6220472440944882,
          "duration": 0.15298500833335993
        },
        {
          "name": "A4",
          "midi": 69,
          "time": 272.01480750000735,
          "velocity": 0.7244094488188977,
          "duration": 0.4123132541666905
        },
        {
          "name": "F#2",
          "midi": 42,
          "time": 272.23868800000736,
          "velocity": 0.6141732283464567,
          "duration": 1.783581316666698
        },
        {
          "name": "C#3",
          "midi": 49,
          "time": 272.23868800000736,
          "velocity": 0.6141732283464567,
          "duration": 1.783581316666698
        },
        {
          "name": "F#3",
          "midi": 54,
          "time": 272.23868800000736,
          "velocity": 0.6141732283464567,
          "duration": 0.68283552500003
        },
        {
          "name": "A3",
          "midi": 57,
          "time": 272.46256850000736,
          "velocity": 0.5984251968503937,
          "duration": 0.22388050000000703
        },
        {
          "name": "A4",
          "midi": 69,
          "time": 272.46256850000736,
          "velocity": 0.7007874015748031,
          "duration": 1.5242530708333675
        },
        {
          "name": "C#4",
          "midi": 61,
          "time": 272.68644900000737,
          "velocity": 0.5984251968503937,
          "duration": 0.2350745250000159
        },
        {
          "name": "A3",
          "midi": 57,
          "time": 272.9103295000074,
          "velocity": 0.5984251968503937,
          "duration": 0.21082080416670124
        },
        {
          "name": "F#3",
          "midi": 54,
          "time": 273.1342100000074,
          "velocity": 0.5984251968503937,
          "duration": 0.4944027708333465
        },
        {
          "name": "A3",
          "midi": 57,
          "time": 273.3580905000074,
          "velocity": 0.5905511811023622,
          "duration": 0.19216409583333416
        },
        {
          "name": "C#4",
          "midi": 61,
          "time": 273.5819710000074,
          "velocity": 0.5905511811023622,
          "duration": 0.2276118416666577
        },
        {
          "name": "A3",
          "midi": 57,
          "time": 273.8058515000074,
          "velocity": 0.5905511811023622,
          "duration": 0.20149244999998928
        },
        {
          "name": "D2",
          "midi": 38,
          "time": 274.0297320000074,
          "velocity": 0.5905511811023622,
          "duration": 10.641786433333777
        },
        {
          "name": "A2",
          "midi": 45,
          "time": 274.0297320000074,
          "velocity": 0.5905511811023622,
          "duration": 10.641786433333777
        },
        {
          "name": "D3",
          "midi": 50,
          "time": 274.0297320000074,
          "velocity": 0.5905511811023622,
          "duration": 0.5317161875000807
        },
        {
          "name": "C#5",
          "midi": 73,
          "time": 274.0297320000074,
          "velocity": 0.6377952755905512,
          "duration": 1.1063428041667294
        },
        {
          "name": "F#3",
          "midi": 54,
          "time": 274.2536125000074,
          "velocity": 0.5905511811023622,
          "duration": 0.19776110833339544
        },
        {
          "name": "A3",
          "midi": 57,
          "time": 274.4774930000075,
          "velocity": 0.5905511811023622,
          "duration": 0.2555969041666799
        },
        {
          "name": "F#3",
          "midi": 54,
          "time": 274.7013735000075,
          "velocity": 0.5905511811023622,
          "duration": 0.1902984249999804
        },
        {
          "name": "D3",
          "midi": 50,
          "time": 274.9252540000075,
          "velocity": 0.5905511811023622,
          "duration": 0.5970146666666096
        },
        {
          "name": "F#3",
          "midi": 54,
          "time": 275.14913450000745,
          "velocity": 0.5826771653543307,
          "duration": 0.17537305833332084
        },
        {
          "name": "B4",
          "midi": 71,
          "time": 275.14913450000745,
          "velocity": 0.6377952755905512,
          "duration": 0.21641781666664883
        },
        {
          "name": "A3",
          "midi": 57,
          "time": 275.37301500000746,
          "velocity": 0.5826771653543307,
          "duration": 0.24067153750002035
        },
        {
          "name": "A4",
          "midi": 69,
          "time": 275.37301500000746,
          "velocity": 0.6377952755905512,
          "duration": 1.3376859875000378
        },
        {
          "name": "F#3",
          "midi": 54,
          "time": 275.59689550000746,
          "velocity": 0.5826771653543307,
          "duration": 0.1847014125000328
        },
        {
          "name": "D3",
          "midi": 50,
          "time": 275.82077600000747,
          "velocity": 0.5826771653543307,
          "duration": 0.5317161875000238
        },
        {
          "name": "F#3",
          "midi": 54,
          "time": 276.0446565000075,
          "velocity": 0.5826771653543307,
          "duration": 0.1977611083333386
        },
        {
          "name": "A3",
          "midi": 57,
          "time": 276.2685370000075,
          "velocity": 0.5826771653543307,
          "duration": 0.2555969041666799
        },
        {
          "name": "F#3",
          "midi": 54,
          "time": 276.4924175000075,
          "velocity": 0.5748031496062992,
          "duration": 0.1902984249999804
        },
        {
          "name": "D3",
          "midi": 50,
          "time": 276.7162980000075,
          "velocity": 0.5748031496062992,
          "duration": 0.5970146666666665
        },
        {
          "name": "F#3",
          "midi": 54,
          "time": 276.9401785000075,
          "velocity": 0.5748031496062992,
          "duration": 0.17537305833332084
        },
        {
          "name": "A3",
          "midi": 57,
          "time": 277.1640590000075,
          "velocity": 0.5669291338582677,
          "duration": 0.24067153750002035
        },
        {
          "name": "F#3",
          "midi": 54,
          "time": 277.3879395000075,
          "velocity": 0.5669291338582677,
          "duration": 0.1847014125000328
        },
        {
          "name": "D3",
          "midi": 50,
          "time": 277.6118200000076,
          "velocity": 0.5669291338582677,
          "duration": 0.5317161875000238
        },
        {
          "name": "G#3",
          "midi": 56,
          "time": 277.8357005000076,
          "velocity": 0.5669291338582677,
          "duration": 0.1977611083333386
        },
        {
          "name": "B3",
          "midi": 59,
          "time": 278.0595810000076,
          "velocity": 0.5669291338582677,
          "duration": 0.2555969041666799
        },
        {
          "name": "G#3",
          "midi": 56,
          "time": 278.2834615000076,
          "velocity": 0.5669291338582677,
          "duration": 0.1902984249999804
        },
        {
          "name": "D3",
          "midi": 50,
          "time": 278.5073420000076,
          "velocity": 0.5669291338582677,
          "duration": 0.5970146666666665
        },
        {
          "name": "G#3",
          "midi": 56,
          "time": 278.7312225000076,
          "velocity": 0.5669291338582677,
          "duration": 0.17537305833332084
        },
        {
          "name": "B3",
          "midi": 59,
          "time": 278.9551030000076,
          "velocity": 0.5669291338582677,
          "duration": 0.24067153750002035
        },
        {
          "name": "G#3",
          "midi": 56,
          "time": 279.17898350000763,
          "velocity": 0.5669291338582677,
          "duration": 0.1847014125000328
        },
        {
          "name": "D3",
          "midi": 50,
          "time": 279.40286400000764,
          "velocity": 0.5669291338582677,
          "duration": 0.5317161875000238
        },
        {
          "name": "A3",
          "midi": 57,
          "time": 279.62674450000765,
          "velocity": 0.5590551181102362,
          "duration": 0.1977611083333386
        },
        {
          "name": "C#4",
          "midi": 61,
          "time": 279.85062500000765,
          "velocity": 0.5590551181102362,
          "duration": 0.2555969041666799
        },
        {
          "name": "A3",
          "midi": 57,
          "time": 280.07450550000766,
          "velocity": 0.5433070866141733,
          "duration": 0.1902984249999804
        },
        {
          "name": "D3",
          "midi": 50,
          "time": 280.29838600000767,
          "velocity": 0.5433070866141733,
          "duration": 0.5970146666666665
        },
        {
          "name": "A3",
          "midi": 57,
          "time": 280.5222665000077,
          "velocity": 0.5354330708661418,
          "duration": 0.17537305833332084
        },
        {
          "name": "C#4",
          "midi": 61,
          "time": 280.7461470000077,
          "velocity": 0.5354330708661418,
          "duration": 0.24067153750002035
        },
        {
          "name": "A3",
          "midi": 57,
          "time": 280.9700275000077,
          "velocity": 0.5275590551181102,
          "duration": 0.1847014125000328
        },
        {
          "name": "F#3",
          "midi": 54,
          "time": 281.19390800000775,
          "velocity": 0.5354330708661418,
          "duration": 0.5317161875000238
        },
        {
          "name": "A3",
          "midi": 57,
          "time": 281.41778850000776,
          "velocity": 0.5354330708661418,
          "duration": 0.1977611083333386
        },
        {
          "name": "D4",
          "midi": 62,
          "time": 281.64166900000777,
          "velocity": 0.5354330708661418,
          "duration": 0.2555969041666799
        },
        {
          "name": "A3",
          "midi": 57,
          "time": 281.8655495000078,
          "velocity": 0.5354330708661418,
          "duration": 0.1902984249999804
        },
        {
          "name": "F#3",
          "midi": 54,
          "time": 282.0894300000078,
          "velocity": 0.5196850393700787,
          "duration": 0.5970146666666665
        },
        {
          "name": "A3",
          "midi": 57,
          "time": 282.3133105000078,
          "velocity": 0.5196850393700787,
          "duration": 0.17537305833332084
        },
        {
          "name": "D4",
          "midi": 62,
          "time": 282.5371910000078,
          "velocity": 0.5196850393700787,
          "duration": 0.24067153750002035
        },
        {
          "name": "A3",
          "midi": 57,
          "time": 282.7610715000078,
          "velocity": 0.5118110236220472,
          "duration": 0.1847014125000328
        },
        {
          "name": "F#3",
          "midi": 54,
          "time": 282.9849520000078,
          "velocity": 0.5039370078740157,
          "duration": 0.5317161875000238
        },
        {
          "name": "A3",
          "midi": 57,
          "time": 283.2088325000078,
          "velocity": 0.5039370078740157,
          "duration": 0.1977611083333386
        },
        {
          "name": "D4",
          "midi": 62,
          "time": 283.4327130000078,
          "velocity": 0.5039370078740157,
          "duration": 0.2555969041666799
        },
        {
          "name": "A3",
          "midi": 57,
          "time": 283.65659350000783,
          "velocity": 0.5039370078740157,
          "duration": 0.1902984249999804
        },
        {
          "name": "F#3",
          "midi": 54,
          "time": 283.88047400000784,
          "velocity": 0.5039370078740157,
          "duration": 0.5970146666666665
        },
        {
          "name": "A3",
          "midi": 57,
          "time": 284.10435450000784,
          "velocity": 0.5039370078740157,
          "duration": 0.17537305833332084
        },
        {
          "name": "D4",
          "midi": 62,
          "time": 284.32823500000785,
          "velocity": 0.5039370078740157,
          "duration": 0.24067153750002035
        },
        {
          "name": "A3",
          "midi": 57,
          "time": 284.55211550000786,
          "velocity": 0.5039370078740157,
          "duration": 0.18470141249997596
        },
        {
          "name": "A1",
          "midi": 33,
          "time": 284.77599600000786,
          "velocity": 0.5669291338582677,
          "duration": 5.408579745833322
        },
        {
          "name": "E2",
          "midi": 40,
          "time": 284.77599600000786,
          "velocity": 0.5669291338582677,
          "duration": 5.408579745833322
        },
        {
          "name": "A2",
          "midi": 45,
          "time": 284.77599600000786,
          "velocity": 0.5669291338582677,
          "duration": 5.408579745833322
        },
        {
          "name": "E3",
          "midi": 52,
          "time": 284.77599600000786,
          "velocity": 0.5669291338582677,
          "duration": 5.408579745833322
        }
      ],
      "controlChanges": {
        "7": [
          {
            "number": 7,
            "time": 1.2555964708333334,
            "value": 0.7874015748031497
          },
          {
            "number": 7,
            "time": 1.5391784375,
            "value": 0.7874015748031497
          },
          {
            "number": 7,
            "time": 1.6138052708333332,
            "value": 0.8110236220472441
          },
          {
            "number": 7,
            "time": 1.623133625,
            "value": 0.8582677165354331
          },
          {
            "number": 7,
            "time": 1.623133625,
            "value": 0.7874015748031497
          }
        ],
        "10": [
          {
            "number": 10,
            "time": 1.2742531791666667,
            "value": 0.5039370078740157
          },
          {
            "number": 10,
            "time": 1.6268649666666666,
            "value": 0.4251968503937008
          },
          {
            "number": 10,
            "time": 1.7108201541666666,
            "value": 0.5039370078740157
          },
          {
            "number": 10,
            "time": 1.7108201541666666,
            "value": 0.5039370078740157
          }
        ],
        "11": [
          {
            "number": 11,
            "time": 1.2257457375,
            "value": 1
          },
          {
            "number": 11,
            "time": 1.6044769166666666,
            "value": 1
          },
          {
            "number": 11,
            "time": 1.6977604583333332,
            "value": 1
          },
          {
            "number": 11,
            "time": 1.7817156458333332,
            "value": 1
          },
          {
            "number": 11,
            "time": 1.7817156458333332,
            "value": 1
          }
        ],
        "32": [
          {
            "number": 32,
            "time": 1.2574621416666667,
            "value": 0
          },
          {
            "number": 32,
            "time": 1.3246262916666667,
            "value": 0
          },
          {
            "number": 32,
            "time": 1.3246262916666667,
            "value": 0
          }
        ],
        "64": [
          {
            "number": 64,
            "time": 7.514922116666665,
            "value": 1
          },
          {
            "number": 64,
            "time": 10.768652050000007,
            "value": 0
          },
          {
            "number": 64,
            "time": 11.04477133333334,
            "value": 1
          },
          {
            "number": 64,
            "time": 14.382456454166686,
            "value": 0
          },
          {
            "number": 64,
            "time": 14.656710066666687,
            "value": 1
          },
          {
            "number": 64,
            "time": 17.944022075000035,
            "value": 0
          },
          {
            "number": 64,
            "time": 18.233201054166702,
            "value": 1
          },
          {
            "number": 64,
            "time": 21.475736962500083,
            "value": 0
          },
          {
            "number": 64,
            "time": 21.84327411666675,
            "value": 1
          },
          {
            "number": 64,
            "time": 25.097004050000088,
            "value": 0
          },
          {
            "number": 64,
            "time": 25.37312333333342,
            "value": 1
          },
          {
            "number": 64,
            "time": 28.710808454166767,
            "value": 0
          },
          {
            "number": 64,
            "time": 28.985062066666767,
            "value": 1
          },
          {
            "number": 64,
            "time": 32.27237407500012,
            "value": 0
          },
          {
            "number": 64,
            "time": 32.561553054166794,
            "value": 1
          },
          {
            "number": 64,
            "time": 35.80408896250014,
            "value": 0
          },
          {
            "number": 64,
            "time": 36.17162611666681,
            "value": 1
          },
          {
            "number": 64,
            "time": 39.42535605000013,
            "value": 0
          },
          {
            "number": 64,
            "time": 39.70147533333347,
            "value": 1
          },
          {
            "number": 64,
            "time": 43.03916045416682,
            "value": 0
          },
          {
            "number": 64,
            "time": 43.313414066666816,
            "value": 1
          },
          {
            "number": 64,
            "time": 46.60072607500016,
            "value": 0
          },
          {
            "number": 64,
            "time": 46.88990505416683,
            "value": 1
          },
          {
            "number": 64,
            "time": 50.13244096250018,
            "value": 0
          },
          {
            "number": 64,
            "time": 50.499978116666846,
            "value": 1
          },
          {
            "number": 64,
            "time": 53.75370805000015,
            "value": 0
          },
          {
            "number": 64,
            "time": 54.029827333333486,
            "value": 1
          },
          {
            "number": 64,
            "time": 57.367512454166715,
            "value": 0
          },
          {
            "number": 64,
            "time": 57.64176606666671,
            "value": 1
          },
          {
            "number": 64,
            "time": 60.92907807500007,
            "value": 0
          },
          {
            "number": 64,
            "time": 61.2182570541666,
            "value": 1
          },
          {
            "number": 64,
            "time": 64.46079296249992,
            "value": 0
          },
          {
            "number": 64,
            "time": 64.51116607499992,
            "value": 0
          },
          {
            "number": 64,
            "time": 64.80034505416658,
            "value": 1
          },
          {
            "number": 64,
            "time": 66.3637772124999,
            "value": 0
          },
          {
            "number": 64,
            "time": 66.46079209583323,
            "value": 1
          },
          {
            "number": 64,
            "time": 68.09325407499988,
            "value": 0
          },
          {
            "number": 64,
            "time": 68.17161224999988,
            "value": 0
          },
          {
            "number": 64,
            "time": 68.38243305416655,
            "value": 1
          },
          {
            "number": 64,
            "time": 71.62496896249982,
            "value": 0
          },
          {
            "number": 64,
            "time": 71.67534207499982,
            "value": 0
          },
          {
            "number": 64,
            "time": 71.96452105416648,
            "value": 1
          },
          {
            "number": 64,
            "time": 73.49250546666646,
            "value": 0
          },
          {
            "number": 64,
            "time": 73.5447442499998,
            "value": 1
          },
          {
            "number": 64,
            "time": 75.33019123749975,
            "value": 0
          },
          {
            "number": 64,
            "time": 75.54660905416641,
            "value": 1
          },
          {
            "number": 64,
            "time": 78.78914496249978,
            "value": 0
          },
          {
            "number": 64,
            "time": 78.83951807499977,
            "value": 0
          },
          {
            "number": 64,
            "time": 79.12869705416644,
            "value": 1
          },
          {
            "number": 64,
            "time": 80.54287554583311,
            "value": 0
          },
          {
            "number": 64,
            "time": 80.94772611666644,
            "value": 1
          },
          {
            "number": 64,
            "time": 82.57459108333325,
            "value": 0
          },
          {
            "number": 64,
            "time": 82.71078505416658,
            "value": 1
          },
          {
            "number": 64,
            "time": 84.26675452916676,
            "value": 0
          },
          {
            "number": 64,
            "time": 84.47757533333343,
            "value": 1
          },
          {
            "number": 64,
            "time": 86.07832090833385,
            "value": 0
          },
          {
            "number": 64,
            "time": 86.19585817083386,
            "value": 1
          },
          {
            "number": 64,
            "time": 87.75555898750055,
            "value": 0
          },
          {
            "number": 64,
            "time": 88.11190211666721,
            "value": 1
          },
          {
            "number": 64,
            "time": 89.73876708333391,
            "value": 0
          },
          {
            "number": 64,
            "time": 89.87496105416724,
            "value": 1
          },
          {
            "number": 64,
            "time": 91.43093052916734,
            "value": 0
          },
          {
            "number": 64,
            "time": 91.64175133333401,
            "value": 1
          },
          {
            "number": 64,
            "time": 93.24249690833403,
            "value": 0
          },
          {
            "number": 64,
            "time": 93.36003417083404,
            "value": 1
          },
          {
            "number": 64,
            "time": 94.91973498750092,
            "value": 0
          },
          {
            "number": 64,
            "time": 95.27607811666759,
            "value": 1
          },
          {
            "number": 64,
            "time": 96.90294308333425,
            "value": 0
          },
          {
            "number": 64,
            "time": 97.03913705416758,
            "value": 1
          },
          {
            "number": 64,
            "time": 98.59510652916778,
            "value": 0
          },
          {
            "number": 64,
            "time": 98.80592733333464,
            "value": 1
          },
          {
            "number": 64,
            "time": 100.40667290833518,
            "value": 0
          },
          {
            "number": 64,
            "time": 100.52421017083519,
            "value": 1
          },
          {
            "number": 64,
            "time": 102.08391098750188,
            "value": 0
          },
          {
            "number": 64,
            "time": 102.44025411666856,
            "value": 1
          },
          {
            "number": 64,
            "time": 104.06711908333523,
            "value": 0
          },
          {
            "number": 64,
            "time": 104.20331305416856,
            "value": 1
          },
          {
            "number": 64,
            "time": 105.75928252916897,
            "value": 0
          },
          {
            "number": 64,
            "time": 105.97010333333564,
            "value": 1
          },
          {
            "number": 64,
            "time": 107.5708489083362,
            "value": 0
          },
          {
            "number": 64,
            "time": 107.68838617083622,
            "value": 1
          },
          {
            "number": 64,
            "time": 109.24808698750292,
            "value": 0
          },
          {
            "number": 64,
            "time": 109.60443011666959,
            "value": 1
          },
          {
            "number": 64,
            "time": 111.23129508333626,
            "value": 0
          },
          {
            "number": 64,
            "time": 111.3674890541696,
            "value": 1
          },
          {
            "number": 64,
            "time": 112.92345852916966,
            "value": 0
          },
          {
            "number": 64,
            "time": 113.13427933333634,
            "value": 1
          },
          {
            "number": 64,
            "time": 114.73502490833634,
            "value": 0
          },
          {
            "number": 64,
            "time": 114.85256217083635,
            "value": 1
          },
          {
            "number": 64,
            "time": 117.98502350000308,
            "value": 0
          },
          {
            "number": 64,
            "time": 118.55965011666974,
            "value": 1
          },
          {
            "number": 64,
            "time": 121.81338005000308,
            "value": 0
          },
          {
            "number": 64,
            "time": 122.08949933333642,
            "value": 1
          },
          {
            "number": 64,
            "time": 125.42718445417,
            "value": 0
          },
          {
            "number": 64,
            "time": 125.70143806667001,
            "value": 1
          },
          {
            "number": 64,
            "time": 128.9887500750034,
            "value": 0
          },
          {
            "number": 64,
            "time": 129.27792905417007,
            "value": 1
          },
          {
            "number": 64,
            "time": 132.52046496250375,
            "value": 0
          },
          {
            "number": 64,
            "time": 132.88800211667044,
            "value": 1
          },
          {
            "number": 64,
            "time": 136.14173205000372,
            "value": 0
          },
          {
            "number": 64,
            "time": 136.41785133333704,
            "value": 1
          },
          {
            "number": 64,
            "time": 139.75553645417037,
            "value": 0
          },
          {
            "number": 64,
            "time": 140.02979006667024,
            "value": 1
          },
          {
            "number": 64,
            "time": 143.31710207500387,
            "value": 0
          },
          {
            "number": 64,
            "time": 143.60628105417047,
            "value": 1
          },
          {
            "number": 64,
            "time": 146.84881696250386,
            "value": 0
          },
          {
            "number": 64,
            "time": 146.89919007500384,
            "value": 0
          },
          {
            "number": 64,
            "time": 147.18836905417052,
            "value": 1
          },
          {
            "number": 64,
            "time": 148.8021743250039,
            "value": 0
          },
          {
            "number": 64,
            "time": 148.89918920833725,
            "value": 1
          },
          {
            "number": 64,
            "time": 150.43090496250397,
            "value": 0
          },
          {
            "number": 64,
            "time": 150.48127807500398,
            "value": 0
          },
          {
            "number": 64,
            "time": 150.77045705417066,
            "value": 1
          },
          {
            "number": 64,
            "time": 154.01299296250411,
            "value": 0
          },
          {
            "number": 64,
            "time": 154.0633660750041,
            "value": 0
          },
          {
            "number": 64,
            "time": 154.35254505417078,
            "value": 1
          },
          {
            "number": 64,
            "time": 156.0073950833375,
            "value": 0
          },
          {
            "number": 64,
            "time": 156.11560399167084,
            "value": 1
          },
          {
            "number": 64,
            "time": 157.6118720000042,
            "value": 0
          },
          {
            "number": 64,
            "time": 157.9346330541709,
            "value": 1
          },
          {
            "number": 64,
            "time": 161.17716896250454,
            "value": 0
          },
          {
            "number": 64,
            "time": 161.22754207500455,
            "value": 0
          },
          {
            "number": 64,
            "time": 161.51672105417123,
            "value": 1
          },
          {
            "number": 64,
            "time": 164.71261519167138,
            "value": 0
          },
          {
            "number": 64,
            "time": 165.12679411667133,
            "value": 1
          },
          {
            "number": 64,
            "time": 166.75365908333808,
            "value": 0
          },
          {
            "number": 64,
            "time": 166.88985305417143,
            "value": 1
          },
          {
            "number": 64,
            "time": 168.44582252917127,
            "value": 0
          },
          {
            "number": 64,
            "time": 168.6566433333379,
            "value": 1
          },
          {
            "number": 64,
            "time": 170.25738890833753,
            "value": 0
          },
          {
            "number": 64,
            "time": 170.37492617083754,
            "value": 1
          },
          {
            "number": 64,
            "time": 171.93462698750426,
            "value": 0
          },
          {
            "number": 64,
            "time": 172.29097011667093,
            "value": 1
          },
          {
            "number": 64,
            "time": 173.9178350833377,
            "value": 0
          },
          {
            "number": 64,
            "time": 174.05402905417102,
            "value": 1
          },
          {
            "number": 64,
            "time": 175.60999852917087,
            "value": 0
          },
          {
            "number": 64,
            "time": 175.82081933333754,
            "value": 1
          },
          {
            "number": 64,
            "time": 177.4215649083376,
            "value": 0
          },
          {
            "number": 64,
            "time": 177.53910217083757,
            "value": 1
          },
          {
            "number": 64,
            "time": 179.09880298750426,
            "value": 0
          },
          {
            "number": 64,
            "time": 179.45514611667093,
            "value": 1
          },
          {
            "number": 64,
            "time": 181.08201108333745,
            "value": 0
          },
          {
            "number": 64,
            "time": 181.21820505417085,
            "value": 1
          },
          {
            "number": 64,
            "time": 182.77417452917078,
            "value": 0
          },
          {
            "number": 64,
            "time": 182.9849953333374,
            "value": 1
          },
          {
            "number": 64,
            "time": 184.58574090833716,
            "value": 0
          },
          {
            "number": 64,
            "time": 184.70327817083714,
            "value": 1
          },
          {
            "number": 64,
            "time": 186.2629789875039,
            "value": 0
          },
          {
            "number": 64,
            "time": 186.6193221166706,
            "value": 1
          },
          {
            "number": 64,
            "time": 188.24618708333722,
            "value": 0
          },
          {
            "number": 64,
            "time": 188.38238105417057,
            "value": 1
          },
          {
            "number": 64,
            "time": 189.93835052917018,
            "value": 0
          },
          {
            "number": 64,
            "time": 190.14917133333682,
            "value": 1
          },
          {
            "number": 64,
            "time": 191.74991690833687,
            "value": 0
          },
          {
            "number": 64,
            "time": 191.86745417083685,
            "value": 1
          },
          {
            "number": 64,
            "time": 193.42715498750331,
            "value": 0
          },
          {
            "number": 64,
            "time": 193.78349811667,
            "value": 1
          },
          {
            "number": 64,
            "time": 195.4103630833372,
            "value": 0
          },
          {
            "number": 64,
            "time": 195.54655705417053,
            "value": 1
          },
          {
            "number": 64,
            "time": 197.10252652917055,
            "value": 0
          },
          {
            "number": 64,
            "time": 197.31334733333722,
            "value": 1
          },
          {
            "number": 64,
            "time": 200.56148025417068,
            "value": 0
          },
          {
            "number": 64,
            "time": 200.94767411667067,
            "value": 1
          },
          {
            "number": 64,
            "time": 202.5745390833375,
            "value": 0
          },
          {
            "number": 64,
            "time": 202.71073305417084,
            "value": 1
          },
          {
            "number": 64,
            "time": 204.26670252917086,
            "value": 0
          },
          {
            "number": 64,
            "time": 204.47752333333753,
            "value": 1
          },
          {
            "number": 64,
            "time": 206.10438830000433,
            "value": 0
          },
          {
            "number": 64,
            "time": 206.19394050000435,
            "value": 1
          },
          {
            "number": 64,
            "time": 207.97005913333777,
            "value": 0
          },
          {
            "number": 64,
            "time": 208.21446201250444,
            "value": 1
          },
          {
            "number": 64,
            "time": 211.30587858333783,
            "value": 0
          },
          {
            "number": 64,
            "time": 212.63050487500456,
            "value": 1
          },
          {
            "number": 64,
            "time": 213.24244490833794,
            "value": 0
          },
          {
            "number": 64,
            "time": 213.82639987917128,
            "value": 1
          },
          {
            "number": 64,
            "time": 214.96632475833798,
            "value": 0
          },
          {
            "number": 64,
            "time": 215.93460792083795,
            "value": 1
          },
          {
            "number": 64,
            "time": 216.66221954583793,
            "value": 0
          },
          {
            "number": 64,
            "time": 218.02602492500415,
            "value": 1
          },
          {
            "number": 64,
            "time": 218.5969202000042,
            "value": 0
          },
          {
            "number": 64,
            "time": 218.60624855417086,
            "value": 0
          },
          {
            "number": 64,
            "time": 218.7312485000042,
            "value": 1
          },
          {
            "number": 64,
            "time": 220.4066209083376,
            "value": 0
          },
          {
            "number": 64,
            "time": 220.99057587917096,
            "value": 1
          },
          {
            "number": 64,
            "time": 222.1305007583376,
            "value": 0
          },
          {
            "number": 64,
            "time": 223.0987839208376,
            "value": 1
          },
          {
            "number": 64,
            "time": 223.82639554583758,
            "value": 0
          },
          {
            "number": 64,
            "time": 225.36930532500438,
            "value": 1
          },
          {
            "number": 64,
            "time": 225.89542450000437,
            "value": 1
          },
          {
            "number": 64,
            "time": 227.5465431875045,
            "value": 0
          },
          {
            "number": 64,
            "time": 227.60064764167117,
            "value": 1
          },
          {
            "number": 64,
            "time": 229.27602005000446,
            "value": 0
          },
          {
            "number": 64,
            "time": 229.55213933333775,
            "value": 1
          },
          {
            "number": 64,
            "time": 231.08945210000414,
            "value": 0
          },
          {
            "number": 64,
            "time": 231.1379595416708,
            "value": 1
          },
          {
            "number": 64,
            "time": 233.05960050000417,
            "value": 1
          },
          {
            "number": 64,
            "time": 234.7107191875042,
            "value": 0
          },
          {
            "number": 64,
            "time": 234.7722863250042,
            "value": 1
          },
          {
            "number": 64,
            "time": 236.44019605000378,
            "value": 0
          },
          {
            "number": 64,
            "time": 236.7163153333371,
            "value": 1
          },
          {
            "number": 64,
            "time": 238.30213554166997,
            "value": 0
          },
          {
            "number": 64,
            "time": 238.37489670416997,
            "value": 1
          },
          {
            "number": 64,
            "time": 239.97377660833666,
            "value": 0
          },
          {
            "number": 64,
            "time": 240.35064211667,
            "value": 1
          },
          {
            "number": 64,
            "time": 241.97750708333675,
            "value": 0
          },
          {
            "number": 64,
            "time": 242.1137010541701,
            "value": 1
          },
          {
            "number": 64,
            "time": 243.66967052916993,
            "value": 0
          },
          {
            "number": 64,
            "time": 243.88049133333658,
            "value": 1
          },
          {
            "number": 64,
            "time": 245.4812369083362,
            "value": 0
          },
          {
            "number": 64,
            "time": 245.5987741708362,
            "value": 1
          },
          {
            "number": 64,
            "time": 247.15847498750296,
            "value": 0
          },
          {
            "number": 64,
            "time": 247.51481811666963,
            "value": 1
          },
          {
            "number": 64,
            "time": 249.1416830833364,
            "value": 0
          },
          {
            "number": 64,
            "time": 249.2778770541698,
            "value": 1
          },
          {
            "number": 64,
            "time": 250.8338465291696,
            "value": 0
          },
          {
            "number": 64,
            "time": 251.04466733333626,
            "value": 1
          },
          {
            "number": 64,
            "time": 252.6454129083363,
            "value": 0
          },
          {
            "number": 64,
            "time": 252.7629501708363,
            "value": 1
          },
          {
            "number": 64,
            "time": 254.32265098750298,
            "value": 0
          },
          {
            "number": 64,
            "time": 254.67899411666966,
            "value": 1
          },
          {
            "number": 64,
            "time": 256.3058590833364,
            "value": 0
          },
          {
            "number": 64,
            "time": 256.4420530541697,
            "value": 1
          },
          {
            "number": 64,
            "time": 257.9980225291703,
            "value": 0
          },
          {
            "number": 64,
            "time": 258.2088433333374,
            "value": 1
          },
          {
            "number": 64,
            "time": 259.8095889083389,
            "value": 0
          },
          {
            "number": 64,
            "time": 259.92712617083896,
            "value": 1
          },
          {
            "number": 64,
            "time": 261.4868269875056,
            "value": 0
          },
          {
            "number": 64,
            "time": 261.8431701166723,
            "value": 1
          },
          {
            "number": 64,
            "time": 263.47003508333904,
            "value": 0
          },
          {
            "number": 64,
            "time": 263.6062290541724,
            "value": 1
          },
          {
            "number": 64,
            "time": 265.1621985291735,
            "value": 0
          },
          {
            "number": 64,
            "time": 265.3730193333402,
            "value": 1
          },
          {
            "number": 64,
            "time": 266.9737649083406,
            "value": 0
          },
          {
            "number": 64,
            "time": 267.0913021708407,
            "value": 1
          },
          {
            "number": 64,
            "time": 268.65100298750735,
            "value": 0
          },
          {
            "number": 64,
            "time": 269.00734611667406,
            "value": 1
          },
          {
            "number": 64,
            "time": 270.63421108334074,
            "value": 0
          },
          {
            "number": 64,
            "time": 270.7704050541741,
            "value": 1
          },
          {
            "number": 64,
            "time": 272.326374529174,
            "value": 0
          },
          {
            "number": 64,
            "time": 272.5371953333407,
            "value": 1
          },
          {
            "number": 64,
            "time": 274.13794090834074,
            "value": 0
          },
          {
            "number": 64,
            "time": 274.2554781708408,
            "value": 1
          },
          {
            "number": 64,
            "time": 277.6062229875076,
            "value": 0
          },
          {
            "number": 64,
            "time": 277.7200289083409,
            "value": 0
          },
          {
            "number": 64,
            "time": 277.83756617084094,
            "value": 1
          },
          {
            "number": 64,
            "time": 279.483087845841,
            "value": 0
          },
          {
            "number": 64,
            "time": 279.57077437500766,
            "value": 1
          },
          {
            "number": 64,
            "time": 281.18831098750775,
            "value": 0
          },
          {
            "number": 64,
            "time": 281.3021169083411,
            "value": 0
          },
          {
            "number": 64,
            "time": 281.4196541708411,
            "value": 1
          },
          {
            "number": 64,
            "time": 284.77039898750786,
            "value": 0
          }
        ],
        "91": [
          {
            "number": 91,
            "time": 1.2985069,
            "value": 0
          },
          {
            "number": 91,
            "time": 1.5951485625,
            "value": 0.3779527559055118
          },
          {
            "number": 91,
            "time": 1.7444022291666665,
            "value": 0.6299212598425197
          },
          {
            "number": 91,
            "time": 1.8283574166666665,
            "value": 0.6299212598425197
          },
          {
            "number": 91,
            "time": 1.8283574166666665,
            "value": 0.6299212598425197
          }
        ],
        "93": [
          {
            "number": 93,
            "time": 1.3283576333333333,
            "value": 0
          },
          {
            "number": 93,
            "time": 1.5858202083333333,
            "value": 0.1889763779527559
          },
          {
            "number": 93,
            "time": 1.8041036958333332,
            "value": 0
          },
          {
            "number": 93,
            "time": 1.8880588833333332,
            "value": 0
          },
          {
            "number": 93,
            "time": 1.8880588833333332,
            "value": 0
          }
        ],
        "94": [
          {
            "number": 94,
            "time": 1.8787305291666665,
            "value": 0
          },
          {
            "number": 94,
            "time": 1.9626857166666665,
            "value": 0
          },
          {
            "number": 94,
            "time": 1.9626857166666665,
            "value": 0
          }
        ],
        "121": [
          {
            "number": 121,
            "time": 0.895522,
            "value": 0
          },
          {
            "number": 121,
            "time": 0.895522,
            "value": 0
          },
          {
            "number": 121,
            "time": 0.895522,
            "value": 0
          },
          {
            "number": 121,
            "time": 1.0429099958333334,
            "value": 0
          },
          {
            "number": 121,
            "time": 1.5671635,
            "value": 0
          }
        ]
      },
      "id": 0,
      "name": "Someone Like You",
      "instrumentNumber": 0,
      "instrument": "standard kit",
      "instrumentFamily": "drums",
      "channelNumber": 9,
      "isPercussion": true
    }
  ]
}