{
  "header": {
    "PPQ": 1024,
    "timeSignature": [
      2,
      2
    ],
    "bpm": 100,
    "name": "mario"
  },
  "startTime": 0,
  "duration": 349.5076171874991,
  "tracks": [
    {
      "startTime": 0,
      "duration": 0,
      "length": 0,
      "notes": [],
      "controlChanges": {},
      "id": 0
    },
    {
      "startTime": 0,
      "duration": 0,
      "length": 0,
      "notes": [],
      "controlChanges": {
        "7": [
          {
            "number": 7,
            "time": 0,
            "value": 0.7952755905511811
          }
        ],
        "10": [
          {
            "number": 10,
            "time": 0,
            "value": 0.5039370078740157
          }
        ]
      },
      "id": 1,
      "name": "Piano",
      "instrumentNumber": 0,
      "instrument": "acoustic grand piano",
      "instrumentFamily": "piano",
      "channelNumber": 0,
      "isPercussion": false
    },
    {
      "startTime": 0.0029296875,
      "duration": 349.5076171874991,
      "length": 1224,
      "notes": [
        {
          "name": "F#4",
          "midi": 66,
          "time": 0.0029296875,
          "velocity": 0.48031496062992124,
          "duration": 0.3046875
        },
        {
          "name": "E5",
          "midi": 76,
          "time": 0.0029296875,
          "velocity": 0.5590551181102362,
          "duration": 0.3046875
        },
        {
          "name": "F#4",
          "midi": 66,
          "time": 0.30791015625,
          "velocity": 0.4409448818897638,
          "duration": 0.29853515625
        },
        {
          "name": "E5",
          "midi": 76,
          "time": 0.30791015625,
          "velocity": 0.5196850393700787,
          "duration": 0.29853515625
        },
        {
          "name": "F#4",
          "midi": 66,
          "time": 0.90322265625,
          "velocity": 0.4409448818897638,
          "duration": 0.296484375
        },
        {
          "name": "E5",
          "midi": 76,
          "time": 0.90322265625,
          "velocity": 0.5511811023622047,
          "duration": 0.296484375
        },
        {
          "name": "F#4",
          "midi": 66,
          "time": 1.50791015625,
          "velocity": 0.4409448818897638,
          "duration": 0.29853515625000004
        },
        {
          "name": "C5",
          "midi": 72,
          "time": 1.50791015625,
          "velocity": 0.5511811023622047,
          "duration": 0.29853515625000004
        },
        {
          "name": "F#4",
          "midi": 66,
          "time": 1.80673828125,
          "velocity": 0.4409448818897638,
          "duration": 0.2961914062500002
        },
        {
          "name": "E5",
          "midi": 76,
          "time": 1.80673828125,
          "velocity": 0.5511811023622047,
          "duration": 0.2961914062500002
        },
        {
          "name": "G4",
          "midi": 67,
          "time": 2.4,
          "velocity": 0.48031496062992124,
          "duration": 0.3076171875
        },
        {
          "name": "B4",
          "midi": 71,
          "time": 2.4,
          "velocity": 0.48031496062992124,
          "duration": 0.3076171875
        },
        {
          "name": "G5",
          "midi": 79,
          "time": 2.4,
          "velocity": 0.5905511811023622,
          "duration": 0.3076171875
        },
        {
          "name": "G4",
          "midi": 67,
          "time": 3.5999999999999996,
          "velocity": 0.5433070866141733,
          "duration": 0.3076171875
        },
        {
          "name": "E4",
          "midi": 64,
          "time": 4.8,
          "velocity": 0.48031496062992124,
          "duration": 0.3076171875
        },
        {
          "name": "C5",
          "midi": 72,
          "time": 4.8,
          "velocity": 0.5905511811023622,
          "duration": 0.3076171875
        },
        {
          "name": "C4",
          "midi": 60,
          "time": 5.7032226562499995,
          "velocity": 0.4409448818897638,
          "duration": 0.29648437500000036
        },
        {
          "name": "G4",
          "midi": 67,
          "time": 5.7032226562499995,
          "velocity": 0.5511811023622047,
          "duration": 0.29648437500000036
        },
        {
          "name": "G3",
          "midi": 55,
          "time": 6.60673828125,
          "velocity": 0.4409448818897638,
          "duration": 0.2961914062500002
        },
        {
          "name": "E4",
          "midi": 64,
          "time": 6.60673828125,
          "velocity": 0.5511811023622047,
          "duration": 0.2961914062500002
        },
        {
          "name": "C4",
          "midi": 60,
          "time": 7.50791015625,
          "velocity": 0.4409448818897638,
          "duration": 0.2985351562499998
        },
        {
          "name": "A4",
          "midi": 69,
          "time": 7.50791015625,
          "velocity": 0.5511811023622047,
          "duration": 0.2985351562499998
        },
        {
          "name": "D4",
          "midi": 62,
          "time": 8.10322265625,
          "velocity": 0.4409448818897638,
          "duration": 0.29648437500000036
        },
        {
          "name": "B4",
          "midi": 71,
          "time": 8.10322265625,
          "velocity": 0.5511811023622047,
          "duration": 0.29648437500000036
        },
        {
          "name": "C#4",
          "midi": 61,
          "time": 8.707910156250001,
          "velocity": 0.4409448818897638,
          "duration": 0.2985351562500007
        },
        {
          "name": "A#4",
          "midi": 70,
          "time": 8.707910156250001,
          "velocity": 0.5511811023622047,
          "duration": 0.2985351562500007
        },
        {
          "name": "C4",
          "midi": 60,
          "time": 9.006738281250001,
          "velocity": 0.4409448818897638,
          "duration": 0.2961914062499993
        },
        {
          "name": "A4",
          "midi": 69,
          "time": 9.006738281250001,
          "velocity": 0.5511811023622047,
          "duration": 0.2961914062499993
        },
        {
          "name": "C4",
          "midi": 60,
          "time": 9.600000000000001,
          "velocity": 0.48031496062992124,
          "duration": 0.2062500000000007
        },
        {
          "name": "G4",
          "midi": 67,
          "time": 9.600000000000001,
          "velocity": 0.5905511811023622,
          "duration": 0.2062500000000007
        },
        {
          "name": "G4",
          "midi": 67,
          "time": 10.006347656250002,
          "velocity": 0.4409448818897638,
          "duration": 0.1995117187499993
        },
        {
          "name": "E5",
          "midi": 76,
          "time": 10.006347656250002,
          "velocity": 0.5511811023622047,
          "duration": 0.1995117187499993
        },
        {
          "name": "B4",
          "midi": 71,
          "time": 10.406250000000002,
          "velocity": 0.4409448818897638,
          "duration": 0.1936523437499993
        },
        {
          "name": "G5",
          "midi": 79,
          "time": 10.406250000000002,
          "velocity": 0.5511811023622047,
          "duration": 0.1936523437499993
        },
        {
          "name": "C5",
          "midi": 72,
          "time": 10.8,
          "velocity": 0.48031496062992124,
          "duration": 0.3076171875
        },
        {
          "name": "A5",
          "midi": 81,
          "time": 10.8,
          "velocity": 0.5905511811023622,
          "duration": 0.3076171875
        },
        {
          "name": "A4",
          "midi": 69,
          "time": 11.40673828125,
          "velocity": 0.4409448818897638,
          "duration": 0.2961914062499993
        },
        {
          "name": "F5",
          "midi": 77,
          "time": 11.40673828125,
          "velocity": 0.5511811023622047,
          "duration": 0.2961914062499993
        },
        {
          "name": "B4",
          "midi": 71,
          "time": 11.703222656249999,
          "velocity": 0.4409448818897638,
          "duration": 0.29648437500000036
        },
        {
          "name": "G5",
          "midi": 79,
          "time": 11.703222656249999,
          "velocity": 0.5511811023622047,
          "duration": 0.29648437500000036
        },
        {
          "name": "A4",
          "midi": 69,
          "time": 12.30791015625,
          "velocity": 0.4409448818897638,
          "duration": 0.2985351562500007
        },
        {
          "name": "E5",
          "midi": 76,
          "time": 12.30791015625,
          "velocity": 0.5511811023622047,
          "duration": 0.2985351562500007
        },
        {
          "name": "E4",
          "midi": 64,
          "time": 12.90322265625,
          "velocity": 0.4409448818897638,
          "duration": 0.29648437500000036
        },
        {
          "name": "C5",
          "midi": 72,
          "time": 12.90322265625,
          "velocity": 0.5511811023622047,
          "duration": 0.29648437500000036
        },
        {
          "name": "F4",
          "midi": 65,
          "time": 13.2,
          "velocity": 0.48031496062992124,
          "duration": 0.3076171875
        },
        {
          "name": "D5",
          "midi": 74,
          "time": 13.2,
          "velocity": 0.5905511811023622,
          "duration": 0.3076171875
        },
        {
          "name": "D4",
          "midi": 62,
          "time": 13.507910156249999,
          "velocity": 0.4409448818897638,
          "duration": 0.2985351562500007
        },
        {
          "name": "B4",
          "midi": 71,
          "time": 13.507910156249999,
          "velocity": 0.5511811023622047,
          "duration": 0.2985351562500007
        },
        {
          "name": "E4",
          "midi": 64,
          "time": 14.399999999999999,
          "velocity": 0.48031496062992124,
          "duration": 0.3076171875
        },
        {
          "name": "C5",
          "midi": 72,
          "time": 14.399999999999999,
          "velocity": 0.5905511811023622,
          "duration": 0.3076171875
        },
        {
          "name": "C4",
          "midi": 60,
          "time": 15.303222656249998,
          "velocity": 0.4409448818897638,
          "duration": 0.29648437500000036
        },
        {
          "name": "G4",
          "midi": 67,
          "time": 15.303222656249998,
          "velocity": 0.5511811023622047,
          "duration": 0.29648437500000036
        },
        {
          "name": "G3",
          "midi": 55,
          "time": 16.206738281249997,
          "velocity": 0.4409448818897638,
          "duration": 0.2961914062499993
        },
        {
          "name": "E4",
          "midi": 64,
          "time": 16.206738281249997,
          "velocity": 0.5511811023622047,
          "duration": 0.2961914062499993
        },
        {
          "name": "C4",
          "midi": 60,
          "time": 17.107910156249996,
          "velocity": 0.4409448818897638,
          "duration": 0.2985351562500007
        },
        {
          "name": "A4",
          "midi": 69,
          "time": 17.107910156249996,
          "velocity": 0.5511811023622047,
          "duration": 0.2985351562500007
        },
        {
          "name": "D4",
          "midi": 62,
          "time": 17.70322265625,
          "velocity": 0.4409448818897638,
          "duration": 0.2964843749999986
        },
        {
          "name": "B4",
          "midi": 71,
          "time": 17.70322265625,
          "velocity": 0.5511811023622047,
          "duration": 0.2964843749999986
        },
        {
          "name": "C#4",
          "midi": 61,
          "time": 18.307910156249996,
          "velocity": 0.4409448818897638,
          "duration": 0.2985351562500007
        },
        {
          "name": "A#4",
          "midi": 70,
          "time": 18.307910156249996,
          "velocity": 0.5511811023622047,
          "duration": 0.2985351562500007
        },
        {
          "name": "C4",
          "midi": 60,
          "time": 18.606738281249996,
          "velocity": 0.4409448818897638,
          "duration": 0.2961914062499993
        },
        {
          "name": "A4",
          "midi": 69,
          "time": 18.606738281249996,
          "velocity": 0.5511811023622047,
          "duration": 0.2961914062499993
        },
        {
          "name": "C4",
          "midi": 60,
          "time": 19.199999999999996,
          "velocity": 0.48031496062992124,
          "duration": 0.2062500000000007
        },
        {
          "name": "G4",
          "midi": 67,
          "time": 19.199999999999996,
          "velocity": 0.5905511811023622,
          "duration": 0.2062500000000007
        },
        {
          "name": "G4",
          "midi": 67,
          "time": 19.606347656249998,
          "velocity": 0.4409448818897638,
          "duration": 0.1995117187499993
        },
        {
          "name": "E5",
          "midi": 76,
          "time": 19.606347656249998,
          "velocity": 0.5511811023622047,
          "duration": 0.1995117187499993
        },
        {
          "name": "B4",
          "midi": 71,
          "time": 20.006249999999998,
          "velocity": 0.4409448818897638,
          "duration": 0.1936523437499993
        },
        {
          "name": "G5",
          "midi": 79,
          "time": 20.006249999999998,
          "velocity": 0.5511811023622047,
          "duration": 0.1936523437499993
        },
        {
          "name": "C5",
          "midi": 72,
          "time": 20.4,
          "velocity": 0.48031496062992124,
          "duration": 0.3076171875
        },
        {
          "name": "A5",
          "midi": 81,
          "time": 20.4,
          "velocity": 0.5905511811023622,
          "duration": 0.3076171875
        },
        {
          "name": "A4",
          "midi": 69,
          "time": 21.006738281249998,
          "velocity": 0.4409448818897638,
          "duration": 0.2961914062499993
        },
        {
          "name": "F5",
          "midi": 77,
          "time": 21.006738281249998,
          "velocity": 0.5511811023622047,
          "duration": 0.2961914062499993
        },
        {
          "name": "B4",
          "midi": 71,
          "time": 21.303222656249996,
          "velocity": 0.4409448818897638,
          "duration": 0.2964843749999986
        },
        {
          "name": "G5",
          "midi": 79,
          "time": 21.303222656249996,
          "velocity": 0.5511811023622047,
          "duration": 0.2964843749999986
        },
        {
          "name": "A4",
          "midi": 69,
          "time": 21.907910156249994,
          "velocity": 0.4409448818897638,
          "duration": 0.2985351562500007
        },
        {
          "name": "E5",
          "midi": 76,
          "time": 21.907910156249994,
          "velocity": 0.5511811023622047,
          "duration": 0.2985351562500007
        },
        {
          "name": "E4",
          "midi": 64,
          "time": 22.503222656249996,
          "velocity": 0.4409448818897638,
          "duration": 0.2964843749999986
        },
        {
          "name": "C5",
          "midi": 72,
          "time": 22.503222656249996,
          "velocity": 0.5511811023622047,
          "duration": 0.2964843749999986
        },
        {
          "name": "F4",
          "midi": 65,
          "time": 22.799999999999994,
          "velocity": 0.48031496062992124,
          "duration": 0.3076171875
        },
        {
          "name": "D5",
          "midi": 74,
          "time": 22.799999999999994,
          "velocity": 0.5905511811023622,
          "duration": 0.3076171875
        },
        {
          "name": "D4",
          "midi": 62,
          "time": 23.107910156249993,
          "velocity": 0.4409448818897638,
          "duration": 0.2985351562500007
        },
        {
          "name": "B4",
          "midi": 71,
          "time": 23.107910156249993,
          "velocity": 0.5511811023622047,
          "duration": 0.2985351562500007
        },
        {
          "name": "E5",
          "midi": 76,
          "time": 24.606738281249992,
          "velocity": 0.4409448818897638,
          "duration": 0.2961914062499993
        },
        {
          "name": "G5",
          "midi": 79,
          "time": 24.606738281249992,
          "velocity": 0.5511811023622047,
          "duration": 0.2961914062499993
        },
        {
          "name": "D#5",
          "midi": 75,
          "time": 24.90322265624999,
          "velocity": 0.4409448818897638,
          "duration": 0.2964843749999986
        },
        {
          "name": "F#5",
          "midi": 78,
          "time": 24.90322265624999,
          "velocity": 0.5511811023622047,
          "duration": 0.2964843749999986
        },
        {
          "name": "D5",
          "midi": 74,
          "time": 25.19999999999999,
          "velocity": 0.48031496062992124,
          "duration": 0.3076171875
        },
        {
          "name": "F5",
          "midi": 77,
          "time": 25.19999999999999,
          "velocity": 0.5905511811023622,
          "duration": 0.3076171875
        },
        {
          "name": "B4",
          "midi": 71,
          "time": 25.507910156249988,
          "velocity": 0.4409448818897638,
          "duration": 0.2985351562500007
        },
        {
          "name": "D#5",
          "midi": 75,
          "time": 25.507910156249988,
          "velocity": 0.5511811023622047,
          "duration": 0.2985351562500007
        },
        {
          "name": "C5",
          "midi": 72,
          "time": 26.10322265624999,
          "velocity": 0.4409448818897638,
          "duration": 0.2964843749999986
        },
        {
          "name": "E5",
          "midi": 76,
          "time": 26.10322265624999,
          "velocity": 0.5511811023622047,
          "duration": 0.2964843749999986
        },
        {
          "name": "E4",
          "midi": 64,
          "time": 26.707910156249987,
          "velocity": 0.4409448818897638,
          "duration": 0.2985351562500007
        },
        {
          "name": "G#4",
          "midi": 68,
          "time": 26.707910156249987,
          "velocity": 0.5511811023622047,
          "duration": 0.2985351562500007
        },
        {
          "name": "F4",
          "midi": 65,
          "time": 27.006738281249987,
          "velocity": 0.4409448818897638,
          "duration": 0.2961914062499993
        },
        {
          "name": "A4",
          "midi": 69,
          "time": 27.006738281249987,
          "velocity": 0.5511811023622047,
          "duration": 0.2961914062499993
        },
        {
          "name": "G4",
          "midi": 67,
          "time": 27.303222656249986,
          "velocity": 0.4409448818897638,
          "duration": 0.2964843749999986
        },
        {
          "name": "C5",
          "midi": 72,
          "time": 27.303222656249986,
          "velocity": 0.5511811023622047,
          "duration": 0.2964843749999986
        },
        {
          "name": "C4",
          "midi": 60,
          "time": 27.907910156249983,
          "velocity": 0.4409448818897638,
          "duration": 0.2985351562500007
        },
        {
          "name": "A4",
          "midi": 69,
          "time": 27.907910156249983,
          "velocity": 0.5511811023622047,
          "duration": 0.2985351562500007
        },
        {
          "name": "E4",
          "midi": 64,
          "time": 28.206738281249983,
          "velocity": 0.4409448818897638,
          "duration": 0.2961914062499993
        },
        {
          "name": "C5",
          "midi": 72,
          "time": 28.206738281249983,
          "velocity": 0.5511811023622047,
          "duration": 0.2961914062499993
        },
        {
          "name": "F4",
          "midi": 65,
          "time": 28.50322265624998,
          "velocity": 0.4409448818897638,
          "duration": 0.2964843749999986
        },
        {
          "name": "D5",
          "midi": 74,
          "time": 28.50322265624998,
          "velocity": 0.5511811023622047,
          "duration": 0.2964843749999986
        },
        {
          "name": "E5",
          "midi": 76,
          "time": 29.40673828124998,
          "velocity": 0.4409448818897638,
          "duration": 0.2961914062499993
        },
        {
          "name": "G5",
          "midi": 79,
          "time": 29.40673828124998,
          "velocity": 0.5511811023622047,
          "duration": 0.2961914062499993
        },
        {
          "name": "D#5",
          "midi": 75,
          "time": 29.703222656249977,
          "velocity": 0.4409448818897638,
          "duration": 0.2964843749999986
        },
        {
          "name": "F#5",
          "midi": 78,
          "time": 29.703222656249977,
          "velocity": 0.5511811023622047,
          "duration": 0.2964843749999986
        },
        {
          "name": "D5",
          "midi": 74,
          "time": 29.999999999999975,
          "velocity": 0.48031496062992124,
          "duration": 0.3076171875
        },
        {
          "name": "F5",
          "midi": 77,
          "time": 29.999999999999975,
          "velocity": 0.5905511811023622,
          "duration": 0.3076171875
        },
        {
          "name": "B4",
          "midi": 71,
          "time": 30.307910156249974,
          "velocity": 0.4409448818897638,
          "duration": 0.2985351562500007
        },
        {
          "name": "D#5",
          "midi": 75,
          "time": 30.307910156249974,
          "velocity": 0.5511811023622047,
          "duration": 0.2985351562500007
        },
        {
          "name": "C5",
          "midi": 72,
          "time": 30.903222656249977,
          "velocity": 0.4409448818897638,
          "duration": 0.2964843749999986
        },
        {
          "name": "E5",
          "midi": 76,
          "time": 30.903222656249977,
          "velocity": 0.5511811023622047,
          "duration": 0.2964843749999986
        },
        {
          "name": "F5",
          "midi": 77,
          "time": 31.507910156249974,
          "velocity": 0.4409448818897638,
          "duration": 0.2985351562500007
        },
        {
          "name": "G5",
          "midi": 79,
          "time": 31.507910156249974,
          "velocity": 0.4409448818897638,
          "duration": 0.2985351562500007
        },
        {
          "name": "C6",
          "midi": 84,
          "time": 31.507910156249974,
          "velocity": 0.5511811023622047,
          "duration": 0.2985351562500007
        },
        {
          "name": "F5",
          "midi": 77,
          "time": 32.103222656249976,
          "velocity": 0.4409448818897638,
          "duration": 0.2964843749999986
        },
        {
          "name": "G5",
          "midi": 79,
          "time": 32.103222656249976,
          "velocity": 0.4409448818897638,
          "duration": 0.2964843749999986
        },
        {
          "name": "C6",
          "midi": 84,
          "time": 32.103222656249976,
          "velocity": 0.5196850393700787,
          "duration": 0.2964843749999986
        },
        {
          "name": "F5",
          "midi": 77,
          "time": 32.39999999999998,
          "velocity": 0.48031496062992124,
          "duration": 0.3076171875
        },
        {
          "name": "G5",
          "midi": 79,
          "time": 32.39999999999998,
          "velocity": 0.48031496062992124,
          "duration": 0.3076171875
        },
        {
          "name": "C6",
          "midi": 84,
          "time": 32.39999999999998,
          "velocity": 0.5905511811023622,
          "duration": 0.3076171875
        },
        {
          "name": "E5",
          "midi": 76,
          "time": 34.206738281249976,
          "velocity": 0.4409448818897638,
          "duration": 0.29619140625000284
        },
        {
          "name": "G5",
          "midi": 79,
          "time": 34.206738281249976,
          "velocity": 0.5511811023622047,
          "duration": 0.29619140625000284
        },
        {
          "name": "D#5",
          "midi": 75,
          "time": 34.50322265624998,
          "velocity": 0.4409448818897638,
          "duration": 0.2964843749999986
        },
        {
          "name": "F#5",
          "midi": 78,
          "time": 34.50322265624998,
          "velocity": 0.5511811023622047,
          "duration": 0.2964843749999986
        },
        {
          "name": "D5",
          "midi": 74,
          "time": 34.79999999999998,
          "velocity": 0.48031496062992124,
          "duration": 0.3076171875
        },
        {
          "name": "F5",
          "midi": 77,
          "time": 34.79999999999998,
          "velocity": 0.5905511811023622,
          "duration": 0.3076171875
        },
        {
          "name": "B4",
          "midi": 71,
          "time": 35.107910156249986,
          "velocity": 0.4409448818897638,
          "duration": 0.29853515624999716
        },
        {
          "name": "D#5",
          "midi": 75,
          "time": 35.107910156249986,
          "velocity": 0.5511811023622047,
          "duration": 0.29853515624999716
        },
        {
          "name": "C5",
          "midi": 72,
          "time": 35.703222656249984,
          "velocity": 0.4409448818897638,
          "duration": 0.2964843749999986
        },
        {
          "name": "E5",
          "midi": 76,
          "time": 35.703222656249984,
          "velocity": 0.5511811023622047,
          "duration": 0.2964843749999986
        },
        {
          "name": "E4",
          "midi": 64,
          "time": 36.30791015624998,
          "velocity": 0.4409448818897638,
          "duration": 0.29853515624999716
        },
        {
          "name": "G#4",
          "midi": 68,
          "time": 36.30791015624998,
          "velocity": 0.5511811023622047,
          "duration": 0.29853515624999716
        },
        {
          "name": "F4",
          "midi": 65,
          "time": 36.60673828124998,
          "velocity": 0.4409448818897638,
          "duration": 0.29619140625000284
        },
        {
          "name": "A4",
          "midi": 69,
          "time": 36.60673828124998,
          "velocity": 0.5511811023622047,
          "duration": 0.29619140625000284
        },
        {
          "name": "G4",
          "midi": 67,
          "time": 36.90322265624999,
          "velocity": 0.4409448818897638,
          "duration": 0.2964843749999986
        },
        {
          "name": "C5",
          "midi": 72,
          "time": 36.90322265624999,
          "velocity": 0.5511811023622047,
          "duration": 0.2964843749999986
        },
        {
          "name": "C4",
          "midi": 60,
          "time": 37.507910156249984,
          "velocity": 0.4409448818897638,
          "duration": 0.29853515624999716
        },
        {
          "name": "A4",
          "midi": 69,
          "time": 37.507910156249984,
          "velocity": 0.5511811023622047,
          "duration": 0.29853515624999716
        },
        {
          "name": "E4",
          "midi": 64,
          "time": 37.806738281249984,
          "velocity": 0.4409448818897638,
          "duration": 0.29619140625000284
        },
        {
          "name": "C5",
          "midi": 72,
          "time": 37.806738281249984,
          "velocity": 0.5511811023622047,
          "duration": 0.29619140625000284
        },
        {
          "name": "F4",
          "midi": 65,
          "time": 38.10322265624999,
          "velocity": 0.4409448818897638,
          "duration": 0.2964843749999986
        },
        {
          "name": "D5",
          "midi": 74,
          "time": 38.10322265624999,
          "velocity": 0.5511811023622047,
          "duration": 0.2964843749999986
        },
        {
          "name": "G#4",
          "midi": 68,
          "time": 39.00673828124999,
          "velocity": 0.4409448818897638,
          "duration": 0.29619140625000284
        },
        {
          "name": "D#5",
          "midi": 75,
          "time": 39.00673828124999,
          "velocity": 0.5511811023622047,
          "duration": 0.29619140625000284
        },
        {
          "name": "F4",
          "midi": 65,
          "time": 39.90791015624999,
          "velocity": 0.4409448818897638,
          "duration": 0.29853515624999716
        },
        {
          "name": "D5",
          "midi": 74,
          "time": 39.90791015624999,
          "velocity": 0.5511811023622047,
          "duration": 0.29853515624999716
        },
        {
          "name": "E4",
          "midi": 64,
          "time": 40.79999999999999,
          "velocity": 0.48031496062992124,
          "duration": 0.3076171875
        },
        {
          "name": "C5",
          "midi": 72,
          "time": 40.79999999999999,
          "velocity": 0.5905511811023622,
          "duration": 0.3076171875
        },
        {
          "name": "E5",
          "midi": 76,
          "time": 43.80673828124999,
          "velocity": 0.4409448818897638,
          "duration": 0.29619140625000284
        },
        {
          "name": "G5",
          "midi": 79,
          "time": 43.80673828124999,
          "velocity": 0.5511811023622047,
          "duration": 0.29619140625000284
        },
        {
          "name": "D#5",
          "midi": 75,
          "time": 44.10322265625,
          "velocity": 0.4409448818897638,
          "duration": 0.2964843749999986
        },
        {
          "name": "F#5",
          "midi": 78,
          "time": 44.10322265625,
          "velocity": 0.5511811023622047,
          "duration": 0.2964843749999986
        },
        {
          "name": "D5",
          "midi": 74,
          "time": 44.4,
          "velocity": 0.48031496062992124,
          "duration": 0.3076171875
        },
        {
          "name": "F5",
          "midi": 77,
          "time": 44.4,
          "velocity": 0.5905511811023622,
          "duration": 0.3076171875
        },
        {
          "name": "B4",
          "midi": 71,
          "time": 44.70791015625,
          "velocity": 0.4409448818897638,
          "duration": 0.29853515624999716
        },
        {
          "name": "D#5",
          "midi": 75,
          "time": 44.70791015625,
          "velocity": 0.5511811023622047,
          "duration": 0.29853515624999716
        },
        {
          "name": "C5",
          "midi": 72,
          "time": 45.30322265625,
          "velocity": 0.4409448818897638,
          "duration": 0.2964843749999986
        },
        {
          "name": "E5",
          "midi": 76,
          "time": 45.30322265625,
          "velocity": 0.5511811023622047,
          "duration": 0.2964843749999986
        },
        {
          "name": "E4",
          "midi": 64,
          "time": 45.90791015625,
          "velocity": 0.4409448818897638,
          "duration": 0.29853515624999716
        },
        {
          "name": "G#4",
          "midi": 68,
          "time": 45.90791015625,
          "velocity": 0.5511811023622047,
          "duration": 0.29853515624999716
        },
        {
          "name": "F4",
          "midi": 65,
          "time": 46.20673828125,
          "velocity": 0.4409448818897638,
          "duration": 0.29619140625000284
        },
        {
          "name": "A4",
          "midi": 69,
          "time": 46.20673828125,
          "velocity": 0.5511811023622047,
          "duration": 0.29619140625000284
        },
        {
          "name": "G4",
          "midi": 67,
          "time": 46.50322265625,
          "velocity": 0.4409448818897638,
          "duration": 0.2964843749999986
        },
        {
          "name": "C5",
          "midi": 72,
          "time": 46.50322265625,
          "velocity": 0.5511811023622047,
          "duration": 0.2964843749999986
        },
        {
          "name": "C4",
          "midi": 60,
          "time": 47.10791015625,
          "velocity": 0.4409448818897638,
          "duration": 0.29853515624999716
        },
        {
          "name": "A4",
          "midi": 69,
          "time": 47.10791015625,
          "velocity": 0.5511811023622047,
          "duration": 0.29853515624999716
        },
        {
          "name": "E4",
          "midi": 64,
          "time": 47.40673828125,
          "velocity": 0.4409448818897638,
          "duration": 0.29619140625000284
        },
        {
          "name": "C5",
          "midi": 72,
          "time": 47.40673828125,
          "velocity": 0.5511811023622047,
          "duration": 0.29619140625000284
        },
        {
          "name": "F4",
          "midi": 65,
          "time": 47.703222656250006,
          "velocity": 0.4409448818897638,
          "duration": 0.2964843749999986
        },
        {
          "name": "D5",
          "midi": 74,
          "time": 47.703222656250006,
          "velocity": 0.5511811023622047,
          "duration": 0.2964843749999986
        },
        {
          "name": "E5",
          "midi": 76,
          "time": 48.60673828125,
          "velocity": 0.4409448818897638,
          "duration": 0.29619140625000284
        },
        {
          "name": "G5",
          "midi": 79,
          "time": 48.60673828125,
          "velocity": 0.5511811023622047,
          "duration": 0.29619140625000284
        },
        {
          "name": "D#5",
          "midi": 75,
          "time": 48.90322265625001,
          "velocity": 0.4409448818897638,
          "duration": 0.2964843749999986
        },
        {
          "name": "F#5",
          "midi": 78,
          "time": 48.90322265625001,
          "velocity": 0.5511811023622047,
          "duration": 0.2964843749999986
        },
        {
          "name": "D5",
          "midi": 74,
          "time": 49.20000000000001,
          "velocity": 0.48031496062992124,
          "duration": 0.3076171875
        },
        {
          "name": "F5",
          "midi": 77,
          "time": 49.20000000000001,
          "velocity": 0.5905511811023622,
          "duration": 0.3076171875
        },
        {
          "name": "B4",
          "midi": 71,
          "time": 49.50791015625001,
          "velocity": 0.4409448818897638,
          "duration": 0.29853515624999716
        },
        {
          "name": "D#5",
          "midi": 75,
          "time": 49.50791015625001,
          "velocity": 0.5511811023622047,
          "duration": 0.29853515624999716
        },
        {
          "name": "C5",
          "midi": 72,
          "time": 50.10322265625001,
          "velocity": 0.4409448818897638,
          "duration": 0.2964843749999986
        },
        {
          "name": "E5",
          "midi": 76,
          "time": 50.10322265625001,
          "velocity": 0.5511811023622047,
          "duration": 0.2964843749999986
        },
        {
          "name": "F5",
          "midi": 77,
          "time": 50.70791015625001,
          "velocity": 0.4409448818897638,
          "duration": 0.29853515624999716
        },
        {
          "name": "G5",
          "midi": 79,
          "time": 50.70791015625001,
          "velocity": 0.4409448818897638,
          "duration": 0.29853515624999716
        },
        {
          "name": "C6",
          "midi": 84,
          "time": 50.70791015625001,
          "velocity": 0.5511811023622047,
          "duration": 0.29853515624999716
        },
        {
          "name": "F5",
          "midi": 77,
          "time": 51.30322265625001,
          "velocity": 0.4409448818897638,
          "duration": 0.2964843749999986
        },
        {
          "name": "G5",
          "midi": 79,
          "time": 51.30322265625001,
          "velocity": 0.4409448818897638,
          "duration": 0.2964843749999986
        },
        {
          "name": "C6",
          "midi": 84,
          "time": 51.30322265625001,
          "velocity": 0.5196850393700787,
          "duration": 0.2964843749999986
        },
        {
          "name": "F5",
          "midi": 77,
          "time": 51.60000000000001,
          "velocity": 0.48031496062992124,
          "duration": 0.3076171875
        },
        {
          "name": "G5",
          "midi": 79,
          "time": 51.60000000000001,
          "velocity": 0.48031496062992124,
          "duration": 0.3076171875
        },
        {
          "name": "C6",
          "midi": 84,
          "time": 51.60000000000001,
          "velocity": 0.5905511811023622,
          "duration": 0.3076171875
        },
        {
          "name": "E5",
          "midi": 76,
          "time": 53.40673828125001,
          "velocity": 0.4409448818897638,
          "duration": 0.29619140625000284
        },
        {
          "name": "G5",
          "midi": 79,
          "time": 53.40673828125001,
          "velocity": 0.5511811023622047,
          "duration": 0.29619140625000284
        },
        {
          "name": "D#5",
          "midi": 75,
          "time": 53.70322265625001,
          "velocity": 0.4409448818897638,
          "duration": 0.2964843749999986
        },
        {
          "name": "F#5",
          "midi": 78,
          "time": 53.70322265625001,
          "velocity": 0.5511811023622047,
          "duration": 0.2964843749999986
        },
        {
          "name": "D5",
          "midi": 74,
          "time": 54.000000000000014,
          "velocity": 0.48031496062992124,
          "duration": 0.3076171875
        },
        {
          "name": "F5",
          "midi": 77,
          "time": 54.000000000000014,
          "velocity": 0.5905511811023622,
          "duration": 0.3076171875
        },
        {
          "name": "B4",
          "midi": 71,
          "time": 54.30791015625002,
          "velocity": 0.4409448818897638,
          "duration": 0.29853515624999716
        },
        {
          "name": "D#5",
          "midi": 75,
          "time": 54.30791015625002,
          "velocity": 0.5511811023622047,
          "duration": 0.29853515624999716
        },
        {
          "name": "C5",
          "midi": 72,
          "time": 54.903222656250016,
          "velocity": 0.4409448818897638,
          "duration": 0.2964843749999986
        },
        {
          "name": "E5",
          "midi": 76,
          "time": 54.903222656250016,
          "velocity": 0.5511811023622047,
          "duration": 0.2964843749999986
        },
        {
          "name": "E4",
          "midi": 64,
          "time": 55.50791015625001,
          "velocity": 0.4409448818897638,
          "duration": 0.29853515624999716
        },
        {
          "name": "G#4",
          "midi": 68,
          "time": 55.50791015625001,
          "velocity": 0.5511811023622047,
          "duration": 0.29853515624999716
        },
        {
          "name": "F4",
          "midi": 65,
          "time": 55.80673828125001,
          "velocity": 0.4409448818897638,
          "duration": 0.29619140625000284
        },
        {
          "name": "A4",
          "midi": 69,
          "time": 55.80673828125001,
          "velocity": 0.5511811023622047,
          "duration": 0.29619140625000284
        },
        {
          "name": "G4",
          "midi": 67,
          "time": 56.10322265625002,
          "velocity": 0.4409448818897638,
          "duration": 0.2964843749999986
        },
        {
          "name": "C5",
          "midi": 72,
          "time": 56.10322265625002,
          "velocity": 0.5511811023622047,
          "duration": 0.2964843749999986
        },
        {
          "name": "C4",
          "midi": 60,
          "time": 56.707910156250016,
          "velocity": 0.4409448818897638,
          "duration": 0.29853515624999716
        },
        {
          "name": "A4",
          "midi": 69,
          "time": 56.707910156250016,
          "velocity": 0.5511811023622047,
          "duration": 0.29853515624999716
        },
        {
          "name": "E4",
          "midi": 64,
          "time": 57.006738281250016,
          "velocity": 0.4409448818897638,
          "duration": 0.29619140625000284
        },
        {
          "name": "C5",
          "midi": 72,
          "time": 57.006738281250016,
          "velocity": 0.5511811023622047,
          "duration": 0.29619140625000284
        },
        {
          "name": "F4",
          "midi": 65,
          "time": 57.30322265625002,
          "velocity": 0.4409448818897638,
          "duration": 0.2964843749999986
        },
        {
          "name": "D5",
          "midi": 74,
          "time": 57.30322265625002,
          "velocity": 0.5511811023622047,
          "duration": 0.2964843749999986
        },
        {
          "name": "G#4",
          "midi": 68,
          "time": 58.20673828125002,
          "velocity": 0.4409448818897638,
          "duration": 0.29619140625000284
        },
        {
          "name": "D#5",
          "midi": 75,
          "time": 58.20673828125002,
          "velocity": 0.5511811023622047,
          "duration": 0.29619140625000284
        },
        {
          "name": "F4",
          "midi": 65,
          "time": 59.10791015625002,
          "velocity": 0.4409448818897638,
          "duration": 0.29853515624999716
        },
        {
          "name": "D5",
          "midi": 74,
          "time": 59.10791015625002,
          "velocity": 0.5511811023622047,
          "duration": 0.29853515624999716
        },
        {
          "name": "E4",
          "midi": 64,
          "time": 60.00000000000002,
          "velocity": 0.48031496062992124,
          "duration": 0.3076171875
        },
        {
          "name": "C5",
          "midi": 72,
          "time": 60.00000000000002,
          "velocity": 0.5905511811023622,
          "duration": 0.3076171875
        },
        {
          "name": "G#4",
          "midi": 68,
          "time": 62.40000000000002,
          "velocity": 0.48031496062992124,
          "duration": 0.3076171875
        },
        {
          "name": "C5",
          "midi": 72,
          "time": 62.40000000000002,
          "velocity": 0.5590551181102362,
          "duration": 0.3076171875
        },
        {
          "name": "G#4",
          "midi": 68,
          "time": 62.70791015625002,
          "velocity": 0.4409448818897638,
          "duration": 0.29853515624999716
        },
        {
          "name": "C5",
          "midi": 72,
          "time": 62.70791015625002,
          "velocity": 0.5196850393700787,
          "duration": 0.29853515624999716
        },
        {
          "name": "G#4",
          "midi": 68,
          "time": 63.30322265625002,
          "velocity": 0.4409448818897638,
          "duration": 0.2964843749999986
        },
        {
          "name": "C5",
          "midi": 72,
          "time": 63.30322265625002,
          "velocity": 0.5196850393700787,
          "duration": 0.2964843749999986
        },
        {
          "name": "G#4",
          "midi": 68,
          "time": 63.90791015625002,
          "velocity": 0.4409448818897638,
          "duration": 0.29853515625000426
        },
        {
          "name": "C5",
          "midi": 72,
          "time": 63.90791015625002,
          "velocity": 0.5511811023622047,
          "duration": 0.29853515625000426
        },
        {
          "name": "A#4",
          "midi": 70,
          "time": 64.20673828125003,
          "velocity": 0.4409448818897638,
          "duration": 0.29619140625000284
        },
        {
          "name": "D5",
          "midi": 74,
          "time": 64.20673828125003,
          "velocity": 0.5511811023622047,
          "duration": 0.29619140625000284
        },
        {
          "name": "G4",
          "midi": 67,
          "time": 64.80000000000003,
          "velocity": 0.48031496062992124,
          "duration": 0.3076171875
        },
        {
          "name": "E5",
          "midi": 76,
          "time": 64.80000000000003,
          "velocity": 0.5905511811023622,
          "duration": 0.3076171875
        },
        {
          "name": "E4",
          "midi": 64,
          "time": 65.10791015625003,
          "velocity": 0.4409448818897638,
          "duration": 0.29853515624999716
        },
        {
          "name": "C5",
          "midi": 72,
          "time": 65.10791015625003,
          "velocity": 0.5511811023622047,
          "duration": 0.29853515624999716
        },
        {
          "name": "E4",
          "midi": 64,
          "time": 65.70322265625002,
          "velocity": 0.4409448818897638,
          "duration": 0.2964843750000057
        },
        {
          "name": "A4",
          "midi": 69,
          "time": 65.70322265625002,
          "velocity": 0.5511811023622047,
          "duration": 0.2964843750000057
        },
        {
          "name": "C4",
          "midi": 60,
          "time": 66.00000000000003,
          "velocity": 0.48031496062992124,
          "duration": 0.3076171875
        },
        {
          "name": "G4",
          "midi": 67,
          "time": 66.00000000000003,
          "velocity": 0.5905511811023622,
          "duration": 0.3076171875
        },
        {
          "name": "G#4",
          "midi": 68,
          "time": 67.20000000000003,
          "velocity": 0.48031496062992124,
          "duration": 0.3076171875
        },
        {
          "name": "C5",
          "midi": 72,
          "time": 67.20000000000003,
          "velocity": 0.5905511811023622,
          "duration": 0.3076171875
        },
        {
          "name": "G#4",
          "midi": 68,
          "time": 67.50791015625003,
          "velocity": 0.4409448818897638,
          "duration": 0.29853515624999716
        },
        {
          "name": "C5",
          "midi": 72,
          "time": 67.50791015625003,
          "velocity": 0.5196850393700787,
          "duration": 0.29853515624999716
        },
        {
          "name": "G#4",
          "midi": 68,
          "time": 68.10322265625003,
          "velocity": 0.4409448818897638,
          "duration": 0.2964843750000057
        },
        {
          "name": "C5",
          "midi": 72,
          "time": 68.10322265625003,
          "velocity": 0.5196850393700787,
          "duration": 0.2964843750000057
        },
        {
          "name": "G#4",
          "midi": 68,
          "time": 68.70791015625004,
          "velocity": 0.4409448818897638,
          "duration": 0.29853515624999716
        },
        {
          "name": "C5",
          "midi": 72,
          "time": 68.70791015625004,
          "velocity": 0.5511811023622047,
          "duration": 0.29853515624999716
        },
        {
          "name": "A#4",
          "midi": 70,
          "time": 69.00673828125004,
          "velocity": 0.4409448818897638,
          "duration": 0.29619140625000284
        },
        {
          "name": "D5",
          "midi": 74,
          "time": 69.00673828125004,
          "velocity": 0.5511811023622047,
          "duration": 0.29619140625000284
        },
        {
          "name": "G4",
          "midi": 67,
          "time": 69.30322265625004,
          "velocity": 0.4409448818897638,
          "duration": 0.2964843750000057
        },
        {
          "name": "E5",
          "midi": 76,
          "time": 69.30322265625004,
          "velocity": 0.5511811023622047,
          "duration": 0.2964843750000057
        },
        {
          "name": "G#4",
          "midi": 68,
          "time": 72.00000000000004,
          "velocity": 0.48031496062992124,
          "duration": 0.3076171875
        },
        {
          "name": "C5",
          "midi": 72,
          "time": 72.00000000000004,
          "velocity": 0.5590551181102362,
          "duration": 0.3076171875
        },
        {
          "name": "G#4",
          "midi": 68,
          "time": 72.30791015625005,
          "velocity": 0.4409448818897638,
          "duration": 0.29853515624999716
        },
        {
          "name": "C5",
          "midi": 72,
          "time": 72.30791015625005,
          "velocity": 0.5196850393700787,
          "duration": 0.29853515624999716
        },
        {
          "name": "G#4",
          "midi": 68,
          "time": 72.90322265625004,
          "velocity": 0.4409448818897638,
          "duration": 0.2964843750000057
        },
        {
          "name": "C5",
          "midi": 72,
          "time": 72.90322265625004,
          "velocity": 0.5196850393700787,
          "duration": 0.2964843750000057
        },
        {
          "name": "G#4",
          "midi": 68,
          "time": 73.50791015625005,
          "velocity": 0.4409448818897638,
          "duration": 0.29853515624999716
        },
        {
          "name": "C5",
          "midi": 72,
          "time": 73.50791015625005,
          "velocity": 0.5511811023622047,
          "duration": 0.29853515624999716
        },
        {
          "name": "A#4",
          "midi": 70,
          "time": 73.80673828125005,
          "velocity": 0.4409448818897638,
          "duration": 0.29619140625000284
        },
        {
          "name": "D5",
          "midi": 74,
          "time": 73.80673828125005,
          "velocity": 0.5511811023622047,
          "duration": 0.29619140625000284
        },
        {
          "name": "G4",
          "midi": 67,
          "time": 74.40000000000005,
          "velocity": 0.48031496062992124,
          "duration": 0.3076171875
        },
        {
          "name": "E5",
          "midi": 76,
          "time": 74.40000000000005,
          "velocity": 0.5905511811023622,
          "duration": 0.3076171875
        },
        {
          "name": "E4",
          "midi": 64,
          "time": 74.70791015625005,
          "velocity": 0.4409448818897638,
          "duration": 0.29853515624999716
        },
        {
          "name": "C5",
          "midi": 72,
          "time": 74.70791015625005,
          "velocity": 0.5511811023622047,
          "duration": 0.29853515624999716
        },
        {
          "name": "E4",
          "midi": 64,
          "time": 75.30322265625004,
          "velocity": 0.4409448818897638,
          "duration": 0.2964843750000057
        },
        {
          "name": "A4",
          "midi": 69,
          "time": 75.30322265625004,
          "velocity": 0.5511811023622047,
          "duration": 0.2964843750000057
        },
        {
          "name": "C4",
          "midi": 60,
          "time": 75.60000000000005,
          "velocity": 0.48031496062992124,
          "duration": 0.3076171875
        },
        {
          "name": "G4",
          "midi": 67,
          "time": 75.60000000000005,
          "velocity": 0.5905511811023622,
          "duration": 0.3076171875
        },
        {
          "name": "F#4",
          "midi": 66,
          "time": 76.80000000000005,
          "velocity": 0.48031496062992124,
          "duration": 0.3076171875
        },
        {
          "name": "E5",
          "midi": 76,
          "time": 76.80000000000005,
          "velocity": 0.5905511811023622,
          "duration": 0.3076171875
        },
        {
          "name": "F#4",
          "midi": 66,
          "time": 77.10791015625006,
          "velocity": 0.4409448818897638,
          "duration": 0.29853515624999716
        },
        {
          "name": "E5",
          "midi": 76,
          "time": 77.10791015625006,
          "velocity": 0.5196850393700787,
          "duration": 0.29853515624999716
        },
        {
          "name": "F#4",
          "midi": 66,
          "time": 77.70322265625005,
          "velocity": 0.4409448818897638,
          "duration": 0.2964843750000057
        },
        {
          "name": "E5",
          "midi": 76,
          "time": 77.70322265625005,
          "velocity": 0.5511811023622047,
          "duration": 0.2964843750000057
        },
        {
          "name": "F#4",
          "midi": 66,
          "time": 78.30791015625006,
          "velocity": 0.4409448818897638,
          "duration": 0.29853515624999716
        },
        {
          "name": "C5",
          "midi": 72,
          "time": 78.30791015625006,
          "velocity": 0.5511811023622047,
          "duration": 0.29853515624999716
        },
        {
          "name": "F#4",
          "midi": 66,
          "time": 78.60673828125006,
          "velocity": 0.4409448818897638,
          "duration": 0.29619140625000284
        },
        {
          "name": "E5",
          "midi": 76,
          "time": 78.60673828125006,
          "velocity": 0.5511811023622047,
          "duration": 0.29619140625000284
        },
        {
          "name": "G4",
          "midi": 67,
          "time": 79.20000000000006,
          "velocity": 0.48031496062992124,
          "duration": 0.3076171875
        },
        {
          "name": "B4",
          "midi": 71,
          "time": 79.20000000000006,
          "velocity": 0.48031496062992124,
          "duration": 0.3076171875
        },
        {
          "name": "G5",
          "midi": 79,
          "time": 79.20000000000006,
          "velocity": 0.5905511811023622,
          "duration": 0.3076171875
        },
        {
          "name": "G4",
          "midi": 67,
          "time": 80.40000000000006,
          "velocity": 0.5433070866141733,
          "duration": 0.3076171875
        },
        {
          "name": "E4",
          "midi": 64,
          "time": 81.60000000000007,
          "velocity": 0.48031496062992124,
          "duration": 0.3076171875
        },
        {
          "name": "C5",
          "midi": 72,
          "time": 81.60000000000007,
          "velocity": 0.5905511811023622,
          "duration": 0.3076171875
        },
        {
          "name": "C4",
          "midi": 60,
          "time": 82.50322265625006,
          "velocity": 0.4409448818897638,
          "duration": 0.2964843750000057
        },
        {
          "name": "G4",
          "midi": 67,
          "time": 82.50322265625006,
          "velocity": 0.5511811023622047,
          "duration": 0.2964843750000057
        },
        {
          "name": "G3",
          "midi": 55,
          "time": 83.40673828125007,
          "velocity": 0.4409448818897638,
          "duration": 0.29619140625000284
        },
        {
          "name": "E4",
          "midi": 64,
          "time": 83.40673828125007,
          "velocity": 0.5511811023622047,
          "duration": 0.29619140625000284
        },
        {
          "name": "C4",
          "midi": 60,
          "time": 84.30791015625007,
          "velocity": 0.4409448818897638,
          "duration": 0.29853515624999716
        },
        {
          "name": "A4",
          "midi": 69,
          "time": 84.30791015625007,
          "velocity": 0.5511811023622047,
          "duration": 0.29853515624999716
        },
        {
          "name": "D4",
          "midi": 62,
          "time": 84.90322265625007,
          "velocity": 0.4409448818897638,
          "duration": 0.2964843750000057
        },
        {
          "name": "B4",
          "midi": 71,
          "time": 84.90322265625007,
          "velocity": 0.5511811023622047,
          "duration": 0.2964843750000057
        },
        {
          "name": "C#4",
          "midi": 61,
          "time": 85.50791015625008,
          "velocity": 0.4409448818897638,
          "duration": 0.29853515624999716
        },
        {
          "name": "A#4",
          "midi": 70,
          "time": 85.50791015625008,
          "velocity": 0.5511811023622047,
          "duration": 0.29853515624999716
        },
        {
          "name": "C4",
          "midi": 60,
          "time": 85.80673828125008,
          "velocity": 0.4409448818897638,
          "duration": 0.29619140625000284
        },
        {
          "name": "A4",
          "midi": 69,
          "time": 85.80673828125008,
          "velocity": 0.5511811023622047,
          "duration": 0.29619140625000284
        },
        {
          "name": "C4",
          "midi": 60,
          "time": 86.40000000000008,
          "velocity": 0.48031496062992124,
          "duration": 0.20624999999999716
        },
        {
          "name": "G4",
          "midi": 67,
          "time": 86.40000000000008,
          "velocity": 0.5905511811023622,
          "duration": 0.20624999999999716
        },
        {
          "name": "G4",
          "midi": 67,
          "time": 86.80634765625007,
          "velocity": 0.4409448818897638,
          "duration": 0.19951171875000284
        },
        {
          "name": "E5",
          "midi": 76,
          "time": 86.80634765625007,
          "velocity": 0.5511811023622047,
          "duration": 0.19951171875000284
        },
        {
          "name": "B4",
          "midi": 71,
          "time": 87.20625000000007,
          "velocity": 0.4409448818897638,
          "duration": 0.19365234375000284
        },
        {
          "name": "G5",
          "midi": 79,
          "time": 87.20625000000007,
          "velocity": 0.5511811023622047,
          "duration": 0.19365234375000284
        },
        {
          "name": "C5",
          "midi": 72,
          "time": 87.60000000000007,
          "velocity": 0.48031496062992124,
          "duration": 0.3076171875
        },
        {
          "name": "A5",
          "midi": 81,
          "time": 87.60000000000007,
          "velocity": 0.5905511811023622,
          "duration": 0.3076171875
        },
        {
          "name": "A4",
          "midi": 69,
          "time": 88.20673828125007,
          "velocity": 0.4409448818897638,
          "duration": 0.29619140625000284
        },
        {
          "name": "F5",
          "midi": 77,
          "time": 88.20673828125007,
          "velocity": 0.5511811023622047,
          "duration": 0.29619140625000284
        },
        {
          "name": "B4",
          "midi": 71,
          "time": 88.50322265625007,
          "velocity": 0.4409448818897638,
          "duration": 0.2964843750000057
        },
        {
          "name": "G5",
          "midi": 79,
          "time": 88.50322265625007,
          "velocity": 0.5511811023622047,
          "duration": 0.2964843750000057
        },
        {
          "name": "A4",
          "midi": 69,
          "time": 89.10791015625009,
          "velocity": 0.4409448818897638,
          "duration": 0.29853515624999716
        },
        {
          "name": "E5",
          "midi": 76,
          "time": 89.10791015625009,
          "velocity": 0.5511811023622047,
          "duration": 0.29853515624999716
        },
        {
          "name": "E4",
          "midi": 64,
          "time": 89.70322265625008,
          "velocity": 0.4409448818897638,
          "duration": 0.2964843750000057
        },
        {
          "name": "C5",
          "midi": 72,
          "time": 89.70322265625008,
          "velocity": 0.5511811023622047,
          "duration": 0.2964843750000057
        },
        {
          "name": "F4",
          "midi": 65,
          "time": 90.00000000000009,
          "velocity": 0.48031496062992124,
          "duration": 0.3076171875
        },
        {
          "name": "D5",
          "midi": 74,
          "time": 90.00000000000009,
          "velocity": 0.5905511811023622,
          "duration": 0.3076171875
        },
        {
          "name": "D4",
          "midi": 62,
          "time": 90.30791015625009,
          "velocity": 0.4409448818897638,
          "duration": 0.29853515624999716
        },
        {
          "name": "B4",
          "midi": 71,
          "time": 90.30791015625009,
          "velocity": 0.5511811023622047,
          "duration": 0.29853515624999716
        },
        {
          "name": "E4",
          "midi": 64,
          "time": 91.20000000000009,
          "velocity": 0.48031496062992124,
          "duration": 0.3076171875
        },
        {
          "name": "C5",
          "midi": 72,
          "time": 91.20000000000009,
          "velocity": 0.5905511811023622,
          "duration": 0.3076171875
        },
        {
          "name": "C4",
          "midi": 60,
          "time": 92.10322265625008,
          "velocity": 0.4409448818897638,
          "duration": 0.2964843750000057
        },
        {
          "name": "G4",
          "midi": 67,
          "time": 92.10322265625008,
          "velocity": 0.5511811023622047,
          "duration": 0.2964843750000057
        },
        {
          "name": "G3",
          "midi": 55,
          "time": 93.0067382812501,
          "velocity": 0.4409448818897638,
          "duration": 0.29619140625000284
        },
        {
          "name": "E4",
          "midi": 64,
          "time": 93.0067382812501,
          "velocity": 0.5511811023622047,
          "duration": 0.29619140625000284
        },
        {
          "name": "C4",
          "midi": 60,
          "time": 93.9079101562501,
          "velocity": 0.4409448818897638,
          "duration": 0.29853515624999716
        },
        {
          "name": "A4",
          "midi": 69,
          "time": 93.9079101562501,
          "velocity": 0.5511811023622047,
          "duration": 0.29853515624999716
        },
        {
          "name": "D4",
          "midi": 62,
          "time": 94.50322265625009,
          "velocity": 0.4409448818897638,
          "duration": 0.2964843750000057
        },
        {
          "name": "B4",
          "midi": 71,
          "time": 94.50322265625009,
          "velocity": 0.5511811023622047,
          "duration": 0.2964843750000057
        },
        {
          "name": "C#4",
          "midi": 61,
          "time": 95.1079101562501,
          "velocity": 0.4409448818897638,
          "duration": 0.29853515624999716
        },
        {
          "name": "A#4",
          "midi": 70,
          "time": 95.1079101562501,
          "velocity": 0.5511811023622047,
          "duration": 0.29853515624999716
        },
        {
          "name": "C4",
          "midi": 60,
          "time": 95.4067382812501,
          "velocity": 0.4409448818897638,
          "duration": 0.29619140625000284
        },
        {
          "name": "A4",
          "midi": 69,
          "time": 95.4067382812501,
          "velocity": 0.5511811023622047,
          "duration": 0.29619140625000284
        },
        {
          "name": "C4",
          "midi": 60,
          "time": 96.0000000000001,
          "velocity": 0.48031496062992124,
          "duration": 0.20624999999999716
        },
        {
          "name": "G4",
          "midi": 67,
          "time": 96.0000000000001,
          "velocity": 0.5905511811023622,
          "duration": 0.20624999999999716
        },
        {
          "name": "G4",
          "midi": 67,
          "time": 96.40634765625009,
          "velocity": 0.4409448818897638,
          "duration": 0.19951171875000284
        },
        {
          "name": "E5",
          "midi": 76,
          "time": 96.40634765625009,
          "velocity": 0.5511811023622047,
          "duration": 0.19951171875000284
        },
        {
          "name": "B4",
          "midi": 71,
          "time": 96.80625000000009,
          "velocity": 0.4409448818897638,
          "duration": 0.19365234375000284
        },
        {
          "name": "G5",
          "midi": 79,
          "time": 96.80625000000009,
          "velocity": 0.5511811023622047,
          "duration": 0.19365234375000284
        },
        {
          "name": "C5",
          "midi": 72,
          "time": 97.20000000000009,
          "velocity": 0.48031496062992124,
          "duration": 0.3076171875
        },
        {
          "name": "A5",
          "midi": 81,
          "time": 97.20000000000009,
          "velocity": 0.5905511811023622,
          "duration": 0.3076171875
        },
        {
          "name": "A4",
          "midi": 69,
          "time": 97.80673828125009,
          "velocity": 0.4409448818897638,
          "duration": 0.29619140625000284
        },
        {
          "name": "F5",
          "midi": 77,
          "time": 97.80673828125009,
          "velocity": 0.5511811023622047,
          "duration": 0.29619140625000284
        },
        {
          "name": "B4",
          "midi": 71,
          "time": 98.1032226562501,
          "velocity": 0.4409448818897638,
          "duration": 0.2964843750000057
        },
        {
          "name": "G5",
          "midi": 79,
          "time": 98.1032226562501,
          "velocity": 0.5511811023622047,
          "duration": 0.2964843750000057
        },
        {
          "name": "A4",
          "midi": 69,
          "time": 98.70791015625011,
          "velocity": 0.4409448818897638,
          "duration": 0.29853515624999716
        },
        {
          "name": "E5",
          "midi": 76,
          "time": 98.70791015625011,
          "velocity": 0.5511811023622047,
          "duration": 0.29853515624999716
        },
        {
          "name": "E4",
          "midi": 64,
          "time": 99.3032226562501,
          "velocity": 0.4409448818897638,
          "duration": 0.2964843750000057
        },
        {
          "name": "C5",
          "midi": 72,
          "time": 99.3032226562501,
          "velocity": 0.5511811023622047,
          "duration": 0.2964843750000057
        },
        {
          "name": "F4",
          "midi": 65,
          "time": 99.60000000000011,
          "velocity": 0.48031496062992124,
          "duration": 0.3076171875
        },
        {
          "name": "D5",
          "midi": 74,
          "time": 99.60000000000011,
          "velocity": 0.5905511811023622,
          "duration": 0.3076171875
        },
        {
          "name": "D4",
          "midi": 62,
          "time": 99.90791015625011,
          "velocity": 0.4409448818897638,
          "duration": 0.29853515624999716
        },
        {
          "name": "B4",
          "midi": 71,
          "time": 99.90791015625011,
          "velocity": 0.5511811023622047,
          "duration": 0.29853515624999716
        },
        {
          "name": "C5",
          "midi": 72,
          "time": 100.80000000000011,
          "velocity": 0.48031496062992124,
          "duration": 0.3076171875
        },
        {
          "name": "E5",
          "midi": 76,
          "time": 100.80000000000011,
          "velocity": 0.5905511811023622,
          "duration": 0.3076171875
        },
        {
          "name": "A4",
          "midi": 69,
          "time": 101.10791015625011,
          "velocity": 0.4409448818897638,
          "duration": 0.29853515624999716
        },
        {
          "name": "C5",
          "midi": 72,
          "time": 101.10791015625011,
          "velocity": 0.5511811023622047,
          "duration": 0.29853515624999716
        },
        {
          "name": "E4",
          "midi": 64,
          "time": 101.7032226562501,
          "velocity": 0.4409448818897638,
          "duration": 0.2964843750000057
        },
        {
          "name": "G4",
          "midi": 67,
          "time": 101.7032226562501,
          "velocity": 0.5511811023622047,
          "duration": 0.2964843750000057
        },
        {
          "name": "E4",
          "midi": 64,
          "time": 102.60673828125012,
          "velocity": 0.4409448818897638,
          "duration": 0.29619140625000284
        },
        {
          "name": "G#4",
          "midi": 68,
          "time": 102.60673828125012,
          "velocity": 0.5511811023622047,
          "duration": 0.29619140625000284
        },
        {
          "name": "F4",
          "midi": 65,
          "time": 103.20000000000012,
          "velocity": 0.48031496062992124,
          "duration": 0.3076171875
        },
        {
          "name": "A4",
          "midi": 69,
          "time": 103.20000000000012,
          "velocity": 0.5905511811023622,
          "duration": 0.3076171875
        },
        {
          "name": "C5",
          "midi": 72,
          "time": 103.50791015625012,
          "velocity": 0.4409448818897638,
          "duration": 0.29853515624999716
        },
        {
          "name": "F5",
          "midi": 77,
          "time": 103.50791015625012,
          "velocity": 0.5511811023622047,
          "duration": 0.29853515624999716
        },
        {
          "name": "C5",
          "midi": 72,
          "time": 104.10322265625011,
          "velocity": 0.4409448818897638,
          "duration": 0.2964843750000057
        },
        {
          "name": "F5",
          "midi": 77,
          "time": 104.10322265625011,
          "velocity": 0.5511811023622047,
          "duration": 0.2964843750000057
        },
        {
          "name": "F4",
          "midi": 65,
          "time": 104.40000000000012,
          "velocity": 0.48031496062992124,
          "duration": 0.3076171875
        },
        {
          "name": "A4",
          "midi": 69,
          "time": 104.40000000000012,
          "velocity": 0.5905511811023622,
          "duration": 0.3076171875
        },
        {
          "name": "G4",
          "midi": 67,
          "time": 105.60000000000012,
          "velocity": 0.48031496062992124,
          "duration": 0.20624999999999716
        },
        {
          "name": "B4",
          "midi": 71,
          "time": 105.60000000000012,
          "velocity": 0.5905511811023622,
          "duration": 0.20624999999999716
        },
        {
          "name": "F5",
          "midi": 77,
          "time": 106.00634765625011,
          "velocity": 0.4409448818897638,
          "duration": 0.19951171875000284
        },
        {
          "name": "A5",
          "midi": 81,
          "time": 106.00634765625011,
          "velocity": 0.5511811023622047,
          "duration": 0.19951171875000284
        },
        {
          "name": "F5",
          "midi": 77,
          "time": 106.40625000000011,
          "velocity": 0.4409448818897638,
          "duration": 0.19365234375000284
        },
        {
          "name": "A5",
          "midi": 81,
          "time": 106.40625000000011,
          "velocity": 0.5196850393700787,
          "duration": 0.19365234375000284
        },
        {
          "name": "F5",
          "midi": 77,
          "time": 106.80000000000011,
          "velocity": 0.48031496062992124,
          "duration": 0.20624999999999716
        },
        {
          "name": "A5",
          "midi": 81,
          "time": 106.80000000000011,
          "velocity": 0.5905511811023622,
          "duration": 0.20624999999999716
        },
        {
          "name": "E5",
          "midi": 76,
          "time": 107.2063476562501,
          "velocity": 0.4409448818897638,
          "duration": 0.19951171875000284
        },
        {
          "name": "G5",
          "midi": 79,
          "time": 107.2063476562501,
          "velocity": 0.5511811023622047,
          "duration": 0.19951171875000284
        },
        {
          "name": "D5",
          "midi": 74,
          "time": 107.6062500000001,
          "velocity": 0.4409448818897638,
          "duration": 0.19365234375000284
        },
        {
          "name": "F5",
          "midi": 77,
          "time": 107.6062500000001,
          "velocity": 0.5511811023622047,
          "duration": 0.19365234375000284
        },
        {
          "name": "C5",
          "midi": 72,
          "time": 108.0000000000001,
          "velocity": 0.48031496062992124,
          "duration": 0.3076171875
        },
        {
          "name": "E5",
          "midi": 76,
          "time": 108.0000000000001,
          "velocity": 0.5905511811023622,
          "duration": 0.3076171875
        },
        {
          "name": "A4",
          "midi": 69,
          "time": 108.3079101562501,
          "velocity": 0.4409448818897638,
          "duration": 0.29853515624999716
        },
        {
          "name": "C5",
          "midi": 72,
          "time": 108.3079101562501,
          "velocity": 0.5511811023622047,
          "duration": 0.29853515624999716
        },
        {
          "name": "F4",
          "midi": 65,
          "time": 108.9032226562501,
          "velocity": 0.4409448818897638,
          "duration": 0.2964843750000057
        },
        {
          "name": "A4",
          "midi": 69,
          "time": 108.9032226562501,
          "velocity": 0.5511811023622047,
          "duration": 0.2964843750000057
        },
        {
          "name": "E4",
          "midi": 64,
          "time": 109.2000000000001,
          "velocity": 0.48031496062992124,
          "duration": 0.3076171875
        },
        {
          "name": "G4",
          "midi": 67,
          "time": 109.2000000000001,
          "velocity": 0.5905511811023622,
          "duration": 0.3076171875
        },
        {
          "name": "C5",
          "midi": 72,
          "time": 110.4000000000001,
          "velocity": 0.48031496062992124,
          "duration": 0.3076171875
        },
        {
          "name": "E5",
          "midi": 76,
          "time": 110.4000000000001,
          "velocity": 0.5905511811023622,
          "duration": 0.3076171875
        },
        {
          "name": "A4",
          "midi": 69,
          "time": 110.70791015625011,
          "velocity": 0.4409448818897638,
          "duration": 0.29853515624999716
        },
        {
          "name": "C5",
          "midi": 72,
          "time": 110.70791015625011,
          "velocity": 0.5511811023622047,
          "duration": 0.29853515624999716
        },
        {
          "name": "E4",
          "midi": 64,
          "time": 111.3032226562501,
          "velocity": 0.4409448818897638,
          "duration": 0.2964843750000057
        },
        {
          "name": "G4",
          "midi": 67,
          "time": 111.3032226562501,
          "velocity": 0.5511811023622047,
          "duration": 0.2964843750000057
        },
        {
          "name": "E4",
          "midi": 64,
          "time": 112.20673828125011,
          "velocity": 0.4409448818897638,
          "duration": 0.29619140625000284
        },
        {
          "name": "G#4",
          "midi": 68,
          "time": 112.20673828125011,
          "velocity": 0.5511811023622047,
          "duration": 0.29619140625000284
        },
        {
          "name": "F4",
          "midi": 65,
          "time": 112.80000000000011,
          "velocity": 0.48031496062992124,
          "duration": 0.3076171875
        },
        {
          "name": "A4",
          "midi": 69,
          "time": 112.80000000000011,
          "velocity": 0.5905511811023622,
          "duration": 0.3076171875
        },
        {
          "name": "C5",
          "midi": 72,
          "time": 113.10791015625011,
          "velocity": 0.4409448818897638,
          "duration": 0.29853515624999716
        },
        {
          "name": "F5",
          "midi": 77,
          "time": 113.10791015625011,
          "velocity": 0.5511811023622047,
          "duration": 0.29853515624999716
        },
        {
          "name": "C5",
          "midi": 72,
          "time": 113.7032226562501,
          "velocity": 0.4409448818897638,
          "duration": 0.2964843750000057
        },
        {
          "name": "F5",
          "midi": 77,
          "time": 113.7032226562501,
          "velocity": 0.5511811023622047,
          "duration": 0.2964843750000057
        },
        {
          "name": "F4",
          "midi": 65,
          "time": 114.00000000000011,
          "velocity": 0.48031496062992124,
          "duration": 0.3076171875
        },
        {
          "name": "A4",
          "midi": 69,
          "time": 114.00000000000011,
          "velocity": 0.5905511811023622,
          "duration": 0.3076171875
        },
        {
          "name": "G4",
          "midi": 67,
          "time": 115.20000000000012,
          "velocity": 0.48031496062992124,
          "duration": 0.3076171875
        },
        {
          "name": "B4",
          "midi": 71,
          "time": 115.20000000000012,
          "velocity": 0.5905511811023622,
          "duration": 0.3076171875
        },
        {
          "name": "D5",
          "midi": 74,
          "time": 115.50791015625012,
          "velocity": 0.4409448818897638,
          "duration": 0.29853515624999716
        },
        {
          "name": "F5",
          "midi": 77,
          "time": 115.50791015625012,
          "velocity": 0.5511811023622047,
          "duration": 0.29853515624999716
        },
        {
          "name": "D5",
          "midi": 74,
          "time": 116.10322265625011,
          "velocity": 0.4409448818897638,
          "duration": 0.2964843750000057
        },
        {
          "name": "F5",
          "midi": 77,
          "time": 116.10322265625011,
          "velocity": 0.5196850393700787,
          "duration": 0.2964843750000057
        },
        {
          "name": "D5",
          "midi": 74,
          "time": 116.40000000000012,
          "velocity": 0.48031496062992124,
          "duration": 0.20624999999999716
        },
        {
          "name": "F5",
          "midi": 77,
          "time": 116.40000000000012,
          "velocity": 0.5905511811023622,
          "duration": 0.20624999999999716
        },
        {
          "name": "C5",
          "midi": 72,
          "time": 116.80634765625011,
          "velocity": 0.4409448818897638,
          "duration": 0.19951171875000284
        },
        {
          "name": "E5",
          "midi": 76,
          "time": 116.80634765625011,
          "velocity": 0.5511811023622047,
          "duration": 0.19951171875000284
        },
        {
          "name": "B4",
          "midi": 71,
          "time": 117.20625000000011,
          "velocity": 0.4409448818897638,
          "duration": 0.19365234375000284
        },
        {
          "name": "D5",
          "midi": 74,
          "time": 117.20625000000011,
          "velocity": 0.5511811023622047,
          "duration": 0.19365234375000284
        },
        {
          "name": "G4",
          "midi": 67,
          "time": 117.60000000000011,
          "velocity": 0.48031496062992124,
          "duration": 0.3076171875
        },
        {
          "name": "C5",
          "midi": 72,
          "time": 117.60000000000011,
          "velocity": 0.5905511811023622,
          "duration": 0.3076171875
        },
        {
          "name": "E4",
          "midi": 64,
          "time": 117.90791015625011,
          "velocity": 0.5039370078740157,
          "duration": 0.29853515624999716
        },
        {
          "name": "E4",
          "midi": 64,
          "time": 118.5032226562501,
          "velocity": 0.5039370078740157,
          "duration": 0.2964843750000057
        },
        {
          "name": "C4",
          "midi": 60,
          "time": 118.80000000000011,
          "velocity": 0.5433070866141733,
          "duration": 0.3076171875
        },
        {
          "name": "C5",
          "midi": 72,
          "time": 120.00000000000011,
          "velocity": 0.48031496062992124,
          "duration": 0.3076171875
        },
        {
          "name": "E5",
          "midi": 76,
          "time": 120.00000000000011,
          "velocity": 0.5905511811023622,
          "duration": 0.3076171875
        },
        {
          "name": "A4",
          "midi": 69,
          "time": 120.30791015625012,
          "velocity": 0.4409448818897638,
          "duration": 0.29853515624999716
        },
        {
          "name": "C5",
          "midi": 72,
          "time": 120.30791015625012,
          "velocity": 0.5511811023622047,
          "duration": 0.29853515624999716
        },
        {
          "name": "E4",
          "midi": 64,
          "time": 120.90322265625011,
          "velocity": 0.4409448818897638,
          "duration": 0.2964843750000057
        },
        {
          "name": "G4",
          "midi": 67,
          "time": 120.90322265625011,
          "velocity": 0.5511811023622047,
          "duration": 0.2964843750000057
        },
        {
          "name": "E4",
          "midi": 64,
          "time": 121.80673828125012,
          "velocity": 0.4409448818897638,
          "duration": 0.29619140625000284
        },
        {
          "name": "G#4",
          "midi": 68,
          "time": 121.80673828125012,
          "velocity": 0.5511811023622047,
          "duration": 0.29619140625000284
        },
        {
          "name": "F4",
          "midi": 65,
          "time": 122.40000000000012,
          "velocity": 0.48031496062992124,
          "duration": 0.3076171875
        },
        {
          "name": "A4",
          "midi": 69,
          "time": 122.40000000000012,
          "velocity": 0.5905511811023622,
          "duration": 0.3076171875
        },
        {
          "name": "C5",
          "midi": 72,
          "time": 122.70791015625012,
          "velocity": 0.4409448818897638,
          "duration": 0.29853515624999716
        },
        {
          "name": "F5",
          "midi": 77,
          "time": 122.70791015625012,
          "velocity": 0.5511811023622047,
          "duration": 0.29853515624999716
        },
        {
          "name": "C5",
          "midi": 72,
          "time": 123.30322265625011,
          "velocity": 0.4409448818897638,
          "duration": 0.2964843750000057
        },
        {
          "name": "F5",
          "midi": 77,
          "time": 123.30322265625011,
          "velocity": 0.5511811023622047,
          "duration": 0.2964843750000057
        },
        {
          "name": "F4",
          "midi": 65,
          "time": 123.60000000000012,
          "velocity": 0.48031496062992124,
          "duration": 0.3076171875
        },
        {
          "name": "A4",
          "midi": 69,
          "time": 123.60000000000012,
          "velocity": 0.5905511811023622,
          "duration": 0.3076171875
        },
        {
          "name": "G4",
          "midi": 67,
          "time": 124.80000000000013,
          "velocity": 0.48031496062992124,
          "duration": 0.20624999999999716
        },
        {
          "name": "B4",
          "midi": 71,
          "time": 124.80000000000013,
          "velocity": 0.5905511811023622,
          "duration": 0.20624999999999716
        },
        {
          "name": "F5",
          "midi": 77,
          "time": 125.20634765625012,
          "velocity": 0.4409448818897638,
          "duration": 0.19951171875000284
        },
        {
          "name": "A5",
          "midi": 81,
          "time": 125.20634765625012,
          "velocity": 0.5511811023622047,
          "duration": 0.19951171875000284
        },
        {
          "name": "F5",
          "midi": 77,
          "time": 125.60625000000012,
          "velocity": 0.4409448818897638,
          "duration": 0.19365234375000284
        },
        {
          "name": "A5",
          "midi": 81,
          "time": 125.60625000000012,
          "velocity": 0.5196850393700787,
          "duration": 0.19365234375000284
        },
        {
          "name": "F5",
          "midi": 77,
          "time": 126.00000000000011,
          "velocity": 0.48031496062992124,
          "duration": 0.20624999999999716
        },
        {
          "name": "A5",
          "midi": 81,
          "time": 126.00000000000011,
          "velocity": 0.5905511811023622,
          "duration": 0.20624999999999716
        },
        {
          "name": "E5",
          "midi": 76,
          "time": 126.4063476562501,
          "velocity": 0.4409448818897638,
          "duration": 0.19951171875000284
        },
        {
          "name": "G5",
          "midi": 79,
          "time": 126.4063476562501,
          "velocity": 0.5511811023622047,
          "duration": 0.19951171875000284
        },
        {
          "name": "D5",
          "midi": 74,
          "time": 126.8062500000001,
          "velocity": 0.4409448818897638,
          "duration": 0.19365234375000284
        },
        {
          "name": "F5",
          "midi": 77,
          "time": 126.8062500000001,
          "velocity": 0.5511811023622047,
          "duration": 0.19365234375000284
        },
        {
          "name": "C5",
          "midi": 72,
          "time": 127.2000000000001,
          "velocity": 0.48031496062992124,
          "duration": 0.3076171875
        },
        {
          "name": "E5",
          "midi": 76,
          "time": 127.2000000000001,
          "velocity": 0.5905511811023622,
          "duration": 0.3076171875
        },
        {
          "name": "A4",
          "midi": 69,
          "time": 127.5079101562501,
          "velocity": 0.4409448818897638,
          "duration": 0.29853515624999716
        },
        {
          "name": "C5",
          "midi": 72,
          "time": 127.5079101562501,
          "velocity": 0.5511811023622047,
          "duration": 0.29853515624999716
        },
        {
          "name": "F4",
          "midi": 65,
          "time": 128.1032226562501,
          "velocity": 0.4409448818897638,
          "duration": 0.2964843750000057
        },
        {
          "name": "A4",
          "midi": 69,
          "time": 128.1032226562501,
          "velocity": 0.5511811023622047,
          "duration": 0.2964843750000057
        },
        {
          "name": "E4",
          "midi": 64,
          "time": 128.4000000000001,
          "velocity": 0.48031496062992124,
          "duration": 0.3076171875
        },
        {
          "name": "G4",
          "midi": 67,
          "time": 128.4000000000001,
          "velocity": 0.5905511811023622,
          "duration": 0.3076171875
        },
        {
          "name": "C5",
          "midi": 72,
          "time": 129.60000000000008,
          "velocity": 0.48031496062992124,
          "duration": 0.3076171875
        },
        {
          "name": "E5",
          "midi": 76,
          "time": 129.60000000000008,
          "velocity": 0.5905511811023622,
          "duration": 0.3076171875
        },
        {
          "name": "A4",
          "midi": 69,
          "time": 129.90791015625007,
          "velocity": 0.4409448818897638,
          "duration": 0.29853515625001137
        },
        {
          "name": "C5",
          "midi": 72,
          "time": 129.90791015625007,
          "velocity": 0.5511811023622047,
          "duration": 0.29853515625001137
        },
        {
          "name": "E4",
          "midi": 64,
          "time": 130.50322265625007,
          "velocity": 0.4409448818897638,
          "duration": 0.2964843750000057
        },
        {
          "name": "G4",
          "midi": 67,
          "time": 130.50322265625007,
          "velocity": 0.5511811023622047,
          "duration": 0.2964843750000057
        },
        {
          "name": "E4",
          "midi": 64,
          "time": 131.40673828125009,
          "velocity": 0.4409448818897638,
          "duration": 0.29619140624998863
        },
        {
          "name": "G#4",
          "midi": 68,
          "time": 131.40673828125009,
          "velocity": 0.5511811023622047,
          "duration": 0.29619140624998863
        },
        {
          "name": "F4",
          "midi": 65,
          "time": 132.00000000000009,
          "velocity": 0.48031496062992124,
          "duration": 0.3076171875
        },
        {
          "name": "A4",
          "midi": 69,
          "time": 132.00000000000009,
          "velocity": 0.5905511811023622,
          "duration": 0.3076171875
        },
        {
          "name": "C5",
          "midi": 72,
          "time": 132.30791015625007,
          "velocity": 0.4409448818897638,
          "duration": 0.29853515625001137
        },
        {
          "name": "F5",
          "midi": 77,
          "time": 132.30791015625007,
          "velocity": 0.5511811023622047,
          "duration": 0.29853515625001137
        },
        {
          "name": "C5",
          "midi": 72,
          "time": 132.90322265625008,
          "velocity": 0.4409448818897638,
          "duration": 0.2964843750000057
        },
        {
          "name": "F5",
          "midi": 77,
          "time": 132.90322265625008,
          "velocity": 0.5511811023622047,
          "duration": 0.2964843750000057
        },
        {
          "name": "F4",
          "midi": 65,
          "time": 133.20000000000007,
          "velocity": 0.48031496062992124,
          "duration": 0.3076171875
        },
        {
          "name": "A4",
          "midi": 69,
          "time": 133.20000000000007,
          "velocity": 0.5905511811023622,
          "duration": 0.3076171875
        },
        {
          "name": "G4",
          "midi": 67,
          "time": 134.40000000000006,
          "velocity": 0.48031496062992124,
          "duration": 0.3076171875
        },
        {
          "name": "B4",
          "midi": 71,
          "time": 134.40000000000006,
          "velocity": 0.5905511811023622,
          "duration": 0.3076171875
        },
        {
          "name": "D5",
          "midi": 74,
          "time": 134.70791015625005,
          "velocity": 0.4409448818897638,
          "duration": 0.29853515625001137
        },
        {
          "name": "F5",
          "midi": 77,
          "time": 134.70791015625005,
          "velocity": 0.5511811023622047,
          "duration": 0.29853515625001137
        },
        {
          "name": "D5",
          "midi": 74,
          "time": 135.30322265625006,
          "velocity": 0.4409448818897638,
          "duration": 0.2964843750000057
        },
        {
          "name": "F5",
          "midi": 77,
          "time": 135.30322265625006,
          "velocity": 0.5196850393700787,
          "duration": 0.2964843750000057
        },
        {
          "name": "D5",
          "midi": 74,
          "time": 135.60000000000005,
          "velocity": 0.48031496062992124,
          "duration": 0.20625000000001137
        },
        {
          "name": "F5",
          "midi": 77,
          "time": 135.60000000000005,
          "velocity": 0.5905511811023622,
          "duration": 0.20625000000001137
        },
        {
          "name": "C5",
          "midi": 72,
          "time": 136.00634765625006,
          "velocity": 0.4409448818897638,
          "duration": 0.19951171874998863
        },
        {
          "name": "E5",
          "midi": 76,
          "time": 136.00634765625006,
          "velocity": 0.5511811023622047,
          "duration": 0.19951171874998863
        },
        {
          "name": "B4",
          "midi": 71,
          "time": 136.40625000000006,
          "velocity": 0.4409448818897638,
          "duration": 0.19365234374998863
        },
        {
          "name": "D5",
          "midi": 74,
          "time": 136.40625000000006,
          "velocity": 0.5511811023622047,
          "duration": 0.19365234374998863
        },
        {
          "name": "G4",
          "midi": 67,
          "time": 136.80000000000004,
          "velocity": 0.48031496062992124,
          "duration": 0.3076171875
        },
        {
          "name": "C5",
          "midi": 72,
          "time": 136.80000000000004,
          "velocity": 0.5905511811023622,
          "duration": 0.3076171875
        },
        {
          "name": "E4",
          "midi": 64,
          "time": 137.10791015625003,
          "velocity": 0.5039370078740157,
          "duration": 0.29853515625001137
        },
        {
          "name": "E4",
          "midi": 64,
          "time": 137.70322265625003,
          "velocity": 0.5039370078740157,
          "duration": 0.2964843750000057
        },
        {
          "name": "C4",
          "midi": 60,
          "time": 138.00000000000003,
          "velocity": 0.5433070866141733,
          "duration": 0.3076171875
        },
        {
          "name": "G#4",
          "midi": 68,
          "time": 139.20000000000002,
          "velocity": 0.48031496062992124,
          "duration": 0.3076171875
        },
        {
          "name": "C5",
          "midi": 72,
          "time": 139.20000000000002,
          "velocity": 0.5590551181102362,
          "duration": 0.3076171875
        },
        {
          "name": "G#4",
          "midi": 68,
          "time": 139.50791015625,
          "velocity": 0.4409448818897638,
          "duration": 0.29853515625001137
        },
        {
          "name": "C5",
          "midi": 72,
          "time": 139.50791015625,
          "velocity": 0.5196850393700787,
          "duration": 0.29853515625001137
        },
        {
          "name": "G#4",
          "midi": 68,
          "time": 140.10322265625,
          "velocity": 0.4409448818897638,
          "duration": 0.2964843750000057
        },
        {
          "name": "C5",
          "midi": 72,
          "time": 140.10322265625,
          "velocity": 0.5196850393700787,
          "duration": 0.2964843750000057
        },
        {
          "name": "G#4",
          "midi": 68,
          "time": 140.70791015625002,
          "velocity": 0.4409448818897638,
          "duration": 0.29853515625001137
        },
        {
          "name": "C5",
          "midi": 72,
          "time": 140.70791015625002,
          "velocity": 0.5511811023622047,
          "duration": 0.29853515625001137
        },
        {
          "name": "A#4",
          "midi": 70,
          "time": 141.00673828125002,
          "velocity": 0.4409448818897638,
          "duration": 0.29619140624998863
        },
        {
          "name": "D5",
          "midi": 74,
          "time": 141.00673828125002,
          "velocity": 0.5511811023622047,
          "duration": 0.29619140624998863
        },
        {
          "name": "G4",
          "midi": 67,
          "time": 141.60000000000002,
          "velocity": 0.48031496062992124,
          "duration": 0.3076171875
        },
        {
          "name": "E5",
          "midi": 76,
          "time": 141.60000000000002,
          "velocity": 0.5905511811023622,
          "duration": 0.3076171875
        },
        {
          "name": "E4",
          "midi": 64,
          "time": 141.90791015625,
          "velocity": 0.4409448818897638,
          "duration": 0.29853515625001137
        },
        {
          "name": "C5",
          "midi": 72,
          "time": 141.90791015625,
          "velocity": 0.5511811023622047,
          "duration": 0.29853515625001137
        },
        {
          "name": "E4",
          "midi": 64,
          "time": 142.50322265625002,
          "velocity": 0.4409448818897638,
          "duration": 0.2964843750000057
        },
        {
          "name": "A4",
          "midi": 69,
          "time": 142.50322265625002,
          "velocity": 0.5511811023622047,
          "duration": 0.2964843750000057
        },
        {
          "name": "C4",
          "midi": 60,
          "time": 142.8,
          "velocity": 0.48031496062992124,
          "duration": 0.3076171875
        },
        {
          "name": "G4",
          "midi": 67,
          "time": 142.8,
          "velocity": 0.5905511811023622,
          "duration": 0.3076171875
        },
        {
          "name": "G#4",
          "midi": 68,
          "time": 144,
          "velocity": 0.48031496062992124,
          "duration": 0.3076171875
        },
        {
          "name": "C5",
          "midi": 72,
          "time": 144,
          "velocity": 0.5905511811023622,
          "duration": 0.3076171875
        },
        {
          "name": "G#4",
          "midi": 68,
          "time": 144.30791015625,
          "velocity": 0.4409448818897638,
          "duration": 0.29853515625001137
        },
        {
          "name": "C5",
          "midi": 72,
          "time": 144.30791015625,
          "velocity": 0.5196850393700787,
          "duration": 0.29853515625001137
        },
        {
          "name": "G#4",
          "midi": 68,
          "time": 144.90322265625,
          "velocity": 0.4409448818897638,
          "duration": 0.2964843750000057
        },
        {
          "name": "C5",
          "midi": 72,
          "time": 144.90322265625,
          "velocity": 0.5196850393700787,
          "duration": 0.2964843750000057
        },
        {
          "name": "G#4",
          "midi": 68,
          "time": 145.50791015625,
          "velocity": 0.4409448818897638,
          "duration": 0.29853515625001137
        },
        {
          "name": "C5",
          "midi": 72,
          "time": 145.50791015625,
          "velocity": 0.5511811023622047,
          "duration": 0.29853515625001137
        },
        {
          "name": "A#4",
          "midi": 70,
          "time": 145.80673828125,
          "velocity": 0.4409448818897638,
          "duration": 0.29619140624998863
        },
        {
          "name": "D5",
          "midi": 74,
          "time": 145.80673828125,
          "velocity": 0.5511811023622047,
          "duration": 0.29619140624998863
        },
        {
          "name": "G4",
          "midi": 67,
          "time": 146.10322265624998,
          "velocity": 0.4409448818897638,
          "duration": 0.2964843750000057
        },
        {
          "name": "E5",
          "midi": 76,
          "time": 146.10322265624998,
          "velocity": 0.5511811023622047,
          "duration": 0.2964843750000057
        },
        {
          "name": "G#4",
          "midi": 68,
          "time": 148.79999999999998,
          "velocity": 0.48031496062992124,
          "duration": 0.3076171875
        },
        {
          "name": "C5",
          "midi": 72,
          "time": 148.79999999999998,
          "velocity": 0.5590551181102362,
          "duration": 0.3076171875
        },
        {
          "name": "G#4",
          "midi": 68,
          "time": 149.10791015624997,
          "velocity": 0.4409448818897638,
          "duration": 0.29853515625001137
        },
        {
          "name": "C5",
          "midi": 72,
          "time": 149.10791015624997,
          "velocity": 0.5196850393700787,
          "duration": 0.29853515625001137
        },
        {
          "name": "G#4",
          "midi": 68,
          "time": 149.70322265624998,
          "velocity": 0.4409448818897638,
          "duration": 0.2964843750000057
        },
        {
          "name": "C5",
          "midi": 72,
          "time": 149.70322265624998,
          "velocity": 0.5196850393700787,
          "duration": 0.2964843750000057
        },
        {
          "name": "G#4",
          "midi": 68,
          "time": 150.30791015625,
          "velocity": 0.4409448818897638,
          "duration": 0.29853515625001137
        },
        {
          "name": "C5",
          "midi": 72,
          "time": 150.30791015625,
          "velocity": 0.5511811023622047,
          "duration": 0.29853515625001137
        },
        {
          "name": "A#4",
          "midi": 70,
          "time": 150.60673828125,
          "velocity": 0.4409448818897638,
          "duration": 0.29619140624998863
        },
        {
          "name": "D5",
          "midi": 74,
          "time": 150.60673828125,
          "velocity": 0.5511811023622047,
          "duration": 0.29619140624998863
        },
        {
          "name": "G4",
          "midi": 67,
          "time": 151.2,
          "velocity": 0.48031496062992124,
          "duration": 0.3076171875
        },
        {
          "name": "E5",
          "midi": 76,
          "time": 151.2,
          "velocity": 0.5905511811023622,
          "duration": 0.3076171875
        },
        {
          "name": "E4",
          "midi": 64,
          "time": 151.50791015624998,
          "velocity": 0.4409448818897638,
          "duration": 0.29853515625001137
        },
        {
          "name": "C5",
          "midi": 72,
          "time": 151.50791015624998,
          "velocity": 0.5511811023622047,
          "duration": 0.29853515625001137
        },
        {
          "name": "E4",
          "midi": 64,
          "time": 152.10322265624998,
          "velocity": 0.4409448818897638,
          "duration": 0.2964843750000057
        },
        {
          "name": "A4",
          "midi": 69,
          "time": 152.10322265624998,
          "velocity": 0.5511811023622047,
          "duration": 0.2964843750000057
        },
        {
          "name": "C4",
          "midi": 60,
          "time": 152.39999999999998,
          "velocity": 0.48031496062992124,
          "duration": 0.3076171875
        },
        {
          "name": "G4",
          "midi": 67,
          "time": 152.39999999999998,
          "velocity": 0.5905511811023622,
          "duration": 0.3076171875
        },
        {
          "name": "F#4",
          "midi": 66,
          "time": 153.59999999999997,
          "velocity": 0.48031496062992124,
          "duration": 0.3076171875
        },
        {
          "name": "E5",
          "midi": 76,
          "time": 153.59999999999997,
          "velocity": 0.5905511811023622,
          "duration": 0.3076171875
        },
        {
          "name": "F#4",
          "midi": 66,
          "time": 153.90791015624995,
          "velocity": 0.4409448818897638,
          "duration": 0.29853515625001137
        },
        {
          "name": "E5",
          "midi": 76,
          "time": 153.90791015624995,
          "velocity": 0.5196850393700787,
          "duration": 0.29853515625001137
        },
        {
          "name": "F#4",
          "midi": 66,
          "time": 154.50322265624996,
          "velocity": 0.4409448818897638,
          "duration": 0.2964843750000057
        },
        {
          "name": "E5",
          "midi": 76,
          "time": 154.50322265624996,
          "velocity": 0.5511811023622047,
          "duration": 0.2964843750000057
        },
        {
          "name": "F#4",
          "midi": 66,
          "time": 155.10791015624997,
          "velocity": 0.4409448818897638,
          "duration": 0.29853515625001137
        },
        {
          "name": "C5",
          "midi": 72,
          "time": 155.10791015624997,
          "velocity": 0.5511811023622047,
          "duration": 0.29853515625001137
        },
        {
          "name": "F#4",
          "midi": 66,
          "time": 155.40673828124997,
          "velocity": 0.4409448818897638,
          "duration": 0.29619140624998863
        },
        {
          "name": "E5",
          "midi": 76,
          "time": 155.40673828124997,
          "velocity": 0.5511811023622047,
          "duration": 0.29619140624998863
        },
        {
          "name": "G4",
          "midi": 67,
          "time": 155.99999999999997,
          "velocity": 0.48031496062992124,
          "duration": 0.3076171875
        },
        {
          "name": "B4",
          "midi": 71,
          "time": 155.99999999999997,
          "velocity": 0.48031496062992124,
          "duration": 0.3076171875
        },
        {
          "name": "G5",
          "midi": 79,
          "time": 155.99999999999997,
          "velocity": 0.5905511811023622,
          "duration": 0.3076171875
        },
        {
          "name": "G4",
          "midi": 67,
          "time": 157.19999999999996,
          "velocity": 0.5433070866141733,
          "duration": 0.3076171875
        },
        {
          "name": "C5",
          "midi": 72,
          "time": 158.39999999999995,
          "velocity": 0.48031496062992124,
          "duration": 0.3076171875
        },
        {
          "name": "E5",
          "midi": 76,
          "time": 158.39999999999995,
          "velocity": 0.5905511811023622,
          "duration": 0.3076171875
        },
        {
          "name": "A4",
          "midi": 69,
          "time": 158.70791015624994,
          "velocity": 0.4409448818897638,
          "duration": 0.29853515625001137
        },
        {
          "name": "C5",
          "midi": 72,
          "time": 158.70791015624994,
          "velocity": 0.5511811023622047,
          "duration": 0.29853515625001137
        },
        {
          "name": "E4",
          "midi": 64,
          "time": 159.30322265624994,
          "velocity": 0.4409448818897638,
          "duration": 0.2964843750000057
        },
        {
          "name": "G4",
          "midi": 67,
          "time": 159.30322265624994,
          "velocity": 0.5511811023622047,
          "duration": 0.2964843750000057
        },
        {
          "name": "E4",
          "midi": 64,
          "time": 160.20673828124995,
          "velocity": 0.4409448818897638,
          "duration": 0.29619140624998863
        },
        {
          "name": "G#4",
          "midi": 68,
          "time": 160.20673828124995,
          "velocity": 0.5511811023622047,
          "duration": 0.29619140624998863
        },
        {
          "name": "F4",
          "midi": 65,
          "time": 160.79999999999995,
          "velocity": 0.48031496062992124,
          "duration": 0.3076171875
        },
        {
          "name": "A4",
          "midi": 69,
          "time": 160.79999999999995,
          "velocity": 0.5905511811023622,
          "duration": 0.3076171875
        },
        {
          "name": "C5",
          "midi": 72,
          "time": 161.10791015624994,
          "velocity": 0.4409448818897638,
          "duration": 0.29853515625001137
        },
        {
          "name": "F5",
          "midi": 77,
          "time": 161.10791015624994,
          "velocity": 0.5511811023622047,
          "duration": 0.29853515625001137
        },
        {
          "name": "C5",
          "midi": 72,
          "time": 161.70322265624995,
          "velocity": 0.4409448818897638,
          "duration": 0.2964843750000057
        },
        {
          "name": "F5",
          "midi": 77,
          "time": 161.70322265624995,
          "velocity": 0.5511811023622047,
          "duration": 0.2964843750000057
        },
        {
          "name": "F4",
          "midi": 65,
          "time": 161.99999999999994,
          "velocity": 0.48031496062992124,
          "duration": 0.3076171875
        },
        {
          "name": "A4",
          "midi": 69,
          "time": 161.99999999999994,
          "velocity": 0.5905511811023622,
          "duration": 0.3076171875
        },
        {
          "name": "G4",
          "midi": 67,
          "time": 163.19999999999993,
          "velocity": 0.48031496062992124,
          "duration": 0.20625000000001137
        },
        {
          "name": "B4",
          "midi": 71,
          "time": 163.19999999999993,
          "velocity": 0.5905511811023622,
          "duration": 0.20625000000001137
        },
        {
          "name": "F5",
          "midi": 77,
          "time": 163.60634765624994,
          "velocity": 0.4409448818897638,
          "duration": 0.19951171874998863
        },
        {
          "name": "A5",
          "midi": 81,
          "time": 163.60634765624994,
          "velocity": 0.5511811023622047,
          "duration": 0.19951171874998863
        },
        {
          "name": "F5",
          "midi": 77,
          "time": 164.00624999999994,
          "velocity": 0.4409448818897638,
          "duration": 0.19365234374998863
        },
        {
          "name": "A5",
          "midi": 81,
          "time": 164.00624999999994,
          "velocity": 0.5196850393700787,
          "duration": 0.19365234374998863
        },
        {
          "name": "F5",
          "midi": 77,
          "time": 164.39999999999992,
          "velocity": 0.48031496062992124,
          "duration": 0.20625000000001137
        },
        {
          "name": "A5",
          "midi": 81,
          "time": 164.39999999999992,
          "velocity": 0.5905511811023622,
          "duration": 0.20625000000001137
        },
        {
          "name": "E5",
          "midi": 76,
          "time": 164.80634765624993,
          "velocity": 0.4409448818897638,
          "duration": 0.19951171874998863
        },
        {
          "name": "G5",
          "midi": 79,
          "time": 164.80634765624993,
          "velocity": 0.5511811023622047,
          "duration": 0.19951171874998863
        },
        {
          "name": "D5",
          "midi": 74,
          "time": 165.20624999999993,
          "velocity": 0.4409448818897638,
          "duration": 0.19365234374998863
        },
        {
          "name": "F5",
          "midi": 77,
          "time": 165.20624999999993,
          "velocity": 0.5511811023622047,
          "duration": 0.19365234374998863
        },
        {
          "name": "C5",
          "midi": 72,
          "time": 165.5999999999999,
          "velocity": 0.48031496062992124,
          "duration": 0.3076171875
        },
        {
          "name": "E5",
          "midi": 76,
          "time": 165.5999999999999,
          "velocity": 0.5905511811023622,
          "duration": 0.3076171875
        },
        {
          "name": "A4",
          "midi": 69,
          "time": 165.9079101562499,
          "velocity": 0.4409448818897638,
          "duration": 0.29853515625001137
        },
        {
          "name": "C5",
          "midi": 72,
          "time": 165.9079101562499,
          "velocity": 0.5511811023622047,
          "duration": 0.29853515625001137
        },
        {
          "name": "F4",
          "midi": 65,
          "time": 166.5032226562499,
          "velocity": 0.4409448818897638,
          "duration": 0.2964843750000057
        },
        {
          "name": "A4",
          "midi": 69,
          "time": 166.5032226562499,
          "velocity": 0.5511811023622047,
          "duration": 0.2964843750000057
        },
        {
          "name": "E4",
          "midi": 64,
          "time": 166.7999999999999,
          "velocity": 0.48031496062992124,
          "duration": 0.3076171875
        },
        {
          "name": "G4",
          "midi": 67,
          "time": 166.7999999999999,
          "velocity": 0.5905511811023622,
          "duration": 0.3076171875
        },
        {
          "name": "C5",
          "midi": 72,
          "time": 167.9999999999999,
          "velocity": 0.48031496062992124,
          "duration": 0.3076171875
        },
        {
          "name": "E5",
          "midi": 76,
          "time": 167.9999999999999,
          "velocity": 0.5905511811023622,
          "duration": 0.3076171875
        },
        {
          "name": "A4",
          "midi": 69,
          "time": 168.30791015624987,
          "velocity": 0.4409448818897638,
          "duration": 0.29853515625001137
        },
        {
          "name": "C5",
          "midi": 72,
          "time": 168.30791015624987,
          "velocity": 0.5511811023622047,
          "duration": 0.29853515625001137
        },
        {
          "name": "E4",
          "midi": 64,
          "time": 168.90322265624988,
          "velocity": 0.4409448818897638,
          "duration": 0.2964843750000057
        },
        {
          "name": "G4",
          "midi": 67,
          "time": 168.90322265624988,
          "velocity": 0.5511811023622047,
          "duration": 0.2964843750000057
        },
        {
          "name": "E4",
          "midi": 64,
          "time": 169.8067382812499,
          "velocity": 0.4409448818897638,
          "duration": 0.29619140624998863
        },
        {
          "name": "G#4",
          "midi": 68,
          "time": 169.8067382812499,
          "velocity": 0.5511811023622047,
          "duration": 0.29619140624998863
        },
        {
          "name": "F4",
          "midi": 65,
          "time": 170.3999999999999,
          "velocity": 0.48031496062992124,
          "duration": 0.3076171875
        },
        {
          "name": "A4",
          "midi": 69,
          "time": 170.3999999999999,
          "velocity": 0.5905511811023622,
          "duration": 0.3076171875
        },
        {
          "name": "C5",
          "midi": 72,
          "time": 170.70791015624988,
          "velocity": 0.4409448818897638,
          "duration": 0.29853515625001137
        },
        {
          "name": "F5",
          "midi": 77,
          "time": 170.70791015624988,
          "velocity": 0.5511811023622047,
          "duration": 0.29853515625001137
        },
        {
          "name": "C5",
          "midi": 72,
          "time": 171.3032226562499,
          "velocity": 0.4409448818897638,
          "duration": 0.2964843750000057
        },
        {
          "name": "F5",
          "midi": 77,
          "time": 171.3032226562499,
          "velocity": 0.5511811023622047,
          "duration": 0.2964843750000057
        },
        {
          "name": "F4",
          "midi": 65,
          "time": 171.59999999999988,
          "velocity": 0.48031496062992124,
          "duration": 0.3076171875
        },
        {
          "name": "A4",
          "midi": 69,
          "time": 171.59999999999988,
          "velocity": 0.5905511811023622,
          "duration": 0.3076171875
        },
        {
          "name": "G4",
          "midi": 67,
          "time": 172.79999999999987,
          "velocity": 0.48031496062992124,
          "duration": 0.3076171875
        },
        {
          "name": "B4",
          "midi": 71,
          "time": 172.79999999999987,
          "velocity": 0.5905511811023622,
          "duration": 0.3076171875
        },
        {
          "name": "D5",
          "midi": 74,
          "time": 173.10791015624986,
          "velocity": 0.4409448818897638,
          "duration": 0.29853515625001137
        },
        {
          "name": "F5",
          "midi": 77,
          "time": 173.10791015624986,
          "velocity": 0.5511811023622047,
          "duration": 0.29853515625001137
        },
        {
          "name": "D5",
          "midi": 74,
          "time": 173.70322265624986,
          "velocity": 0.4409448818897638,
          "duration": 0.2964843750000057
        },
        {
          "name": "F5",
          "midi": 77,
          "time": 173.70322265624986,
          "velocity": 0.5196850393700787,
          "duration": 0.2964843750000057
        },
        {
          "name": "D5",
          "midi": 74,
          "time": 173.99999999999986,
          "velocity": 0.48031496062992124,
          "duration": 0.20625000000001137
        },
        {
          "name": "F5",
          "midi": 77,
          "time": 173.99999999999986,
          "velocity": 0.5905511811023622,
          "duration": 0.20625000000001137
        },
        {
          "name": "C5",
          "midi": 72,
          "time": 174.40634765624986,
          "velocity": 0.4409448818897638,
          "duration": 0.19951171874998863
        },
        {
          "name": "E5",
          "midi": 76,
          "time": 174.40634765624986,
          "velocity": 0.5511811023622047,
          "duration": 0.19951171874998863
        },
        {
          "name": "B4",
          "midi": 71,
          "time": 174.80624999999986,
          "velocity": 0.4409448818897638,
          "duration": 0.19365234374998863
        },
        {
          "name": "D5",
          "midi": 74,
          "time": 174.80624999999986,
          "velocity": 0.5511811023622047,
          "duration": 0.19365234374998863
        },
        {
          "name": "G4",
          "midi": 67,
          "time": 175.19999999999985,
          "velocity": 0.48031496062992124,
          "duration": 0.3076171875
        },
        {
          "name": "C5",
          "midi": 72,
          "time": 175.19999999999985,
          "velocity": 0.5905511811023622,
          "duration": 0.3076171875
        },
        {
          "name": "E4",
          "midi": 64,
          "time": 175.50791015624984,
          "velocity": 0.5039370078740157,
          "duration": 0.29853515625001137
        },
        {
          "name": "E4",
          "midi": 64,
          "time": 176.10322265624984,
          "velocity": 0.5039370078740157,
          "duration": 0.2964843750000057
        },
        {
          "name": "C4",
          "midi": 60,
          "time": 176.39999999999984,
          "velocity": 0.5433070866141733,
          "duration": 0.3076171875
        },
        {
          "name": "E4",
          "midi": 64,
          "time": 177.59999999999982,
          "velocity": 0.48031496062992124,
          "duration": 0.3076171875
        },
        {
          "name": "C5",
          "midi": 72,
          "time": 177.59999999999982,
          "velocity": 0.5905511811023622,
          "duration": 0.3076171875
        },
        {
          "name": "C4",
          "midi": 60,
          "time": 178.50322265624982,
          "velocity": 0.4409448818897638,
          "duration": 0.2964843750000057
        },
        {
          "name": "G4",
          "midi": 67,
          "time": 178.50322265624982,
          "velocity": 0.5511811023622047,
          "duration": 0.2964843750000057
        },
        {
          "name": "G3",
          "midi": 55,
          "time": 179.40673828124983,
          "velocity": 0.4409448818897638,
          "duration": 0.29619140624998863
        },
        {
          "name": "E4",
          "midi": 64,
          "time": 179.40673828124983,
          "velocity": 0.5511811023622047,
          "duration": 0.29619140624998863
        },
        {
          "name": "C4",
          "midi": 60,
          "time": 180.30791015624982,
          "velocity": 0.4409448818897638,
          "duration": 0.29853515625001137
        },
        {
          "name": "A4",
          "midi": 69,
          "time": 180.30791015624982,
          "velocity": 0.5511811023622047,
          "duration": 0.29853515625001137
        },
        {
          "name": "D4",
          "midi": 62,
          "time": 180.90322265624982,
          "velocity": 0.4409448818897638,
          "duration": 0.2964843750000057
        },
        {
          "name": "B4",
          "midi": 71,
          "time": 180.90322265624982,
          "velocity": 0.5511811023622047,
          "duration": 0.2964843750000057
        },
        {
          "name": "C#4",
          "midi": 61,
          "time": 181.50791015624984,
          "velocity": 0.4409448818897638,
          "duration": 0.29853515625001137
        },
        {
          "name": "A#4",
          "midi": 70,
          "time": 181.50791015624984,
          "velocity": 0.5511811023622047,
          "duration": 0.29853515625001137
        },
        {
          "name": "C4",
          "midi": 60,
          "time": 181.80673828124984,
          "velocity": 0.4409448818897638,
          "duration": 0.29619140624998863
        },
        {
          "name": "A4",
          "midi": 69,
          "time": 181.80673828124984,
          "velocity": 0.5511811023622047,
          "duration": 0.29619140624998863
        },
        {
          "name": "C4",
          "midi": 60,
          "time": 182.39999999999984,
          "velocity": 0.48031496062992124,
          "duration": 0.20625000000001137
        },
        {
          "name": "G4",
          "midi": 67,
          "time": 182.39999999999984,
          "velocity": 0.5905511811023622,
          "duration": 0.20625000000001137
        },
        {
          "name": "G4",
          "midi": 67,
          "time": 182.80634765624984,
          "velocity": 0.4409448818897638,
          "duration": 0.19951171874998863
        },
        {
          "name": "E5",
          "midi": 76,
          "time": 182.80634765624984,
          "velocity": 0.5511811023622047,
          "duration": 0.19951171874998863
        },
        {
          "name": "B4",
          "midi": 71,
          "time": 183.20624999999984,
          "velocity": 0.4409448818897638,
          "duration": 0.19365234374998863
        },
        {
          "name": "G5",
          "midi": 79,
          "time": 183.20624999999984,
          "velocity": 0.5511811023622047,
          "duration": 0.19365234374998863
        },
        {
          "name": "C5",
          "midi": 72,
          "time": 183.59999999999982,
          "velocity": 0.48031496062992124,
          "duration": 0.3076171875
        },
        {
          "name": "A5",
          "midi": 81,
          "time": 183.59999999999982,
          "velocity": 0.5905511811023622,
          "duration": 0.3076171875
        },
        {
          "name": "A4",
          "midi": 69,
          "time": 184.2067382812498,
          "velocity": 0.4409448818897638,
          "duration": 0.29619140624998863
        },
        {
          "name": "F5",
          "midi": 77,
          "time": 184.2067382812498,
          "velocity": 0.5511811023622047,
          "duration": 0.29619140624998863
        },
        {
          "name": "B4",
          "midi": 71,
          "time": 184.5032226562498,
          "velocity": 0.4409448818897638,
          "duration": 0.2964843750000057
        },
        {
          "name": "G5",
          "midi": 79,
          "time": 184.5032226562498,
          "velocity": 0.5511811023622047,
          "duration": 0.2964843750000057
        },
        {
          "name": "A4",
          "midi": 69,
          "time": 185.1079101562498,
          "velocity": 0.4409448818897638,
          "duration": 0.29853515625001137
        },
        {
          "name": "E5",
          "midi": 76,
          "time": 185.1079101562498,
          "velocity": 0.5511811023622047,
          "duration": 0.29853515625001137
        },
        {
          "name": "E4",
          "midi": 64,
          "time": 185.7032226562498,
          "velocity": 0.4409448818897638,
          "duration": 0.2964843750000057
        },
        {
          "name": "C5",
          "midi": 72,
          "time": 185.7032226562498,
          "velocity": 0.5511811023622047,
          "duration": 0.2964843750000057
        },
        {
          "name": "F4",
          "midi": 65,
          "time": 185.9999999999998,
          "velocity": 0.48031496062992124,
          "duration": 0.3076171875
        },
        {
          "name": "D5",
          "midi": 74,
          "time": 185.9999999999998,
          "velocity": 0.5905511811023622,
          "duration": 0.3076171875
        },
        {
          "name": "D4",
          "midi": 62,
          "time": 186.3079101562498,
          "velocity": 0.4409448818897638,
          "duration": 0.29853515625001137
        },
        {
          "name": "B4",
          "midi": 71,
          "time": 186.3079101562498,
          "velocity": 0.5511811023622047,
          "duration": 0.29853515625001137
        },
        {
          "name": "E4",
          "midi": 64,
          "time": 187.1999999999998,
          "velocity": 0.48031496062992124,
          "duration": 0.3076171875
        },
        {
          "name": "C5",
          "midi": 72,
          "time": 187.1999999999998,
          "velocity": 0.5905511811023622,
          "duration": 0.3076171875
        },
        {
          "name": "C4",
          "midi": 60,
          "time": 188.10322265624978,
          "velocity": 0.4409448818897638,
          "duration": 0.2964843750000057
        },
        {
          "name": "G4",
          "midi": 67,
          "time": 188.10322265624978,
          "velocity": 0.5511811023622047,
          "duration": 0.2964843750000057
        },
        {
          "name": "G3",
          "midi": 55,
          "time": 189.0067382812498,
          "velocity": 0.4409448818897638,
          "duration": 0.29619140624998863
        },
        {
          "name": "E4",
          "midi": 64,
          "time": 189.0067382812498,
          "velocity": 0.5511811023622047,
          "duration": 0.29619140624998863
        },
        {
          "name": "C4",
          "midi": 60,
          "time": 189.90791015624978,
          "velocity": 0.4409448818897638,
          "duration": 0.29853515625001137
        },
        {
          "name": "A4",
          "midi": 69,
          "time": 189.90791015624978,
          "velocity": 0.5511811023622047,
          "duration": 0.29853515625001137
        },
        {
          "name": "D4",
          "midi": 62,
          "time": 190.5032226562498,
          "velocity": 0.4409448818897638,
          "duration": 0.2964843750000057
        },
        {
          "name": "B4",
          "midi": 71,
          "time": 190.5032226562498,
          "velocity": 0.5511811023622047,
          "duration": 0.2964843750000057
        },
        {
          "name": "C#4",
          "midi": 61,
          "time": 191.1079101562498,
          "velocity": 0.4409448818897638,
          "duration": 0.29853515625001137
        },
        {
          "name": "A#4",
          "midi": 70,
          "time": 191.1079101562498,
          "velocity": 0.5511811023622047,
          "duration": 0.29853515625001137
        },
        {
          "name": "C4",
          "midi": 60,
          "time": 191.4067382812498,
          "velocity": 0.4409448818897638,
          "duration": 0.29619140624998863
        },
        {
          "name": "A4",
          "midi": 69,
          "time": 191.4067382812498,
          "velocity": 0.5511811023622047,
          "duration": 0.29619140624998863
        },
        {
          "name": "C4",
          "midi": 60,
          "time": 191.9999999999998,
          "velocity": 0.48031496062992124,
          "duration": 0.20625000000001137
        },
        {
          "name": "G4",
          "midi": 67,
          "time": 191.9999999999998,
          "velocity": 0.5905511811023622,
          "duration": 0.20625000000001137
        },
        {
          "name": "G4",
          "midi": 67,
          "time": 192.4063476562498,
          "velocity": 0.4409448818897638,
          "duration": 0.19951171874998863
        },
        {
          "name": "E5",
          "midi": 76,
          "time": 192.4063476562498,
          "velocity": 0.5511811023622047,
          "duration": 0.19951171874998863
        },
        {
          "name": "B4",
          "midi": 71,
          "time": 192.8062499999998,
          "velocity": 0.4409448818897638,
          "duration": 0.19365234374998863
        },
        {
          "name": "G5",
          "midi": 79,
          "time": 192.8062499999998,
          "velocity": 0.5511811023622047,
          "duration": 0.19365234374998863
        },
        {
          "name": "C5",
          "midi": 72,
          "time": 193.1999999999998,
          "velocity": 0.48031496062992124,
          "duration": 0.3076171875
        },
        {
          "name": "A5",
          "midi": 81,
          "time": 193.1999999999998,
          "velocity": 0.5905511811023622,
          "duration": 0.3076171875
        },
        {
          "name": "A4",
          "midi": 69,
          "time": 193.80673828124978,
          "velocity": 0.4409448818897638,
          "duration": 0.29619140624998863
        },
        {
          "name": "F5",
          "midi": 77,
          "time": 193.80673828124978,
          "velocity": 0.5511811023622047,
          "duration": 0.29619140624998863
        },
        {
          "name": "B4",
          "midi": 71,
          "time": 194.10322265624976,
          "velocity": 0.4409448818897638,
          "duration": 0.2964843750000057
        },
        {
          "name": "G5",
          "midi": 79,
          "time": 194.10322265624976,
          "velocity": 0.5511811023622047,
          "duration": 0.2964843750000057
        },
        {
          "name": "A4",
          "midi": 69,
          "time": 194.70791015624977,
          "velocity": 0.4409448818897638,
          "duration": 0.29853515625001137
        },
        {
          "name": "E5",
          "midi": 76,
          "time": 194.70791015624977,
          "velocity": 0.5511811023622047,
          "duration": 0.29853515625001137
        },
        {
          "name": "E4",
          "midi": 64,
          "time": 195.30322265624977,
          "velocity": 0.4409448818897638,
          "duration": 0.2964843750000057
        },
        {
          "name": "C5",
          "midi": 72,
          "time": 195.30322265624977,
          "velocity": 0.5511811023622047,
          "duration": 0.2964843750000057
        },
        {
          "name": "F4",
          "midi": 65,
          "time": 195.59999999999977,
          "velocity": 0.48031496062992124,
          "duration": 0.3076171875
        },
        {
          "name": "D5",
          "midi": 74,
          "time": 195.59999999999977,
          "velocity": 0.5905511811023622,
          "duration": 0.3076171875
        },
        {
          "name": "D4",
          "midi": 62,
          "time": 195.90791015624976,
          "velocity": 0.4409448818897638,
          "duration": 0.29853515625001137
        },
        {
          "name": "B4",
          "midi": 71,
          "time": 195.90791015624976,
          "velocity": 0.5511811023622047,
          "duration": 0.29853515625001137
        },
        {
          "name": "E5",
          "midi": 76,
          "time": 197.40673828124977,
          "velocity": 0.4409448818897638,
          "duration": 0.29619140624998863
        },
        {
          "name": "G5",
          "midi": 79,
          "time": 197.40673828124977,
          "velocity": 0.5511811023622047,
          "duration": 0.29619140624998863
        },
        {
          "name": "D#5",
          "midi": 75,
          "time": 197.70322265624975,
          "velocity": 0.4409448818897638,
          "duration": 0.2964843750000057
        },
        {
          "name": "F#5",
          "midi": 78,
          "time": 197.70322265624975,
          "velocity": 0.5511811023622047,
          "duration": 0.2964843750000057
        },
        {
          "name": "D5",
          "midi": 74,
          "time": 197.99999999999974,
          "velocity": 0.48031496062992124,
          "duration": 0.3076171875
        },
        {
          "name": "F5",
          "midi": 77,
          "time": 197.99999999999974,
          "velocity": 0.5905511811023622,
          "duration": 0.3076171875
        },
        {
          "name": "B4",
          "midi": 71,
          "time": 198.30791015624973,
          "velocity": 0.4409448818897638,
          "duration": 0.29853515625001137
        },
        {
          "name": "D#5",
          "midi": 75,
          "time": 198.30791015624973,
          "velocity": 0.5511811023622047,
          "duration": 0.29853515625001137
        },
        {
          "name": "C5",
          "midi": 72,
          "time": 198.90322265624974,
          "velocity": 0.4409448818897638,
          "duration": 0.2964843750000057
        },
        {
          "name": "E5",
          "midi": 76,
          "time": 198.90322265624974,
          "velocity": 0.5511811023622047,
          "duration": 0.2964843750000057
        },
        {
          "name": "E4",
          "midi": 64,
          "time": 199.50791015624975,
          "velocity": 0.4409448818897638,
          "duration": 0.29853515625001137
        },
        {
          "name": "G#4",
          "midi": 68,
          "time": 199.50791015624975,
          "velocity": 0.5511811023622047,
          "duration": 0.29853515625001137
        },
        {
          "name": "F4",
          "midi": 65,
          "time": 199.80673828124975,
          "velocity": 0.4409448818897638,
          "duration": 0.29619140624998863
        },
        {
          "name": "A4",
          "midi": 69,
          "time": 199.80673828124975,
          "velocity": 0.5511811023622047,
          "duration": 0.29619140624998863
        },
        {
          "name": "G4",
          "midi": 67,
          "time": 200.10322265624973,
          "velocity": 0.4409448818897638,
          "duration": 0.2964843750000057
        },
        {
          "name": "C5",
          "midi": 72,
          "time": 200.10322265624973,
          "velocity": 0.5511811023622047,
          "duration": 0.2964843750000057
        },
        {
          "name": "C4",
          "midi": 60,
          "time": 200.70791015624974,
          "velocity": 0.4409448818897638,
          "duration": 0.29853515625001137
        },
        {
          "name": "A4",
          "midi": 69,
          "time": 200.70791015624974,
          "velocity": 0.5511811023622047,
          "duration": 0.29853515625001137
        },
        {
          "name": "E4",
          "midi": 64,
          "time": 201.00673828124974,
          "velocity": 0.4409448818897638,
          "duration": 0.29619140624998863
        },
        {
          "name": "C5",
          "midi": 72,
          "time": 201.00673828124974,
          "velocity": 0.5511811023622047,
          "duration": 0.29619140624998863
        },
        {
          "name": "F4",
          "midi": 65,
          "time": 201.30322265624972,
          "velocity": 0.4409448818897638,
          "duration": 0.2964843750000057
        },
        {
          "name": "D5",
          "midi": 74,
          "time": 201.30322265624972,
          "velocity": 0.5511811023622047,
          "duration": 0.2964843750000057
        },
        {
          "name": "E5",
          "midi": 76,
          "time": 202.20673828124973,
          "velocity": 0.4409448818897638,
          "duration": 0.29619140624998863
        },
        {
          "name": "G5",
          "midi": 79,
          "time": 202.20673828124973,
          "velocity": 0.5511811023622047,
          "duration": 0.29619140624998863
        },
        {
          "name": "D#5",
          "midi": 75,
          "time": 202.5032226562497,
          "velocity": 0.4409448818897638,
          "duration": 0.2964843750000057
        },
        {
          "name": "F#5",
          "midi": 78,
          "time": 202.5032226562497,
          "velocity": 0.5511811023622047,
          "duration": 0.2964843750000057
        },
        {
          "name": "D5",
          "midi": 74,
          "time": 202.7999999999997,
          "velocity": 0.48031496062992124,
          "duration": 0.3076171875
        },
        {
          "name": "F5",
          "midi": 77,
          "time": 202.7999999999997,
          "velocity": 0.5905511811023622,
          "duration": 0.3076171875
        },
        {
          "name": "B4",
          "midi": 71,
          "time": 203.1079101562497,
          "velocity": 0.4409448818897638,
          "duration": 0.29853515625001137
        },
        {
          "name": "D#5",
          "midi": 75,
          "time": 203.1079101562497,
          "velocity": 0.5511811023622047,
          "duration": 0.29853515625001137
        },
        {
          "name": "C5",
          "midi": 72,
          "time": 203.7032226562497,
          "velocity": 0.4409448818897638,
          "duration": 0.2964843750000057
        },
        {
          "name": "E5",
          "midi": 76,
          "time": 203.7032226562497,
          "velocity": 0.5511811023622047,
          "duration": 0.2964843750000057
        },
        {
          "name": "F5",
          "midi": 77,
          "time": 204.3079101562497,
          "velocity": 0.4409448818897638,
          "duration": 0.29853515625001137
        },
        {
          "name": "G5",
          "midi": 79,
          "time": 204.3079101562497,
          "velocity": 0.4409448818897638,
          "duration": 0.29853515625001137
        },
        {
          "name": "C6",
          "midi": 84,
          "time": 204.3079101562497,
          "velocity": 0.5511811023622047,
          "duration": 0.29853515625001137
        },
        {
          "name": "F5",
          "midi": 77,
          "time": 204.9032226562497,
          "velocity": 0.4409448818897638,
          "duration": 0.2964843750000057
        },
        {
          "name": "G5",
          "midi": 79,
          "time": 204.9032226562497,
          "velocity": 0.4409448818897638,
          "duration": 0.2964843750000057
        },
        {
          "name": "C6",
          "midi": 84,
          "time": 204.9032226562497,
          "velocity": 0.5196850393700787,
          "duration": 0.2964843750000057
        },
        {
          "name": "F5",
          "midi": 77,
          "time": 205.1999999999997,
          "velocity": 0.48031496062992124,
          "duration": 0.3076171875
        },
        {
          "name": "G5",
          "midi": 79,
          "time": 205.1999999999997,
          "velocity": 0.48031496062992124,
          "duration": 0.3076171875
        },
        {
          "name": "C6",
          "midi": 84,
          "time": 205.1999999999997,
          "velocity": 0.5905511811023622,
          "duration": 0.3076171875
        },
        {
          "name": "E5",
          "midi": 76,
          "time": 207.0067382812497,
          "velocity": 0.4409448818897638,
          "duration": 0.29619140624998863
        },
        {
          "name": "G5",
          "midi": 79,
          "time": 207.0067382812497,
          "velocity": 0.5511811023622047,
          "duration": 0.29619140624998863
        },
        {
          "name": "D#5",
          "midi": 75,
          "time": 207.3032226562497,
          "velocity": 0.4409448818897638,
          "duration": 0.2964843750000057
        },
        {
          "name": "F#5",
          "midi": 78,
          "time": 207.3032226562497,
          "velocity": 0.5511811023622047,
          "duration": 0.2964843750000057
        },
        {
          "name": "D5",
          "midi": 74,
          "time": 207.59999999999968,
          "velocity": 0.48031496062992124,
          "duration": 0.3076171875
        },
        {
          "name": "F5",
          "midi": 77,
          "time": 207.59999999999968,
          "velocity": 0.5905511811023622,
          "duration": 0.3076171875
        },
        {
          "name": "B4",
          "midi": 71,
          "time": 207.90791015624967,
          "velocity": 0.4409448818897638,
          "duration": 0.29853515625001137
        },
        {
          "name": "D#5",
          "midi": 75,
          "time": 207.90791015624967,
          "velocity": 0.5511811023622047,
          "duration": 0.29853515625001137
        },
        {
          "name": "C5",
          "midi": 72,
          "time": 208.50322265624968,
          "velocity": 0.4409448818897638,
          "duration": 0.2964843750000057
        },
        {
          "name": "E5",
          "midi": 76,
          "time": 208.50322265624968,
          "velocity": 0.5511811023622047,
          "duration": 0.2964843750000057
        },
        {
          "name": "E4",
          "midi": 64,
          "time": 209.1079101562497,
          "velocity": 0.4409448818897638,
          "duration": 0.29853515625001137
        },
        {
          "name": "G#4",
          "midi": 68,
          "time": 209.1079101562497,
          "velocity": 0.5511811023622047,
          "duration": 0.29853515625001137
        },
        {
          "name": "F4",
          "midi": 65,
          "time": 209.4067382812497,
          "velocity": 0.4409448818897638,
          "duration": 0.29619140624998863
        },
        {
          "name": "A4",
          "midi": 69,
          "time": 209.4067382812497,
          "velocity": 0.5511811023622047,
          "duration": 0.29619140624998863
        },
        {
          "name": "G4",
          "midi": 67,
          "time": 209.70322265624966,
          "velocity": 0.4409448818897638,
          "duration": 0.2964843750000057
        },
        {
          "name": "C5",
          "midi": 72,
          "time": 209.70322265624966,
          "velocity": 0.5511811023622047,
          "duration": 0.2964843750000057
        },
        {
          "name": "C4",
          "midi": 60,
          "time": 210.30791015624968,
          "velocity": 0.4409448818897638,
          "duration": 0.29853515625001137
        },
        {
          "name": "A4",
          "midi": 69,
          "time": 210.30791015624968,
          "velocity": 0.5511811023622047,
          "duration": 0.29853515625001137
        },
        {
          "name": "E4",
          "midi": 64,
          "time": 210.60673828124968,
          "velocity": 0.4409448818897638,
          "duration": 0.29619140624998863
        },
        {
          "name": "C5",
          "midi": 72,
          "time": 210.60673828124968,
          "velocity": 0.5511811023622047,
          "duration": 0.29619140624998863
        },
        {
          "name": "F4",
          "midi": 65,
          "time": 210.90322265624965,
          "velocity": 0.4409448818897638,
          "duration": 0.2964843750000057
        },
        {
          "name": "D5",
          "midi": 74,
          "time": 210.90322265624965,
          "velocity": 0.5511811023622047,
          "duration": 0.2964843750000057
        },
        {
          "name": "G#4",
          "midi": 68,
          "time": 211.80673828124966,
          "velocity": 0.4409448818897638,
          "duration": 0.29619140624998863
        },
        {
          "name": "D#5",
          "midi": 75,
          "time": 211.80673828124966,
          "velocity": 0.5511811023622047,
          "duration": 0.29619140624998863
        },
        {
          "name": "F4",
          "midi": 65,
          "time": 212.70791015624965,
          "velocity": 0.4409448818897638,
          "duration": 0.29853515625001137
        },
        {
          "name": "D5",
          "midi": 74,
          "time": 212.70791015624965,
          "velocity": 0.5511811023622047,
          "duration": 0.29853515625001137
        },
        {
          "name": "E4",
          "midi": 64,
          "time": 213.59999999999965,
          "velocity": 0.48031496062992124,
          "duration": 0.3076171875
        },
        {
          "name": "C5",
          "midi": 72,
          "time": 213.59999999999965,
          "velocity": 0.5905511811023622,
          "duration": 0.3076171875
        },
        {
          "name": "E5",
          "midi": 76,
          "time": 216.60673828124965,
          "velocity": 0.4409448818897638,
          "duration": 0.29619140624998863
        },
        {
          "name": "G5",
          "midi": 79,
          "time": 216.60673828124965,
          "velocity": 0.5511811023622047,
          "duration": 0.29619140624998863
        },
        {
          "name": "D#5",
          "midi": 75,
          "time": 216.90322265624962,
          "velocity": 0.4409448818897638,
          "duration": 0.2964843750000057
        },
        {
          "name": "F#5",
          "midi": 78,
          "time": 216.90322265624962,
          "velocity": 0.5511811023622047,
          "duration": 0.2964843750000057
        },
        {
          "name": "D5",
          "midi": 74,
          "time": 217.19999999999962,
          "velocity": 0.48031496062992124,
          "duration": 0.3076171875
        },
        {
          "name": "F5",
          "midi": 77,
          "time": 217.19999999999962,
          "velocity": 0.5905511811023622,
          "duration": 0.3076171875
        },
        {
          "name": "B4",
          "midi": 71,
          "time": 217.5079101562496,
          "velocity": 0.4409448818897638,
          "duration": 0.29853515625001137
        },
        {
          "name": "D#5",
          "midi": 75,
          "time": 217.5079101562496,
          "velocity": 0.5511811023622047,
          "duration": 0.29853515625001137
        },
        {
          "name": "C5",
          "midi": 72,
          "time": 218.1032226562496,
          "velocity": 0.4409448818897638,
          "duration": 0.2964843750000057
        },
        {
          "name": "E5",
          "midi": 76,
          "time": 218.1032226562496,
          "velocity": 0.5511811023622047,
          "duration": 0.2964843750000057
        },
        {
          "name": "E4",
          "midi": 64,
          "time": 218.70791015624962,
          "velocity": 0.4409448818897638,
          "duration": 0.29853515625001137
        },
        {
          "name": "G#4",
          "midi": 68,
          "time": 218.70791015624962,
          "velocity": 0.5511811023622047,
          "duration": 0.29853515625001137
        },
        {
          "name": "F4",
          "midi": 65,
          "time": 219.00673828124962,
          "velocity": 0.4409448818897638,
          "duration": 0.29619140624998863
        },
        {
          "name": "A4",
          "midi": 69,
          "time": 219.00673828124962,
          "velocity": 0.5511811023622047,
          "duration": 0.29619140624998863
        },
        {
          "name": "G4",
          "midi": 67,
          "time": 219.3032226562496,
          "velocity": 0.4409448818897638,
          "duration": 0.2964843750000057
        },
        {
          "name": "C5",
          "midi": 72,
          "time": 219.3032226562496,
          "velocity": 0.5511811023622047,
          "duration": 0.2964843750000057
        },
        {
          "name": "C4",
          "midi": 60,
          "time": 219.9079101562496,
          "velocity": 0.4409448818897638,
          "duration": 0.29853515625001137
        },
        {
          "name": "A4",
          "midi": 69,
          "time": 219.9079101562496,
          "velocity": 0.5511811023622047,
          "duration": 0.29853515625001137
        },
        {
          "name": "E4",
          "midi": 64,
          "time": 220.2067382812496,
          "velocity": 0.4409448818897638,
          "duration": 0.29619140624998863
        },
        {
          "name": "C5",
          "midi": 72,
          "time": 220.2067382812496,
          "velocity": 0.5511811023622047,
          "duration": 0.29619140624998863
        },
        {
          "name": "F4",
          "midi": 65,
          "time": 220.5032226562496,
          "velocity": 0.4409448818897638,
          "duration": 0.2964843750000057
        },
        {
          "name": "D5",
          "midi": 74,
          "time": 220.5032226562496,
          "velocity": 0.5511811023622047,
          "duration": 0.2964843750000057
        },
        {
          "name": "E5",
          "midi": 76,
          "time": 221.4067382812496,
          "velocity": 0.4409448818897638,
          "duration": 0.29619140624998863
        },
        {
          "name": "G5",
          "midi": 79,
          "time": 221.4067382812496,
          "velocity": 0.5511811023622047,
          "duration": 0.29619140624998863
        },
        {
          "name": "D#5",
          "midi": 75,
          "time": 221.70322265624958,
          "velocity": 0.4409448818897638,
          "duration": 0.2964843750000057
        },
        {
          "name": "F#5",
          "midi": 78,
          "time": 221.70322265624958,
          "velocity": 0.5511811023622047,
          "duration": 0.2964843750000057
        },
        {
          "name": "D5",
          "midi": 74,
          "time": 221.99999999999957,
          "velocity": 0.48031496062992124,
          "duration": 0.3076171875
        },
        {
          "name": "F5",
          "midi": 77,
          "time": 221.99999999999957,
          "velocity": 0.5905511811023622,
          "duration": 0.3076171875
        },
        {
          "name": "B4",
          "midi": 71,
          "time": 222.30791015624956,
          "velocity": 0.4409448818897638,
          "duration": 0.29853515625001137
        },
        {
          "name": "D#5",
          "midi": 75,
          "time": 222.30791015624956,
          "velocity": 0.5511811023622047,
          "duration": 0.29853515625001137
        },
        {
          "name": "C5",
          "midi": 72,
          "time": 222.90322265624957,
          "velocity": 0.4409448818897638,
          "duration": 0.2964843750000057
        },
        {
          "name": "E5",
          "midi": 76,
          "time": 222.90322265624957,
          "velocity": 0.5511811023622047,
          "duration": 0.2964843750000057
        },
        {
          "name": "F5",
          "midi": 77,
          "time": 223.50791015624958,
          "velocity": 0.4409448818897638,
          "duration": 0.29853515625001137
        },
        {
          "name": "G5",
          "midi": 79,
          "time": 223.50791015624958,
          "velocity": 0.4409448818897638,
          "duration": 0.29853515625001137
        },
        {
          "name": "C6",
          "midi": 84,
          "time": 223.50791015624958,
          "velocity": 0.5511811023622047,
          "duration": 0.29853515625001137
        },
        {
          "name": "F5",
          "midi": 77,
          "time": 224.10322265624959,
          "velocity": 0.4409448818897638,
          "duration": 0.2964843750000057
        },
        {
          "name": "G5",
          "midi": 79,
          "time": 224.10322265624959,
          "velocity": 0.4409448818897638,
          "duration": 0.2964843750000057
        },
        {
          "name": "C6",
          "midi": 84,
          "time": 224.10322265624959,
          "velocity": 0.5196850393700787,
          "duration": 0.2964843750000057
        },
        {
          "name": "F5",
          "midi": 77,
          "time": 224.39999999999958,
          "velocity": 0.48031496062992124,
          "duration": 0.3076171875
        },
        {
          "name": "G5",
          "midi": 79,
          "time": 224.39999999999958,
          "velocity": 0.48031496062992124,
          "duration": 0.3076171875
        },
        {
          "name": "C6",
          "midi": 84,
          "time": 224.39999999999958,
          "velocity": 0.5905511811023622,
          "duration": 0.3076171875
        },
        {
          "name": "E5",
          "midi": 76,
          "time": 226.20673828124959,
          "velocity": 0.4409448818897638,
          "duration": 0.29619140624998863
        },
        {
          "name": "G5",
          "midi": 79,
          "time": 226.20673828124959,
          "velocity": 0.5511811023622047,
          "duration": 0.29619140624998863
        },
        {
          "name": "D#5",
          "midi": 75,
          "time": 226.50322265624956,
          "velocity": 0.4409448818897638,
          "duration": 0.2964843750000057
        },
        {
          "name": "F#5",
          "midi": 78,
          "time": 226.50322265624956,
          "velocity": 0.5511811023622047,
          "duration": 0.2964843750000057
        },
        {
          "name": "D5",
          "midi": 74,
          "time": 226.79999999999956,
          "velocity": 0.48031496062992124,
          "duration": 0.3076171875
        },
        {
          "name": "F5",
          "midi": 77,
          "time": 226.79999999999956,
          "velocity": 0.5905511811023622,
          "duration": 0.3076171875
        },
        {
          "name": "B4",
          "midi": 71,
          "time": 227.10791015624955,
          "velocity": 0.4409448818897638,
          "duration": 0.29853515625001137
        },
        {
          "name": "D#5",
          "midi": 75,
          "time": 227.10791015624955,
          "velocity": 0.5511811023622047,
          "duration": 0.29853515625001137
        },
        {
          "name": "C5",
          "midi": 72,
          "time": 227.70322265624955,
          "velocity": 0.4409448818897638,
          "duration": 0.2964843750000057
        },
        {
          "name": "E5",
          "midi": 76,
          "time": 227.70322265624955,
          "velocity": 0.5511811023622047,
          "duration": 0.2964843750000057
        },
        {
          "name": "E4",
          "midi": 64,
          "time": 228.30791015624956,
          "velocity": 0.4409448818897638,
          "duration": 0.29853515625001137
        },
        {
          "name": "G#4",
          "midi": 68,
          "time": 228.30791015624956,
          "velocity": 0.5511811023622047,
          "duration": 0.29853515625001137
        },
        {
          "name": "F4",
          "midi": 65,
          "time": 228.60673828124956,
          "velocity": 0.4409448818897638,
          "duration": 0.29619140624998863
        },
        {
          "name": "A4",
          "midi": 69,
          "time": 228.60673828124956,
          "velocity": 0.5511811023622047,
          "duration": 0.29619140624998863
        },
        {
          "name": "G4",
          "midi": 67,
          "time": 228.90322265624954,
          "velocity": 0.4409448818897638,
          "duration": 0.2964843750000057
        },
        {
          "name": "C5",
          "midi": 72,
          "time": 228.90322265624954,
          "velocity": 0.5511811023622047,
          "duration": 0.2964843750000057
        },
        {
          "name": "C4",
          "midi": 60,
          "time": 229.50791015624955,
          "velocity": 0.4409448818897638,
          "duration": 0.29853515625001137
        },
        {
          "name": "A4",
          "midi": 69,
          "time": 229.50791015624955,
          "velocity": 0.5511811023622047,
          "duration": 0.29853515625001137
        },
        {
          "name": "E4",
          "midi": 64,
          "time": 229.80673828124955,
          "velocity": 0.4409448818897638,
          "duration": 0.29619140624998863
        },
        {
          "name": "C5",
          "midi": 72,
          "time": 229.80673828124955,
          "velocity": 0.5511811023622047,
          "duration": 0.29619140624998863
        },
        {
          "name": "F4",
          "midi": 65,
          "time": 230.10322265624953,
          "velocity": 0.4409448818897638,
          "duration": 0.2964843750000057
        },
        {
          "name": "D5",
          "midi": 74,
          "time": 230.10322265624953,
          "velocity": 0.5511811023622047,
          "duration": 0.2964843750000057
        },
        {
          "name": "G#4",
          "midi": 68,
          "time": 231.00673828124954,
          "velocity": 0.4409448818897638,
          "duration": 0.29619140624998863
        },
        {
          "name": "D#5",
          "midi": 75,
          "time": 231.00673828124954,
          "velocity": 0.5511811023622047,
          "duration": 0.29619140624998863
        },
        {
          "name": "F4",
          "midi": 65,
          "time": 231.90791015624953,
          "velocity": 0.4409448818897638,
          "duration": 0.29853515625001137
        },
        {
          "name": "D5",
          "midi": 74,
          "time": 231.90791015624953,
          "velocity": 0.5511811023622047,
          "duration": 0.29853515625001137
        },
        {
          "name": "E4",
          "midi": 64,
          "time": 232.79999999999953,
          "velocity": 0.48031496062992124,
          "duration": 0.3076171875
        },
        {
          "name": "C5",
          "midi": 72,
          "time": 232.79999999999953,
          "velocity": 0.5905511811023622,
          "duration": 0.3076171875
        },
        {
          "name": "G#4",
          "midi": 68,
          "time": 235.19999999999953,
          "velocity": 0.48031496062992124,
          "duration": 0.3076171875
        },
        {
          "name": "C5",
          "midi": 72,
          "time": 235.19999999999953,
          "velocity": 0.5590551181102362,
          "duration": 0.3076171875
        },
        {
          "name": "G#4",
          "midi": 68,
          "time": 235.50791015624952,
          "velocity": 0.4409448818897638,
          "duration": 0.29853515625001137
        },
        {
          "name": "C5",
          "midi": 72,
          "time": 235.50791015624952,
          "velocity": 0.5196850393700787,
          "duration": 0.29853515625001137
        },
        {
          "name": "G#4",
          "midi": 68,
          "time": 236.10322265624953,
          "velocity": 0.4409448818897638,
          "duration": 0.2964843750000057
        },
        {
          "name": "C5",
          "midi": 72,
          "time": 236.10322265624953,
          "velocity": 0.5196850393700787,
          "duration": 0.2964843750000057
        },
        {
          "name": "G#4",
          "midi": 68,
          "time": 236.70791015624954,
          "velocity": 0.4409448818897638,
          "duration": 0.29853515625001137
        },
        {
          "name": "C5",
          "midi": 72,
          "time": 236.70791015624954,
          "velocity": 0.5511811023622047,
          "duration": 0.29853515625001137
        },
        {
          "name": "A#4",
          "midi": 70,
          "time": 237.00673828124954,
          "velocity": 0.4409448818897638,
          "duration": 0.29619140624998863
        },
        {
          "name": "D5",
          "midi": 74,
          "time": 237.00673828124954,
          "velocity": 0.5511811023622047,
          "duration": 0.29619140624998863
        },
        {
          "name": "G4",
          "midi": 67,
          "time": 237.59999999999954,
          "velocity": 0.48031496062992124,
          "duration": 0.3076171875
        },
        {
          "name": "E5",
          "midi": 76,
          "time": 237.59999999999954,
          "velocity": 0.5905511811023622,
          "duration": 0.3076171875
        },
        {
          "name": "E4",
          "midi": 64,
          "time": 237.90791015624953,
          "velocity": 0.4409448818897638,
          "duration": 0.29853515625001137
        },
        {
          "name": "C5",
          "midi": 72,
          "time": 237.90791015624953,
          "velocity": 0.5511811023622047,
          "duration": 0.29853515625001137
        },
        {
          "name": "E4",
          "midi": 64,
          "time": 238.50322265624953,
          "velocity": 0.4409448818897638,
          "duration": 0.2964843750000057
        },
        {
          "name": "A4",
          "midi": 69,
          "time": 238.50322265624953,
          "velocity": 0.5511811023622047,
          "duration": 0.2964843750000057
        },
        {
          "name": "C4",
          "midi": 60,
          "time": 238.79999999999953,
          "velocity": 0.48031496062992124,
          "duration": 0.3076171875
        },
        {
          "name": "G4",
          "midi": 67,
          "time": 238.79999999999953,
          "velocity": 0.5905511811023622,
          "duration": 0.3076171875
        },
        {
          "name": "G#4",
          "midi": 68,
          "time": 239.99999999999952,
          "velocity": 0.48031496062992124,
          "duration": 0.3076171875
        },
        {
          "name": "C5",
          "midi": 72,
          "time": 239.99999999999952,
          "velocity": 0.5905511811023622,
          "duration": 0.3076171875
        },
        {
          "name": "G#4",
          "midi": 68,
          "time": 240.3079101562495,
          "velocity": 0.4409448818897638,
          "duration": 0.29853515625001137
        },
        {
          "name": "C5",
          "midi": 72,
          "time": 240.3079101562495,
          "velocity": 0.5196850393700787,
          "duration": 0.29853515625001137
        },
        {
          "name": "G#4",
          "midi": 68,
          "time": 240.9032226562495,
          "velocity": 0.4409448818897638,
          "duration": 0.2964843750000057
        },
        {
          "name": "C5",
          "midi": 72,
          "time": 240.9032226562495,
          "velocity": 0.5196850393700787,
          "duration": 0.2964843750000057
        },
        {
          "name": "G#4",
          "midi": 68,
          "time": 241.50791015624952,
          "velocity": 0.4409448818897638,
          "duration": 0.29853515625001137
        },
        {
          "name": "C5",
          "midi": 72,
          "time": 241.50791015624952,
          "velocity": 0.5511811023622047,
          "duration": 0.29853515625001137
        },
        {
          "name": "A#4",
          "midi": 70,
          "time": 241.80673828124952,
          "velocity": 0.4409448818897638,
          "duration": 0.29619140624998863
        },
        {
          "name": "D5",
          "midi": 74,
          "time": 241.80673828124952,
          "velocity": 0.5511811023622047,
          "duration": 0.29619140624998863
        },
        {
          "name": "G4",
          "midi": 67,
          "time": 242.1032226562495,
          "velocity": 0.4409448818897638,
          "duration": 0.2964843750000057
        },
        {
          "name": "E5",
          "midi": 76,
          "time": 242.1032226562495,
          "velocity": 0.5511811023622047,
          "duration": 0.2964843750000057
        },
        {
          "name": "G#4",
          "midi": 68,
          "time": 244.7999999999995,
          "velocity": 0.48031496062992124,
          "duration": 0.3076171875
        },
        {
          "name": "C5",
          "midi": 72,
          "time": 244.7999999999995,
          "velocity": 0.5590551181102362,
          "duration": 0.3076171875
        },
        {
          "name": "G#4",
          "midi": 68,
          "time": 245.1079101562495,
          "velocity": 0.4409448818897638,
          "duration": 0.29853515625001137
        },
        {
          "name": "C5",
          "midi": 72,
          "time": 245.1079101562495,
          "velocity": 0.5196850393700787,
          "duration": 0.29853515625001137
        },
        {
          "name": "G#4",
          "midi": 68,
          "time": 245.7032226562495,
          "velocity": 0.4409448818897638,
          "duration": 0.2964843750000057
        },
        {
          "name": "C5",
          "midi": 72,
          "time": 245.7032226562495,
          "velocity": 0.5196850393700787,
          "duration": 0.2964843750000057
        },
        {
          "name": "G#4",
          "midi": 68,
          "time": 246.3079101562495,
          "velocity": 0.4409448818897638,
          "duration": 0.29853515625001137
        },
        {
          "name": "C5",
          "midi": 72,
          "time": 246.3079101562495,
          "velocity": 0.5511811023622047,
          "duration": 0.29853515625001137
        },
        {
          "name": "A#4",
          "midi": 70,
          "time": 246.6067382812495,
          "velocity": 0.4409448818897638,
          "duration": 0.29619140624998863
        },
        {
          "name": "D5",
          "midi": 74,
          "time": 246.6067382812495,
          "velocity": 0.5511811023622047,
          "duration": 0.29619140624998863
        },
        {
          "name": "G4",
          "midi": 67,
          "time": 247.1999999999995,
          "velocity": 0.48031496062992124,
          "duration": 0.3076171875
        },
        {
          "name": "E5",
          "midi": 76,
          "time": 247.1999999999995,
          "velocity": 0.5905511811023622,
          "duration": 0.3076171875
        },
        {
          "name": "E4",
          "midi": 64,
          "time": 247.5079101562495,
          "velocity": 0.4409448818897638,
          "duration": 0.29853515625001137
        },
        {
          "name": "C5",
          "midi": 72,
          "time": 247.5079101562495,
          "velocity": 0.5511811023622047,
          "duration": 0.29853515625001137
        },
        {
          "name": "E4",
          "midi": 64,
          "time": 248.1032226562495,
          "velocity": 0.4409448818897638,
          "duration": 0.2964843750000057
        },
        {
          "name": "A4",
          "midi": 69,
          "time": 248.1032226562495,
          "velocity": 0.5511811023622047,
          "duration": 0.2964843750000057
        },
        {
          "name": "C4",
          "midi": 60,
          "time": 248.3999999999995,
          "velocity": 0.48031496062992124,
          "duration": 0.3076171875
        },
        {
          "name": "G4",
          "midi": 67,
          "time": 248.3999999999995,
          "velocity": 0.5905511811023622,
          "duration": 0.3076171875
        },
        {
          "name": "F#4",
          "midi": 66,
          "time": 249.59999999999948,
          "velocity": 0.48031496062992124,
          "duration": 0.3076171875
        },
        {
          "name": "E5",
          "midi": 76,
          "time": 249.59999999999948,
          "velocity": 0.5905511811023622,
          "duration": 0.3076171875
        },
        {
          "name": "F#4",
          "midi": 66,
          "time": 249.90791015624947,
          "velocity": 0.4409448818897638,
          "duration": 0.29853515625001137
        },
        {
          "name": "E5",
          "midi": 76,
          "time": 249.90791015624947,
          "velocity": 0.5196850393700787,
          "duration": 0.29853515625001137
        },
        {
          "name": "F#4",
          "midi": 66,
          "time": 250.50322265624948,
          "velocity": 0.4409448818897638,
          "duration": 0.2964843750000057
        },
        {
          "name": "E5",
          "midi": 76,
          "time": 250.50322265624948,
          "velocity": 0.5511811023622047,
          "duration": 0.2964843750000057
        },
        {
          "name": "F#4",
          "midi": 66,
          "time": 251.1079101562495,
          "velocity": 0.4409448818897638,
          "duration": 0.29853515625001137
        },
        {
          "name": "C5",
          "midi": 72,
          "time": 251.1079101562495,
          "velocity": 0.5511811023622047,
          "duration": 0.29853515625001137
        },
        {
          "name": "F#4",
          "midi": 66,
          "time": 251.4067382812495,
          "velocity": 0.4409448818897638,
          "duration": 0.29619140624998863
        },
        {
          "name": "E5",
          "midi": 76,
          "time": 251.4067382812495,
          "velocity": 0.5511811023622047,
          "duration": 0.29619140624998863
        },
        {
          "name": "G4",
          "midi": 67,
          "time": 251.9999999999995,
          "velocity": 0.48031496062992124,
          "duration": 0.3076171875
        },
        {
          "name": "B4",
          "midi": 71,
          "time": 251.9999999999995,
          "velocity": 0.48031496062992124,
          "duration": 0.3076171875
        },
        {
          "name": "G5",
          "midi": 79,
          "time": 251.9999999999995,
          "velocity": 0.5905511811023622,
          "duration": 0.3076171875
        },
        {
          "name": "G4",
          "midi": 67,
          "time": 253.19999999999948,
          "velocity": 0.5433070866141733,
          "duration": 0.3076171875
        },
        {
          "name": "E4",
          "midi": 64,
          "time": 254.39999999999947,
          "velocity": 0.48031496062992124,
          "duration": 0.3076171875
        },
        {
          "name": "C5",
          "midi": 72,
          "time": 254.39999999999947,
          "velocity": 0.5905511811023622,
          "duration": 0.3076171875
        },
        {
          "name": "C4",
          "midi": 60,
          "time": 255.30322265624946,
          "velocity": 0.4409448818897638,
          "duration": 0.2964843750000057
        },
        {
          "name": "G4",
          "midi": 67,
          "time": 255.30322265624946,
          "velocity": 0.5511811023622047,
          "duration": 0.2964843750000057
        },
        {
          "name": "G3",
          "midi": 55,
          "time": 256.20673828124944,
          "velocity": 0.4409448818897638,
          "duration": 0.29619140624998863
        },
        {
          "name": "E4",
          "midi": 64,
          "time": 256.20673828124944,
          "velocity": 0.5511811023622047,
          "duration": 0.29619140624998863
        },
        {
          "name": "C4",
          "midi": 60,
          "time": 257.10791015624943,
          "velocity": 0.4409448818897638,
          "duration": 0.29853515625001137
        },
        {
          "name": "A4",
          "midi": 69,
          "time": 257.10791015624943,
          "velocity": 0.5511811023622047,
          "duration": 0.29853515625001137
        },
        {
          "name": "D4",
          "midi": 62,
          "time": 257.70322265624947,
          "velocity": 0.4409448818897638,
          "duration": 0.29648437499997726
        },
        {
          "name": "B4",
          "midi": 71,
          "time": 257.70322265624947,
          "velocity": 0.5511811023622047,
          "duration": 0.29648437499997726
        },
        {
          "name": "C#4",
          "midi": 61,
          "time": 258.3079101562494,
          "velocity": 0.4409448818897638,
          "duration": 0.29853515625001137
        },
        {
          "name": "A#4",
          "midi": 70,
          "time": 258.3079101562494,
          "velocity": 0.5511811023622047,
          "duration": 0.29853515625001137
        },
        {
          "name": "C4",
          "midi": 60,
          "time": 258.6067382812494,
          "velocity": 0.4409448818897638,
          "duration": 0.29619140624998863
        },
        {
          "name": "A4",
          "midi": 69,
          "time": 258.6067382812494,
          "velocity": 0.5511811023622047,
          "duration": 0.29619140624998863
        },
        {
          "name": "C4",
          "midi": 60,
          "time": 259.1999999999994,
          "velocity": 0.48031496062992124,
          "duration": 0.20625000000001137
        },
        {
          "name": "G4",
          "midi": 67,
          "time": 259.1999999999994,
          "velocity": 0.5905511811023622,
          "duration": 0.20625000000001137
        },
        {
          "name": "G4",
          "midi": 67,
          "time": 259.60634765624945,
          "velocity": 0.4409448818897638,
          "duration": 0.19951171874998863
        },
        {
          "name": "E5",
          "midi": 76,
          "time": 259.60634765624945,
          "velocity": 0.5511811023622047,
          "duration": 0.19951171874998863
        },
        {
          "name": "B4",
          "midi": 71,
          "time": 260.00624999999945,
          "velocity": 0.4409448818897638,
          "duration": 0.19365234374998863
        },
        {
          "name": "G5",
          "midi": 79,
          "time": 260.00624999999945,
          "velocity": 0.5511811023622047,
          "duration": 0.19365234374998863
        },
        {
          "name": "C5",
          "midi": 72,
          "time": 260.39999999999947,
          "velocity": 0.48031496062992124,
          "duration": 0.3076171875
        },
        {
          "name": "A5",
          "midi": 81,
          "time": 260.39999999999947,
          "velocity": 0.5905511811023622,
          "duration": 0.3076171875
        },
        {
          "name": "A4",
          "midi": 69,
          "time": 261.00673828124945,
          "velocity": 0.4409448818897638,
          "duration": 0.29619140624998863
        },
        {
          "name": "F5",
          "midi": 77,
          "time": 261.00673828124945,
          "velocity": 0.5511811023622047,
          "duration": 0.29619140624998863
        },
        {
          "name": "B4",
          "midi": 71,
          "time": 261.30322265624943,
          "velocity": 0.4409448818897638,
          "duration": 0.29648437499997726
        },
        {
          "name": "G5",
          "midi": 79,
          "time": 261.30322265624943,
          "velocity": 0.5511811023622047,
          "duration": 0.29648437499997726
        },
        {
          "name": "A4",
          "midi": 69,
          "time": 261.9079101562494,
          "velocity": 0.4409448818897638,
          "duration": 0.29853515625001137
        },
        {
          "name": "E5",
          "midi": 76,
          "time": 261.9079101562494,
          "velocity": 0.5511811023622047,
          "duration": 0.29853515625001137
        },
        {
          "name": "E4",
          "midi": 64,
          "time": 262.5032226562494,
          "velocity": 0.4409448818897638,
          "duration": 0.29648437499997726
        },
        {
          "name": "C5",
          "midi": 72,
          "time": 262.5032226562494,
          "velocity": 0.5511811023622047,
          "duration": 0.29648437499997726
        },
        {
          "name": "F4",
          "midi": 65,
          "time": 262.7999999999994,
          "velocity": 0.48031496062992124,
          "duration": 0.3076171875
        },
        {
          "name": "D5",
          "midi": 74,
          "time": 262.7999999999994,
          "velocity": 0.5905511811023622,
          "duration": 0.3076171875
        },
        {
          "name": "D4",
          "midi": 62,
          "time": 263.1079101562494,
          "velocity": 0.4409448818897638,
          "duration": 0.29853515625001137
        },
        {
          "name": "B4",
          "midi": 71,
          "time": 263.1079101562494,
          "velocity": 0.5511811023622047,
          "duration": 0.29853515625001137
        },
        {
          "name": "E4",
          "midi": 64,
          "time": 263.9999999999994,
          "velocity": 0.48031496062992124,
          "duration": 0.3076171875
        },
        {
          "name": "C5",
          "midi": 72,
          "time": 263.9999999999994,
          "velocity": 0.5905511811023622,
          "duration": 0.3076171875
        },
        {
          "name": "C4",
          "midi": 60,
          "time": 264.9032226562494,
          "velocity": 0.4409448818897638,
          "duration": 0.29648437499997726
        },
        {
          "name": "G4",
          "midi": 67,
          "time": 264.9032226562494,
          "velocity": 0.5511811023622047,
          "duration": 0.29648437499997726
        },
        {
          "name": "G3",
          "midi": 55,
          "time": 265.80673828124935,
          "velocity": 0.4409448818897638,
          "duration": 0.29619140624998863
        },
        {
          "name": "E4",
          "midi": 64,
          "time": 265.80673828124935,
          "velocity": 0.5511811023622047,
          "duration": 0.29619140624998863
        },
        {
          "name": "C4",
          "midi": 60,
          "time": 266.70791015624934,
          "velocity": 0.4409448818897638,
          "duration": 0.29853515625001137
        },
        {
          "name": "A4",
          "midi": 69,
          "time": 266.70791015624934,
          "velocity": 0.5511811023622047,
          "duration": 0.29853515625001137
        },
        {
          "name": "D4",
          "midi": 62,
          "time": 267.3032226562494,
          "velocity": 0.4409448818897638,
          "duration": 0.29648437499997726
        },
        {
          "name": "B4",
          "midi": 71,
          "time": 267.3032226562494,
          "velocity": 0.5511811023622047,
          "duration": 0.29648437499997726
        },
        {
          "name": "C#4",
          "midi": 61,
          "time": 267.90791015624933,
          "velocity": 0.4409448818897638,
          "duration": 0.29853515625001137
        },
        {
          "name": "A#4",
          "midi": 70,
          "time": 267.90791015624933,
          "velocity": 0.5511811023622047,
          "duration": 0.29853515625001137
        },
        {
          "name": "C4",
          "midi": 60,
          "time": 268.20673828124933,
          "velocity": 0.4409448818897638,
          "duration": 0.29619140624998863
        },
        {
          "name": "A4",
          "midi": 69,
          "time": 268.20673828124933,
          "velocity": 0.5511811023622047,
          "duration": 0.29619140624998863
        },
        {
          "name": "C4",
          "midi": 60,
          "time": 268.79999999999933,
          "velocity": 0.48031496062992124,
          "duration": 0.20625000000001137
        },
        {
          "name": "G4",
          "midi": 67,
          "time": 268.79999999999933,
          "velocity": 0.5905511811023622,
          "duration": 0.20625000000001137
        },
        {
          "name": "G4",
          "midi": 67,
          "time": 269.20634765624936,
          "velocity": 0.4409448818897638,
          "duration": 0.19951171874998863
        },
        {
          "name": "E5",
          "midi": 76,
          "time": 269.20634765624936,
          "velocity": 0.5511811023622047,
          "duration": 0.19951171874998863
        },
        {
          "name": "B4",
          "midi": 71,
          "time": 269.60624999999936,
          "velocity": 0.4409448818897638,
          "duration": 0.19365234374998863
        },
        {
          "name": "G5",
          "midi": 79,
          "time": 269.60624999999936,
          "velocity": 0.5511811023622047,
          "duration": 0.19365234374998863
        },
        {
          "name": "C5",
          "midi": 72,
          "time": 269.9999999999994,
          "velocity": 0.48031496062992124,
          "duration": 0.3076171875
        },
        {
          "name": "A5",
          "midi": 81,
          "time": 269.9999999999994,
          "velocity": 0.5905511811023622,
          "duration": 0.3076171875
        },
        {
          "name": "A4",
          "midi": 69,
          "time": 270.60673828124936,
          "velocity": 0.4409448818897638,
          "duration": 0.29619140624998863
        },
        {
          "name": "F5",
          "midi": 77,
          "time": 270.60673828124936,
          "velocity": 0.5511811023622047,
          "duration": 0.29619140624998863
        },
        {
          "name": "B4",
          "midi": 71,
          "time": 270.90322265624934,
          "velocity": 0.4409448818897638,
          "duration": 0.29648437499997726
        },
        {
          "name": "G5",
          "midi": 79,
          "time": 270.90322265624934,
          "velocity": 0.5511811023622047,
          "duration": 0.29648437499997726
        },
        {
          "name": "A4",
          "midi": 69,
          "time": 271.5079101562493,
          "velocity": 0.4409448818897638,
          "duration": 0.29853515625001137
        },
        {
          "name": "E5",
          "midi": 76,
          "time": 271.5079101562493,
          "velocity": 0.5511811023622047,
          "duration": 0.29853515625001137
        },
        {
          "name": "E4",
          "midi": 64,
          "time": 272.10322265624933,
          "velocity": 0.4409448818897638,
          "duration": 0.29648437499997726
        },
        {
          "name": "C5",
          "midi": 72,
          "time": 272.10322265624933,
          "velocity": 0.5511811023622047,
          "duration": 0.29648437499997726
        },
        {
          "name": "F4",
          "midi": 65,
          "time": 272.3999999999993,
          "velocity": 0.48031496062992124,
          "duration": 0.3076171875
        },
        {
          "name": "D5",
          "midi": 74,
          "time": 272.3999999999993,
          "velocity": 0.5905511811023622,
          "duration": 0.3076171875
        },
        {
          "name": "D4",
          "midi": 62,
          "time": 272.7079101562493,
          "velocity": 0.4409448818897638,
          "duration": 0.29853515625001137
        },
        {
          "name": "B4",
          "midi": 71,
          "time": 272.7079101562493,
          "velocity": 0.5511811023622047,
          "duration": 0.29853515625001137
        },
        {
          "name": "C5",
          "midi": 72,
          "time": 273.5999999999993,
          "velocity": 0.48031496062992124,
          "duration": 0.3076171875
        },
        {
          "name": "E5",
          "midi": 76,
          "time": 273.5999999999993,
          "velocity": 0.5905511811023622,
          "duration": 0.3076171875
        },
        {
          "name": "A4",
          "midi": 69,
          "time": 273.9079101562493,
          "velocity": 0.4409448818897638,
          "duration": 0.29853515625001137
        },
        {
          "name": "C5",
          "midi": 72,
          "time": 273.9079101562493,
          "velocity": 0.5511811023622047,
          "duration": 0.29853515625001137
        },
        {
          "name": "E4",
          "midi": 64,
          "time": 274.5032226562493,
          "velocity": 0.4409448818897638,
          "duration": 0.29648437499997726
        },
        {
          "name": "G4",
          "midi": 67,
          "time": 274.5032226562493,
          "velocity": 0.5511811023622047,
          "duration": 0.29648437499997726
        },
        {
          "name": "E4",
          "midi": 64,
          "time": 275.40673828124926,
          "velocity": 0.4409448818897638,
          "duration": 0.29619140624998863
        },
        {
          "name": "G#4",
          "midi": 68,
          "time": 275.40673828124926,
          "velocity": 0.5511811023622047,
          "duration": 0.29619140624998863
        },
        {
          "name": "F4",
          "midi": 65,
          "time": 275.99999999999926,
          "velocity": 0.48031496062992124,
          "duration": 0.3076171875
        },
        {
          "name": "A4",
          "midi": 69,
          "time": 275.99999999999926,
          "velocity": 0.5905511811023622,
          "duration": 0.3076171875
        },
        {
          "name": "C5",
          "midi": 72,
          "time": 276.30791015624925,
          "velocity": 0.4409448818897638,
          "duration": 0.29853515625001137
        },
        {
          "name": "F5",
          "midi": 77,
          "time": 276.30791015624925,
          "velocity": 0.5511811023622047,
          "duration": 0.29853515625001137
        },
        {
          "name": "C5",
          "midi": 72,
          "time": 276.9032226562493,
          "velocity": 0.4409448818897638,
          "duration": 0.29648437499997726
        },
        {
          "name": "F5",
          "midi": 77,
          "time": 276.9032226562493,
          "velocity": 0.5511811023622047,
          "duration": 0.29648437499997726
        },
        {
          "name": "F4",
          "midi": 65,
          "time": 277.19999999999925,
          "velocity": 0.48031496062992124,
          "duration": 0.3076171875
        },
        {
          "name": "A4",
          "midi": 69,
          "time": 277.19999999999925,
          "velocity": 0.5905511811023622,
          "duration": 0.3076171875
        },
        {
          "name": "G4",
          "midi": 67,
          "time": 278.39999999999924,
          "velocity": 0.48031496062992124,
          "duration": 0.20625000000001137
        },
        {
          "name": "B4",
          "midi": 71,
          "time": 278.39999999999924,
          "velocity": 0.5905511811023622,
          "duration": 0.20625000000001137
        },
        {
          "name": "F5",
          "midi": 77,
          "time": 278.8063476562493,
          "velocity": 0.4409448818897638,
          "duration": 0.19951171874998863
        },
        {
          "name": "A5",
          "midi": 81,
          "time": 278.8063476562493,
          "velocity": 0.5511811023622047,
          "duration": 0.19951171874998863
        },
        {
          "name": "F5",
          "midi": 77,
          "time": 279.2062499999993,
          "velocity": 0.4409448818897638,
          "duration": 0.19365234374998863
        },
        {
          "name": "A5",
          "midi": 81,
          "time": 279.2062499999993,
          "velocity": 0.5196850393700787,
          "duration": 0.19365234374998863
        },
        {
          "name": "F5",
          "midi": 77,
          "time": 279.5999999999993,
          "velocity": 0.48031496062992124,
          "duration": 0.20625000000001137
        },
        {
          "name": "A5",
          "midi": 81,
          "time": 279.5999999999993,
          "velocity": 0.5905511811023622,
          "duration": 0.20625000000001137
        },
        {
          "name": "E5",
          "midi": 76,
          "time": 280.0063476562493,
          "velocity": 0.4409448818897638,
          "duration": 0.19951171874998863
        },
        {
          "name": "G5",
          "midi": 79,
          "time": 280.0063476562493,
          "velocity": 0.5511811023622047,
          "duration": 0.19951171874998863
        },
        {
          "name": "D5",
          "midi": 74,
          "time": 280.4062499999993,
          "velocity": 0.4409448818897638,
          "duration": 0.19365234374998863
        },
        {
          "name": "F5",
          "midi": 77,
          "time": 280.4062499999993,
          "velocity": 0.5511811023622047,
          "duration": 0.19365234374998863
        },
        {
          "name": "C5",
          "midi": 72,
          "time": 280.79999999999933,
          "velocity": 0.48031496062992124,
          "duration": 0.3076171875
        },
        {
          "name": "E5",
          "midi": 76,
          "time": 280.79999999999933,
          "velocity": 0.5905511811023622,
          "duration": 0.3076171875
        },
        {
          "name": "A4",
          "midi": 69,
          "time": 281.1079101562493,
          "velocity": 0.4409448818897638,
          "duration": 0.29853515625001137
        },
        {
          "name": "C5",
          "midi": 72,
          "time": 281.1079101562493,
          "velocity": 0.5511811023622047,
          "duration": 0.29853515625001137
        },
        {
          "name": "F4",
          "midi": 65,
          "time": 281.70322265624935,
          "velocity": 0.4409448818897638,
          "duration": 0.29648437499997726
        },
        {
          "name": "A4",
          "midi": 69,
          "time": 281.70322265624935,
          "velocity": 0.5511811023622047,
          "duration": 0.29648437499997726
        },
        {
          "name": "E4",
          "midi": 64,
          "time": 281.9999999999993,
          "velocity": 0.48031496062992124,
          "duration": 0.3076171875
        },
        {
          "name": "G4",
          "midi": 67,
          "time": 281.9999999999993,
          "velocity": 0.5905511811023622,
          "duration": 0.3076171875
        },
        {
          "name": "C5",
          "midi": 72,
          "time": 283.1999999999993,
          "velocity": 0.48031496062992124,
          "duration": 0.3076171875
        },
        {
          "name": "E5",
          "midi": 76,
          "time": 283.1999999999993,
          "velocity": 0.5905511811023622,
          "duration": 0.3076171875
        },
        {
          "name": "A4",
          "midi": 69,
          "time": 283.5079101562493,
          "velocity": 0.4409448818897638,
          "duration": 0.29853515625001137
        },
        {
          "name": "C5",
          "midi": 72,
          "time": 283.5079101562493,
          "velocity": 0.5511811023622047,
          "duration": 0.29853515625001137
        },
        {
          "name": "E4",
          "midi": 64,
          "time": 284.10322265624933,
          "velocity": 0.4409448818897638,
          "duration": 0.29648437499997726
        },
        {
          "name": "G4",
          "midi": 67,
          "time": 284.10322265624933,
          "velocity": 0.5511811023622047,
          "duration": 0.29648437499997726
        },
        {
          "name": "E4",
          "midi": 64,
          "time": 285.0067382812493,
          "velocity": 0.4409448818897638,
          "duration": 0.29619140624998863
        },
        {
          "name": "G#4",
          "midi": 68,
          "time": 285.0067382812493,
          "velocity": 0.5511811023622047,
          "duration": 0.29619140624998863
        },
        {
          "name": "F4",
          "midi": 65,
          "time": 285.5999999999993,
          "velocity": 0.48031496062992124,
          "duration": 0.3076171875
        },
        {
          "name": "A4",
          "midi": 69,
          "time": 285.5999999999993,
          "velocity": 0.5905511811023622,
          "duration": 0.3076171875
        },
        {
          "name": "C5",
          "midi": 72,
          "time": 285.9079101562493,
          "velocity": 0.4409448818897638,
          "duration": 0.29853515625001137
        },
        {
          "name": "F5",
          "midi": 77,
          "time": 285.9079101562493,
          "velocity": 0.5511811023622047,
          "duration": 0.29853515625001137
        },
        {
          "name": "C5",
          "midi": 72,
          "time": 286.5032226562493,
          "velocity": 0.4409448818897638,
          "duration": 0.29648437499997726
        },
        {
          "name": "F5",
          "midi": 77,
          "time": 286.5032226562493,
          "velocity": 0.5511811023622047,
          "duration": 0.29648437499997726
        },
        {
          "name": "F4",
          "midi": 65,
          "time": 286.7999999999993,
          "velocity": 0.48031496062992124,
          "duration": 0.3076171875
        },
        {
          "name": "A4",
          "midi": 69,
          "time": 286.7999999999993,
          "velocity": 0.5905511811023622,
          "duration": 0.3076171875
        },
        {
          "name": "G4",
          "midi": 67,
          "time": 287.99999999999926,
          "velocity": 0.48031496062992124,
          "duration": 0.3076171875
        },
        {
          "name": "B4",
          "midi": 71,
          "time": 287.99999999999926,
          "velocity": 0.5905511811023622,
          "duration": 0.3076171875
        },
        {
          "name": "D5",
          "midi": 74,
          "time": 288.30791015624925,
          "velocity": 0.4409448818897638,
          "duration": 0.29853515625001137
        },
        {
          "name": "F5",
          "midi": 77,
          "time": 288.30791015624925,
          "velocity": 0.5511811023622047,
          "duration": 0.29853515625001137
        },
        {
          "name": "D5",
          "midi": 74,
          "time": 288.9032226562493,
          "velocity": 0.4409448818897638,
          "duration": 0.29648437499997726
        },
        {
          "name": "F5",
          "midi": 77,
          "time": 288.9032226562493,
          "velocity": 0.5196850393700787,
          "duration": 0.29648437499997726
        },
        {
          "name": "D5",
          "midi": 74,
          "time": 289.19999999999925,
          "velocity": 0.48031496062992124,
          "duration": 0.20625000000001137
        },
        {
          "name": "F5",
          "midi": 77,
          "time": 289.19999999999925,
          "velocity": 0.5905511811023622,
          "duration": 0.20625000000001137
        },
        {
          "name": "C5",
          "midi": 72,
          "time": 289.6063476562493,
          "velocity": 0.4409448818897638,
          "duration": 0.19951171874998863
        },
        {
          "name": "E5",
          "midi": 76,
          "time": 289.6063476562493,
          "velocity": 0.5511811023622047,
          "duration": 0.19951171874998863
        },
        {
          "name": "B4",
          "midi": 71,
          "time": 290.0062499999993,
          "velocity": 0.4409448818897638,
          "duration": 0.19365234374998863
        },
        {
          "name": "D5",
          "midi": 74,
          "time": 290.0062499999993,
          "velocity": 0.5511811023622047,
          "duration": 0.19365234374998863
        },
        {
          "name": "G4",
          "midi": 67,
          "time": 290.3999999999993,
          "velocity": 0.48031496062992124,
          "duration": 0.3076171875
        },
        {
          "name": "C5",
          "midi": 72,
          "time": 290.3999999999993,
          "velocity": 0.5905511811023622,
          "duration": 0.3076171875
        },
        {
          "name": "E4",
          "midi": 64,
          "time": 290.7079101562493,
          "velocity": 0.5039370078740157,
          "duration": 0.29853515625001137
        },
        {
          "name": "E4",
          "midi": 64,
          "time": 291.3032226562493,
          "velocity": 0.5039370078740157,
          "duration": 0.29648437499997726
        },
        {
          "name": "C4",
          "midi": 60,
          "time": 291.5999999999993,
          "velocity": 0.5433070866141733,
          "duration": 0.3076171875
        },
        {
          "name": "C5",
          "midi": 72,
          "time": 292.7999999999993,
          "velocity": 0.48031496062992124,
          "duration": 0.3076171875
        },
        {
          "name": "E5",
          "midi": 76,
          "time": 292.7999999999993,
          "velocity": 0.5905511811023622,
          "duration": 0.3076171875
        },
        {
          "name": "A4",
          "midi": 69,
          "time": 293.10791015624926,
          "velocity": 0.4409448818897638,
          "duration": 0.29853515625001137
        },
        {
          "name": "C5",
          "midi": 72,
          "time": 293.10791015624926,
          "velocity": 0.5511811023622047,
          "duration": 0.29853515625001137
        },
        {
          "name": "E4",
          "midi": 64,
          "time": 293.7032226562493,
          "velocity": 0.4409448818897638,
          "duration": 0.29648437499997726
        },
        {
          "name": "G4",
          "midi": 67,
          "time": 293.7032226562493,
          "velocity": 0.5511811023622047,
          "duration": 0.29648437499997726
        },
        {
          "name": "E4",
          "midi": 64,
          "time": 294.60673828124925,
          "velocity": 0.4409448818897638,
          "duration": 0.29619140624998863
        },
        {
          "name": "G#4",
          "midi": 68,
          "time": 294.60673828124925,
          "velocity": 0.5511811023622047,
          "duration": 0.29619140624998863
        },
        {
          "name": "F4",
          "midi": 65,
          "time": 295.19999999999925,
          "velocity": 0.48031496062992124,
          "duration": 0.3076171875
        },
        {
          "name": "A4",
          "midi": 69,
          "time": 295.19999999999925,
          "velocity": 0.5905511811023622,
          "duration": 0.3076171875
        },
        {
          "name": "C5",
          "midi": 72,
          "time": 295.50791015624924,
          "velocity": 0.4409448818897638,
          "duration": 0.29853515625001137
        },
        {
          "name": "F5",
          "midi": 77,
          "time": 295.50791015624924,
          "velocity": 0.5511811023622047,
          "duration": 0.29853515625001137
        },
        {
          "name": "C5",
          "midi": 72,
          "time": 296.1032226562493,
          "velocity": 0.4409448818897638,
          "duration": 0.29648437499997726
        },
        {
          "name": "F5",
          "midi": 77,
          "time": 296.1032226562493,
          "velocity": 0.5511811023622047,
          "duration": 0.29648437499997726
        },
        {
          "name": "F4",
          "midi": 65,
          "time": 296.39999999999924,
          "velocity": 0.48031496062992124,
          "duration": 0.3076171875
        },
        {
          "name": "A4",
          "midi": 69,
          "time": 296.39999999999924,
          "velocity": 0.5905511811023622,
          "duration": 0.3076171875
        },
        {
          "name": "G4",
          "midi": 67,
          "time": 297.5999999999992,
          "velocity": 0.48031496062992124,
          "duration": 0.20625000000001137
        },
        {
          "name": "B4",
          "midi": 71,
          "time": 297.5999999999992,
          "velocity": 0.5905511811023622,
          "duration": 0.20625000000001137
        },
        {
          "name": "F5",
          "midi": 77,
          "time": 298.00634765624926,
          "velocity": 0.4409448818897638,
          "duration": 0.19951171874998863
        },
        {
          "name": "A5",
          "midi": 81,
          "time": 298.00634765624926,
          "velocity": 0.5511811023622047,
          "duration": 0.19951171874998863
        },
        {
          "name": "F5",
          "midi": 77,
          "time": 298.40624999999926,
          "velocity": 0.4409448818897638,
          "duration": 0.19365234374998863
        },
        {
          "name": "A5",
          "midi": 81,
          "time": 298.40624999999926,
          "velocity": 0.5196850393700787,
          "duration": 0.19365234374998863
        },
        {
          "name": "F5",
          "midi": 77,
          "time": 298.7999999999993,
          "velocity": 0.48031496062992124,
          "duration": 0.20625000000001137
        },
        {
          "name": "A5",
          "midi": 81,
          "time": 298.7999999999993,
          "velocity": 0.5905511811023622,
          "duration": 0.20625000000001137
        },
        {
          "name": "E5",
          "midi": 76,
          "time": 299.2063476562493,
          "velocity": 0.4409448818897638,
          "duration": 0.19951171874998863
        },
        {
          "name": "G5",
          "midi": 79,
          "time": 299.2063476562493,
          "velocity": 0.5511811023622047,
          "duration": 0.19951171874998863
        },
        {
          "name": "D5",
          "midi": 74,
          "time": 299.6062499999993,
          "velocity": 0.4409448818897638,
          "duration": 0.19365234374998863
        },
        {
          "name": "F5",
          "midi": 77,
          "time": 299.6062499999993,
          "velocity": 0.5511811023622047,
          "duration": 0.19365234374998863
        },
        {
          "name": "C5",
          "midi": 72,
          "time": 299.9999999999993,
          "velocity": 0.48031496062992124,
          "duration": 0.3076171875
        },
        {
          "name": "E5",
          "midi": 76,
          "time": 299.9999999999993,
          "velocity": 0.5905511811023622,
          "duration": 0.3076171875
        },
        {
          "name": "A4",
          "midi": 69,
          "time": 300.3079101562493,
          "velocity": 0.4409448818897638,
          "duration": 0.29853515625001137
        },
        {
          "name": "C5",
          "midi": 72,
          "time": 300.3079101562493,
          "velocity": 0.5511811023622047,
          "duration": 0.29853515625001137
        },
        {
          "name": "F4",
          "midi": 65,
          "time": 300.90322265624934,
          "velocity": 0.4409448818897638,
          "duration": 0.29648437499997726
        },
        {
          "name": "A4",
          "midi": 69,
          "time": 300.90322265624934,
          "velocity": 0.5511811023622047,
          "duration": 0.29648437499997726
        },
        {
          "name": "E4",
          "midi": 64,
          "time": 301.1999999999993,
          "velocity": 0.48031496062992124,
          "duration": 0.3076171875
        },
        {
          "name": "G4",
          "midi": 67,
          "time": 301.1999999999993,
          "velocity": 0.5905511811023622,
          "duration": 0.3076171875
        },
        {
          "name": "C5",
          "midi": 72,
          "time": 302.3999999999993,
          "velocity": 0.48031496062992124,
          "duration": 0.3076171875
        },
        {
          "name": "E5",
          "midi": 76,
          "time": 302.3999999999993,
          "velocity": 0.5905511811023622,
          "duration": 0.3076171875
        },
        {
          "name": "A4",
          "midi": 69,
          "time": 302.7079101562493,
          "velocity": 0.4409448818897638,
          "duration": 0.29853515625001137
        },
        {
          "name": "C5",
          "midi": 72,
          "time": 302.7079101562493,
          "velocity": 0.5511811023622047,
          "duration": 0.29853515625001137
        },
        {
          "name": "E4",
          "midi": 64,
          "time": 303.3032226562493,
          "velocity": 0.4409448818897638,
          "duration": 0.29648437499997726
        },
        {
          "name": "G4",
          "midi": 67,
          "time": 303.3032226562493,
          "velocity": 0.5511811023622047,
          "duration": 0.29648437499997726
        },
        {
          "name": "E4",
          "midi": 64,
          "time": 304.2067382812493,
          "velocity": 0.4409448818897638,
          "duration": 0.29619140624998863
        },
        {
          "name": "G#4",
          "midi": 68,
          "time": 304.2067382812493,
          "velocity": 0.5511811023622047,
          "duration": 0.29619140624998863
        },
        {
          "name": "F4",
          "midi": 65,
          "time": 304.7999999999993,
          "velocity": 0.48031496062992124,
          "duration": 0.3076171875
        },
        {
          "name": "A4",
          "midi": 69,
          "time": 304.7999999999993,
          "velocity": 0.5905511811023622,
          "duration": 0.3076171875
        },
        {
          "name": "C5",
          "midi": 72,
          "time": 305.10791015624926,
          "velocity": 0.4409448818897638,
          "duration": 0.29853515625001137
        },
        {
          "name": "F5",
          "midi": 77,
          "time": 305.10791015624926,
          "velocity": 0.5511811023622047,
          "duration": 0.29853515625001137
        },
        {
          "name": "C5",
          "midi": 72,
          "time": 305.7032226562493,
          "velocity": 0.4409448818897638,
          "duration": 0.29648437499997726
        },
        {
          "name": "F5",
          "midi": 77,
          "time": 305.7032226562493,
          "velocity": 0.5511811023622047,
          "duration": 0.29648437499997726
        },
        {
          "name": "F4",
          "midi": 65,
          "time": 305.99999999999926,
          "velocity": 0.48031496062992124,
          "duration": 0.3076171875
        },
        {
          "name": "A4",
          "midi": 69,
          "time": 305.99999999999926,
          "velocity": 0.5905511811023622,
          "duration": 0.3076171875
        },
        {
          "name": "G4",
          "midi": 67,
          "time": 307.19999999999925,
          "velocity": 0.48031496062992124,
          "duration": 0.3076171875
        },
        {
          "name": "B4",
          "midi": 71,
          "time": 307.19999999999925,
          "velocity": 0.5905511811023622,
          "duration": 0.3076171875
        },
        {
          "name": "D5",
          "midi": 74,
          "time": 307.50791015624924,
          "velocity": 0.4409448818897638,
          "duration": 0.29853515625001137
        },
        {
          "name": "F5",
          "midi": 77,
          "time": 307.50791015624924,
          "velocity": 0.5511811023622047,
          "duration": 0.29853515625001137
        },
        {
          "name": "D5",
          "midi": 74,
          "time": 308.1032226562493,
          "velocity": 0.4409448818897638,
          "duration": 0.29648437499997726
        },
        {
          "name": "F5",
          "midi": 77,
          "time": 308.1032226562493,
          "velocity": 0.5196850393700787,
          "duration": 0.29648437499997726
        },
        {
          "name": "D5",
          "midi": 74,
          "time": 308.39999999999924,
          "velocity": 0.48031496062992124,
          "duration": 0.20625000000001137
        },
        {
          "name": "F5",
          "midi": 77,
          "time": 308.39999999999924,
          "velocity": 0.5905511811023622,
          "duration": 0.20625000000001137
        },
        {
          "name": "C5",
          "midi": 72,
          "time": 308.8063476562493,
          "velocity": 0.4409448818897638,
          "duration": 0.19951171874998863
        },
        {
          "name": "E5",
          "midi": 76,
          "time": 308.8063476562493,
          "velocity": 0.5511811023622047,
          "duration": 0.19951171874998863
        },
        {
          "name": "B4",
          "midi": 71,
          "time": 309.2062499999993,
          "velocity": 0.4409448818897638,
          "duration": 0.19365234374998863
        },
        {
          "name": "D5",
          "midi": 74,
          "time": 309.2062499999993,
          "velocity": 0.5511811023622047,
          "duration": 0.19365234374998863
        },
        {
          "name": "G4",
          "midi": 67,
          "time": 309.5999999999993,
          "velocity": 0.48031496062992124,
          "duration": 0.3076171875
        },
        {
          "name": "C5",
          "midi": 72,
          "time": 309.5999999999993,
          "velocity": 0.5905511811023622,
          "duration": 0.3076171875
        },
        {
          "name": "E4",
          "midi": 64,
          "time": 309.9079101562493,
          "velocity": 0.5039370078740157,
          "duration": 0.29853515625001137
        },
        {
          "name": "E4",
          "midi": 64,
          "time": 310.5032226562493,
          "velocity": 0.5039370078740157,
          "duration": 0.29648437499997726
        },
        {
          "name": "C4",
          "midi": 60,
          "time": 310.7999999999993,
          "velocity": 0.5433070866141733,
          "duration": 0.3076171875
        },
        {
          "name": "G#4",
          "midi": 68,
          "time": 311.99999999999926,
          "velocity": 0.48031496062992124,
          "duration": 0.3076171875
        },
        {
          "name": "C5",
          "midi": 72,
          "time": 311.99999999999926,
          "velocity": 0.5590551181102362,
          "duration": 0.3076171875
        },
        {
          "name": "G#4",
          "midi": 68,
          "time": 312.30791015624925,
          "velocity": 0.4409448818897638,
          "duration": 0.29853515625001137
        },
        {
          "name": "C5",
          "midi": 72,
          "time": 312.30791015624925,
          "velocity": 0.5196850393700787,
          "duration": 0.29853515625001137
        },
        {
          "name": "G#4",
          "midi": 68,
          "time": 312.9032226562493,
          "velocity": 0.4409448818897638,
          "duration": 0.29648437499997726
        },
        {
          "name": "C5",
          "midi": 72,
          "time": 312.9032226562493,
          "velocity": 0.5196850393700787,
          "duration": 0.29648437499997726
        },
        {
          "name": "G#4",
          "midi": 68,
          "time": 313.50791015624924,
          "velocity": 0.4409448818897638,
          "duration": 0.29853515625001137
        },
        {
          "name": "C5",
          "midi": 72,
          "time": 313.50791015624924,
          "velocity": 0.5511811023622047,
          "duration": 0.29853515625001137
        },
        {
          "name": "A#4",
          "midi": 70,
          "time": 313.80673828124924,
          "velocity": 0.4409448818897638,
          "duration": 0.29619140624998863
        },
        {
          "name": "D5",
          "midi": 74,
          "time": 313.80673828124924,
          "velocity": 0.5511811023622047,
          "duration": 0.29619140624998863
        },
        {
          "name": "G4",
          "midi": 67,
          "time": 314.39999999999924,
          "velocity": 0.48031496062992124,
          "duration": 0.3076171875
        },
        {
          "name": "E5",
          "midi": 76,
          "time": 314.39999999999924,
          "velocity": 0.5905511811023622,
          "duration": 0.3076171875
        },
        {
          "name": "E4",
          "midi": 64,
          "time": 314.7079101562492,
          "velocity": 0.4409448818897638,
          "duration": 0.29853515625001137
        },
        {
          "name": "C5",
          "midi": 72,
          "time": 314.7079101562492,
          "velocity": 0.5511811023622047,
          "duration": 0.29853515625001137
        },
        {
          "name": "E4",
          "midi": 64,
          "time": 315.30322265624926,
          "velocity": 0.4409448818897638,
          "duration": 0.29648437499997726
        },
        {
          "name": "A4",
          "midi": 69,
          "time": 315.30322265624926,
          "velocity": 0.5511811023622047,
          "duration": 0.29648437499997726
        },
        {
          "name": "C4",
          "midi": 60,
          "time": 315.5999999999992,
          "velocity": 0.48031496062992124,
          "duration": 0.3076171875
        },
        {
          "name": "G4",
          "midi": 67,
          "time": 315.5999999999992,
          "velocity": 0.5905511811023622,
          "duration": 0.3076171875
        },
        {
          "name": "G#4",
          "midi": 68,
          "time": 316.7999999999992,
          "velocity": 0.48031496062992124,
          "duration": 0.3076171875
        },
        {
          "name": "C5",
          "midi": 72,
          "time": 316.7999999999992,
          "velocity": 0.5905511811023622,
          "duration": 0.3076171875
        },
        {
          "name": "G#4",
          "midi": 68,
          "time": 317.1079101562492,
          "velocity": 0.4409448818897638,
          "duration": 0.29853515625001137
        },
        {
          "name": "C5",
          "midi": 72,
          "time": 317.1079101562492,
          "velocity": 0.5196850393700787,
          "duration": 0.29853515625001137
        },
        {
          "name": "G#4",
          "midi": 68,
          "time": 317.70322265624924,
          "velocity": 0.4409448818897638,
          "duration": 0.29648437499997726
        },
        {
          "name": "C5",
          "midi": 72,
          "time": 317.70322265624924,
          "velocity": 0.5196850393700787,
          "duration": 0.29648437499997726
        },
        {
          "name": "G#4",
          "midi": 68,
          "time": 318.3079101562492,
          "velocity": 0.4409448818897638,
          "duration": 0.29853515625001137
        },
        {
          "name": "C5",
          "midi": 72,
          "time": 318.3079101562492,
          "velocity": 0.5511811023622047,
          "duration": 0.29853515625001137
        },
        {
          "name": "A#4",
          "midi": 70,
          "time": 318.6067382812492,
          "velocity": 0.4409448818897638,
          "duration": 0.29619140624998863
        },
        {
          "name": "D5",
          "midi": 74,
          "time": 318.6067382812492,
          "velocity": 0.5511811023622047,
          "duration": 0.29619140624998863
        },
        {
          "name": "G4",
          "midi": 67,
          "time": 318.90322265624917,
          "velocity": 0.4409448818897638,
          "duration": 0.29648437499997726
        },
        {
          "name": "E5",
          "midi": 76,
          "time": 318.90322265624917,
          "velocity": 0.5511811023622047,
          "duration": 0.29648437499997726
        },
        {
          "name": "G#4",
          "midi": 68,
          "time": 321.59999999999917,
          "velocity": 0.48031496062992124,
          "duration": 0.3076171875
        },
        {
          "name": "C5",
          "midi": 72,
          "time": 321.59999999999917,
          "velocity": 0.5590551181102362,
          "duration": 0.3076171875
        },
        {
          "name": "G#4",
          "midi": 68,
          "time": 321.90791015624916,
          "velocity": 0.4409448818897638,
          "duration": 0.29853515625001137
        },
        {
          "name": "C5",
          "midi": 72,
          "time": 321.90791015624916,
          "velocity": 0.5196850393700787,
          "duration": 0.29853515625001137
        },
        {
          "name": "G#4",
          "midi": 68,
          "time": 322.5032226562492,
          "velocity": 0.4409448818897638,
          "duration": 0.29648437499997726
        },
        {
          "name": "C5",
          "midi": 72,
          "time": 322.5032226562492,
          "velocity": 0.5196850393700787,
          "duration": 0.29648437499997726
        },
        {
          "name": "G#4",
          "midi": 68,
          "time": 323.10791015624915,
          "velocity": 0.4409448818897638,
          "duration": 0.29853515625001137
        },
        {
          "name": "C5",
          "midi": 72,
          "time": 323.10791015624915,
          "velocity": 0.5511811023622047,
          "duration": 0.29853515625001137
        },
        {
          "name": "A#4",
          "midi": 70,
          "time": 323.40673828124915,
          "velocity": 0.4409448818897638,
          "duration": 0.29619140624998863
        },
        {
          "name": "D5",
          "midi": 74,
          "time": 323.40673828124915,
          "velocity": 0.5511811023622047,
          "duration": 0.29619140624998863
        },
        {
          "name": "G4",
          "midi": 67,
          "time": 323.99999999999915,
          "velocity": 0.48031496062992124,
          "duration": 0.3076171875
        },
        {
          "name": "E5",
          "midi": 76,
          "time": 323.99999999999915,
          "velocity": 0.5905511811023622,
          "duration": 0.3076171875
        },
        {
          "name": "E4",
          "midi": 64,
          "time": 324.30791015624914,
          "velocity": 0.4409448818897638,
          "duration": 0.29853515625001137
        },
        {
          "name": "C5",
          "midi": 72,
          "time": 324.30791015624914,
          "velocity": 0.5511811023622047,
          "duration": 0.29853515625001137
        },
        {
          "name": "E4",
          "midi": 64,
          "time": 324.90322265624917,
          "velocity": 0.4409448818897638,
          "duration": 0.29648437499997726
        },
        {
          "name": "A4",
          "midi": 69,
          "time": 324.90322265624917,
          "velocity": 0.5511811023622047,
          "duration": 0.29648437499997726
        },
        {
          "name": "C4",
          "midi": 60,
          "time": 325.19999999999914,
          "velocity": 0.48031496062992124,
          "duration": 0.3076171875
        },
        {
          "name": "G4",
          "midi": 67,
          "time": 325.19999999999914,
          "velocity": 0.5905511811023622,
          "duration": 0.3076171875
        },
        {
          "name": "F#4",
          "midi": 66,
          "time": 326.3999999999991,
          "velocity": 0.48031496062992124,
          "duration": 0.3076171875
        },
        {
          "name": "E5",
          "midi": 76,
          "time": 326.3999999999991,
          "velocity": 0.5905511811023622,
          "duration": 0.3076171875
        },
        {
          "name": "F#4",
          "midi": 66,
          "time": 326.7079101562491,
          "velocity": 0.4409448818897638,
          "duration": 0.29853515625001137
        },
        {
          "name": "E5",
          "midi": 76,
          "time": 326.7079101562491,
          "velocity": 0.5196850393700787,
          "duration": 0.29853515625001137
        },
        {
          "name": "F#4",
          "midi": 66,
          "time": 327.30322265624915,
          "velocity": 0.4409448818897638,
          "duration": 0.29648437499997726
        },
        {
          "name": "E5",
          "midi": 76,
          "time": 327.30322265624915,
          "velocity": 0.5511811023622047,
          "duration": 0.29648437499997726
        },
        {
          "name": "F#4",
          "midi": 66,
          "time": 327.9079101562491,
          "velocity": 0.4409448818897638,
          "duration": 0.29853515625001137
        },
        {
          "name": "C5",
          "midi": 72,
          "time": 327.9079101562491,
          "velocity": 0.5511811023622047,
          "duration": 0.29853515625001137
        },
        {
          "name": "F#4",
          "midi": 66,
          "time": 328.2067382812491,
          "velocity": 0.4409448818897638,
          "duration": 0.29619140624998863
        },
        {
          "name": "E5",
          "midi": 76,
          "time": 328.2067382812491,
          "velocity": 0.5511811023622047,
          "duration": 0.29619140624998863
        },
        {
          "name": "G4",
          "midi": 67,
          "time": 328.7999999999991,
          "velocity": 0.48031496062992124,
          "duration": 0.3076171875
        },
        {
          "name": "B4",
          "midi": 71,
          "time": 328.7999999999991,
          "velocity": 0.48031496062992124,
          "duration": 0.3076171875
        },
        {
          "name": "G5",
          "midi": 79,
          "time": 328.7999999999991,
          "velocity": 0.5905511811023622,
          "duration": 0.3076171875
        },
        {
          "name": "G4",
          "midi": 67,
          "time": 329.9999999999991,
          "velocity": 0.5433070866141733,
          "duration": 0.3076171875
        },
        {
          "name": "C5",
          "midi": 72,
          "time": 331.1999999999991,
          "velocity": 0.48031496062992124,
          "duration": 0.3076171875
        },
        {
          "name": "E5",
          "midi": 76,
          "time": 331.1999999999991,
          "velocity": 0.5905511811023622,
          "duration": 0.3076171875
        },
        {
          "name": "A4",
          "midi": 69,
          "time": 331.50791015624907,
          "velocity": 0.4409448818897638,
          "duration": 0.29853515625001137
        },
        {
          "name": "C5",
          "midi": 72,
          "time": 331.50791015624907,
          "velocity": 0.5511811023622047,
          "duration": 0.29853515625001137
        },
        {
          "name": "E4",
          "midi": 64,
          "time": 332.1032226562491,
          "velocity": 0.4409448818897638,
          "duration": 0.29648437499997726
        },
        {
          "name": "G4",
          "midi": 67,
          "time": 332.1032226562491,
          "velocity": 0.5511811023622047,
          "duration": 0.29648437499997726
        },
        {
          "name": "E4",
          "midi": 64,
          "time": 333.00673828124906,
          "velocity": 0.4409448818897638,
          "duration": 0.29619140624998863
        },
        {
          "name": "G#4",
          "midi": 68,
          "time": 333.00673828124906,
          "velocity": 0.5511811023622047,
          "duration": 0.29619140624998863
        },
        {
          "name": "F4",
          "midi": 65,
          "time": 333.59999999999906,
          "velocity": 0.48031496062992124,
          "duration": 0.3076171875
        },
        {
          "name": "A4",
          "midi": 69,
          "time": 333.59999999999906,
          "velocity": 0.5905511811023622,
          "duration": 0.3076171875
        },
        {
          "name": "C5",
          "midi": 72,
          "time": 333.90791015624905,
          "velocity": 0.4409448818897638,
          "duration": 0.29853515625001137
        },
        {
          "name": "F5",
          "midi": 77,
          "time": 333.90791015624905,
          "velocity": 0.5511811023622047,
          "duration": 0.29853515625001137
        },
        {
          "name": "C5",
          "midi": 72,
          "time": 334.5032226562491,
          "velocity": 0.4409448818897638,
          "duration": 0.29648437499997726
        },
        {
          "name": "F5",
          "midi": 77,
          "time": 334.5032226562491,
          "velocity": 0.5511811023622047,
          "duration": 0.29648437499997726
        },
        {
          "name": "F4",
          "midi": 65,
          "time": 334.79999999999905,
          "velocity": 0.48031496062992124,
          "duration": 0.3076171875
        },
        {
          "name": "A4",
          "midi": 69,
          "time": 334.79999999999905,
          "velocity": 0.5905511811023622,
          "duration": 0.3076171875
        },
        {
          "name": "G4",
          "midi": 67,
          "time": 335.99999999999903,
          "velocity": 0.48031496062992124,
          "duration": 0.20625000000001137
        },
        {
          "name": "B4",
          "midi": 71,
          "time": 335.99999999999903,
          "velocity": 0.5905511811023622,
          "duration": 0.20625000000001137
        },
        {
          "name": "F5",
          "midi": 77,
          "time": 336.40634765624907,
          "velocity": 0.4409448818897638,
          "duration": 0.19951171874998863
        },
        {
          "name": "A5",
          "midi": 81,
          "time": 336.40634765624907,
          "velocity": 0.5511811023622047,
          "duration": 0.19951171874998863
        },
        {
          "name": "F5",
          "midi": 77,
          "time": 336.80624999999907,
          "velocity": 0.4409448818897638,
          "duration": 0.19365234374998863
        },
        {
          "name": "A5",
          "midi": 81,
          "time": 336.80624999999907,
          "velocity": 0.5196850393700787,
          "duration": 0.19365234374998863
        },
        {
          "name": "F5",
          "midi": 77,
          "time": 337.1999999999991,
          "velocity": 0.48031496062992124,
          "duration": 0.20625000000001137
        },
        {
          "name": "A5",
          "midi": 81,
          "time": 337.1999999999991,
          "velocity": 0.5905511811023622,
          "duration": 0.20625000000001137
        },
        {
          "name": "E5",
          "midi": 76,
          "time": 337.6063476562491,
          "velocity": 0.4409448818897638,
          "duration": 0.19951171874998863
        },
        {
          "name": "G5",
          "midi": 79,
          "time": 337.6063476562491,
          "velocity": 0.5511811023622047,
          "duration": 0.19951171874998863
        },
        {
          "name": "D5",
          "midi": 74,
          "time": 338.0062499999991,
          "velocity": 0.4409448818897638,
          "duration": 0.19365234374998863
        },
        {
          "name": "F5",
          "midi": 77,
          "time": 338.0062499999991,
          "velocity": 0.5511811023622047,
          "duration": 0.19365234374998863
        },
        {
          "name": "C5",
          "midi": 72,
          "time": 338.3999999999991,
          "velocity": 0.48031496062992124,
          "duration": 0.3076171875
        },
        {
          "name": "E5",
          "midi": 76,
          "time": 338.3999999999991,
          "velocity": 0.5905511811023622,
          "duration": 0.3076171875
        },
        {
          "name": "A4",
          "midi": 69,
          "time": 338.7079101562491,
          "velocity": 0.4409448818897638,
          "duration": 0.29853515625001137
        },
        {
          "name": "C5",
          "midi": 72,
          "time": 338.7079101562491,
          "velocity": 0.5511811023622047,
          "duration": 0.29853515625001137
        },
        {
          "name": "F4",
          "midi": 65,
          "time": 339.30322265624915,
          "velocity": 0.4409448818897638,
          "duration": 0.29648437499997726
        },
        {
          "name": "A4",
          "midi": 69,
          "time": 339.30322265624915,
          "velocity": 0.5511811023622047,
          "duration": 0.29648437499997726
        },
        {
          "name": "E4",
          "midi": 64,
          "time": 339.5999999999991,
          "velocity": 0.48031496062992124,
          "duration": 0.3076171875
        },
        {
          "name": "G4",
          "midi": 67,
          "time": 339.5999999999991,
          "velocity": 0.5905511811023622,
          "duration": 0.3076171875
        },
        {
          "name": "C5",
          "midi": 72,
          "time": 340.7999999999991,
          "velocity": 0.48031496062992124,
          "duration": 0.3076171875
        },
        {
          "name": "E5",
          "midi": 76,
          "time": 340.7999999999991,
          "velocity": 0.5905511811023622,
          "duration": 0.3076171875
        },
        {
          "name": "A4",
          "midi": 69,
          "time": 341.1079101562491,
          "velocity": 0.4409448818897638,
          "duration": 0.29853515625001137
        },
        {
          "name": "C5",
          "midi": 72,
          "time": 341.1079101562491,
          "velocity": 0.5511811023622047,
          "duration": 0.29853515625001137
        },
        {
          "name": "E4",
          "midi": 64,
          "time": 341.7032226562491,
          "velocity": 0.4409448818897638,
          "duration": 0.29648437499997726
        },
        {
          "name": "G4",
          "midi": 67,
          "time": 341.7032226562491,
          "velocity": 0.5511811023622047,
          "duration": 0.29648437499997726
        },
        {
          "name": "E4",
          "midi": 64,
          "time": 342.6067382812491,
          "velocity": 0.4409448818897638,
          "duration": 0.29619140624998863
        },
        {
          "name": "G#4",
          "midi": 68,
          "time": 342.6067382812491,
          "velocity": 0.5511811023622047,
          "duration": 0.29619140624998863
        },
        {
          "name": "F4",
          "midi": 65,
          "time": 343.1999999999991,
          "velocity": 0.48031496062992124,
          "duration": 0.3076171875
        },
        {
          "name": "A4",
          "midi": 69,
          "time": 343.1999999999991,
          "velocity": 0.5905511811023622,
          "duration": 0.3076171875
        },
        {
          "name": "C5",
          "midi": 72,
          "time": 343.50791015624907,
          "velocity": 0.4409448818897638,
          "duration": 0.29853515625001137
        },
        {
          "name": "F5",
          "midi": 77,
          "time": 343.50791015624907,
          "velocity": 0.5511811023622047,
          "duration": 0.29853515625001137
        },
        {
          "name": "C5",
          "midi": 72,
          "time": 344.1032226562491,
          "velocity": 0.4409448818897638,
          "duration": 0.29648437499997726
        },
        {
          "name": "F5",
          "midi": 77,
          "time": 344.1032226562491,
          "velocity": 0.5511811023622047,
          "duration": 0.29648437499997726
        },
        {
          "name": "F4",
          "midi": 65,
          "time": 344.39999999999907,
          "velocity": 0.48031496062992124,
          "duration": 0.3076171875
        },
        {
          "name": "A4",
          "midi": 69,
          "time": 344.39999999999907,
          "velocity": 0.5905511811023622,
          "duration": 0.3076171875
        },
        {
          "name": "G4",
          "midi": 67,
          "time": 345.59999999999906,
          "velocity": 0.48031496062992124,
          "duration": 0.3076171875
        },
        {
          "name": "B4",
          "midi": 71,
          "time": 345.59999999999906,
          "velocity": 0.5905511811023622,
          "duration": 0.3076171875
        },
        {
          "name": "D5",
          "midi": 74,
          "time": 345.90791015624905,
          "velocity": 0.4409448818897638,
          "duration": 0.29853515625001137
        },
        {
          "name": "F5",
          "midi": 77,
          "time": 345.90791015624905,
          "velocity": 0.5511811023622047,
          "duration": 0.29853515625001137
        },
        {
          "name": "D5",
          "midi": 74,
          "time": 346.5032226562491,
          "velocity": 0.4409448818897638,
          "duration": 0.29648437499997726
        },
        {
          "name": "F5",
          "midi": 77,
          "time": 346.5032226562491,
          "velocity": 0.5196850393700787,
          "duration": 0.29648437499997726
        },
        {
          "name": "D5",
          "midi": 74,
          "time": 346.79999999999905,
          "velocity": 0.48031496062992124,
          "duration": 0.20625000000001137
        },
        {
          "name": "F5",
          "midi": 77,
          "time": 346.79999999999905,
          "velocity": 0.5905511811023622,
          "duration": 0.20625000000001137
        },
        {
          "name": "C5",
          "midi": 72,
          "time": 347.2063476562491,
          "velocity": 0.4409448818897638,
          "duration": 0.19951171874998863
        },
        {
          "name": "E5",
          "midi": 76,
          "time": 347.2063476562491,
          "velocity": 0.5511811023622047,
          "duration": 0.19951171874998863
        },
        {
          "name": "B4",
          "midi": 71,
          "time": 347.6062499999991,
          "velocity": 0.4409448818897638,
          "duration": 0.19365234374998863
        },
        {
          "name": "D5",
          "midi": 74,
          "time": 347.6062499999991,
          "velocity": 0.5511811023622047,
          "duration": 0.19365234374998863
        },
        {
          "name": "G4",
          "midi": 67,
          "time": 347.9999999999991,
          "velocity": 0.48031496062992124,
          "duration": 0.3076171875
        },
        {
          "name": "C5",
          "midi": 72,
          "time": 347.9999999999991,
          "velocity": 0.5905511811023622,
          "duration": 0.3076171875
        },
        {
          "name": "E4",
          "midi": 64,
          "time": 348.3079101562491,
          "velocity": 0.5039370078740157,
          "duration": 0.29853515625001137
        },
        {
          "name": "E4",
          "midi": 64,
          "time": 348.9032226562491,
          "velocity": 0.5039370078740157,
          "duration": 0.29648437499997726
        },
        {
          "name": "C4",
          "midi": 60,
          "time": 349.1999999999991,
          "velocity": 0.5433070866141733,
          "duration": 0.3076171875
        }
      ],
      "controlChanges": {
        "7": [
          {
            "number": 7,
            "time": 0,
            "value": 0.7952755905511811
          },
          {
            "number": 7,
            "time": 0,
            "value": 0.8661417322834646
          }
        ],
        "10": [
          {
            "number": 10,
            "time": 0,
            "value": 0.5039370078740157
          }
        ]
      },
      "id": 2,
      "name": "R.H.",
      "instrumentNumber": 0,
      "instrument": "acoustic grand piano",
      "instrumentFamily": "piano",
      "channelNumber": 0,
      "isPercussion": false
    },
    {
      "startTime": 0.0029296875,
      "duration": 349.50761718749897,
      "length": 552,
      "notes": [
        {
          "name": "D3",
          "midi": 50,
          "time": 0.0029296875,
          "velocity": 0.5433070866141733,
          "duration": 0.3046875
        },
        {
          "name": "D3",
          "midi": 50,
          "time": 0.30791015625,
          "velocity": 0.5039370078740157,
          "duration": 0.29853515625
        },
        {
          "name": "D3",
          "midi": 50,
          "time": 0.90322265625,
          "velocity": 0.5039370078740157,
          "duration": 0.296484375
        },
        {
          "name": "D3",
          "midi": 50,
          "time": 1.50791015625,
          "velocity": 0.5039370078740157,
          "duration": 0.29853515625000004
        },
        {
          "name": "D3",
          "midi": 50,
          "time": 1.80673828125,
          "velocity": 0.5039370078740157,
          "duration": 0.2961914062500002
        },
        {
          "name": "G3",
          "midi": 55,
          "time": 3.6,
          "velocity": 0.5433070866141733,
          "duration": 0.3076171875
        },
        {
          "name": "G3",
          "midi": 55,
          "time": 4.8,
          "velocity": 0.5433070866141733,
          "duration": 0.3076171875
        },
        {
          "name": "E3",
          "midi": 52,
          "time": 5.7032226562499995,
          "velocity": 0.5039370078740157,
          "duration": 0.29648437500000036
        },
        {
          "name": "C3",
          "midi": 48,
          "time": 6.60673828125,
          "velocity": 0.5039370078740157,
          "duration": 0.2961914062500002
        },
        {
          "name": "F3",
          "midi": 53,
          "time": 7.50791015625,
          "velocity": 0.5039370078740157,
          "duration": 0.2985351562499998
        },
        {
          "name": "G3",
          "midi": 55,
          "time": 8.10322265625,
          "velocity": 0.5039370078740157,
          "duration": 0.29648437500000036
        },
        {
          "name": "F#3",
          "midi": 54,
          "time": 8.707910156250001,
          "velocity": 0.5039370078740157,
          "duration": 0.2985351562500007
        },
        {
          "name": "F3",
          "midi": 53,
          "time": 9.006738281250001,
          "velocity": 0.5039370078740157,
          "duration": 0.2961914062499993
        },
        {
          "name": "E3",
          "midi": 52,
          "time": 9.600000000000001,
          "velocity": 0.5433070866141733,
          "duration": 0.2062500000000007
        },
        {
          "name": "C4",
          "midi": 60,
          "time": 10.006347656250002,
          "velocity": 0.5039370078740157,
          "duration": 0.1995117187499993
        },
        {
          "name": "E4",
          "midi": 64,
          "time": 10.406250000000002,
          "velocity": 0.5039370078740157,
          "duration": 0.1936523437499993
        },
        {
          "name": "F4",
          "midi": 65,
          "time": 10.8,
          "velocity": 0.5433070866141733,
          "duration": 0.3076171875
        },
        {
          "name": "D4",
          "midi": 62,
          "time": 11.40673828125,
          "velocity": 0.5039370078740157,
          "duration": 0.2961914062499993
        },
        {
          "name": "E4",
          "midi": 64,
          "time": 11.703222656249999,
          "velocity": 0.5039370078740157,
          "duration": 0.29648437500000036
        },
        {
          "name": "C4",
          "midi": 60,
          "time": 12.30791015625,
          "velocity": 0.5039370078740157,
          "duration": 0.2985351562500007
        },
        {
          "name": "A3",
          "midi": 57,
          "time": 12.90322265625,
          "velocity": 0.5039370078740157,
          "duration": 0.29648437500000036
        },
        {
          "name": "B3",
          "midi": 59,
          "time": 13.2,
          "velocity": 0.5433070866141733,
          "duration": 0.3076171875
        },
        {
          "name": "G3",
          "midi": 55,
          "time": 13.507910156249999,
          "velocity": 0.5039370078740157,
          "duration": 0.2985351562500007
        },
        {
          "name": "G3",
          "midi": 55,
          "time": 14.399999999999999,
          "velocity": 0.5433070866141733,
          "duration": 0.3076171875
        },
        {
          "name": "E3",
          "midi": 52,
          "time": 15.303222656249998,
          "velocity": 0.5039370078740157,
          "duration": 0.29648437500000036
        },
        {
          "name": "C3",
          "midi": 48,
          "time": 16.206738281249997,
          "velocity": 0.5039370078740157,
          "duration": 0.2961914062499993
        },
        {
          "name": "F3",
          "midi": 53,
          "time": 17.107910156249996,
          "velocity": 0.5039370078740157,
          "duration": 0.2985351562500007
        },
        {
          "name": "G3",
          "midi": 55,
          "time": 17.70322265625,
          "velocity": 0.5039370078740157,
          "duration": 0.2964843749999986
        },
        {
          "name": "F#3",
          "midi": 54,
          "time": 18.307910156249996,
          "velocity": 0.5039370078740157,
          "duration": 0.2985351562500007
        },
        {
          "name": "F3",
          "midi": 53,
          "time": 18.606738281249996,
          "velocity": 0.5039370078740157,
          "duration": 0.2961914062499993
        },
        {
          "name": "E3",
          "midi": 52,
          "time": 19.199999999999996,
          "velocity": 0.5433070866141733,
          "duration": 0.2062500000000007
        },
        {
          "name": "C4",
          "midi": 60,
          "time": 19.606347656249998,
          "velocity": 0.5039370078740157,
          "duration": 0.1995117187499993
        },
        {
          "name": "E4",
          "midi": 64,
          "time": 20.006249999999998,
          "velocity": 0.5039370078740157,
          "duration": 0.1936523437499993
        },
        {
          "name": "F4",
          "midi": 65,
          "time": 20.4,
          "velocity": 0.5433070866141733,
          "duration": 0.3076171875
        },
        {
          "name": "D4",
          "midi": 62,
          "time": 21.006738281249998,
          "velocity": 0.5039370078740157,
          "duration": 0.2961914062499993
        },
        {
          "name": "E4",
          "midi": 64,
          "time": 21.303222656249996,
          "velocity": 0.5039370078740157,
          "duration": 0.2964843749999986
        },
        {
          "name": "C4",
          "midi": 60,
          "time": 21.907910156249994,
          "velocity": 0.5039370078740157,
          "duration": 0.2985351562500007
        },
        {
          "name": "A3",
          "midi": 57,
          "time": 22.503222656249996,
          "velocity": 0.5039370078740157,
          "duration": 0.2964843749999986
        },
        {
          "name": "B3",
          "midi": 59,
          "time": 22.799999999999994,
          "velocity": 0.5433070866141733,
          "duration": 0.3076171875
        },
        {
          "name": "G3",
          "midi": 55,
          "time": 23.107910156249993,
          "velocity": 0.5039370078740157,
          "duration": 0.2985351562500007
        },
        {
          "name": "C3",
          "midi": 48,
          "time": 23.999999999999993,
          "velocity": 0.5433070866141733,
          "duration": 0.3076171875
        },
        {
          "name": "G3",
          "midi": 55,
          "time": 24.903222656249994,
          "velocity": 0.5039370078740157,
          "duration": 0.2964843749999986
        },
        {
          "name": "C4",
          "midi": 60,
          "time": 25.80673828124999,
          "velocity": 0.5039370078740157,
          "duration": 0.2961914062499993
        },
        {
          "name": "F3",
          "midi": 53,
          "time": 26.39999999999999,
          "velocity": 0.5433070866141733,
          "duration": 0.3076171875
        },
        {
          "name": "C4",
          "midi": 60,
          "time": 27.303222656249993,
          "velocity": 0.5039370078740157,
          "duration": 0.2964843749999986
        },
        {
          "name": "C4",
          "midi": 60,
          "time": 27.59999999999999,
          "velocity": 0.5433070866141733,
          "duration": 0.3076171875
        },
        {
          "name": "F3",
          "midi": 53,
          "time": 28.20673828124999,
          "velocity": 0.5039370078740157,
          "duration": 0.2961914062499993
        },
        {
          "name": "C3",
          "midi": 48,
          "time": 28.79999999999999,
          "velocity": 0.5433070866141733,
          "duration": 0.3076171875
        },
        {
          "name": "E3",
          "midi": 52,
          "time": 29.70322265624999,
          "velocity": 0.5039370078740157,
          "duration": 0.2964843749999986
        },
        {
          "name": "G3",
          "midi": 55,
          "time": 30.60673828124999,
          "velocity": 0.5039370078740157,
          "duration": 0.2961914062499993
        },
        {
          "name": "C4",
          "midi": 60,
          "time": 30.903222656249987,
          "velocity": 0.5039370078740157,
          "duration": 0.2964843749999986
        },
        {
          "name": "G3",
          "midi": 55,
          "time": 33.00673828124999,
          "velocity": 0.5039370078740157,
          "duration": 0.29619140625000284
        },
        {
          "name": "C3",
          "midi": 48,
          "time": 33.59999999999999,
          "velocity": 0.5433070866141733,
          "duration": 0.3076171875
        },
        {
          "name": "G3",
          "midi": 55,
          "time": 34.50322265624999,
          "velocity": 0.5039370078740157,
          "duration": 0.2964843749999986
        },
        {
          "name": "C4",
          "midi": 60,
          "time": 35.406738281249986,
          "velocity": 0.5039370078740157,
          "duration": 0.29619140625000284
        },
        {
          "name": "F3",
          "midi": 53,
          "time": 35.999999999999986,
          "velocity": 0.5433070866141733,
          "duration": 0.3076171875
        },
        {
          "name": "C4",
          "midi": 60,
          "time": 36.90322265624999,
          "velocity": 0.5039370078740157,
          "duration": 0.2964843749999986
        },
        {
          "name": "C4",
          "midi": 60,
          "time": 37.19999999999999,
          "velocity": 0.5433070866141733,
          "duration": 0.3076171875
        },
        {
          "name": "F3",
          "midi": 53,
          "time": 37.80673828124999,
          "velocity": 0.5039370078740157,
          "duration": 0.29619140625000284
        },
        {
          "name": "C3",
          "midi": 48,
          "time": 38.39999999999999,
          "velocity": 0.5433070866141733,
          "duration": 0.3076171875
        },
        {
          "name": "G#3",
          "midi": 56,
          "time": 39.006738281249994,
          "velocity": 0.5039370078740157,
          "duration": 0.29619140625000284
        },
        {
          "name": "A#3",
          "midi": 58,
          "time": 39.90791015625,
          "velocity": 0.5039370078740157,
          "duration": 0.29853515624999716
        },
        {
          "name": "C4",
          "midi": 60,
          "time": 40.8,
          "velocity": 0.5433070866141733,
          "duration": 0.3076171875
        },
        {
          "name": "G3",
          "midi": 55,
          "time": 41.70322265625,
          "velocity": 0.5039370078740157,
          "duration": 0.2964843749999986
        },
        {
          "name": "G3",
          "midi": 55,
          "time": 42,
          "velocity": 0.5433070866141733,
          "duration": 0.3076171875
        },
        {
          "name": "C3",
          "midi": 48,
          "time": 42.60673828125,
          "velocity": 0.5039370078740157,
          "duration": 0.29619140625000284
        },
        {
          "name": "C3",
          "midi": 48,
          "time": 43.2,
          "velocity": 0.5433070866141733,
          "duration": 0.3076171875
        },
        {
          "name": "G3",
          "midi": 55,
          "time": 44.103222656250004,
          "velocity": 0.5039370078740157,
          "duration": 0.2964843749999986
        },
        {
          "name": "C4",
          "midi": 60,
          "time": 45.00673828125,
          "velocity": 0.5039370078740157,
          "duration": 0.29619140625000284
        },
        {
          "name": "F3",
          "midi": 53,
          "time": 45.6,
          "velocity": 0.5433070866141733,
          "duration": 0.3076171875
        },
        {
          "name": "C4",
          "midi": 60,
          "time": 46.50322265625,
          "velocity": 0.5039370078740157,
          "duration": 0.2964843749999986
        },
        {
          "name": "C4",
          "midi": 60,
          "time": 46.800000000000004,
          "velocity": 0.5433070866141733,
          "duration": 0.3076171875
        },
        {
          "name": "F3",
          "midi": 53,
          "time": 47.40673828125001,
          "velocity": 0.5039370078740157,
          "duration": 0.29619140625000284
        },
        {
          "name": "C3",
          "midi": 48,
          "time": 48.00000000000001,
          "velocity": 0.5433070866141733,
          "duration": 0.3076171875
        },
        {
          "name": "E3",
          "midi": 52,
          "time": 48.90322265625001,
          "velocity": 0.5039370078740157,
          "duration": 0.2964843749999986
        },
        {
          "name": "G3",
          "midi": 55,
          "time": 49.806738281250006,
          "velocity": 0.5039370078740157,
          "duration": 0.29619140625000284
        },
        {
          "name": "C4",
          "midi": 60,
          "time": 50.10322265625001,
          "velocity": 0.5039370078740157,
          "duration": 0.2964843749999986
        },
        {
          "name": "G3",
          "midi": 55,
          "time": 52.20673828125001,
          "velocity": 0.5039370078740157,
          "duration": 0.29619140625000284
        },
        {
          "name": "C3",
          "midi": 48,
          "time": 52.80000000000001,
          "velocity": 0.5433070866141733,
          "duration": 0.3076171875
        },
        {
          "name": "G3",
          "midi": 55,
          "time": 53.70322265625001,
          "velocity": 0.5039370078740157,
          "duration": 0.2964843749999986
        },
        {
          "name": "C4",
          "midi": 60,
          "time": 54.60673828125001,
          "velocity": 0.5039370078740157,
          "duration": 0.29619140625000284
        },
        {
          "name": "F3",
          "midi": 53,
          "time": 55.20000000000001,
          "velocity": 0.5433070866141733,
          "duration": 0.3076171875
        },
        {
          "name": "C4",
          "midi": 60,
          "time": 56.10322265625001,
          "velocity": 0.5039370078740157,
          "duration": 0.2964843749999986
        },
        {
          "name": "C4",
          "midi": 60,
          "time": 56.40000000000001,
          "velocity": 0.5433070866141733,
          "duration": 0.3076171875
        },
        {
          "name": "F3",
          "midi": 53,
          "time": 57.006738281250016,
          "velocity": 0.5039370078740157,
          "duration": 0.29619140625000284
        },
        {
          "name": "C3",
          "midi": 48,
          "time": 57.600000000000016,
          "velocity": 0.5433070866141733,
          "duration": 0.3076171875
        },
        {
          "name": "G#3",
          "midi": 56,
          "time": 58.20673828125002,
          "velocity": 0.5039370078740157,
          "duration": 0.29619140625000284
        },
        {
          "name": "A#3",
          "midi": 58,
          "time": 59.10791015625002,
          "velocity": 0.5039370078740157,
          "duration": 0.29853515624999716
        },
        {
          "name": "C4",
          "midi": 60,
          "time": 60.00000000000002,
          "velocity": 0.5433070866141733,
          "duration": 0.3076171875
        },
        {
          "name": "G3",
          "midi": 55,
          "time": 60.90322265625002,
          "velocity": 0.5039370078740157,
          "duration": 0.2964843749999986
        },
        {
          "name": "G3",
          "midi": 55,
          "time": 61.200000000000024,
          "velocity": 0.5433070866141733,
          "duration": 0.3076171875
        },
        {
          "name": "C3",
          "midi": 48,
          "time": 61.80673828125003,
          "velocity": 0.5039370078740157,
          "duration": 0.29619140625000284
        },
        {
          "name": "G#2",
          "midi": 44,
          "time": 62.40000000000003,
          "velocity": 0.5433070866141733,
          "duration": 0.3076171875
        },
        {
          "name": "D#3",
          "midi": 51,
          "time": 63.30322265625003,
          "velocity": 0.5039370078740157,
          "duration": 0.2964843749999986
        },
        {
          "name": "G#3",
          "midi": 56,
          "time": 64.20673828125003,
          "velocity": 0.5039370078740157,
          "duration": 0.29619140625000284
        },
        {
          "name": "G3",
          "midi": 55,
          "time": 64.80000000000003,
          "velocity": 0.5433070866141733,
          "duration": 0.3076171875
        },
        {
          "name": "C3",
          "midi": 48,
          "time": 65.70322265625002,
          "velocity": 0.5039370078740157,
          "duration": 0.2964843750000057
        },
        {
          "name": "G2",
          "midi": 43,
          "time": 66.60673828125003,
          "velocity": 0.5039370078740157,
          "duration": 0.29619140625000284
        },
        {
          "name": "G#2",
          "midi": 44,
          "time": 67.20000000000003,
          "velocity": 0.5433070866141733,
          "duration": 0.3076171875
        },
        {
          "name": "D#3",
          "midi": 51,
          "time": 68.10322265625003,
          "velocity": 0.5039370078740157,
          "duration": 0.2964843750000057
        },
        {
          "name": "G#3",
          "midi": 56,
          "time": 69.00673828125004,
          "velocity": 0.5039370078740157,
          "duration": 0.29619140625000284
        },
        {
          "name": "G3",
          "midi": 55,
          "time": 69.60000000000004,
          "velocity": 0.5433070866141733,
          "duration": 0.3076171875
        },
        {
          "name": "C3",
          "midi": 48,
          "time": 70.50322265625003,
          "velocity": 0.5039370078740157,
          "duration": 0.2964843750000057
        },
        {
          "name": "G2",
          "midi": 43,
          "time": 71.40673828125004,
          "velocity": 0.5039370078740157,
          "duration": 0.29619140625000284
        },
        {
          "name": "G#2",
          "midi": 44,
          "time": 72.00000000000004,
          "velocity": 0.5433070866141733,
          "duration": 0.3076171875
        },
        {
          "name": "D#3",
          "midi": 51,
          "time": 72.90322265625004,
          "velocity": 0.5039370078740157,
          "duration": 0.2964843750000057
        },
        {
          "name": "G#3",
          "midi": 56,
          "time": 73.80673828125005,
          "velocity": 0.5039370078740157,
          "duration": 0.29619140625000284
        },
        {
          "name": "G3",
          "midi": 55,
          "time": 74.40000000000005,
          "velocity": 0.5433070866141733,
          "duration": 0.3076171875
        },
        {
          "name": "C3",
          "midi": 48,
          "time": 75.30322265625004,
          "velocity": 0.5039370078740157,
          "duration": 0.2964843750000057
        },
        {
          "name": "G2",
          "midi": 43,
          "time": 76.20673828125005,
          "velocity": 0.5039370078740157,
          "duration": 0.29619140625000284
        },
        {
          "name": "D3",
          "midi": 50,
          "time": 76.80000000000005,
          "velocity": 0.5433070866141733,
          "duration": 0.3076171875
        },
        {
          "name": "D3",
          "midi": 50,
          "time": 77.10791015625006,
          "velocity": 0.5039370078740157,
          "duration": 0.29853515624999716
        },
        {
          "name": "D3",
          "midi": 50,
          "time": 77.70322265625005,
          "velocity": 0.5039370078740157,
          "duration": 0.2964843750000057
        },
        {
          "name": "D3",
          "midi": 50,
          "time": 78.30791015625006,
          "velocity": 0.5039370078740157,
          "duration": 0.29853515624999716
        },
        {
          "name": "D3",
          "midi": 50,
          "time": 78.60673828125006,
          "velocity": 0.5039370078740157,
          "duration": 0.29619140625000284
        },
        {
          "name": "G3",
          "midi": 55,
          "time": 80.40000000000006,
          "velocity": 0.5433070866141733,
          "duration": 0.3076171875
        },
        {
          "name": "G3",
          "midi": 55,
          "time": 81.60000000000007,
          "velocity": 0.5433070866141733,
          "duration": 0.3076171875
        },
        {
          "name": "E3",
          "midi": 52,
          "time": 82.50322265625006,
          "velocity": 0.5039370078740157,
          "duration": 0.2964843750000057
        },
        {
          "name": "C3",
          "midi": 48,
          "time": 83.40673828125007,
          "velocity": 0.5039370078740157,
          "duration": 0.29619140625000284
        },
        {
          "name": "F3",
          "midi": 53,
          "time": 84.30791015625007,
          "velocity": 0.5039370078740157,
          "duration": 0.29853515624999716
        },
        {
          "name": "G3",
          "midi": 55,
          "time": 84.90322265625007,
          "velocity": 0.5039370078740157,
          "duration": 0.2964843750000057
        },
        {
          "name": "F#3",
          "midi": 54,
          "time": 85.50791015625008,
          "velocity": 0.5039370078740157,
          "duration": 0.29853515624999716
        },
        {
          "name": "F3",
          "midi": 53,
          "time": 85.80673828125008,
          "velocity": 0.5039370078740157,
          "duration": 0.29619140625000284
        },
        {
          "name": "E3",
          "midi": 52,
          "time": 86.40000000000008,
          "velocity": 0.5433070866141733,
          "duration": 0.20624999999999716
        },
        {
          "name": "C4",
          "midi": 60,
          "time": 86.80634765625007,
          "velocity": 0.5039370078740157,
          "duration": 0.19951171875000284
        },
        {
          "name": "E4",
          "midi": 64,
          "time": 87.20625000000007,
          "velocity": 0.5039370078740157,
          "duration": 0.19365234375000284
        },
        {
          "name": "F4",
          "midi": 65,
          "time": 87.60000000000007,
          "velocity": 0.5433070866141733,
          "duration": 0.3076171875
        },
        {
          "name": "D4",
          "midi": 62,
          "time": 88.20673828125007,
          "velocity": 0.5039370078740157,
          "duration": 0.29619140625000284
        },
        {
          "name": "E4",
          "midi": 64,
          "time": 88.50322265625007,
          "velocity": 0.5039370078740157,
          "duration": 0.2964843750000057
        },
        {
          "name": "C4",
          "midi": 60,
          "time": 89.10791015625009,
          "velocity": 0.5039370078740157,
          "duration": 0.29853515624999716
        },
        {
          "name": "A3",
          "midi": 57,
          "time": 89.70322265625008,
          "velocity": 0.5039370078740157,
          "duration": 0.2964843750000057
        },
        {
          "name": "B3",
          "midi": 59,
          "time": 90.00000000000009,
          "velocity": 0.5433070866141733,
          "duration": 0.3076171875
        },
        {
          "name": "G3",
          "midi": 55,
          "time": 90.30791015625009,
          "velocity": 0.5039370078740157,
          "duration": 0.29853515624999716
        },
        {
          "name": "G3",
          "midi": 55,
          "time": 91.20000000000009,
          "velocity": 0.5433070866141733,
          "duration": 0.3076171875
        },
        {
          "name": "E3",
          "midi": 52,
          "time": 92.10322265625008,
          "velocity": 0.5039370078740157,
          "duration": 0.2964843750000057
        },
        {
          "name": "C3",
          "midi": 48,
          "time": 93.0067382812501,
          "velocity": 0.5039370078740157,
          "duration": 0.29619140625000284
        },
        {
          "name": "F3",
          "midi": 53,
          "time": 93.9079101562501,
          "velocity": 0.5039370078740157,
          "duration": 0.29853515624999716
        },
        {
          "name": "G3",
          "midi": 55,
          "time": 94.50322265625009,
          "velocity": 0.5039370078740157,
          "duration": 0.2964843750000057
        },
        {
          "name": "F#3",
          "midi": 54,
          "time": 95.1079101562501,
          "velocity": 0.5039370078740157,
          "duration": 0.29853515624999716
        },
        {
          "name": "F3",
          "midi": 53,
          "time": 95.4067382812501,
          "velocity": 0.5039370078740157,
          "duration": 0.29619140625000284
        },
        {
          "name": "E3",
          "midi": 52,
          "time": 96.0000000000001,
          "velocity": 0.5433070866141733,
          "duration": 0.20624999999999716
        },
        {
          "name": "C4",
          "midi": 60,
          "time": 96.40634765625009,
          "velocity": 0.5039370078740157,
          "duration": 0.19951171875000284
        },
        {
          "name": "E4",
          "midi": 64,
          "time": 96.80625000000009,
          "velocity": 0.5039370078740157,
          "duration": 0.19365234375000284
        },
        {
          "name": "F4",
          "midi": 65,
          "time": 97.20000000000009,
          "velocity": 0.5433070866141733,
          "duration": 0.3076171875
        },
        {
          "name": "D4",
          "midi": 62,
          "time": 97.80673828125009,
          "velocity": 0.5039370078740157,
          "duration": 0.29619140625000284
        },
        {
          "name": "E4",
          "midi": 64,
          "time": 98.1032226562501,
          "velocity": 0.5039370078740157,
          "duration": 0.2964843750000057
        },
        {
          "name": "C4",
          "midi": 60,
          "time": 98.70791015625011,
          "velocity": 0.5039370078740157,
          "duration": 0.29853515624999716
        },
        {
          "name": "A3",
          "midi": 57,
          "time": 99.3032226562501,
          "velocity": 0.5039370078740157,
          "duration": 0.2964843750000057
        },
        {
          "name": "B3",
          "midi": 59,
          "time": 99.60000000000011,
          "velocity": 0.5433070866141733,
          "duration": 0.3076171875
        },
        {
          "name": "G3",
          "midi": 55,
          "time": 99.90791015625011,
          "velocity": 0.5039370078740157,
          "duration": 0.29853515624999716
        },
        {
          "name": "C3",
          "midi": 48,
          "time": 100.80000000000011,
          "velocity": 0.5433070866141733,
          "duration": 0.3076171875
        },
        {
          "name": "F#3",
          "midi": 54,
          "time": 101.7032226562501,
          "velocity": 0.5039370078740157,
          "duration": 0.2964843750000057
        },
        {
          "name": "G3",
          "midi": 55,
          "time": 102.00000000000011,
          "velocity": 0.5433070866141733,
          "duration": 0.3076171875
        },
        {
          "name": "C4",
          "midi": 60,
          "time": 102.60673828125012,
          "velocity": 0.5039370078740157,
          "duration": 0.29619140625000284
        },
        {
          "name": "F3",
          "midi": 53,
          "time": 103.20000000000012,
          "velocity": 0.5433070866141733,
          "duration": 0.3076171875
        },
        {
          "name": "F3",
          "midi": 53,
          "time": 103.80673828125012,
          "velocity": 0.5039370078740157,
          "duration": 0.29619140625000284
        },
        {
          "name": "C4",
          "midi": 60,
          "time": 104.40000000000012,
          "velocity": 0.5433070866141733,
          "duration": 0.3076171875
        },
        {
          "name": "C4",
          "midi": 60,
          "time": 104.70791015625012,
          "velocity": 0.5039370078740157,
          "duration": 0.29853515624999716
        },
        {
          "name": "F3",
          "midi": 53,
          "time": 105.00673828125012,
          "velocity": 0.5039370078740157,
          "duration": 0.29619140625000284
        },
        {
          "name": "D3",
          "midi": 50,
          "time": 105.60000000000012,
          "velocity": 0.5433070866141733,
          "duration": 0.3076171875
        },
        {
          "name": "F3",
          "midi": 53,
          "time": 106.50322265625012,
          "velocity": 0.5039370078740157,
          "duration": 0.2964843750000057
        },
        {
          "name": "G3",
          "midi": 55,
          "time": 106.80000000000013,
          "velocity": 0.5433070866141733,
          "duration": 0.3076171875
        },
        {
          "name": "B3",
          "midi": 59,
          "time": 107.40673828125013,
          "velocity": 0.5039370078740157,
          "duration": 0.29619140625000284
        },
        {
          "name": "G3",
          "midi": 55,
          "time": 108.00000000000013,
          "velocity": 0.5433070866141733,
          "duration": 0.3076171875
        },
        {
          "name": "G3",
          "midi": 55,
          "time": 108.60673828125013,
          "velocity": 0.5039370078740157,
          "duration": 0.29619140625000284
        },
        {
          "name": "C4",
          "midi": 60,
          "time": 109.20000000000013,
          "velocity": 0.5433070866141733,
          "duration": 0.3076171875
        },
        {
          "name": "C4",
          "midi": 60,
          "time": 109.50791015625013,
          "velocity": 0.5039370078740157,
          "duration": 0.29853515624999716
        },
        {
          "name": "G3",
          "midi": 55,
          "time": 109.80673828125013,
          "velocity": 0.5039370078740157,
          "duration": 0.29619140625000284
        },
        {
          "name": "C3",
          "midi": 48,
          "time": 110.40000000000013,
          "velocity": 0.5433070866141733,
          "duration": 0.3076171875
        },
        {
          "name": "F#3",
          "midi": 54,
          "time": 111.30322265625013,
          "velocity": 0.5039370078740157,
          "duration": 0.2964843750000057
        },
        {
          "name": "G3",
          "midi": 55,
          "time": 111.60000000000014,
          "velocity": 0.5433070866141733,
          "duration": 0.3076171875
        },
        {
          "name": "C4",
          "midi": 60,
          "time": 112.20673828125014,
          "velocity": 0.5039370078740157,
          "duration": 0.29619140625000284
        },
        {
          "name": "F3",
          "midi": 53,
          "time": 112.80000000000014,
          "velocity": 0.5433070866141733,
          "duration": 0.3076171875
        },
        {
          "name": "F3",
          "midi": 53,
          "time": 113.40673828125014,
          "velocity": 0.5039370078740157,
          "duration": 0.29619140625000284
        },
        {
          "name": "C4",
          "midi": 60,
          "time": 114.00000000000014,
          "velocity": 0.5433070866141733,
          "duration": 0.3076171875
        },
        {
          "name": "C4",
          "midi": 60,
          "time": 114.30791015625014,
          "velocity": 0.5039370078740157,
          "duration": 0.29853515624999716
        },
        {
          "name": "F3",
          "midi": 53,
          "time": 114.60673828125014,
          "velocity": 0.5039370078740157,
          "duration": 0.29619140625000284
        },
        {
          "name": "G3",
          "midi": 55,
          "time": 115.20000000000014,
          "velocity": 0.5433070866141733,
          "duration": 0.3076171875
        },
        {
          "name": "G3",
          "midi": 55,
          "time": 116.10322265625014,
          "velocity": 0.5039370078740157,
          "duration": 0.2964843750000057
        },
        {
          "name": "G3",
          "midi": 55,
          "time": 116.40000000000015,
          "velocity": 0.5433070866141733,
          "duration": 0.20624999999999716
        },
        {
          "name": "A3",
          "midi": 57,
          "time": 116.80634765625014,
          "velocity": 0.5039370078740157,
          "duration": 0.19951171875000284
        },
        {
          "name": "B3",
          "midi": 59,
          "time": 117.20625000000014,
          "velocity": 0.5039370078740157,
          "duration": 0.19365234375000284
        },
        {
          "name": "C4",
          "midi": 60,
          "time": 117.60000000000014,
          "velocity": 0.5433070866141733,
          "duration": 0.3076171875
        },
        {
          "name": "G3",
          "midi": 55,
          "time": 118.20673828125014,
          "velocity": 0.5039370078740157,
          "duration": 0.29619140625000284
        },
        {
          "name": "C3",
          "midi": 48,
          "time": 118.80000000000014,
          "velocity": 0.5433070866141733,
          "duration": 0.3076171875
        },
        {
          "name": "C3",
          "midi": 48,
          "time": 120.00000000000014,
          "velocity": 0.5433070866141733,
          "duration": 0.3076171875
        },
        {
          "name": "F#3",
          "midi": 54,
          "time": 120.90322265625014,
          "velocity": 0.5039370078740157,
          "duration": 0.2964843750000057
        },
        {
          "name": "G3",
          "midi": 55,
          "time": 121.20000000000014,
          "velocity": 0.5433070866141733,
          "duration": 0.3076171875
        },
        {
          "name": "C4",
          "midi": 60,
          "time": 121.80673828125015,
          "velocity": 0.5039370078740157,
          "duration": 0.29619140625000284
        },
        {
          "name": "F3",
          "midi": 53,
          "time": 122.40000000000015,
          "velocity": 0.5433070866141733,
          "duration": 0.3076171875
        },
        {
          "name": "F3",
          "midi": 53,
          "time": 123.00673828125015,
          "velocity": 0.5039370078740157,
          "duration": 0.29619140625000284
        },
        {
          "name": "C4",
          "midi": 60,
          "time": 123.60000000000015,
          "velocity": 0.5433070866141733,
          "duration": 0.3076171875
        },
        {
          "name": "C4",
          "midi": 60,
          "time": 123.90791015625015,
          "velocity": 0.5039370078740157,
          "duration": 0.29853515624999716
        },
        {
          "name": "F3",
          "midi": 53,
          "time": 124.20673828125015,
          "velocity": 0.5039370078740157,
          "duration": 0.29619140625000284
        },
        {
          "name": "D3",
          "midi": 50,
          "time": 124.80000000000015,
          "velocity": 0.5433070866141733,
          "duration": 0.3076171875
        },
        {
          "name": "F3",
          "midi": 53,
          "time": 125.70322265625015,
          "velocity": 0.5039370078740157,
          "duration": 0.2964843750000057
        },
        {
          "name": "G3",
          "midi": 55,
          "time": 126.00000000000016,
          "velocity": 0.5433070866141733,
          "duration": 0.3076171875
        },
        {
          "name": "B3",
          "midi": 59,
          "time": 126.60673828125016,
          "velocity": 0.5039370078740157,
          "duration": 0.29619140625000284
        },
        {
          "name": "G3",
          "midi": 55,
          "time": 127.20000000000016,
          "velocity": 0.5433070866141733,
          "duration": 0.3076171875
        },
        {
          "name": "G3",
          "midi": 55,
          "time": 127.80673828125016,
          "velocity": 0.5039370078740157,
          "duration": 0.29619140625000284
        },
        {
          "name": "C4",
          "midi": 60,
          "time": 128.40000000000018,
          "velocity": 0.5433070866141733,
          "duration": 0.3076171875
        },
        {
          "name": "C4",
          "midi": 60,
          "time": 128.70791015625016,
          "velocity": 0.5039370078740157,
          "duration": 0.29853515625001137
        },
        {
          "name": "G3",
          "midi": 55,
          "time": 129.00673828125016,
          "velocity": 0.5039370078740157,
          "duration": 0.29619140624998863
        },
        {
          "name": "C3",
          "midi": 48,
          "time": 129.60000000000016,
          "velocity": 0.5433070866141733,
          "duration": 0.3076171875
        },
        {
          "name": "F#3",
          "midi": 54,
          "time": 130.50322265625016,
          "velocity": 0.5039370078740157,
          "duration": 0.2964843750000057
        },
        {
          "name": "G3",
          "midi": 55,
          "time": 130.80000000000015,
          "velocity": 0.5433070866141733,
          "duration": 0.3076171875
        },
        {
          "name": "C4",
          "midi": 60,
          "time": 131.40673828125014,
          "velocity": 0.5039370078740157,
          "duration": 0.29619140624998863
        },
        {
          "name": "F3",
          "midi": 53,
          "time": 132.00000000000014,
          "velocity": 0.5433070866141733,
          "duration": 0.3076171875
        },
        {
          "name": "F3",
          "midi": 53,
          "time": 132.60673828125013,
          "velocity": 0.5039370078740157,
          "duration": 0.29619140624998863
        },
        {
          "name": "C4",
          "midi": 60,
          "time": 133.20000000000013,
          "velocity": 0.5433070866141733,
          "duration": 0.3076171875
        },
        {
          "name": "C4",
          "midi": 60,
          "time": 133.50791015625012,
          "velocity": 0.5039370078740157,
          "duration": 0.29853515625001137
        },
        {
          "name": "F3",
          "midi": 53,
          "time": 133.80673828125012,
          "velocity": 0.5039370078740157,
          "duration": 0.29619140624998863
        },
        {
          "name": "G3",
          "midi": 55,
          "time": 134.40000000000012,
          "velocity": 0.5433070866141733,
          "duration": 0.3076171875
        },
        {
          "name": "G3",
          "midi": 55,
          "time": 135.3032226562501,
          "velocity": 0.5039370078740157,
          "duration": 0.2964843750000057
        },
        {
          "name": "G3",
          "midi": 55,
          "time": 135.6000000000001,
          "velocity": 0.5433070866141733,
          "duration": 0.20625000000001137
        },
        {
          "name": "A3",
          "midi": 57,
          "time": 136.0063476562501,
          "velocity": 0.5039370078740157,
          "duration": 0.19951171874998863
        },
        {
          "name": "B3",
          "midi": 59,
          "time": 136.4062500000001,
          "velocity": 0.5039370078740157,
          "duration": 0.19365234374998863
        },
        {
          "name": "C4",
          "midi": 60,
          "time": 136.8000000000001,
          "velocity": 0.5433070866141733,
          "duration": 0.3076171875
        },
        {
          "name": "G3",
          "midi": 55,
          "time": 137.40673828125009,
          "velocity": 0.5039370078740157,
          "duration": 0.29619140624998863
        },
        {
          "name": "C3",
          "midi": 48,
          "time": 138.00000000000009,
          "velocity": 0.5433070866141733,
          "duration": 0.3076171875
        },
        {
          "name": "G#2",
          "midi": 44,
          "time": 139.20000000000007,
          "velocity": 0.5433070866141733,
          "duration": 0.3076171875
        },
        {
          "name": "D#3",
          "midi": 51,
          "time": 140.10322265625007,
          "velocity": 0.5039370078740157,
          "duration": 0.2964843750000057
        },
        {
          "name": "G#3",
          "midi": 56,
          "time": 141.00673828125008,
          "velocity": 0.5039370078740157,
          "duration": 0.29619140624998863
        },
        {
          "name": "G3",
          "midi": 55,
          "time": 141.60000000000008,
          "velocity": 0.5433070866141733,
          "duration": 0.3076171875
        },
        {
          "name": "C3",
          "midi": 48,
          "time": 142.50322265625007,
          "velocity": 0.5039370078740157,
          "duration": 0.2964843750000057
        },
        {
          "name": "G2",
          "midi": 43,
          "time": 143.40673828125009,
          "velocity": 0.5039370078740157,
          "duration": 0.29619140624998863
        },
        {
          "name": "G#2",
          "midi": 44,
          "time": 144.00000000000009,
          "velocity": 0.5433070866141733,
          "duration": 0.3076171875
        },
        {
          "name": "D#3",
          "midi": 51,
          "time": 144.90322265625008,
          "velocity": 0.5039370078740157,
          "duration": 0.2964843750000057
        },
        {
          "name": "G#3",
          "midi": 56,
          "time": 145.8067382812501,
          "velocity": 0.5039370078740157,
          "duration": 0.29619140624998863
        },
        {
          "name": "G3",
          "midi": 55,
          "time": 146.4000000000001,
          "velocity": 0.5433070866141733,
          "duration": 0.3076171875
        },
        {
          "name": "C3",
          "midi": 48,
          "time": 147.30322265625009,
          "velocity": 0.5039370078740157,
          "duration": 0.2964843750000057
        },
        {
          "name": "G2",
          "midi": 43,
          "time": 148.2067382812501,
          "velocity": 0.5039370078740157,
          "duration": 0.29619140624998863
        },
        {
          "name": "G#2",
          "midi": 44,
          "time": 148.8000000000001,
          "velocity": 0.5433070866141733,
          "duration": 0.3076171875
        },
        {
          "name": "D#3",
          "midi": 51,
          "time": 149.7032226562501,
          "velocity": 0.5039370078740157,
          "duration": 0.2964843750000057
        },
        {
          "name": "G#3",
          "midi": 56,
          "time": 150.6067382812501,
          "velocity": 0.5039370078740157,
          "duration": 0.29619140624998863
        },
        {
          "name": "G3",
          "midi": 55,
          "time": 151.2000000000001,
          "velocity": 0.5433070866141733,
          "duration": 0.3076171875
        },
        {
          "name": "C3",
          "midi": 48,
          "time": 152.1032226562501,
          "velocity": 0.5039370078740157,
          "duration": 0.2964843750000057
        },
        {
          "name": "G2",
          "midi": 43,
          "time": 153.0067382812501,
          "velocity": 0.5039370078740157,
          "duration": 0.29619140624998863
        },
        {
          "name": "D3",
          "midi": 50,
          "time": 153.6000000000001,
          "velocity": 0.5433070866141733,
          "duration": 0.3076171875
        },
        {
          "name": "D3",
          "midi": 50,
          "time": 153.9079101562501,
          "velocity": 0.5039370078740157,
          "duration": 0.29853515625001137
        },
        {
          "name": "D3",
          "midi": 50,
          "time": 154.5032226562501,
          "velocity": 0.5039370078740157,
          "duration": 0.2964843750000057
        },
        {
          "name": "D3",
          "midi": 50,
          "time": 155.1079101562501,
          "velocity": 0.5039370078740157,
          "duration": 0.29853515625001137
        },
        {
          "name": "D3",
          "midi": 50,
          "time": 155.4067382812501,
          "velocity": 0.5039370078740157,
          "duration": 0.29619140624998863
        },
        {
          "name": "G3",
          "midi": 55,
          "time": 157.2000000000001,
          "velocity": 0.5433070866141733,
          "duration": 0.3076171875
        },
        {
          "name": "C3",
          "midi": 48,
          "time": 158.4000000000001,
          "velocity": 0.5433070866141733,
          "duration": 0.3076171875
        },
        {
          "name": "F#3",
          "midi": 54,
          "time": 159.30322265625009,
          "velocity": 0.5039370078740157,
          "duration": 0.2964843750000057
        },
        {
          "name": "G3",
          "midi": 55,
          "time": 159.60000000000008,
          "velocity": 0.5433070866141733,
          "duration": 0.3076171875
        },
        {
          "name": "C4",
          "midi": 60,
          "time": 160.20673828125007,
          "velocity": 0.5039370078740157,
          "duration": 0.29619140624998863
        },
        {
          "name": "F3",
          "midi": 53,
          "time": 160.80000000000007,
          "velocity": 0.5433070866141733,
          "duration": 0.3076171875
        },
        {
          "name": "F3",
          "midi": 53,
          "time": 161.40673828125006,
          "velocity": 0.5039370078740157,
          "duration": 0.29619140624998863
        },
        {
          "name": "C4",
          "midi": 60,
          "time": 162.00000000000006,
          "velocity": 0.5433070866141733,
          "duration": 0.3076171875
        },
        {
          "name": "C4",
          "midi": 60,
          "time": 162.30791015625005,
          "velocity": 0.5039370078740157,
          "duration": 0.29853515625001137
        },
        {
          "name": "F3",
          "midi": 53,
          "time": 162.60673828125005,
          "velocity": 0.5039370078740157,
          "duration": 0.29619140624998863
        },
        {
          "name": "D3",
          "midi": 50,
          "time": 163.20000000000005,
          "velocity": 0.5433070866141733,
          "duration": 0.3076171875
        },
        {
          "name": "F3",
          "midi": 53,
          "time": 164.10322265625004,
          "velocity": 0.5039370078740157,
          "duration": 0.2964843750000057
        },
        {
          "name": "G3",
          "midi": 55,
          "time": 164.40000000000003,
          "velocity": 0.5433070866141733,
          "duration": 0.3076171875
        },
        {
          "name": "B3",
          "midi": 59,
          "time": 165.00673828125002,
          "velocity": 0.5039370078740157,
          "duration": 0.29619140624998863
        },
        {
          "name": "G3",
          "midi": 55,
          "time": 165.60000000000002,
          "velocity": 0.5433070866141733,
          "duration": 0.3076171875
        },
        {
          "name": "G3",
          "midi": 55,
          "time": 166.20673828125,
          "velocity": 0.5039370078740157,
          "duration": 0.29619140624998863
        },
        {
          "name": "C4",
          "midi": 60,
          "time": 166.8,
          "velocity": 0.5433070866141733,
          "duration": 0.3076171875
        },
        {
          "name": "C4",
          "midi": 60,
          "time": 167.10791015625,
          "velocity": 0.5039370078740157,
          "duration": 0.29853515625001137
        },
        {
          "name": "G3",
          "midi": 55,
          "time": 167.40673828125,
          "velocity": 0.5039370078740157,
          "duration": 0.29619140624998863
        },
        {
          "name": "C3",
          "midi": 48,
          "time": 168,
          "velocity": 0.5433070866141733,
          "duration": 0.3076171875
        },
        {
          "name": "F#3",
          "midi": 54,
          "time": 168.90322265625,
          "velocity": 0.5039370078740157,
          "duration": 0.2964843750000057
        },
        {
          "name": "G3",
          "midi": 55,
          "time": 169.2,
          "velocity": 0.5433070866141733,
          "duration": 0.3076171875
        },
        {
          "name": "C4",
          "midi": 60,
          "time": 169.80673828124998,
          "velocity": 0.5039370078740157,
          "duration": 0.29619140624998863
        },
        {
          "name": "F3",
          "midi": 53,
          "time": 170.39999999999998,
          "velocity": 0.5433070866141733,
          "duration": 0.3076171875
        },
        {
          "name": "F3",
          "midi": 53,
          "time": 171.00673828124997,
          "velocity": 0.5039370078740157,
          "duration": 0.29619140624998863
        },
        {
          "name": "C4",
          "midi": 60,
          "time": 171.59999999999997,
          "velocity": 0.5433070866141733,
          "duration": 0.3076171875
        },
        {
          "name": "C4",
          "midi": 60,
          "time": 171.90791015624995,
          "velocity": 0.5039370078740157,
          "duration": 0.29853515625001137
        },
        {
          "name": "F3",
          "midi": 53,
          "time": 172.20673828124995,
          "velocity": 0.5039370078740157,
          "duration": 0.29619140624998863
        },
        {
          "name": "G3",
          "midi": 55,
          "time": 172.79999999999995,
          "velocity": 0.5433070866141733,
          "duration": 0.3076171875
        },
        {
          "name": "G3",
          "midi": 55,
          "time": 173.70322265624995,
          "velocity": 0.5039370078740157,
          "duration": 0.2964843750000057
        },
        {
          "name": "G3",
          "midi": 55,
          "time": 173.99999999999994,
          "velocity": 0.5433070866141733,
          "duration": 0.20625000000001137
        },
        {
          "name": "A3",
          "midi": 57,
          "time": 174.40634765624995,
          "velocity": 0.5039370078740157,
          "duration": 0.19951171874998863
        },
        {
          "name": "B3",
          "midi": 59,
          "time": 174.80624999999995,
          "velocity": 0.5039370078740157,
          "duration": 0.19365234374998863
        },
        {
          "name": "C4",
          "midi": 60,
          "time": 175.19999999999993,
          "velocity": 0.5433070866141733,
          "duration": 0.3076171875
        },
        {
          "name": "G3",
          "midi": 55,
          "time": 175.80673828124992,
          "velocity": 0.5039370078740157,
          "duration": 0.29619140624998863
        },
        {
          "name": "C3",
          "midi": 48,
          "time": 176.39999999999992,
          "velocity": 0.5433070866141733,
          "duration": 0.3076171875
        },
        {
          "name": "G3",
          "midi": 55,
          "time": 177.5999999999999,
          "velocity": 0.5433070866141733,
          "duration": 0.3076171875
        },
        {
          "name": "E3",
          "midi": 52,
          "time": 178.5032226562499,
          "velocity": 0.5039370078740157,
          "duration": 0.2964843750000057
        },
        {
          "name": "C3",
          "midi": 48,
          "time": 179.40673828124991,
          "velocity": 0.5039370078740157,
          "duration": 0.29619140624998863
        },
        {
          "name": "F3",
          "midi": 53,
          "time": 180.3079101562499,
          "velocity": 0.5039370078740157,
          "duration": 0.29853515625001137
        },
        {
          "name": "G3",
          "midi": 55,
          "time": 180.9032226562499,
          "velocity": 0.5039370078740157,
          "duration": 0.2964843750000057
        },
        {
          "name": "F#3",
          "midi": 54,
          "time": 181.50791015624992,
          "velocity": 0.5039370078740157,
          "duration": 0.29853515625001137
        },
        {
          "name": "F3",
          "midi": 53,
          "time": 181.80673828124992,
          "velocity": 0.5039370078740157,
          "duration": 0.29619140624998863
        },
        {
          "name": "E3",
          "midi": 52,
          "time": 182.39999999999992,
          "velocity": 0.5433070866141733,
          "duration": 0.20625000000001137
        },
        {
          "name": "C4",
          "midi": 60,
          "time": 182.80634765624993,
          "velocity": 0.5039370078740157,
          "duration": 0.19951171874998863
        },
        {
          "name": "E4",
          "midi": 64,
          "time": 183.20624999999993,
          "velocity": 0.5039370078740157,
          "duration": 0.19365234374998863
        },
        {
          "name": "F4",
          "midi": 65,
          "time": 183.5999999999999,
          "velocity": 0.5433070866141733,
          "duration": 0.3076171875
        },
        {
          "name": "D4",
          "midi": 62,
          "time": 184.2067382812499,
          "velocity": 0.5039370078740157,
          "duration": 0.29619140624998863
        },
        {
          "name": "E4",
          "midi": 64,
          "time": 184.50322265624987,
          "velocity": 0.5039370078740157,
          "duration": 0.2964843750000057
        },
        {
          "name": "C4",
          "midi": 60,
          "time": 185.1079101562499,
          "velocity": 0.5039370078740157,
          "duration": 0.29853515625001137
        },
        {
          "name": "A3",
          "midi": 57,
          "time": 185.7032226562499,
          "velocity": 0.5039370078740157,
          "duration": 0.2964843750000057
        },
        {
          "name": "B3",
          "midi": 59,
          "time": 185.9999999999999,
          "velocity": 0.5433070866141733,
          "duration": 0.3076171875
        },
        {
          "name": "G3",
          "midi": 55,
          "time": 186.30791015624987,
          "velocity": 0.5039370078740157,
          "duration": 0.29853515625001137
        },
        {
          "name": "G3",
          "midi": 55,
          "time": 187.19999999999987,
          "velocity": 0.5433070866141733,
          "duration": 0.3076171875
        },
        {
          "name": "E3",
          "midi": 52,
          "time": 188.10322265624987,
          "velocity": 0.5039370078740157,
          "duration": 0.2964843750000057
        },
        {
          "name": "C3",
          "midi": 48,
          "time": 189.00673828124988,
          "velocity": 0.5039370078740157,
          "duration": 0.29619140624998863
        },
        {
          "name": "F3",
          "midi": 53,
          "time": 189.90791015624987,
          "velocity": 0.5039370078740157,
          "duration": 0.29853515625001137
        },
        {
          "name": "G3",
          "midi": 55,
          "time": 190.50322265624987,
          "velocity": 0.5039370078740157,
          "duration": 0.2964843750000057
        },
        {
          "name": "F#3",
          "midi": 54,
          "time": 191.1079101562499,
          "velocity": 0.5039370078740157,
          "duration": 0.29853515625001137
        },
        {
          "name": "F3",
          "midi": 53,
          "time": 191.4067382812499,
          "velocity": 0.5039370078740157,
          "duration": 0.29619140624998863
        },
        {
          "name": "E3",
          "midi": 52,
          "time": 191.9999999999999,
          "velocity": 0.5433070866141733,
          "duration": 0.20625000000001137
        },
        {
          "name": "C4",
          "midi": 60,
          "time": 192.4063476562499,
          "velocity": 0.5039370078740157,
          "duration": 0.19951171874998863
        },
        {
          "name": "E4",
          "midi": 64,
          "time": 192.8062499999999,
          "velocity": 0.5039370078740157,
          "duration": 0.19365234374998863
        },
        {
          "name": "F4",
          "midi": 65,
          "time": 193.19999999999987,
          "velocity": 0.5433070866141733,
          "duration": 0.3076171875
        },
        {
          "name": "D4",
          "midi": 62,
          "time": 193.80673828124986,
          "velocity": 0.5039370078740157,
          "duration": 0.29619140624998863
        },
        {
          "name": "E4",
          "midi": 64,
          "time": 194.10322265624984,
          "velocity": 0.5039370078740157,
          "duration": 0.2964843750000057
        },
        {
          "name": "C4",
          "midi": 60,
          "time": 194.70791015624985,
          "velocity": 0.5039370078740157,
          "duration": 0.29853515625001137
        },
        {
          "name": "A3",
          "midi": 57,
          "time": 195.30322265624986,
          "velocity": 0.5039370078740157,
          "duration": 0.2964843750000057
        },
        {
          "name": "B3",
          "midi": 59,
          "time": 195.59999999999985,
          "velocity": 0.5433070866141733,
          "duration": 0.3076171875
        },
        {
          "name": "G3",
          "midi": 55,
          "time": 195.90791015624984,
          "velocity": 0.5039370078740157,
          "duration": 0.29853515625001137
        },
        {
          "name": "C3",
          "midi": 48,
          "time": 196.79999999999984,
          "velocity": 0.5433070866141733,
          "duration": 0.3076171875
        },
        {
          "name": "G3",
          "midi": 55,
          "time": 197.70322265624984,
          "velocity": 0.5039370078740157,
          "duration": 0.2964843750000057
        },
        {
          "name": "C4",
          "midi": 60,
          "time": 198.60673828124985,
          "velocity": 0.5039370078740157,
          "duration": 0.29619140624998863
        },
        {
          "name": "F3",
          "midi": 53,
          "time": 199.19999999999985,
          "velocity": 0.5433070866141733,
          "duration": 0.3076171875
        },
        {
          "name": "C4",
          "midi": 60,
          "time": 200.10322265624984,
          "velocity": 0.5039370078740157,
          "duration": 0.2964843750000057
        },
        {
          "name": "C4",
          "midi": 60,
          "time": 200.39999999999984,
          "velocity": 0.5433070866141733,
          "duration": 0.3076171875
        },
        {
          "name": "F3",
          "midi": 53,
          "time": 201.00673828124982,
          "velocity": 0.5039370078740157,
          "duration": 0.29619140624998863
        },
        {
          "name": "C3",
          "midi": 48,
          "time": 201.59999999999982,
          "velocity": 0.5433070866141733,
          "duration": 0.3076171875
        },
        {
          "name": "E3",
          "midi": 52,
          "time": 202.50322265624982,
          "velocity": 0.5039370078740157,
          "duration": 0.2964843750000057
        },
        {
          "name": "G3",
          "midi": 55,
          "time": 203.40673828124983,
          "velocity": 0.5039370078740157,
          "duration": 0.29619140624998863
        },
        {
          "name": "C4",
          "midi": 60,
          "time": 203.7032226562498,
          "velocity": 0.5039370078740157,
          "duration": 0.2964843750000057
        },
        {
          "name": "G3",
          "midi": 55,
          "time": 205.8067382812498,
          "velocity": 0.5039370078740157,
          "duration": 0.29619140624998863
        },
        {
          "name": "C3",
          "midi": 48,
          "time": 206.3999999999998,
          "velocity": 0.5433070866141733,
          "duration": 0.3076171875
        },
        {
          "name": "G3",
          "midi": 55,
          "time": 207.3032226562498,
          "velocity": 0.5039370078740157,
          "duration": 0.2964843750000057
        },
        {
          "name": "C4",
          "midi": 60,
          "time": 208.2067382812498,
          "velocity": 0.5039370078740157,
          "duration": 0.29619140624998863
        },
        {
          "name": "F3",
          "midi": 53,
          "time": 208.7999999999998,
          "velocity": 0.5433070866141733,
          "duration": 0.3076171875
        },
        {
          "name": "C4",
          "midi": 60,
          "time": 209.7032226562498,
          "velocity": 0.5039370078740157,
          "duration": 0.2964843750000057
        },
        {
          "name": "C4",
          "midi": 60,
          "time": 209.9999999999998,
          "velocity": 0.5433070866141733,
          "duration": 0.3076171875
        },
        {
          "name": "F3",
          "midi": 53,
          "time": 210.6067382812498,
          "velocity": 0.5039370078740157,
          "duration": 0.29619140624998863
        },
        {
          "name": "C3",
          "midi": 48,
          "time": 211.1999999999998,
          "velocity": 0.5433070866141733,
          "duration": 0.3076171875
        },
        {
          "name": "G#3",
          "midi": 56,
          "time": 211.80673828124978,
          "velocity": 0.5039370078740157,
          "duration": 0.29619140624998863
        },
        {
          "name": "A#3",
          "midi": 58,
          "time": 212.70791015624977,
          "velocity": 0.5039370078740157,
          "duration": 0.29853515625001137
        },
        {
          "name": "C4",
          "midi": 60,
          "time": 213.59999999999977,
          "velocity": 0.5433070866141733,
          "duration": 0.3076171875
        },
        {
          "name": "G3",
          "midi": 55,
          "time": 214.50322265624976,
          "velocity": 0.5039370078740157,
          "duration": 0.2964843750000057
        },
        {
          "name": "G3",
          "midi": 55,
          "time": 214.79999999999976,
          "velocity": 0.5433070866141733,
          "duration": 0.3076171875
        },
        {
          "name": "C3",
          "midi": 48,
          "time": 215.40673828124974,
          "velocity": 0.5039370078740157,
          "duration": 0.29619140624998863
        },
        {
          "name": "C3",
          "midi": 48,
          "time": 215.99999999999974,
          "velocity": 0.5433070866141733,
          "duration": 0.3076171875
        },
        {
          "name": "G3",
          "midi": 55,
          "time": 216.90322265624974,
          "velocity": 0.5039370078740157,
          "duration": 0.2964843750000057
        },
        {
          "name": "C4",
          "midi": 60,
          "time": 217.80673828124975,
          "velocity": 0.5039370078740157,
          "duration": 0.29619140624998863
        },
        {
          "name": "F3",
          "midi": 53,
          "time": 218.39999999999975,
          "velocity": 0.5433070866141733,
          "duration": 0.3076171875
        },
        {
          "name": "C4",
          "midi": 60,
          "time": 219.30322265624974,
          "velocity": 0.5039370078740157,
          "duration": 0.2964843750000057
        },
        {
          "name": "C4",
          "midi": 60,
          "time": 219.59999999999974,
          "velocity": 0.5433070866141733,
          "duration": 0.3076171875
        },
        {
          "name": "F3",
          "midi": 53,
          "time": 220.20673828124973,
          "velocity": 0.5039370078740157,
          "duration": 0.29619140624998863
        },
        {
          "name": "C3",
          "midi": 48,
          "time": 220.79999999999973,
          "velocity": 0.5433070866141733,
          "duration": 0.3076171875
        },
        {
          "name": "E3",
          "midi": 52,
          "time": 221.70322265624972,
          "velocity": 0.5039370078740157,
          "duration": 0.2964843750000057
        },
        {
          "name": "G3",
          "midi": 55,
          "time": 222.60673828124973,
          "velocity": 0.5039370078740157,
          "duration": 0.29619140624998863
        },
        {
          "name": "C4",
          "midi": 60,
          "time": 222.9032226562497,
          "velocity": 0.5039370078740157,
          "duration": 0.2964843750000057
        },
        {
          "name": "G3",
          "midi": 55,
          "time": 225.0067382812497,
          "velocity": 0.5039370078740157,
          "duration": 0.29619140624998863
        },
        {
          "name": "C3",
          "midi": 48,
          "time": 225.5999999999997,
          "velocity": 0.5433070866141733,
          "duration": 0.3076171875
        },
        {
          "name": "G3",
          "midi": 55,
          "time": 226.5032226562497,
          "velocity": 0.5039370078740157,
          "duration": 0.2964843750000057
        },
        {
          "name": "C4",
          "midi": 60,
          "time": 227.40673828124972,
          "velocity": 0.5039370078740157,
          "duration": 0.29619140624998863
        },
        {
          "name": "F3",
          "midi": 53,
          "time": 227.99999999999972,
          "velocity": 0.5433070866141733,
          "duration": 0.3076171875
        },
        {
          "name": "C4",
          "midi": 60,
          "time": 228.9032226562497,
          "velocity": 0.5039370078740157,
          "duration": 0.2964843750000057
        },
        {
          "name": "C4",
          "midi": 60,
          "time": 229.1999999999997,
          "velocity": 0.5433070866141733,
          "duration": 0.3076171875
        },
        {
          "name": "F3",
          "midi": 53,
          "time": 229.8067382812497,
          "velocity": 0.5039370078740157,
          "duration": 0.29619140624998863
        },
        {
          "name": "C3",
          "midi": 48,
          "time": 230.3999999999997,
          "velocity": 0.5433070866141733,
          "duration": 0.3076171875
        },
        {
          "name": "G#3",
          "midi": 56,
          "time": 231.00673828124968,
          "velocity": 0.5039370078740157,
          "duration": 0.29619140624998863
        },
        {
          "name": "A#3",
          "midi": 58,
          "time": 231.90791015624967,
          "velocity": 0.5039370078740157,
          "duration": 0.29853515625001137
        },
        {
          "name": "C4",
          "midi": 60,
          "time": 232.79999999999967,
          "velocity": 0.5433070866141733,
          "duration": 0.3076171875
        },
        {
          "name": "G3",
          "midi": 55,
          "time": 233.70322265624966,
          "velocity": 0.5039370078740157,
          "duration": 0.2964843750000057
        },
        {
          "name": "G3",
          "midi": 55,
          "time": 233.99999999999966,
          "velocity": 0.5433070866141733,
          "duration": 0.3076171875
        },
        {
          "name": "C3",
          "midi": 48,
          "time": 234.60673828124965,
          "velocity": 0.5039370078740157,
          "duration": 0.29619140624998863
        },
        {
          "name": "G#2",
          "midi": 44,
          "time": 235.19999999999965,
          "velocity": 0.5433070866141733,
          "duration": 0.3076171875
        },
        {
          "name": "D#3",
          "midi": 51,
          "time": 236.10322265624964,
          "velocity": 0.5039370078740157,
          "duration": 0.2964843750000057
        },
        {
          "name": "G#3",
          "midi": 56,
          "time": 237.00673828124965,
          "velocity": 0.5039370078740157,
          "duration": 0.29619140624998863
        },
        {
          "name": "G3",
          "midi": 55,
          "time": 237.59999999999965,
          "velocity": 0.5433070866141733,
          "duration": 0.3076171875
        },
        {
          "name": "C3",
          "midi": 48,
          "time": 238.50322265624965,
          "velocity": 0.5039370078740157,
          "duration": 0.2964843750000057
        },
        {
          "name": "G2",
          "midi": 43,
          "time": 239.40673828124966,
          "velocity": 0.5039370078740157,
          "duration": 0.29619140624998863
        },
        {
          "name": "G#2",
          "midi": 44,
          "time": 239.99999999999966,
          "velocity": 0.5433070866141733,
          "duration": 0.3076171875
        },
        {
          "name": "D#3",
          "midi": 51,
          "time": 240.90322265624965,
          "velocity": 0.5039370078740157,
          "duration": 0.2964843750000057
        },
        {
          "name": "G#3",
          "midi": 56,
          "time": 241.80673828124966,
          "velocity": 0.5039370078740157,
          "duration": 0.29619140624998863
        },
        {
          "name": "G3",
          "midi": 55,
          "time": 242.39999999999966,
          "velocity": 0.5433070866141733,
          "duration": 0.3076171875
        },
        {
          "name": "C3",
          "midi": 48,
          "time": 243.30322265624966,
          "velocity": 0.5039370078740157,
          "duration": 0.2964843750000057
        },
        {
          "name": "G2",
          "midi": 43,
          "time": 244.20673828124967,
          "velocity": 0.5039370078740157,
          "duration": 0.29619140624998863
        },
        {
          "name": "G#2",
          "midi": 44,
          "time": 244.79999999999967,
          "velocity": 0.5433070866141733,
          "duration": 0.3076171875
        },
        {
          "name": "D#3",
          "midi": 51,
          "time": 245.70322265624966,
          "velocity": 0.5039370078740157,
          "duration": 0.2964843750000057
        },
        {
          "name": "G#3",
          "midi": 56,
          "time": 246.60673828124968,
          "velocity": 0.5039370078740157,
          "duration": 0.29619140624998863
        },
        {
          "name": "G3",
          "midi": 55,
          "time": 247.19999999999968,
          "velocity": 0.5433070866141733,
          "duration": 0.3076171875
        },
        {
          "name": "C3",
          "midi": 48,
          "time": 248.10322265624967,
          "velocity": 0.5039370078740157,
          "duration": 0.2964843750000057
        },
        {
          "name": "G2",
          "midi": 43,
          "time": 249.00673828124968,
          "velocity": 0.5039370078740157,
          "duration": 0.29619140624998863
        },
        {
          "name": "D3",
          "midi": 50,
          "time": 249.59999999999968,
          "velocity": 0.5433070866141733,
          "duration": 0.3076171875
        },
        {
          "name": "D3",
          "midi": 50,
          "time": 249.90791015624967,
          "velocity": 0.5039370078740157,
          "duration": 0.29853515625001137
        },
        {
          "name": "D3",
          "midi": 50,
          "time": 250.50322265624968,
          "velocity": 0.5039370078740157,
          "duration": 0.2964843750000057
        },
        {
          "name": "D3",
          "midi": 50,
          "time": 251.1079101562497,
          "velocity": 0.5039370078740157,
          "duration": 0.29853515625001137
        },
        {
          "name": "D3",
          "midi": 50,
          "time": 251.4067382812497,
          "velocity": 0.5039370078740157,
          "duration": 0.29619140624998863
        },
        {
          "name": "G3",
          "midi": 55,
          "time": 253.19999999999968,
          "velocity": 0.5433070866141733,
          "duration": 0.3076171875
        },
        {
          "name": "G3",
          "midi": 55,
          "time": 254.39999999999966,
          "velocity": 0.5433070866141733,
          "duration": 0.3076171875
        },
        {
          "name": "E3",
          "midi": 52,
          "time": 255.30322265624966,
          "velocity": 0.5039370078740157,
          "duration": 0.2964843750000057
        },
        {
          "name": "C3",
          "midi": 48,
          "time": 256.20673828124967,
          "velocity": 0.5039370078740157,
          "duration": 0.29619140624998863
        },
        {
          "name": "F3",
          "midi": 53,
          "time": 257.10791015624966,
          "velocity": 0.5039370078740157,
          "duration": 0.29853515625001137
        },
        {
          "name": "G3",
          "midi": 55,
          "time": 257.7032226562497,
          "velocity": 0.5039370078740157,
          "duration": 0.29648437499997726
        },
        {
          "name": "F#3",
          "midi": 54,
          "time": 258.30791015624965,
          "velocity": 0.5039370078740157,
          "duration": 0.29853515625001137
        },
        {
          "name": "F3",
          "midi": 53,
          "time": 258.60673828124965,
          "velocity": 0.5039370078740157,
          "duration": 0.29619140624998863
        },
        {
          "name": "E3",
          "midi": 52,
          "time": 259.19999999999965,
          "velocity": 0.5433070866141733,
          "duration": 0.20625000000001137
        },
        {
          "name": "C4",
          "midi": 60,
          "time": 259.6063476562497,
          "velocity": 0.5039370078740157,
          "duration": 0.19951171874998863
        },
        {
          "name": "E4",
          "midi": 64,
          "time": 260.0062499999997,
          "velocity": 0.5039370078740157,
          "duration": 0.19365234374998863
        },
        {
          "name": "F4",
          "midi": 65,
          "time": 260.3999999999997,
          "velocity": 0.5433070866141733,
          "duration": 0.3076171875
        },
        {
          "name": "D4",
          "midi": 62,
          "time": 261.0067382812497,
          "velocity": 0.5039370078740157,
          "duration": 0.29619140624998863
        },
        {
          "name": "E4",
          "midi": 64,
          "time": 261.30322265624966,
          "velocity": 0.5039370078740157,
          "duration": 0.29648437499997726
        },
        {
          "name": "C4",
          "midi": 60,
          "time": 261.9079101562496,
          "velocity": 0.5039370078740157,
          "duration": 0.29853515625001137
        },
        {
          "name": "A3",
          "midi": 57,
          "time": 262.50322265624965,
          "velocity": 0.5039370078740157,
          "duration": 0.29648437499997726
        },
        {
          "name": "B3",
          "midi": 59,
          "time": 262.7999999999996,
          "velocity": 0.5433070866141733,
          "duration": 0.3076171875
        },
        {
          "name": "G3",
          "midi": 55,
          "time": 263.1079101562496,
          "velocity": 0.5039370078740157,
          "duration": 0.29853515625001137
        },
        {
          "name": "G3",
          "midi": 55,
          "time": 263.9999999999996,
          "velocity": 0.5433070866141733,
          "duration": 0.3076171875
        },
        {
          "name": "E3",
          "midi": 52,
          "time": 264.9032226562496,
          "velocity": 0.5039370078740157,
          "duration": 0.29648437499997726
        },
        {
          "name": "C3",
          "midi": 48,
          "time": 265.8067382812496,
          "velocity": 0.5039370078740157,
          "duration": 0.29619140624998863
        },
        {
          "name": "F3",
          "midi": 53,
          "time": 266.70791015624957,
          "velocity": 0.5039370078740157,
          "duration": 0.29853515625001137
        },
        {
          "name": "G3",
          "midi": 55,
          "time": 267.3032226562496,
          "velocity": 0.5039370078740157,
          "duration": 0.29648437499997726
        },
        {
          "name": "F#3",
          "midi": 54,
          "time": 267.90791015624956,
          "velocity": 0.5039370078740157,
          "duration": 0.29853515625001137
        },
        {
          "name": "F3",
          "midi": 53,
          "time": 268.20673828124956,
          "velocity": 0.5039370078740157,
          "duration": 0.29619140624998863
        },
        {
          "name": "E3",
          "midi": 52,
          "time": 268.79999999999956,
          "velocity": 0.5433070866141733,
          "duration": 0.20625000000001137
        },
        {
          "name": "C4",
          "midi": 60,
          "time": 269.2063476562496,
          "velocity": 0.5039370078740157,
          "duration": 0.19951171874998863
        },
        {
          "name": "E4",
          "midi": 64,
          "time": 269.6062499999996,
          "velocity": 0.5039370078740157,
          "duration": 0.19365234374998863
        },
        {
          "name": "F4",
          "midi": 65,
          "time": 269.9999999999996,
          "velocity": 0.5433070866141733,
          "duration": 0.3076171875
        },
        {
          "name": "D4",
          "midi": 62,
          "time": 270.6067382812496,
          "velocity": 0.5039370078740157,
          "duration": 0.29619140624998863
        },
        {
          "name": "E4",
          "midi": 64,
          "time": 270.90322265624957,
          "velocity": 0.5039370078740157,
          "duration": 0.29648437499997726
        },
        {
          "name": "C4",
          "midi": 60,
          "time": 271.5079101562495,
          "velocity": 0.5039370078740157,
          "duration": 0.29853515625001137
        },
        {
          "name": "A3",
          "midi": 57,
          "time": 272.10322265624956,
          "velocity": 0.5039370078740157,
          "duration": 0.29648437499997726
        },
        {
          "name": "B3",
          "midi": 59,
          "time": 272.3999999999995,
          "velocity": 0.5433070866141733,
          "duration": 0.3076171875
        },
        {
          "name": "G3",
          "midi": 55,
          "time": 272.7079101562495,
          "velocity": 0.5039370078740157,
          "duration": 0.29853515625001137
        },
        {
          "name": "C3",
          "midi": 48,
          "time": 273.5999999999995,
          "velocity": 0.5433070866141733,
          "duration": 0.3076171875
        },
        {
          "name": "F#3",
          "midi": 54,
          "time": 274.50322265624953,
          "velocity": 0.5039370078740157,
          "duration": 0.29648437499997726
        },
        {
          "name": "G3",
          "midi": 55,
          "time": 274.7999999999995,
          "velocity": 0.5433070866141733,
          "duration": 0.3076171875
        },
        {
          "name": "C4",
          "midi": 60,
          "time": 275.4067382812495,
          "velocity": 0.5039370078740157,
          "duration": 0.29619140624998863
        },
        {
          "name": "F3",
          "midi": 53,
          "time": 275.9999999999995,
          "velocity": 0.5433070866141733,
          "duration": 0.3076171875
        },
        {
          "name": "F3",
          "midi": 53,
          "time": 276.6067382812495,
          "velocity": 0.5039370078740157,
          "duration": 0.29619140624998863
        },
        {
          "name": "C4",
          "midi": 60,
          "time": 277.1999999999995,
          "velocity": 0.5433070866141733,
          "duration": 0.3076171875
        },
        {
          "name": "C4",
          "midi": 60,
          "time": 277.50791015624947,
          "velocity": 0.5039370078740157,
          "duration": 0.29853515625001137
        },
        {
          "name": "F3",
          "midi": 53,
          "time": 277.80673828124947,
          "velocity": 0.5039370078740157,
          "duration": 0.29619140624998863
        },
        {
          "name": "D3",
          "midi": 50,
          "time": 278.39999999999947,
          "velocity": 0.5433070866141733,
          "duration": 0.3076171875
        },
        {
          "name": "F3",
          "midi": 53,
          "time": 279.3032226562495,
          "velocity": 0.5039370078740157,
          "duration": 0.29648437499997726
        },
        {
          "name": "G3",
          "midi": 55,
          "time": 279.59999999999945,
          "velocity": 0.5433070866141733,
          "duration": 0.3076171875
        },
        {
          "name": "B3",
          "midi": 59,
          "time": 280.20673828124944,
          "velocity": 0.5039370078740157,
          "duration": 0.29619140624998863
        },
        {
          "name": "G3",
          "midi": 55,
          "time": 280.79999999999944,
          "velocity": 0.5433070866141733,
          "duration": 0.3076171875
        },
        {
          "name": "G3",
          "midi": 55,
          "time": 281.40673828124943,
          "velocity": 0.5039370078740157,
          "duration": 0.29619140624998863
        },
        {
          "name": "C4",
          "midi": 60,
          "time": 281.99999999999943,
          "velocity": 0.5433070866141733,
          "duration": 0.3076171875
        },
        {
          "name": "C4",
          "midi": 60,
          "time": 282.3079101562494,
          "velocity": 0.5039370078740157,
          "duration": 0.29853515625001137
        },
        {
          "name": "G3",
          "midi": 55,
          "time": 282.6067382812494,
          "velocity": 0.5039370078740157,
          "duration": 0.29619140624998863
        },
        {
          "name": "C3",
          "midi": 48,
          "time": 283.1999999999994,
          "velocity": 0.5433070866141733,
          "duration": 0.3076171875
        },
        {
          "name": "F#3",
          "midi": 54,
          "time": 284.10322265624944,
          "velocity": 0.5039370078740157,
          "duration": 0.29648437499997726
        },
        {
          "name": "G3",
          "midi": 55,
          "time": 284.3999999999994,
          "velocity": 0.5433070866141733,
          "duration": 0.3076171875
        },
        {
          "name": "C4",
          "midi": 60,
          "time": 285.0067382812494,
          "velocity": 0.5039370078740157,
          "duration": 0.29619140624998863
        },
        {
          "name": "F3",
          "midi": 53,
          "time": 285.5999999999994,
          "velocity": 0.5433070866141733,
          "duration": 0.3076171875
        },
        {
          "name": "F3",
          "midi": 53,
          "time": 286.2067382812494,
          "velocity": 0.5039370078740157,
          "duration": 0.29619140624998863
        },
        {
          "name": "C4",
          "midi": 60,
          "time": 286.7999999999994,
          "velocity": 0.5433070866141733,
          "duration": 0.3076171875
        },
        {
          "name": "C4",
          "midi": 60,
          "time": 287.1079101562494,
          "velocity": 0.5039370078740157,
          "duration": 0.29853515625001137
        },
        {
          "name": "F3",
          "midi": 53,
          "time": 287.4067382812494,
          "velocity": 0.5039370078740157,
          "duration": 0.29619140624998863
        },
        {
          "name": "G3",
          "midi": 55,
          "time": 287.9999999999994,
          "velocity": 0.5433070866141733,
          "duration": 0.3076171875
        },
        {
          "name": "G3",
          "midi": 55,
          "time": 288.9032226562494,
          "velocity": 0.5039370078740157,
          "duration": 0.29648437499997726
        },
        {
          "name": "G3",
          "midi": 55,
          "time": 289.19999999999936,
          "velocity": 0.5433070866141733,
          "duration": 0.20625000000001137
        },
        {
          "name": "A3",
          "midi": 57,
          "time": 289.6063476562494,
          "velocity": 0.5039370078740157,
          "duration": 0.19951171874998863
        },
        {
          "name": "B3",
          "midi": 59,
          "time": 290.0062499999994,
          "velocity": 0.5039370078740157,
          "duration": 0.19365234374998863
        },
        {
          "name": "C4",
          "midi": 60,
          "time": 290.3999999999994,
          "velocity": 0.5433070866141733,
          "duration": 0.3076171875
        },
        {
          "name": "G3",
          "midi": 55,
          "time": 291.0067382812494,
          "velocity": 0.5039370078740157,
          "duration": 0.29619140624998863
        },
        {
          "name": "C3",
          "midi": 48,
          "time": 291.5999999999994,
          "velocity": 0.5433070866141733,
          "duration": 0.3076171875
        },
        {
          "name": "C3",
          "midi": 48,
          "time": 292.7999999999994,
          "velocity": 0.5433070866141733,
          "duration": 0.3076171875
        },
        {
          "name": "F#3",
          "midi": 54,
          "time": 293.7032226562494,
          "velocity": 0.5039370078740157,
          "duration": 0.29648437499997726
        },
        {
          "name": "G3",
          "midi": 55,
          "time": 293.9999999999994,
          "velocity": 0.5433070866141733,
          "duration": 0.3076171875
        },
        {
          "name": "C4",
          "midi": 60,
          "time": 294.60673828124936,
          "velocity": 0.5039370078740157,
          "duration": 0.29619140624998863
        },
        {
          "name": "F3",
          "midi": 53,
          "time": 295.19999999999936,
          "velocity": 0.5433070866141733,
          "duration": 0.3076171875
        },
        {
          "name": "F3",
          "midi": 53,
          "time": 295.80673828124935,
          "velocity": 0.5039370078740157,
          "duration": 0.29619140624998863
        },
        {
          "name": "C4",
          "midi": 60,
          "time": 296.39999999999935,
          "velocity": 0.5433070866141733,
          "duration": 0.3076171875
        },
        {
          "name": "C4",
          "midi": 60,
          "time": 296.70791015624934,
          "velocity": 0.5039370078740157,
          "duration": 0.29853515625001137
        },
        {
          "name": "F3",
          "midi": 53,
          "time": 297.00673828124934,
          "velocity": 0.5039370078740157,
          "duration": 0.29619140624998863
        },
        {
          "name": "D3",
          "midi": 50,
          "time": 297.59999999999934,
          "velocity": 0.5433070866141733,
          "duration": 0.3076171875
        },
        {
          "name": "F3",
          "midi": 53,
          "time": 298.50322265624936,
          "velocity": 0.5039370078740157,
          "duration": 0.29648437499997726
        },
        {
          "name": "G3",
          "midi": 55,
          "time": 298.79999999999933,
          "velocity": 0.5433070866141733,
          "duration": 0.3076171875
        },
        {
          "name": "B3",
          "midi": 59,
          "time": 299.4067382812493,
          "velocity": 0.5039370078740157,
          "duration": 0.29619140624998863
        },
        {
          "name": "G3",
          "midi": 55,
          "time": 299.9999999999993,
          "velocity": 0.5433070866141733,
          "duration": 0.3076171875
        },
        {
          "name": "G3",
          "midi": 55,
          "time": 300.6067382812493,
          "velocity": 0.5039370078740157,
          "duration": 0.29619140624998863
        },
        {
          "name": "C4",
          "midi": 60,
          "time": 301.1999999999993,
          "velocity": 0.5433070866141733,
          "duration": 0.3076171875
        },
        {
          "name": "C4",
          "midi": 60,
          "time": 301.5079101562493,
          "velocity": 0.5039370078740157,
          "duration": 0.29853515625001137
        },
        {
          "name": "G3",
          "midi": 55,
          "time": 301.8067382812493,
          "velocity": 0.5039370078740157,
          "duration": 0.29619140624998863
        },
        {
          "name": "C3",
          "midi": 48,
          "time": 302.3999999999993,
          "velocity": 0.5433070866141733,
          "duration": 0.3076171875
        },
        {
          "name": "F#3",
          "midi": 54,
          "time": 303.3032226562493,
          "velocity": 0.5039370078740157,
          "duration": 0.29648437499997726
        },
        {
          "name": "G3",
          "midi": 55,
          "time": 303.5999999999993,
          "velocity": 0.5433070866141733,
          "duration": 0.3076171875
        },
        {
          "name": "C4",
          "midi": 60,
          "time": 304.2067382812493,
          "velocity": 0.5039370078740157,
          "duration": 0.29619140624998863
        },
        {
          "name": "F3",
          "midi": 53,
          "time": 304.7999999999993,
          "velocity": 0.5433070866141733,
          "duration": 0.3076171875
        },
        {
          "name": "F3",
          "midi": 53,
          "time": 305.40673828124926,
          "velocity": 0.5039370078740157,
          "duration": 0.29619140624998863
        },
        {
          "name": "C4",
          "midi": 60,
          "time": 305.99999999999926,
          "velocity": 0.5433070866141733,
          "duration": 0.3076171875
        },
        {
          "name": "C4",
          "midi": 60,
          "time": 306.30791015624925,
          "velocity": 0.5039370078740157,
          "duration": 0.29853515625001137
        },
        {
          "name": "F3",
          "midi": 53,
          "time": 306.60673828124925,
          "velocity": 0.5039370078740157,
          "duration": 0.29619140624998863
        },
        {
          "name": "G3",
          "midi": 55,
          "time": 307.19999999999925,
          "velocity": 0.5433070866141733,
          "duration": 0.3076171875
        },
        {
          "name": "G3",
          "midi": 55,
          "time": 308.1032226562493,
          "velocity": 0.5039370078740157,
          "duration": 0.29648437499997726
        },
        {
          "name": "G3",
          "midi": 55,
          "time": 308.39999999999924,
          "velocity": 0.5433070866141733,
          "duration": 0.20625000000001137
        },
        {
          "name": "A3",
          "midi": 57,
          "time": 308.8063476562493,
          "velocity": 0.5039370078740157,
          "duration": 0.19951171874998863
        },
        {
          "name": "B3",
          "midi": 59,
          "time": 309.2062499999993,
          "velocity": 0.5039370078740157,
          "duration": 0.19365234374998863
        },
        {
          "name": "C4",
          "midi": 60,
          "time": 309.5999999999993,
          "velocity": 0.5433070866141733,
          "duration": 0.3076171875
        },
        {
          "name": "G3",
          "midi": 55,
          "time": 310.2067382812493,
          "velocity": 0.5039370078740157,
          "duration": 0.29619140624998863
        },
        {
          "name": "C3",
          "midi": 48,
          "time": 310.7999999999993,
          "velocity": 0.5433070866141733,
          "duration": 0.3076171875
        },
        {
          "name": "G#2",
          "midi": 44,
          "time": 311.99999999999926,
          "velocity": 0.5433070866141733,
          "duration": 0.3076171875
        },
        {
          "name": "D#3",
          "midi": 51,
          "time": 312.9032226562493,
          "velocity": 0.5039370078740157,
          "duration": 0.29648437499997726
        },
        {
          "name": "G#3",
          "midi": 56,
          "time": 313.80673828124924,
          "velocity": 0.5039370078740157,
          "duration": 0.29619140624998863
        },
        {
          "name": "G3",
          "midi": 55,
          "time": 314.39999999999924,
          "velocity": 0.5433070866141733,
          "duration": 0.3076171875
        },
        {
          "name": "C3",
          "midi": 48,
          "time": 315.30322265624926,
          "velocity": 0.5039370078740157,
          "duration": 0.29648437499997726
        },
        {
          "name": "G2",
          "midi": 43,
          "time": 316.2067382812492,
          "velocity": 0.5039370078740157,
          "duration": 0.29619140624998863
        },
        {
          "name": "G#2",
          "midi": 44,
          "time": 316.7999999999992,
          "velocity": 0.5433070866141733,
          "duration": 0.3076171875
        },
        {
          "name": "D#3",
          "midi": 51,
          "time": 317.70322265624924,
          "velocity": 0.5039370078740157,
          "duration": 0.29648437499997726
        },
        {
          "name": "G#3",
          "midi": 56,
          "time": 318.6067382812492,
          "velocity": 0.5039370078740157,
          "duration": 0.29619140624998863
        },
        {
          "name": "G3",
          "midi": 55,
          "time": 319.1999999999992,
          "velocity": 0.5433070866141733,
          "duration": 0.3076171875
        },
        {
          "name": "C3",
          "midi": 48,
          "time": 320.1032226562492,
          "velocity": 0.5039370078740157,
          "duration": 0.29648437499997726
        },
        {
          "name": "G2",
          "midi": 43,
          "time": 321.00673828124917,
          "velocity": 0.5039370078740157,
          "duration": 0.29619140624998863
        },
        {
          "name": "G#2",
          "midi": 44,
          "time": 321.59999999999917,
          "velocity": 0.5433070866141733,
          "duration": 0.3076171875
        },
        {
          "name": "D#3",
          "midi": 51,
          "time": 322.5032226562492,
          "velocity": 0.5039370078740157,
          "duration": 0.29648437499997726
        },
        {
          "name": "G#3",
          "midi": 56,
          "time": 323.40673828124915,
          "velocity": 0.5039370078740157,
          "duration": 0.29619140624998863
        },
        {
          "name": "G3",
          "midi": 55,
          "time": 323.99999999999915,
          "velocity": 0.5433070866141733,
          "duration": 0.3076171875
        },
        {
          "name": "C3",
          "midi": 48,
          "time": 324.90322265624917,
          "velocity": 0.5039370078740157,
          "duration": 0.29648437499997726
        },
        {
          "name": "G2",
          "midi": 43,
          "time": 325.8067382812491,
          "velocity": 0.5039370078740157,
          "duration": 0.29619140624998863
        },
        {
          "name": "D3",
          "midi": 50,
          "time": 326.3999999999991,
          "velocity": 0.5433070866141733,
          "duration": 0.3076171875
        },
        {
          "name": "D3",
          "midi": 50,
          "time": 326.7079101562491,
          "velocity": 0.5039370078740157,
          "duration": 0.29853515625001137
        },
        {
          "name": "D3",
          "midi": 50,
          "time": 327.30322265624915,
          "velocity": 0.5039370078740157,
          "duration": 0.29648437499997726
        },
        {
          "name": "D3",
          "midi": 50,
          "time": 327.9079101562491,
          "velocity": 0.5039370078740157,
          "duration": 0.29853515625001137
        },
        {
          "name": "D3",
          "midi": 50,
          "time": 328.2067382812491,
          "velocity": 0.5039370078740157,
          "duration": 0.29619140624998863
        },
        {
          "name": "G3",
          "midi": 55,
          "time": 329.9999999999991,
          "velocity": 0.5433070866141733,
          "duration": 0.3076171875
        },
        {
          "name": "C3",
          "midi": 48,
          "time": 331.1999999999991,
          "velocity": 0.5433070866141733,
          "duration": 0.3076171875
        },
        {
          "name": "F#3",
          "midi": 54,
          "time": 332.1032226562491,
          "velocity": 0.5039370078740157,
          "duration": 0.29648437499997726
        },
        {
          "name": "G3",
          "midi": 55,
          "time": 332.39999999999907,
          "velocity": 0.5433070866141733,
          "duration": 0.3076171875
        },
        {
          "name": "C4",
          "midi": 60,
          "time": 333.00673828124906,
          "velocity": 0.5039370078740157,
          "duration": 0.29619140624998863
        },
        {
          "name": "F3",
          "midi": 53,
          "time": 333.59999999999906,
          "velocity": 0.5433070866141733,
          "duration": 0.3076171875
        },
        {
          "name": "F3",
          "midi": 53,
          "time": 334.20673828124905,
          "velocity": 0.5039370078740157,
          "duration": 0.29619140624998863
        },
        {
          "name": "C4",
          "midi": 60,
          "time": 334.79999999999905,
          "velocity": 0.5433070866141733,
          "duration": 0.3076171875
        },
        {
          "name": "C4",
          "midi": 60,
          "time": 335.10791015624903,
          "velocity": 0.5039370078740157,
          "duration": 0.29853515625001137
        },
        {
          "name": "F3",
          "midi": 53,
          "time": 335.40673828124903,
          "velocity": 0.5039370078740157,
          "duration": 0.29619140624998863
        },
        {
          "name": "D3",
          "midi": 50,
          "time": 335.99999999999903,
          "velocity": 0.5433070866141733,
          "duration": 0.3076171875
        },
        {
          "name": "F3",
          "midi": 53,
          "time": 336.90322265624906,
          "velocity": 0.5039370078740157,
          "duration": 0.29648437499997726
        },
        {
          "name": "G3",
          "midi": 55,
          "time": 337.199999999999,
          "velocity": 0.5433070866141733,
          "duration": 0.3076171875
        },
        {
          "name": "B3",
          "midi": 59,
          "time": 337.806738281249,
          "velocity": 0.5039370078740157,
          "duration": 0.29619140624998863
        },
        {
          "name": "G3",
          "midi": 55,
          "time": 338.399999999999,
          "velocity": 0.5433070866141733,
          "duration": 0.3076171875
        },
        {
          "name": "G3",
          "midi": 55,
          "time": 339.006738281249,
          "velocity": 0.5039370078740157,
          "duration": 0.29619140624998863
        },
        {
          "name": "C4",
          "midi": 60,
          "time": 339.599999999999,
          "velocity": 0.5433070866141733,
          "duration": 0.3076171875
        },
        {
          "name": "C4",
          "midi": 60,
          "time": 339.907910156249,
          "velocity": 0.5039370078740157,
          "duration": 0.29853515625001137
        },
        {
          "name": "G3",
          "midi": 55,
          "time": 340.206738281249,
          "velocity": 0.5039370078740157,
          "duration": 0.29619140624998863
        },
        {
          "name": "C3",
          "midi": 48,
          "time": 340.799999999999,
          "velocity": 0.5433070866141733,
          "duration": 0.3076171875
        },
        {
          "name": "F#3",
          "midi": 54,
          "time": 341.703222656249,
          "velocity": 0.5039370078740157,
          "duration": 0.29648437499997726
        },
        {
          "name": "G3",
          "midi": 55,
          "time": 341.999999999999,
          "velocity": 0.5433070866141733,
          "duration": 0.3076171875
        },
        {
          "name": "C4",
          "midi": 60,
          "time": 342.60673828124897,
          "velocity": 0.5039370078740157,
          "duration": 0.29619140624998863
        },
        {
          "name": "F3",
          "midi": 53,
          "time": 343.19999999999897,
          "velocity": 0.5433070866141733,
          "duration": 0.3076171875
        },
        {
          "name": "F3",
          "midi": 53,
          "time": 343.80673828124895,
          "velocity": 0.5039370078740157,
          "duration": 0.29619140624998863
        },
        {
          "name": "C4",
          "midi": 60,
          "time": 344.39999999999895,
          "velocity": 0.5433070866141733,
          "duration": 0.3076171875
        },
        {
          "name": "C4",
          "midi": 60,
          "time": 344.70791015624894,
          "velocity": 0.5039370078740157,
          "duration": 0.29853515625001137
        },
        {
          "name": "F3",
          "midi": 53,
          "time": 345.00673828124894,
          "velocity": 0.5039370078740157,
          "duration": 0.29619140624998863
        },
        {
          "name": "G3",
          "midi": 55,
          "time": 345.59999999999894,
          "velocity": 0.5433070866141733,
          "duration": 0.3076171875
        },
        {
          "name": "G3",
          "midi": 55,
          "time": 346.50322265624897,
          "velocity": 0.5039370078740157,
          "duration": 0.29648437499997726
        },
        {
          "name": "G3",
          "midi": 55,
          "time": 346.79999999999893,
          "velocity": 0.5433070866141733,
          "duration": 0.20625000000001137
        },
        {
          "name": "A3",
          "midi": 57,
          "time": 347.20634765624897,
          "velocity": 0.5039370078740157,
          "duration": 0.19951171874998863
        },
        {
          "name": "B3",
          "midi": 59,
          "time": 347.60624999999897,
          "velocity": 0.5039370078740157,
          "duration": 0.19365234374998863
        },
        {
          "name": "C4",
          "midi": 60,
          "time": 347.999999999999,
          "velocity": 0.5433070866141733,
          "duration": 0.3076171875
        },
        {
          "name": "G3",
          "midi": 55,
          "time": 348.60673828124897,
          "velocity": 0.5039370078740157,
          "duration": 0.29619140624998863
        },
        {
          "name": "C3",
          "midi": 48,
          "time": 349.19999999999897,
          "velocity": 0.5433070866141733,
          "duration": 0.3076171875
        }
      ],
      "controlChanges": {
        "7": [
          {
            "number": 7,
            "time": 0,
            "value": 0.7952755905511811
          },
          {
            "number": 7,
            "time": 0,
            "value": 0.8031496062992126
          }
        ],
        "10": [
          {
            "number": 10,
            "time": 0,
            "value": 0.5039370078740157
          }
        ]
      },
      "id": 3,
      "name": "L.H.",
      "instrumentNumber": 0,
      "instrument": "acoustic grand piano",
      "instrumentFamily": "piano",
      "channelNumber": 0,
      "isPercussion": false
    }
  ]
}