{
  "header": {
    "PPQ": 384,
    "timeSignature": [
      3,
      4
    ],
    "bpm": 66,
    "name": "ofortuna"
  },
  "startTime": 0,
  "duration": 165.06049487500047,
  "tracks": [
    {
      "startTime": 0,
      "duration": 164.2742045000004,
      "length": 525,
      "notes": [
        {
          "name": "D3",
          "midi": 50,
          "time": 0,
          "velocity": 0.7244094488188977,
          "duration": 1.8245968958333334
        },
        {
          "name": "D2",
          "midi": 38,
          "time": 0,
          "velocity": 1,
          "duration": 1.935484
        },
        {
          "name": "A4",
          "midi": 69,
          "time": 0.967742,
          "velocity": 0.6299212598425197,
          "duration": 1.7842743125
        },
        {
          "name": "D4",
          "midi": 62,
          "time": 0.967742,
          "velocity": 0.6141732283464567,
          "duration": 0.5645161666666668
        },
        {
          "name": "E6",
          "midi": 88,
          "time": 0.967742,
          "velocity": 0.7401574803149606,
          "duration": 1.7741936666666667
        },
        {
          "name": "C3",
          "midi": 48,
          "time": 1.935484,
          "velocity": 0.7480314960629921,
          "duration": 1.895161416666667
        },
        {
          "name": "C2",
          "midi": 36,
          "time": 1.935484,
          "velocity": 1,
          "duration": 1.9052420625000004
        },
        {
          "name": "F6",
          "midi": 89,
          "time": 2.903226,
          "velocity": 0.6692913385826772,
          "duration": 0.9375000625000003
        },
        {
          "name": "D6",
          "midi": 86,
          "time": 3.8709680000000004,
          "velocity": 0.6929133858267716,
          "duration": 0.8064516666666668
        },
        {
          "name": "A#2",
          "midi": 46,
          "time": 3.8709680000000004,
          "velocity": 0.6929133858267716,
          "duration": 1.7237904375
        },
        {
          "name": "A#1",
          "midi": 34,
          "time": 3.8709680000000004,
          "velocity": 1,
          "duration": 1.8850807708333326
        },
        {
          "name": "D5",
          "midi": 74,
          "time": 4.838710000000001,
          "velocity": 0.5984251968503937,
          "duration": 0.9173387708333323
        },
        {
          "name": "D6",
          "midi": 86,
          "time": 4.838710000000001,
          "velocity": 0.6929133858267716,
          "duration": 0.9173387708333323
        },
        {
          "name": "D4",
          "midi": 62,
          "time": 4.838710000000001,
          "velocity": 0.6299212598425197,
          "duration": 0.8064516666666659
        },
        {
          "name": "D3",
          "midi": 50,
          "time": 5.866935874999999,
          "velocity": 0.8346456692913385,
          "duration": 1.985887229166667
        },
        {
          "name": "D2",
          "midi": 38,
          "time": 5.866935874999999,
          "velocity": 1,
          "duration": 1.9556452916666673
        },
        {
          "name": "D4",
          "midi": 62,
          "time": 6.774194,
          "velocity": 0.5354330708661418,
          "duration": 0.262096791666667
        },
        {
          "name": "E6",
          "midi": 88,
          "time": 6.774194,
          "velocity": 0.6535433070866141,
          "duration": 1.794354958333333
        },
        {
          "name": "A4",
          "midi": 69,
          "time": 6.774194,
          "velocity": 0.6299212598425197,
          "duration": 1.8044356041666667
        },
        {
          "name": "C3",
          "midi": 48,
          "time": 7.741936,
          "velocity": 0.7086614173228346,
          "duration": 1.7237904375000008
        },
        {
          "name": "C2",
          "midi": 36,
          "time": 7.741936,
          "velocity": 1,
          "duration": 1.7237904375000008
        },
        {
          "name": "F6",
          "midi": 89,
          "time": 8.709678,
          "velocity": 0.7007874015748031,
          "duration": 0.8870968333333344
        },
        {
          "name": "D6",
          "midi": 86,
          "time": 9.677420000000001,
          "velocity": 0.6062992125984252,
          "duration": 0.8266129583333335
        },
        {
          "name": "A#2",
          "midi": 46,
          "time": 9.677420000000001,
          "velocity": 0.7559055118110236,
          "duration": 1.8245968958333325
        },
        {
          "name": "A#1",
          "midi": 34,
          "time": 9.677420000000001,
          "velocity": 1,
          "duration": 1.8245968958333325
        },
        {
          "name": "D5",
          "midi": 74,
          "time": 10.645162000000001,
          "velocity": 0.6299212598425197,
          "duration": 0.8770161875000007
        },
        {
          "name": "D4",
          "midi": 62,
          "time": 10.645162000000001,
          "velocity": 0.5511811023622047,
          "duration": 0.8870968333333344
        },
        {
          "name": "D6",
          "midi": 86,
          "time": 10.645162000000001,
          "velocity": 0.7165354330708661,
          "duration": 0.8669355416666669
        },
        {
          "name": "A1",
          "midi": 33,
          "time": 11.612904000000002,
          "velocity": 1,
          "duration": 1.9354840000000006
        },
        {
          "name": "A2",
          "midi": 45,
          "time": 11.673387875000001,
          "velocity": 0.6692913385826772,
          "duration": 1.8649194791666677
        },
        {
          "name": "A6",
          "midi": 93,
          "time": 12.580646000000002,
          "velocity": 0.6850393700787402,
          "duration": 1.7540323750000013
        },
        {
          "name": "A4",
          "midi": 69,
          "time": 12.580646000000002,
          "velocity": 0.6614173228346457,
          "duration": 1.7439517291666675
        },
        {
          "name": "D4",
          "midi": 62,
          "time": 12.580646000000002,
          "velocity": 0.5826771653543307,
          "duration": 0.13104839583333394
        },
        {
          "name": "A3",
          "midi": 57,
          "time": 13.548388000000003,
          "velocity": 0.7716535433070866,
          "duration": 9.647178062500004
        },
        {
          "name": "A1",
          "midi": 33,
          "time": 13.548388000000003,
          "velocity": 1,
          "duration": 9.647178062500004
        },
        {
          "name": "A4",
          "midi": 69,
          "time": 14.516130000000002,
          "velocity": 0.6299212598425197,
          "duration": 0.9475807083333336
        },
        {
          "name": "G6",
          "midi": 91,
          "time": 14.516130000000002,
          "velocity": 0.6850393700787402,
          "duration": 0.9072581250000002
        },
        {
          "name": "A6",
          "midi": 93,
          "time": 15.483872000000002,
          "velocity": 0.5905511811023622,
          "duration": 0.9475807083333336
        },
        {
          "name": "A4",
          "midi": 69,
          "time": 15.483872000000002,
          "velocity": 0.5984251968503937,
          "duration": 0.9475807083333336
        },
        {
          "name": "G6",
          "midi": 91,
          "time": 16.451614000000003,
          "velocity": 0.6692913385826772,
          "duration": 0.8064516666666677
        },
        {
          "name": "A4",
          "midi": 69,
          "time": 16.451614000000003,
          "velocity": 0.5905511811023622,
          "duration": 0.8064516666666677
        },
        {
          "name": "A4",
          "midi": 69,
          "time": 17.419356000000004,
          "velocity": 0.6535433070866141,
          "duration": 0.7459677916666685
        },
        {
          "name": "G6",
          "midi": 91,
          "time": 17.419356000000004,
          "velocity": 0.6850393700787402,
          "duration": 0.7862903750000001
        },
        {
          "name": "F6",
          "midi": 89,
          "time": 18.387098000000005,
          "velocity": 0.6929133858267716,
          "duration": 0.6451613333333341
        },
        {
          "name": "A4",
          "midi": 69,
          "time": 18.387098000000005,
          "velocity": 0.6377952755905512,
          "duration": 0.6451613333333341
        },
        {
          "name": "E6",
          "midi": 88,
          "time": 19.354840000000006,
          "velocity": 0.7559055118110236,
          "duration": 3.8508067083333337
        },
        {
          "name": "A4",
          "midi": 69,
          "time": 19.354840000000006,
          "velocity": 0.6850393700787402,
          "duration": 3.8104841249999986
        },
        {
          "name": "D2",
          "midi": 38,
          "time": 23.467743500000008,
          "velocity": 0.7952755905511811,
          "duration": 2.706653406250002
        },
        {
          "name": "D2",
          "midi": 38,
          "time": 26.370969500000008,
          "velocity": 0.8740157480314961,
          "duration": 2.7419356666666665
        },
        {
          "name": "D2",
          "midi": 38,
          "time": 29.27419550000001,
          "velocity": 0.8740157480314961,
          "duration": 5.604839083333335
        },
        {
          "name": "D2",
          "midi": 38,
          "time": 35.08064750000001,
          "velocity": 0.905511811023622,
          "duration": 2.7469759895833334
        },
        {
          "name": "D2",
          "midi": 38,
          "time": 37.983873500000016,
          "velocity": 0.8818897637795275,
          "duration": 2.7217743750000025
        },
        {
          "name": "D2",
          "midi": 38,
          "time": 40.88709950000002,
          "velocity": 0.905511811023622,
          "duration": 5.614919729166665
        },
        {
          "name": "D2",
          "midi": 38,
          "time": 46.69355150000002,
          "velocity": 0.8976377952755905,
          "duration": 2.7066534062499983
        },
        {
          "name": "D2",
          "midi": 38,
          "time": 49.596777500000016,
          "velocity": 0.8740157480314961,
          "duration": 2.701613083333335
        },
        {
          "name": "D2",
          "midi": 38,
          "time": 52.50000350000002,
          "velocity": 0.905511811023622,
          "duration": 5.47883101041667
        },
        {
          "name": "D2",
          "midi": 38,
          "time": 58.30645550000002,
          "velocity": 0.937007874015748,
          "duration": 2.7973792187500024
        },
        {
          "name": "D2",
          "midi": 38,
          "time": 61.20968150000002,
          "velocity": 0.8188976377952756,
          "duration": 2.6612905
        },
        {
          "name": "D2",
          "midi": 38,
          "time": 64.11290750000002,
          "velocity": 0.9291338582677166,
          "duration": 5.549395531249999
        },
        {
          "name": "D2",
          "midi": 38,
          "time": 69.91935950000001,
          "velocity": 0.905511811023622,
          "duration": 2.716734052083339
        },
        {
          "name": "D2",
          "midi": 38,
          "time": 72.82258550000002,
          "velocity": 0.889763779527559,
          "duration": 2.5403227500000014
        },
        {
          "name": "D2",
          "midi": 38,
          "time": 75.72581150000002,
          "velocity": 0.8818897637795275,
          "duration": 5.645161666666667
        },
        {
          "name": "D2",
          "midi": 38,
          "time": 81.53226350000001,
          "velocity": 0.8976377952755905,
          "duration": 2.8024195416666657
        },
        {
          "name": "D2",
          "midi": 38,
          "time": 84.43548950000002,
          "velocity": 0.8503937007874016,
          "duration": 2.6965727604166716
        },
        {
          "name": "D2",
          "midi": 38,
          "time": 87.33871550000002,
          "velocity": 0.8110236220472441,
          "duration": 4.621976114583333
        },
        {
          "name": "D2",
          "midi": 38,
          "time": 93.62903850000002,
          "velocity": 0.8582677165354331,
          "duration": 2.6713711458333336
        },
        {
          "name": "D2",
          "midi": 38,
          "time": 96.04839350000002,
          "velocity": 0.7637795275590551,
          "duration": 1.144153302083339
        },
        {
          "name": "D2",
          "midi": 38,
          "time": 99.43549050000003,
          "velocity": 0.905511811023622,
          "duration": 5.680443927083331
        },
        {
          "name": "D1",
          "midi": 26,
          "time": 104.75807150000003,
          "velocity": 1,
          "duration": 2.6411292083333393
        },
        {
          "name": "D2",
          "midi": 38,
          "time": 104.75807150000003,
          "velocity": 1,
          "duration": 2.651209854166666
        },
        {
          "name": "F6",
          "midi": 89,
          "time": 105.24194250000002,
          "velocity": 0.8031496062992126,
          "duration": 0.24193549999999675
        },
        {
          "name": "F5",
          "midi": 77,
          "time": 105.24194250000002,
          "velocity": 0.7952755905511811,
          "duration": 0.3125000208333262
        },
        {
          "name": "F4",
          "midi": 65,
          "time": 105.24194250000002,
          "velocity": 0.7637795275590551,
          "duration": 0.3377016354166642
        },
        {
          "name": "F6",
          "midi": 89,
          "time": 105.72581350000002,
          "velocity": 0.8582677165354331,
          "duration": 0.2923387291666728
        },
        {
          "name": "F5",
          "midi": 77,
          "time": 105.72581350000002,
          "velocity": 0.8582677165354331,
          "duration": 0.4032258333333374
        },
        {
          "name": "F4",
          "midi": 65,
          "time": 105.72581350000002,
          "velocity": 0.8582677165354331,
          "duration": 0.3931451875000107
        },
        {
          "name": "E6",
          "midi": 88,
          "time": 106.20968450000002,
          "velocity": 0.84251968503937,
          "duration": 0.3024193749999995
        },
        {
          "name": "E5",
          "midi": 76,
          "time": 106.20968450000002,
          "velocity": 0.84251968503937,
          "duration": 0.34274195833333465
        },
        {
          "name": "E4",
          "midi": 64,
          "time": 106.20968450000002,
          "velocity": 0.84251968503937,
          "duration": 0.36290325000000223
        },
        {
          "name": "E6",
          "midi": 88,
          "time": 106.69355550000003,
          "velocity": 0.8976377952755905,
          "duration": 0.4385080937500021
        },
        {
          "name": "E5",
          "midi": 76,
          "time": 106.69355550000003,
          "velocity": 0.8740157480314961,
          "duration": 0.5443548749999962
        },
        {
          "name": "E4",
          "midi": 64,
          "time": 106.69355550000003,
          "velocity": 0.8976377952755905,
          "duration": 0.5897177812500018
        },
        {
          "name": "D2",
          "midi": 38,
          "time": 107.66129750000003,
          "velocity": 1,
          "duration": 2.711693729166626
        },
        {
          "name": "D1",
          "midi": 26,
          "time": 107.66129750000003,
          "velocity": 1,
          "duration": 2.696572760416629
        },
        {
          "name": "F6",
          "midi": 89,
          "time": 108.14516850000003,
          "velocity": 0.8267716535433071,
          "duration": 0.2469758229166672
        },
        {
          "name": "F5",
          "midi": 77,
          "time": 108.14516850000003,
          "velocity": 0.7874015748031497,
          "duration": 0.2822580833333319
        },
        {
          "name": "F4",
          "midi": 65,
          "time": 108.14516850000003,
          "velocity": 0.8031496062992126,
          "duration": 0.33266131249999376
        },
        {
          "name": "F6",
          "midi": 89,
          "time": 108.62903950000002,
          "velocity": 0.84251968503937,
          "duration": 0.2671371145833348
        },
        {
          "name": "F5",
          "midi": 77,
          "time": 108.62903950000002,
          "velocity": 0.7874015748031497,
          "duration": 0.36290325000000223
        },
        {
          "name": "F4",
          "midi": 65,
          "time": 108.62903950000002,
          "velocity": 0.8582677165354331,
          "duration": 0.40826615625000784
        },
        {
          "name": "E6",
          "midi": 88,
          "time": 109.11291050000003,
          "velocity": 0.84251968503937,
          "duration": 0.2368951770833263
        },
        {
          "name": "E5",
          "midi": 76,
          "time": 109.11291050000003,
          "velocity": 0.7952755905511811,
          "duration": 0.3729838958333147
        },
        {
          "name": "E4",
          "midi": 64,
          "time": 109.11291050000003,
          "velocity": 0.8582677165354331,
          "duration": 0.362903249999988
        },
        {
          "name": "E6",
          "midi": 88,
          "time": 109.5967815,
          "velocity": 0.84251968503937,
          "duration": 0.3931451874999965
        },
        {
          "name": "E5",
          "midi": 76,
          "time": 109.5967815,
          "velocity": 0.8267716535433071,
          "duration": 0.3931451874999965
        },
        {
          "name": "E4",
          "midi": 64,
          "time": 109.5967815,
          "velocity": 0.8976377952755905,
          "duration": 0.44354841666665834
        },
        {
          "name": "D1",
          "midi": 26,
          "time": 110.56452349999999,
          "velocity": 1,
          "duration": 5.524193916666661
        },
        {
          "name": "D2",
          "midi": 38,
          "time": 110.56452349999999,
          "velocity": 1,
          "duration": 5.559476177083326
        },
        {
          "name": "F6",
          "midi": 89,
          "time": 111.04839449999999,
          "velocity": 0.8031496062992126,
          "duration": 0.3024193749999995
        },
        {
          "name": "F5",
          "midi": 77,
          "time": 111.04839449999999,
          "velocity": 0.7874015748031497,
          "duration": 0.36290325000000223
        },
        {
          "name": "F4",
          "midi": 65,
          "time": 111.04839449999999,
          "velocity": 0.7637795275590551,
          "duration": 0.34274195833333465
        },
        {
          "name": "F6",
          "midi": 89,
          "time": 111.5322655,
          "velocity": 0.84251968503937,
          "duration": 0.30745969791666994
        },
        {
          "name": "F5",
          "midi": 77,
          "time": 111.5322655,
          "velocity": 0.8740157480314961,
          "duration": 0.4183468020833345
        },
        {
          "name": "F4",
          "midi": 65,
          "time": 111.5322655,
          "velocity": 0.7716535433070866,
          "duration": 0.42338712500000497
        },
        {
          "name": "E6",
          "midi": 88,
          "time": 112.0161365,
          "velocity": 0.8188976377952756,
          "duration": 0.2822580833333319
        },
        {
          "name": "E5",
          "midi": 76,
          "time": 112.0161365,
          "velocity": 0.8582677165354331,
          "duration": 0.3931451874999965
        },
        {
          "name": "E4",
          "midi": 64,
          "time": 112.0161365,
          "velocity": 0.8031496062992126,
          "duration": 0.3729838958333289
        },
        {
          "name": "F6",
          "midi": 89,
          "time": 112.5000075,
          "velocity": 0.7874015748031497,
          "duration": 0.9072581249999985
        },
        {
          "name": "F5",
          "midi": 77,
          "time": 112.5000075,
          "velocity": 0.8740157480314961,
          "duration": 0.8719758645833338
        },
        {
          "name": "F4",
          "midi": 65,
          "time": 112.5000075,
          "velocity": 0.7874015748031497,
          "duration": 0.902217802083328
        },
        {
          "name": "G6",
          "midi": 91,
          "time": 113.4677495,
          "velocity": 0.7716535433070866,
          "duration": 0.8921371562500013
        },
        {
          "name": "G5",
          "midi": 79,
          "time": 113.4677495,
          "velocity": 0.84251968503937,
          "duration": 0.927419416666666
        },
        {
          "name": "G4",
          "midi": 67,
          "time": 113.4677495,
          "velocity": 0.8031496062992126,
          "duration": 0.8669355416666633
        },
        {
          "name": "F6",
          "midi": 89,
          "time": 114.4354915,
          "velocity": 0.7086614173228346,
          "duration": 0.43346777083333166
        },
        {
          "name": "F5",
          "midi": 77,
          "time": 114.4354915,
          "velocity": 0.7874015748031497,
          "duration": 0.4385080937500021
        },
        {
          "name": "F4",
          "midi": 65,
          "time": 114.4354915,
          "velocity": 0.7165354330708661,
          "duration": 0.46875003124999637
        },
        {
          "name": "E6",
          "midi": 88,
          "time": 114.91936249999999,
          "velocity": 0.8188976377952756,
          "duration": 1.391129124999992
        },
        {
          "name": "E5",
          "midi": 76,
          "time": 114.91936249999999,
          "velocity": 0.8267716535433071,
          "duration": 1.391129124999992
        },
        {
          "name": "E4",
          "midi": 64,
          "time": 114.91936249999999,
          "velocity": 0.7244094488188977,
          "duration": 1.1693549166666628
        },
        {
          "name": "D2",
          "midi": 38,
          "time": 116.37097549999999,
          "velocity": 1,
          "duration": 2.6562501770833364
        },
        {
          "name": "D1",
          "midi": 26,
          "time": 116.37097549999999,
          "velocity": 1,
          "duration": 2.6209679166666717
        },
        {
          "name": "F6",
          "midi": 89,
          "time": 116.85484649999998,
          "velocity": 0.7952755905511811,
          "duration": 0.2822580833333319
        },
        {
          "name": "F5",
          "midi": 77,
          "time": 116.85484649999998,
          "velocity": 0.8031496062992126,
          "duration": 0.3830645416666698
        },
        {
          "name": "F4",
          "midi": 65,
          "time": 116.85484649999998,
          "velocity": 0.7007874015748031,
          "duration": 0.32258066666666707
        },
        {
          "name": "F6",
          "midi": 89,
          "time": 117.33871749999999,
          "velocity": 0.7952755905511811,
          "duration": 0.2469758229166672
        },
        {
          "name": "F5",
          "midi": 77,
          "time": 117.33871749999999,
          "velocity": 0.8582677165354331,
          "duration": 0.42338712499999076
        },
        {
          "name": "F4",
          "midi": 65,
          "time": 117.33871749999999,
          "velocity": 0.7322834645669292,
          "duration": 0.4133064791666641
        },
        {
          "name": "E6",
          "midi": 88,
          "time": 117.82258849999998,
          "velocity": 0.7716535433070866,
          "duration": 0.3024193749999995
        },
        {
          "name": "E5",
          "midi": 76,
          "time": 117.82258849999998,
          "velocity": 0.8267716535433071,
          "duration": 0.3679435729166727
        },
        {
          "name": "E4",
          "midi": 64,
          "time": 117.82258849999998,
          "velocity": 0.7322834645669292,
          "duration": 0.3830645416666698
        },
        {
          "name": "E6",
          "midi": 88,
          "time": 118.30645949999999,
          "velocity": 0.8740157480314961,
          "duration": 0.5090726145833315
        },
        {
          "name": "E5",
          "midi": 76,
          "time": 118.30645949999999,
          "velocity": 0.8818897637795275,
          "duration": 0.4385080937500021
        },
        {
          "name": "E4",
          "midi": 64,
          "time": 118.30645949999999,
          "velocity": 0.7716535433070866,
          "duration": 0.5846774583333314
        },
        {
          "name": "D2",
          "midi": 38,
          "time": 119.27420149999999,
          "velocity": 1,
          "duration": 2.6461695312500098
        },
        {
          "name": "D1",
          "midi": 26,
          "time": 119.27420149999999,
          "velocity": 1,
          "duration": 2.6310485625000126
        },
        {
          "name": "F6",
          "midi": 89,
          "time": 119.75807249999998,
          "velocity": 0.7559055118110236,
          "duration": 0.23185485416667007
        },
        {
          "name": "F5",
          "midi": 77,
          "time": 119.75807249999998,
          "velocity": 0.7952755905511811,
          "duration": 0.28729840625000236
        },
        {
          "name": "F4",
          "midi": 65,
          "time": 119.75807249999998,
          "velocity": 0.7165354330708661,
          "duration": 0.3679435729166727
        },
        {
          "name": "F6",
          "midi": 89,
          "time": 120.24194349999999,
          "velocity": 0.7559055118110236,
          "duration": 0.26209679166666433
        },
        {
          "name": "F5",
          "midi": 77,
          "time": 120.24194349999999,
          "velocity": 0.7874015748031497,
          "duration": 0.38810486458332605
        },
        {
          "name": "F4",
          "midi": 65,
          "time": 120.24194349999999,
          "velocity": 0.6929133858267716,
          "duration": 0.40826615624999363
        },
        {
          "name": "E6",
          "midi": 88,
          "time": 120.72581449999998,
          "velocity": 0.7637795275590551,
          "duration": 0.2822580833333319
        },
        {
          "name": "E5",
          "midi": 76,
          "time": 120.72581449999998,
          "velocity": 0.8267716535433071,
          "duration": 0.36290325000000223
        },
        {
          "name": "E4",
          "midi": 64,
          "time": 120.72581449999998,
          "velocity": 0.7007874015748031,
          "duration": 0.36290325000000223
        },
        {
          "name": "E6",
          "midi": 88,
          "time": 121.20968549999999,
          "velocity": 0.7952755905511811,
          "duration": 0.4838710000000077
        },
        {
          "name": "E5",
          "midi": 76,
          "time": 121.20968549999999,
          "velocity": 0.8582677165354331,
          "duration": 0.47883067708333726
        },
        {
          "name": "E4",
          "midi": 64,
          "time": 121.20968549999999,
          "velocity": 0.7322834645669292,
          "duration": 0.5997984270833427
        },
        {
          "name": "D1",
          "midi": 26,
          "time": 122.1774275,
          "velocity": 1,
          "duration": 5.504032624999994
        },
        {
          "name": "D2",
          "midi": 38,
          "time": 122.1774275,
          "velocity": 1,
          "duration": 5.524193916666661
        },
        {
          "name": "F6",
          "midi": 89,
          "time": 122.66129849999999,
          "velocity": 0.7559055118110236,
          "duration": 0.2671371145833348
        },
        {
          "name": "F5",
          "midi": 77,
          "time": 122.66129849999999,
          "velocity": 0.7952755905511811,
          "duration": 0.3729838958333431
        },
        {
          "name": "F4",
          "midi": 65,
          "time": 122.66129849999999,
          "velocity": 0.7244094488188977,
          "duration": 0.3679435729166727
        },
        {
          "name": "F6",
          "midi": 89,
          "time": 123.1451695,
          "velocity": 0.7716535433070866,
          "duration": 0.29737905208332904
        },
        {
          "name": "F5",
          "midi": 77,
          "time": 123.1451695,
          "velocity": 0.8188976377952756,
          "duration": 0.3729838958333289
        },
        {
          "name": "F4",
          "midi": 65,
          "time": 123.1451695,
          "velocity": 0.6850393700787402,
          "duration": 0.4032258333333232
        },
        {
          "name": "E6",
          "midi": 88,
          "time": 123.62904049999999,
          "velocity": 0.7322834645669292,
          "duration": 0.3125000208333404
        },
        {
          "name": "E5",
          "midi": 76,
          "time": 123.62904049999999,
          "velocity": 0.7637795275590551,
          "duration": 0.3931451875000107
        },
        {
          "name": "E4",
          "midi": 64,
          "time": 123.62904049999999,
          "velocity": 0.7007874015748031,
          "duration": 0.3931451875000107
        },
        {
          "name": "F6",
          "midi": 89,
          "time": 124.1129115,
          "velocity": 0.7952755905511811,
          "duration": 0.9173387708333252
        },
        {
          "name": "F5",
          "midi": 77,
          "time": 124.1129115,
          "velocity": 0.7637795275590551,
          "duration": 0.9072581249999985
        },
        {
          "name": "F4",
          "midi": 65,
          "time": 124.1129115,
          "velocity": 0.7559055118110236,
          "duration": 0.9475807083333194
        },
        {
          "name": "G6",
          "midi": 91,
          "time": 125.08065349999998,
          "velocity": 0.7559055118110236,
          "duration": 0.8870968333333309
        },
        {
          "name": "G5",
          "midi": 79,
          "time": 125.08065349999998,
          "velocity": 0.7401574803149606,
          "duration": 0.9324597395833365
        },
        {
          "name": "G4",
          "midi": 67,
          "time": 125.08065349999998,
          "velocity": 0.7637795275590551,
          "duration": 0.8921371562500013
        },
        {
          "name": "F6",
          "midi": 89,
          "time": 126.04839549999998,
          "velocity": 0.6614173228346457,
          "duration": 0.38810486458334026
        },
        {
          "name": "F5",
          "midi": 77,
          "time": 126.04839549999998,
          "velocity": 0.7401574803149606,
          "duration": 0.4284274479166754
        },
        {
          "name": "F4",
          "midi": 65,
          "time": 126.04839549999998,
          "velocity": 0.6850393700787402,
          "duration": 0.43346777083334587
        },
        {
          "name": "E6",
          "midi": 88,
          "time": 126.53226649999999,
          "velocity": 0.6929133858267716,
          "duration": 1.1895162083333304
        },
        {
          "name": "E5",
          "midi": 76,
          "time": 126.53226649999999,
          "velocity": 0.8582677165354331,
          "duration": 1.2298387916666655
        },
        {
          "name": "E4",
          "midi": 64,
          "time": 126.53226649999999,
          "velocity": 0.6456692913385826,
          "duration": 1.1491936249999952
        },
        {
          "name": "D1",
          "midi": 26,
          "time": 127.98387949999999,
          "velocity": 1,
          "duration": 2.6814517916666176
        },
        {
          "name": "D2",
          "midi": 38,
          "time": 127.98387949999999,
          "velocity": 1,
          "duration": 2.7066534062499414
        },
        {
          "name": "A6",
          "midi": 93,
          "time": 128.4677505,
          "velocity": 0.8267716535433071,
          "duration": 0.25201614583332343
        },
        {
          "name": "F6",
          "midi": 89,
          "time": 128.4677505,
          "velocity": 0.8031496062992126,
          "duration": 0.30241937499997107
        },
        {
          "name": "A5",
          "midi": 81,
          "time": 128.4677505,
          "velocity": 0.7716535433070866,
          "duration": 0.3276209895833233
        },
        {
          "name": "F5",
          "midi": 77,
          "time": 128.4677505,
          "velocity": 0.7952755905511811,
          "duration": 0.2822580833333177
        },
        {
          "name": "F4",
          "midi": 65,
          "time": 128.4677505,
          "velocity": 0.7086614173228346,
          "duration": 0.3175403437499824
        },
        {
          "name": "A4",
          "midi": 69,
          "time": 128.4677505,
          "velocity": 0.7874015748031497,
          "duration": 0.3528226041666471
        },
        {
          "name": "A6",
          "midi": 93,
          "time": 128.9516215,
          "velocity": 0.8582677165354331,
          "duration": 0.24193550000001096
        },
        {
          "name": "F6",
          "midi": 89,
          "time": 128.9516215,
          "velocity": 0.8267716535433071,
          "duration": 0.34274195833333465
        },
        {
          "name": "A5",
          "midi": 81,
          "time": 128.9516215,
          "velocity": 0.84251968503937,
          "duration": 0.38810486458334026
        },
        {
          "name": "F5",
          "midi": 77,
          "time": 128.9516215,
          "velocity": 0.8818897637795275,
          "duration": 0.35282260416667555
        },
        {
          "name": "A4",
          "midi": 69,
          "time": 128.9516215,
          "velocity": 0.7716535433070866,
          "duration": 0.34274195833333465
        },
        {
          "name": "F4",
          "midi": 65,
          "time": 128.9516215,
          "velocity": 0.8267716535433071,
          "duration": 0.30745969791666994
        },
        {
          "name": "G6",
          "midi": 91,
          "time": 129.43549249999998,
          "velocity": 0.84251968503937,
          "duration": 0.32258066666665286
        },
        {
          "name": "E6",
          "midi": 88,
          "time": 129.43549249999998,
          "velocity": 0.84251968503937,
          "duration": 0.3477822812499767
        },
        {
          "name": "G5",
          "midi": 79,
          "time": 129.43549249999998,
          "velocity": 0.7874015748031497,
          "duration": 0.34274195833330623
        },
        {
          "name": "E5",
          "midi": 76,
          "time": 129.43549249999998,
          "velocity": 0.7007874015748031,
          "duration": 0.3477822812499767
        },
        {
          "name": "E4",
          "midi": 64,
          "time": 129.43549249999998,
          "velocity": 0.7165354330708661,
          "duration": 0.37802421874997094
        },
        {
          "name": "G4",
          "midi": 67,
          "time": 129.43549249999998,
          "velocity": 0.9291338582677166,
          "duration": 0.34274195833330623
        },
        {
          "name": "G6",
          "midi": 91,
          "time": 129.91936349999995,
          "velocity": 0.84251968503937,
          "duration": 0.42338712500000497
        },
        {
          "name": "E6",
          "midi": 88,
          "time": 129.91936349999995,
          "velocity": 0.8818897637795275,
          "duration": 0.5141129374999878
        },
        {
          "name": "G5",
          "midi": 79,
          "time": 129.91936349999995,
          "velocity": 0.8818897637795275,
          "duration": 0.5241935833333287
        },
        {
          "name": "E5",
          "midi": 76,
          "time": 129.91936349999995,
          "velocity": 0.7637795275590551,
          "duration": 0.5141129374999878
        },
        {
          "name": "E4",
          "midi": 64,
          "time": 129.91936349999995,
          "velocity": 0.7874015748031497,
          "duration": 0.4939516458333344
        },
        {
          "name": "G4",
          "midi": 67,
          "time": 129.91936349999995,
          "velocity": 0.84251968503937,
          "duration": 0.48891132291666395
        },
        {
          "name": "D1",
          "midi": 26,
          "time": 130.88710549999993,
          "velocity": 1,
          "duration": 2.767137281250058
        },
        {
          "name": "D2",
          "midi": 38,
          "time": 130.88710549999993,
          "velocity": 1,
          "duration": 2.7620969583333874
        },
        {
          "name": "A6",
          "midi": 93,
          "time": 131.37097649999993,
          "velocity": 0.8740157480314961,
          "duration": 0.246975822916653
        },
        {
          "name": "F6",
          "midi": 89,
          "time": 131.37097649999993,
          "velocity": 0.84251968503937,
          "duration": 0.3427419583333631
        },
        {
          "name": "F5",
          "midi": 77,
          "time": 131.37097649999993,
          "velocity": 0.7952755905511811,
          "duration": 0.26209679166666433
        },
        {
          "name": "A5",
          "midi": 81,
          "time": 131.37097649999993,
          "velocity": 0.7716535433070866,
          "duration": 0.31754034375001083
        },
        {
          "name": "F4",
          "midi": 65,
          "time": 131.37097649999993,
          "velocity": 0.8267716535433071,
          "duration": 0.32762098958335173
        },
        {
          "name": "A4",
          "midi": 69,
          "time": 131.37097649999993,
          "velocity": 0.8818897637795275,
          "duration": 0.3578629270833744
        },
        {
          "name": "A6",
          "midi": 93,
          "time": 131.85484749999998,
          "velocity": 0.8740157480314961,
          "duration": 0.2721774375000052
        },
        {
          "name": "F6",
          "midi": 89,
          "time": 131.85484749999998,
          "velocity": 0.8582677165354331,
          "duration": 0.3225806666666813
        },
        {
          "name": "A5",
          "midi": 81,
          "time": 131.85484749999998,
          "velocity": 0.7874015748031497,
          "duration": 0.36290325000001644
        },
        {
          "name": "F5",
          "midi": 77,
          "time": 131.85484749999998,
          "velocity": 0.8188976377952756,
          "duration": 0.3125000208333404
        },
        {
          "name": "A4",
          "midi": 69,
          "time": 131.85484749999998,
          "velocity": 0.9291338582677166,
          "duration": 0.39818551041668115
        },
        {
          "name": "F4",
          "midi": 65,
          "time": 131.85484749999998,
          "velocity": 0.7559055118110236,
          "duration": 0.3830645416666698
        },
        {
          "name": "G6",
          "midi": 91,
          "time": 132.3387185,
          "velocity": 0.7874015748031497,
          "duration": 0.28729840624998815
        },
        {
          "name": "E6",
          "midi": 88,
          "time": 132.3387185,
          "velocity": 0.8267716535433071,
          "duration": 0.29737905208332904
        },
        {
          "name": "G5",
          "midi": 79,
          "time": 132.3387185,
          "velocity": 0.7874015748031497,
          "duration": 0.3125000208333404
        },
        {
          "name": "E5",
          "midi": 76,
          "time": 132.3387185,
          "velocity": 0.7322834645669292,
          "duration": 0.33266131249999376
        },
        {
          "name": "G4",
          "midi": 67,
          "time": 132.3387185,
          "velocity": 0.7637795275590551,
          "duration": 0.3830645416666698
        },
        {
          "name": "E4",
          "midi": 64,
          "time": 132.3387185,
          "velocity": 0.6614173228346457,
          "duration": 0.36794357291665847
        },
        {
          "name": "G6",
          "midi": 91,
          "time": 132.8225895,
          "velocity": 0.9133858267716536,
          "duration": 0.48891132291666395
        },
        {
          "name": "E6",
          "midi": 88,
          "time": 132.8225895,
          "velocity": 0.8188976377952756,
          "duration": 0.46370970833334013
        },
        {
          "name": "E5",
          "midi": 76,
          "time": 132.8225895,
          "velocity": 0.7874015748031497,
          "duration": 0.5241935833333287
        },
        {
          "name": "G5",
          "midi": 79,
          "time": 132.8225895,
          "velocity": 0.8582677165354331,
          "duration": 0.5292339062499991
        },
        {
          "name": "E4",
          "midi": 64,
          "time": 132.8225895,
          "velocity": 0.7322834645669292,
          "duration": 0.5292339062499991
        },
        {
          "name": "G4",
          "midi": 67,
          "time": 132.8225895,
          "velocity": 0.8188976377952756,
          "duration": 0.5040322916666753
        },
        {
          "name": "D1",
          "midi": 26,
          "time": 133.79033149999998,
          "velocity": 1,
          "duration": 5.609879406250059
        },
        {
          "name": "D2",
          "midi": 38,
          "time": 133.79033149999998,
          "velocity": 1,
          "duration": 5.6199600520834
        },
        {
          "name": "A6",
          "midi": 93,
          "time": 134.27420249999997,
          "velocity": 0.8188976377952756,
          "duration": 0.26209679166666433
        },
        {
          "name": "F6",
          "midi": 89,
          "time": 134.27420249999997,
          "velocity": 0.8188976377952756,
          "duration": 0.30745969791666994
        },
        {
          "name": "F5",
          "midi": 77,
          "time": 134.27420249999997,
          "velocity": 0.7322834645669292,
          "duration": 0.26209679166666433
        },
        {
          "name": "A5",
          "midi": 81,
          "time": 134.27420249999997,
          "velocity": 0.7716535433070866,
          "duration": 0.3276209895833233
        },
        {
          "name": "A4",
          "midi": 69,
          "time": 134.27420249999997,
          "velocity": 0.7716535433070866,
          "duration": 0.3276209895833233
        },
        {
          "name": "F4",
          "midi": 65,
          "time": 134.27420249999997,
          "velocity": 0.7244094488188977,
          "duration": 0.3024193749999995
        },
        {
          "name": "A6",
          "midi": 93,
          "time": 134.75807349999997,
          "velocity": 0.8582677165354331,
          "duration": 0.3377016354166642
        },
        {
          "name": "F6",
          "midi": 89,
          "time": 134.75807349999997,
          "velocity": 0.84251968503937,
          "duration": 0.4032258333333516
        },
        {
          "name": "A5",
          "midi": 81,
          "time": 134.75807349999997,
          "velocity": 0.7559055118110236,
          "duration": 0.3830645416666698
        },
        {
          "name": "F5",
          "midi": 77,
          "time": 134.75807349999997,
          "velocity": 0.7716535433070866,
          "duration": 0.33266131249999376
        },
        {
          "name": "A4",
          "midi": 69,
          "time": 134.75807349999997,
          "velocity": 0.8031496062992126,
          "duration": 0.4032258333333516
        },
        {
          "name": "F4",
          "midi": 65,
          "time": 134.75807349999997,
          "velocity": 0.6692913385826772,
          "duration": 0.39818551041668115
        },
        {
          "name": "G6",
          "midi": 91,
          "time": 135.2419445,
          "velocity": 0.8188976377952756,
          "duration": 0.30745969791666994
        },
        {
          "name": "E6",
          "midi": 88,
          "time": 135.2419445,
          "velocity": 0.8267716535433071,
          "duration": 0.3377016354166642
        },
        {
          "name": "E5",
          "midi": 76,
          "time": 135.2419445,
          "velocity": 0.6771653543307087,
          "duration": 0.4032258333333232
        },
        {
          "name": "G5",
          "midi": 79,
          "time": 135.2419445,
          "velocity": 0.7637795275590551,
          "duration": 0.39818551041665273
        },
        {
          "name": "G4",
          "midi": 67,
          "time": 135.2419445,
          "velocity": 0.7874015748031497,
          "duration": 0.39818551041665273
        },
        {
          "name": "E4",
          "midi": 64,
          "time": 135.2419445,
          "velocity": 0.6771653543307087,
          "duration": 0.4032258333333232
        },
        {
          "name": "F6",
          "midi": 89,
          "time": 135.72581549999998,
          "velocity": 0.8188976377952756,
          "duration": 0.8870968333333451
        },
        {
          "name": "D6",
          "midi": 86,
          "time": 135.72581549999998,
          "velocity": 0.7952755905511811,
          "duration": 0.8820565104166747
        },
        {
          "name": "F5",
          "midi": 77,
          "time": 135.72581549999998,
          "velocity": 0.8031496062992126,
          "duration": 0.8770161875000042
        },
        {
          "name": "D5",
          "midi": 74,
          "time": 135.72581549999998,
          "velocity": 0.6692913385826772,
          "duration": 0.8870968333333451
        },
        {
          "name": "F4",
          "midi": 65,
          "time": 135.72581549999998,
          "velocity": 0.7559055118110236,
          "duration": 0.8921371562500156
        },
        {
          "name": "D4",
          "midi": 62,
          "time": 135.72581549999998,
          "velocity": 0.7086614173228346,
          "duration": 0.9022178020833564
        },
        {
          "name": "G6",
          "midi": 91,
          "time": 136.6935575,
          "velocity": 0.8582677165354331,
          "duration": 0.8870968333333735
        },
        {
          "name": "E6",
          "midi": 88,
          "time": 136.6935575,
          "velocity": 0.8582677165354331,
          "duration": 0.8719758645833622
        },
        {
          "name": "G5",
          "midi": 79,
          "time": 136.6935575,
          "velocity": 0.7322834645669292,
          "duration": 0.8568548958333508
        },
        {
          "name": "E5",
          "midi": 76,
          "time": 136.6935575,
          "velocity": 0.6929133858267716,
          "duration": 0.8518145729166804
        },
        {
          "name": "G4",
          "midi": 67,
          "time": 136.6935575,
          "velocity": 0.7874015748031497,
          "duration": 0.9274194166667087
        },
        {
          "name": "E4",
          "midi": 64,
          "time": 136.6935575,
          "velocity": 0.6771653543307087,
          "duration": 0.9173387708333678
        },
        {
          "name": "F6",
          "midi": 89,
          "time": 137.66129950000004,
          "velocity": 0.8582677165354331,
          "duration": 0.4284274479166754
        },
        {
          "name": "D6",
          "midi": 86,
          "time": 137.66129950000004,
          "velocity": 0.8740157480314961,
          "duration": 0.45362906249999924
        },
        {
          "name": "D5",
          "midi": 74,
          "time": 137.66129950000004,
          "velocity": 0.6299212598425197,
          "duration": 0.5090726145833173
        },
        {
          "name": "F5",
          "midi": 77,
          "time": 137.66129950000004,
          "velocity": 0.7244094488188977,
          "duration": 0.46370970833334013
        },
        {
          "name": "F4",
          "midi": 65,
          "time": 137.66129950000004,
          "velocity": 0.7874015748031497,
          "duration": 0.4183468020833345
        },
        {
          "name": "D4",
          "midi": 62,
          "time": 137.66129950000004,
          "velocity": 0.6929133858267716,
          "duration": 0.40826615624999363
        },
        {
          "name": "G6",
          "midi": 91,
          "time": 138.14517050000003,
          "velocity": 0.8188976377952756,
          "duration": 1.3659275104166682
        },
        {
          "name": "E6",
          "midi": 88,
          "time": 138.14517050000003,
          "velocity": 0.8267716535433071,
          "duration": 1.4062500937500317
        },
        {
          "name": "E5",
          "midi": 76,
          "time": 138.14517050000003,
          "velocity": 0.7874015748031497,
          "duration": 1.4516130000000373
        },
        {
          "name": "G5",
          "midi": 79,
          "time": 138.14517050000003,
          "velocity": 0.7244094488188977,
          "duration": 1.4516130000000373
        },
        {
          "name": "E4",
          "midi": 64,
          "time": 138.14517050000003,
          "velocity": 0.6771653543307087,
          "duration": 1.3911291250000204
        },
        {
          "name": "G4",
          "midi": 67,
          "time": 138.14517050000003,
          "velocity": 0.7401574803149606,
          "duration": 1.3810484791666795
        },
        {
          "name": "D1",
          "midi": 26,
          "time": 139.59678350000007,
          "velocity": 1,
          "duration": 2.716734052083325
        },
        {
          "name": "D2",
          "midi": 38,
          "time": 139.59678350000007,
          "velocity": 1,
          "duration": 2.7872985729166544
        },
        {
          "name": "A6",
          "midi": 93,
          "time": 140.08065450000007,
          "velocity": 0.7874015748031497,
          "duration": 0.2772177604166757
        },
        {
          "name": "F6",
          "midi": 89,
          "time": 140.08065450000007,
          "velocity": 0.8031496062992126,
          "duration": 0.2822580833333461
        },
        {
          "name": "F5",
          "midi": 77,
          "time": 140.08065450000007,
          "velocity": 0.7244094488188977,
          "duration": 0.26209679166666433
        },
        {
          "name": "A5",
          "midi": 81,
          "time": 140.08065450000007,
          "velocity": 0.7401574803149606,
          "duration": 0.2570564687499939
        },
        {
          "name": "A4",
          "midi": 69,
          "time": 140.08065450000007,
          "velocity": 0.7322834645669292,
          "duration": 0.3830645416666698
        },
        {
          "name": "F4",
          "midi": 65,
          "time": 140.08065450000007,
          "velocity": 0.7165354330708661,
          "duration": 0.34274195833333465
        },
        {
          "name": "A6",
          "midi": 93,
          "time": 140.56452550000006,
          "velocity": 0.7559055118110236,
          "duration": 0.32258066666665286
        },
        {
          "name": "F6",
          "midi": 89,
          "time": 140.56452550000006,
          "velocity": 0.8582677165354331,
          "duration": 0.3377016354166642
        },
        {
          "name": "F5",
          "midi": 77,
          "time": 140.56452550000006,
          "velocity": 0.7874015748031497,
          "duration": 0.40826615624999363
        },
        {
          "name": "A5",
          "midi": 81,
          "time": 140.56452550000006,
          "velocity": 0.7716535433070866,
          "duration": 0.43346777083331745
        },
        {
          "name": "F4",
          "midi": 65,
          "time": 140.56452550000006,
          "velocity": 0.7086614173228346,
          "duration": 0.32258066666665286
        },
        {
          "name": "A4",
          "midi": 69,
          "time": 140.56452550000006,
          "velocity": 0.7322834645669292,
          "duration": 0.362903249999988
        },
        {
          "name": "G6",
          "midi": 91,
          "time": 141.04839650000005,
          "velocity": 0.8267716535433071,
          "duration": 0.28729840624998815
        },
        {
          "name": "E6",
          "midi": 88,
          "time": 141.04839650000005,
          "velocity": 0.8976377952755905,
          "duration": 0.3024193749999995
        },
        {
          "name": "E5",
          "midi": 76,
          "time": 141.04839650000005,
          "velocity": 0.7559055118110236,
          "duration": 0.34274195833333465
        },
        {
          "name": "G5",
          "midi": 79,
          "time": 141.04839650000005,
          "velocity": 0.7165354330708661,
          "duration": 0.34274195833333465
        },
        {
          "name": "E4",
          "midi": 64,
          "time": 141.04839650000005,
          "velocity": 0.8188976377952756,
          "duration": 0.3729838958333289
        },
        {
          "name": "G4",
          "midi": 67,
          "time": 141.04839650000005,
          "velocity": 0.7559055118110236,
          "duration": 0.38810486458334026
        },
        {
          "name": "G6",
          "midi": 91,
          "time": 141.53226750000005,
          "velocity": 0.8267716535433071,
          "duration": 0.5846774583333456
        },
        {
          "name": "E6",
          "midi": 88,
          "time": 141.53226750000005,
          "velocity": 0.952755905511811,
          "duration": 0.49899196875000484
        },
        {
          "name": "E5",
          "midi": 76,
          "time": 141.53226750000005,
          "velocity": 0.7874015748031497,
          "duration": 0.5342742291666696
        },
        {
          "name": "G5",
          "midi": 79,
          "time": 141.53226750000005,
          "velocity": 0.8031496062992126,
          "duration": 0.5191532604166582
        },
        {
          "name": "E4",
          "midi": 64,
          "time": 141.53226750000005,
          "velocity": 0.8188976377952756,
          "duration": 0.5947581041666865
        },
        {
          "name": "G4",
          "midi": 67,
          "time": 141.53226750000005,
          "velocity": 0.8267716535433071,
          "duration": 0.5947581041666865
        },
        {
          "name": "D2",
          "midi": 38,
          "time": 142.50000950000006,
          "velocity": 1,
          "duration": 2.767137281250001
        },
        {
          "name": "D1",
          "midi": 26,
          "time": 142.50000950000006,
          "velocity": 1,
          "duration": 2.7620969583333306
        },
        {
          "name": "A6",
          "midi": 93,
          "time": 142.98388050000005,
          "velocity": 0.8031496062992126,
          "duration": 0.26209679166666433
        },
        {
          "name": "F6",
          "midi": 89,
          "time": 142.98388050000005,
          "velocity": 0.7952755905511811,
          "duration": 0.3024193749999995
        },
        {
          "name": "F5",
          "midi": 77,
          "time": 142.98388050000005,
          "velocity": 0.7244094488188977,
          "duration": 0.34274195833333465
        },
        {
          "name": "A5",
          "midi": 81,
          "time": 142.98388050000005,
          "velocity": 0.7559055118110236,
          "duration": 0.37802421874999936
        },
        {
          "name": "A4",
          "midi": 69,
          "time": 142.98388050000005,
          "velocity": 0.7874015748031497,
          "duration": 0.3377016354166642
        },
        {
          "name": "F4",
          "midi": 65,
          "time": 142.98388050000005,
          "velocity": 0.7637795275590551,
          "duration": 0.3276209895833233
        },
        {
          "name": "A6",
          "midi": 93,
          "time": 143.46775150000005,
          "velocity": 0.8031496062992126,
          "duration": 0.3125000208333404
        },
        {
          "name": "F6",
          "midi": 89,
          "time": 143.46775150000005,
          "velocity": 0.8267716535433071,
          "duration": 0.42338712499997655
        },
        {
          "name": "F5",
          "midi": 77,
          "time": 143.46775150000005,
          "velocity": 0.7637795275590551,
          "duration": 0.3729838958333289
        },
        {
          "name": "A5",
          "midi": 81,
          "time": 143.46775150000005,
          "velocity": 0.7637795275590551,
          "duration": 0.4032258333333232
        },
        {
          "name": "A4",
          "midi": 69,
          "time": 143.46775150000005,
          "velocity": 0.7716535433070866,
          "duration": 0.3830645416666698
        },
        {
          "name": "F4",
          "midi": 65,
          "time": 143.46775150000005,
          "velocity": 0.7007874015748031,
          "duration": 0.35282260416667555
        },
        {
          "name": "G6",
          "midi": 91,
          "time": 143.9516225,
          "velocity": 0.84251968503937,
          "duration": 0.3024193749999995
        },
        {
          "name": "E6",
          "midi": 88,
          "time": 143.9516225,
          "velocity": 0.8267716535433071,
          "duration": 0.36290325000001644
        },
        {
          "name": "E5",
          "midi": 76,
          "time": 143.9516225,
          "velocity": 0.7559055118110236,
          "duration": 0.34274195833333465
        },
        {
          "name": "G5",
          "midi": 79,
          "time": 143.9516225,
          "velocity": 0.7165354330708661,
          "duration": 0.34274195833333465
        },
        {
          "name": "G4",
          "midi": 67,
          "time": 143.9516225,
          "velocity": 0.7637795275590551,
          "duration": 0.35282260416667555
        },
        {
          "name": "E4",
          "midi": 64,
          "time": 143.9516225,
          "velocity": 0.7086614173228346,
          "duration": 0.35282260416667555
        },
        {
          "name": "G6",
          "midi": 91,
          "time": 144.43549350000004,
          "velocity": 0.8188976377952756,
          "duration": 0.45362906249999924
        },
        {
          "name": "E6",
          "midi": 88,
          "time": 144.43549350000004,
          "velocity": 0.8818897637795275,
          "duration": 0.6098790729166979
        },
        {
          "name": "G5",
          "midi": 79,
          "time": 144.43549350000004,
          "velocity": 0.8031496062992126,
          "duration": 0.5443548750000105
        },
        {
          "name": "E5",
          "midi": 76,
          "time": 144.43549350000004,
          "velocity": 0.8188976377952756,
          "duration": 0.5645161666666638
        },
        {
          "name": "E4",
          "midi": 64,
          "time": 144.43549350000004,
          "velocity": 0.7165354330708661,
          "duration": 0.5947581041666865
        },
        {
          "name": "G4",
          "midi": 67,
          "time": 144.43549350000004,
          "velocity": 0.8267716535433071,
          "duration": 0.5796371354166752
        },
        {
          "name": "D2",
          "midi": 38,
          "time": 145.40323550000005,
          "velocity": 1,
          "duration": 5.6451616666667235
        },
        {
          "name": "D1",
          "midi": 26,
          "time": 145.40323550000005,
          "velocity": 1,
          "duration": 5.5846777916667065
        },
        {
          "name": "A6",
          "midi": 93,
          "time": 145.88710650000004,
          "velocity": 0.7952755905511811,
          "duration": 0.28729840625001657
        },
        {
          "name": "F6",
          "midi": 89,
          "time": 145.88710650000004,
          "velocity": 0.8031496062992126,
          "duration": 0.3477822812500335
        },
        {
          "name": "F5",
          "midi": 77,
          "time": 145.88710650000004,
          "velocity": 0.7322834645669292,
          "duration": 0.2822580833333461
        },
        {
          "name": "A5",
          "midi": 81,
          "time": 145.88710650000004,
          "velocity": 0.7401574803149606,
          "duration": 0.3225806666666813
        },
        {
          "name": "A4",
          "midi": 69,
          "time": 145.88710650000004,
          "velocity": 0.7401574803149606,
          "duration": 0.3326613125000222
        },
        {
          "name": "F4",
          "midi": 65,
          "time": 145.88710650000004,
          "velocity": 0.7322834645669292,
          "duration": 0.3326613125000222
        },
        {
          "name": "A6",
          "midi": 93,
          "time": 146.37097750000007,
          "velocity": 0.84251968503937,
          "duration": 0.4233871250000334
        },
        {
          "name": "F6",
          "midi": 89,
          "time": 146.37097750000007,
          "velocity": 0.84251968503937,
          "duration": 0.41834680208336295
        },
        {
          "name": "A5",
          "midi": 81,
          "time": 146.37097750000007,
          "velocity": 0.7637795275590551,
          "duration": 0.38810486458334026
        },
        {
          "name": "F5",
          "midi": 77,
          "time": 146.37097750000007,
          "velocity": 0.7874015748031497,
          "duration": 0.3729838958333289
        },
        {
          "name": "F4",
          "midi": 65,
          "time": 146.37097750000007,
          "velocity": 0.7086614173228346,
          "duration": 0.4133064791666925
        },
        {
          "name": "A4",
          "midi": 69,
          "time": 146.37097750000007,
          "velocity": 0.8267716535433071,
          "duration": 0.4032258333333516
        },
        {
          "name": "G6",
          "midi": 91,
          "time": 146.8548485000001,
          "velocity": 0.7952755905511811,
          "duration": 0.39818551041665273
        },
        {
          "name": "E6",
          "midi": 88,
          "time": 146.8548485000001,
          "velocity": 0.8267716535433071,
          "duration": 0.4183468020833345
        },
        {
          "name": "E5",
          "midi": 76,
          "time": 146.8548485000001,
          "velocity": 0.6141732283464567,
          "duration": 0.42338712500000497
        },
        {
          "name": "G5",
          "midi": 79,
          "time": 146.8548485000001,
          "velocity": 0.8031496062992126,
          "duration": 0.4032258333333232
        },
        {
          "name": "E4",
          "midi": 64,
          "time": 146.8548485000001,
          "velocity": 0.7086614173228346,
          "duration": 0.4032258333333232
        },
        {
          "name": "G4",
          "midi": 67,
          "time": 146.8548485000001,
          "velocity": 0.7874015748031497,
          "duration": 0.4032258333333232
        },
        {
          "name": "A6",
          "midi": 93,
          "time": 147.33871950000008,
          "velocity": 0.8031496062992126,
          "duration": 0.42338712500000497
        },
        {
          "name": "F6",
          "midi": 89,
          "time": 147.33871950000008,
          "velocity": 0.84251968503937,
          "duration": 0.40826615624999363
        },
        {
          "name": "A5",
          "midi": 81,
          "time": 147.33871950000008,
          "velocity": 0.7716535433070866,
          "duration": 0.362903249999988
        },
        {
          "name": "F5",
          "midi": 77,
          "time": 147.33871950000008,
          "velocity": 0.6692913385826772,
          "duration": 0.4183468020833345
        },
        {
          "name": "F4",
          "midi": 65,
          "time": 147.33871950000008,
          "velocity": 0.6692913385826772,
          "duration": 0.473790354166681
        },
        {
          "name": "A4",
          "midi": 69,
          "time": 147.33871950000008,
          "velocity": 0.7401574803149606,
          "duration": 0.40826615624999363
        },
        {
          "name": "A#6",
          "midi": 94,
          "time": 147.8225905000001,
          "velocity": 0.7322834645669292,
          "duration": 0.40826615624999363
        },
        {
          "name": "G6",
          "midi": 91,
          "time": 147.8225905000001,
          "velocity": 0.7637795275590551,
          "duration": 0.4133064791666641
        },
        {
          "name": "G5",
          "midi": 79,
          "time": 147.8225905000001,
          "velocity": 0.6220472440944882,
          "duration": 0.4586693854166697
        },
        {
          "name": "A#5",
          "midi": 82,
          "time": 147.8225905000001,
          "velocity": 0.6377952755905512,
          "duration": 0.4586693854166697
        },
        {
          "name": "A#4",
          "midi": 70,
          "time": 147.8225905000001,
          "velocity": 0.6850393700787402,
          "duration": 0.5090726145833173
        },
        {
          "name": "G4",
          "midi": 67,
          "time": 147.8225905000001,
          "velocity": 0.6692913385826772,
          "duration": 0.48891132291666395
        },
        {
          "name": "A6",
          "midi": 93,
          "time": 148.3064615000001,
          "velocity": 0.7874015748031497,
          "duration": 0.4133064791666641
        },
        {
          "name": "F6",
          "midi": 89,
          "time": 148.3064615000001,
          "velocity": 0.7244094488188977,
          "duration": 0.49899196875000484
        },
        {
          "name": "A5",
          "midi": 81,
          "time": 148.3064615000001,
          "velocity": 0.7637795275590551,
          "duration": 0.4485887395833288
        },
        {
          "name": "F5",
          "midi": 77,
          "time": 148.3064615000001,
          "velocity": 0.6456692913385826,
          "duration": 0.44354841666665834
        },
        {
          "name": "F4",
          "midi": 65,
          "time": 148.3064615000001,
          "velocity": 0.6456692913385826,
          "duration": 0.46370970833334013
        },
        {
          "name": "A4",
          "midi": 69,
          "time": 148.3064615000001,
          "velocity": 0.7244094488188977,
          "duration": 0.46370970833334013
        },
        {
          "name": "G6",
          "midi": 91,
          "time": 148.7903325000001,
          "velocity": 0.7559055118110236,
          "duration": 0.36290325000001644
        },
        {
          "name": "E6",
          "midi": 88,
          "time": 148.7903325000001,
          "velocity": 0.7559055118110236,
          "duration": 0.5040322916666469
        },
        {
          "name": "G5",
          "midi": 79,
          "time": 148.7903325000001,
          "velocity": 0.7086614173228346,
          "duration": 0.4385080937500163
        },
        {
          "name": "E5",
          "midi": 76,
          "time": 148.7903325000001,
          "velocity": 0.6220472440944882,
          "duration": 0.46370970833334013
        },
        {
          "name": "E4",
          "midi": 64,
          "time": 148.7903325000001,
          "velocity": 0.6377952755905512,
          "duration": 0.5040322916666469
        },
        {
          "name": "G4",
          "midi": 67,
          "time": 148.7903325000001,
          "velocity": 0.7007874015748031,
          "duration": 0.5040322916666469
        },
        {
          "name": "F6",
          "midi": 89,
          "time": 149.27420350000008,
          "velocity": 0.7637795275590551,
          "duration": 0.3830645416666414
        },
        {
          "name": "D6",
          "midi": 86,
          "time": 149.27420350000008,
          "velocity": 0.7401574803149606,
          "duration": 0.4737903541666242
        },
        {
          "name": "D5",
          "midi": 74,
          "time": 149.27420350000008,
          "velocity": 0.6456692913385826,
          "duration": 0.4536290624999708
        },
        {
          "name": "F5",
          "midi": 77,
          "time": 149.27420350000008,
          "velocity": 0.7401574803149606,
          "duration": 0.4183468020833061
        },
        {
          "name": "F4",
          "midi": 65,
          "time": 149.27420350000008,
          "velocity": 0.7086614173228346,
          "duration": 0.4838709999999651
        },
        {
          "name": "D4",
          "midi": 62,
          "time": 149.27420350000008,
          "velocity": 0.6141732283464567,
          "duration": 0.4989919687499764
        },
        {
          "name": "C4",
          "midi": 60,
          "time": 149.27420350000008,
          "velocity": 0.5826771653543307,
          "duration": 0.12096774999997706
        },
        {
          "name": "G6",
          "midi": 91,
          "time": 149.75807450000005,
          "velocity": 0.7716535433070866,
          "duration": 0.4284274479166754
        },
        {
          "name": "E6",
          "midi": 88,
          "time": 149.75807450000005,
          "velocity": 0.7086614173228346,
          "duration": 0.49899196875003327
        },
        {
          "name": "G5",
          "midi": 79,
          "time": 149.75807450000005,
          "velocity": 0.7007874015748031,
          "duration": 0.5241935833333571
        },
        {
          "name": "E5",
          "midi": 76,
          "time": 149.75807450000005,
          "velocity": 0.5984251968503937,
          "duration": 0.46370970833334013
        },
        {
          "name": "G4",
          "midi": 67,
          "time": 149.75807450000005,
          "velocity": 0.6929133858267716,
          "duration": 0.534274229166698
        },
        {
          "name": "E4",
          "midi": 64,
          "time": 149.75807450000005,
          "velocity": 0.6456692913385826,
          "duration": 0.4788306770833515
        },
        {
          "name": "F6",
          "midi": 89,
          "time": 150.24194550000007,
          "velocity": 0.7716535433070866,
          "duration": 0.39818551041668115
        },
        {
          "name": "D6",
          "midi": 86,
          "time": 150.24194550000007,
          "velocity": 0.7007874015748031,
          "duration": 0.4586693854166981
        },
        {
          "name": "F5",
          "midi": 77,
          "time": 150.24194550000007,
          "velocity": 0.7165354330708661,
          "duration": 0.45362906250002766
        },
        {
          "name": "D5",
          "midi": 74,
          "time": 150.24194550000007,
          "velocity": 0.6141732283464567,
          "duration": 0.4284274479166754
        },
        {
          "name": "D4",
          "midi": 62,
          "time": 150.24194550000007,
          "velocity": 0.6377952755905512,
          "duration": 0.44354841666668676
        },
        {
          "name": "F4",
          "midi": 65,
          "time": 150.24194550000007,
          "velocity": 0.6692913385826772,
          "duration": 0.4586693854166981
        },
        {
          "name": "E6",
          "midi": 88,
          "time": 150.7258165000001,
          "velocity": 0.7716535433070866,
          "duration": 0.3125000208333404
        },
        {
          "name": "C#6",
          "midi": 85,
          "time": 150.7258165000001,
          "velocity": 0.8110236220472441,
          "duration": 0.3225806666666813
        },
        {
          "name": "C#5",
          "midi": 73,
          "time": 150.7258165000001,
          "velocity": 0.6141732283464567,
          "duration": 0.26209679166666433
        },
        {
          "name": "E5",
          "midi": 76,
          "time": 150.7258165000001,
          "velocity": 0.7244094488188977,
          "duration": 0.3679435729166869
        },
        {
          "name": "C#4",
          "midi": 61,
          "time": 150.7258165000001,
          "velocity": 0.6456692913385826,
          "duration": 0.4133064791666925
        },
        {
          "name": "E4",
          "midi": 64,
          "time": 150.7258165000001,
          "velocity": 0.7874015748031497,
          "duration": 0.4032258333333516
        },
        {
          "name": "A4",
          "midi": 69,
          "time": 150.8467842500001,
          "velocity": 0.7874015748031497,
          "duration": 0.4838710000000219
        },
        {
          "name": "D4",
          "midi": 62,
          "time": 151.20968750000011,
          "velocity": 0.8267716535433071,
          "duration": 0.24193550000001096
        },
        {
          "name": "D6",
          "midi": 86,
          "time": 151.20968750000011,
          "velocity": 0.8267716535433071,
          "duration": 0.12096775000000548
        },
        {
          "name": "A4",
          "midi": 69,
          "time": 151.20968750000011,
          "velocity": 0.8267716535433071,
          "duration": 0.9324597395833507
        },
        {
          "name": "D5",
          "midi": 74,
          "time": 151.20968750000011,
          "velocity": 0.8188976377952756,
          "duration": 0.4032258333333516
        },
        {
          "name": "D4",
          "midi": 62,
          "time": 151.20968750000011,
          "velocity": 0.7874015748031497,
          "duration": 0.4032258333333516
        },
        {
          "name": "D1",
          "midi": 26,
          "time": 151.20968750000011,
          "velocity": 1,
          "duration": 0.4032258333333516
        },
        {
          "name": "D2",
          "midi": 38,
          "time": 151.20968750000011,
          "velocity": 1,
          "duration": 0.42338712500000497
        },
        {
          "name": "D5",
          "midi": 74,
          "time": 151.45162300000013,
          "velocity": 0.8267716535433071,
          "duration": 0.24193549999998254
        },
        {
          "name": "D4",
          "midi": 62,
          "time": 151.6935585000001,
          "velocity": 0.8267716535433071,
          "duration": 0.12096775000000548
        },
        {
          "name": "D4",
          "midi": 62,
          "time": 151.6935585000001,
          "velocity": 0.8031496062992126,
          "duration": 0.8870968333333451
        },
        {
          "name": "D5",
          "midi": 74,
          "time": 151.6935585000001,
          "velocity": 0.8976377952755905,
          "duration": 0.4838710000000219
        },
        {
          "name": "C2",
          "midi": 36,
          "time": 151.6935585000001,
          "velocity": 1,
          "duration": 0.9475807083333336
        },
        {
          "name": "C1",
          "midi": 24,
          "time": 151.6935585000001,
          "velocity": 1,
          "duration": 0.9223790937500098
        },
        {
          "name": "D5",
          "midi": 74,
          "time": 151.93549400000012,
          "velocity": 0.8267716535433071,
          "duration": 0.6048387500000274
        },
        {
          "name": "D6",
          "midi": 86,
          "time": 152.17742950000013,
          "velocity": 0.8267716535433071,
          "duration": 0.24193550000001096
        },
        {
          "name": "D5",
          "midi": 74,
          "time": 152.41936500000014,
          "velocity": 0.8267716535433071,
          "duration": 0.14112904166665885
        },
        {
          "name": "D6",
          "midi": 86,
          "time": 152.6613005000001,
          "velocity": 0.8267716535433071,
          "duration": 0.12096775000000548
        },
        {
          "name": "D5",
          "midi": 74,
          "time": 152.6613005000001,
          "velocity": 0.8976377952755905,
          "duration": 0.35282260416667555
        },
        {
          "name": "D4",
          "midi": 62,
          "time": 152.6613005000001,
          "velocity": 0.7716535433070866,
          "duration": 0.35282260416667555
        },
        {
          "name": "D2",
          "midi": 38,
          "time": 152.6613005000001,
          "velocity": 1,
          "duration": 0.39314518750003913
        },
        {
          "name": "D1",
          "midi": 26,
          "time": 152.6613005000001,
          "velocity": 1,
          "duration": 0.3780242187500278
        },
        {
          "name": "D5",
          "midi": 74,
          "time": 152.9032360000001,
          "velocity": 0.8267716535433071,
          "duration": 0.12096775000000548
        },
        {
          "name": "D4",
          "midi": 62,
          "time": 153.14517150000015,
          "velocity": 0.8267716535433071,
          "duration": 0.12096775000000548
        },
        {
          "name": "D4",
          "midi": 62,
          "time": 153.14517150000015,
          "velocity": 0.7244094488188977,
          "duration": 0.8669355416666917
        },
        {
          "name": "D5",
          "midi": 74,
          "time": 153.14517150000015,
          "velocity": 0.8818897637795275,
          "duration": 0.4838710000000219
        },
        {
          "name": "C1",
          "midi": 24,
          "time": 153.14517150000015,
          "velocity": 1,
          "duration": 0.8669355416666917
        },
        {
          "name": "C2",
          "midi": 36,
          "time": 153.14517150000015,
          "velocity": 1,
          "duration": 0.8669355416666917
        },
        {
          "name": "D5",
          "midi": 74,
          "time": 153.38710700000016,
          "velocity": 0.8267716535433071,
          "duration": 0.6048387500000274
        },
        {
          "name": "D6",
          "midi": 86,
          "time": 153.62904250000017,
          "velocity": 0.8267716535433071,
          "duration": 0.12096775000000548
        },
        {
          "name": "D5",
          "midi": 74,
          "time": 153.87097800000018,
          "velocity": 0.8267716535433071,
          "duration": 0.1562500104166702
        },
        {
          "name": "D6",
          "midi": 86,
          "time": 154.1129135000002,
          "velocity": 0.8267716535433071,
          "duration": 0.12096775000000548
        },
        {
          "name": "D5",
          "midi": 74,
          "time": 154.1129135000002,
          "velocity": 0.8818897637795275,
          "duration": 0.36290325000001644
        },
        {
          "name": "D4",
          "midi": 62,
          "time": 154.1129135000002,
          "velocity": 0.8188976377952756,
          "duration": 0.3830645416666698
        },
        {
          "name": "D1",
          "midi": 26,
          "time": 154.1129135000002,
          "velocity": 1,
          "duration": 0.4133064791666641
        },
        {
          "name": "D2",
          "midi": 38,
          "time": 154.1129135000002,
          "velocity": 1,
          "duration": 0.4183468020833345
        },
        {
          "name": "D5",
          "midi": 74,
          "time": 154.3548490000002,
          "velocity": 0.8267716535433071,
          "duration": 0.246975822916653
        },
        {
          "name": "D4",
          "midi": 62,
          "time": 154.59678450000018,
          "velocity": 0.8267716535433071,
          "duration": 0.12096775000000548
        },
        {
          "name": "C3",
          "midi": 48,
          "time": 154.59678450000018,
          "velocity": 0.6614173228346457,
          "duration": 0.37298389583335734
        },
        {
          "name": "C4",
          "midi": 60,
          "time": 154.59678450000018,
          "velocity": 0.7874015748031497,
          "duration": 0.3981855104167096
        },
        {
          "name": "C2",
          "midi": 36,
          "time": 154.59678450000018,
          "velocity": 1,
          "duration": 0.38306454166669823
        },
        {
          "name": "C1",
          "midi": 24,
          "time": 154.59678450000018,
          "velocity": 1,
          "duration": 0.38306454166669823
        },
        {
          "name": "D5",
          "midi": 74,
          "time": 154.8387200000002,
          "velocity": 0.8267716535433071,
          "duration": 0.24193550000003938
        },
        {
          "name": "D6",
          "midi": 86,
          "time": 155.08065550000023,
          "velocity": 0.8267716535433071,
          "duration": 0.12096775000000548
        },
        {
          "name": "D3",
          "midi": 50,
          "time": 155.08065550000023,
          "velocity": 0.5905511811023622,
          "duration": 0.37298389583335734
        },
        {
          "name": "D4",
          "midi": 62,
          "time": 155.08065550000023,
          "velocity": 0.7322834645669292,
          "duration": 0.37298389583335734
        },
        {
          "name": "D5",
          "midi": 74,
          "time": 155.08065550000023,
          "velocity": 0.8818897637795275,
          "duration": 0.36290325000001644
        },
        {
          "name": "D1",
          "midi": 26,
          "time": 155.08065550000023,
          "velocity": 1,
          "duration": 0.4133064791666925
        },
        {
          "name": "D2",
          "midi": 38,
          "time": 155.08065550000023,
          "velocity": 1,
          "duration": 0.4032258333333516
        },
        {
          "name": "D5",
          "midi": 74,
          "time": 155.32259100000024,
          "velocity": 0.8267716535433071,
          "duration": 0.17641130208335198
        },
        {
          "name": "D6",
          "midi": 86,
          "time": 155.56452650000026,
          "velocity": 0.8267716535433071,
          "duration": 0.12096775000000548
        },
        {
          "name": "C4",
          "midi": 60,
          "time": 155.56452650000026,
          "velocity": 0.7952755905511811,
          "duration": 0.36290325000001644
        },
        {
          "name": "C3",
          "midi": 48,
          "time": 155.56452650000026,
          "velocity": 0.7874015748031497,
          "duration": 0.3326613125000222
        },
        {
          "name": "C1",
          "midi": 24,
          "time": 155.56452650000026,
          "velocity": 1,
          "duration": 0.4233871250000334
        },
        {
          "name": "C2",
          "midi": 36,
          "time": 155.56452650000026,
          "velocity": 1,
          "duration": 0.40826615625002205
        },
        {
          "name": "D5",
          "midi": 74,
          "time": 155.80646200000027,
          "velocity": 0.8267716535433071,
          "duration": 0.12096775000000548
        },
        {
          "name": "D4",
          "midi": 62,
          "time": 156.04839750000028,
          "velocity": 0.8267716535433071,
          "duration": 0.12096775000000548
        },
        {
          "name": "D3",
          "midi": 50,
          "time": 156.04839750000028,
          "velocity": 0.6771653543307087,
          "duration": 0.3830645416666698
        },
        {
          "name": "D4",
          "midi": 62,
          "time": 156.04839750000028,
          "velocity": 0.84251968503937,
          "duration": 0.3830645416666698
        },
        {
          "name": "D5",
          "midi": 74,
          "time": 156.04839750000028,
          "velocity": 0.9291338582677166,
          "duration": 0.3830645416666698
        },
        {
          "name": "D1",
          "midi": 26,
          "time": 156.04839750000028,
          "velocity": 1,
          "duration": 0.42338712500000497
        },
        {
          "name": "D2",
          "midi": 38,
          "time": 156.04839750000028,
          "velocity": 1,
          "duration": 0.4284274479166754
        },
        {
          "name": "D5",
          "midi": 74,
          "time": 156.2903330000003,
          "velocity": 0.8267716535433071,
          "duration": 0.24193550000001096
        },
        {
          "name": "D6",
          "midi": 86,
          "time": 156.5322685000003,
          "velocity": 0.8267716535433071,
          "duration": 0.12096775000000548
        },
        {
          "name": "C4",
          "midi": 60,
          "time": 156.5322685000003,
          "velocity": 0.7165354330708661,
          "duration": 0.3830645416666698
        },
        {
          "name": "C3",
          "midi": 48,
          "time": 156.5322685000003,
          "velocity": 0.7716535433070866,
          "duration": 0.3477822812500051
        },
        {
          "name": "C1",
          "midi": 24,
          "time": 156.5322685000003,
          "velocity": 1,
          "duration": 0.4032258333333232
        },
        {
          "name": "C2",
          "midi": 36,
          "time": 156.5322685000003,
          "velocity": 1,
          "duration": 0.4032258333333232
        },
        {
          "name": "D5",
          "midi": 74,
          "time": 156.7742040000003,
          "velocity": 0.8267716535433071,
          "duration": 0.12096775000000548
        },
        {
          "name": "D6",
          "midi": 86,
          "time": 157.0161395000003,
          "velocity": 0.8267716535433071,
          "duration": 0.12096775000000548
        },
        {
          "name": "D3",
          "midi": 50,
          "time": 157.0161395000003,
          "velocity": 0.5984251968503937,
          "duration": 0.35282260416667555
        },
        {
          "name": "D4",
          "midi": 62,
          "time": 157.0161395000003,
          "velocity": 0.8188976377952756,
          "duration": 0.3477822812500051
        },
        {
          "name": "D5",
          "midi": 74,
          "time": 157.0161395000003,
          "velocity": 0.9133858267716536,
          "duration": 0.3830645416666698
        },
        {
          "name": "D1",
          "midi": 26,
          "time": 157.0161395000003,
          "velocity": 1,
          "duration": 0.4032258333333232
        },
        {
          "name": "D2",
          "midi": 38,
          "time": 157.0161395000003,
          "velocity": 1,
          "duration": 0.428427447916647
        },
        {
          "name": "D5",
          "midi": 74,
          "time": 157.2580750000003,
          "velocity": 0.8267716535433071,
          "duration": 0.24193549999998254
        },
        {
          "name": "D4",
          "midi": 62,
          "time": 157.5000105000003,
          "velocity": 0.8267716535433071,
          "duration": 0.12096775000000548
        },
        {
          "name": "C4",
          "midi": 60,
          "time": 157.5000105000003,
          "velocity": 0.7007874015748031,
          "duration": 0.357862927083346
        },
        {
          "name": "C3",
          "midi": 48,
          "time": 157.5000105000003,
          "velocity": 0.7716535433070866,
          "duration": 0.3225806666666813
        },
        {
          "name": "C1",
          "midi": 24,
          "time": 157.5000105000003,
          "velocity": 1,
          "duration": 0.4032258333333516
        },
        {
          "name": "C2",
          "midi": 36,
          "time": 157.5000105000003,
          "velocity": 1,
          "duration": 0.37298389583335734
        },
        {
          "name": "D5",
          "midi": 74,
          "time": 157.7419460000003,
          "velocity": 0.8267716535433071,
          "duration": 0.24193550000001096
        },
        {
          "name": "D6",
          "midi": 86,
          "time": 157.9838815000003,
          "velocity": 0.8267716535433071,
          "duration": 0.12096775000000548
        },
        {
          "name": "D3",
          "midi": 50,
          "time": 157.9838815000003,
          "velocity": 0.6456692913385826,
          "duration": 0.3679435729166869
        },
        {
          "name": "D4",
          "midi": 62,
          "time": 157.9838815000003,
          "velocity": 0.7874015748031497,
          "duration": 0.36290325000001644
        },
        {
          "name": "D5",
          "midi": 74,
          "time": 157.9838815000003,
          "velocity": 0.9133858267716536,
          "duration": 0.38306454166669823
        },
        {
          "name": "D1",
          "midi": 26,
          "time": 157.9838815000003,
          "velocity": 1,
          "duration": 0.37298389583335734
        },
        {
          "name": "D2",
          "midi": 38,
          "time": 157.9838815000003,
          "velocity": 1,
          "duration": 0.37298389583335734
        },
        {
          "name": "D5",
          "midi": 74,
          "time": 158.22581700000032,
          "velocity": 0.8267716535433071,
          "duration": 0.24193550000001096
        },
        {
          "name": "D6",
          "midi": 86,
          "time": 158.46775250000033,
          "velocity": 0.8267716535433071,
          "duration": 0.12096775000000548
        },
        {
          "name": "C4",
          "midi": 60,
          "time": 158.46775250000033,
          "velocity": 0.6456692913385826,
          "duration": 0.34274195833333465
        },
        {
          "name": "C3",
          "midi": 48,
          "time": 158.46775250000033,
          "velocity": 0.7086614173228346,
          "duration": 0.3024193749999995
        },
        {
          "name": "C2",
          "midi": 36,
          "time": 158.46775250000033,
          "velocity": 1,
          "duration": 0.3830645416666698
        },
        {
          "name": "C1",
          "midi": 24,
          "time": 158.46775250000033,
          "velocity": 1,
          "duration": 0.39818551041668115
        },
        {
          "name": "D5",
          "midi": 74,
          "time": 158.70968800000034,
          "velocity": 0.8267716535433071,
          "duration": 0.24193550000001096
        },
        {
          "name": "D4",
          "midi": 62,
          "time": 158.95162350000035,
          "velocity": 0.8267716535433071,
          "duration": 0.12096775000000548
        },
        {
          "name": "D3",
          "midi": 50,
          "time": 158.95162350000035,
          "velocity": 0.6377952755905512,
          "duration": 0.37298389583335734
        },
        {
          "name": "D4",
          "midi": 62,
          "time": 158.95162350000035,
          "velocity": 0.7559055118110236,
          "duration": 0.357862927083346
        },
        {
          "name": "D5",
          "midi": 74,
          "time": 158.95162350000035,
          "velocity": 0.8818897637795275,
          "duration": 0.4032258333333516
        },
        {
          "name": "D2",
          "midi": 38,
          "time": 158.95162350000035,
          "velocity": 1,
          "duration": 0.44354841666668676
        },
        {
          "name": "D1",
          "midi": 26,
          "time": 158.95162350000035,
          "velocity": 1,
          "duration": 0.4385080937500163
        },
        {
          "name": "D5",
          "midi": 74,
          "time": 159.19355900000036,
          "velocity": 0.8267716535433071,
          "duration": 0.24193550000001096
        },
        {
          "name": "D6",
          "midi": 86,
          "time": 159.43549450000037,
          "velocity": 0.8267716535433071,
          "duration": 0.12096775000000548
        },
        {
          "name": "C4",
          "midi": 60,
          "time": 159.43549450000037,
          "velocity": 0.6456692913385826,
          "duration": 0.362903249999988
        },
        {
          "name": "C3",
          "midi": 48,
          "time": 159.43549450000037,
          "velocity": 0.6929133858267716,
          "duration": 0.34274195833333465
        },
        {
          "name": "C1",
          "midi": 24,
          "time": 159.43549450000037,
          "velocity": 1,
          "duration": 0.42338712499997655
        },
        {
          "name": "C2",
          "midi": 36,
          "time": 159.43549450000037,
          "velocity": 1,
          "duration": 0.3830645416666414
        },
        {
          "name": "D5",
          "midi": 74,
          "time": 159.67743000000038,
          "velocity": 0.8267716535433071,
          "duration": 0.12096774999997706
        },
        {
          "name": "D4",
          "midi": 62,
          "time": 159.91936550000034,
          "velocity": 0.8267716535433071,
          "duration": 0.604838749999999
        },
        {
          "name": "D5",
          "midi": 74,
          "time": 159.91936550000034,
          "velocity": 0.8267716535433071,
          "duration": 0.8669355416666633
        },
        {
          "name": "D6",
          "midi": 86,
          "time": 159.91936550000034,
          "velocity": 0.8267716535433071,
          "duration": 0.8467742500000099
        },
        {
          "name": "D4",
          "midi": 62,
          "time": 159.91936550000034,
          "velocity": 0.84251968503937,
          "duration": 0.8669355416666633
        },
        {
          "name": "D5",
          "midi": 74,
          "time": 159.91936550000034,
          "velocity": 0.8976377952755905,
          "duration": 0.9677420000000154
        },
        {
          "name": "D1",
          "midi": 26,
          "time": 159.91936550000034,
          "velocity": 1,
          "duration": 0.9475807083333336
        },
        {
          "name": "D2",
          "midi": 38,
          "time": 159.91936550000034,
          "velocity": 1,
          "duration": 0.9526210312500041
        },
        {
          "name": "D4",
          "midi": 62,
          "time": 160.88710750000035,
          "velocity": 0.8267716535433071,
          "duration": 0.24193550000001096
        },
        {
          "name": "D6",
          "midi": 86,
          "time": 160.88710750000035,
          "velocity": 0.8267716535433071,
          "duration": 0.8467742500000384
        },
        {
          "name": "D5",
          "midi": 74,
          "time": 160.88710750000035,
          "velocity": 0.8267716535433071,
          "duration": 0.8467742500000384
        },
        {
          "name": "D5",
          "midi": 74,
          "time": 160.88710750000035,
          "velocity": 0.968503937007874,
          "duration": 0.8467742500000384
        },
        {
          "name": "D4",
          "midi": 62,
          "time": 160.88710750000035,
          "velocity": 0.8818897637795275,
          "duration": 0.8467742500000384
        },
        {
          "name": "D1",
          "midi": 26,
          "time": 160.88710750000035,
          "velocity": 1,
          "duration": 0.8467742500000384
        },
        {
          "name": "D2",
          "midi": 38,
          "time": 160.88710750000035,
          "velocity": 1,
          "duration": 0.8417339270833679
        },
        {
          "name": "D4",
          "midi": 62,
          "time": 161.37097850000038,
          "velocity": 0.5039370078740157,
          "duration": 0.36290325000001644
        },
        {
          "name": "D5",
          "midi": 74,
          "time": 161.37097850000038,
          "velocity": 0.5039370078740157,
          "duration": 0.36290325000001644
        },
        {
          "name": "D4",
          "midi": 62,
          "time": 161.8548495000004,
          "velocity": 0.8267716535433071,
          "duration": 0.4838709999999935
        },
        {
          "name": "D6",
          "midi": 86,
          "time": 161.8548495000004,
          "velocity": 0.8267716535433071,
          "duration": 0.7258065000000045
        },
        {
          "name": "D5",
          "midi": 74,
          "time": 161.8548495000004,
          "velocity": 0.8267716535433071,
          "duration": 0.7258065000000045
        },
        {
          "name": "D4",
          "midi": 62,
          "time": 161.8548495000004,
          "velocity": 0.8818897637795275,
          "duration": 0.8870968333333167
        },
        {
          "name": "D5",
          "midi": 74,
          "time": 161.8548495000004,
          "velocity": 0.9133858267716536,
          "duration": 0.8870968333333167
        },
        {
          "name": "D1",
          "midi": 26,
          "time": 161.8548495000004,
          "velocity": 1,
          "duration": 0.8669355416666633
        },
        {
          "name": "D2",
          "midi": 38,
          "time": 161.8548495000004,
          "velocity": 1,
          "duration": 0.8467742500000099
        },
        {
          "name": "D6",
          "midi": 86,
          "time": 162.82259150000039,
          "velocity": 0.8267716535433071,
          "duration": 1.451613000000009
        },
        {
          "name": "D5",
          "midi": 74,
          "time": 162.82259150000039,
          "velocity": 0.8267716535433071,
          "duration": 1.451613000000009
        },
        {
          "name": "D4",
          "midi": 62,
          "time": 162.82259150000039,
          "velocity": 0.8267716535433071,
          "duration": 1.451613000000009
        },
        {
          "name": "D4",
          "midi": 62,
          "time": 162.82259150000039,
          "velocity": 0.9291338582677166,
          "duration": 1.451613000000009
        },
        {
          "name": "D5",
          "midi": 74,
          "time": 162.82259150000039,
          "velocity": 0.9291338582677166,
          "duration": 1.451613000000009
        },
        {
          "name": "D1",
          "midi": 26,
          "time": 162.82259150000039,
          "velocity": 1,
          "duration": 1.451613000000009
        },
        {
          "name": "D2",
          "midi": 38,
          "time": 162.82259150000039,
          "velocity": 1,
          "duration": 1.451613000000009
        }
      ],
      "controlChanges": {},
      "id": 3,
      "name": "String Ensemble 1",
      "instrumentNumber": 48,
      "instrument": "string ensemble 1",
      "instrumentFamily": "ensemble",
      "channelNumber": 0,
      "isPercussion": false
    },
    {
      "startTime": 23.4677435,
      "duration": 151.05343748958276,
      "length": 925,
      "notes": [
        {
          "name": "D3",
          "midi": 50,
          "time": 23.4677435,
          "velocity": 0.5669291338582677,
          "duration": 0.10584678125000124
        },
        {
          "name": "D2",
          "midi": 38,
          "time": 23.4677435,
          "velocity": 0.5669291338582677,
          "duration": 0.2520161458333341
        },
        {
          "name": "D4",
          "midi": 62,
          "time": 23.709679,
          "velocity": 0.49606299212598426,
          "duration": 0.10584678125000124
        },
        {
          "name": "C4",
          "midi": 60,
          "time": 23.709679,
          "velocity": 0.5669291338582677,
          "duration": 0.13104839583333572
        },
        {
          "name": "C3",
          "midi": 48,
          "time": 23.709679,
          "velocity": 0.5669291338582677,
          "duration": 0.186491947916668
        },
        {
          "name": "A3",
          "midi": 57,
          "time": 23.9516145,
          "velocity": 0.5669291338582677,
          "duration": 0.11088710416666814
        },
        {
          "name": "A2",
          "midi": 45,
          "time": 23.9516145,
          "velocity": 0.5669291338582677,
          "duration": 0.09576613541666745
        },
        {
          "name": "D4",
          "midi": 62,
          "time": 24.193550000000002,
          "velocity": 0.49606299212598426,
          "duration": 0.08568548958333366
        },
        {
          "name": "C4",
          "midi": 60,
          "time": 24.193550000000002,
          "velocity": 0.49606299212598426,
          "duration": 0.10080645833333435
        },
        {
          "name": "D4",
          "midi": 62,
          "time": 24.193550000000002,
          "velocity": 0.5669291338582677,
          "duration": 0.1360887187500026
        },
        {
          "name": "D3",
          "midi": 50,
          "time": 24.193550000000002,
          "velocity": 0.5669291338582677,
          "duration": 0.08568548958333366
        },
        {
          "name": "D3",
          "midi": 50,
          "time": 24.435485500000006,
          "velocity": 0.5669291338582677,
          "duration": 0.11088710416666814
        },
        {
          "name": "D2",
          "midi": 38,
          "time": 24.435485500000006,
          "velocity": 0.5669291338582677,
          "duration": 0.13104839583333572
        },
        {
          "name": "D4",
          "midi": 62,
          "time": 24.67742100000001,
          "velocity": 0.49606299212598426,
          "duration": 0.08064516666666677
        },
        {
          "name": "C4",
          "midi": 60,
          "time": 24.67742100000001,
          "velocity": 0.5669291338582677,
          "duration": 0.09576613541666745
        },
        {
          "name": "C3",
          "midi": 48,
          "time": 24.67742100000001,
          "velocity": 0.5669291338582677,
          "duration": 0.07056452083333298
        },
        {
          "name": "A3",
          "midi": 57,
          "time": 24.91935650000001,
          "velocity": 0.5669291338582677,
          "duration": 0.11592742708333503
        },
        {
          "name": "A2",
          "midi": 45,
          "time": 24.91935650000001,
          "velocity": 0.5669291338582677,
          "duration": 0.08064516666666677
        },
        {
          "name": "C4",
          "midi": 60,
          "time": 25.16129200000001,
          "velocity": 0.49606299212598426,
          "duration": 0.09576613541666745
        },
        {
          "name": "D4",
          "midi": 62,
          "time": 25.16129200000001,
          "velocity": 0.49606299212598426,
          "duration": 0.08064516666666677
        },
        {
          "name": "D4",
          "midi": 62,
          "time": 25.16129200000001,
          "velocity": 0.5669291338582677,
          "duration": 0.11592742708333503
        },
        {
          "name": "D3",
          "midi": 50,
          "time": 25.16129200000001,
          "velocity": 0.5669291338582677,
          "duration": 0.12096775000000193
        },
        {
          "name": "D3",
          "midi": 50,
          "time": 25.40322750000001,
          "velocity": 0.5669291338582677,
          "duration": 0.10080645833333435
        },
        {
          "name": "D2",
          "midi": 38,
          "time": 25.40322750000001,
          "velocity": 0.5669291338582677,
          "duration": 0.14112904166666596
        },
        {
          "name": "D4",
          "midi": 62,
          "time": 25.64516300000001,
          "velocity": 0.49606299212598426,
          "duration": 0.08568548958333366
        },
        {
          "name": "C4",
          "midi": 60,
          "time": 25.64516300000001,
          "velocity": 0.5669291338582677,
          "duration": 0.09576613541666745
        },
        {
          "name": "C3",
          "midi": 48,
          "time": 25.64516300000001,
          "velocity": 0.5669291338582677,
          "duration": 0.08568548958333366
        },
        {
          "name": "A3",
          "midi": 57,
          "time": 25.88709850000001,
          "velocity": 0.5669291338582677,
          "duration": 0.09576613541666745
        },
        {
          "name": "A2",
          "midi": 45,
          "time": 25.88709850000001,
          "velocity": 0.5669291338582677,
          "duration": 0.10080645833333435
        },
        {
          "name": "D4",
          "midi": 62,
          "time": 26.12903400000001,
          "velocity": 0.49606299212598426,
          "duration": 0.07560484374999987
        },
        {
          "name": "C4",
          "midi": 60,
          "time": 26.12903400000001,
          "velocity": 0.49606299212598426,
          "duration": 0.07560484374999987
        },
        {
          "name": "D4",
          "midi": 62,
          "time": 26.12903400000001,
          "velocity": 0.5669291338582677,
          "duration": 0.08064516666666677
        },
        {
          "name": "D3",
          "midi": 50,
          "time": 26.12903400000001,
          "velocity": 0.5669291338582677,
          "duration": 0.10584678125000124
        },
        {
          "name": "D3",
          "midi": 50,
          "time": 26.37096950000001,
          "velocity": 0.5669291338582677,
          "duration": 0.10584678125000124
        },
        {
          "name": "D2",
          "midi": 38,
          "time": 26.37096950000001,
          "velocity": 0.5669291338582677,
          "duration": 0.2520161458333341
        },
        {
          "name": "D4",
          "midi": 62,
          "time": 26.612905000000012,
          "velocity": 0.49606299212598426,
          "duration": 0.10584678125000124
        },
        {
          "name": "C4",
          "midi": 60,
          "time": 26.612905000000012,
          "velocity": 0.5669291338582677,
          "duration": 0.13104839583333572
        },
        {
          "name": "C3",
          "midi": 48,
          "time": 26.612905000000012,
          "velocity": 0.5669291338582677,
          "duration": 0.186491947916668
        },
        {
          "name": "A3",
          "midi": 57,
          "time": 26.854840500000012,
          "velocity": 0.5669291338582677,
          "duration": 0.11088710416666814
        },
        {
          "name": "A2",
          "midi": 45,
          "time": 26.854840500000012,
          "velocity": 0.5669291338582677,
          "duration": 0.09576613541666745
        },
        {
          "name": "C4",
          "midi": 60,
          "time": 27.096776000000013,
          "velocity": 0.49606299212598426,
          "duration": 0.10080645833333435
        },
        {
          "name": "D4",
          "midi": 62,
          "time": 27.096776000000013,
          "velocity": 0.49606299212598426,
          "duration": 0.08568548958333366
        },
        {
          "name": "D4",
          "midi": 62,
          "time": 27.096776000000013,
          "velocity": 0.5669291338582677,
          "duration": 0.1360887187500026
        },
        {
          "name": "D3",
          "midi": 50,
          "time": 27.096776000000013,
          "velocity": 0.5669291338582677,
          "duration": 0.08568548958333366
        },
        {
          "name": "D3",
          "midi": 50,
          "time": 27.338711500000016,
          "velocity": 0.5669291338582677,
          "duration": 0.11088710416666814
        },
        {
          "name": "D2",
          "midi": 38,
          "time": 27.338711500000016,
          "velocity": 0.5669291338582677,
          "duration": 0.13104839583333572
        },
        {
          "name": "D4",
          "midi": 62,
          "time": 27.58064700000002,
          "velocity": 0.49606299212598426,
          "duration": 0.08064516666666677
        },
        {
          "name": "C4",
          "midi": 60,
          "time": 27.58064700000002,
          "velocity": 0.5669291338582677,
          "duration": 0.09576613541666745
        },
        {
          "name": "C3",
          "midi": 48,
          "time": 27.58064700000002,
          "velocity": 0.5669291338582677,
          "duration": 0.07056452083333298
        },
        {
          "name": "A3",
          "midi": 57,
          "time": 27.82258250000002,
          "velocity": 0.5669291338582677,
          "duration": 0.11592742708333503
        },
        {
          "name": "A2",
          "midi": 45,
          "time": 27.82258250000002,
          "velocity": 0.5669291338582677,
          "duration": 0.08064516666666677
        },
        {
          "name": "C4",
          "midi": 60,
          "time": 28.06451800000002,
          "velocity": 0.49606299212598426,
          "duration": 0.09576613541666745
        },
        {
          "name": "D4",
          "midi": 62,
          "time": 28.06451800000002,
          "velocity": 0.49606299212598426,
          "duration": 0.08064516666666677
        },
        {
          "name": "D4",
          "midi": 62,
          "time": 28.06451800000002,
          "velocity": 0.5669291338582677,
          "duration": 0.11592742708333503
        },
        {
          "name": "D3",
          "midi": 50,
          "time": 28.06451800000002,
          "velocity": 0.5669291338582677,
          "duration": 0.12096775000000193
        },
        {
          "name": "D3",
          "midi": 50,
          "time": 28.30645350000002,
          "velocity": 0.5669291338582677,
          "duration": 0.10080645833333435
        },
        {
          "name": "D2",
          "midi": 38,
          "time": 28.30645350000002,
          "velocity": 0.5669291338582677,
          "duration": 0.14112904166666596
        },
        {
          "name": "D4",
          "midi": 62,
          "time": 28.54838900000002,
          "velocity": 0.49606299212598426,
          "duration": 0.08568548958333366
        },
        {
          "name": "C4",
          "midi": 60,
          "time": 28.54838900000002,
          "velocity": 0.5669291338582677,
          "duration": 0.09576613541666745
        },
        {
          "name": "C3",
          "midi": 48,
          "time": 28.54838900000002,
          "velocity": 0.5669291338582677,
          "duration": 0.08568548958333366
        },
        {
          "name": "A3",
          "midi": 57,
          "time": 28.790324500000022,
          "velocity": 0.5669291338582677,
          "duration": 0.09576613541666745
        },
        {
          "name": "A2",
          "midi": 45,
          "time": 28.790324500000022,
          "velocity": 0.5669291338582677,
          "duration": 0.10080645833333435
        },
        {
          "name": "D4",
          "midi": 62,
          "time": 29.032260000000022,
          "velocity": 0.49606299212598426,
          "duration": 0.07560484374999987
        },
        {
          "name": "C4",
          "midi": 60,
          "time": 29.032260000000022,
          "velocity": 0.49606299212598426,
          "duration": 0.07560484374999987
        },
        {
          "name": "D4",
          "midi": 62,
          "time": 29.032260000000022,
          "velocity": 0.5669291338582677,
          "duration": 0.08064516666666677
        },
        {
          "name": "D3",
          "midi": 50,
          "time": 29.032260000000022,
          "velocity": 0.5669291338582677,
          "duration": 0.10584678125000124
        },
        {
          "name": "D3",
          "midi": 50,
          "time": 29.274195500000022,
          "velocity": 0.5669291338582677,
          "duration": 0.10584678125000124
        },
        {
          "name": "D2",
          "midi": 38,
          "time": 29.274195500000022,
          "velocity": 0.5669291338582677,
          "duration": 0.2520161458333341
        },
        {
          "name": "D4",
          "midi": 62,
          "time": 29.516131000000023,
          "velocity": 0.49606299212598426,
          "duration": 0.10584678125000124
        },
        {
          "name": "C4",
          "midi": 60,
          "time": 29.516131000000023,
          "velocity": 0.5669291338582677,
          "duration": 0.13104839583333572
        },
        {
          "name": "C3",
          "midi": 48,
          "time": 29.516131000000023,
          "velocity": 0.5669291338582677,
          "duration": 0.186491947916668
        },
        {
          "name": "A3",
          "midi": 57,
          "time": 29.758066500000023,
          "velocity": 0.5669291338582677,
          "duration": 0.11088710416666814
        },
        {
          "name": "A2",
          "midi": 45,
          "time": 29.758066500000023,
          "velocity": 0.5669291338582677,
          "duration": 0.09576613541666745
        },
        {
          "name": "C4",
          "midi": 60,
          "time": 30.000002000000023,
          "velocity": 0.49606299212598426,
          "duration": 0.10080645833333435
        },
        {
          "name": "D4",
          "midi": 62,
          "time": 30.000002000000023,
          "velocity": 0.49606299212598426,
          "duration": 0.08568548958333366
        },
        {
          "name": "D4",
          "midi": 62,
          "time": 30.000002000000023,
          "velocity": 0.5669291338582677,
          "duration": 0.1360887187500026
        },
        {
          "name": "D3",
          "midi": 50,
          "time": 30.000002000000023,
          "velocity": 0.5669291338582677,
          "duration": 0.08568548958333366
        },
        {
          "name": "D3",
          "midi": 50,
          "time": 30.241937500000027,
          "velocity": 0.5669291338582677,
          "duration": 0.11088710416666814
        },
        {
          "name": "D2",
          "midi": 38,
          "time": 30.241937500000027,
          "velocity": 0.5669291338582677,
          "duration": 0.13104839583333572
        },
        {
          "name": "D4",
          "midi": 62,
          "time": 30.48387300000003,
          "velocity": 0.49606299212598426,
          "duration": 0.08064516666666677
        },
        {
          "name": "C4",
          "midi": 60,
          "time": 30.48387300000003,
          "velocity": 0.5669291338582677,
          "duration": 0.09576613541666745
        },
        {
          "name": "C3",
          "midi": 48,
          "time": 30.48387300000003,
          "velocity": 0.5669291338582677,
          "duration": 0.07056452083333298
        },
        {
          "name": "A3",
          "midi": 57,
          "time": 30.72580850000003,
          "velocity": 0.5669291338582677,
          "duration": 0.11592742708333503
        },
        {
          "name": "A2",
          "midi": 45,
          "time": 30.72580850000003,
          "velocity": 0.5669291338582677,
          "duration": 0.08064516666666677
        },
        {
          "name": "C4",
          "midi": 60,
          "time": 30.96774400000003,
          "velocity": 0.49606299212598426,
          "duration": 0.09576613541666745
        },
        {
          "name": "D4",
          "midi": 62,
          "time": 30.96774400000003,
          "velocity": 0.49606299212598426,
          "duration": 0.08064516666666677
        },
        {
          "name": "D4",
          "midi": 62,
          "time": 30.96774400000003,
          "velocity": 0.5669291338582677,
          "duration": 0.11592742708333503
        },
        {
          "name": "D3",
          "midi": 50,
          "time": 30.96774400000003,
          "velocity": 0.5669291338582677,
          "duration": 0.12096775000000193
        },
        {
          "name": "D3",
          "midi": 50,
          "time": 31.209679500000032,
          "velocity": 0.5669291338582677,
          "duration": 0.10080645833333435
        },
        {
          "name": "D2",
          "midi": 38,
          "time": 31.209679500000032,
          "velocity": 0.5669291338582677,
          "duration": 0.14112904166666596
        },
        {
          "name": "D4",
          "midi": 62,
          "time": 31.451615000000032,
          "velocity": 0.49606299212598426,
          "duration": 0.08568548958333366
        },
        {
          "name": "C4",
          "midi": 60,
          "time": 31.451615000000032,
          "velocity": 0.5669291338582677,
          "duration": 0.09576613541666745
        },
        {
          "name": "C3",
          "midi": 48,
          "time": 31.451615000000032,
          "velocity": 0.5669291338582677,
          "duration": 0.08568548958333366
        },
        {
          "name": "A3",
          "midi": 57,
          "time": 31.693550500000033,
          "velocity": 0.5669291338582677,
          "duration": 0.09576613541666745
        },
        {
          "name": "A2",
          "midi": 45,
          "time": 31.693550500000033,
          "velocity": 0.5669291338582677,
          "duration": 0.10080645833333435
        },
        {
          "name": "D4",
          "midi": 62,
          "time": 31.935486000000033,
          "velocity": 0.49606299212598426,
          "duration": 0.07560484374999987
        },
        {
          "name": "C4",
          "midi": 60,
          "time": 31.935486000000033,
          "velocity": 0.49606299212598426,
          "duration": 0.07560484374999987
        },
        {
          "name": "D4",
          "midi": 62,
          "time": 31.935486000000033,
          "velocity": 0.5669291338582677,
          "duration": 0.08064516666666321
        },
        {
          "name": "D3",
          "midi": 50,
          "time": 31.935486000000033,
          "velocity": 0.5669291338582677,
          "duration": 0.10584678124999414
        },
        {
          "name": "D3",
          "midi": 50,
          "time": 32.17742150000003,
          "velocity": 0.5669291338582677,
          "duration": 0.10584678125000124
        },
        {
          "name": "D2",
          "midi": 38,
          "time": 32.17742150000003,
          "velocity": 0.5669291338582677,
          "duration": 0.25201614583333765
        },
        {
          "name": "D4",
          "midi": 62,
          "time": 32.41935700000003,
          "velocity": 0.49606299212598426,
          "duration": 0.10584678125000124
        },
        {
          "name": "C4",
          "midi": 60,
          "time": 32.41935700000003,
          "velocity": 0.5669291338582677,
          "duration": 0.13104839583333217
        },
        {
          "name": "C3",
          "midi": 48,
          "time": 32.41935700000003,
          "velocity": 0.5669291338582677,
          "duration": 0.18649194791666446
        },
        {
          "name": "A3",
          "midi": 57,
          "time": 32.66129250000003,
          "velocity": 0.5669291338582677,
          "duration": 0.11088710416666459
        },
        {
          "name": "A2",
          "midi": 45,
          "time": 32.66129250000003,
          "velocity": 0.5669291338582677,
          "duration": 0.09576613541666745
        },
        {
          "name": "C4",
          "midi": 60,
          "time": 32.90322800000003,
          "velocity": 0.49606299212598426,
          "duration": 0.1008064583333308
        },
        {
          "name": "D4",
          "midi": 62,
          "time": 32.90322800000003,
          "velocity": 0.49606299212598426,
          "duration": 0.08568548958333366
        },
        {
          "name": "D4",
          "midi": 62,
          "time": 32.90322800000003,
          "velocity": 0.5669291338582677,
          "duration": 0.1360887187499955
        },
        {
          "name": "D3",
          "midi": 50,
          "time": 32.90322800000003,
          "velocity": 0.5669291338582677,
          "duration": 0.08568548958333366
        },
        {
          "name": "D3",
          "midi": 50,
          "time": 33.145163500000024,
          "velocity": 0.5669291338582677,
          "duration": 0.11088710416666459
        },
        {
          "name": "D2",
          "midi": 38,
          "time": 33.145163500000024,
          "velocity": 0.5669291338582677,
          "duration": 0.13104839583333217
        },
        {
          "name": "D4",
          "midi": 62,
          "time": 33.38709900000002,
          "velocity": 0.49606299212598426,
          "duration": 0.08064516666667032
        },
        {
          "name": "C4",
          "midi": 60,
          "time": 33.38709900000002,
          "velocity": 0.5669291338582677,
          "duration": 0.09576613541666745
        },
        {
          "name": "C3",
          "midi": 48,
          "time": 33.38709900000002,
          "velocity": 0.5669291338582677,
          "duration": 0.07056452083333653
        },
        {
          "name": "A3",
          "midi": 57,
          "time": 33.629034500000024,
          "velocity": 0.5669291338582677,
          "duration": 0.11592742708332793
        },
        {
          "name": "A2",
          "midi": 45,
          "time": 33.629034500000024,
          "velocity": 0.5669291338582677,
          "duration": 0.08064516666666321
        },
        {
          "name": "C4",
          "midi": 60,
          "time": 33.87097000000002,
          "velocity": 0.49606299212598426,
          "duration": 0.09576613541666035
        },
        {
          "name": "D4",
          "midi": 62,
          "time": 33.87097000000002,
          "velocity": 0.49606299212598426,
          "duration": 0.08064516666666321
        },
        {
          "name": "D4",
          "midi": 62,
          "time": 33.87097000000002,
          "velocity": 0.5669291338582677,
          "duration": 0.11592742708332793
        },
        {
          "name": "D3",
          "midi": 50,
          "time": 33.87097000000002,
          "velocity": 0.5669291338582677,
          "duration": 0.12096774999999127
        },
        {
          "name": "D3",
          "midi": 50,
          "time": 34.11290550000001,
          "velocity": 0.5669291338582677,
          "duration": 0.1008064583333308
        },
        {
          "name": "D2",
          "midi": 38,
          "time": 34.11290550000001,
          "velocity": 0.5669291338582677,
          "duration": 0.14112904166666596
        },
        {
          "name": "D4",
          "midi": 62,
          "time": 34.35484100000001,
          "velocity": 0.49606299212598426,
          "duration": 0.08568548958333366
        },
        {
          "name": "C4",
          "midi": 60,
          "time": 34.35484100000001,
          "velocity": 0.5669291338582677,
          "duration": 0.09576613541666745
        },
        {
          "name": "C3",
          "midi": 48,
          "time": 34.35484100000001,
          "velocity": 0.5669291338582677,
          "duration": 0.08568548958333366
        },
        {
          "name": "A3",
          "midi": 57,
          "time": 34.59677650000001,
          "velocity": 0.5669291338582677,
          "duration": 0.09576613541666745
        },
        {
          "name": "A2",
          "midi": 45,
          "time": 34.59677650000001,
          "velocity": 0.5669291338582677,
          "duration": 0.1008064583333308
        },
        {
          "name": "D4",
          "midi": 62,
          "time": 34.83871200000001,
          "velocity": 0.49606299212598426,
          "duration": 0.07560484374999987
        },
        {
          "name": "C4",
          "midi": 60,
          "time": 34.83871200000001,
          "velocity": 0.49606299212598426,
          "duration": 0.07560484374999987
        },
        {
          "name": "D4",
          "midi": 62,
          "time": 34.83871200000001,
          "velocity": 0.5669291338582677,
          "duration": 0.08064516666666321
        },
        {
          "name": "D3",
          "midi": 50,
          "time": 34.83871200000001,
          "velocity": 0.5669291338582677,
          "duration": 0.10584678124999414
        },
        {
          "name": "D3",
          "midi": 50,
          "time": 35.080647500000005,
          "velocity": 0.5669291338582677,
          "duration": 0.10584678125000124
        },
        {
          "name": "D2",
          "midi": 38,
          "time": 35.080647500000005,
          "velocity": 0.5669291338582677,
          "duration": 0.25201614583333765
        },
        {
          "name": "D4",
          "midi": 62,
          "time": 35.32258300000001,
          "velocity": 0.49606299212598426,
          "duration": 0.10584678125000124
        },
        {
          "name": "C4",
          "midi": 60,
          "time": 35.32258300000001,
          "velocity": 0.5669291338582677,
          "duration": 0.13104839583333217
        },
        {
          "name": "C3",
          "midi": 48,
          "time": 35.32258300000001,
          "velocity": 0.5669291338582677,
          "duration": 0.18649194791666446
        },
        {
          "name": "A3",
          "midi": 57,
          "time": 35.564518500000005,
          "velocity": 0.5669291338582677,
          "duration": 0.11088710416666459
        },
        {
          "name": "A2",
          "midi": 45,
          "time": 35.564518500000005,
          "velocity": 0.5669291338582677,
          "duration": 0.09576613541666745
        },
        {
          "name": "C4",
          "midi": 60,
          "time": 35.806454,
          "velocity": 0.49606299212598426,
          "duration": 0.1008064583333308
        },
        {
          "name": "D4",
          "midi": 62,
          "time": 35.806454,
          "velocity": 0.49606299212598426,
          "duration": 0.08568548958333366
        },
        {
          "name": "D4",
          "midi": 62,
          "time": 35.806454,
          "velocity": 0.5669291338582677,
          "duration": 0.1360887187499955
        },
        {
          "name": "D3",
          "midi": 50,
          "time": 35.806454,
          "velocity": 0.5669291338582677,
          "duration": 0.08568548958333366
        },
        {
          "name": "D3",
          "midi": 50,
          "time": 36.0483895,
          "velocity": 0.5669291338582677,
          "duration": 0.11088710416666459
        },
        {
          "name": "D2",
          "midi": 38,
          "time": 36.0483895,
          "velocity": 0.5669291338582677,
          "duration": 0.13104839583333217
        },
        {
          "name": "D4",
          "midi": 62,
          "time": 36.290324999999996,
          "velocity": 0.49606299212598426,
          "duration": 0.08064516666667032
        },
        {
          "name": "C4",
          "midi": 60,
          "time": 36.290324999999996,
          "velocity": 0.5669291338582677,
          "duration": 0.09576613541666745
        },
        {
          "name": "C3",
          "midi": 48,
          "time": 36.290324999999996,
          "velocity": 0.5669291338582677,
          "duration": 0.07056452083333653
        },
        {
          "name": "A3",
          "midi": 57,
          "time": 36.5322605,
          "velocity": 0.5669291338582677,
          "duration": 0.11592742708332793
        },
        {
          "name": "A2",
          "midi": 45,
          "time": 36.5322605,
          "velocity": 0.5669291338582677,
          "duration": 0.08064516666666321
        },
        {
          "name": "C4",
          "midi": 60,
          "time": 36.774195999999996,
          "velocity": 0.49606299212598426,
          "duration": 0.09576613541666035
        },
        {
          "name": "D4",
          "midi": 62,
          "time": 36.774195999999996,
          "velocity": 0.49606299212598426,
          "duration": 0.08064516666666321
        },
        {
          "name": "D4",
          "midi": 62,
          "time": 36.774195999999996,
          "velocity": 0.5669291338582677,
          "duration": 0.11592742708332793
        },
        {
          "name": "D3",
          "midi": 50,
          "time": 36.774195999999996,
          "velocity": 0.5669291338582677,
          "duration": 0.12096774999999127
        },
        {
          "name": "D3",
          "midi": 50,
          "time": 37.016131499999986,
          "velocity": 0.5669291338582677,
          "duration": 0.1008064583333308
        },
        {
          "name": "D2",
          "midi": 38,
          "time": 37.016131499999986,
          "velocity": 0.5669291338582677,
          "duration": 0.14112904166666596
        },
        {
          "name": "D4",
          "midi": 62,
          "time": 37.25806699999998,
          "velocity": 0.49606299212598426,
          "duration": 0.08568548958333366
        },
        {
          "name": "C4",
          "midi": 60,
          "time": 37.25806699999998,
          "velocity": 0.5669291338582677,
          "duration": 0.09576613541666745
        },
        {
          "name": "C3",
          "midi": 48,
          "time": 37.25806699999998,
          "velocity": 0.5669291338582677,
          "duration": 0.08568548958333366
        },
        {
          "name": "A3",
          "midi": 57,
          "time": 37.50000249999999,
          "velocity": 0.5669291338582677,
          "duration": 0.09576613541666745
        },
        {
          "name": "A2",
          "midi": 45,
          "time": 37.50000249999999,
          "velocity": 0.5669291338582677,
          "duration": 0.1008064583333308
        },
        {
          "name": "D4",
          "midi": 62,
          "time": 37.74193799999998,
          "velocity": 0.49606299212598426,
          "duration": 0.07560484374999987
        },
        {
          "name": "C4",
          "midi": 60,
          "time": 37.74193799999998,
          "velocity": 0.49606299212598426,
          "duration": 0.07560484374999987
        },
        {
          "name": "D4",
          "midi": 62,
          "time": 37.74193799999998,
          "velocity": 0.5669291338582677,
          "duration": 0.08064516666666321
        },
        {
          "name": "D3",
          "midi": 50,
          "time": 37.74193799999998,
          "velocity": 0.5669291338582677,
          "duration": 0.10584678124999414
        },
        {
          "name": "D3",
          "midi": 50,
          "time": 37.98387349999998,
          "velocity": 0.5669291338582677,
          "duration": 0.10584678125000124
        },
        {
          "name": "D2",
          "midi": 38,
          "time": 37.98387349999998,
          "velocity": 0.5669291338582677,
          "duration": 0.25201614583333765
        },
        {
          "name": "D4",
          "midi": 62,
          "time": 38.225808999999984,
          "velocity": 0.49606299212598426,
          "duration": 0.10584678125000124
        },
        {
          "name": "C4",
          "midi": 60,
          "time": 38.225808999999984,
          "velocity": 0.5669291338582677,
          "duration": 0.13104839583333217
        },
        {
          "name": "C3",
          "midi": 48,
          "time": 38.225808999999984,
          "velocity": 0.5669291338582677,
          "duration": 0.18649194791666446
        },
        {
          "name": "A3",
          "midi": 57,
          "time": 38.46774449999998,
          "velocity": 0.5669291338582677,
          "duration": 0.11088710416666459
        },
        {
          "name": "A2",
          "midi": 45,
          "time": 38.46774449999998,
          "velocity": 0.5669291338582677,
          "duration": 0.09576613541666745
        },
        {
          "name": "C4",
          "midi": 60,
          "time": 38.70967999999998,
          "velocity": 0.49606299212598426,
          "duration": 0.1008064583333308
        },
        {
          "name": "D4",
          "midi": 62,
          "time": 38.70967999999998,
          "velocity": 0.49606299212598426,
          "duration": 0.08568548958333366
        },
        {
          "name": "D4",
          "midi": 62,
          "time": 38.70967999999998,
          "velocity": 0.5669291338582677,
          "duration": 0.1360887187499955
        },
        {
          "name": "D3",
          "midi": 50,
          "time": 38.70967999999998,
          "velocity": 0.5669291338582677,
          "duration": 0.08568548958333366
        },
        {
          "name": "D3",
          "midi": 50,
          "time": 38.951615499999974,
          "velocity": 0.5669291338582677,
          "duration": 0.11088710416666459
        },
        {
          "name": "D2",
          "midi": 38,
          "time": 38.951615499999974,
          "velocity": 0.5669291338582677,
          "duration": 0.13104839583333217
        },
        {
          "name": "D4",
          "midi": 62,
          "time": 39.19355099999997,
          "velocity": 0.49606299212598426,
          "duration": 0.08064516666667032
        },
        {
          "name": "C4",
          "midi": 60,
          "time": 39.19355099999997,
          "velocity": 0.5669291338582677,
          "duration": 0.09576613541666745
        },
        {
          "name": "C3",
          "midi": 48,
          "time": 39.19355099999997,
          "velocity": 0.5669291338582677,
          "duration": 0.07056452083333653
        },
        {
          "name": "A3",
          "midi": 57,
          "time": 39.435486499999975,
          "velocity": 0.5669291338582677,
          "duration": 0.11592742708332793
        },
        {
          "name": "A2",
          "midi": 45,
          "time": 39.435486499999975,
          "velocity": 0.5669291338582677,
          "duration": 0.08064516666666321
        },
        {
          "name": "C4",
          "midi": 60,
          "time": 39.67742199999997,
          "velocity": 0.49606299212598426,
          "duration": 0.09576613541666035
        },
        {
          "name": "D4",
          "midi": 62,
          "time": 39.67742199999997,
          "velocity": 0.49606299212598426,
          "duration": 0.08064516666666321
        },
        {
          "name": "D4",
          "midi": 62,
          "time": 39.67742199999997,
          "velocity": 0.5669291338582677,
          "duration": 0.11592742708332793
        },
        {
          "name": "D3",
          "midi": 50,
          "time": 39.67742199999997,
          "velocity": 0.5669291338582677,
          "duration": 0.12096774999999127
        },
        {
          "name": "D3",
          "midi": 50,
          "time": 39.91935749999996,
          "velocity": 0.5669291338582677,
          "duration": 0.1008064583333308
        },
        {
          "name": "D2",
          "midi": 38,
          "time": 39.91935749999996,
          "velocity": 0.5669291338582677,
          "duration": 0.14112904166666596
        },
        {
          "name": "D4",
          "midi": 62,
          "time": 40.16129299999996,
          "velocity": 0.49606299212598426,
          "duration": 0.08568548958333366
        },
        {
          "name": "C4",
          "midi": 60,
          "time": 40.16129299999996,
          "velocity": 0.5669291338582677,
          "duration": 0.09576613541666745
        },
        {
          "name": "C3",
          "midi": 48,
          "time": 40.16129299999996,
          "velocity": 0.5669291338582677,
          "duration": 0.08568548958333366
        },
        {
          "name": "A3",
          "midi": 57,
          "time": 40.40322849999996,
          "velocity": 0.5669291338582677,
          "duration": 0.09576613541666745
        },
        {
          "name": "A2",
          "midi": 45,
          "time": 40.40322849999996,
          "velocity": 0.5669291338582677,
          "duration": 0.1008064583333308
        },
        {
          "name": "D4",
          "midi": 62,
          "time": 40.64516399999996,
          "velocity": 0.49606299212598426,
          "duration": 0.07560484374999987
        },
        {
          "name": "C4",
          "midi": 60,
          "time": 40.64516399999996,
          "velocity": 0.49606299212598426,
          "duration": 0.07560484374999987
        },
        {
          "name": "D4",
          "midi": 62,
          "time": 40.64516399999996,
          "velocity": 0.5669291338582677,
          "duration": 0.08064516666666321
        },
        {
          "name": "D3",
          "midi": 50,
          "time": 40.64516399999996,
          "velocity": 0.5669291338582677,
          "duration": 0.10584678124999414
        },
        {
          "name": "D3",
          "midi": 50,
          "time": 40.887099499999955,
          "velocity": 0.5669291338582677,
          "duration": 0.10584678125000124
        },
        {
          "name": "D2",
          "midi": 38,
          "time": 40.887099499999955,
          "velocity": 0.5669291338582677,
          "duration": 0.25201614583333765
        },
        {
          "name": "D4",
          "midi": 62,
          "time": 41.12903499999996,
          "velocity": 0.49606299212598426,
          "duration": 0.10584678125000124
        },
        {
          "name": "C4",
          "midi": 60,
          "time": 41.12903499999996,
          "velocity": 0.5669291338582677,
          "duration": 0.13104839583333217
        },
        {
          "name": "C3",
          "midi": 48,
          "time": 41.12903499999996,
          "velocity": 0.5669291338582677,
          "duration": 0.18649194791666446
        },
        {
          "name": "A3",
          "midi": 57,
          "time": 41.370970499999956,
          "velocity": 0.5669291338582677,
          "duration": 0.11088710416666459
        },
        {
          "name": "A2",
          "midi": 45,
          "time": 41.370970499999956,
          "velocity": 0.5669291338582677,
          "duration": 0.09576613541666745
        },
        {
          "name": "C4",
          "midi": 60,
          "time": 41.61290599999995,
          "velocity": 0.49606299212598426,
          "duration": 0.1008064583333308
        },
        {
          "name": "D4",
          "midi": 62,
          "time": 41.61290599999995,
          "velocity": 0.49606299212598426,
          "duration": 0.08568548958333366
        },
        {
          "name": "D4",
          "midi": 62,
          "time": 41.61290599999995,
          "velocity": 0.5669291338582677,
          "duration": 0.1360887187499955
        },
        {
          "name": "D3",
          "midi": 50,
          "time": 41.61290599999995,
          "velocity": 0.5669291338582677,
          "duration": 0.08568548958333366
        },
        {
          "name": "D3",
          "midi": 50,
          "time": 41.85484149999995,
          "velocity": 0.5669291338582677,
          "duration": 0.11088710416666459
        },
        {
          "name": "D2",
          "midi": 38,
          "time": 41.85484149999995,
          "velocity": 0.5669291338582677,
          "duration": 0.13104839583333217
        },
        {
          "name": "D4",
          "midi": 62,
          "time": 42.096776999999946,
          "velocity": 0.49606299212598426,
          "duration": 0.08064516666667032
        },
        {
          "name": "C4",
          "midi": 60,
          "time": 42.096776999999946,
          "velocity": 0.5669291338582677,
          "duration": 0.09576613541666745
        },
        {
          "name": "C3",
          "midi": 48,
          "time": 42.096776999999946,
          "velocity": 0.5669291338582677,
          "duration": 0.07056452083333653
        },
        {
          "name": "A3",
          "midi": 57,
          "time": 42.33871249999995,
          "velocity": 0.5669291338582677,
          "duration": 0.11592742708332793
        },
        {
          "name": "A2",
          "midi": 45,
          "time": 42.33871249999995,
          "velocity": 0.5669291338582677,
          "duration": 0.08064516666666321
        },
        {
          "name": "C4",
          "midi": 60,
          "time": 42.58064799999995,
          "velocity": 0.49606299212598426,
          "duration": 0.09576613541666035
        },
        {
          "name": "D4",
          "midi": 62,
          "time": 42.58064799999995,
          "velocity": 0.49606299212598426,
          "duration": 0.08064516666666321
        },
        {
          "name": "D4",
          "midi": 62,
          "time": 42.58064799999995,
          "velocity": 0.5669291338582677,
          "duration": 0.11592742708332793
        },
        {
          "name": "D3",
          "midi": 50,
          "time": 42.58064799999995,
          "velocity": 0.5669291338582677,
          "duration": 0.12096774999999127
        },
        {
          "name": "D3",
          "midi": 50,
          "time": 42.822583499999936,
          "velocity": 0.5669291338582677,
          "duration": 0.1008064583333308
        },
        {
          "name": "D2",
          "midi": 38,
          "time": 42.822583499999936,
          "velocity": 0.5669291338582677,
          "duration": 0.14112904166666596
        },
        {
          "name": "D4",
          "midi": 62,
          "time": 43.06451899999993,
          "velocity": 0.49606299212598426,
          "duration": 0.08568548958333366
        },
        {
          "name": "C4",
          "midi": 60,
          "time": 43.06451899999993,
          "velocity": 0.5669291338582677,
          "duration": 0.09576613541666745
        },
        {
          "name": "C3",
          "midi": 48,
          "time": 43.06451899999993,
          "velocity": 0.5669291338582677,
          "duration": 0.08568548958333366
        },
        {
          "name": "A3",
          "midi": 57,
          "time": 43.30645449999994,
          "velocity": 0.5669291338582677,
          "duration": 0.09576613541666745
        },
        {
          "name": "A2",
          "midi": 45,
          "time": 43.30645449999994,
          "velocity": 0.5669291338582677,
          "duration": 0.1008064583333308
        },
        {
          "name": "D4",
          "midi": 62,
          "time": 43.548389999999934,
          "velocity": 0.49606299212598426,
          "duration": 0.07560484374999987
        },
        {
          "name": "C4",
          "midi": 60,
          "time": 43.548389999999934,
          "velocity": 0.49606299212598426,
          "duration": 0.07560484374999987
        },
        {
          "name": "D4",
          "midi": 62,
          "time": 43.548389999999934,
          "velocity": 0.5669291338582677,
          "duration": 0.08064516666666321
        },
        {
          "name": "D3",
          "midi": 50,
          "time": 43.548389999999934,
          "velocity": 0.5669291338582677,
          "duration": 0.10584678124999414
        },
        {
          "name": "D3",
          "midi": 50,
          "time": 43.79032549999993,
          "velocity": 0.5669291338582677,
          "duration": 0.10584678125000124
        },
        {
          "name": "D2",
          "midi": 38,
          "time": 43.79032549999993,
          "velocity": 0.5669291338582677,
          "duration": 0.25201614583333765
        },
        {
          "name": "D4",
          "midi": 62,
          "time": 44.032260999999934,
          "velocity": 0.49606299212598426,
          "duration": 0.10584678125000124
        },
        {
          "name": "C4",
          "midi": 60,
          "time": 44.032260999999934,
          "velocity": 0.5669291338582677,
          "duration": 0.13104839583333217
        },
        {
          "name": "C3",
          "midi": 48,
          "time": 44.032260999999934,
          "velocity": 0.5669291338582677,
          "duration": 0.18649194791666446
        },
        {
          "name": "A3",
          "midi": 57,
          "time": 44.27419649999993,
          "velocity": 0.5669291338582677,
          "duration": 0.11088710416666459
        },
        {
          "name": "A2",
          "midi": 45,
          "time": 44.27419649999993,
          "velocity": 0.5669291338582677,
          "duration": 0.09576613541666745
        },
        {
          "name": "C4",
          "midi": 60,
          "time": 44.51613199999993,
          "velocity": 0.49606299212598426,
          "duration": 0.1008064583333308
        },
        {
          "name": "D4",
          "midi": 62,
          "time": 44.51613199999993,
          "velocity": 0.49606299212598426,
          "duration": 0.08568548958333366
        },
        {
          "name": "D4",
          "midi": 62,
          "time": 44.51613199999993,
          "velocity": 0.5669291338582677,
          "duration": 0.1360887187499955
        },
        {
          "name": "D3",
          "midi": 50,
          "time": 44.51613199999993,
          "velocity": 0.5669291338582677,
          "duration": 0.08568548958333366
        },
        {
          "name": "D3",
          "midi": 50,
          "time": 44.758067499999925,
          "velocity": 0.5669291338582677,
          "duration": 0.11088710416666459
        },
        {
          "name": "D2",
          "midi": 38,
          "time": 44.758067499999925,
          "velocity": 0.5669291338582677,
          "duration": 0.13104839583333217
        },
        {
          "name": "D4",
          "midi": 62,
          "time": 45.00000299999992,
          "velocity": 0.49606299212598426,
          "duration": 0.08064516666667032
        },
        {
          "name": "C4",
          "midi": 60,
          "time": 45.00000299999992,
          "velocity": 0.5669291338582677,
          "duration": 0.09576613541666745
        },
        {
          "name": "C3",
          "midi": 48,
          "time": 45.00000299999992,
          "velocity": 0.5669291338582677,
          "duration": 0.07056452083333653
        },
        {
          "name": "A3",
          "midi": 57,
          "time": 45.241938499999925,
          "velocity": 0.5669291338582677,
          "duration": 0.11592742708332793
        },
        {
          "name": "A2",
          "midi": 45,
          "time": 45.241938499999925,
          "velocity": 0.5669291338582677,
          "duration": 0.08064516666666321
        },
        {
          "name": "C4",
          "midi": 60,
          "time": 45.48387399999992,
          "velocity": 0.49606299212598426,
          "duration": 0.09576613541666035
        },
        {
          "name": "D4",
          "midi": 62,
          "time": 45.48387399999992,
          "velocity": 0.49606299212598426,
          "duration": 0.08064516666666321
        },
        {
          "name": "D4",
          "midi": 62,
          "time": 45.48387399999992,
          "velocity": 0.5669291338582677,
          "duration": 0.11592742708332793
        },
        {
          "name": "D3",
          "midi": 50,
          "time": 45.48387399999992,
          "velocity": 0.5669291338582677,
          "duration": 0.12096774999999127
        },
        {
          "name": "D3",
          "midi": 50,
          "time": 45.72580949999991,
          "velocity": 0.5669291338582677,
          "duration": 0.1008064583333308
        },
        {
          "name": "D2",
          "midi": 38,
          "time": 45.72580949999991,
          "velocity": 0.5669291338582677,
          "duration": 0.14112904166666596
        },
        {
          "name": "D4",
          "midi": 62,
          "time": 45.96774499999991,
          "velocity": 0.49606299212598426,
          "duration": 0.08568548958333366
        },
        {
          "name": "C4",
          "midi": 60,
          "time": 45.96774499999991,
          "velocity": 0.5669291338582677,
          "duration": 0.09576613541666745
        },
        {
          "name": "C3",
          "midi": 48,
          "time": 45.96774499999991,
          "velocity": 0.5669291338582677,
          "duration": 0.08568548958333366
        },
        {
          "name": "A3",
          "midi": 57,
          "time": 46.20968049999991,
          "velocity": 0.5669291338582677,
          "duration": 0.09576613541666745
        },
        {
          "name": "A2",
          "midi": 45,
          "time": 46.20968049999991,
          "velocity": 0.5669291338582677,
          "duration": 0.1008064583333308
        },
        {
          "name": "D4",
          "midi": 62,
          "time": 46.45161599999991,
          "velocity": 0.49606299212598426,
          "duration": 0.07560484374999987
        },
        {
          "name": "C4",
          "midi": 60,
          "time": 46.45161599999991,
          "velocity": 0.49606299212598426,
          "duration": 0.07560484374999987
        },
        {
          "name": "D4",
          "midi": 62,
          "time": 46.45161599999991,
          "velocity": 0.5669291338582677,
          "duration": 0.08064516666666321
        },
        {
          "name": "D3",
          "midi": 50,
          "time": 46.45161599999991,
          "velocity": 0.5669291338582677,
          "duration": 0.10584678124999414
        },
        {
          "name": "D3",
          "midi": 50,
          "time": 46.693551499999906,
          "velocity": 0.5669291338582677,
          "duration": 0.10584678125000124
        },
        {
          "name": "D2",
          "midi": 38,
          "time": 46.693551499999906,
          "velocity": 0.5669291338582677,
          "duration": 0.25201614583333765
        },
        {
          "name": "D4",
          "midi": 62,
          "time": 46.93548699999991,
          "velocity": 0.49606299212598426,
          "duration": 0.10584678125000124
        },
        {
          "name": "C4",
          "midi": 60,
          "time": 46.93548699999991,
          "velocity": 0.5669291338582677,
          "duration": 0.13104839583333217
        },
        {
          "name": "C3",
          "midi": 48,
          "time": 46.93548699999991,
          "velocity": 0.5669291338582677,
          "duration": 0.18649194791666446
        },
        {
          "name": "A3",
          "midi": 57,
          "time": 47.177422499999906,
          "velocity": 0.5669291338582677,
          "duration": 0.11088710416666459
        },
        {
          "name": "A2",
          "midi": 45,
          "time": 47.177422499999906,
          "velocity": 0.5669291338582677,
          "duration": 0.09576613541666745
        },
        {
          "name": "C4",
          "midi": 60,
          "time": 47.4193579999999,
          "velocity": 0.49606299212598426,
          "duration": 0.1008064583333308
        },
        {
          "name": "D4",
          "midi": 62,
          "time": 47.4193579999999,
          "velocity": 0.49606299212598426,
          "duration": 0.08568548958333366
        },
        {
          "name": "D4",
          "midi": 62,
          "time": 47.4193579999999,
          "velocity": 0.5669291338582677,
          "duration": 0.1360887187499955
        },
        {
          "name": "D3",
          "midi": 50,
          "time": 47.4193579999999,
          "velocity": 0.5669291338582677,
          "duration": 0.08568548958333366
        },
        {
          "name": "D3",
          "midi": 50,
          "time": 47.6612934999999,
          "velocity": 0.5669291338582677,
          "duration": 0.11088710416666459
        },
        {
          "name": "D2",
          "midi": 38,
          "time": 47.6612934999999,
          "velocity": 0.5669291338582677,
          "duration": 0.13104839583333217
        },
        {
          "name": "D4",
          "midi": 62,
          "time": 47.9032289999999,
          "velocity": 0.49606299212598426,
          "duration": 0.08064516666667032
        },
        {
          "name": "C4",
          "midi": 60,
          "time": 47.9032289999999,
          "velocity": 0.5669291338582677,
          "duration": 0.09576613541666745
        },
        {
          "name": "C3",
          "midi": 48,
          "time": 47.9032289999999,
          "velocity": 0.5669291338582677,
          "duration": 0.07056452083333653
        },
        {
          "name": "A3",
          "midi": 57,
          "time": 48.1451644999999,
          "velocity": 0.5669291338582677,
          "duration": 0.11592742708332793
        },
        {
          "name": "A2",
          "midi": 45,
          "time": 48.1451644999999,
          "velocity": 0.5669291338582677,
          "duration": 0.08064516666666321
        },
        {
          "name": "C4",
          "midi": 60,
          "time": 48.3870999999999,
          "velocity": 0.49606299212598426,
          "duration": 0.09576613541666035
        },
        {
          "name": "D4",
          "midi": 62,
          "time": 48.3870999999999,
          "velocity": 0.49606299212598426,
          "duration": 0.08064516666666321
        },
        {
          "name": "D4",
          "midi": 62,
          "time": 48.3870999999999,
          "velocity": 0.5669291338582677,
          "duration": 0.11592742708332793
        },
        {
          "name": "D3",
          "midi": 50,
          "time": 48.3870999999999,
          "velocity": 0.5669291338582677,
          "duration": 0.12096774999999127
        },
        {
          "name": "D3",
          "midi": 50,
          "time": 48.62903549999989,
          "velocity": 0.5669291338582677,
          "duration": 0.1008064583333308
        },
        {
          "name": "D2",
          "midi": 38,
          "time": 48.62903549999989,
          "velocity": 0.5669291338582677,
          "duration": 0.14112904166666596
        },
        {
          "name": "D4",
          "midi": 62,
          "time": 48.870970999999884,
          "velocity": 0.49606299212598426,
          "duration": 0.08568548958333366
        },
        {
          "name": "C4",
          "midi": 60,
          "time": 48.870970999999884,
          "velocity": 0.5669291338582677,
          "duration": 0.09576613541666745
        },
        {
          "name": "C3",
          "midi": 48,
          "time": 48.870970999999884,
          "velocity": 0.5669291338582677,
          "duration": 0.08568548958333366
        },
        {
          "name": "A3",
          "midi": 57,
          "time": 49.11290649999989,
          "velocity": 0.5669291338582677,
          "duration": 0.09576613541666745
        },
        {
          "name": "A2",
          "midi": 45,
          "time": 49.11290649999989,
          "velocity": 0.5669291338582677,
          "duration": 0.1008064583333308
        },
        {
          "name": "D4",
          "midi": 62,
          "time": 49.354841999999884,
          "velocity": 0.49606299212598426,
          "duration": 0.07560484374999987
        },
        {
          "name": "C4",
          "midi": 60,
          "time": 49.354841999999884,
          "velocity": 0.49606299212598426,
          "duration": 0.07560484374999987
        },
        {
          "name": "D4",
          "midi": 62,
          "time": 49.354841999999884,
          "velocity": 0.5669291338582677,
          "duration": 0.08064516666666321
        },
        {
          "name": "D3",
          "midi": 50,
          "time": 49.354841999999884,
          "velocity": 0.5669291338582677,
          "duration": 0.10584678124999414
        },
        {
          "name": "D3",
          "midi": 50,
          "time": 49.59677749999988,
          "velocity": 0.5669291338582677,
          "duration": 0.10584678125000124
        },
        {
          "name": "D2",
          "midi": 38,
          "time": 49.59677749999988,
          "velocity": 0.5669291338582677,
          "duration": 0.25201614583333765
        },
        {
          "name": "D4",
          "midi": 62,
          "time": 49.838712999999885,
          "velocity": 0.49606299212598426,
          "duration": 0.10584678125000124
        },
        {
          "name": "C4",
          "midi": 60,
          "time": 49.838712999999885,
          "velocity": 0.5669291338582677,
          "duration": 0.13104839583333217
        },
        {
          "name": "C3",
          "midi": 48,
          "time": 49.838712999999885,
          "velocity": 0.5669291338582677,
          "duration": 0.18649194791666446
        },
        {
          "name": "A3",
          "midi": 57,
          "time": 50.08064849999988,
          "velocity": 0.5669291338582677,
          "duration": 0.11088710416666459
        },
        {
          "name": "A2",
          "midi": 45,
          "time": 50.08064849999988,
          "velocity": 0.5669291338582677,
          "duration": 0.09576613541666745
        },
        {
          "name": "C4",
          "midi": 60,
          "time": 50.32258399999988,
          "velocity": 0.49606299212598426,
          "duration": 0.1008064583333308
        },
        {
          "name": "D4",
          "midi": 62,
          "time": 50.32258399999988,
          "velocity": 0.49606299212598426,
          "duration": 0.08568548958333366
        },
        {
          "name": "D4",
          "midi": 62,
          "time": 50.32258399999988,
          "velocity": 0.5669291338582677,
          "duration": 0.1360887187499955
        },
        {
          "name": "D3",
          "midi": 50,
          "time": 50.32258399999988,
          "velocity": 0.5669291338582677,
          "duration": 0.08568548958333366
        },
        {
          "name": "D3",
          "midi": 50,
          "time": 50.564519499999875,
          "velocity": 0.5669291338582677,
          "duration": 0.11088710416666459
        },
        {
          "name": "D2",
          "midi": 38,
          "time": 50.564519499999875,
          "velocity": 0.5669291338582677,
          "duration": 0.13104839583333217
        },
        {
          "name": "D4",
          "midi": 62,
          "time": 50.80645499999987,
          "velocity": 0.49606299212598426,
          "duration": 0.08064516666667032
        },
        {
          "name": "C4",
          "midi": 60,
          "time": 50.80645499999987,
          "velocity": 0.5669291338582677,
          "duration": 0.09576613541666745
        },
        {
          "name": "C3",
          "midi": 48,
          "time": 50.80645499999987,
          "velocity": 0.5669291338582677,
          "duration": 0.07056452083333653
        },
        {
          "name": "A3",
          "midi": 57,
          "time": 51.048390499999876,
          "velocity": 0.5669291338582677,
          "duration": 0.11592742708332793
        },
        {
          "name": "A2",
          "midi": 45,
          "time": 51.048390499999876,
          "velocity": 0.5669291338582677,
          "duration": 0.08064516666666321
        },
        {
          "name": "C4",
          "midi": 60,
          "time": 51.29032599999987,
          "velocity": 0.49606299212598426,
          "duration": 0.09576613541666035
        },
        {
          "name": "D4",
          "midi": 62,
          "time": 51.29032599999987,
          "velocity": 0.49606299212598426,
          "duration": 0.08064516666666321
        },
        {
          "name": "D4",
          "midi": 62,
          "time": 51.29032599999987,
          "velocity": 0.5669291338582677,
          "duration": 0.11592742708332793
        },
        {
          "name": "D3",
          "midi": 50,
          "time": 51.29032599999987,
          "velocity": 0.5669291338582677,
          "duration": 0.12096774999999127
        },
        {
          "name": "D3",
          "midi": 50,
          "time": 51.53226149999986,
          "velocity": 0.5669291338582677,
          "duration": 0.1008064583333308
        },
        {
          "name": "D2",
          "midi": 38,
          "time": 51.53226149999986,
          "velocity": 0.5669291338582677,
          "duration": 0.14112904166666596
        },
        {
          "name": "D4",
          "midi": 62,
          "time": 51.77419699999986,
          "velocity": 0.49606299212598426,
          "duration": 0.08568548958333366
        },
        {
          "name": "C4",
          "midi": 60,
          "time": 51.77419699999986,
          "velocity": 0.5669291338582677,
          "duration": 0.09576613541666745
        },
        {
          "name": "C3",
          "midi": 48,
          "time": 51.77419699999986,
          "velocity": 0.5669291338582677,
          "duration": 0.08568548958333366
        },
        {
          "name": "A3",
          "midi": 57,
          "time": 52.01613249999986,
          "velocity": 0.5669291338582677,
          "duration": 0.09576613541666745
        },
        {
          "name": "A2",
          "midi": 45,
          "time": 52.01613249999986,
          "velocity": 0.5669291338582677,
          "duration": 0.1008064583333308
        },
        {
          "name": "D4",
          "midi": 62,
          "time": 52.25806799999986,
          "velocity": 0.49606299212598426,
          "duration": 0.07560484374999987
        },
        {
          "name": "C4",
          "midi": 60,
          "time": 52.25806799999986,
          "velocity": 0.49606299212598426,
          "duration": 0.07560484374999987
        },
        {
          "name": "D4",
          "midi": 62,
          "time": 52.25806799999986,
          "velocity": 0.5669291338582677,
          "duration": 0.08064516666666321
        },
        {
          "name": "D3",
          "midi": 50,
          "time": 52.25806799999986,
          "velocity": 0.5669291338582677,
          "duration": 0.10584678124999414
        },
        {
          "name": "D3",
          "midi": 50,
          "time": 52.500003499999856,
          "velocity": 0.5669291338582677,
          "duration": 0.10584678125000124
        },
        {
          "name": "D2",
          "midi": 38,
          "time": 52.500003499999856,
          "velocity": 0.5669291338582677,
          "duration": 0.25201614583333765
        },
        {
          "name": "D4",
          "midi": 62,
          "time": 52.74193899999986,
          "velocity": 0.49606299212598426,
          "duration": 0.10584678125000124
        },
        {
          "name": "C4",
          "midi": 60,
          "time": 52.74193899999986,
          "velocity": 0.5669291338582677,
          "duration": 0.13104839583333217
        },
        {
          "name": "C3",
          "midi": 48,
          "time": 52.74193899999986,
          "velocity": 0.5669291338582677,
          "duration": 0.18649194791666446
        },
        {
          "name": "A3",
          "midi": 57,
          "time": 52.98387449999986,
          "velocity": 0.5669291338582677,
          "duration": 0.11088710416666459
        },
        {
          "name": "A2",
          "midi": 45,
          "time": 52.98387449999986,
          "velocity": 0.5669291338582677,
          "duration": 0.09576613541666745
        },
        {
          "name": "C4",
          "midi": 60,
          "time": 53.22580999999985,
          "velocity": 0.49606299212598426,
          "duration": 0.1008064583333308
        },
        {
          "name": "D4",
          "midi": 62,
          "time": 53.22580999999985,
          "velocity": 0.49606299212598426,
          "duration": 0.08568548958333366
        },
        {
          "name": "D4",
          "midi": 62,
          "time": 53.22580999999985,
          "velocity": 0.5669291338582677,
          "duration": 0.1360887187499955
        },
        {
          "name": "D3",
          "midi": 50,
          "time": 53.22580999999985,
          "velocity": 0.5669291338582677,
          "duration": 0.08568548958333366
        },
        {
          "name": "D3",
          "midi": 50,
          "time": 53.46774549999985,
          "velocity": 0.5669291338582677,
          "duration": 0.11088710416666459
        },
        {
          "name": "D2",
          "midi": 38,
          "time": 53.46774549999985,
          "velocity": 0.5669291338582677,
          "duration": 0.13104839583333217
        },
        {
          "name": "D4",
          "midi": 62,
          "time": 53.70968099999985,
          "velocity": 0.49606299212598426,
          "duration": 0.08064516666667032
        },
        {
          "name": "C4",
          "midi": 60,
          "time": 53.70968099999985,
          "velocity": 0.5669291338582677,
          "duration": 0.09576613541666745
        },
        {
          "name": "C3",
          "midi": 48,
          "time": 53.70968099999985,
          "velocity": 0.5669291338582677,
          "duration": 0.07056452083333653
        },
        {
          "name": "A3",
          "midi": 57,
          "time": 53.95161649999985,
          "velocity": 0.5669291338582677,
          "duration": 0.11592742708332793
        },
        {
          "name": "A2",
          "midi": 45,
          "time": 53.95161649999985,
          "velocity": 0.5669291338582677,
          "duration": 0.08064516666666321
        },
        {
          "name": "C4",
          "midi": 60,
          "time": 54.19355199999985,
          "velocity": 0.49606299212598426,
          "duration": 0.09576613541666035
        },
        {
          "name": "D4",
          "midi": 62,
          "time": 54.19355199999985,
          "velocity": 0.49606299212598426,
          "duration": 0.08064516666666321
        },
        {
          "name": "D4",
          "midi": 62,
          "time": 54.19355199999985,
          "velocity": 0.5669291338582677,
          "duration": 0.11592742708332793
        },
        {
          "name": "D3",
          "midi": 50,
          "time": 54.19355199999985,
          "velocity": 0.5669291338582677,
          "duration": 0.12096774999999127
        },
        {
          "name": "D3",
          "midi": 50,
          "time": 54.43548749999984,
          "velocity": 0.5669291338582677,
          "duration": 0.1008064583333308
        },
        {
          "name": "D2",
          "midi": 38,
          "time": 54.43548749999984,
          "velocity": 0.5669291338582677,
          "duration": 0.14112904166666596
        },
        {
          "name": "D4",
          "midi": 62,
          "time": 54.677422999999834,
          "velocity": 0.49606299212598426,
          "duration": 0.08568548958333366
        },
        {
          "name": "C4",
          "midi": 60,
          "time": 54.677422999999834,
          "velocity": 0.5669291338582677,
          "duration": 0.09576613541666745
        },
        {
          "name": "C3",
          "midi": 48,
          "time": 54.677422999999834,
          "velocity": 0.5669291338582677,
          "duration": 0.08568548958333366
        },
        {
          "name": "A3",
          "midi": 57,
          "time": 54.91935849999984,
          "velocity": 0.5669291338582677,
          "duration": 0.09576613541666745
        },
        {
          "name": "A2",
          "midi": 45,
          "time": 54.91935849999984,
          "velocity": 0.5669291338582677,
          "duration": 0.1008064583333308
        },
        {
          "name": "D4",
          "midi": 62,
          "time": 55.161293999999835,
          "velocity": 0.49606299212598426,
          "duration": 0.07560484374999987
        },
        {
          "name": "C4",
          "midi": 60,
          "time": 55.161293999999835,
          "velocity": 0.49606299212598426,
          "duration": 0.07560484374999987
        },
        {
          "name": "D4",
          "midi": 62,
          "time": 55.161293999999835,
          "velocity": 0.5669291338582677,
          "duration": 0.08064516666666321
        },
        {
          "name": "D3",
          "midi": 50,
          "time": 55.161293999999835,
          "velocity": 0.5669291338582677,
          "duration": 0.10584678124999414
        },
        {
          "name": "D3",
          "midi": 50,
          "time": 55.40322949999983,
          "velocity": 0.5669291338582677,
          "duration": 0.10584678125000124
        },
        {
          "name": "D2",
          "midi": 38,
          "time": 55.40322949999983,
          "velocity": 0.5669291338582677,
          "duration": 0.25201614583333765
        },
        {
          "name": "D4",
          "midi": 62,
          "time": 55.645164999999835,
          "velocity": 0.49606299212598426,
          "duration": 0.10584678125000124
        },
        {
          "name": "C4",
          "midi": 60,
          "time": 55.645164999999835,
          "velocity": 0.5669291338582677,
          "duration": 0.13104839583333217
        },
        {
          "name": "C3",
          "midi": 48,
          "time": 55.645164999999835,
          "velocity": 0.5669291338582677,
          "duration": 0.18649194791666446
        },
        {
          "name": "A3",
          "midi": 57,
          "time": 55.88710049999983,
          "velocity": 0.5669291338582677,
          "duration": 0.11088710416666459
        },
        {
          "name": "A2",
          "midi": 45,
          "time": 55.88710049999983,
          "velocity": 0.5669291338582677,
          "duration": 0.09576613541666745
        },
        {
          "name": "C4",
          "midi": 60,
          "time": 56.12903599999983,
          "velocity": 0.49606299212598426,
          "duration": 0.1008064583333308
        },
        {
          "name": "D4",
          "midi": 62,
          "time": 56.12903599999983,
          "velocity": 0.49606299212598426,
          "duration": 0.08568548958333366
        },
        {
          "name": "D4",
          "midi": 62,
          "time": 56.12903599999983,
          "velocity": 0.5669291338582677,
          "duration": 0.1360887187499955
        },
        {
          "name": "D3",
          "midi": 50,
          "time": 56.12903599999983,
          "velocity": 0.5669291338582677,
          "duration": 0.08568548958333366
        },
        {
          "name": "D3",
          "midi": 50,
          "time": 56.370971499999825,
          "velocity": 0.5669291338582677,
          "duration": 0.11088710416666459
        },
        {
          "name": "D2",
          "midi": 38,
          "time": 56.370971499999825,
          "velocity": 0.5669291338582677,
          "duration": 0.13104839583333217
        },
        {
          "name": "D4",
          "midi": 62,
          "time": 56.61290699999982,
          "velocity": 0.49606299212598426,
          "duration": 0.08064516666667032
        },
        {
          "name": "C4",
          "midi": 60,
          "time": 56.61290699999982,
          "velocity": 0.5669291338582677,
          "duration": 0.09576613541666745
        },
        {
          "name": "C3",
          "midi": 48,
          "time": 56.61290699999982,
          "velocity": 0.5669291338582677,
          "duration": 0.07056452083333653
        },
        {
          "name": "A3",
          "midi": 57,
          "time": 56.854842499999826,
          "velocity": 0.5669291338582677,
          "duration": 0.11592742708332793
        },
        {
          "name": "A2",
          "midi": 45,
          "time": 56.854842499999826,
          "velocity": 0.5669291338582677,
          "duration": 0.08064516666666321
        },
        {
          "name": "C4",
          "midi": 60,
          "time": 57.09677799999982,
          "velocity": 0.49606299212598426,
          "duration": 0.09576613541666035
        },
        {
          "name": "D4",
          "midi": 62,
          "time": 57.09677799999982,
          "velocity": 0.49606299212598426,
          "duration": 0.08064516666666321
        },
        {
          "name": "D4",
          "midi": 62,
          "time": 57.09677799999982,
          "velocity": 0.5669291338582677,
          "duration": 0.11592742708332793
        },
        {
          "name": "D3",
          "midi": 50,
          "time": 57.09677799999982,
          "velocity": 0.5669291338582677,
          "duration": 0.12096774999999127
        },
        {
          "name": "D3",
          "midi": 50,
          "time": 57.33871349999981,
          "velocity": 0.5669291338582677,
          "duration": 0.1008064583333308
        },
        {
          "name": "D2",
          "midi": 38,
          "time": 57.33871349999981,
          "velocity": 0.5669291338582677,
          "duration": 0.14112904166666596
        },
        {
          "name": "D4",
          "midi": 62,
          "time": 57.58064899999981,
          "velocity": 0.49606299212598426,
          "duration": 0.08568548958333366
        },
        {
          "name": "C4",
          "midi": 60,
          "time": 57.58064899999981,
          "velocity": 0.5669291338582677,
          "duration": 0.09576613541666745
        },
        {
          "name": "C3",
          "midi": 48,
          "time": 57.58064899999981,
          "velocity": 0.5669291338582677,
          "duration": 0.08568548958333366
        },
        {
          "name": "A3",
          "midi": 57,
          "time": 57.82258449999981,
          "velocity": 0.5669291338582677,
          "duration": 0.09576613541666745
        },
        {
          "name": "A2",
          "midi": 45,
          "time": 57.82258449999981,
          "velocity": 0.5669291338582677,
          "duration": 0.1008064583333308
        },
        {
          "name": "D4",
          "midi": 62,
          "time": 58.06451999999981,
          "velocity": 0.49606299212598426,
          "duration": 0.07560484374999987
        },
        {
          "name": "C4",
          "midi": 60,
          "time": 58.06451999999981,
          "velocity": 0.49606299212598426,
          "duration": 0.07560484374999987
        },
        {
          "name": "D4",
          "midi": 62,
          "time": 58.06451999999981,
          "velocity": 0.5669291338582677,
          "duration": 0.08064516666666321
        },
        {
          "name": "D3",
          "midi": 50,
          "time": 58.06451999999981,
          "velocity": 0.5669291338582677,
          "duration": 0.10584678124999414
        },
        {
          "name": "D3",
          "midi": 50,
          "time": 58.30645549999981,
          "velocity": 0.5669291338582677,
          "duration": 0.10584678125000124
        },
        {
          "name": "D2",
          "midi": 38,
          "time": 58.30645549999981,
          "velocity": 0.5669291338582677,
          "duration": 0.25201614583333765
        },
        {
          "name": "D4",
          "midi": 62,
          "time": 58.54839099999981,
          "velocity": 0.49606299212598426,
          "duration": 0.10584678125000124
        },
        {
          "name": "C4",
          "midi": 60,
          "time": 58.54839099999981,
          "velocity": 0.5669291338582677,
          "duration": 0.13104839583333217
        },
        {
          "name": "C3",
          "midi": 48,
          "time": 58.54839099999981,
          "velocity": 0.5669291338582677,
          "duration": 0.18649194791666446
        },
        {
          "name": "A3",
          "midi": 57,
          "time": 58.79032649999981,
          "velocity": 0.5669291338582677,
          "duration": 0.11088710416666459
        },
        {
          "name": "A2",
          "midi": 45,
          "time": 58.79032649999981,
          "velocity": 0.5669291338582677,
          "duration": 0.09576613541666745
        },
        {
          "name": "C4",
          "midi": 60,
          "time": 59.032261999999804,
          "velocity": 0.49606299212598426,
          "duration": 0.1008064583333308
        },
        {
          "name": "D4",
          "midi": 62,
          "time": 59.032261999999804,
          "velocity": 0.49606299212598426,
          "duration": 0.08568548958333366
        },
        {
          "name": "D4",
          "midi": 62,
          "time": 59.032261999999804,
          "velocity": 0.5669291338582677,
          "duration": 0.1360887187499955
        },
        {
          "name": "D3",
          "midi": 50,
          "time": 59.032261999999804,
          "velocity": 0.5669291338582677,
          "duration": 0.08568548958333366
        },
        {
          "name": "D3",
          "midi": 50,
          "time": 59.2741974999998,
          "velocity": 0.5669291338582677,
          "duration": 0.11088710416666459
        },
        {
          "name": "D2",
          "midi": 38,
          "time": 59.2741974999998,
          "velocity": 0.5669291338582677,
          "duration": 0.13104839583333217
        },
        {
          "name": "D4",
          "midi": 62,
          "time": 59.5161329999998,
          "velocity": 0.49606299212598426,
          "duration": 0.08064516666667032
        },
        {
          "name": "C4",
          "midi": 60,
          "time": 59.5161329999998,
          "velocity": 0.5669291338582677,
          "duration": 0.09576613541666745
        },
        {
          "name": "C3",
          "midi": 48,
          "time": 59.5161329999998,
          "velocity": 0.5669291338582677,
          "duration": 0.07056452083333653
        },
        {
          "name": "A3",
          "midi": 57,
          "time": 59.7580684999998,
          "velocity": 0.5669291338582677,
          "duration": 0.11592742708332793
        },
        {
          "name": "A2",
          "midi": 45,
          "time": 59.7580684999998,
          "velocity": 0.5669291338582677,
          "duration": 0.08064516666666321
        },
        {
          "name": "C4",
          "midi": 60,
          "time": 60.0000039999998,
          "velocity": 0.49606299212598426,
          "duration": 0.09576613541666035
        },
        {
          "name": "D4",
          "midi": 62,
          "time": 60.0000039999998,
          "velocity": 0.49606299212598426,
          "duration": 0.08064516666666321
        },
        {
          "name": "D4",
          "midi": 62,
          "time": 60.0000039999998,
          "velocity": 0.5669291338582677,
          "duration": 0.11592742708332793
        },
        {
          "name": "D3",
          "midi": 50,
          "time": 60.0000039999998,
          "velocity": 0.5669291338582677,
          "duration": 0.12096774999999127
        },
        {
          "name": "D3",
          "midi": 50,
          "time": 60.24193949999979,
          "velocity": 0.5669291338582677,
          "duration": 0.1008064583333308
        },
        {
          "name": "D2",
          "midi": 38,
          "time": 60.24193949999979,
          "velocity": 0.5669291338582677,
          "duration": 0.14112904166666596
        },
        {
          "name": "D4",
          "midi": 62,
          "time": 60.483874999999784,
          "velocity": 0.49606299212598426,
          "duration": 0.08568548958333366
        },
        {
          "name": "C4",
          "midi": 60,
          "time": 60.483874999999784,
          "velocity": 0.5669291338582677,
          "duration": 0.09576613541666745
        },
        {
          "name": "C3",
          "midi": 48,
          "time": 60.483874999999784,
          "velocity": 0.5669291338582677,
          "duration": 0.08568548958333366
        },
        {
          "name": "A3",
          "midi": 57,
          "time": 60.72581049999979,
          "velocity": 0.5669291338582677,
          "duration": 0.09576613541666745
        },
        {
          "name": "A2",
          "midi": 45,
          "time": 60.72581049999979,
          "velocity": 0.5669291338582677,
          "duration": 0.1008064583333308
        },
        {
          "name": "D4",
          "midi": 62,
          "time": 60.967745999999785,
          "velocity": 0.49606299212598426,
          "duration": 0.07560484374999987
        },
        {
          "name": "C4",
          "midi": 60,
          "time": 60.967745999999785,
          "velocity": 0.49606299212598426,
          "duration": 0.07560484374999987
        },
        {
          "name": "D4",
          "midi": 62,
          "time": 60.967745999999785,
          "velocity": 0.5669291338582677,
          "duration": 0.08064516666666321
        },
        {
          "name": "D3",
          "midi": 50,
          "time": 60.967745999999785,
          "velocity": 0.5669291338582677,
          "duration": 0.10584678124999414
        },
        {
          "name": "D3",
          "midi": 50,
          "time": 61.20968149999978,
          "velocity": 0.5669291338582677,
          "duration": 0.10584678125000124
        },
        {
          "name": "D2",
          "midi": 38,
          "time": 61.20968149999978,
          "velocity": 0.5669291338582677,
          "duration": 0.25201614583333765
        },
        {
          "name": "D4",
          "midi": 62,
          "time": 61.451616999999786,
          "velocity": 0.49606299212598426,
          "duration": 0.10584678125000124
        },
        {
          "name": "C4",
          "midi": 60,
          "time": 61.451616999999786,
          "velocity": 0.5669291338582677,
          "duration": 0.13104839583333217
        },
        {
          "name": "C3",
          "midi": 48,
          "time": 61.451616999999786,
          "velocity": 0.5669291338582677,
          "duration": 0.18649194791666446
        },
        {
          "name": "A3",
          "midi": 57,
          "time": 61.69355249999978,
          "velocity": 0.5669291338582677,
          "duration": 0.11088710416666459
        },
        {
          "name": "A2",
          "midi": 45,
          "time": 61.69355249999978,
          "velocity": 0.5669291338582677,
          "duration": 0.09576613541666745
        },
        {
          "name": "C4",
          "midi": 60,
          "time": 61.93548799999978,
          "velocity": 0.49606299212598426,
          "duration": 0.1008064583333308
        },
        {
          "name": "D4",
          "midi": 62,
          "time": 61.93548799999978,
          "velocity": 0.49606299212598426,
          "duration": 0.08568548958333366
        },
        {
          "name": "D4",
          "midi": 62,
          "time": 61.93548799999978,
          "velocity": 0.5669291338582677,
          "duration": 0.1360887187499955
        },
        {
          "name": "D3",
          "midi": 50,
          "time": 61.93548799999978,
          "velocity": 0.5669291338582677,
          "duration": 0.08568548958333366
        },
        {
          "name": "D3",
          "midi": 50,
          "time": 62.177423499999776,
          "velocity": 0.5669291338582677,
          "duration": 0.11088710416666459
        },
        {
          "name": "D2",
          "midi": 38,
          "time": 62.177423499999776,
          "velocity": 0.5669291338582677,
          "duration": 0.13104839583333217
        },
        {
          "name": "D4",
          "midi": 62,
          "time": 62.41935899999977,
          "velocity": 0.49606299212598426,
          "duration": 0.08064516666667032
        },
        {
          "name": "C4",
          "midi": 60,
          "time": 62.41935899999977,
          "velocity": 0.5669291338582677,
          "duration": 0.09576613541666745
        },
        {
          "name": "C3",
          "midi": 48,
          "time": 62.41935899999977,
          "velocity": 0.5669291338582677,
          "duration": 0.07056452083333653
        },
        {
          "name": "A3",
          "midi": 57,
          "time": 62.66129449999978,
          "velocity": 0.5669291338582677,
          "duration": 0.11592742708332793
        },
        {
          "name": "A2",
          "midi": 45,
          "time": 62.66129449999978,
          "velocity": 0.5669291338582677,
          "duration": 0.08064516666666321
        },
        {
          "name": "C4",
          "midi": 60,
          "time": 62.90322999999977,
          "velocity": 0.49606299212598426,
          "duration": 0.09576613541666035
        },
        {
          "name": "D4",
          "midi": 62,
          "time": 62.90322999999977,
          "velocity": 0.49606299212598426,
          "duration": 0.08064516666666321
        },
        {
          "name": "D4",
          "midi": 62,
          "time": 62.90322999999977,
          "velocity": 0.5669291338582677,
          "duration": 0.11592742708332793
        },
        {
          "name": "D3",
          "midi": 50,
          "time": 62.90322999999977,
          "velocity": 0.5669291338582677,
          "duration": 0.12096774999999127
        },
        {
          "name": "D3",
          "midi": 50,
          "time": 63.14516549999976,
          "velocity": 0.5669291338582677,
          "duration": 0.1008064583333308
        },
        {
          "name": "D2",
          "midi": 38,
          "time": 63.14516549999976,
          "velocity": 0.5669291338582677,
          "duration": 0.14112904166666596
        },
        {
          "name": "D4",
          "midi": 62,
          "time": 63.38710099999976,
          "velocity": 0.49606299212598426,
          "duration": 0.08568548958333366
        },
        {
          "name": "C4",
          "midi": 60,
          "time": 63.38710099999976,
          "velocity": 0.5669291338582677,
          "duration": 0.09576613541666745
        },
        {
          "name": "C3",
          "midi": 48,
          "time": 63.38710099999976,
          "velocity": 0.5669291338582677,
          "duration": 0.08568548958333366
        },
        {
          "name": "A3",
          "midi": 57,
          "time": 63.62903649999976,
          "velocity": 0.5669291338582677,
          "duration": 0.09576613541666745
        },
        {
          "name": "A2",
          "midi": 45,
          "time": 63.62903649999976,
          "velocity": 0.5669291338582677,
          "duration": 0.1008064583333308
        },
        {
          "name": "D4",
          "midi": 62,
          "time": 63.87097199999976,
          "velocity": 0.49606299212598426,
          "duration": 0.07560484374999987
        },
        {
          "name": "C4",
          "midi": 60,
          "time": 63.87097199999976,
          "velocity": 0.49606299212598426,
          "duration": 0.07560484374999987
        },
        {
          "name": "D4",
          "midi": 62,
          "time": 63.87097199999976,
          "velocity": 0.5669291338582677,
          "duration": 0.08064516666666321
        },
        {
          "name": "D3",
          "midi": 50,
          "time": 63.87097199999976,
          "velocity": 0.5669291338582677,
          "duration": 0.10584678124999414
        },
        {
          "name": "D3",
          "midi": 50,
          "time": 64.11290749999975,
          "velocity": 0.5669291338582677,
          "duration": 0.10584678124999414
        },
        {
          "name": "D2",
          "midi": 38,
          "time": 64.11290749999975,
          "velocity": 0.5669291338582677,
          "duration": 0.25201614583332343
        },
        {
          "name": "D4",
          "midi": 62,
          "time": 64.35484299999975,
          "velocity": 0.49606299212598426,
          "duration": 0.10584678124999414
        },
        {
          "name": "C4",
          "midi": 60,
          "time": 64.35484299999975,
          "velocity": 0.5669291338582677,
          "duration": 0.13104839583333217
        },
        {
          "name": "C3",
          "midi": 48,
          "time": 64.35484299999975,
          "velocity": 0.5669291338582677,
          "duration": 0.18649194791666446
        },
        {
          "name": "A3",
          "midi": 57,
          "time": 64.59677849999974,
          "velocity": 0.5669291338582677,
          "duration": 0.11088710416666459
        },
        {
          "name": "A2",
          "midi": 45,
          "time": 64.59677849999974,
          "velocity": 0.5669291338582677,
          "duration": 0.09576613541666745
        },
        {
          "name": "C4",
          "midi": 60,
          "time": 64.83871399999974,
          "velocity": 0.49606299212598426,
          "duration": 0.10080645833332369
        },
        {
          "name": "D4",
          "midi": 62,
          "time": 64.83871399999974,
          "velocity": 0.49606299212598426,
          "duration": 0.08568548958332656
        },
        {
          "name": "D4",
          "midi": 62,
          "time": 64.83871399999974,
          "velocity": 0.5669291338582677,
          "duration": 0.1360887187499884
        },
        {
          "name": "D3",
          "midi": 50,
          "time": 64.83871399999974,
          "velocity": 0.5669291338582677,
          "duration": 0.08568548958332656
        },
        {
          "name": "D3",
          "midi": 50,
          "time": 65.08064949999972,
          "velocity": 0.5669291338582677,
          "duration": 0.11088710416666459
        },
        {
          "name": "D2",
          "midi": 38,
          "time": 65.08064949999972,
          "velocity": 0.5669291338582677,
          "duration": 0.13104839583333217
        },
        {
          "name": "D4",
          "midi": 62,
          "time": 65.32258499999972,
          "velocity": 0.49606299212598426,
          "duration": 0.08064516666665611
        },
        {
          "name": "C4",
          "midi": 60,
          "time": 65.32258499999972,
          "velocity": 0.5669291338582677,
          "duration": 0.09576613541665324
        },
        {
          "name": "C3",
          "midi": 48,
          "time": 65.32258499999972,
          "velocity": 0.5669291338582677,
          "duration": 0.07056452083332942
        },
        {
          "name": "A3",
          "midi": 57,
          "time": 65.5645204999997,
          "velocity": 0.5669291338582677,
          "duration": 0.11592742708333503
        },
        {
          "name": "A2",
          "midi": 45,
          "time": 65.5645204999997,
          "velocity": 0.5669291338582677,
          "duration": 0.08064516666667032
        },
        {
          "name": "C4",
          "midi": 60,
          "time": 65.8064559999997,
          "velocity": 0.49606299212598426,
          "duration": 0.09576613541666745
        },
        {
          "name": "D4",
          "midi": 62,
          "time": 65.8064559999997,
          "velocity": 0.49606299212598426,
          "duration": 0.08064516666667032
        },
        {
          "name": "D4",
          "midi": 62,
          "time": 65.8064559999997,
          "velocity": 0.5669291338582677,
          "duration": 0.11592742708333503
        },
        {
          "name": "D3",
          "midi": 50,
          "time": 65.8064559999997,
          "velocity": 0.5669291338582677,
          "duration": 0.12096775000000548
        },
        {
          "name": "D3",
          "midi": 50,
          "time": 66.04839149999971,
          "velocity": 0.5669291338582677,
          "duration": 0.1008064583333379
        },
        {
          "name": "D2",
          "midi": 38,
          "time": 66.04839149999971,
          "velocity": 0.5669291338582677,
          "duration": 0.14112904166667306
        },
        {
          "name": "D4",
          "midi": 62,
          "time": 66.29032699999972,
          "velocity": 0.49606299212598426,
          "duration": 0.08568548958332656
        },
        {
          "name": "C4",
          "midi": 60,
          "time": 66.29032699999972,
          "velocity": 0.5669291338582677,
          "duration": 0.09576613541665324
        },
        {
          "name": "C3",
          "midi": 48,
          "time": 66.29032699999972,
          "velocity": 0.5669291338582677,
          "duration": 0.08568548958332656
        },
        {
          "name": "A3",
          "midi": 57,
          "time": 66.5322624999997,
          "velocity": 0.5669291338582677,
          "duration": 0.09576613541666745
        },
        {
          "name": "A2",
          "midi": 45,
          "time": 66.5322624999997,
          "velocity": 0.5669291338582677,
          "duration": 0.1008064583333379
        },
        {
          "name": "D4",
          "midi": 62,
          "time": 66.77419799999971,
          "velocity": 0.49606299212598426,
          "duration": 0.07560484374999987
        },
        {
          "name": "C4",
          "midi": 60,
          "time": 66.77419799999971,
          "velocity": 0.49606299212598426,
          "duration": 0.07560484374999987
        },
        {
          "name": "D4",
          "midi": 62,
          "time": 66.77419799999971,
          "velocity": 0.5669291338582677,
          "duration": 0.08064516666667032
        },
        {
          "name": "D3",
          "midi": 50,
          "time": 66.77419799999971,
          "velocity": 0.5669291338582677,
          "duration": 0.10584678125000835
        },
        {
          "name": "D3",
          "midi": 50,
          "time": 67.01613349999973,
          "velocity": 0.5669291338582677,
          "duration": 0.10584678124999414
        },
        {
          "name": "D2",
          "midi": 38,
          "time": 67.01613349999973,
          "velocity": 0.5669291338582677,
          "duration": 0.25201614583332343
        },
        {
          "name": "D4",
          "midi": 62,
          "time": 67.25806899999972,
          "velocity": 0.49606299212598426,
          "duration": 0.10584678124999414
        },
        {
          "name": "C4",
          "midi": 60,
          "time": 67.25806899999972,
          "velocity": 0.5669291338582677,
          "duration": 0.13104839583333217
        },
        {
          "name": "C3",
          "midi": 48,
          "time": 67.25806899999972,
          "velocity": 0.5669291338582677,
          "duration": 0.18649194791666446
        },
        {
          "name": "A3",
          "midi": 57,
          "time": 67.50000449999972,
          "velocity": 0.5669291338582677,
          "duration": 0.11088710416666459
        },
        {
          "name": "A2",
          "midi": 45,
          "time": 67.50000449999972,
          "velocity": 0.5669291338582677,
          "duration": 0.09576613541666745
        },
        {
          "name": "C4",
          "midi": 60,
          "time": 67.74193999999972,
          "velocity": 0.49606299212598426,
          "duration": 0.10080645833332369
        },
        {
          "name": "D4",
          "midi": 62,
          "time": 67.74193999999972,
          "velocity": 0.49606299212598426,
          "duration": 0.08568548958332656
        },
        {
          "name": "D4",
          "midi": 62,
          "time": 67.74193999999972,
          "velocity": 0.5669291338582677,
          "duration": 0.1360887187499884
        },
        {
          "name": "D3",
          "midi": 50,
          "time": 67.74193999999972,
          "velocity": 0.5669291338582677,
          "duration": 0.08568548958332656
        },
        {
          "name": "D3",
          "midi": 50,
          "time": 67.9838754999997,
          "velocity": 0.5669291338582677,
          "duration": 0.11088710416666459
        },
        {
          "name": "D2",
          "midi": 38,
          "time": 67.9838754999997,
          "velocity": 0.5669291338582677,
          "duration": 0.13104839583333217
        },
        {
          "name": "D4",
          "midi": 62,
          "time": 68.2258109999997,
          "velocity": 0.49606299212598426,
          "duration": 0.08064516666665611
        },
        {
          "name": "C4",
          "midi": 60,
          "time": 68.2258109999997,
          "velocity": 0.5669291338582677,
          "duration": 0.09576613541665324
        },
        {
          "name": "C3",
          "midi": 48,
          "time": 68.2258109999997,
          "velocity": 0.5669291338582677,
          "duration": 0.07056452083332942
        },
        {
          "name": "A3",
          "midi": 57,
          "time": 68.46774649999968,
          "velocity": 0.5669291338582677,
          "duration": 0.11592742708333503
        },
        {
          "name": "A2",
          "midi": 45,
          "time": 68.46774649999968,
          "velocity": 0.5669291338582677,
          "duration": 0.08064516666667032
        },
        {
          "name": "C4",
          "midi": 60,
          "time": 68.70968199999967,
          "velocity": 0.49606299212598426,
          "duration": 0.09576613541666745
        },
        {
          "name": "D4",
          "midi": 62,
          "time": 68.70968199999967,
          "velocity": 0.49606299212598426,
          "duration": 0.08064516666667032
        },
        {
          "name": "D4",
          "midi": 62,
          "time": 68.70968199999967,
          "velocity": 0.5669291338582677,
          "duration": 0.11592742708333503
        },
        {
          "name": "D3",
          "midi": 50,
          "time": 68.70968199999967,
          "velocity": 0.5669291338582677,
          "duration": 0.12096775000000548
        },
        {
          "name": "D3",
          "midi": 50,
          "time": 68.95161749999968,
          "velocity": 0.5669291338582677,
          "duration": 0.1008064583333379
        },
        {
          "name": "D2",
          "midi": 38,
          "time": 68.95161749999968,
          "velocity": 0.5669291338582677,
          "duration": 0.14112904166667306
        },
        {
          "name": "D4",
          "midi": 62,
          "time": 69.1935529999997,
          "velocity": 0.49606299212598426,
          "duration": 0.08568548958332656
        },
        {
          "name": "C4",
          "midi": 60,
          "time": 69.1935529999997,
          "velocity": 0.5669291338582677,
          "duration": 0.09576613541665324
        },
        {
          "name": "C3",
          "midi": 48,
          "time": 69.1935529999997,
          "velocity": 0.5669291338582677,
          "duration": 0.08568548958332656
        },
        {
          "name": "A3",
          "midi": 57,
          "time": 69.43548849999968,
          "velocity": 0.5669291338582677,
          "duration": 0.09576613541666745
        },
        {
          "name": "A2",
          "midi": 45,
          "time": 69.43548849999968,
          "velocity": 0.5669291338582677,
          "duration": 0.1008064583333379
        },
        {
          "name": "D4",
          "midi": 62,
          "time": 69.67742399999969,
          "velocity": 0.49606299212598426,
          "duration": 0.07560484374999987
        },
        {
          "name": "C4",
          "midi": 60,
          "time": 69.67742399999969,
          "velocity": 0.49606299212598426,
          "duration": 0.07560484374999987
        },
        {
          "name": "D4",
          "midi": 62,
          "time": 69.67742399999969,
          "velocity": 0.5669291338582677,
          "duration": 0.08064516666667032
        },
        {
          "name": "D3",
          "midi": 50,
          "time": 69.67742399999969,
          "velocity": 0.5669291338582677,
          "duration": 0.10584678125000835
        },
        {
          "name": "D3",
          "midi": 50,
          "time": 69.9193594999997,
          "velocity": 0.5669291338582677,
          "duration": 0.10584678124999414
        },
        {
          "name": "D2",
          "midi": 38,
          "time": 69.9193594999997,
          "velocity": 0.5669291338582677,
          "duration": 0.25201614583332343
        },
        {
          "name": "D4",
          "midi": 62,
          "time": 70.1612949999997,
          "velocity": 0.49606299212598426,
          "duration": 0.10584678124999414
        },
        {
          "name": "C4",
          "midi": 60,
          "time": 70.1612949999997,
          "velocity": 0.5669291338582677,
          "duration": 0.13104839583333217
        },
        {
          "name": "C3",
          "midi": 48,
          "time": 70.1612949999997,
          "velocity": 0.5669291338582677,
          "duration": 0.18649194791666446
        },
        {
          "name": "A3",
          "midi": 57,
          "time": 70.4032304999997,
          "velocity": 0.5669291338582677,
          "duration": 0.11088710416666459
        },
        {
          "name": "A2",
          "midi": 45,
          "time": 70.4032304999997,
          "velocity": 0.5669291338582677,
          "duration": 0.09576613541666745
        },
        {
          "name": "C4",
          "midi": 60,
          "time": 70.64516599999969,
          "velocity": 0.49606299212598426,
          "duration": 0.10080645833332369
        },
        {
          "name": "D4",
          "midi": 62,
          "time": 70.64516599999969,
          "velocity": 0.49606299212598426,
          "duration": 0.08568548958332656
        },
        {
          "name": "D4",
          "midi": 62,
          "time": 70.64516599999969,
          "velocity": 0.5669291338582677,
          "duration": 0.1360887187499884
        },
        {
          "name": "D3",
          "midi": 50,
          "time": 70.64516599999969,
          "velocity": 0.5669291338582677,
          "duration": 0.08568548958332656
        },
        {
          "name": "D3",
          "midi": 50,
          "time": 70.88710149999967,
          "velocity": 0.5669291338582677,
          "duration": 0.11088710416666459
        },
        {
          "name": "D2",
          "midi": 38,
          "time": 70.88710149999967,
          "velocity": 0.5669291338582677,
          "duration": 0.13104839583333217
        },
        {
          "name": "D4",
          "midi": 62,
          "time": 71.12903699999967,
          "velocity": 0.49606299212598426,
          "duration": 0.08064516666665611
        },
        {
          "name": "C4",
          "midi": 60,
          "time": 71.12903699999967,
          "velocity": 0.5669291338582677,
          "duration": 0.09576613541665324
        },
        {
          "name": "C3",
          "midi": 48,
          "time": 71.12903699999967,
          "velocity": 0.5669291338582677,
          "duration": 0.07056452083332942
        },
        {
          "name": "A3",
          "midi": 57,
          "time": 71.37097249999965,
          "velocity": 0.5669291338582677,
          "duration": 0.11592742708333503
        },
        {
          "name": "A2",
          "midi": 45,
          "time": 71.37097249999965,
          "velocity": 0.5669291338582677,
          "duration": 0.08064516666667032
        },
        {
          "name": "C4",
          "midi": 60,
          "time": 71.61290799999965,
          "velocity": 0.49606299212598426,
          "duration": 0.09576613541666745
        },
        {
          "name": "D4",
          "midi": 62,
          "time": 71.61290799999965,
          "velocity": 0.49606299212598426,
          "duration": 0.08064516666667032
        },
        {
          "name": "D4",
          "midi": 62,
          "time": 71.61290799999965,
          "velocity": 0.5669291338582677,
          "duration": 0.11592742708333503
        },
        {
          "name": "D3",
          "midi": 50,
          "time": 71.61290799999965,
          "velocity": 0.5669291338582677,
          "duration": 0.12096775000000548
        },
        {
          "name": "D3",
          "midi": 50,
          "time": 71.85484349999966,
          "velocity": 0.5669291338582677,
          "duration": 0.1008064583333379
        },
        {
          "name": "D2",
          "midi": 38,
          "time": 71.85484349999966,
          "velocity": 0.5669291338582677,
          "duration": 0.14112904166667306
        },
        {
          "name": "D4",
          "midi": 62,
          "time": 72.09677899999967,
          "velocity": 0.49606299212598426,
          "duration": 0.08568548958332656
        },
        {
          "name": "C4",
          "midi": 60,
          "time": 72.09677899999967,
          "velocity": 0.5669291338582677,
          "duration": 0.09576613541665324
        },
        {
          "name": "C3",
          "midi": 48,
          "time": 72.09677899999967,
          "velocity": 0.5669291338582677,
          "duration": 0.08568548958332656
        },
        {
          "name": "A3",
          "midi": 57,
          "time": 72.33871449999965,
          "velocity": 0.5669291338582677,
          "duration": 0.09576613541666745
        },
        {
          "name": "A2",
          "midi": 45,
          "time": 72.33871449999965,
          "velocity": 0.5669291338582677,
          "duration": 0.1008064583333379
        },
        {
          "name": "D4",
          "midi": 62,
          "time": 72.58064999999966,
          "velocity": 0.49606299212598426,
          "duration": 0.07560484374999987
        },
        {
          "name": "C4",
          "midi": 60,
          "time": 72.58064999999966,
          "velocity": 0.49606299212598426,
          "duration": 0.07560484374999987
        },
        {
          "name": "D4",
          "midi": 62,
          "time": 72.58064999999966,
          "velocity": 0.5669291338582677,
          "duration": 0.08064516666667032
        },
        {
          "name": "D3",
          "midi": 50,
          "time": 72.58064999999966,
          "velocity": 0.5669291338582677,
          "duration": 0.10584678125000835
        },
        {
          "name": "D3",
          "midi": 50,
          "time": 72.82258549999968,
          "velocity": 0.5669291338582677,
          "duration": 0.10584678124999414
        },
        {
          "name": "D2",
          "midi": 38,
          "time": 72.82258549999968,
          "velocity": 0.5669291338582677,
          "duration": 0.25201614583332343
        },
        {
          "name": "D4",
          "midi": 62,
          "time": 73.06452099999967,
          "velocity": 0.49606299212598426,
          "duration": 0.10584678124999414
        },
        {
          "name": "C4",
          "midi": 60,
          "time": 73.06452099999967,
          "velocity": 0.5669291338582677,
          "duration": 0.13104839583333217
        },
        {
          "name": "C3",
          "midi": 48,
          "time": 73.06452099999967,
          "velocity": 0.5669291338582677,
          "duration": 0.18649194791666446
        },
        {
          "name": "A3",
          "midi": 57,
          "time": 73.30645649999967,
          "velocity": 0.5669291338582677,
          "duration": 0.11088710416666459
        },
        {
          "name": "A2",
          "midi": 45,
          "time": 73.30645649999967,
          "velocity": 0.5669291338582677,
          "duration": 0.09576613541666745
        },
        {
          "name": "C4",
          "midi": 60,
          "time": 73.54839199999967,
          "velocity": 0.49606299212598426,
          "duration": 0.10080645833332369
        },
        {
          "name": "D4",
          "midi": 62,
          "time": 73.54839199999967,
          "velocity": 0.49606299212598426,
          "duration": 0.08568548958332656
        },
        {
          "name": "D4",
          "midi": 62,
          "time": 73.54839199999967,
          "velocity": 0.5669291338582677,
          "duration": 0.1360887187499884
        },
        {
          "name": "D3",
          "midi": 50,
          "time": 73.54839199999967,
          "velocity": 0.5669291338582677,
          "duration": 0.08568548958332656
        },
        {
          "name": "D3",
          "midi": 50,
          "time": 73.79032749999965,
          "velocity": 0.5669291338582677,
          "duration": 0.11088710416666459
        },
        {
          "name": "D2",
          "midi": 38,
          "time": 73.79032749999965,
          "velocity": 0.5669291338582677,
          "duration": 0.13104839583333217
        },
        {
          "name": "D4",
          "midi": 62,
          "time": 74.03226299999965,
          "velocity": 0.49606299212598426,
          "duration": 0.08064516666665611
        },
        {
          "name": "C4",
          "midi": 60,
          "time": 74.03226299999965,
          "velocity": 0.5669291338582677,
          "duration": 0.09576613541665324
        },
        {
          "name": "C3",
          "midi": 48,
          "time": 74.03226299999965,
          "velocity": 0.5669291338582677,
          "duration": 0.07056452083332942
        },
        {
          "name": "A3",
          "midi": 57,
          "time": 74.27419849999963,
          "velocity": 0.5669291338582677,
          "duration": 0.11592742708333503
        },
        {
          "name": "A2",
          "midi": 45,
          "time": 74.27419849999963,
          "velocity": 0.5669291338582677,
          "duration": 0.08064516666667032
        },
        {
          "name": "C4",
          "midi": 60,
          "time": 74.51613399999962,
          "velocity": 0.49606299212598426,
          "duration": 0.09576613541666745
        },
        {
          "name": "D4",
          "midi": 62,
          "time": 74.51613399999962,
          "velocity": 0.49606299212598426,
          "duration": 0.08064516666667032
        },
        {
          "name": "D4",
          "midi": 62,
          "time": 74.51613399999962,
          "velocity": 0.5669291338582677,
          "duration": 0.11592742708333503
        },
        {
          "name": "D3",
          "midi": 50,
          "time": 74.51613399999962,
          "velocity": 0.5669291338582677,
          "duration": 0.12096775000000548
        },
        {
          "name": "D3",
          "midi": 50,
          "time": 74.75806949999964,
          "velocity": 0.5669291338582677,
          "duration": 0.1008064583333379
        },
        {
          "name": "D2",
          "midi": 38,
          "time": 74.75806949999964,
          "velocity": 0.5669291338582677,
          "duration": 0.14112904166667306
        },
        {
          "name": "D4",
          "midi": 62,
          "time": 75.00000499999965,
          "velocity": 0.49606299212598426,
          "duration": 0.08568548958332656
        },
        {
          "name": "C4",
          "midi": 60,
          "time": 75.00000499999965,
          "velocity": 0.5669291338582677,
          "duration": 0.09576613541665324
        },
        {
          "name": "C3",
          "midi": 48,
          "time": 75.00000499999965,
          "velocity": 0.5669291338582677,
          "duration": 0.08568548958332656
        },
        {
          "name": "A3",
          "midi": 57,
          "time": 75.24194049999963,
          "velocity": 0.5669291338582677,
          "duration": 0.09576613541666745
        },
        {
          "name": "A2",
          "midi": 45,
          "time": 75.24194049999963,
          "velocity": 0.5669291338582677,
          "duration": 0.1008064583333379
        },
        {
          "name": "D4",
          "midi": 62,
          "time": 75.48387599999964,
          "velocity": 0.49606299212598426,
          "duration": 0.07560484374999987
        },
        {
          "name": "C4",
          "midi": 60,
          "time": 75.48387599999964,
          "velocity": 0.49606299212598426,
          "duration": 0.07560484374999987
        },
        {
          "name": "D4",
          "midi": 62,
          "time": 75.48387599999964,
          "velocity": 0.5669291338582677,
          "duration": 0.08064516666667032
        },
        {
          "name": "D3",
          "midi": 50,
          "time": 75.48387599999964,
          "velocity": 0.5669291338582677,
          "duration": 0.10584678125000835
        },
        {
          "name": "D3",
          "midi": 50,
          "time": 75.72581149999965,
          "velocity": 0.5669291338582677,
          "duration": 0.10584678124999414
        },
        {
          "name": "D2",
          "midi": 38,
          "time": 75.72581149999965,
          "velocity": 0.5669291338582677,
          "duration": 0.25201614583332343
        },
        {
          "name": "D4",
          "midi": 62,
          "time": 75.96774699999965,
          "velocity": 0.49606299212598426,
          "duration": 0.10584678124999414
        },
        {
          "name": "C4",
          "midi": 60,
          "time": 75.96774699999965,
          "velocity": 0.5669291338582677,
          "duration": 0.13104839583333217
        },
        {
          "name": "C3",
          "midi": 48,
          "time": 75.96774699999965,
          "velocity": 0.5669291338582677,
          "duration": 0.18649194791666446
        },
        {
          "name": "A3",
          "midi": 57,
          "time": 76.20968249999964,
          "velocity": 0.5669291338582677,
          "duration": 0.11088710416666459
        },
        {
          "name": "A2",
          "midi": 45,
          "time": 76.20968249999964,
          "velocity": 0.5669291338582677,
          "duration": 0.09576613541666745
        },
        {
          "name": "C4",
          "midi": 60,
          "time": 76.45161799999964,
          "velocity": 0.49606299212598426,
          "duration": 0.10080645833332369
        },
        {
          "name": "D4",
          "midi": 62,
          "time": 76.45161799999964,
          "velocity": 0.49606299212598426,
          "duration": 0.08568548958332656
        },
        {
          "name": "D4",
          "midi": 62,
          "time": 76.45161799999964,
          "velocity": 0.5669291338582677,
          "duration": 0.1360887187499884
        },
        {
          "name": "D3",
          "midi": 50,
          "time": 76.45161799999964,
          "velocity": 0.5669291338582677,
          "duration": 0.08568548958332656
        },
        {
          "name": "D3",
          "midi": 50,
          "time": 76.69355349999962,
          "velocity": 0.5669291338582677,
          "duration": 0.11088710416666459
        },
        {
          "name": "D2",
          "midi": 38,
          "time": 76.69355349999962,
          "velocity": 0.5669291338582677,
          "duration": 0.13104839583333217
        },
        {
          "name": "D4",
          "midi": 62,
          "time": 76.93548899999962,
          "velocity": 0.49606299212598426,
          "duration": 0.08064516666665611
        },
        {
          "name": "C4",
          "midi": 60,
          "time": 76.93548899999962,
          "velocity": 0.5669291338582677,
          "duration": 0.09576613541665324
        },
        {
          "name": "C3",
          "midi": 48,
          "time": 76.93548899999962,
          "velocity": 0.5669291338582677,
          "duration": 0.07056452083332942
        },
        {
          "name": "A3",
          "midi": 57,
          "time": 77.1774244999996,
          "velocity": 0.5669291338582677,
          "duration": 0.11592742708333503
        },
        {
          "name": "A2",
          "midi": 45,
          "time": 77.1774244999996,
          "velocity": 0.5669291338582677,
          "duration": 0.08064516666667032
        },
        {
          "name": "C4",
          "midi": 60,
          "time": 77.4193599999996,
          "velocity": 0.49606299212598426,
          "duration": 0.09576613541666745
        },
        {
          "name": "D4",
          "midi": 62,
          "time": 77.4193599999996,
          "velocity": 0.49606299212598426,
          "duration": 0.08064516666667032
        },
        {
          "name": "D4",
          "midi": 62,
          "time": 77.4193599999996,
          "velocity": 0.5669291338582677,
          "duration": 0.11592742708333503
        },
        {
          "name": "D3",
          "midi": 50,
          "time": 77.4193599999996,
          "velocity": 0.5669291338582677,
          "duration": 0.12096775000000548
        },
        {
          "name": "D3",
          "midi": 50,
          "time": 77.66129549999961,
          "velocity": 0.5669291338582677,
          "duration": 0.1008064583333379
        },
        {
          "name": "D2",
          "midi": 38,
          "time": 77.66129549999961,
          "velocity": 0.5669291338582677,
          "duration": 0.14112904166667306
        },
        {
          "name": "D4",
          "midi": 62,
          "time": 77.90323099999962,
          "velocity": 0.49606299212598426,
          "duration": 0.08568548958332656
        },
        {
          "name": "C4",
          "midi": 60,
          "time": 77.90323099999962,
          "velocity": 0.5669291338582677,
          "duration": 0.09576613541665324
        },
        {
          "name": "C3",
          "midi": 48,
          "time": 77.90323099999962,
          "velocity": 0.5669291338582677,
          "duration": 0.08568548958332656
        },
        {
          "name": "A3",
          "midi": 57,
          "time": 78.1451664999996,
          "velocity": 0.5669291338582677,
          "duration": 0.09576613541666745
        },
        {
          "name": "A2",
          "midi": 45,
          "time": 78.1451664999996,
          "velocity": 0.5669291338582677,
          "duration": 0.1008064583333379
        },
        {
          "name": "D4",
          "midi": 62,
          "time": 78.38710199999962,
          "velocity": 0.49606299212598426,
          "duration": 0.07560484374999987
        },
        {
          "name": "C4",
          "midi": 60,
          "time": 78.38710199999962,
          "velocity": 0.49606299212598426,
          "duration": 0.07560484374999987
        },
        {
          "name": "D4",
          "midi": 62,
          "time": 78.38710199999962,
          "velocity": 0.5669291338582677,
          "duration": 0.08064516666667032
        },
        {
          "name": "D3",
          "midi": 50,
          "time": 78.38710199999962,
          "velocity": 0.5669291338582677,
          "duration": 0.10584678125000835
        },
        {
          "name": "D3",
          "midi": 50,
          "time": 78.62903749999963,
          "velocity": 0.5669291338582677,
          "duration": 0.10584678124999414
        },
        {
          "name": "D2",
          "midi": 38,
          "time": 78.62903749999963,
          "velocity": 0.5669291338582677,
          "duration": 0.25201614583332343
        },
        {
          "name": "D4",
          "midi": 62,
          "time": 78.87097299999962,
          "velocity": 0.49606299212598426,
          "duration": 0.10584678124999414
        },
        {
          "name": "C4",
          "midi": 60,
          "time": 78.87097299999962,
          "velocity": 0.5669291338582677,
          "duration": 0.13104839583333217
        },
        {
          "name": "C3",
          "midi": 48,
          "time": 78.87097299999962,
          "velocity": 0.5669291338582677,
          "duration": 0.18649194791666446
        },
        {
          "name": "A3",
          "midi": 57,
          "time": 79.11290849999962,
          "velocity": 0.5669291338582677,
          "duration": 0.11088710416666459
        },
        {
          "name": "A2",
          "midi": 45,
          "time": 79.11290849999962,
          "velocity": 0.5669291338582677,
          "duration": 0.09576613541666745
        },
        {
          "name": "C4",
          "midi": 60,
          "time": 79.35484399999962,
          "velocity": 0.49606299212598426,
          "duration": 0.10080645833332369
        },
        {
          "name": "D4",
          "midi": 62,
          "time": 79.35484399999962,
          "velocity": 0.49606299212598426,
          "duration": 0.08568548958332656
        },
        {
          "name": "D4",
          "midi": 62,
          "time": 79.35484399999962,
          "velocity": 0.5669291338582677,
          "duration": 0.1360887187499884
        },
        {
          "name": "D3",
          "midi": 50,
          "time": 79.35484399999962,
          "velocity": 0.5669291338582677,
          "duration": 0.08568548958332656
        },
        {
          "name": "D3",
          "midi": 50,
          "time": 79.5967794999996,
          "velocity": 0.5669291338582677,
          "duration": 0.11088710416666459
        },
        {
          "name": "D2",
          "midi": 38,
          "time": 79.5967794999996,
          "velocity": 0.5669291338582677,
          "duration": 0.13104839583333217
        },
        {
          "name": "D4",
          "midi": 62,
          "time": 79.8387149999996,
          "velocity": 0.49606299212598426,
          "duration": 0.08064516666665611
        },
        {
          "name": "C4",
          "midi": 60,
          "time": 79.8387149999996,
          "velocity": 0.5669291338582677,
          "duration": 0.09576613541665324
        },
        {
          "name": "C3",
          "midi": 48,
          "time": 79.8387149999996,
          "velocity": 0.5669291338582677,
          "duration": 0.07056452083332942
        },
        {
          "name": "A3",
          "midi": 57,
          "time": 80.08065049999958,
          "velocity": 0.5669291338582677,
          "duration": 0.11592742708333503
        },
        {
          "name": "A2",
          "midi": 45,
          "time": 80.08065049999958,
          "velocity": 0.5669291338582677,
          "duration": 0.08064516666667032
        },
        {
          "name": "C4",
          "midi": 60,
          "time": 80.32258599999957,
          "velocity": 0.49606299212598426,
          "duration": 0.09576613541666745
        },
        {
          "name": "D4",
          "midi": 62,
          "time": 80.32258599999957,
          "velocity": 0.49606299212598426,
          "duration": 0.08064516666667032
        },
        {
          "name": "D4",
          "midi": 62,
          "time": 80.32258599999957,
          "velocity": 0.5669291338582677,
          "duration": 0.11592742708333503
        },
        {
          "name": "D3",
          "midi": 50,
          "time": 80.32258599999957,
          "velocity": 0.5669291338582677,
          "duration": 0.12096775000000548
        },
        {
          "name": "D3",
          "midi": 50,
          "time": 80.56452149999959,
          "velocity": 0.5669291338582677,
          "duration": 0.1008064583333379
        },
        {
          "name": "D2",
          "midi": 38,
          "time": 80.56452149999959,
          "velocity": 0.5669291338582677,
          "duration": 0.14112904166667306
        },
        {
          "name": "D4",
          "midi": 62,
          "time": 80.8064569999996,
          "velocity": 0.49606299212598426,
          "duration": 0.08568548958332656
        },
        {
          "name": "C4",
          "midi": 60,
          "time": 80.8064569999996,
          "velocity": 0.5669291338582677,
          "duration": 0.09576613541665324
        },
        {
          "name": "C3",
          "midi": 48,
          "time": 80.8064569999996,
          "velocity": 0.5669291338582677,
          "duration": 0.08568548958332656
        },
        {
          "name": "A3",
          "midi": 57,
          "time": 81.04839249999958,
          "velocity": 0.5669291338582677,
          "duration": 0.09576613541666745
        },
        {
          "name": "A2",
          "midi": 45,
          "time": 81.04839249999958,
          "velocity": 0.5669291338582677,
          "duration": 0.1008064583333379
        },
        {
          "name": "D4",
          "midi": 62,
          "time": 81.29032799999959,
          "velocity": 0.49606299212598426,
          "duration": 0.07560484374999987
        },
        {
          "name": "C4",
          "midi": 60,
          "time": 81.29032799999959,
          "velocity": 0.49606299212598426,
          "duration": 0.07560484374999987
        },
        {
          "name": "D4",
          "midi": 62,
          "time": 81.29032799999959,
          "velocity": 0.5669291338582677,
          "duration": 0.08064516666667032
        },
        {
          "name": "D3",
          "midi": 50,
          "time": 81.29032799999959,
          "velocity": 0.5669291338582677,
          "duration": 0.10584678125000835
        },
        {
          "name": "D3",
          "midi": 50,
          "time": 81.5322634999996,
          "velocity": 0.5669291338582677,
          "duration": 0.10584678124999414
        },
        {
          "name": "D2",
          "midi": 38,
          "time": 81.5322634999996,
          "velocity": 0.5669291338582677,
          "duration": 0.25201614583332343
        },
        {
          "name": "D4",
          "midi": 62,
          "time": 81.7741989999996,
          "velocity": 0.49606299212598426,
          "duration": 0.10584678124999414
        },
        {
          "name": "C4",
          "midi": 60,
          "time": 81.7741989999996,
          "velocity": 0.5669291338582677,
          "duration": 0.13104839583333217
        },
        {
          "name": "C3",
          "midi": 48,
          "time": 81.7741989999996,
          "velocity": 0.5669291338582677,
          "duration": 0.18649194791666446
        },
        {
          "name": "A3",
          "midi": 57,
          "time": 82.0161344999996,
          "velocity": 0.5669291338582677,
          "duration": 0.11088710416666459
        },
        {
          "name": "A2",
          "midi": 45,
          "time": 82.0161344999996,
          "velocity": 0.5669291338582677,
          "duration": 0.09576613541666745
        },
        {
          "name": "C4",
          "midi": 60,
          "time": 82.25806999999959,
          "velocity": 0.49606299212598426,
          "duration": 0.10080645833332369
        },
        {
          "name": "D4",
          "midi": 62,
          "time": 82.25806999999959,
          "velocity": 0.49606299212598426,
          "duration": 0.08568548958332656
        },
        {
          "name": "D4",
          "midi": 62,
          "time": 82.25806999999959,
          "velocity": 0.5669291338582677,
          "duration": 0.1360887187499884
        },
        {
          "name": "D3",
          "midi": 50,
          "time": 82.25806999999959,
          "velocity": 0.5669291338582677,
          "duration": 0.08568548958332656
        },
        {
          "name": "D3",
          "midi": 50,
          "time": 82.50000549999957,
          "velocity": 0.5669291338582677,
          "duration": 0.11088710416666459
        },
        {
          "name": "D2",
          "midi": 38,
          "time": 82.50000549999957,
          "velocity": 0.5669291338582677,
          "duration": 0.13104839583333217
        },
        {
          "name": "D4",
          "midi": 62,
          "time": 82.74194099999957,
          "velocity": 0.49606299212598426,
          "duration": 0.08064516666665611
        },
        {
          "name": "C4",
          "midi": 60,
          "time": 82.74194099999957,
          "velocity": 0.5669291338582677,
          "duration": 0.09576613541665324
        },
        {
          "name": "C3",
          "midi": 48,
          "time": 82.74194099999957,
          "velocity": 0.5669291338582677,
          "duration": 0.07056452083332942
        },
        {
          "name": "A3",
          "midi": 57,
          "time": 82.98387649999955,
          "velocity": 0.5669291338582677,
          "duration": 0.11592742708333503
        },
        {
          "name": "A2",
          "midi": 45,
          "time": 82.98387649999955,
          "velocity": 0.5669291338582677,
          "duration": 0.08064516666667032
        },
        {
          "name": "C4",
          "midi": 60,
          "time": 83.22581199999955,
          "velocity": 0.49606299212598426,
          "duration": 0.09576613541666745
        },
        {
          "name": "D4",
          "midi": 62,
          "time": 83.22581199999955,
          "velocity": 0.49606299212598426,
          "duration": 0.08064516666667032
        },
        {
          "name": "D4",
          "midi": 62,
          "time": 83.22581199999955,
          "velocity": 0.5669291338582677,
          "duration": 0.11592742708333503
        },
        {
          "name": "D3",
          "midi": 50,
          "time": 83.22581199999955,
          "velocity": 0.5669291338582677,
          "duration": 0.12096775000000548
        },
        {
          "name": "D3",
          "midi": 50,
          "time": 83.46774749999956,
          "velocity": 0.5669291338582677,
          "duration": 0.1008064583333379
        },
        {
          "name": "D2",
          "midi": 38,
          "time": 83.46774749999956,
          "velocity": 0.5669291338582677,
          "duration": 0.14112904166667306
        },
        {
          "name": "D4",
          "midi": 62,
          "time": 83.70968299999957,
          "velocity": 0.49606299212598426,
          "duration": 0.08568548958332656
        },
        {
          "name": "C4",
          "midi": 60,
          "time": 83.70968299999957,
          "velocity": 0.5669291338582677,
          "duration": 0.09576613541665324
        },
        {
          "name": "C3",
          "midi": 48,
          "time": 83.70968299999957,
          "velocity": 0.5669291338582677,
          "duration": 0.08568548958332656
        },
        {
          "name": "A3",
          "midi": 57,
          "time": 83.95161849999955,
          "velocity": 0.5669291338582677,
          "duration": 0.09576613541666745
        },
        {
          "name": "A2",
          "midi": 45,
          "time": 83.95161849999955,
          "velocity": 0.5669291338582677,
          "duration": 0.1008064583333379
        },
        {
          "name": "D4",
          "midi": 62,
          "time": 84.19355399999957,
          "velocity": 0.49606299212598426,
          "duration": 0.07560484374999987
        },
        {
          "name": "C4",
          "midi": 60,
          "time": 84.19355399999957,
          "velocity": 0.49606299212598426,
          "duration": 0.07560484374999987
        },
        {
          "name": "D4",
          "midi": 62,
          "time": 84.19355399999957,
          "velocity": 0.5669291338582677,
          "duration": 0.08064516666667032
        },
        {
          "name": "D3",
          "midi": 50,
          "time": 84.19355399999957,
          "velocity": 0.5669291338582677,
          "duration": 0.10584678125000835
        },
        {
          "name": "D3",
          "midi": 50,
          "time": 84.43548949999958,
          "velocity": 0.5669291338582677,
          "duration": 0.10584678124999414
        },
        {
          "name": "D2",
          "midi": 38,
          "time": 84.43548949999958,
          "velocity": 0.5669291338582677,
          "duration": 0.25201614583332343
        },
        {
          "name": "D4",
          "midi": 62,
          "time": 84.67742499999957,
          "velocity": 0.49606299212598426,
          "duration": 0.10584678124999414
        },
        {
          "name": "C4",
          "midi": 60,
          "time": 84.67742499999957,
          "velocity": 0.5669291338582677,
          "duration": 0.13104839583333217
        },
        {
          "name": "C3",
          "midi": 48,
          "time": 84.67742499999957,
          "velocity": 0.5669291338582677,
          "duration": 0.18649194791666446
        },
        {
          "name": "A3",
          "midi": 57,
          "time": 84.91936049999957,
          "velocity": 0.5669291338582677,
          "duration": 0.11088710416666459
        },
        {
          "name": "A2",
          "midi": 45,
          "time": 84.91936049999957,
          "velocity": 0.5669291338582677,
          "duration": 0.09576613541666745
        },
        {
          "name": "C4",
          "midi": 60,
          "time": 85.16129599999957,
          "velocity": 0.49606299212598426,
          "duration": 0.10080645833332369
        },
        {
          "name": "D4",
          "midi": 62,
          "time": 85.16129599999957,
          "velocity": 0.49606299212598426,
          "duration": 0.08568548958332656
        },
        {
          "name": "D4",
          "midi": 62,
          "time": 85.16129599999957,
          "velocity": 0.5669291338582677,
          "duration": 0.1360887187499884
        },
        {
          "name": "D3",
          "midi": 50,
          "time": 85.16129599999957,
          "velocity": 0.5669291338582677,
          "duration": 0.08568548958332656
        },
        {
          "name": "D3",
          "midi": 50,
          "time": 85.40323149999955,
          "velocity": 0.5669291338582677,
          "duration": 0.11088710416666459
        },
        {
          "name": "D2",
          "midi": 38,
          "time": 85.40323149999955,
          "velocity": 0.5669291338582677,
          "duration": 0.13104839583333217
        },
        {
          "name": "D4",
          "midi": 62,
          "time": 85.64516699999955,
          "velocity": 0.49606299212598426,
          "duration": 0.08064516666665611
        },
        {
          "name": "C4",
          "midi": 60,
          "time": 85.64516699999955,
          "velocity": 0.5669291338582677,
          "duration": 0.09576613541665324
        },
        {
          "name": "C3",
          "midi": 48,
          "time": 85.64516699999955,
          "velocity": 0.5669291338582677,
          "duration": 0.07056452083332942
        },
        {
          "name": "A3",
          "midi": 57,
          "time": 85.88710249999953,
          "velocity": 0.5669291338582677,
          "duration": 0.11592742708333503
        },
        {
          "name": "A2",
          "midi": 45,
          "time": 85.88710249999953,
          "velocity": 0.5669291338582677,
          "duration": 0.08064516666667032
        },
        {
          "name": "C4",
          "midi": 60,
          "time": 86.12903799999953,
          "velocity": 0.49606299212598426,
          "duration": 0.09576613541666745
        },
        {
          "name": "D4",
          "midi": 62,
          "time": 86.12903799999953,
          "velocity": 0.49606299212598426,
          "duration": 0.08064516666667032
        },
        {
          "name": "D4",
          "midi": 62,
          "time": 86.12903799999953,
          "velocity": 0.5669291338582677,
          "duration": 0.11592742708333503
        },
        {
          "name": "D3",
          "midi": 50,
          "time": 86.12903799999953,
          "velocity": 0.5669291338582677,
          "duration": 0.12096775000000548
        },
        {
          "name": "D3",
          "midi": 50,
          "time": 86.37097349999954,
          "velocity": 0.5669291338582677,
          "duration": 0.1008064583333379
        },
        {
          "name": "D2",
          "midi": 38,
          "time": 86.37097349999954,
          "velocity": 0.5669291338582677,
          "duration": 0.14112904166667306
        },
        {
          "name": "D4",
          "midi": 62,
          "time": 86.61290899999955,
          "velocity": 0.49606299212598426,
          "duration": 0.08568548958332656
        },
        {
          "name": "C4",
          "midi": 60,
          "time": 86.61290899999955,
          "velocity": 0.5669291338582677,
          "duration": 0.09576613541665324
        },
        {
          "name": "C3",
          "midi": 48,
          "time": 86.61290899999955,
          "velocity": 0.5669291338582677,
          "duration": 0.08568548958332656
        },
        {
          "name": "A3",
          "midi": 57,
          "time": 86.85484449999953,
          "velocity": 0.5669291338582677,
          "duration": 0.09576613541666745
        },
        {
          "name": "A2",
          "midi": 45,
          "time": 86.85484449999953,
          "velocity": 0.5669291338582677,
          "duration": 0.1008064583333379
        },
        {
          "name": "D4",
          "midi": 62,
          "time": 87.09677999999954,
          "velocity": 0.49606299212598426,
          "duration": 0.07560484374999987
        },
        {
          "name": "C4",
          "midi": 60,
          "time": 87.09677999999954,
          "velocity": 0.49606299212598426,
          "duration": 0.07560484374999987
        },
        {
          "name": "D4",
          "midi": 62,
          "time": 87.09677999999954,
          "velocity": 0.5669291338582677,
          "duration": 0.08064516666667032
        },
        {
          "name": "D3",
          "midi": 50,
          "time": 87.09677999999954,
          "velocity": 0.5669291338582677,
          "duration": 0.10584678125000835
        },
        {
          "name": "D3",
          "midi": 50,
          "time": 87.33871549999955,
          "velocity": 0.5669291338582677,
          "duration": 0.10584678124999414
        },
        {
          "name": "D2",
          "midi": 38,
          "time": 87.33871549999955,
          "velocity": 0.5669291338582677,
          "duration": 0.25201614583332343
        },
        {
          "name": "D4",
          "midi": 62,
          "time": 87.58065099999955,
          "velocity": 0.49606299212598426,
          "duration": 0.10584678124999414
        },
        {
          "name": "C4",
          "midi": 60,
          "time": 87.58065099999955,
          "velocity": 0.5669291338582677,
          "duration": 0.13104839583333217
        },
        {
          "name": "C3",
          "midi": 48,
          "time": 87.58065099999955,
          "velocity": 0.5669291338582677,
          "duration": 0.18649194791666446
        },
        {
          "name": "A3",
          "midi": 57,
          "time": 87.82258649999955,
          "velocity": 0.5669291338582677,
          "duration": 0.11088710416666459
        },
        {
          "name": "A2",
          "midi": 45,
          "time": 87.82258649999955,
          "velocity": 0.5669291338582677,
          "duration": 0.09576613541666745
        },
        {
          "name": "C4",
          "midi": 60,
          "time": 88.06452199999954,
          "velocity": 0.49606299212598426,
          "duration": 0.10080645833332369
        },
        {
          "name": "D4",
          "midi": 62,
          "time": 88.06452199999954,
          "velocity": 0.49606299212598426,
          "duration": 0.08568548958332656
        },
        {
          "name": "D4",
          "midi": 62,
          "time": 88.06452199999954,
          "velocity": 0.5669291338582677,
          "duration": 0.1360887187499884
        },
        {
          "name": "D3",
          "midi": 50,
          "time": 88.06452199999954,
          "velocity": 0.5669291338582677,
          "duration": 0.08568548958332656
        },
        {
          "name": "D3",
          "midi": 50,
          "time": 88.30645749999952,
          "velocity": 0.5669291338582677,
          "duration": 0.11088710416666459
        },
        {
          "name": "D2",
          "midi": 38,
          "time": 88.30645749999952,
          "velocity": 0.5669291338582677,
          "duration": 0.13104839583333217
        },
        {
          "name": "D4",
          "midi": 62,
          "time": 88.54839299999952,
          "velocity": 0.49606299212598426,
          "duration": 0.08064516666665611
        },
        {
          "name": "C4",
          "midi": 60,
          "time": 88.54839299999952,
          "velocity": 0.5669291338582677,
          "duration": 0.09576613541665324
        },
        {
          "name": "C3",
          "midi": 48,
          "time": 88.54839299999952,
          "velocity": 0.5669291338582677,
          "duration": 0.07056452083332942
        },
        {
          "name": "A3",
          "midi": 57,
          "time": 88.7903284999995,
          "velocity": 0.5669291338582677,
          "duration": 0.11592742708333503
        },
        {
          "name": "A2",
          "midi": 45,
          "time": 88.7903284999995,
          "velocity": 0.5669291338582677,
          "duration": 0.08064516666667032
        },
        {
          "name": "C4",
          "midi": 60,
          "time": 89.0322639999995,
          "velocity": 0.49606299212598426,
          "duration": 0.09576613541666745
        },
        {
          "name": "D4",
          "midi": 62,
          "time": 89.0322639999995,
          "velocity": 0.49606299212598426,
          "duration": 0.08064516666667032
        },
        {
          "name": "D4",
          "midi": 62,
          "time": 89.0322639999995,
          "velocity": 0.5669291338582677,
          "duration": 0.11592742708333503
        },
        {
          "name": "D3",
          "midi": 50,
          "time": 89.0322639999995,
          "velocity": 0.5669291338582677,
          "duration": 0.12096775000000548
        },
        {
          "name": "D3",
          "midi": 50,
          "time": 89.27419949999951,
          "velocity": 0.5669291338582677,
          "duration": 0.1008064583333379
        },
        {
          "name": "D2",
          "midi": 38,
          "time": 89.27419949999951,
          "velocity": 0.5669291338582677,
          "duration": 0.14112904166667306
        },
        {
          "name": "D4",
          "midi": 62,
          "time": 89.51613499999952,
          "velocity": 0.49606299212598426,
          "duration": 0.08568548958332656
        },
        {
          "name": "C4",
          "midi": 60,
          "time": 89.51613499999952,
          "velocity": 0.5669291338582677,
          "duration": 0.09576613541665324
        },
        {
          "name": "C3",
          "midi": 48,
          "time": 89.51613499999952,
          "velocity": 0.5669291338582677,
          "duration": 0.08568548958332656
        },
        {
          "name": "A3",
          "midi": 57,
          "time": 89.7580704999995,
          "velocity": 0.5669291338582677,
          "duration": 0.09576613541666745
        },
        {
          "name": "A2",
          "midi": 45,
          "time": 89.7580704999995,
          "velocity": 0.5669291338582677,
          "duration": 0.1008064583333379
        },
        {
          "name": "D4",
          "midi": 62,
          "time": 90.00000599999952,
          "velocity": 0.49606299212598426,
          "duration": 0.07560484374999987
        },
        {
          "name": "C4",
          "midi": 60,
          "time": 90.00000599999952,
          "velocity": 0.49606299212598426,
          "duration": 0.07560484374999987
        },
        {
          "name": "D4",
          "midi": 62,
          "time": 90.00000599999952,
          "velocity": 0.5669291338582677,
          "duration": 0.08064516666667032
        },
        {
          "name": "D3",
          "midi": 50,
          "time": 90.00000599999952,
          "velocity": 0.5669291338582677,
          "duration": 0.10584678125000835
        },
        {
          "name": "D3",
          "midi": 50,
          "time": 90.24194149999953,
          "velocity": 0.5669291338582677,
          "duration": 0.10584678124999414
        },
        {
          "name": "D2",
          "midi": 38,
          "time": 90.24194149999953,
          "velocity": 0.5669291338582677,
          "duration": 0.25201614583332343
        },
        {
          "name": "D4",
          "midi": 62,
          "time": 90.48387699999952,
          "velocity": 0.49606299212598426,
          "duration": 0.10584678124999414
        },
        {
          "name": "C4",
          "midi": 60,
          "time": 90.48387699999952,
          "velocity": 0.5669291338582677,
          "duration": 0.13104839583333217
        },
        {
          "name": "C3",
          "midi": 48,
          "time": 90.48387699999952,
          "velocity": 0.5669291338582677,
          "duration": 0.18649194791666446
        },
        {
          "name": "A3",
          "midi": 57,
          "time": 90.72581249999952,
          "velocity": 0.5669291338582677,
          "duration": 0.11088710416666459
        },
        {
          "name": "A2",
          "midi": 45,
          "time": 90.72581249999952,
          "velocity": 0.5669291338582677,
          "duration": 0.09576613541666745
        },
        {
          "name": "C4",
          "midi": 60,
          "time": 90.96774799999952,
          "velocity": 0.49606299212598426,
          "duration": 0.10080645833332369
        },
        {
          "name": "D4",
          "midi": 62,
          "time": 90.96774799999952,
          "velocity": 0.49606299212598426,
          "duration": 0.08568548958332656
        },
        {
          "name": "D4",
          "midi": 62,
          "time": 90.96774799999952,
          "velocity": 0.5669291338582677,
          "duration": 0.1360887187499884
        },
        {
          "name": "D3",
          "midi": 50,
          "time": 90.96774799999952,
          "velocity": 0.5669291338582677,
          "duration": 0.08568548958332656
        },
        {
          "name": "D3",
          "midi": 50,
          "time": 91.2096834999995,
          "velocity": 0.5669291338582677,
          "duration": 0.11088710416666459
        },
        {
          "name": "D2",
          "midi": 38,
          "time": 91.2096834999995,
          "velocity": 0.5669291338582677,
          "duration": 0.13104839583333217
        },
        {
          "name": "D4",
          "midi": 62,
          "time": 91.4516189999995,
          "velocity": 0.49606299212598426,
          "duration": 0.08064516666665611
        },
        {
          "name": "C4",
          "midi": 60,
          "time": 91.4516189999995,
          "velocity": 0.5669291338582677,
          "duration": 0.09576613541665324
        },
        {
          "name": "C3",
          "midi": 48,
          "time": 91.4516189999995,
          "velocity": 0.5669291338582677,
          "duration": 0.07056452083332942
        },
        {
          "name": "A3",
          "midi": 57,
          "time": 91.69355449999948,
          "velocity": 0.5669291338582677,
          "duration": 0.11592742708333503
        },
        {
          "name": "A2",
          "midi": 45,
          "time": 91.69355449999948,
          "velocity": 0.5669291338582677,
          "duration": 0.08064516666667032
        },
        {
          "name": "C4",
          "midi": 60,
          "time": 91.93548999999948,
          "velocity": 0.49606299212598426,
          "duration": 0.09576613541666745
        },
        {
          "name": "D4",
          "midi": 62,
          "time": 91.93548999999948,
          "velocity": 0.49606299212598426,
          "duration": 0.08064516666667032
        },
        {
          "name": "D4",
          "midi": 62,
          "time": 91.93548999999948,
          "velocity": 0.5669291338582677,
          "duration": 0.11592742708333503
        },
        {
          "name": "D3",
          "midi": 50,
          "time": 91.93548999999948,
          "velocity": 0.5669291338582677,
          "duration": 0.12096775000000548
        },
        {
          "name": "D3",
          "midi": 50,
          "time": 92.17742549999949,
          "velocity": 0.5669291338582677,
          "duration": 0.1008064583333379
        },
        {
          "name": "D2",
          "midi": 38,
          "time": 92.17742549999949,
          "velocity": 0.5669291338582677,
          "duration": 0.14112904166667306
        },
        {
          "name": "D4",
          "midi": 62,
          "time": 92.4193609999995,
          "velocity": 0.49606299212598426,
          "duration": 0.08568548958332656
        },
        {
          "name": "C4",
          "midi": 60,
          "time": 92.4193609999995,
          "velocity": 0.5669291338582677,
          "duration": 0.09576613541665324
        },
        {
          "name": "C3",
          "midi": 48,
          "time": 92.4193609999995,
          "velocity": 0.5669291338582677,
          "duration": 0.08568548958332656
        },
        {
          "name": "A3",
          "midi": 57,
          "time": 92.66129649999948,
          "velocity": 0.5669291338582677,
          "duration": 0.09576613541666745
        },
        {
          "name": "A2",
          "midi": 45,
          "time": 92.66129649999948,
          "velocity": 0.5669291338582677,
          "duration": 0.1008064583333379
        },
        {
          "name": "D4",
          "midi": 62,
          "time": 92.90323199999949,
          "velocity": 0.49606299212598426,
          "duration": 0.07560484374999987
        },
        {
          "name": "C4",
          "midi": 60,
          "time": 92.90323199999949,
          "velocity": 0.49606299212598426,
          "duration": 0.07560484374999987
        },
        {
          "name": "D4",
          "midi": 62,
          "time": 92.90323199999949,
          "velocity": 0.5669291338582677,
          "duration": 0.08064516666667032
        },
        {
          "name": "D3",
          "midi": 50,
          "time": 92.90323199999949,
          "velocity": 0.5669291338582677,
          "duration": 0.10584678125000835
        },
        {
          "name": "D3",
          "midi": 50,
          "time": 93.1451674999995,
          "velocity": 0.5669291338582677,
          "duration": 0.10584678124999414
        },
        {
          "name": "D2",
          "midi": 38,
          "time": 93.1451674999995,
          "velocity": 0.5669291338582677,
          "duration": 0.25201614583332343
        },
        {
          "name": "D4",
          "midi": 62,
          "time": 93.3871029999995,
          "velocity": 0.49606299212598426,
          "duration": 0.10584678124999414
        },
        {
          "name": "C4",
          "midi": 60,
          "time": 93.3871029999995,
          "velocity": 0.5669291338582677,
          "duration": 0.13104839583333217
        },
        {
          "name": "C3",
          "midi": 48,
          "time": 93.3871029999995,
          "velocity": 0.5669291338582677,
          "duration": 0.18649194791666446
        },
        {
          "name": "A3",
          "midi": 57,
          "time": 93.6290384999995,
          "velocity": 0.5669291338582677,
          "duration": 0.11088710416666459
        },
        {
          "name": "A2",
          "midi": 45,
          "time": 93.6290384999995,
          "velocity": 0.5669291338582677,
          "duration": 0.09576613541666745
        },
        {
          "name": "C4",
          "midi": 60,
          "time": 93.87097399999949,
          "velocity": 0.49606299212598426,
          "duration": 0.10080645833332369
        },
        {
          "name": "D4",
          "midi": 62,
          "time": 93.87097399999949,
          "velocity": 0.49606299212598426,
          "duration": 0.08568548958332656
        },
        {
          "name": "D4",
          "midi": 62,
          "time": 93.87097399999949,
          "velocity": 0.5669291338582677,
          "duration": 0.1360887187499884
        },
        {
          "name": "D3",
          "midi": 50,
          "time": 93.87097399999949,
          "velocity": 0.5669291338582677,
          "duration": 0.08568548958332656
        },
        {
          "name": "D3",
          "midi": 50,
          "time": 94.11290949999947,
          "velocity": 0.5669291338582677,
          "duration": 0.11088710416666459
        },
        {
          "name": "D2",
          "midi": 38,
          "time": 94.11290949999947,
          "velocity": 0.5669291338582677,
          "duration": 0.13104839583333217
        },
        {
          "name": "D4",
          "midi": 62,
          "time": 94.35484499999947,
          "velocity": 0.49606299212598426,
          "duration": 0.08064516666665611
        },
        {
          "name": "C4",
          "midi": 60,
          "time": 94.35484499999947,
          "velocity": 0.5669291338582677,
          "duration": 0.09576613541665324
        },
        {
          "name": "C3",
          "midi": 48,
          "time": 94.35484499999947,
          "velocity": 0.5669291338582677,
          "duration": 0.07056452083332942
        },
        {
          "name": "A3",
          "midi": 57,
          "time": 94.59678049999945,
          "velocity": 0.5669291338582677,
          "duration": 0.11592742708333503
        },
        {
          "name": "A2",
          "midi": 45,
          "time": 94.59678049999945,
          "velocity": 0.5669291338582677,
          "duration": 0.08064516666667032
        },
        {
          "name": "C4",
          "midi": 60,
          "time": 94.83871599999945,
          "velocity": 0.49606299212598426,
          "duration": 0.09576613541666745
        },
        {
          "name": "D4",
          "midi": 62,
          "time": 94.83871599999945,
          "velocity": 0.49606299212598426,
          "duration": 0.08064516666667032
        },
        {
          "name": "D4",
          "midi": 62,
          "time": 94.83871599999945,
          "velocity": 0.5669291338582677,
          "duration": 0.11592742708333503
        },
        {
          "name": "D3",
          "midi": 50,
          "time": 94.83871599999945,
          "velocity": 0.5669291338582677,
          "duration": 0.12096775000000548
        },
        {
          "name": "D3",
          "midi": 50,
          "time": 95.08065149999946,
          "velocity": 0.5669291338582677,
          "duration": 0.1008064583333379
        },
        {
          "name": "D2",
          "midi": 38,
          "time": 95.08065149999946,
          "velocity": 0.5669291338582677,
          "duration": 0.14112904166667306
        },
        {
          "name": "D4",
          "midi": 62,
          "time": 95.32258699999947,
          "velocity": 0.49606299212598426,
          "duration": 0.08568548958332656
        },
        {
          "name": "C4",
          "midi": 60,
          "time": 95.32258699999947,
          "velocity": 0.5669291338582677,
          "duration": 0.09576613541665324
        },
        {
          "name": "C3",
          "midi": 48,
          "time": 95.32258699999947,
          "velocity": 0.5669291338582677,
          "duration": 0.08568548958332656
        },
        {
          "name": "A3",
          "midi": 57,
          "time": 95.56452249999946,
          "velocity": 0.5669291338582677,
          "duration": 0.09576613541666745
        },
        {
          "name": "A2",
          "midi": 45,
          "time": 95.56452249999946,
          "velocity": 0.5669291338582677,
          "duration": 0.1008064583333379
        },
        {
          "name": "D4",
          "midi": 62,
          "time": 95.80645799999947,
          "velocity": 0.49606299212598426,
          "duration": 0.07560484374999987
        },
        {
          "name": "C4",
          "midi": 60,
          "time": 95.80645799999947,
          "velocity": 0.49606299212598426,
          "duration": 0.07560484374999987
        },
        {
          "name": "D4",
          "midi": 62,
          "time": 95.80645799999947,
          "velocity": 0.5669291338582677,
          "duration": 0.08064516666667032
        },
        {
          "name": "D3",
          "midi": 50,
          "time": 95.80645799999947,
          "velocity": 0.5669291338582677,
          "duration": 0.10584678125000835
        },
        {
          "name": "D3",
          "midi": 50,
          "time": 96.04839349999948,
          "velocity": 0.5669291338582677,
          "duration": 0.10584678124999414
        },
        {
          "name": "D2",
          "midi": 38,
          "time": 96.04839349999948,
          "velocity": 0.5669291338582677,
          "duration": 0.25201614583332343
        },
        {
          "name": "D4",
          "midi": 62,
          "time": 96.29032899999947,
          "velocity": 0.49606299212598426,
          "duration": 0.10584678124999414
        },
        {
          "name": "C4",
          "midi": 60,
          "time": 96.29032899999947,
          "velocity": 0.5669291338582677,
          "duration": 0.13104839583333217
        },
        {
          "name": "C3",
          "midi": 48,
          "time": 96.29032899999947,
          "velocity": 0.5669291338582677,
          "duration": 0.18649194791666446
        },
        {
          "name": "A3",
          "midi": 57,
          "time": 96.53226449999947,
          "velocity": 0.5669291338582677,
          "duration": 0.11088710416666459
        },
        {
          "name": "A2",
          "midi": 45,
          "time": 96.53226449999947,
          "velocity": 0.5669291338582677,
          "duration": 0.09576613541666745
        },
        {
          "name": "C4",
          "midi": 60,
          "time": 96.77419999999947,
          "velocity": 0.49606299212598426,
          "duration": 0.10080645833332369
        },
        {
          "name": "D4",
          "midi": 62,
          "time": 96.77419999999947,
          "velocity": 0.49606299212598426,
          "duration": 0.08568548958332656
        },
        {
          "name": "D4",
          "midi": 62,
          "time": 96.77419999999947,
          "velocity": 0.5669291338582677,
          "duration": 0.1360887187499884
        },
        {
          "name": "D3",
          "midi": 50,
          "time": 96.77419999999947,
          "velocity": 0.5669291338582677,
          "duration": 0.08568548958332656
        },
        {
          "name": "D3",
          "midi": 50,
          "time": 97.01613549999945,
          "velocity": 0.5669291338582677,
          "duration": 0.11088710416666459
        },
        {
          "name": "D2",
          "midi": 38,
          "time": 97.01613549999945,
          "velocity": 0.5669291338582677,
          "duration": 0.13104839583333217
        },
        {
          "name": "D4",
          "midi": 62,
          "time": 97.25807099999945,
          "velocity": 0.49606299212598426,
          "duration": 0.08064516666665611
        },
        {
          "name": "C4",
          "midi": 60,
          "time": 97.25807099999945,
          "velocity": 0.5669291338582677,
          "duration": 0.09576613541665324
        },
        {
          "name": "C3",
          "midi": 48,
          "time": 97.25807099999945,
          "velocity": 0.5669291338582677,
          "duration": 0.07056452083332942
        },
        {
          "name": "A3",
          "midi": 57,
          "time": 97.50000649999943,
          "velocity": 0.5669291338582677,
          "duration": 0.11592742708333503
        },
        {
          "name": "A2",
          "midi": 45,
          "time": 97.50000649999943,
          "velocity": 0.5669291338582677,
          "duration": 0.08064516666667032
        },
        {
          "name": "C4",
          "midi": 60,
          "time": 97.74194199999943,
          "velocity": 0.49606299212598426,
          "duration": 0.09576613541666745
        },
        {
          "name": "D4",
          "midi": 62,
          "time": 97.74194199999943,
          "velocity": 0.49606299212598426,
          "duration": 0.08064516666667032
        },
        {
          "name": "D4",
          "midi": 62,
          "time": 97.74194199999943,
          "velocity": 0.5669291338582677,
          "duration": 0.11592742708333503
        },
        {
          "name": "D3",
          "midi": 50,
          "time": 97.74194199999943,
          "velocity": 0.5669291338582677,
          "duration": 0.12096775000000548
        },
        {
          "name": "D3",
          "midi": 50,
          "time": 97.98387749999944,
          "velocity": 0.5669291338582677,
          "duration": 0.1008064583333379
        },
        {
          "name": "D2",
          "midi": 38,
          "time": 97.98387749999944,
          "velocity": 0.5669291338582677,
          "duration": 0.14112904166667306
        },
        {
          "name": "D4",
          "midi": 62,
          "time": 98.22581299999945,
          "velocity": 0.49606299212598426,
          "duration": 0.08568548958332656
        },
        {
          "name": "C4",
          "midi": 60,
          "time": 98.22581299999945,
          "velocity": 0.5669291338582677,
          "duration": 0.09576613541665324
        },
        {
          "name": "C3",
          "midi": 48,
          "time": 98.22581299999945,
          "velocity": 0.5669291338582677,
          "duration": 0.08568548958332656
        },
        {
          "name": "A3",
          "midi": 57,
          "time": 98.46774849999943,
          "velocity": 0.5669291338582677,
          "duration": 0.09576613541666745
        },
        {
          "name": "A2",
          "midi": 45,
          "time": 98.46774849999943,
          "velocity": 0.5669291338582677,
          "duration": 0.1008064583333379
        },
        {
          "name": "D4",
          "midi": 62,
          "time": 98.70968399999944,
          "velocity": 0.49606299212598426,
          "duration": 0.07560484374999987
        },
        {
          "name": "C4",
          "midi": 60,
          "time": 98.70968399999944,
          "velocity": 0.49606299212598426,
          "duration": 0.07560484374999987
        },
        {
          "name": "D4",
          "midi": 62,
          "time": 98.70968399999944,
          "velocity": 0.5669291338582677,
          "duration": 0.08064516666667032
        },
        {
          "name": "D3",
          "midi": 50,
          "time": 98.70968399999944,
          "velocity": 0.5669291338582677,
          "duration": 0.10584678125000835
        },
        {
          "name": "D3",
          "midi": 50,
          "time": 98.95161949999945,
          "velocity": 0.5669291338582677,
          "duration": 0.10584678124999414
        },
        {
          "name": "D2",
          "midi": 38,
          "time": 98.95161949999945,
          "velocity": 0.5669291338582677,
          "duration": 0.25201614583332343
        },
        {
          "name": "D4",
          "midi": 62,
          "time": 99.19355499999945,
          "velocity": 0.49606299212598426,
          "duration": 0.10584678124999414
        },
        {
          "name": "C4",
          "midi": 60,
          "time": 99.19355499999945,
          "velocity": 0.5669291338582677,
          "duration": 0.13104839583333217
        },
        {
          "name": "C3",
          "midi": 48,
          "time": 99.19355499999945,
          "velocity": 0.5669291338582677,
          "duration": 0.18649194791666446
        },
        {
          "name": "A3",
          "midi": 57,
          "time": 99.43549049999945,
          "velocity": 0.5669291338582677,
          "duration": 0.11088710416666459
        },
        {
          "name": "A2",
          "midi": 45,
          "time": 99.43549049999945,
          "velocity": 0.5669291338582677,
          "duration": 0.09576613541666745
        },
        {
          "name": "C4",
          "midi": 60,
          "time": 99.67742599999944,
          "velocity": 0.49606299212598426,
          "duration": 0.10080645833332369
        },
        {
          "name": "D4",
          "midi": 62,
          "time": 99.67742599999944,
          "velocity": 0.49606299212598426,
          "duration": 0.08568548958332656
        },
        {
          "name": "D4",
          "midi": 62,
          "time": 99.67742599999944,
          "velocity": 0.5669291338582677,
          "duration": 0.1360887187499884
        },
        {
          "name": "D3",
          "midi": 50,
          "time": 99.67742599999944,
          "velocity": 0.5669291338582677,
          "duration": 0.08568548958332656
        },
        {
          "name": "D3",
          "midi": 50,
          "time": 99.91936149999943,
          "velocity": 0.5669291338582677,
          "duration": 0.11088710416666459
        },
        {
          "name": "D2",
          "midi": 38,
          "time": 99.91936149999943,
          "velocity": 0.5669291338582677,
          "duration": 0.13104839583333217
        },
        {
          "name": "D4",
          "midi": 62,
          "time": 100.16129699999942,
          "velocity": 0.49606299212598426,
          "duration": 0.08064516666665611
        },
        {
          "name": "C4",
          "midi": 60,
          "time": 100.16129699999942,
          "velocity": 0.5669291338582677,
          "duration": 0.09576613541665324
        },
        {
          "name": "C3",
          "midi": 48,
          "time": 100.16129699999942,
          "velocity": 0.5669291338582677,
          "duration": 0.07056452083332942
        },
        {
          "name": "A3",
          "midi": 57,
          "time": 100.4032324999994,
          "velocity": 0.5669291338582677,
          "duration": 0.11592742708333503
        },
        {
          "name": "A2",
          "midi": 45,
          "time": 100.4032324999994,
          "velocity": 0.5669291338582677,
          "duration": 0.08064516666667032
        },
        {
          "name": "C4",
          "midi": 60,
          "time": 100.6451679999994,
          "velocity": 0.49606299212598426,
          "duration": 0.09576613541666745
        },
        {
          "name": "D4",
          "midi": 62,
          "time": 100.6451679999994,
          "velocity": 0.49606299212598426,
          "duration": 0.08064516666667032
        },
        {
          "name": "D4",
          "midi": 62,
          "time": 100.6451679999994,
          "velocity": 0.5669291338582677,
          "duration": 0.11592742708333503
        },
        {
          "name": "D3",
          "midi": 50,
          "time": 100.6451679999994,
          "velocity": 0.5669291338582677,
          "duration": 0.12096775000000548
        },
        {
          "name": "D3",
          "midi": 50,
          "time": 100.88710349999941,
          "velocity": 0.5669291338582677,
          "duration": 0.1008064583333379
        },
        {
          "name": "D2",
          "midi": 38,
          "time": 100.88710349999941,
          "velocity": 0.5669291338582677,
          "duration": 0.14112904166667306
        },
        {
          "name": "D4",
          "midi": 62,
          "time": 101.12903899999942,
          "velocity": 0.49606299212598426,
          "duration": 0.08568548958332656
        },
        {
          "name": "C4",
          "midi": 60,
          "time": 101.12903899999942,
          "velocity": 0.5669291338582677,
          "duration": 0.09576613541665324
        },
        {
          "name": "C3",
          "midi": 48,
          "time": 101.12903899999942,
          "velocity": 0.5669291338582677,
          "duration": 0.08568548958332656
        },
        {
          "name": "A3",
          "midi": 57,
          "time": 101.3709744999994,
          "velocity": 0.5669291338582677,
          "duration": 0.09576613541666745
        },
        {
          "name": "A2",
          "midi": 45,
          "time": 101.3709744999994,
          "velocity": 0.5669291338582677,
          "duration": 0.1008064583333379
        },
        {
          "name": "D4",
          "midi": 62,
          "time": 101.61290999999942,
          "velocity": 0.49606299212598426,
          "duration": 0.07560484374999987
        },
        {
          "name": "C4",
          "midi": 60,
          "time": 101.61290999999942,
          "velocity": 0.49606299212598426,
          "duration": 0.07560484374999987
        },
        {
          "name": "D4",
          "midi": 62,
          "time": 101.61290999999942,
          "velocity": 0.5669291338582677,
          "duration": 0.08064516666667032
        },
        {
          "name": "D3",
          "midi": 50,
          "time": 101.61290999999942,
          "velocity": 0.5669291338582677,
          "duration": 0.10584678125000835
        },
        {
          "name": "D3",
          "midi": 50,
          "time": 101.85484549999943,
          "velocity": 0.9763779527559056,
          "duration": 0.15120968749999975
        },
        {
          "name": "D2",
          "midi": 38,
          "time": 101.85484549999943,
          "velocity": 0.5669291338582677,
          "duration": 0.25201614583332343
        },
        {
          "name": "D4",
          "midi": 62,
          "time": 102.09678099999942,
          "velocity": 0.5669291338582677,
          "duration": 0.10584678124999414
        },
        {
          "name": "C4",
          "midi": 60,
          "time": 102.09678099999942,
          "velocity": 0.8661417322834646,
          "duration": 0.181451624999994
        },
        {
          "name": "C3",
          "midi": 48,
          "time": 102.09678099999942,
          "velocity": 0.5669291338582677,
          "duration": 0.18649194791666446
        },
        {
          "name": "A3",
          "midi": 57,
          "time": 102.33871649999942,
          "velocity": 0.8110236220472441,
          "duration": 0.13104839583333217
        },
        {
          "name": "A2",
          "midi": 45,
          "time": 102.33871649999942,
          "velocity": 0.5669291338582677,
          "duration": 0.09576613541666745
        },
        {
          "name": "C4",
          "midi": 60,
          "time": 102.58065199999942,
          "velocity": 0.5669291338582677,
          "duration": 0.1360887187499884
        },
        {
          "name": "D4",
          "midi": 62,
          "time": 102.58065199999942,
          "velocity": 0.5669291338582677,
          "duration": 0.12096774999999127
        },
        {
          "name": "D4",
          "midi": 62,
          "time": 102.58065199999942,
          "velocity": 0.8503937007874016,
          "duration": 0.12600807291666172
        },
        {
          "name": "D3",
          "midi": 50,
          "time": 102.58065199999942,
          "velocity": 0.5669291338582677,
          "duration": 0.08568548958332656
        },
        {
          "name": "D3",
          "midi": 50,
          "time": 102.8225874999994,
          "velocity": 0.9212598425196851,
          "duration": 0.14112904166665885
        },
        {
          "name": "D2",
          "midi": 38,
          "time": 102.8225874999994,
          "velocity": 0.5669291338582677,
          "duration": 0.13104839583333217
        },
        {
          "name": "D4",
          "midi": 62,
          "time": 103.0645229999994,
          "velocity": 0.5669291338582677,
          "duration": 0.11088710416666459
        },
        {
          "name": "C4",
          "midi": 60,
          "time": 103.0645229999994,
          "velocity": 0.7401574803149606,
          "duration": 0.181451624999994
        },
        {
          "name": "C3",
          "midi": 48,
          "time": 103.0645229999994,
          "velocity": 0.5669291338582677,
          "duration": 0.07056452083332942
        },
        {
          "name": "A3",
          "midi": 57,
          "time": 103.3064584999994,
          "velocity": 0.7244094488188977,
          "duration": 0.16633065624999688
        },
        {
          "name": "A2",
          "midi": 45,
          "time": 103.3064584999994,
          "velocity": 0.5669291338582677,
          "duration": 0.08064516666667032
        },
        {
          "name": "C4",
          "midi": 60,
          "time": 103.54839399999939,
          "velocity": 0.5669291338582677,
          "duration": 0.12600807291667593
        },
        {
          "name": "D4",
          "midi": 62,
          "time": 103.54839399999939,
          "velocity": 0.5669291338582677,
          "duration": 0.1008064583333379
        },
        {
          "name": "D4",
          "midi": 62,
          "time": 103.54839399999939,
          "velocity": 0.8346456692913385,
          "duration": 0.11592742708333503
        },
        {
          "name": "D3",
          "midi": 50,
          "time": 103.54839399999939,
          "velocity": 0.5669291338582677,
          "duration": 0.12096775000000548
        },
        {
          "name": "D3",
          "midi": 50,
          "time": 103.7903294999994,
          "velocity": 0.8818897637795275,
          "duration": 0.1360887187500026
        },
        {
          "name": "D2",
          "midi": 38,
          "time": 103.7903294999994,
          "velocity": 0.5669291338582677,
          "duration": 0.14112904166667306
        },
        {
          "name": "D4",
          "midi": 62,
          "time": 104.03226499999941,
          "velocity": 0.5669291338582677,
          "duration": 0.10080645833332369
        },
        {
          "name": "C4",
          "midi": 60,
          "time": 104.03226499999941,
          "velocity": 0.7952755905511811,
          "duration": 0.16633065624999688
        },
        {
          "name": "C3",
          "midi": 48,
          "time": 104.03226499999941,
          "velocity": 0.5669291338582677,
          "duration": 0.08568548958332656
        },
        {
          "name": "A3",
          "midi": 57,
          "time": 104.27420049999941,
          "velocity": 0.7952755905511811,
          "duration": 0.12600807291667593
        },
        {
          "name": "A2",
          "midi": 45,
          "time": 104.27420049999941,
          "velocity": 0.5669291338582677,
          "duration": 0.1008064583333379
        },
        {
          "name": "D4",
          "midi": 62,
          "time": 104.51613599999942,
          "velocity": 0.5669291338582677,
          "duration": 0.06048387500000274
        },
        {
          "name": "C4",
          "midi": 60,
          "time": 104.51613599999942,
          "velocity": 0.5669291338582677,
          "duration": 0.06048387500000274
        },
        {
          "name": "D4",
          "midi": 62,
          "time": 104.51613599999942,
          "velocity": 0.937007874015748,
          "duration": 0.1008064583333379
        },
        {
          "name": "D3",
          "midi": 50,
          "time": 104.51613599999942,
          "velocity": 0.5669291338582677,
          "duration": 0.10584678125000835
        },
        {
          "name": "E3",
          "midi": 52,
          "time": 149.75807449999942,
          "velocity": 1,
          "duration": 1.2953629895833387
        }
      ],
      "controlChanges": {},
      "id": 4,
      "name": "Pizzicato Strings",
      "instrumentNumber": 45,
      "instrument": "pizzicato strings",
      "instrumentFamily": "strings",
      "channelNumber": 1,
      "isPercussion": false
    },
    {
      "startTime": 0.967742,
      "duration": 164.2742044999999,
      "length": 344,
      "notes": [
        {
          "name": "E6",
          "midi": 88,
          "time": 0.967742,
          "velocity": 0.6299212598425197,
          "duration": 1.8649194791666668
        },
        {
          "name": "F6",
          "midi": 89,
          "time": 2.903226,
          "velocity": 0.6299212598425197,
          "duration": 0.8971774791666665
        },
        {
          "name": "D6",
          "midi": 86,
          "time": 3.870968,
          "velocity": 0.6299212598425197,
          "duration": 0.8971774791666669
        },
        {
          "name": "D6",
          "midi": 86,
          "time": 4.83871,
          "velocity": 0.6299212598425197,
          "duration": 0.7762097291666663
        },
        {
          "name": "E6",
          "midi": 88,
          "time": 6.774194,
          "velocity": 0.6299212598425197,
          "duration": 1.864919479166666
        },
        {
          "name": "F6",
          "midi": 89,
          "time": 8.709677999999998,
          "velocity": 0.6299212598425197,
          "duration": 0.8971774791666665
        },
        {
          "name": "D6",
          "midi": 86,
          "time": 9.677419999999998,
          "velocity": 0.6299212598425197,
          "duration": 0.8971774791666665
        },
        {
          "name": "D6",
          "midi": 86,
          "time": 10.645161999999997,
          "velocity": 0.6299212598425197,
          "duration": 0.8467742499999993
        },
        {
          "name": "A6",
          "midi": 93,
          "time": 12.580645999999996,
          "velocity": 0.6299212598425197,
          "duration": 2.046371104166667
        },
        {
          "name": "G6",
          "midi": 91,
          "time": 14.516129999999997,
          "velocity": 0.6299212598425197,
          "duration": 0.9576613541666656
        },
        {
          "name": "A6",
          "midi": 93,
          "time": 15.483871999999996,
          "velocity": 0.6299212598425197,
          "duration": 0.9576613541666656
        },
        {
          "name": "G6",
          "midi": 91,
          "time": 16.451613999999996,
          "velocity": 0.6299212598425197,
          "duration": 0.8366936041666655
        },
        {
          "name": "G6",
          "midi": 91,
          "time": 17.419355999999993,
          "velocity": 0.6299212598425197,
          "duration": 0.9072581249999985
        },
        {
          "name": "F6",
          "midi": 89,
          "time": 18.38709799999999,
          "velocity": 0.6299212598425197,
          "duration": 0.7661290833333325
        },
        {
          "name": "E6",
          "midi": 88,
          "time": 19.35483999999999,
          "velocity": 0.6299212598425197,
          "duration": 3.7399196041666656
        },
        {
          "name": "A4",
          "midi": 69,
          "time": 47.17742249999999,
          "velocity": 0.48031496062992124,
          "duration": 0.2923387291666657
        },
        {
          "name": "F4",
          "midi": 65,
          "time": 47.17742249999999,
          "velocity": 0.5039370078740157,
          "duration": 0.3377016354166642
        },
        {
          "name": "A4",
          "midi": 69,
          "time": 47.66129349999999,
          "velocity": 0.4645669291338583,
          "duration": 0.347782281249998
        },
        {
          "name": "F4",
          "midi": 65,
          "time": 47.66129349999999,
          "velocity": 0.5039370078740157,
          "duration": 0.3629032499999951
        },
        {
          "name": "G4",
          "midi": 67,
          "time": 48.145164499999986,
          "velocity": 0.47244094488188976,
          "duration": 0.25201614583333054
        },
        {
          "name": "E4",
          "midi": 64,
          "time": 48.145164499999986,
          "velocity": 0.3937007874015748,
          "duration": 0.2469758229166672
        },
        {
          "name": "E4",
          "midi": 64,
          "time": 48.629035499999986,
          "velocity": 0.4566929133858268,
          "duration": 0.7661290833333325
        },
        {
          "name": "G4",
          "midi": 67,
          "time": 48.629035499999986,
          "velocity": 0.4094488188976378,
          "duration": 0.7459677916666649
        },
        {
          "name": "A4",
          "midi": 69,
          "time": 50.08064849999999,
          "velocity": 0.41732283464566927,
          "duration": 0.2923387291666657
        },
        {
          "name": "F4",
          "midi": 65,
          "time": 50.08064849999999,
          "velocity": 0.47244094488188976,
          "duration": 0.30745969791666283
        },
        {
          "name": "A4",
          "midi": 69,
          "time": 50.56451949999998,
          "velocity": 0.49606299212598426,
          "duration": 0.37802421874999936
        },
        {
          "name": "F4",
          "midi": 65,
          "time": 50.56451949999998,
          "velocity": 0.5196850393700787,
          "duration": 0.36290325000000223
        },
        {
          "name": "E4",
          "midi": 64,
          "time": 51.04839049999998,
          "velocity": 0.4881889763779528,
          "duration": 0.34274195833333465
        },
        {
          "name": "G4",
          "midi": 67,
          "time": 51.04839049999998,
          "velocity": 0.49606299212598426,
          "duration": 0.33266131250000086
        },
        {
          "name": "E4",
          "midi": 64,
          "time": 51.53226149999998,
          "velocity": 0.5039370078740157,
          "duration": 0.49899196874999774
        },
        {
          "name": "G4",
          "midi": 67,
          "time": 51.53226149999998,
          "velocity": 0.5039370078740157,
          "duration": 0.4838710000000006
        },
        {
          "name": "F4",
          "midi": 65,
          "time": 52.98387449999998,
          "velocity": 0.3858267716535433,
          "duration": 0.32258066666666707
        },
        {
          "name": "A4",
          "midi": 69,
          "time": 52.98387449999998,
          "velocity": 0.4251968503937008,
          "duration": 0.2822580833333319
        },
        {
          "name": "F4",
          "midi": 65,
          "time": 53.46774549999998,
          "velocity": 0.4566929133858268,
          "duration": 0.3377016354166642
        },
        {
          "name": "A4",
          "midi": 69,
          "time": 53.46774549999998,
          "velocity": 0.4881889763779528,
          "duration": 0.3578629270833318
        },
        {
          "name": "E4",
          "midi": 64,
          "time": 53.95161649999998,
          "velocity": 0.4094488188976378,
          "duration": 0.36290325000000223
        },
        {
          "name": "G4",
          "midi": 67,
          "time": 53.95161649999998,
          "velocity": 0.48031496062992124,
          "duration": 0.30745969791666994
        },
        {
          "name": "F4",
          "midi": 65,
          "time": 54.43548749999998,
          "velocity": 0.49606299212598426,
          "duration": 0.8064516666666606
        },
        {
          "name": "D4",
          "midi": 62,
          "time": 54.43548749999998,
          "velocity": 0.4566929133858268,
          "duration": 0.8014113437499972
        },
        {
          "name": "E4",
          "midi": 64,
          "time": 55.40322949999997,
          "velocity": 0.49606299212598426,
          "duration": 0.3679435729166656
        },
        {
          "name": "G4",
          "midi": 67,
          "time": 55.40322949999997,
          "velocity": 0.47244094488188976,
          "duration": 0.34274195833333465
        },
        {
          "name": "E4",
          "midi": 64,
          "time": 55.887100499999974,
          "velocity": 0.5354330708661418,
          "duration": 0.8467742500000028
        },
        {
          "name": "D4",
          "midi": 62,
          "time": 56.854842499999975,
          "velocity": 0.4645669291338583,
          "duration": 1.3709678333333315
        },
        {
          "name": "A4",
          "midi": 69,
          "time": 82.01613449999996,
          "velocity": 0.4251968503937008,
          "duration": 0.30745969791666994
        },
        {
          "name": "F4",
          "midi": 65,
          "time": 82.01613449999996,
          "velocity": 0.47244094488188976,
          "duration": 0.33266131250000797
        },
        {
          "name": "F4",
          "midi": 65,
          "time": 82.50000549999997,
          "velocity": 0.4251968503937008,
          "duration": 0.34274195833333465
        },
        {
          "name": "A4",
          "midi": 69,
          "time": 82.50000549999997,
          "velocity": 0.4566929133858268,
          "duration": 0.3729838958333289
        },
        {
          "name": "E4",
          "midi": 64,
          "time": 82.98387649999997,
          "velocity": 0.4566929133858268,
          "duration": 0.3477822812500051
        },
        {
          "name": "G4",
          "midi": 67,
          "time": 82.98387649999997,
          "velocity": 0.5039370078740157,
          "duration": 0.34274195833333465
        },
        {
          "name": "G4",
          "midi": 67,
          "time": 83.46774749999997,
          "velocity": 0.48031496062992124,
          "duration": 0.5947581041666581
        },
        {
          "name": "E4",
          "midi": 64,
          "time": 83.46774749999997,
          "velocity": 0.4881889763779528,
          "duration": 0.5846774583333314
        },
        {
          "name": "A4",
          "midi": 69,
          "time": 84.91936049999997,
          "velocity": 0.4881889763779528,
          "duration": 0.29737905208334325
        },
        {
          "name": "F4",
          "midi": 65,
          "time": 84.91936049999997,
          "velocity": 0.4409448818897638,
          "duration": 0.2721774375000052
        },
        {
          "name": "F4",
          "midi": 65,
          "time": 85.40323149999998,
          "velocity": 0.5196850393700787,
          "duration": 0.3377016354166642
        },
        {
          "name": "A4",
          "midi": 69,
          "time": 85.40323149999998,
          "velocity": 0.5354330708661418,
          "duration": 0.30745969791666994
        },
        {
          "name": "E4",
          "midi": 64,
          "time": 85.88710249999997,
          "velocity": 0.4409448818897638,
          "duration": 0.28729840625000236
        },
        {
          "name": "G4",
          "midi": 67,
          "time": 85.88710249999997,
          "velocity": 0.49606299212598426,
          "duration": 0.29737905208332904
        },
        {
          "name": "E4",
          "midi": 64,
          "time": 86.37097349999996,
          "velocity": 0.4409448818897638,
          "duration": 0.5695564895833201
        },
        {
          "name": "G4",
          "midi": 67,
          "time": 86.37097349999996,
          "velocity": 0.48031496062992124,
          "duration": 0.5594758437499934
        },
        {
          "name": "A4",
          "midi": 69,
          "time": 87.82258649999994,
          "velocity": 0.4330708661417323,
          "duration": 0.30745969791666994
        },
        {
          "name": "F4",
          "midi": 65,
          "time": 87.82258649999994,
          "velocity": 0.5196850393700787,
          "duration": 0.2923387291666728
        },
        {
          "name": "A4",
          "midi": 69,
          "time": 88.30645749999995,
          "velocity": 0.5039370078740157,
          "duration": 0.3125000208333404
        },
        {
          "name": "F4",
          "midi": 65,
          "time": 88.30645749999995,
          "velocity": 0.5118110236220472,
          "duration": 0.2923387291666728
        },
        {
          "name": "G4",
          "midi": 67,
          "time": 88.79032849999996,
          "velocity": 0.4881889763779528,
          "duration": 0.3125000208333262
        },
        {
          "name": "E4",
          "midi": 64,
          "time": 88.79032849999996,
          "velocity": 0.4251968503937008,
          "duration": 0.27721776041666146
        },
        {
          "name": "F4",
          "midi": 65,
          "time": 89.27419949999995,
          "velocity": 0.49606299212598426,
          "duration": 0.836693604166669
        },
        {
          "name": "D4",
          "midi": 62,
          "time": 89.27419949999995,
          "velocity": 0.33858267716535434,
          "duration": 0.7963710208333339
        },
        {
          "name": "E4",
          "midi": 64,
          "time": 90.24194149999995,
          "velocity": 0.49606299212598426,
          "duration": 0.8266129583333424
        },
        {
          "name": "G4",
          "midi": 67,
          "time": 90.24194149999995,
          "velocity": 0.4566929133858268,
          "duration": 0.8014113437500043
        },
        {
          "name": "D4",
          "midi": 62,
          "time": 91.20968349999997,
          "velocity": 0.5196850393700787,
          "duration": 0.33266131249999376
        },
        {
          "name": "F4",
          "midi": 65,
          "time": 91.20968349999997,
          "velocity": 0.5039370078740157,
          "duration": 0.3024193749999995
        },
        {
          "name": "E4",
          "midi": 64,
          "time": 91.69355449999996,
          "velocity": 0.5275590551181102,
          "duration": 1.3306452500000034
        },
        {
          "name": "G4",
          "midi": 67,
          "time": 91.69355449999996,
          "velocity": 0.4881889763779528,
          "duration": 1.3054436354166654
        },
        {
          "name": "F4",
          "midi": 65,
          "time": 93.62903849999996,
          "velocity": 0.5118110236220472,
          "duration": 0.3729838958333431
        },
        {
          "name": "A4",
          "midi": 69,
          "time": 93.62903849999996,
          "velocity": 0.47244094488188976,
          "duration": 0.3477822812500051
        },
        {
          "name": "F4",
          "midi": 65,
          "time": 94.11290949999997,
          "velocity": 0.4566929133858268,
          "duration": 0.3679435729166727
        },
        {
          "name": "A4",
          "midi": 69,
          "time": 94.11290949999997,
          "velocity": 0.5196850393700787,
          "duration": 0.3830645416666698
        },
        {
          "name": "G4",
          "midi": 67,
          "time": 94.59678049999998,
          "velocity": 0.5118110236220472,
          "duration": 0.34274195833333465
        },
        {
          "name": "E4",
          "midi": 64,
          "time": 94.59678049999998,
          "velocity": 0.4409448818897638,
          "duration": 0.30745969791666994
        },
        {
          "name": "E4",
          "midi": 64,
          "time": 95.08065149999999,
          "velocity": 0.5039370078740157,
          "duration": 0.7056452083333369
        },
        {
          "name": "G4",
          "midi": 67,
          "time": 95.08065149999999,
          "velocity": 0.5196850393700787,
          "duration": 0.6502016562500046
        },
        {
          "name": "A4",
          "midi": 69,
          "time": 96.5322645,
          "velocity": 0.30708661417322836,
          "duration": 0.3175403437499966
        },
        {
          "name": "F4",
          "midi": 65,
          "time": 96.5322645,
          "velocity": 0.5039370078740157,
          "duration": 0.3377016354166642
        },
        {
          "name": "F4",
          "midi": 65,
          "time": 97.01613549999999,
          "velocity": 0.47244094488188976,
          "duration": 0.32258066666666707
        },
        {
          "name": "A4",
          "midi": 69,
          "time": 97.01613549999999,
          "velocity": 0.4566929133858268,
          "duration": 0.33266131249999376
        },
        {
          "name": "G4",
          "midi": 67,
          "time": 97.50000649999998,
          "velocity": 0.5275590551181102,
          "duration": 0.26209679166667854
        },
        {
          "name": "E4",
          "midi": 64,
          "time": 97.50000649999998,
          "velocity": 0.4015748031496063,
          "duration": 0.21673388541667293
        },
        {
          "name": "E4",
          "midi": 64,
          "time": 97.98387749999999,
          "velocity": 0.47244094488188976,
          "duration": 0.6149193958333257
        },
        {
          "name": "G4",
          "midi": 67,
          "time": 97.98387749999999,
          "velocity": 0.4881889763779528,
          "duration": 0.5594758437499934
        },
        {
          "name": "F4",
          "midi": 65,
          "time": 99.43549049999999,
          "velocity": 0.3779527559055118,
          "duration": 0.3024193749999995
        },
        {
          "name": "A4",
          "midi": 69,
          "time": 99.43549049999999,
          "velocity": 0.3464566929133858,
          "duration": 0.25201614583333765
        },
        {
          "name": "F4",
          "midi": 65,
          "time": 99.91936149999998,
          "velocity": 0.49606299212598426,
          "duration": 0.362903249999988
        },
        {
          "name": "A4",
          "midi": 69,
          "time": 99.91936149999998,
          "velocity": 0.4409448818897638,
          "duration": 0.33266131249999376
        },
        {
          "name": "G4",
          "midi": 67,
          "time": 100.40323249999997,
          "velocity": 0.5039370078740157,
          "duration": 0.3024193749999995
        },
        {
          "name": "E4",
          "midi": 64,
          "time": 100.40323249999997,
          "velocity": 0.49606299212598426,
          "duration": 0.27721776041666146
        },
        {
          "name": "D4",
          "midi": 62,
          "time": 100.88710349999997,
          "velocity": 0.4330708661417323,
          "duration": 0.8669355416666633
        },
        {
          "name": "F4",
          "midi": 65,
          "time": 100.88710349999997,
          "velocity": 0.5039370078740157,
          "duration": 0.8316532812499986
        },
        {
          "name": "E4",
          "midi": 64,
          "time": 101.85484549999997,
          "velocity": 0.49606299212598426,
          "duration": 0.34274195833333465
        },
        {
          "name": "G4",
          "midi": 67,
          "time": 101.85484549999997,
          "velocity": 0.49606299212598426,
          "duration": 0.32258066666666707
        },
        {
          "name": "E4",
          "midi": 64,
          "time": 102.33871649999998,
          "velocity": 0.5275590551181102,
          "duration": 0.8064516666666606
        },
        {
          "name": "D4",
          "midi": 62,
          "time": 103.30645849999996,
          "velocity": 0.4645669291338583,
          "duration": 1.1945565312500008
        },
        {
          "name": "D5",
          "midi": 74,
          "time": 104.75807149999996,
          "velocity": 0.6850393700787402,
          "duration": 0.1461693645833293
        },
        {
          "name": "C6",
          "midi": 84,
          "time": 105.00000699999995,
          "velocity": 0.6850393700787402,
          "duration": 0.1915322708333349
        },
        {
          "name": "A5",
          "midi": 81,
          "time": 105.24194249999995,
          "velocity": 0.7165354330708661,
          "duration": 0.15120968749999975
        },
        {
          "name": "D6",
          "midi": 86,
          "time": 105.48387799999995,
          "velocity": 0.7244094488188977,
          "duration": 0.181451624999994
        },
        {
          "name": "D5",
          "midi": 74,
          "time": 105.72581349999994,
          "velocity": 0.8031496062992126,
          "duration": 0.2016129166666616
        },
        {
          "name": "C6",
          "midi": 84,
          "time": 105.96774899999994,
          "velocity": 0.7165354330708661,
          "duration": 0.16633065624999688
        },
        {
          "name": "A5",
          "midi": 81,
          "time": 106.20968449999994,
          "velocity": 0.6141732283464567,
          "duration": 0.1562500104166702
        },
        {
          "name": "D6",
          "midi": 86,
          "time": 106.45161999999993,
          "velocity": 0.5669291338582677,
          "duration": 0.15120968749999975
        },
        {
          "name": "D5",
          "midi": 74,
          "time": 106.69355549999993,
          "velocity": 0.6299212598425197,
          "duration": 0.18649194791666446
        },
        {
          "name": "C6",
          "midi": 84,
          "time": 106.93549099999993,
          "velocity": 0.5275590551181102,
          "duration": 0.181451624999994
        },
        {
          "name": "A5",
          "midi": 81,
          "time": 107.17742649999992,
          "velocity": 0.5748031496062992,
          "duration": 0.14112904166667306
        },
        {
          "name": "D6",
          "midi": 86,
          "time": 107.41936199999994,
          "velocity": 0.5196850393700787,
          "duration": 0.12096775000000548
        },
        {
          "name": "D5",
          "midi": 74,
          "time": 107.66129749999995,
          "velocity": 0.6141732283464567,
          "duration": 0.16129033333332643
        },
        {
          "name": "C6",
          "midi": 84,
          "time": 107.90323299999994,
          "velocity": 0.5511811023622047,
          "duration": 0.1915322708333349
        },
        {
          "name": "A5",
          "midi": 81,
          "time": 108.14516849999994,
          "velocity": 0.5511811023622047,
          "duration": 0.12600807291666172
        },
        {
          "name": "D6",
          "midi": 86,
          "time": 108.38710399999994,
          "velocity": 0.5669291338582677,
          "duration": 0.181451624999994
        },
        {
          "name": "D5",
          "midi": 74,
          "time": 108.62903949999993,
          "velocity": 0.6299212598425197,
          "duration": 0.181451624999994
        },
        {
          "name": "C6",
          "midi": 84,
          "time": 108.87097499999993,
          "velocity": 0.5669291338582677,
          "duration": 0.19657259375000535
        },
        {
          "name": "A5",
          "midi": 81,
          "time": 109.11291049999994,
          "velocity": 0.5590551181102362,
          "duration": 0.16129033333332643
        },
        {
          "name": "D6",
          "midi": 86,
          "time": 109.35484599999994,
          "velocity": 0.5826771653543307,
          "duration": 0.16633065624999688
        },
        {
          "name": "D5",
          "midi": 74,
          "time": 109.59678149999993,
          "velocity": 0.6141732283464567,
          "duration": 0.1915322708333349
        },
        {
          "name": "C6",
          "midi": 84,
          "time": 109.83871699999993,
          "velocity": 0.5669291338582677,
          "duration": 0.181451624999994
        },
        {
          "name": "A5",
          "midi": 81,
          "time": 110.08065249999993,
          "velocity": 0.5669291338582677,
          "duration": 0.14112904166667306
        },
        {
          "name": "D6",
          "midi": 86,
          "time": 110.32258799999994,
          "velocity": 0.5511811023622047,
          "duration": 0.16633065624999688
        },
        {
          "name": "D5",
          "midi": 74,
          "time": 110.56452349999994,
          "velocity": 0.6062992125984252,
          "duration": 0.181451624999994
        },
        {
          "name": "C6",
          "midi": 84,
          "time": 110.80645899999993,
          "velocity": 0.5354330708661418,
          "duration": 0.181451624999994
        },
        {
          "name": "A5",
          "midi": 81,
          "time": 111.04839449999993,
          "velocity": 0.5590551181102362,
          "duration": 0.1562500104166702
        },
        {
          "name": "D6",
          "midi": 86,
          "time": 111.29032999999993,
          "velocity": 0.5433070866141733,
          "duration": 0.2016129166666616
        },
        {
          "name": "D5",
          "midi": 74,
          "time": 111.53226549999992,
          "velocity": 0.5905511811023622,
          "duration": 0.181451624999994
        },
        {
          "name": "C6",
          "midi": 84,
          "time": 111.77420099999992,
          "velocity": 0.5669291338582677,
          "duration": 0.1915322708333349
        },
        {
          "name": "A5",
          "midi": 81,
          "time": 112.01613649999992,
          "velocity": 0.5196850393700787,
          "duration": 0.14112904166667306
        },
        {
          "name": "D6",
          "midi": 86,
          "time": 112.25807199999993,
          "velocity": 0.5590551181102362,
          "duration": 0.15120968749999975
        },
        {
          "name": "D5",
          "midi": 74,
          "time": 112.50000749999992,
          "velocity": 0.6299212598425197,
          "duration": 0.17641130208333777
        },
        {
          "name": "C6",
          "midi": 84,
          "time": 112.74194299999994,
          "velocity": 0.5354330708661418,
          "duration": 0.17641130208333777
        },
        {
          "name": "A5",
          "midi": 81,
          "time": 112.98387849999995,
          "velocity": 0.5354330708661418,
          "duration": 0.14112904166667306
        },
        {
          "name": "D6",
          "midi": 86,
          "time": 113.22581399999996,
          "velocity": 0.5433070866141733,
          "duration": 0.16129033333332643
        },
        {
          "name": "D5",
          "midi": 74,
          "time": 113.46774949999995,
          "velocity": 0.6299212598425197,
          "duration": 0.181451624999994
        },
        {
          "name": "C6",
          "midi": 84,
          "time": 113.70968499999995,
          "velocity": 0.5118110236220472,
          "duration": 0.16129033333332643
        },
        {
          "name": "A5",
          "midi": 81,
          "time": 113.95162049999995,
          "velocity": 0.5433070866141733,
          "duration": 0.14112904166667306
        },
        {
          "name": "D6",
          "midi": 86,
          "time": 114.19355599999996,
          "velocity": 0.5354330708661418,
          "duration": 0.15120968749999975
        },
        {
          "name": "D5",
          "midi": 74,
          "time": 114.43549149999996,
          "velocity": 0.6614173228346457,
          "duration": 0.17641130208333777
        },
        {
          "name": "C6",
          "midi": 84,
          "time": 114.67742699999997,
          "velocity": 0.5039370078740157,
          "duration": 0.17137097916666733
        },
        {
          "name": "A5",
          "midi": 81,
          "time": 114.91936249999996,
          "velocity": 0.5511811023622047,
          "duration": 0.14112904166667306
        },
        {
          "name": "D6",
          "midi": 86,
          "time": 115.16129799999997,
          "velocity": 0.5118110236220472,
          "duration": 0.16129033333332643
        },
        {
          "name": "D5",
          "midi": 74,
          "time": 115.40323349999997,
          "velocity": 0.5354330708661418,
          "duration": 0.2016129166666616
        },
        {
          "name": "C6",
          "midi": 84,
          "time": 115.64516899999997,
          "velocity": 0.5354330708661418,
          "duration": 0.13104839583333217
        },
        {
          "name": "A5",
          "midi": 81,
          "time": 115.88710449999996,
          "velocity": 0.5433070866141733,
          "duration": 0.13104839583333217
        },
        {
          "name": "D6",
          "midi": 86,
          "time": 116.12903999999996,
          "velocity": 0.5118110236220472,
          "duration": 0.14112904166667306
        },
        {
          "name": "D5",
          "midi": 74,
          "time": 116.37097549999997,
          "velocity": 0.5669291338582677,
          "duration": 0.1915322708333349
        },
        {
          "name": "C6",
          "midi": 84,
          "time": 116.61291099999997,
          "velocity": 0.5275590551181102,
          "duration": 0.16633065624999688
        },
        {
          "name": "A5",
          "midi": 81,
          "time": 116.85484649999997,
          "velocity": 0.5511811023622047,
          "duration": 0.14112904166667306
        },
        {
          "name": "D6",
          "midi": 86,
          "time": 117.09678199999998,
          "velocity": 0.5118110236220472,
          "duration": 0.13104839583333217
        },
        {
          "name": "D5",
          "midi": 74,
          "time": 117.33871749999997,
          "velocity": 0.5354330708661418,
          "duration": 0.181451624999994
        },
        {
          "name": "C6",
          "midi": 84,
          "time": 117.58065299999997,
          "velocity": 0.5118110236220472,
          "duration": 0.22177420833332917
        },
        {
          "name": "A5",
          "midi": 81,
          "time": 117.82258849999997,
          "velocity": 0.5118110236220472,
          "duration": 0.12096775000000548
        },
        {
          "name": "D6",
          "midi": 86,
          "time": 118.06452399999998,
          "velocity": 0.4881889763779528,
          "duration": 0.11592742708333503
        },
        {
          "name": "D5",
          "midi": 74,
          "time": 118.30645949999997,
          "velocity": 0.5354330708661418,
          "duration": 0.1915322708333349
        },
        {
          "name": "C6",
          "midi": 84,
          "time": 118.54839499999997,
          "velocity": 0.5039370078740157,
          "duration": 0.16633065624999688
        },
        {
          "name": "A5",
          "midi": 81,
          "time": 118.79033049999997,
          "velocity": 0.5039370078740157,
          "duration": 0.16129033333332643
        },
        {
          "name": "D6",
          "midi": 86,
          "time": 119.03226599999996,
          "velocity": 0.5196850393700787,
          "duration": 0.12096775000000548
        },
        {
          "name": "D5",
          "midi": 74,
          "time": 119.27420149999998,
          "velocity": 0.5118110236220472,
          "duration": 0.1461693645833293
        },
        {
          "name": "C5",
          "midi": 72,
          "time": 119.27420149999998,
          "velocity": 0.4645669291338583,
          "duration": 0.015120968749997132
        },
        {
          "name": "C6",
          "midi": 84,
          "time": 119.51613699999997,
          "velocity": 0.49606299212598426,
          "duration": 0.181451624999994
        },
        {
          "name": "A5",
          "midi": 81,
          "time": 119.75807249999997,
          "velocity": 0.5039370078740157,
          "duration": 0.1461693645833293
        },
        {
          "name": "D6",
          "midi": 86,
          "time": 120.00000799999997,
          "velocity": 0.5354330708661418,
          "duration": 0.16633065624999688
        },
        {
          "name": "D5",
          "midi": 74,
          "time": 120.24194349999996,
          "velocity": 0.5826771653543307,
          "duration": 0.17137097916666733
        },
        {
          "name": "C6",
          "midi": 84,
          "time": 120.48387899999996,
          "velocity": 0.49606299212598426,
          "duration": 0.17641130208333777
        },
        {
          "name": "A5",
          "midi": 81,
          "time": 120.72581449999997,
          "velocity": 0.5196850393700787,
          "duration": 0.1562500104166702
        },
        {
          "name": "D6",
          "midi": 86,
          "time": 120.96774999999997,
          "velocity": 0.5196850393700787,
          "duration": 0.1461693645833293
        },
        {
          "name": "D5",
          "midi": 74,
          "time": 121.20968549999996,
          "velocity": 0.5669291338582677,
          "duration": 0.18649194791666446
        },
        {
          "name": "C6",
          "midi": 84,
          "time": 121.45162099999996,
          "velocity": 0.5118110236220472,
          "duration": 0.181451624999994
        },
        {
          "name": "A5",
          "midi": 81,
          "time": 121.69355649999996,
          "velocity": 0.5118110236220472,
          "duration": 0.14112904166667306
        },
        {
          "name": "D6",
          "midi": 86,
          "time": 121.93549199999997,
          "velocity": 0.5433070866141733,
          "duration": 0.1360887187500026
        },
        {
          "name": "D5",
          "midi": 74,
          "time": 122.17742749999996,
          "velocity": 0.5826771653543307,
          "duration": 0.15120968749999975
        },
        {
          "name": "C6",
          "midi": 84,
          "time": 122.41936299999996,
          "velocity": 0.5433070866141733,
          "duration": 0.1562500104166702
        },
        {
          "name": "A5",
          "midi": 81,
          "time": 122.66129849999996,
          "velocity": 0.5433070866141733,
          "duration": 0.14112904166667306
        },
        {
          "name": "D6",
          "midi": 86,
          "time": 122.90323399999997,
          "velocity": 0.5669291338582677,
          "duration": 0.1461693645833293
        },
        {
          "name": "D5",
          "midi": 74,
          "time": 123.14516949999997,
          "velocity": 0.6299212598425197,
          "duration": 0.1461693645833293
        },
        {
          "name": "C6",
          "midi": 84,
          "time": 123.38710499999996,
          "velocity": 0.5039370078740157,
          "duration": 0.17137097916666733
        },
        {
          "name": "A5",
          "midi": 81,
          "time": 123.62904049999996,
          "velocity": 0.5275590551181102,
          "duration": 0.14112904166667306
        },
        {
          "name": "D6",
          "midi": 86,
          "time": 123.87097599999997,
          "velocity": 0.5275590551181102,
          "duration": 0.1461693645833293
        },
        {
          "name": "D5",
          "midi": 74,
          "time": 124.11291149999997,
          "velocity": 0.5669291338582677,
          "duration": 0.17137097916666733
        },
        {
          "name": "C6",
          "midi": 84,
          "time": 124.35484699999996,
          "velocity": 0.47244094488188976,
          "duration": 0.16129033333332643
        },
        {
          "name": "A5",
          "midi": 81,
          "time": 124.59678249999996,
          "velocity": 0.4881889763779528,
          "duration": 0.13104839583333217
        },
        {
          "name": "D6",
          "midi": 86,
          "time": 124.83871799999996,
          "velocity": 0.5118110236220472,
          "duration": 0.11592742708333503
        },
        {
          "name": "D5",
          "midi": 74,
          "time": 125.08065349999995,
          "velocity": 0.5826771653543307,
          "duration": 0.181451624999994
        },
        {
          "name": "C6",
          "midi": 84,
          "time": 125.32258899999995,
          "velocity": 0.47244094488188976,
          "duration": 0.16633065624999688
        },
        {
          "name": "A5",
          "midi": 81,
          "time": 125.56452449999995,
          "velocity": 0.4881889763779528,
          "duration": 0.1360887187500026
        },
        {
          "name": "D6",
          "midi": 86,
          "time": 125.80645999999994,
          "velocity": 0.49606299212598426,
          "duration": 0.12096775000000548
        },
        {
          "name": "D5",
          "midi": 74,
          "time": 126.04839549999996,
          "velocity": 0.5669291338582677,
          "duration": 0.12096775000000548
        },
        {
          "name": "C6",
          "midi": 84,
          "time": 126.29033099999997,
          "velocity": 0.5196850393700787,
          "duration": 0.1915322708333349
        },
        {
          "name": "A5",
          "midi": 81,
          "time": 126.53226649999996,
          "velocity": 0.5275590551181102,
          "duration": 0.16633065624999688
        },
        {
          "name": "D6",
          "midi": 86,
          "time": 126.77420199999996,
          "velocity": 0.5118110236220472,
          "duration": 0.14112904166667306
        },
        {
          "name": "D5",
          "midi": 74,
          "time": 127.01613749999997,
          "velocity": 0.5669291338582677,
          "duration": 0.16633065624999688
        },
        {
          "name": "C6",
          "midi": 84,
          "time": 127.25807299999997,
          "velocity": 0.5039370078740157,
          "duration": 0.181451624999994
        },
        {
          "name": "A5",
          "midi": 81,
          "time": 127.50000849999996,
          "velocity": 0.5039370078740157,
          "duration": 0.1360887187500026
        },
        {
          "name": "D6",
          "midi": 86,
          "time": 127.74194399999996,
          "velocity": 0.5354330708661418,
          "duration": 0.12600807291666172
        },
        {
          "name": "D5",
          "midi": 74,
          "time": 127.98387949999996,
          "velocity": 0.7244094488188977,
          "duration": 0.1915322708333207
        },
        {
          "name": "C6",
          "midi": 84,
          "time": 128.22581499999995,
          "velocity": 0.5984251968503937,
          "duration": 0.17137097916665311
        },
        {
          "name": "A5",
          "midi": 81,
          "time": 128.46775049999994,
          "velocity": 0.6850393700787402,
          "duration": 0.16129033333334064
        },
        {
          "name": "D6",
          "midi": 86,
          "time": 128.70968599999995,
          "velocity": 0.6141732283464567,
          "duration": 0.181451624999994
        },
        {
          "name": "D5",
          "midi": 74,
          "time": 128.95162149999993,
          "velocity": 0.7165354330708661,
          "duration": 0.17137097916665311
        },
        {
          "name": "C6",
          "midi": 84,
          "time": 129.1935569999999,
          "velocity": 0.6377952755905512,
          "duration": 0.18649194791666446
        },
        {
          "name": "A5",
          "midi": 81,
          "time": 129.43549249999992,
          "velocity": 0.6692913385826772,
          "duration": 0.16129033333334064
        },
        {
          "name": "D6",
          "midi": 86,
          "time": 129.67742799999994,
          "velocity": 0.6299212598425197,
          "duration": 0.17137097916665311
        },
        {
          "name": "D5",
          "midi": 74,
          "time": 129.91936349999992,
          "velocity": 0.7007874015748031,
          "duration": 0.2016129166666758
        },
        {
          "name": "C6",
          "midi": 84,
          "time": 130.16129899999993,
          "velocity": 0.6535433070866141,
          "duration": 0.181451624999994
        },
        {
          "name": "A5",
          "midi": 81,
          "time": 130.4032344999999,
          "velocity": 0.6614173228346457,
          "duration": 0.17137097916665311
        },
        {
          "name": "D6",
          "midi": 86,
          "time": 130.6451699999999,
          "velocity": 0.6062992125984252,
          "duration": 0.17137097916665311
        },
        {
          "name": "D5",
          "midi": 74,
          "time": 130.88710549999988,
          "velocity": 0.7007874015748031,
          "duration": 0.1915322708333349
        },
        {
          "name": "C6",
          "midi": 84,
          "time": 131.1290409999999,
          "velocity": 0.5826771653543307,
          "duration": 0.17137097916665311
        },
        {
          "name": "A5",
          "midi": 81,
          "time": 131.37097649999987,
          "velocity": 0.6929133858267716,
          "duration": 0.15120968749999975
        },
        {
          "name": "D6",
          "midi": 86,
          "time": 131.61291199999988,
          "velocity": 0.6141732283464567,
          "duration": 0.181451624999994
        },
        {
          "name": "D5",
          "midi": 74,
          "time": 131.85484749999986,
          "velocity": 0.6692913385826772,
          "duration": 0.1915322708333349
        },
        {
          "name": "C6",
          "midi": 84,
          "time": 132.09678299999987,
          "velocity": 0.5984251968503937,
          "duration": 0.1663306562500111
        },
        {
          "name": "A5",
          "midi": 81,
          "time": 132.33871849999989,
          "velocity": 0.6929133858267716,
          "duration": 0.1562500104166702
        },
        {
          "name": "D6",
          "midi": 86,
          "time": 132.5806539999999,
          "velocity": 0.5984251968503937,
          "duration": 0.16129033333334064
        },
        {
          "name": "D5",
          "midi": 74,
          "time": 132.8225894999999,
          "velocity": 0.7007874015748031,
          "duration": 0.181451624999994
        },
        {
          "name": "C6",
          "midi": 84,
          "time": 133.0645249999999,
          "velocity": 0.5590551181102362,
          "duration": 0.17137097916665311
        },
        {
          "name": "A5",
          "midi": 81,
          "time": 133.30646049999987,
          "velocity": 0.6535433070866141,
          "duration": 0.1562500104166702
        },
        {
          "name": "D6",
          "midi": 86,
          "time": 133.54839599999988,
          "velocity": 0.5984251968503937,
          "duration": 0.16129033333334064
        },
        {
          "name": "D5",
          "midi": 74,
          "time": 133.7903314999999,
          "velocity": 0.7165354330708661,
          "duration": 0.1915322708333349
        },
        {
          "name": "C6",
          "midi": 84,
          "time": 134.0322669999999,
          "velocity": 0.5354330708661418,
          "duration": 0.17137097916665311
        },
        {
          "name": "A5",
          "midi": 81,
          "time": 134.2742024999999,
          "velocity": 0.6299212598425197,
          "duration": 0.16129033333334064
        },
        {
          "name": "D6",
          "midi": 86,
          "time": 134.5161379999999,
          "velocity": 0.5984251968503937,
          "duration": 0.181451624999994
        },
        {
          "name": "D5",
          "midi": 74,
          "time": 134.75807349999988,
          "velocity": 0.6850393700787402,
          "duration": 0.22177420833332917
        },
        {
          "name": "C6",
          "midi": 84,
          "time": 135.00000899999986,
          "velocity": 0.5984251968503937,
          "duration": 0.1663306562500111
        },
        {
          "name": "A5",
          "midi": 81,
          "time": 135.24194449999987,
          "velocity": 0.6535433070866141,
          "duration": 0.1562500104166702
        },
        {
          "name": "D6",
          "midi": 86,
          "time": 135.48387999999989,
          "velocity": 0.5826771653543307,
          "duration": 0.16129033333334064
        },
        {
          "name": "D5",
          "midi": 74,
          "time": 135.7258154999999,
          "velocity": 0.6850393700787402,
          "duration": 0.1915322708333349
        },
        {
          "name": "C6",
          "midi": 84,
          "time": 135.9677509999999,
          "velocity": 0.5905511811023622,
          "duration": 0.181451624999994
        },
        {
          "name": "A5",
          "midi": 81,
          "time": 136.2096864999999,
          "velocity": 0.6614173228346457,
          "duration": 0.1562500104166702
        },
        {
          "name": "D6",
          "midi": 86,
          "time": 136.4516219999999,
          "velocity": 0.5905511811023622,
          "duration": 0.16129033333334064
        },
        {
          "name": "D5",
          "midi": 74,
          "time": 136.6935574999999,
          "velocity": 0.6692913385826772,
          "duration": 0.18649194791666446
        },
        {
          "name": "C6",
          "midi": 84,
          "time": 136.93549299999992,
          "velocity": 0.5748031496062992,
          "duration": 0.17641130208332356
        },
        {
          "name": "A5",
          "midi": 81,
          "time": 137.1774284999999,
          "velocity": 0.6299212598425197,
          "duration": 0.1562500104166702
        },
        {
          "name": "D6",
          "midi": 86,
          "time": 137.41936399999992,
          "velocity": 0.5590551181102362,
          "duration": 0.16129033333334064
        },
        {
          "name": "D5",
          "midi": 74,
          "time": 137.66129949999993,
          "velocity": 0.6535433070866141,
          "duration": 0.181451624999994
        },
        {
          "name": "C6",
          "midi": 84,
          "time": 137.9032349999999,
          "velocity": 0.6299212598425197,
          "duration": 0.2016129166666758
        },
        {
          "name": "A5",
          "midi": 81,
          "time": 138.14517049999992,
          "velocity": 0.6299212598425197,
          "duration": 0.1562500104166702
        },
        {
          "name": "D6",
          "midi": 86,
          "time": 138.38710599999993,
          "velocity": 0.5590551181102362,
          "duration": 0.181451624999994
        },
        {
          "name": "D5",
          "midi": 74,
          "time": 138.62904149999991,
          "velocity": 0.6850393700787402,
          "duration": 0.16129033333334064
        },
        {
          "name": "C6",
          "midi": 84,
          "time": 138.87097699999993,
          "velocity": 0.5354330708661418,
          "duration": 0.18649194791666446
        },
        {
          "name": "A5",
          "midi": 81,
          "time": 139.11291249999994,
          "velocity": 0.6141732283464567,
          "duration": 0.1562500104166702
        },
        {
          "name": "D6",
          "midi": 86,
          "time": 139.35484799999995,
          "velocity": 0.5511811023622047,
          "duration": 0.17137097916665311
        },
        {
          "name": "D5",
          "midi": 74,
          "time": 139.59678349999993,
          "velocity": 0.6692913385826772,
          "duration": 0.1915322708333349
        },
        {
          "name": "C6",
          "midi": 84,
          "time": 139.83871899999994,
          "velocity": 0.5275590551181102,
          "duration": 0.15120968749999975
        },
        {
          "name": "A5",
          "midi": 81,
          "time": 140.08065449999995,
          "velocity": 0.6299212598425197,
          "duration": 0.16129033333334064
        },
        {
          "name": "D6",
          "midi": 86,
          "time": 140.32258999999996,
          "velocity": 0.5433070866141733,
          "duration": 0.181451624999994
        },
        {
          "name": "D5",
          "midi": 74,
          "time": 140.56452549999995,
          "velocity": 0.6377952755905512,
          "duration": 0.1915322708333349
        },
        {
          "name": "C6",
          "midi": 84,
          "time": 140.80646099999996,
          "velocity": 0.5275590551181102,
          "duration": 0.181451624999994
        },
        {
          "name": "A5",
          "midi": 81,
          "time": 141.04839649999994,
          "velocity": 0.6299212598425197,
          "duration": 0.15120968749999975
        },
        {
          "name": "D6",
          "midi": 86,
          "time": 141.29033199999995,
          "velocity": 0.5196850393700787,
          "duration": 0.15120968749999975
        },
        {
          "name": "D5",
          "midi": 74,
          "time": 141.53226749999996,
          "velocity": 0.5826771653543307,
          "duration": 0.1461693645833293
        },
        {
          "name": "C6",
          "midi": 84,
          "time": 141.77420299999994,
          "velocity": 0.5511811023622047,
          "duration": 0.22177420833332917
        },
        {
          "name": "A5",
          "midi": 81,
          "time": 142.01613849999993,
          "velocity": 0.5669291338582677,
          "duration": 0.1461693645833293
        },
        {
          "name": "D6",
          "midi": 86,
          "time": 142.2580739999999,
          "velocity": 0.5669291338582677,
          "duration": 0.15120968749999975
        },
        {
          "name": "D5",
          "midi": 74,
          "time": 142.50000949999992,
          "velocity": 0.6299212598425197,
          "duration": 0.1562500104166702
        },
        {
          "name": "C6",
          "midi": 84,
          "time": 142.74194499999993,
          "velocity": 0.5748031496062992,
          "duration": 0.1663306562500111
        },
        {
          "name": "A5",
          "midi": 81,
          "time": 142.98388049999994,
          "velocity": 0.6299212598425197,
          "duration": 0.12096775000000548
        },
        {
          "name": "D6",
          "midi": 86,
          "time": 143.22581599999995,
          "velocity": 0.5984251968503937,
          "duration": 0.18649194791666446
        },
        {
          "name": "D5",
          "midi": 74,
          "time": 143.46775149999996,
          "velocity": 0.6141732283464567,
          "duration": 0.16129033333334064
        },
        {
          "name": "C6",
          "midi": 84,
          "time": 143.70968699999997,
          "velocity": 0.5826771653543307,
          "duration": 0.1663306562500111
        },
        {
          "name": "A5",
          "midi": 81,
          "time": 143.95162249999998,
          "velocity": 0.6377952755905512,
          "duration": 0.16129033333334064
        },
        {
          "name": "D6",
          "midi": 86,
          "time": 144.193558,
          "velocity": 0.5984251968503937,
          "duration": 0.17641130208332356
        },
        {
          "name": "D5",
          "midi": 74,
          "time": 144.43549349999998,
          "velocity": 0.6377952755905512,
          "duration": 0.1663306562500111
        },
        {
          "name": "C6",
          "midi": 84,
          "time": 144.677429,
          "velocity": 0.5669291338582677,
          "duration": 0.181451624999994
        },
        {
          "name": "A5",
          "midi": 81,
          "time": 144.91936449999997,
          "velocity": 0.5748031496062992,
          "duration": 0.14112904166665885
        },
        {
          "name": "D6",
          "midi": 86,
          "time": 145.16129999999995,
          "velocity": 0.5748031496062992,
          "duration": 0.17137097916665311
        },
        {
          "name": "D5",
          "midi": 74,
          "time": 145.40323549999994,
          "velocity": 0.6299212598425197,
          "duration": 0.181451624999994
        },
        {
          "name": "C6",
          "midi": 84,
          "time": 145.64517099999992,
          "velocity": 0.5196850393700787,
          "duration": 0.17641130208332356
        },
        {
          "name": "A5",
          "midi": 81,
          "time": 145.8871064999999,
          "velocity": 0.6141732283464567,
          "duration": 0.16129033333334064
        },
        {
          "name": "D6",
          "midi": 86,
          "time": 146.1290419999999,
          "velocity": 0.5590551181102362,
          "duration": 0.181451624999994
        },
        {
          "name": "D5",
          "midi": 74,
          "time": 146.3709774999999,
          "velocity": 0.6377952755905512,
          "duration": 0.16129033333334064
        },
        {
          "name": "C6",
          "midi": 84,
          "time": 146.6129129999999,
          "velocity": 0.5433070866141733,
          "duration": 0.1915322708333349
        },
        {
          "name": "A5",
          "midi": 81,
          "time": 146.85484849999992,
          "velocity": 0.6062992125984252,
          "duration": 0.15120968749999975
        },
        {
          "name": "D6",
          "midi": 86,
          "time": 147.09678399999993,
          "velocity": 0.5590551181102362,
          "duration": 0.16129033333334064
        },
        {
          "name": "D5",
          "midi": 74,
          "time": 147.33871949999994,
          "velocity": 0.6299212598425197,
          "duration": 0.17641130208332356
        },
        {
          "name": "C6",
          "midi": 84,
          "time": 147.58065499999992,
          "velocity": 0.5354330708661418,
          "duration": 0.181451624999994
        },
        {
          "name": "A5",
          "midi": 81,
          "time": 147.8225904999999,
          "velocity": 0.6062992125984252,
          "duration": 0.16129033333334064
        },
        {
          "name": "D6",
          "midi": 86,
          "time": 148.06452599999992,
          "velocity": 0.5275590551181102,
          "duration": 0.17641130208332356
        },
        {
          "name": "D5",
          "midi": 74,
          "time": 148.3064614999999,
          "velocity": 0.5905511811023622,
          "duration": 0.21169356249998827
        },
        {
          "name": "C6",
          "midi": 84,
          "time": 148.54839699999988,
          "velocity": 0.5590551181102362,
          "duration": 0.181451624999994
        },
        {
          "name": "A5",
          "midi": 81,
          "time": 148.79033249999986,
          "velocity": 0.6299212598425197,
          "duration": 0.16129033333334064
        },
        {
          "name": "D6",
          "midi": 86,
          "time": 149.03226799999987,
          "velocity": 0.5511811023622047,
          "duration": 0.16129033333334064
        },
        {
          "name": "D5",
          "midi": 74,
          "time": 149.27420349999989,
          "velocity": 0.6377952755905512,
          "duration": 0.17137097916665311
        },
        {
          "name": "C6",
          "midi": 84,
          "time": 149.51613899999987,
          "velocity": 0.5118110236220472,
          "duration": 0.18649194791666446
        },
        {
          "name": "A5",
          "midi": 81,
          "time": 149.75807449999988,
          "velocity": 0.5905511811023622,
          "duration": 0.1461693645833293
        },
        {
          "name": "D6",
          "midi": 86,
          "time": 150.00000999999986,
          "velocity": 0.5433070866141733,
          "duration": 0.16129033333334064
        },
        {
          "name": "D5",
          "midi": 74,
          "time": 150.24194549999987,
          "velocity": 0.5984251968503937,
          "duration": 0.1562500104166702
        },
        {
          "name": "C6",
          "midi": 84,
          "time": 150.48388099999988,
          "velocity": 0.5118110236220472,
          "duration": 0.18649194791666446
        },
        {
          "name": "A5",
          "midi": 81,
          "time": 150.7258164999999,
          "velocity": 0.5826771653543307,
          "duration": 0.15120968749999975
        },
        {
          "name": "D6",
          "midi": 86,
          "time": 150.9677519999999,
          "velocity": 0.5275590551181102,
          "duration": 0.181451624999994
        },
        {
          "name": "D5",
          "midi": 74,
          "time": 151.2096874999999,
          "velocity": 0.8818897637795275,
          "duration": 0.12096775000000548
        },
        {
          "name": "C6",
          "midi": 84,
          "time": 151.4516229999999,
          "velocity": 0.7559055118110236,
          "duration": 0.1663306562500111
        },
        {
          "name": "A5",
          "midi": 81,
          "time": 151.6935584999999,
          "velocity": 0.7952755905511811,
          "duration": 0.16129033333334064
        },
        {
          "name": "D6",
          "midi": 86,
          "time": 151.93549399999992,
          "velocity": 0.7165354330708661,
          "duration": 0.19657259375000535
        },
        {
          "name": "D5",
          "midi": 74,
          "time": 152.17742949999993,
          "velocity": 0.8267716535433071,
          "duration": 0.181451624999994
        },
        {
          "name": "C6",
          "midi": 84,
          "time": 152.4193649999999,
          "velocity": 0.7244094488188977,
          "duration": 0.17137097916665311
        },
        {
          "name": "A5",
          "midi": 81,
          "time": 152.6613004999999,
          "velocity": 0.8188976377952756,
          "duration": 0.14112904166665885
        },
        {
          "name": "D6",
          "midi": 86,
          "time": 152.90323599999988,
          "velocity": 0.7165354330708661,
          "duration": 0.17641130208332356
        },
        {
          "name": "D5",
          "midi": 74,
          "time": 153.14517149999986,
          "velocity": 0.8740157480314961,
          "duration": 0.16129033333334064
        },
        {
          "name": "C6",
          "midi": 84,
          "time": 153.38710699999987,
          "velocity": 0.7322834645669292,
          "duration": 0.18649194791666446
        },
        {
          "name": "A5",
          "midi": 81,
          "time": 153.62904249999988,
          "velocity": 0.7874015748031497,
          "duration": 0.1461693645833293
        },
        {
          "name": "D6",
          "midi": 86,
          "time": 153.87097799999987,
          "velocity": 0.7165354330708661,
          "duration": 0.17137097916665311
        },
        {
          "name": "D5",
          "midi": 74,
          "time": 154.11291349999985,
          "velocity": 0.84251968503937,
          "duration": 0.17641130208332356
        },
        {
          "name": "C6",
          "midi": 84,
          "time": 154.35484899999983,
          "velocity": 0.7322834645669292,
          "duration": 0.2016129166666758
        },
        {
          "name": "A5",
          "midi": 81,
          "time": 154.59678449999984,
          "velocity": 0.7637795275590551,
          "duration": 0.1562500104166702
        },
        {
          "name": "D6",
          "midi": 86,
          "time": 154.83871999999985,
          "velocity": 0.7165354330708661,
          "duration": 0.17641130208332356
        },
        {
          "name": "D5",
          "midi": 74,
          "time": 155.08065549999984,
          "velocity": 0.7874015748031497,
          "duration": 0.18649194791666446
        },
        {
          "name": "C6",
          "midi": 84,
          "time": 155.32259099999985,
          "velocity": 0.7244094488188977,
          "duration": 0.2016129166666758
        },
        {
          "name": "A5",
          "midi": 81,
          "time": 155.56452649999986,
          "velocity": 0.7952755905511811,
          "duration": 0.1562500104166702
        },
        {
          "name": "D6",
          "midi": 86,
          "time": 155.80646199999987,
          "velocity": 0.7165354330708661,
          "duration": 0.18649194791666446
        },
        {
          "name": "D5",
          "midi": 74,
          "time": 156.04839749999988,
          "velocity": 0.8740157480314961,
          "duration": 0.181451624999994
        },
        {
          "name": "C6",
          "midi": 84,
          "time": 156.29033299999986,
          "velocity": 0.7401574803149606,
          "duration": 0.181451624999994
        },
        {
          "name": "A5",
          "midi": 81,
          "time": 156.53226849999984,
          "velocity": 0.8031496062992126,
          "duration": 0.16129033333334064
        },
        {
          "name": "D6",
          "midi": 86,
          "time": 156.77420399999986,
          "velocity": 0.7401574803149606,
          "duration": 0.16129033333334064
        },
        {
          "name": "D5",
          "midi": 74,
          "time": 157.01613949999987,
          "velocity": 0.8582677165354331,
          "duration": 0.18649194791666446
        },
        {
          "name": "C6",
          "midi": 84,
          "time": 157.25807499999988,
          "velocity": 0.7716535433070866,
          "duration": 0.1915322708333349
        },
        {
          "name": "A5",
          "midi": 81,
          "time": 157.5000104999999,
          "velocity": 0.84251968503937,
          "duration": 0.16129033333334064
        },
        {
          "name": "D6",
          "midi": 86,
          "time": 157.7419459999999,
          "velocity": 0.7244094488188977,
          "duration": 0.1663306562500111
        },
        {
          "name": "D5",
          "midi": 74,
          "time": 157.9838814999999,
          "velocity": 0.7874015748031497,
          "duration": 0.17641130208332356
        },
        {
          "name": "C6",
          "midi": 84,
          "time": 158.2258169999999,
          "velocity": 0.7637795275590551,
          "duration": 0.18649194791666446
        },
        {
          "name": "A5",
          "midi": 81,
          "time": 158.4677524999999,
          "velocity": 0.7874015748031497,
          "duration": 0.15120968749999975
        },
        {
          "name": "D6",
          "midi": 86,
          "time": 158.70968799999991,
          "velocity": 0.7086614173228346,
          "duration": 0.17641130208332356
        },
        {
          "name": "D5",
          "midi": 74,
          "time": 158.9516234999999,
          "velocity": 0.7874015748031497,
          "duration": 0.17641130208332356
        },
        {
          "name": "C6",
          "midi": 84,
          "time": 159.19355899999988,
          "velocity": 0.7165354330708661,
          "duration": 0.17137097916665311
        },
        {
          "name": "A5",
          "midi": 81,
          "time": 159.43549449999986,
          "velocity": 0.7952755905511811,
          "duration": 0.16129033333334064
        },
        {
          "name": "D6",
          "midi": 86,
          "time": 159.67742999999987,
          "velocity": 0.7086614173228346,
          "duration": 0.18649194791666446
        },
        {
          "name": "D5",
          "midi": 74,
          "time": 159.91936549999988,
          "velocity": 0.84251968503937,
          "duration": 0.1461693645833293
        },
        {
          "name": "C6",
          "midi": 84,
          "time": 160.16130099999987,
          "velocity": 0.7322834645669292,
          "duration": 0.1915322708333349
        },
        {
          "name": "A5",
          "midi": 81,
          "time": 160.40323649999988,
          "velocity": 0.7874015748031497,
          "duration": 0.1461693645833293
        },
        {
          "name": "D6",
          "midi": 86,
          "time": 160.64517199999986,
          "velocity": 0.7086614173228346,
          "duration": 0.17641130208332356
        },
        {
          "name": "D5",
          "midi": 74,
          "time": 160.88710749999984,
          "velocity": 0.8740157480314961,
          "duration": 0.181451624999994
        },
        {
          "name": "C6",
          "midi": 84,
          "time": 161.12904299999983,
          "velocity": 0.8031496062992126,
          "duration": 0.1915322708333349
        },
        {
          "name": "A5",
          "midi": 81,
          "time": 161.37097849999984,
          "velocity": 0.8188976377952756,
          "duration": 0.16129033333334064
        },
        {
          "name": "D6",
          "midi": 86,
          "time": 161.61291399999985,
          "velocity": 0.7165354330708661,
          "duration": 0.2016129166666758
        },
        {
          "name": "D5",
          "midi": 74,
          "time": 161.85484949999986,
          "velocity": 0.8188976377952756,
          "duration": 0.2016129166666758
        },
        {
          "name": "C6",
          "midi": 84,
          "time": 162.09678499999987,
          "velocity": 0.7401574803149606,
          "duration": 0.1915322708333349
        },
        {
          "name": "A5",
          "midi": 81,
          "time": 162.33872049999988,
          "velocity": 0.7874015748031497,
          "duration": 0.1663306562500111
        },
        {
          "name": "D6",
          "midi": 86,
          "time": 162.5806559999999,
          "velocity": 0.7322834645669292,
          "duration": 0.1562500104166702
        },
        {
          "name": "D5",
          "midi": 74,
          "time": 162.8225914999999,
          "velocity": 0.8818897637795275,
          "duration": 1.451613000000009
        },
        {
          "name": "D6",
          "midi": 86,
          "time": 162.8225914999999,
          "velocity": 0.9133858267716536,
          "duration": 1.451613000000009
        }
      ],
      "controlChanges": {},
      "id": 5,
      "name": "Flute",
      "instrumentNumber": 73,
      "instrument": "flute",
      "instrumentFamily": "pipe",
      "channelNumber": 3,
      "isPercussion": false
    },
    {
      "startTime": 0.967742,
      "duration": 151.13912297916664,
      "length": 368,
      "notes": [
        {
          "name": "F5",
          "midi": 77,
          "time": 0.967742,
          "velocity": 0.4645669291338583,
          "duration": 1.81451625
        },
        {
          "name": "A5",
          "midi": 81,
          "time": 0.967742,
          "velocity": 0.5669291338582677,
          "duration": 1.8044356041666667
        },
        {
          "name": "A5",
          "midi": 81,
          "time": 2.903226,
          "velocity": 0.5039370078740157,
          "duration": 0.8366936041666668
        },
        {
          "name": "E5",
          "midi": 76,
          "time": 2.903226,
          "velocity": 0.48031496062992124,
          "duration": 0.8266129583333335
        },
        {
          "name": "A5",
          "midi": 81,
          "time": 3.8709680000000004,
          "velocity": 0.48031496062992124,
          "duration": 0.8568548958333331
        },
        {
          "name": "D5",
          "midi": 74,
          "time": 3.8709680000000004,
          "velocity": 0.4409448818897638,
          "duration": 0.8366936041666664
        },
        {
          "name": "D5",
          "midi": 74,
          "time": 4.83871,
          "velocity": 0.4015748031496063,
          "duration": 0.8568548958333331
        },
        {
          "name": "A5",
          "midi": 81,
          "time": 4.83871,
          "velocity": 0.4094488188976378,
          "duration": 0.8568548958333331
        },
        {
          "name": "A5",
          "midi": 81,
          "time": 6.774194,
          "velocity": 0.4566929133858268,
          "duration": 1.7741936666666671
        },
        {
          "name": "F5",
          "midi": 77,
          "time": 6.774194,
          "velocity": 0.3779527559055118,
          "duration": 1.7237904375
        },
        {
          "name": "E5",
          "midi": 76,
          "time": 8.709678,
          "velocity": 0.4094488188976378,
          "duration": 0.927419416666666
        },
        {
          "name": "A5",
          "midi": 81,
          "time": 8.709678,
          "velocity": 0.41732283464566927,
          "duration": 0.9375000624999998
        },
        {
          "name": "D5",
          "midi": 74,
          "time": 9.67742,
          "velocity": 0.41732283464566927,
          "duration": 0.7560484375000005
        },
        {
          "name": "A5",
          "midi": 81,
          "time": 9.67742,
          "velocity": 0.49606299212598426,
          "duration": 0.665322625
        },
        {
          "name": "D5",
          "midi": 74,
          "time": 10.645162000000001,
          "velocity": 0.4015748031496063,
          "duration": 0.8770161875000007
        },
        {
          "name": "A5",
          "midi": 81,
          "time": 10.645162000000001,
          "velocity": 0.4015748031496063,
          "duration": 0.8770161875000007
        },
        {
          "name": "A5",
          "midi": 81,
          "time": 12.580646000000002,
          "velocity": 0.4409448818897638,
          "duration": 1.7540323749999995
        },
        {
          "name": "E6",
          "midi": 88,
          "time": 12.580646000000002,
          "velocity": 0.48031496062992124,
          "duration": 1.7641130208333333
        },
        {
          "name": "G5",
          "midi": 79,
          "time": 14.516130000000002,
          "velocity": 0.3779527559055118,
          "duration": 0.7963710208333321
        },
        {
          "name": "D6",
          "midi": 86,
          "time": 14.516130000000002,
          "velocity": 0.4015748031496063,
          "duration": 0.7661290833333325
        },
        {
          "name": "E6",
          "midi": 88,
          "time": 15.483872000000002,
          "velocity": 0.44881889763779526,
          "duration": 0.8870968333333309
        },
        {
          "name": "A5",
          "midi": 81,
          "time": 15.483872000000002,
          "velocity": 0.4015748031496063,
          "duration": 0.8266129583333317
        },
        {
          "name": "D6",
          "midi": 86,
          "time": 16.451614,
          "velocity": 0.41732283464566927,
          "duration": 0.9072581249999985
        },
        {
          "name": "G5",
          "midi": 79,
          "time": 16.451614,
          "velocity": 0.4015748031496063,
          "duration": 0.9072581249999985
        },
        {
          "name": "D6",
          "midi": 86,
          "time": 17.419355999999997,
          "velocity": 0.4645669291338583,
          "duration": 0.7358871458333347
        },
        {
          "name": "G5",
          "midi": 79,
          "time": 17.419355999999997,
          "velocity": 0.41732283464566927,
          "duration": 0.7258065000000009
        },
        {
          "name": "A5",
          "midi": 81,
          "time": 18.387097999999998,
          "velocity": 0.3779527559055118,
          "duration": 0.7661290833333325
        },
        {
          "name": "E6",
          "midi": 88,
          "time": 18.387097999999998,
          "velocity": 0.4881889763779528,
          "duration": 0.7661290833333325
        },
        {
          "name": "A5",
          "midi": 81,
          "time": 19.354839999999996,
          "velocity": 0.4409448818897638,
          "duration": 3.8709680000000013
        },
        {
          "name": "E6",
          "midi": 88,
          "time": 19.354839999999996,
          "velocity": 0.4881889763779528,
          "duration": 3.8709680000000013
        },
        {
          "name": "F4",
          "midi": 65,
          "time": 23.951614499999998,
          "velocity": 0.3700787401574803,
          "duration": 0.39818551041666694
        },
        {
          "name": "F4",
          "midi": 65,
          "time": 24.4354855,
          "velocity": 0.3858267716535433,
          "duration": 0.38306454166666626
        },
        {
          "name": "E4",
          "midi": 64,
          "time": 24.9193565,
          "velocity": 0.33070866141732286,
          "duration": 0.3679435729166656
        },
        {
          "name": "E4",
          "midi": 64,
          "time": 25.4032275,
          "velocity": 0.36220472440944884,
          "duration": 0.6703629479166651
        },
        {
          "name": "F4",
          "midi": 65,
          "time": 26.854840499999998,
          "velocity": 0.3779527559055118,
          "duration": 0.38810486458333315
        },
        {
          "name": "F4",
          "midi": 65,
          "time": 27.3387115,
          "velocity": 0.4251968503937008,
          "duration": 0.4838710000000006
        },
        {
          "name": "E4",
          "midi": 64,
          "time": 27.8225825,
          "velocity": 0.3700787401574803,
          "duration": 0.32258066666666707
        },
        {
          "name": "E4",
          "midi": 64,
          "time": 28.3064535,
          "velocity": 0.4251968503937008,
          "duration": 0.7711694062499994
        },
        {
          "name": "F4",
          "midi": 65,
          "time": 29.758066499999998,
          "velocity": 0.4015748031496063,
          "duration": 0.3629032499999987
        },
        {
          "name": "F4",
          "midi": 65,
          "time": 30.241937499999995,
          "velocity": 0.4094488188976378,
          "duration": 0.43850809374999855
        },
        {
          "name": "E4",
          "midi": 64,
          "time": 30.725808499999992,
          "velocity": 0.4015748031496063,
          "duration": 0.37298389583333247
        },
        {
          "name": "F4",
          "midi": 65,
          "time": 31.209679499999993,
          "velocity": 0.41732283464566927,
          "duration": 0.8770161874999971
        },
        {
          "name": "G4",
          "midi": 67,
          "time": 32.17742149999999,
          "velocity": 0.4330708661417323,
          "duration": 0.9173387708333323
        },
        {
          "name": "F4",
          "midi": 65,
          "time": 33.14516349999999,
          "velocity": 0.4015748031496063,
          "duration": 0.463709708333333
        },
        {
          "name": "E4",
          "midi": 64,
          "time": 33.62903449999999,
          "velocity": 0.4015748031496063,
          "duration": 1.4112904166666667
        },
        {
          "name": "F4",
          "midi": 65,
          "time": 35.56451849999999,
          "velocity": 0.3779527559055118,
          "duration": 0.3679435729166656
        },
        {
          "name": "F4",
          "midi": 65,
          "time": 36.04838949999999,
          "velocity": 0.3779527559055118,
          "duration": 0.44354841666666545
        },
        {
          "name": "E4",
          "midi": 64,
          "time": 36.53226049999999,
          "velocity": 0.25984251968503935,
          "duration": 0.2822580833333319
        },
        {
          "name": "E4",
          "midi": 64,
          "time": 37.01613149999999,
          "velocity": 0.41732283464566927,
          "duration": 0.6804435937499989
        },
        {
          "name": "F4",
          "midi": 65,
          "time": 38.467744499999995,
          "velocity": 0.33858267716535434,
          "duration": 0.35282260416666844
        },
        {
          "name": "F4",
          "midi": 65,
          "time": 38.951615499999996,
          "velocity": 0.4094488188976378,
          "duration": 0.514112937500002
        },
        {
          "name": "E4",
          "midi": 64,
          "time": 39.435486499999996,
          "velocity": 0.3543307086614173,
          "duration": 0.3377016354166713
        },
        {
          "name": "E4",
          "midi": 64,
          "time": 39.919357500000004,
          "velocity": 0.3779527559055118,
          "duration": 0.8215726354166648
        },
        {
          "name": "F4",
          "midi": 65,
          "time": 41.3709705,
          "velocity": 0.3937007874015748,
          "duration": 0.30745969791666994
        },
        {
          "name": "F4",
          "midi": 65,
          "time": 41.8548415,
          "velocity": 0.4015748031496063,
          "duration": 0.4133064791666641
        },
        {
          "name": "E4",
          "midi": 64,
          "time": 42.3387125,
          "velocity": 0.4015748031496063,
          "duration": 0.2923387291666657
        },
        {
          "name": "F4",
          "midi": 65,
          "time": 42.8225835,
          "velocity": 0.4251968503937008,
          "duration": 0.8870968333333309
        },
        {
          "name": "G4",
          "midi": 67,
          "time": 43.790325499999994,
          "velocity": 0.4251968503937008,
          "duration": 0.927419416666666
        },
        {
          "name": "F4",
          "midi": 65,
          "time": 44.758067499999996,
          "velocity": 0.47244094488188976,
          "duration": 0.45362906249999924
        },
        {
          "name": "E4",
          "midi": 64,
          "time": 45.241938499999996,
          "velocity": 0.36220472440944884,
          "duration": 1.2903226666666683
        },
        {
          "name": "A4",
          "midi": 69,
          "time": 47.1774225,
          "velocity": 0.3779527559055118,
          "duration": 0.38810486458333315
        },
        {
          "name": "F4",
          "midi": 65,
          "time": 47.1774225,
          "velocity": 0.33070866141732286,
          "duration": 0.36290325000000223
        },
        {
          "name": "A4",
          "midi": 69,
          "time": 47.6612935,
          "velocity": 0.3937007874015748,
          "duration": 0.3679435729166656
        },
        {
          "name": "F4",
          "midi": 65,
          "time": 47.6612935,
          "velocity": 0.36220472440944884,
          "duration": 0.3024193749999995
        },
        {
          "name": "E4",
          "midi": 64,
          "time": 48.1451645,
          "velocity": 0.3779527559055118,
          "duration": 0.38810486458333315
        },
        {
          "name": "G4",
          "midi": 67,
          "time": 48.1451645,
          "velocity": 0.3779527559055118,
          "duration": 0.34274195833333465
        },
        {
          "name": "E4",
          "midi": 64,
          "time": 48.6290355,
          "velocity": 0.3779527559055118,
          "duration": 0.579637135416661
        },
        {
          "name": "G4",
          "midi": 67,
          "time": 48.6290355,
          "velocity": 0.4251968503937008,
          "duration": 0.5645161666666638
        },
        {
          "name": "F4",
          "midi": 65,
          "time": 50.080648499999995,
          "velocity": 0.3464566929133858,
          "duration": 0.3377016354166642
        },
        {
          "name": "A4",
          "midi": 69,
          "time": 50.080648499999995,
          "velocity": 0.3779527559055118,
          "duration": 0.32258066666666707
        },
        {
          "name": "F4",
          "midi": 65,
          "time": 50.564519499999996,
          "velocity": 0.3937007874015748,
          "duration": 0.3629032499999951
        },
        {
          "name": "A4",
          "midi": 69,
          "time": 50.564519499999996,
          "velocity": 0.3937007874015748,
          "duration": 0.347782281249998
        },
        {
          "name": "E4",
          "midi": 64,
          "time": 51.04839049999999,
          "velocity": 0.3779527559055118,
          "duration": 0.34274195833332755
        },
        {
          "name": "G4",
          "midi": 67,
          "time": 51.04839049999999,
          "velocity": 0.3858267716535433,
          "duration": 0.3377016354166642
        },
        {
          "name": "G4",
          "midi": 67,
          "time": 51.53226149999998,
          "velocity": 0.4015748031496063,
          "duration": 0.5796371354166681
        },
        {
          "name": "E4",
          "midi": 64,
          "time": 51.53226149999998,
          "velocity": 0.3464566929133858,
          "duration": 0.5846774583333314
        },
        {
          "name": "F4",
          "midi": 65,
          "time": 52.98387449999998,
          "velocity": 0.3543307086614173,
          "duration": 0.33266131250000086
        },
        {
          "name": "A4",
          "midi": 69,
          "time": 52.98387449999998,
          "velocity": 0.3464566929133858,
          "duration": 0.29737905208333615
        },
        {
          "name": "F4",
          "midi": 65,
          "time": 53.46774549999998,
          "velocity": 0.4015748031496063,
          "duration": 0.37802421874999936
        },
        {
          "name": "A4",
          "midi": 69,
          "time": 53.46774549999998,
          "velocity": 0.3937007874015748,
          "duration": 0.3679435729166656
        },
        {
          "name": "G4",
          "midi": 67,
          "time": 53.95161649999998,
          "velocity": 0.4015748031496063,
          "duration": 0.33266131250000086
        },
        {
          "name": "E4",
          "midi": 64,
          "time": 53.95161649999998,
          "velocity": 0.3700787401574803,
          "duration": 0.3024193749999995
        },
        {
          "name": "F4",
          "midi": 65,
          "time": 54.43548749999998,
          "velocity": 0.4015748031496063,
          "duration": 0.8568548958333366
        },
        {
          "name": "D4",
          "midi": 62,
          "time": 54.43548749999998,
          "velocity": 0.25984251968503935,
          "duration": 0.8266129583333353
        },
        {
          "name": "E4",
          "midi": 64,
          "time": 55.40322949999998,
          "velocity": 0.3937007874015748,
          "duration": 0.36290325000000223
        },
        {
          "name": "G4",
          "midi": 67,
          "time": 55.40322949999998,
          "velocity": 0.3700787401574803,
          "duration": 0.3830645416666698
        },
        {
          "name": "E4",
          "midi": 64,
          "time": 55.88710049999998,
          "velocity": 0.4015748031496063,
          "duration": 0.9072581249999985
        },
        {
          "name": "D4",
          "midi": 62,
          "time": 56.85484249999998,
          "velocity": 0.4015748031496063,
          "duration": 1.4062500937500033
        },
        {
          "name": "F4",
          "midi": 65,
          "time": 58.790326499999985,
          "velocity": 0.29133858267716534,
          "duration": 0.33266131250000086
        },
        {
          "name": "F4",
          "midi": 65,
          "time": 59.274197499999985,
          "velocity": 0.3700787401574803,
          "duration": 0.38810486458333315
        },
        {
          "name": "E4",
          "midi": 64,
          "time": 59.758068499999986,
          "velocity": 0.30708661417322836,
          "duration": 0.30745969791666994
        },
        {
          "name": "E4",
          "midi": 64,
          "time": 60.24193949999999,
          "velocity": 0.3937007874015748,
          "duration": 0.6149193958333328
        },
        {
          "name": "F4",
          "midi": 65,
          "time": 61.69355249999999,
          "velocity": 0.3543307086614173,
          "duration": 0.3024193749999995
        },
        {
          "name": "F4",
          "midi": 65,
          "time": 62.17742349999999,
          "velocity": 0.4015748031496063,
          "duration": 0.4183468020833345
        },
        {
          "name": "E4",
          "midi": 64,
          "time": 62.66129449999999,
          "velocity": 0.33858267716535434,
          "duration": 0.3377016354166642
        },
        {
          "name": "E4",
          "midi": 64,
          "time": 63.14516549999999,
          "velocity": 0.3700787401574803,
          "duration": 0.6401210104166637
        },
        {
          "name": "F4",
          "midi": 65,
          "time": 64.59677849999999,
          "velocity": 0.3700787401574803,
          "duration": 0.3931451874999965
        },
        {
          "name": "F4",
          "midi": 65,
          "time": 65.08064949999998,
          "velocity": 0.4015748031496063,
          "duration": 0.3679435729166727
        },
        {
          "name": "E4",
          "midi": 64,
          "time": 65.56452049999999,
          "velocity": 0.3700787401574803,
          "duration": 0.36290325000000223
        },
        {
          "name": "F4",
          "midi": 65,
          "time": 66.0483915,
          "velocity": 0.4015748031496063,
          "duration": 0.9122984479166689
        },
        {
          "name": "G4",
          "midi": 67,
          "time": 67.0161335,
          "velocity": 0.4251968503937008,
          "duration": 0.9173387708333394
        },
        {
          "name": "F4",
          "midi": 65,
          "time": 67.9838755,
          "velocity": 0.3937007874015748,
          "duration": 0.43346777083333166
        },
        {
          "name": "E4",
          "midi": 64,
          "time": 68.46774649999999,
          "velocity": 0.3700787401574803,
          "duration": 1.4112904166666596
        },
        {
          "name": "F4",
          "midi": 65,
          "time": 70.40323049999998,
          "velocity": 0.4015748031496063,
          "duration": 0.3276209895833375
        },
        {
          "name": "F4",
          "midi": 65,
          "time": 70.88710149999999,
          "velocity": 0.3937007874015748,
          "duration": 0.4284274479166612
        },
        {
          "name": "E4",
          "midi": 64,
          "time": 71.37097249999998,
          "velocity": 0.3858267716535433,
          "duration": 0.3125000208333404
        },
        {
          "name": "E4",
          "midi": 64,
          "time": 71.85484349999999,
          "velocity": 0.3700787401574803,
          "duration": 0.5846774583333314
        },
        {
          "name": "F4",
          "midi": 65,
          "time": 73.30645649999998,
          "velocity": 0.3700787401574803,
          "duration": 0.3578629270833318
        },
        {
          "name": "F4",
          "midi": 65,
          "time": 73.79032749999998,
          "velocity": 0.3937007874015748,
          "duration": 0.44354841666667255
        },
        {
          "name": "E4",
          "midi": 64,
          "time": 74.27419849999998,
          "velocity": 0.3858267716535433,
          "duration": 0.2721774375000052
        },
        {
          "name": "E4",
          "midi": 64,
          "time": 74.75806949999999,
          "velocity": 0.3937007874015748,
          "duration": 0.6905242395833397
        },
        {
          "name": "F4",
          "midi": 65,
          "time": 76.2096825,
          "velocity": 0.3779527559055118,
          "duration": 0.32258066666666707
        },
        {
          "name": "F4",
          "midi": 65,
          "time": 76.6935535,
          "velocity": 0.4015748031496063,
          "duration": 0.4032258333333374
        },
        {
          "name": "E4",
          "midi": 64,
          "time": 77.1774245,
          "velocity": 0.3779527559055118,
          "duration": 0.34274195833333465
        },
        {
          "name": "F4",
          "midi": 65,
          "time": 77.66129550000001,
          "velocity": 0.4094488188976378,
          "duration": 0.9072581249999985
        },
        {
          "name": "G4",
          "midi": 67,
          "time": 78.62903750000001,
          "velocity": 0.41732283464566927,
          "duration": 0.8921371562500013
        },
        {
          "name": "F4",
          "midi": 65,
          "time": 79.59677950000001,
          "velocity": 0.41732283464566927,
          "duration": 0.42338712500000497
        },
        {
          "name": "E4",
          "midi": 64,
          "time": 80.08065050000002,
          "velocity": 0.4251968503937008,
          "duration": 1.2903226666666683
        },
        {
          "name": "A4",
          "midi": 69,
          "time": 82.01613450000002,
          "velocity": 0.3779527559055118,
          "duration": 0.39818551041666694
        },
        {
          "name": "F4",
          "midi": 65,
          "time": 82.01613450000002,
          "velocity": 0.33858267716535434,
          "duration": 0.36290325000000223
        },
        {
          "name": "A4",
          "midi": 69,
          "time": 82.50000550000001,
          "velocity": 0.3779527559055118,
          "duration": 0.4032258333333374
        },
        {
          "name": "F4",
          "midi": 65,
          "time": 82.50000550000001,
          "velocity": 0.36220472440944884,
          "duration": 0.3578629270833318
        },
        {
          "name": "E4",
          "midi": 64,
          "time": 82.98387650000002,
          "velocity": 0.3543307086614173,
          "duration": 0.29737905208334325
        },
        {
          "name": "G4",
          "midi": 67,
          "time": 82.98387650000002,
          "velocity": 0.3543307086614173,
          "duration": 0.2721774375000052
        },
        {
          "name": "E4",
          "midi": 64,
          "time": 83.46774750000003,
          "velocity": 0.3937007874015748,
          "duration": 0.7963710208333339
        },
        {
          "name": "G4",
          "midi": 67,
          "time": 83.46774750000003,
          "velocity": 0.3937007874015748,
          "duration": 0.7610887604166692
        },
        {
          "name": "F4",
          "midi": 65,
          "time": 84.91936050000002,
          "velocity": 0.3543307086614173,
          "duration": 0.34274195833333465
        },
        {
          "name": "A4",
          "midi": 69,
          "time": 84.91936050000002,
          "velocity": 0.3858267716535433,
          "duration": 0.38810486458334026
        },
        {
          "name": "A4",
          "midi": 69,
          "time": 85.40323150000003,
          "velocity": 0.3858267716535433,
          "duration": 0.38810486458332605
        },
        {
          "name": "F4",
          "midi": 65,
          "time": 85.40323150000003,
          "velocity": 0.3779527559055118,
          "duration": 0.37802421874999936
        },
        {
          "name": "E4",
          "midi": 64,
          "time": 85.88710250000003,
          "velocity": 0.3543307086614173,
          "duration": 0.3276209895833375
        },
        {
          "name": "G4",
          "midi": 67,
          "time": 85.88710250000003,
          "velocity": 0.3543307086614173,
          "duration": 0.32258066666666707
        },
        {
          "name": "E4",
          "midi": 64,
          "time": 86.37097350000003,
          "velocity": 0.4015748031496063,
          "duration": 0.8366936041666548
        },
        {
          "name": "G4",
          "midi": 67,
          "time": 86.37097350000003,
          "velocity": 0.4015748031496063,
          "duration": 0.8064516666666606
        },
        {
          "name": "F4",
          "midi": 65,
          "time": 87.82258650000003,
          "velocity": 0.3937007874015748,
          "duration": 0.36290325000000223
        },
        {
          "name": "A4",
          "midi": 69,
          "time": 87.82258650000003,
          "velocity": 0.3779527559055118,
          "duration": 0.2822580833333319
        },
        {
          "name": "F4",
          "midi": 65,
          "time": 88.30645750000004,
          "velocity": 0.3937007874015748,
          "duration": 0.43346777083333166
        },
        {
          "name": "A4",
          "midi": 69,
          "time": 88.30645750000004,
          "velocity": 0.3543307086614173,
          "duration": 0.42338712500000497
        },
        {
          "name": "G4",
          "midi": 67,
          "time": 88.79032850000003,
          "velocity": 0.3700787401574803,
          "duration": 0.3477822812500051
        },
        {
          "name": "E4",
          "midi": 64,
          "time": 88.79032850000003,
          "velocity": 0.3543307086614173,
          "duration": 0.2923387291666728
        },
        {
          "name": "F4",
          "midi": 65,
          "time": 89.27419950000004,
          "velocity": 0.4015748031496063,
          "duration": 0.8467742499999957
        },
        {
          "name": "D4",
          "midi": 62,
          "time": 89.27419950000004,
          "velocity": 0.3779527559055118,
          "duration": 0.8064516666666606
        },
        {
          "name": "G4",
          "midi": 67,
          "time": 90.24194150000004,
          "velocity": 0.2992125984251969,
          "duration": 0.8518145729166662
        },
        {
          "name": "E4",
          "midi": 64,
          "time": 90.24194150000004,
          "velocity": 0.4330708661417323,
          "duration": 0.8518145729166662
        },
        {
          "name": "F4",
          "midi": 65,
          "time": 91.20968350000004,
          "velocity": 0.3858267716535433,
          "duration": 0.362903249999988
        },
        {
          "name": "D4",
          "midi": 62,
          "time": 91.20968350000004,
          "velocity": 0.3543307086614173,
          "duration": 0.35282260416666134
        },
        {
          "name": "E4",
          "midi": 64,
          "time": 91.69355450000003,
          "velocity": 0.4015748031496063,
          "duration": 1.426411385416671
        },
        {
          "name": "G4",
          "midi": 67,
          "time": 91.69355450000003,
          "velocity": 0.36220472440944884,
          "duration": 1.4213710625000004
        },
        {
          "name": "A4",
          "midi": 69,
          "time": 93.62903850000004,
          "velocity": 0.3937007874015748,
          "duration": 0.3578629270833318
        },
        {
          "name": "F4",
          "midi": 65,
          "time": 93.62903850000004,
          "velocity": 0.3779527559055118,
          "duration": 0.3377016354166642
        },
        {
          "name": "A4",
          "midi": 69,
          "time": 94.11290950000003,
          "velocity": 0.4330708661417323,
          "duration": 0.3578629270833318
        },
        {
          "name": "F4",
          "midi": 65,
          "time": 94.11290950000003,
          "velocity": 0.3858267716535433,
          "duration": 0.32258066666666707
        },
        {
          "name": "E4",
          "midi": 64,
          "time": 94.59678050000002,
          "velocity": 0.3779527559055118,
          "duration": 0.3679435729166727
        },
        {
          "name": "G4",
          "midi": 67,
          "time": 94.59678050000002,
          "velocity": 0.3779527559055118,
          "duration": 0.3679435729166727
        },
        {
          "name": "E4",
          "midi": 64,
          "time": 95.08065150000003,
          "velocity": 0.4251968503937008,
          "duration": 0.7913306979166634
        },
        {
          "name": "G4",
          "midi": 67,
          "time": 95.08065150000003,
          "velocity": 0.41732283464566927,
          "duration": 0.836693604166669
        },
        {
          "name": "F4",
          "midi": 65,
          "time": 96.53226450000004,
          "velocity": 0.3464566929133858,
          "duration": 0.4133064791666641
        },
        {
          "name": "A4",
          "midi": 69,
          "time": 96.53226450000004,
          "velocity": 0.4015748031496063,
          "duration": 0.40826615624999363
        },
        {
          "name": "F4",
          "midi": 65,
          "time": 97.01613550000003,
          "velocity": 0.33858267716535434,
          "duration": 0.35282260416666134
        },
        {
          "name": "A4",
          "midi": 69,
          "time": 97.01613550000003,
          "velocity": 0.4251968503937008,
          "duration": 0.34274195833333465
        },
        {
          "name": "E4",
          "midi": 64,
          "time": 97.50000650000003,
          "velocity": 0.3700787401574803,
          "duration": 0.32258066666666707
        },
        {
          "name": "G4",
          "midi": 67,
          "time": 97.50000650000003,
          "velocity": 0.30708661417322836,
          "duration": 0.36290325000000223
        },
        {
          "name": "E4",
          "midi": 64,
          "time": 97.98387750000003,
          "velocity": 0.3700787401574803,
          "duration": 0.7358871458333311
        },
        {
          "name": "G4",
          "midi": 67,
          "time": 97.98387750000003,
          "velocity": 0.41732283464566927,
          "duration": 0.7409274687500016
        },
        {
          "name": "A4",
          "midi": 69,
          "time": 99.43549050000003,
          "velocity": 0.4566929133858268,
          "duration": 0.29737905208332904
        },
        {
          "name": "F4",
          "midi": 65,
          "time": 99.43549050000003,
          "velocity": 0.3700787401574803,
          "duration": 0.3830645416666556
        },
        {
          "name": "F4",
          "midi": 65,
          "time": 99.91936150000002,
          "velocity": 0.4015748031496063,
          "duration": 0.3830645416666698
        },
        {
          "name": "A4",
          "midi": 69,
          "time": 99.91936150000002,
          "velocity": 0.3937007874015748,
          "duration": 0.3679435729166727
        },
        {
          "name": "G4",
          "midi": 67,
          "time": 100.40323250000003,
          "velocity": 0.3779527559055118,
          "duration": 0.32258066666666707
        },
        {
          "name": "E4",
          "midi": 64,
          "time": 100.40323250000003,
          "velocity": 0.3779527559055118,
          "duration": 0.29737905208332904
        },
        {
          "name": "F4",
          "midi": 65,
          "time": 100.88710350000002,
          "velocity": 0.4094488188976378,
          "duration": 0.8669355416666633
        },
        {
          "name": "D4",
          "midi": 62,
          "time": 100.88710350000002,
          "velocity": 0.4251968503937008,
          "duration": 0.8820565104166604
        },
        {
          "name": "E4",
          "midi": 64,
          "time": 101.85484550000001,
          "velocity": 0.3779527559055118,
          "duration": 0.3931451874999965
        },
        {
          "name": "G4",
          "midi": 67,
          "time": 101.85484550000001,
          "velocity": 0.3779527559055118,
          "duration": 0.44354841666665834
        },
        {
          "name": "E4",
          "midi": 64,
          "time": 102.3387165,
          "velocity": 0.4094488188976378,
          "duration": 0.9072581249999985
        },
        {
          "name": "D4",
          "midi": 62,
          "time": 103.3064585,
          "velocity": 0.41732283464566927,
          "duration": 1.3961694479166624
        },
        {
          "name": "D5",
          "midi": 74,
          "time": 104.7580715,
          "velocity": 0.5905511811023622,
          "duration": 0.181451624999994
        },
        {
          "name": "C6",
          "midi": 84,
          "time": 105.000007,
          "velocity": 0.49606299212598426,
          "duration": 0.19657259375000535
        },
        {
          "name": "A5",
          "midi": 81,
          "time": 105.24194250000001,
          "velocity": 0.5196850393700787,
          "duration": 0.22177420833332917
        },
        {
          "name": "D6",
          "midi": 86,
          "time": 105.483878,
          "velocity": 0.5511811023622047,
          "duration": 0.181451624999994
        },
        {
          "name": "D5",
          "midi": 74,
          "time": 105.7258135,
          "velocity": 0.6141732283464567,
          "duration": 0.16633065624999688
        },
        {
          "name": "C6",
          "midi": 84,
          "time": 105.967749,
          "velocity": 0.5196850393700787,
          "duration": 0.19657259375000535
        },
        {
          "name": "A5",
          "midi": 81,
          "time": 106.20968450000001,
          "velocity": 0.4330708661417323,
          "duration": 0.15120968749999975
        },
        {
          "name": "D6",
          "midi": 86,
          "time": 106.45162,
          "velocity": 0.4251968503937008,
          "duration": 0.181451624999994
        },
        {
          "name": "D5",
          "midi": 74,
          "time": 106.6935555,
          "velocity": 0.47244094488188976,
          "duration": 0.17641130208333777
        },
        {
          "name": "C6",
          "midi": 84,
          "time": 106.93549100000001,
          "velocity": 0.4094488188976378,
          "duration": 0.19657259375000535
        },
        {
          "name": "A5",
          "midi": 81,
          "time": 107.17742650000002,
          "velocity": 0.41732283464566927,
          "duration": 0.1562500104166702
        },
        {
          "name": "D6",
          "midi": 86,
          "time": 107.41936200000002,
          "velocity": 0.4251968503937008,
          "duration": 0.1461693645833293
        },
        {
          "name": "D5",
          "midi": 74,
          "time": 107.66129750000002,
          "velocity": 0.47244094488188976,
          "duration": 0.1562500104166702
        },
        {
          "name": "C6",
          "midi": 84,
          "time": 107.90323300000001,
          "velocity": 0.4251968503937008,
          "duration": 0.181451624999994
        },
        {
          "name": "A5",
          "midi": 81,
          "time": 108.14516850000001,
          "velocity": 0.4409448818897638,
          "duration": 0.14112904166667306
        },
        {
          "name": "D6",
          "midi": 86,
          "time": 108.38710400000002,
          "velocity": 0.44881889763779526,
          "duration": 0.17137097916666733
        },
        {
          "name": "D5",
          "midi": 74,
          "time": 108.62903950000002,
          "velocity": 0.4251968503937008,
          "duration": 0.14112904166667306
        },
        {
          "name": "C6",
          "midi": 84,
          "time": 108.87097500000003,
          "velocity": 0.41732283464566927,
          "duration": 0.181451624999994
        },
        {
          "name": "A5",
          "midi": 81,
          "time": 109.11291050000003,
          "velocity": 0.41732283464566927,
          "duration": 0.13104839583333217
        },
        {
          "name": "D6",
          "midi": 86,
          "time": 109.35484600000002,
          "velocity": 0.4251968503937008,
          "duration": 0.17137097916666733
        },
        {
          "name": "D5",
          "midi": 74,
          "time": 109.59678150000002,
          "velocity": 0.4566929133858268,
          "duration": 0.1562500104166702
        },
        {
          "name": "C6",
          "midi": 84,
          "time": 109.83871700000002,
          "velocity": 0.4015748031496063,
          "duration": 0.18649194791666446
        },
        {
          "name": "A5",
          "midi": 81,
          "time": 110.08065250000001,
          "velocity": 0.3700787401574803,
          "duration": 0.1360887187500026
        },
        {
          "name": "D6",
          "midi": 86,
          "time": 110.32258800000001,
          "velocity": 0.3779527559055118,
          "duration": 0.1562500104166702
        },
        {
          "name": "D5",
          "midi": 74,
          "time": 110.5645235,
          "velocity": 0.44881889763779526,
          "duration": 0.16129033333332643
        },
        {
          "name": "C6",
          "midi": 84,
          "time": 110.806459,
          "velocity": 0.3858267716535433,
          "duration": 0.18649194791666446
        },
        {
          "name": "A5",
          "midi": 81,
          "time": 111.0483945,
          "velocity": 0.4251968503937008,
          "duration": 0.12096775000000548
        },
        {
          "name": "D6",
          "midi": 86,
          "time": 111.29033000000001,
          "velocity": 0.3858267716535433,
          "duration": 0.1461693645833293
        },
        {
          "name": "D5",
          "midi": 74,
          "time": 111.53226550000001,
          "velocity": 0.4015748031496063,
          "duration": 0.16129033333332643
        },
        {
          "name": "C6",
          "midi": 84,
          "time": 111.774201,
          "velocity": 0.41732283464566927,
          "duration": 0.17641130208333777
        },
        {
          "name": "A5",
          "midi": 81,
          "time": 112.01613650000002,
          "velocity": 0.4094488188976378,
          "duration": 0.14112904166667306
        },
        {
          "name": "D6",
          "midi": 86,
          "time": 112.25807200000003,
          "velocity": 0.41732283464566927,
          "duration": 0.14112904166667306
        },
        {
          "name": "D5",
          "midi": 74,
          "time": 112.50000750000004,
          "velocity": 0.4251968503937008,
          "duration": 0.16129033333332643
        },
        {
          "name": "C6",
          "midi": 84,
          "time": 112.74194300000003,
          "velocity": 0.41732283464566927,
          "duration": 0.16633065624999688
        },
        {
          "name": "A5",
          "midi": 81,
          "time": 112.98387850000003,
          "velocity": 0.4094488188976378,
          "duration": 0.12096775000000548
        },
        {
          "name": "D6",
          "midi": 86,
          "time": 113.22581400000004,
          "velocity": 0.4015748031496063,
          "duration": 0.13104839583333217
        },
        {
          "name": "D5",
          "midi": 74,
          "time": 113.46774950000004,
          "velocity": 0.4251968503937008,
          "duration": 0.16633065624999688
        },
        {
          "name": "C6",
          "midi": 84,
          "time": 113.70968500000004,
          "velocity": 0.3858267716535433,
          "duration": 0.17641130208333777
        },
        {
          "name": "A5",
          "midi": 81,
          "time": 113.95162050000005,
          "velocity": 0.3779527559055118,
          "duration": 0.14112904166667306
        },
        {
          "name": "D6",
          "midi": 86,
          "time": 114.19355600000006,
          "velocity": 0.3937007874015748,
          "duration": 0.1461693645833293
        },
        {
          "name": "D5",
          "midi": 74,
          "time": 114.43549150000005,
          "velocity": 0.44881889763779526,
          "duration": 0.17137097916666733
        },
        {
          "name": "C6",
          "midi": 84,
          "time": 114.67742700000005,
          "velocity": 0.36220472440944884,
          "duration": 0.15120968749999975
        },
        {
          "name": "A5",
          "midi": 81,
          "time": 114.91936250000005,
          "velocity": 0.4251968503937008,
          "duration": 0.1360887187500026
        },
        {
          "name": "D6",
          "midi": 86,
          "time": 115.16129800000004,
          "velocity": 0.3779527559055118,
          "duration": 0.16633065624999688
        },
        {
          "name": "D5",
          "midi": 74,
          "time": 115.40323350000004,
          "velocity": 0.4330708661417323,
          "duration": 0.1461693645833293
        },
        {
          "name": "C6",
          "midi": 84,
          "time": 115.64516900000004,
          "velocity": 0.36220472440944884,
          "duration": 0.14112904166667306
        },
        {
          "name": "A5",
          "midi": 81,
          "time": 115.88710450000005,
          "velocity": 0.4015748031496063,
          "duration": 0.1360887187500026
        },
        {
          "name": "D6",
          "midi": 86,
          "time": 116.12904000000005,
          "velocity": 0.3858267716535433,
          "duration": 0.1360887187500026
        },
        {
          "name": "D5",
          "midi": 74,
          "time": 116.37097550000004,
          "velocity": 0.4330708661417323,
          "duration": 0.16633065624999688
        },
        {
          "name": "C6",
          "midi": 84,
          "time": 116.61291100000004,
          "velocity": 0.3543307086614173,
          "duration": 0.181451624999994
        },
        {
          "name": "A5",
          "midi": 81,
          "time": 116.85484650000004,
          "velocity": 0.4015748031496063,
          "duration": 0.1360887187500026
        },
        {
          "name": "D6",
          "midi": 86,
          "time": 117.09678200000003,
          "velocity": 0.4015748031496063,
          "duration": 0.15120968749999975
        },
        {
          "name": "D5",
          "midi": 74,
          "time": 117.33871750000003,
          "velocity": 0.47244094488188976,
          "duration": 0.16129033333332643
        },
        {
          "name": "C6",
          "midi": 84,
          "time": 117.58065300000003,
          "velocity": 0.3779527559055118,
          "duration": 0.16129033333332643
        },
        {
          "name": "A5",
          "midi": 81,
          "time": 117.82258850000002,
          "velocity": 0.4251968503937008,
          "duration": 0.1360887187500026
        },
        {
          "name": "D6",
          "midi": 86,
          "time": 118.06452400000002,
          "velocity": 0.3858267716535433,
          "duration": 0.1360887187500026
        },
        {
          "name": "D5",
          "midi": 74,
          "time": 118.30645950000002,
          "velocity": 0.44881889763779526,
          "duration": 0.14112904166667306
        },
        {
          "name": "C6",
          "midi": 84,
          "time": 118.54839500000003,
          "velocity": 0.3700787401574803,
          "duration": 0.16129033333332643
        },
        {
          "name": "A5",
          "midi": 81,
          "time": 118.79033050000002,
          "velocity": 0.41732283464566927,
          "duration": 0.12600807291666172
        },
        {
          "name": "D6",
          "midi": 86,
          "time": 119.03226600000002,
          "velocity": 0.3937007874015748,
          "duration": 0.1360887187500026
        },
        {
          "name": "D5",
          "midi": 74,
          "time": 119.27420150000002,
          "velocity": 0.4330708661417323,
          "duration": 0.15120968749999975
        },
        {
          "name": "C6",
          "midi": 84,
          "time": 119.51613700000001,
          "velocity": 0.36220472440944884,
          "duration": 0.14112904166667306
        },
        {
          "name": "A5",
          "midi": 81,
          "time": 119.75807250000003,
          "velocity": 0.4094488188976378,
          "duration": 0.12096775000000548
        },
        {
          "name": "D6",
          "midi": 86,
          "time": 120.00000800000004,
          "velocity": 0.3858267716535433,
          "duration": 0.14112904166667306
        },
        {
          "name": "D5",
          "midi": 74,
          "time": 120.24194350000005,
          "velocity": 0.47244094488188976,
          "duration": 0.16633065624999688
        },
        {
          "name": "C6",
          "midi": 84,
          "time": 120.48387900000004,
          "velocity": 0.36220472440944884,
          "duration": 0.16129033333332643
        },
        {
          "name": "A5",
          "midi": 81,
          "time": 120.72581450000004,
          "velocity": 0.4094488188976378,
          "duration": 0.12096775000000548
        },
        {
          "name": "D6",
          "midi": 86,
          "time": 120.96775000000005,
          "velocity": 0.3937007874015748,
          "duration": 0.1461693645833293
        },
        {
          "name": "D5",
          "midi": 74,
          "time": 121.20968550000005,
          "velocity": 0.4251968503937008,
          "duration": 0.16633065624999688
        },
        {
          "name": "C6",
          "midi": 84,
          "time": 121.45162100000005,
          "velocity": 0.3779527559055118,
          "duration": 0.16129033333332643
        },
        {
          "name": "A5",
          "midi": 81,
          "time": 121.69355650000004,
          "velocity": 0.4015748031496063,
          "duration": 0.12096775000000548
        },
        {
          "name": "D6",
          "midi": 86,
          "time": 121.93549200000005,
          "velocity": 0.4015748031496063,
          "duration": 0.1360887187500026
        },
        {
          "name": "D5",
          "midi": 74,
          "time": 122.17742750000005,
          "velocity": 0.47244094488188976,
          "duration": 0.1562500104166702
        },
        {
          "name": "C6",
          "midi": 84,
          "time": 122.41936300000005,
          "velocity": 0.3779527559055118,
          "duration": 0.1461693645833293
        },
        {
          "name": "A5",
          "midi": 81,
          "time": 122.66129850000004,
          "velocity": 0.4094488188976378,
          "duration": 0.12096775000000548
        },
        {
          "name": "D6",
          "midi": 86,
          "time": 122.90323400000005,
          "velocity": 0.4015748031496063,
          "duration": 0.14112904166667306
        },
        {
          "name": "D5",
          "midi": 74,
          "time": 123.14516950000007,
          "velocity": 0.47244094488188976,
          "duration": 0.15120968749999975
        },
        {
          "name": "C6",
          "midi": 84,
          "time": 123.38710500000006,
          "velocity": 0.3779527559055118,
          "duration": 0.16129033333332643
        },
        {
          "name": "A5",
          "midi": 81,
          "time": 123.62904050000006,
          "velocity": 0.41732283464566927,
          "duration": 0.12600807291666172
        },
        {
          "name": "D6",
          "midi": 86,
          "time": 123.87097600000006,
          "velocity": 0.4015748031496063,
          "duration": 0.14112904166667306
        },
        {
          "name": "D5",
          "midi": 74,
          "time": 124.11291150000007,
          "velocity": 0.4251968503937008,
          "duration": 0.1562500104166702
        },
        {
          "name": "C6",
          "midi": 84,
          "time": 124.35484700000006,
          "velocity": 0.3779527559055118,
          "duration": 0.16129033333332643
        },
        {
          "name": "A5",
          "midi": 81,
          "time": 124.59678250000006,
          "velocity": 0.4094488188976378,
          "duration": 0.12096775000000548
        },
        {
          "name": "D6",
          "midi": 86,
          "time": 124.83871800000007,
          "velocity": 0.4015748031496063,
          "duration": 0.1360887187500026
        },
        {
          "name": "D5",
          "midi": 74,
          "time": 125.08065350000007,
          "velocity": 0.41732283464566927,
          "duration": 0.15120968749999975
        },
        {
          "name": "C6",
          "midi": 84,
          "time": 125.32258900000006,
          "velocity": 0.3858267716535433,
          "duration": 0.1461693645833293
        },
        {
          "name": "A5",
          "midi": 81,
          "time": 125.56452450000006,
          "velocity": 0.4251968503937008,
          "duration": 0.12096775000000548
        },
        {
          "name": "D6",
          "midi": 86,
          "time": 125.80646000000007,
          "velocity": 0.3937007874015748,
          "duration": 0.14112904166667306
        },
        {
          "name": "D5",
          "midi": 74,
          "time": 126.04839550000008,
          "velocity": 0.4330708661417323,
          "duration": 0.16129033333332643
        },
        {
          "name": "C6",
          "midi": 84,
          "time": 126.29033100000008,
          "velocity": 0.36220472440944884,
          "duration": 0.14112904166667306
        },
        {
          "name": "A5",
          "midi": 81,
          "time": 126.53226650000009,
          "velocity": 0.4015748031496063,
          "duration": 0.11592742708333503
        },
        {
          "name": "D6",
          "midi": 86,
          "time": 126.77420200000009,
          "velocity": 0.4015748031496063,
          "duration": 0.12600807291666172
        },
        {
          "name": "D5",
          "midi": 74,
          "time": 127.01613750000008,
          "velocity": 0.4251968503937008,
          "duration": 0.16129033333332643
        },
        {
          "name": "C6",
          "midi": 84,
          "time": 127.25807300000008,
          "velocity": 0.36220472440944884,
          "duration": 0.13104839583333217
        },
        {
          "name": "A5",
          "midi": 81,
          "time": 127.50000850000008,
          "velocity": 0.4409448818897638,
          "duration": 0.1360887187500026
        },
        {
          "name": "D6",
          "midi": 86,
          "time": 127.74194400000007,
          "velocity": 0.3937007874015748,
          "duration": 0.13104839583333217
        },
        {
          "name": "D5",
          "midi": 74,
          "time": 127.98387950000007,
          "velocity": 0.47244094488188976,
          "duration": 0.15625001041665598
        },
        {
          "name": "C6",
          "midi": 84,
          "time": 128.22581500000007,
          "velocity": 0.3779527559055118,
          "duration": 0.16129033333334064
        },
        {
          "name": "A5",
          "midi": 81,
          "time": 128.46775050000008,
          "velocity": 0.5196850393700787,
          "duration": 0.1360887187499884
        },
        {
          "name": "D6",
          "midi": 86,
          "time": 128.70968600000006,
          "velocity": 0.47244094488188976,
          "duration": 0.1461693645833293
        },
        {
          "name": "D5",
          "midi": 74,
          "time": 128.95162150000004,
          "velocity": 0.5196850393700787,
          "duration": 0.17641130208332356
        },
        {
          "name": "C6",
          "midi": 84,
          "time": 129.19355700000003,
          "velocity": 0.5118110236220472,
          "duration": 0.1562500104166702
        },
        {
          "name": "A5",
          "midi": 81,
          "time": 129.43549250000004,
          "velocity": 0.5196850393700787,
          "duration": 0.1562500104166702
        },
        {
          "name": "D6",
          "midi": 86,
          "time": 129.67742800000005,
          "velocity": 0.4566929133858268,
          "duration": 0.1562500104166702
        },
        {
          "name": "D5",
          "midi": 74,
          "time": 129.91936350000006,
          "velocity": 0.49606299212598426,
          "duration": 0.1562500104166702
        },
        {
          "name": "C6",
          "midi": 84,
          "time": 130.16129900000007,
          "velocity": 0.4881889763779528,
          "duration": 0.16129033333334064
        },
        {
          "name": "A5",
          "midi": 81,
          "time": 130.40323450000008,
          "velocity": 0.5196850393700787,
          "duration": 0.13104839583334638
        },
        {
          "name": "D6",
          "midi": 86,
          "time": 130.6451700000001,
          "velocity": 0.44881889763779526,
          "duration": 0.16129033333334064
        },
        {
          "name": "D5",
          "midi": 74,
          "time": 130.8871055000001,
          "velocity": 0.5196850393700787,
          "duration": 0.15120968749999975
        },
        {
          "name": "C6",
          "midi": 84,
          "time": 131.12904100000011,
          "velocity": 0.4251968503937008,
          "duration": 0.16129033333334064
        },
        {
          "name": "A5",
          "midi": 81,
          "time": 131.37097650000013,
          "velocity": 0.4881889763779528,
          "duration": 0.15120968749999975
        },
        {
          "name": "D6",
          "midi": 86,
          "time": 131.61291200000014,
          "velocity": 0.4566929133858268,
          "duration": 0.1562500104166702
        },
        {
          "name": "D5",
          "midi": 74,
          "time": 131.85484750000015,
          "velocity": 0.5196850393700787,
          "duration": 0.16129033333334064
        },
        {
          "name": "C6",
          "midi": 84,
          "time": 132.09678300000016,
          "velocity": 0.4251968503937008,
          "duration": 0.1663306562500111
        },
        {
          "name": "A5",
          "midi": 81,
          "time": 132.33871850000017,
          "velocity": 0.4881889763779528,
          "duration": 0.1461693645833293
        },
        {
          "name": "D6",
          "midi": 86,
          "time": 132.58065400000015,
          "velocity": 0.4251968503937008,
          "duration": 0.1562500104166702
        },
        {
          "name": "D5",
          "midi": 74,
          "time": 132.82258950000016,
          "velocity": 0.5196850393700787,
          "duration": 0.181451624999994
        },
        {
          "name": "C6",
          "midi": 84,
          "time": 133.06452500000015,
          "velocity": 0.4015748031496063,
          "duration": 0.16129033333334064
        },
        {
          "name": "A5",
          "midi": 81,
          "time": 133.30646050000016,
          "velocity": 0.47244094488188976,
          "duration": 0.14112904166665885
        },
        {
          "name": "D6",
          "midi": 86,
          "time": 133.54839600000014,
          "velocity": 0.4251968503937008,
          "duration": 0.1461693645833293
        },
        {
          "name": "D5",
          "midi": 74,
          "time": 133.79033150000012,
          "velocity": 0.49606299212598426,
          "duration": 0.16129033333334064
        },
        {
          "name": "C6",
          "midi": 84,
          "time": 134.03226700000013,
          "velocity": 0.3779527559055118,
          "duration": 0.13104839583334638
        },
        {
          "name": "A5",
          "midi": 81,
          "time": 134.27420250000014,
          "velocity": 0.4330708661417323,
          "duration": 0.15120968749999975
        },
        {
          "name": "D6",
          "midi": 86,
          "time": 134.51613800000015,
          "velocity": 0.4251968503937008,
          "duration": 0.14112904166665885
        },
        {
          "name": "D5",
          "midi": 74,
          "time": 134.75807350000014,
          "velocity": 0.5118110236220472,
          "duration": 0.1562500104166702
        },
        {
          "name": "C6",
          "midi": 84,
          "time": 135.00000900000015,
          "velocity": 0.4015748031496063,
          "duration": 0.1461693645833293
        },
        {
          "name": "A5",
          "midi": 81,
          "time": 135.24194450000013,
          "velocity": 0.3779527559055118,
          "duration": 0.1360887187499884
        },
        {
          "name": "D6",
          "midi": 86,
          "time": 135.4838800000001,
          "velocity": 0.4251968503937008,
          "duration": 0.15120968749999975
        },
        {
          "name": "D5",
          "midi": 74,
          "time": 135.72581550000012,
          "velocity": 0.4881889763779528,
          "duration": 0.1663306562500111
        },
        {
          "name": "C6",
          "midi": 84,
          "time": 135.96775100000013,
          "velocity": 0.41732283464566927,
          "duration": 0.1562500104166702
        },
        {
          "name": "A5",
          "midi": 81,
          "time": 136.20968650000015,
          "velocity": 0.47244094488188976,
          "duration": 0.1360887187499884
        },
        {
          "name": "D6",
          "midi": 86,
          "time": 136.45162200000013,
          "velocity": 0.4330708661417323,
          "duration": 0.1461693645833293
        },
        {
          "name": "D5",
          "midi": 74,
          "time": 136.6935575000001,
          "velocity": 0.47244094488188976,
          "duration": 0.1562500104166702
        },
        {
          "name": "C6",
          "midi": 84,
          "time": 136.93549300000012,
          "velocity": 0.4094488188976378,
          "duration": 0.14112904166665885
        },
        {
          "name": "A5",
          "midi": 81,
          "time": 137.1774285000001,
          "velocity": 0.4566929133858268,
          "duration": 0.12600807291667593
        },
        {
          "name": "D6",
          "midi": 86,
          "time": 137.41936400000012,
          "velocity": 0.4251968503937008,
          "duration": 0.15120968749999975
        },
        {
          "name": "D5",
          "midi": 74,
          "time": 137.66129950000013,
          "velocity": 0.47244094488188976,
          "duration": 0.16129033333334064
        },
        {
          "name": "C6",
          "midi": 84,
          "time": 137.90323500000014,
          "velocity": 0.4251968503937008,
          "duration": 0.1562500104166702
        },
        {
          "name": "A5",
          "midi": 81,
          "time": 138.14517050000015,
          "velocity": 0.4566929133858268,
          "duration": 0.14112904166665885
        },
        {
          "name": "D6",
          "midi": 86,
          "time": 138.38710600000013,
          "velocity": 0.4015748031496063,
          "duration": 0.1663306562500111
        },
        {
          "name": "D5",
          "midi": 74,
          "time": 138.62904150000014,
          "velocity": 0.47244094488188976,
          "duration": 0.16129033333334064
        },
        {
          "name": "C6",
          "midi": 84,
          "time": 138.87097700000015,
          "velocity": 0.3858267716535433,
          "duration": 0.16129033333334064
        },
        {
          "name": "A5",
          "midi": 81,
          "time": 139.11291250000016,
          "velocity": 0.44881889763779526,
          "duration": 0.14112904166665885
        },
        {
          "name": "D6",
          "midi": 86,
          "time": 139.35484800000015,
          "velocity": 0.41732283464566927,
          "duration": 0.14112904166665885
        },
        {
          "name": "D5",
          "midi": 74,
          "time": 139.59678350000013,
          "velocity": 0.47244094488188976,
          "duration": 0.17137097916665311
        },
        {
          "name": "C6",
          "midi": 84,
          "time": 139.8387190000001,
          "velocity": 0.3779527559055118,
          "duration": 0.14112904166665885
        },
        {
          "name": "A5",
          "midi": 81,
          "time": 140.0806545000001,
          "velocity": 0.4251968503937008,
          "duration": 0.17641130208332356
        },
        {
          "name": "D6",
          "midi": 86,
          "time": 140.32259000000008,
          "velocity": 0.4015748031496063,
          "duration": 0.14112904166665885
        },
        {
          "name": "D5",
          "midi": 74,
          "time": 140.56452550000006,
          "velocity": 0.47244094488188976,
          "duration": 0.16129033333334064
        },
        {
          "name": "C6",
          "midi": 84,
          "time": 140.80646100000007,
          "velocity": 0.3858267716535433,
          "duration": 0.16129033333334064
        },
        {
          "name": "A5",
          "midi": 81,
          "time": 141.04839650000008,
          "velocity": 0.4409448818897638,
          "duration": 0.1360887187499884
        },
        {
          "name": "D6",
          "midi": 86,
          "time": 141.29033200000006,
          "velocity": 0.4015748031496063,
          "duration": 0.15120968749999975
        },
        {
          "name": "D5",
          "midi": 74,
          "time": 141.53226750000007,
          "velocity": 0.47244094488188976,
          "duration": 0.16129033333334064
        },
        {
          "name": "C6",
          "midi": 84,
          "time": 141.77420300000009,
          "velocity": 0.4094488188976378,
          "duration": 0.181451624999994
        },
        {
          "name": "A5",
          "midi": 81,
          "time": 142.01613850000007,
          "velocity": 0.33070866141732286,
          "duration": 0.12096775000000548
        },
        {
          "name": "D6",
          "midi": 86,
          "time": 142.25807400000008,
          "velocity": 0.3858267716535433,
          "duration": 0.16129033333334064
        },
        {
          "name": "D5",
          "midi": 74,
          "time": 142.5000095000001,
          "velocity": 0.4330708661417323,
          "duration": 0.17137097916665311
        },
        {
          "name": "C6",
          "midi": 84,
          "time": 142.74194500000007,
          "velocity": 0.4015748031496063,
          "duration": 0.18649194791666446
        },
        {
          "name": "A5",
          "midi": 81,
          "time": 142.98388050000008,
          "velocity": 0.41732283464566927,
          "duration": 0.10584678124999414
        },
        {
          "name": "D6",
          "midi": 86,
          "time": 143.22581600000007,
          "velocity": 0.4015748031496063,
          "duration": 0.1360887187499884
        },
        {
          "name": "D5",
          "midi": 74,
          "time": 143.46775150000005,
          "velocity": 0.4015748031496063,
          "duration": 0.14112904166665885
        },
        {
          "name": "C6",
          "midi": 84,
          "time": 143.70968700000003,
          "velocity": 0.4015748031496063,
          "duration": 0.16129033333334064
        },
        {
          "name": "A5",
          "midi": 81,
          "time": 143.95162250000004,
          "velocity": 0.4094488188976378,
          "duration": 0.14112904166665885
        },
        {
          "name": "D6",
          "midi": 86,
          "time": 144.19355800000002,
          "velocity": 0.4015748031496063,
          "duration": 0.14112904166665885
        },
        {
          "name": "D5",
          "midi": 74,
          "time": 144.4354935,
          "velocity": 0.44881889763779526,
          "duration": 0.16129033333334064
        },
        {
          "name": "C6",
          "midi": 84,
          "time": 144.67742900000002,
          "velocity": 0.3779527559055118,
          "duration": 0.16129033333334064
        },
        {
          "name": "A5",
          "midi": 81,
          "time": 144.91936450000003,
          "velocity": 0.4251968503937008,
          "duration": 0.14112904166665885
        },
        {
          "name": "D6",
          "midi": 86,
          "time": 145.1613,
          "velocity": 0.41732283464566927,
          "duration": 0.1562500104166702
        },
        {
          "name": "D5",
          "midi": 74,
          "time": 145.40323550000002,
          "velocity": 0.44881889763779526,
          "duration": 0.1562500104166702
        },
        {
          "name": "C6",
          "midi": 84,
          "time": 145.64517100000003,
          "velocity": 0.4015748031496063,
          "duration": 0.17137097916665311
        },
        {
          "name": "A5",
          "midi": 81,
          "time": 145.88710650000002,
          "velocity": 0.4251968503937008,
          "duration": 0.14112904166665885
        },
        {
          "name": "D6",
          "midi": 86,
          "time": 146.129042,
          "velocity": 0.4015748031496063,
          "duration": 0.1461693645833293
        },
        {
          "name": "D5",
          "midi": 74,
          "time": 146.37097749999998,
          "velocity": 0.4251968503937008,
          "duration": 0.16129033333334064
        },
        {
          "name": "C6",
          "midi": 84,
          "time": 146.612913,
          "velocity": 0.4015748031496063,
          "duration": 0.1663306562500111
        },
        {
          "name": "A5",
          "midi": 81,
          "time": 146.8548485,
          "velocity": 0.4330708661417323,
          "duration": 0.14112904166665885
        },
        {
          "name": "D6",
          "midi": 86,
          "time": 147.09678399999999,
          "velocity": 0.4015748031496063,
          "duration": 0.1562500104166702
        },
        {
          "name": "D5",
          "midi": 74,
          "time": 147.3387195,
          "velocity": 0.4409448818897638,
          "duration": 0.15120968749999975
        },
        {
          "name": "C6",
          "midi": 84,
          "time": 147.580655,
          "velocity": 0.4015748031496063,
          "duration": 0.1663306562500111
        },
        {
          "name": "A5",
          "midi": 81,
          "time": 147.82259050000002,
          "velocity": 0.4409448818897638,
          "duration": 0.14112904166665885
        },
        {
          "name": "D6",
          "midi": 86,
          "time": 148.064526,
          "velocity": 0.4015748031496063,
          "duration": 0.17137097916665311
        },
        {
          "name": "D5",
          "midi": 74,
          "time": 148.30646149999998,
          "velocity": 0.44881889763779526,
          "duration": 0.16129033333334064
        },
        {
          "name": "C6",
          "midi": 84,
          "time": 148.548397,
          "velocity": 0.3779527559055118,
          "duration": 0.17641130208332356
        },
        {
          "name": "A5",
          "midi": 81,
          "time": 148.79033249999998,
          "velocity": 0.4251968503937008,
          "duration": 0.13104839583334638
        },
        {
          "name": "D6",
          "midi": 86,
          "time": 149.032268,
          "velocity": 0.4251968503937008,
          "duration": 0.1562500104166702
        },
        {
          "name": "D5",
          "midi": 74,
          "time": 149.2742035,
          "velocity": 0.4566929133858268,
          "duration": 0.1663306562500111
        },
        {
          "name": "C6",
          "midi": 84,
          "time": 149.516139,
          "velocity": 0.3858267716535433,
          "duration": 0.181451624999994
        },
        {
          "name": "A5",
          "midi": 81,
          "time": 149.7580745,
          "velocity": 0.4251968503937008,
          "duration": 0.1562500104166702
        },
        {
          "name": "D6",
          "midi": 86,
          "time": 150.00001,
          "velocity": 0.4015748031496063,
          "duration": 0.1562500104166702
        },
        {
          "name": "D5",
          "midi": 74,
          "time": 150.2419455,
          "velocity": 0.47244094488188976,
          "duration": 0.1663306562500111
        },
        {
          "name": "C6",
          "midi": 84,
          "time": 150.48388100000003,
          "velocity": 0.3779527559055118,
          "duration": 0.181451624999994
        },
        {
          "name": "A5",
          "midi": 81,
          "time": 150.7258165,
          "velocity": 0.44881889763779526,
          "duration": 0.14112904166665885
        },
        {
          "name": "D6",
          "midi": 86,
          "time": 150.967752,
          "velocity": 0.4251968503937008,
          "duration": 0.17137097916665311
        }
      ],
      "controlChanges": {},
      "id": 6,
      "name": "Oboe",
      "instrumentNumber": 68,
      "instrument": "oboe",
      "instrumentFamily": "reed",
      "channelNumber": 4,
      "isPercussion": false
    },
    {
      "startTime": 0.967742,
      "duration": 151.11896168750002,
      "length": 264,
      "notes": [
        {
          "name": "D5",
          "midi": 74,
          "time": 0.967742,
          "velocity": 0.6929133858267716,
          "duration": 1.8447581875
        },
        {
          "name": "C5",
          "midi": 72,
          "time": 2.903226,
          "velocity": 0.6456692913385826,
          "duration": 0.7661290833333334
        },
        {
          "name": "C5",
          "midi": 72,
          "time": 3.870968,
          "velocity": 0.7007874015748031,
          "duration": 0.9677419999999999
        },
        {
          "name": "A#4",
          "midi": 70,
          "time": 4.83871,
          "velocity": 0.7007874015748031,
          "duration": 0.8770161874999998
        },
        {
          "name": "D5",
          "midi": 74,
          "time": 6.774194,
          "velocity": 0.7086614173228346,
          "duration": 1.915322708333333
        },
        {
          "name": "C5",
          "midi": 72,
          "time": 8.709677999999998,
          "velocity": 0.6692913385826772,
          "duration": 0.8266129583333335
        },
        {
          "name": "C5",
          "midi": 72,
          "time": 9.677419999999998,
          "velocity": 0.6456692913385826,
          "duration": 0.917338770833334
        },
        {
          "name": "A#4",
          "midi": 70,
          "time": 10.645162,
          "velocity": 0.6692913385826772,
          "duration": 0.7459677916666667
        },
        {
          "name": "F5",
          "midi": 77,
          "time": 12.580646,
          "velocity": 0.6929133858267716,
          "duration": 1.8447581875
        },
        {
          "name": "E5",
          "midi": 76,
          "time": 14.51613,
          "velocity": 0.6062992125984252,
          "duration": 0.7056452083333333
        },
        {
          "name": "F5",
          "midi": 77,
          "time": 15.483872,
          "velocity": 0.6220472440944882,
          "duration": 1.129032333333333
        },
        {
          "name": "E5",
          "midi": 76,
          "time": 16.451614,
          "velocity": 0.6535433070866141,
          "duration": 0.8870968333333344
        },
        {
          "name": "E5",
          "midi": 76,
          "time": 17.419356,
          "velocity": 0.7086614173228346,
          "duration": 0.5745968125000012
        },
        {
          "name": "F5",
          "midi": 77,
          "time": 18.387098,
          "velocity": 0.6220472440944882,
          "duration": 0.7661290833333325
        },
        {
          "name": "E5",
          "midi": 76,
          "time": 19.35484,
          "velocity": 0.6929133858267716,
          "duration": 3.7399196041666656
        },
        {
          "name": "F3",
          "midi": 53,
          "time": 23.951614499999998,
          "velocity": 0.49606299212598426,
          "duration": 0.39818551041666694
        },
        {
          "name": "F3",
          "midi": 53,
          "time": 24.4354855,
          "velocity": 0.5196850393700787,
          "duration": 0.38306454166666626
        },
        {
          "name": "E3",
          "midi": 52,
          "time": 24.9193565,
          "velocity": 0.44881889763779526,
          "duration": 0.3679435729166656
        },
        {
          "name": "E3",
          "midi": 52,
          "time": 25.4032275,
          "velocity": 0.4881889763779528,
          "duration": 0.6703629479166651
        },
        {
          "name": "F3",
          "midi": 53,
          "time": 26.854840499999998,
          "velocity": 0.5118110236220472,
          "duration": 0.38810486458333315
        },
        {
          "name": "F3",
          "midi": 53,
          "time": 27.3387115,
          "velocity": 0.5669291338582677,
          "duration": 0.4838710000000006
        },
        {
          "name": "E3",
          "midi": 52,
          "time": 27.8225825,
          "velocity": 0.49606299212598426,
          "duration": 0.32258066666666707
        },
        {
          "name": "E3",
          "midi": 52,
          "time": 28.3064535,
          "velocity": 0.5669291338582677,
          "duration": 0.7711694062499994
        },
        {
          "name": "F3",
          "midi": 53,
          "time": 29.758066499999998,
          "velocity": 0.5354330708661418,
          "duration": 0.3629032499999987
        },
        {
          "name": "F3",
          "midi": 53,
          "time": 30.241937499999995,
          "velocity": 0.5511811023622047,
          "duration": 0.43850809374999855
        },
        {
          "name": "E3",
          "midi": 52,
          "time": 30.725808499999992,
          "velocity": 0.5354330708661418,
          "duration": 0.37298389583333247
        },
        {
          "name": "F3",
          "midi": 53,
          "time": 31.209679499999993,
          "velocity": 0.5590551181102362,
          "duration": 0.8770161874999971
        },
        {
          "name": "G3",
          "midi": 55,
          "time": 32.17742149999999,
          "velocity": 0.5826771653543307,
          "duration": 0.9173387708333323
        },
        {
          "name": "F3",
          "midi": 53,
          "time": 33.14516349999999,
          "velocity": 0.5433070866141733,
          "duration": 0.463709708333333
        },
        {
          "name": "E3",
          "midi": 52,
          "time": 33.62903449999999,
          "velocity": 0.5433070866141733,
          "duration": 1.4112904166666667
        },
        {
          "name": "F3",
          "midi": 53,
          "time": 35.56451849999999,
          "velocity": 0.5118110236220472,
          "duration": 0.3679435729166656
        },
        {
          "name": "F3",
          "midi": 53,
          "time": 36.04838949999999,
          "velocity": 0.5118110236220472,
          "duration": 0.44354841666666545
        },
        {
          "name": "E3",
          "midi": 52,
          "time": 36.53226049999999,
          "velocity": 0.3543307086614173,
          "duration": 0.2822580833333319
        },
        {
          "name": "E3",
          "midi": 52,
          "time": 37.01613149999999,
          "velocity": 0.5590551181102362,
          "duration": 0.6804435937499989
        },
        {
          "name": "F3",
          "midi": 53,
          "time": 38.467744499999995,
          "velocity": 0.4566929133858268,
          "duration": 0.35282260416666844
        },
        {
          "name": "F3",
          "midi": 53,
          "time": 38.951615499999996,
          "velocity": 0.5511811023622047,
          "duration": 0.514112937500002
        },
        {
          "name": "E3",
          "midi": 52,
          "time": 39.435486499999996,
          "velocity": 0.47244094488188976,
          "duration": 0.3377016354166713
        },
        {
          "name": "E3",
          "midi": 52,
          "time": 39.919357500000004,
          "velocity": 0.5118110236220472,
          "duration": 0.8215726354166648
        },
        {
          "name": "F3",
          "midi": 53,
          "time": 41.3709705,
          "velocity": 0.5275590551181102,
          "duration": 0.30745969791666994
        },
        {
          "name": "F3",
          "midi": 53,
          "time": 41.8548415,
          "velocity": 0.5433070866141733,
          "duration": 0.4133064791666641
        },
        {
          "name": "E3",
          "midi": 52,
          "time": 42.3387125,
          "velocity": 0.5433070866141733,
          "duration": 0.2923387291666657
        },
        {
          "name": "F3",
          "midi": 53,
          "time": 42.8225835,
          "velocity": 0.5748031496062992,
          "duration": 0.8870968333333309
        },
        {
          "name": "G3",
          "midi": 55,
          "time": 43.790325499999994,
          "velocity": 0.5748031496062992,
          "duration": 0.927419416666666
        },
        {
          "name": "F3",
          "midi": 53,
          "time": 44.758067499999996,
          "velocity": 0.6299212598425197,
          "duration": 0.45362906249999924
        },
        {
          "name": "E3",
          "midi": 52,
          "time": 45.241938499999996,
          "velocity": 0.4881889763779528,
          "duration": 1.2903226666666683
        },
        {
          "name": "A3",
          "midi": 57,
          "time": 47.1774225,
          "velocity": 0.5433070866141733,
          "duration": 0.3276209895833304
        },
        {
          "name": "A3",
          "midi": 57,
          "time": 47.6612935,
          "velocity": 0.5354330708661418,
          "duration": 0.4032258333333303
        },
        {
          "name": "A3",
          "midi": 57,
          "time": 48.14516449999999,
          "velocity": 0.5669291338582677,
          "duration": 0.36290325000000223
        },
        {
          "name": "A3",
          "midi": 57,
          "time": 48.62903549999999,
          "velocity": 0.5118110236220472,
          "duration": 0.40826615625000073
        },
        {
          "name": "A3",
          "midi": 57,
          "time": 50.080648499999995,
          "velocity": 0.5354330708661418,
          "duration": 0.34274195833333465
        },
        {
          "name": "A3",
          "midi": 57,
          "time": 50.564519499999996,
          "velocity": 0.5118110236220472,
          "duration": 0.3276209895833304
        },
        {
          "name": "A3",
          "midi": 57,
          "time": 51.0483905,
          "velocity": 0.48031496062992124,
          "duration": 0.3024193749999995
        },
        {
          "name": "A3",
          "midi": 57,
          "time": 51.5322615,
          "velocity": 0.49606299212598426,
          "duration": 0.4939516458333344
        },
        {
          "name": "A3",
          "midi": 57,
          "time": 52.9838745,
          "velocity": 0.4330708661417323,
          "duration": 0.34274195833333465
        },
        {
          "name": "A3",
          "midi": 57,
          "time": 53.4677455,
          "velocity": 0.47244094488188976,
          "duration": 0.36290325000000223
        },
        {
          "name": "A3",
          "midi": 57,
          "time": 53.9516165,
          "velocity": 0.5039370078740157,
          "duration": 0.36290325000000223
        },
        {
          "name": "A3",
          "midi": 57,
          "time": 54.4354875,
          "velocity": 0.5118110236220472,
          "duration": 0.8820565104166675
        },
        {
          "name": "A3",
          "midi": 57,
          "time": 55.4032295,
          "velocity": 0.5433070866141733,
          "duration": 0.40826615625000073
        },
        {
          "name": "A3",
          "midi": 57,
          "time": 55.8871005,
          "velocity": 0.5590551181102362,
          "duration": 0.7510081145833354
        },
        {
          "name": "D4",
          "midi": 62,
          "time": 56.854842500000004,
          "velocity": 0.6850393700787402,
          "duration": 1.2046371770833346
        },
        {
          "name": "F3",
          "midi": 53,
          "time": 58.790326500000006,
          "velocity": 0.3937007874015748,
          "duration": 0.33266131250000086
        },
        {
          "name": "F3",
          "midi": 53,
          "time": 59.27419750000001,
          "velocity": 0.49606299212598426,
          "duration": 0.38810486458333315
        },
        {
          "name": "E3",
          "midi": 52,
          "time": 59.75806850000001,
          "velocity": 0.4094488188976378,
          "duration": 0.30745969791666994
        },
        {
          "name": "E3",
          "midi": 52,
          "time": 60.24193950000001,
          "velocity": 0.5275590551181102,
          "duration": 0.6149193958333328
        },
        {
          "name": "F3",
          "midi": 53,
          "time": 61.69355250000001,
          "velocity": 0.48031496062992124,
          "duration": 0.3024193749999995
        },
        {
          "name": "F3",
          "midi": 53,
          "time": 62.17742350000001,
          "velocity": 0.5433070866141733,
          "duration": 0.4183468020833345
        },
        {
          "name": "E3",
          "midi": 52,
          "time": 62.66129450000001,
          "velocity": 0.4566929133858268,
          "duration": 0.3377016354166642
        },
        {
          "name": "E3",
          "midi": 52,
          "time": 63.14516550000001,
          "velocity": 0.49606299212598426,
          "duration": 0.6401210104166637
        },
        {
          "name": "F3",
          "midi": 53,
          "time": 64.59677850000001,
          "velocity": 0.49606299212598426,
          "duration": 0.3931451874999965
        },
        {
          "name": "F3",
          "midi": 53,
          "time": 65.0806495,
          "velocity": 0.5433070866141733,
          "duration": 0.3679435729166727
        },
        {
          "name": "E3",
          "midi": 52,
          "time": 65.56452050000001,
          "velocity": 0.49606299212598426,
          "duration": 0.36290325000000223
        },
        {
          "name": "F3",
          "midi": 53,
          "time": 66.04839150000002,
          "velocity": 0.5433070866141733,
          "duration": 0.9122984479166689
        },
        {
          "name": "G3",
          "midi": 55,
          "time": 67.01613350000002,
          "velocity": 0.5669291338582677,
          "duration": 0.9173387708333394
        },
        {
          "name": "F3",
          "midi": 53,
          "time": 67.98387550000002,
          "velocity": 0.5275590551181102,
          "duration": 0.43346777083333166
        },
        {
          "name": "E3",
          "midi": 52,
          "time": 68.46774650000002,
          "velocity": 0.49606299212598426,
          "duration": 1.4112904166666596
        },
        {
          "name": "F3",
          "midi": 53,
          "time": 70.4032305,
          "velocity": 0.5354330708661418,
          "duration": 0.3276209895833375
        },
        {
          "name": "F3",
          "midi": 53,
          "time": 70.88710150000001,
          "velocity": 0.5275590551181102,
          "duration": 0.4284274479166612
        },
        {
          "name": "E3",
          "midi": 52,
          "time": 71.37097250000001,
          "velocity": 0.5196850393700787,
          "duration": 0.3125000208333404
        },
        {
          "name": "E3",
          "midi": 52,
          "time": 71.85484350000002,
          "velocity": 0.49606299212598426,
          "duration": 0.5846774583333314
        },
        {
          "name": "F3",
          "midi": 53,
          "time": 73.30645650000001,
          "velocity": 0.49606299212598426,
          "duration": 0.3578629270833318
        },
        {
          "name": "F3",
          "midi": 53,
          "time": 73.7903275,
          "velocity": 0.5275590551181102,
          "duration": 0.44354841666667255
        },
        {
          "name": "E3",
          "midi": 52,
          "time": 74.27419850000001,
          "velocity": 0.5196850393700787,
          "duration": 0.2721774375000052
        },
        {
          "name": "E3",
          "midi": 52,
          "time": 74.75806950000002,
          "velocity": 0.5275590551181102,
          "duration": 0.6905242395833397
        },
        {
          "name": "F3",
          "midi": 53,
          "time": 76.20968250000003,
          "velocity": 0.5039370078740157,
          "duration": 0.32258066666666707
        },
        {
          "name": "F3",
          "midi": 53,
          "time": 76.69355350000002,
          "velocity": 0.5433070866141733,
          "duration": 0.4032258333333374
        },
        {
          "name": "E3",
          "midi": 52,
          "time": 77.17742450000003,
          "velocity": 0.5039370078740157,
          "duration": 0.34274195833333465
        },
        {
          "name": "F3",
          "midi": 53,
          "time": 77.66129550000004,
          "velocity": 0.5511811023622047,
          "duration": 0.9072581249999985
        },
        {
          "name": "G3",
          "midi": 55,
          "time": 78.62903750000004,
          "velocity": 0.5590551181102362,
          "duration": 0.8921371562500013
        },
        {
          "name": "F3",
          "midi": 53,
          "time": 79.59677950000004,
          "velocity": 0.5590551181102362,
          "duration": 0.42338712500000497
        },
        {
          "name": "E3",
          "midi": 52,
          "time": 80.08065050000005,
          "velocity": 0.5669291338582677,
          "duration": 1.2903226666666683
        },
        {
          "name": "A3",
          "midi": 57,
          "time": 82.01613450000005,
          "velocity": 0.5118110236220472,
          "duration": 0.36290325000000223
        },
        {
          "name": "A3",
          "midi": 57,
          "time": 82.50000550000006,
          "velocity": 0.5118110236220472,
          "duration": 0.33266131249999376
        },
        {
          "name": "A3",
          "midi": 57,
          "time": 82.98387650000005,
          "velocity": 0.5275590551181102,
          "duration": 0.3024193749999995
        },
        {
          "name": "A3",
          "midi": 57,
          "time": 83.46774750000004,
          "velocity": 0.5118110236220472,
          "duration": 0.5745968125000047
        },
        {
          "name": "A3",
          "midi": 57,
          "time": 84.91936050000005,
          "velocity": 0.5196850393700787,
          "duration": 0.3477822812500051
        },
        {
          "name": "A3",
          "midi": 57,
          "time": 85.40323150000006,
          "velocity": 0.4330708661417323,
          "duration": 0.3276209895833375
        },
        {
          "name": "A3",
          "midi": 57,
          "time": 85.88710250000007,
          "velocity": 0.4881889763779528,
          "duration": 0.36290325000000223
        },
        {
          "name": "A3",
          "midi": 57,
          "time": 86.37097350000008,
          "velocity": 0.5118110236220472,
          "duration": 0.7560484374999987
        },
        {
          "name": "A3",
          "midi": 57,
          "time": 87.82258650000007,
          "velocity": 0.4330708661417323,
          "duration": 0.3377016354166642
        },
        {
          "name": "A3",
          "midi": 57,
          "time": 88.30645750000006,
          "velocity": 0.4881889763779528,
          "duration": 0.3477822812500051
        },
        {
          "name": "A3",
          "midi": 57,
          "time": 88.79032850000007,
          "velocity": 0.5196850393700787,
          "duration": 0.2923387291666728
        },
        {
          "name": "A3",
          "midi": 57,
          "time": 89.27419950000008,
          "velocity": 0.47244094488188976,
          "duration": 0.8266129583333282
        },
        {
          "name": "A3",
          "midi": 57,
          "time": 90.24194150000008,
          "velocity": 0.5196850393700787,
          "duration": 0.8719758645833338
        },
        {
          "name": "A3",
          "midi": 57,
          "time": 91.20968350000008,
          "velocity": 0.5354330708661418,
          "duration": 0.3477822812500051
        },
        {
          "name": "A3",
          "midi": 57,
          "time": 91.69355450000009,
          "velocity": 0.5354330708661418,
          "duration": 1.2953629895833387
        },
        {
          "name": "A3",
          "midi": 57,
          "time": 93.62903850000009,
          "velocity": 0.49606299212598426,
          "duration": 0.3276209895833375
        },
        {
          "name": "A3",
          "midi": 57,
          "time": 94.1129095000001,
          "velocity": 0.5118110236220472,
          "duration": 0.3931451874999965
        },
        {
          "name": "A3",
          "midi": 57,
          "time": 94.5967805000001,
          "velocity": 0.49606299212598426,
          "duration": 0.3024193749999995
        },
        {
          "name": "A3",
          "midi": 57,
          "time": 95.08065150000009,
          "velocity": 0.4881889763779528,
          "duration": 0.7056452083333369
        },
        {
          "name": "A3",
          "midi": 57,
          "time": 96.5322645000001,
          "velocity": 0.5196850393700787,
          "duration": 0.36290325000000223
        },
        {
          "name": "A3",
          "midi": 57,
          "time": 97.0161355000001,
          "velocity": 0.4645669291338583,
          "duration": 0.3377016354166642
        },
        {
          "name": "A3",
          "midi": 57,
          "time": 97.5000065000001,
          "velocity": 0.4645669291338583,
          "duration": 0.2822580833333319
        },
        {
          "name": "A3",
          "midi": 57,
          "time": 97.98387750000009,
          "velocity": 0.4881889763779528,
          "duration": 0.836693604166669
        },
        {
          "name": "A3",
          "midi": 57,
          "time": 99.4354905000001,
          "velocity": 0.4645669291338583,
          "duration": 0.3830645416666698
        },
        {
          "name": "A3",
          "midi": 57,
          "time": 99.91936150000011,
          "velocity": 0.4566929133858268,
          "duration": 0.3377016354166642
        },
        {
          "name": "A3",
          "midi": 57,
          "time": 100.4032325000001,
          "velocity": 0.4566929133858268,
          "duration": 0.2721774375000052
        },
        {
          "name": "A3",
          "midi": 57,
          "time": 100.88710350000011,
          "velocity": 0.48031496062992124,
          "duration": 0.8568548958333366
        },
        {
          "name": "A3",
          "midi": 57,
          "time": 101.85484550000011,
          "velocity": 0.49606299212598426,
          "duration": 0.32258066666666707
        },
        {
          "name": "A3",
          "midi": 57,
          "time": 102.3387165000001,
          "velocity": 0.5039370078740157,
          "duration": 0.811491989583331
        },
        {
          "name": "D4",
          "midi": 62,
          "time": 103.3064585000001,
          "velocity": 0.47244094488188976,
          "duration": 1.2600807291666598
        },
        {
          "name": "C5",
          "midi": 72,
          "time": 105.0000070000001,
          "velocity": 0.6771653543307087,
          "duration": 0.13104839583333217
        },
        {
          "name": "A4",
          "midi": 69,
          "time": 105.24194250000009,
          "velocity": 0.6771653543307087,
          "duration": 0.19657259375000535
        },
        {
          "name": "D5",
          "midi": 74,
          "time": 105.4838780000001,
          "velocity": 0.7007874015748031,
          "duration": 0.16129033333332643
        },
        {
          "name": "C5",
          "midi": 72,
          "time": 105.9677490000001,
          "velocity": 0.6929133858267716,
          "duration": 0.1360887187500026
        },
        {
          "name": "A4",
          "midi": 69,
          "time": 106.2096845000001,
          "velocity": 0.5669291338582677,
          "duration": 0.1360887187500026
        },
        {
          "name": "D5",
          "midi": 74,
          "time": 106.45162000000009,
          "velocity": 0.4881889763779528,
          "duration": 0.14112904166667306
        },
        {
          "name": "C5",
          "midi": 72,
          "time": 106.9354910000001,
          "velocity": 0.5590551181102362,
          "duration": 0.16129033333332643
        },
        {
          "name": "A4",
          "midi": 69,
          "time": 107.1774265000001,
          "velocity": 0.5748031496062992,
          "duration": 0.1562500104166702
        },
        {
          "name": "D5",
          "midi": 74,
          "time": 107.41936200000009,
          "velocity": 0.5511811023622047,
          "duration": 0.21169356250000249
        },
        {
          "name": "C5",
          "midi": 72,
          "time": 107.9032330000001,
          "velocity": 0.5433070866141733,
          "duration": 0.181451624999994
        },
        {
          "name": "A4",
          "midi": 69,
          "time": 108.1451685000001,
          "velocity": 0.5354330708661418,
          "duration": 0.15120968749999975
        },
        {
          "name": "D5",
          "midi": 74,
          "time": 108.3871040000001,
          "velocity": 0.5590551181102362,
          "duration": 0.17137097916666733
        },
        {
          "name": "C5",
          "midi": 72,
          "time": 108.8709750000001,
          "velocity": 0.5354330708661418,
          "duration": 0.16633065624999688
        },
        {
          "name": "A4",
          "midi": 69,
          "time": 109.1129105000001,
          "velocity": 0.5118110236220472,
          "duration": 0.14112904166667306
        },
        {
          "name": "D5",
          "midi": 74,
          "time": 109.35484600000011,
          "velocity": 0.5433070866141733,
          "duration": 0.16129033333332643
        },
        {
          "name": "C5",
          "midi": 72,
          "time": 109.8387170000001,
          "velocity": 0.5118110236220472,
          "duration": 0.16129033333332643
        },
        {
          "name": "A4",
          "midi": 69,
          "time": 110.0806525000001,
          "velocity": 0.5039370078740157,
          "duration": 0.14112904166667306
        },
        {
          "name": "D5",
          "midi": 74,
          "time": 110.32258800000011,
          "velocity": 0.5039370078740157,
          "duration": 0.12600807291666172
        },
        {
          "name": "C5",
          "midi": 72,
          "time": 110.8064590000001,
          "velocity": 0.5118110236220472,
          "duration": 0.16129033333332643
        },
        {
          "name": "A4",
          "midi": 69,
          "time": 111.0483945000001,
          "velocity": 0.5196850393700787,
          "duration": 0.16633065624999688
        },
        {
          "name": "D5",
          "midi": 74,
          "time": 111.2903300000001,
          "velocity": 0.5354330708661418,
          "duration": 0.14112904166667306
        },
        {
          "name": "C5",
          "midi": 72,
          "time": 111.7742010000001,
          "velocity": 0.5275590551181102,
          "duration": 0.16129033333332643
        },
        {
          "name": "A4",
          "midi": 69,
          "time": 112.0161365000001,
          "velocity": 0.47244094488188976,
          "duration": 0.15120968749999975
        },
        {
          "name": "D5",
          "midi": 74,
          "time": 112.2580720000001,
          "velocity": 0.5275590551181102,
          "duration": 0.16129033333332643
        },
        {
          "name": "C5",
          "midi": 72,
          "time": 112.74194300000009,
          "velocity": 0.5354330708661418,
          "duration": 0.16129033333332643
        },
        {
          "name": "A4",
          "midi": 69,
          "time": 112.98387850000009,
          "velocity": 0.5118110236220472,
          "duration": 0.1461693645833293
        },
        {
          "name": "D5",
          "midi": 74,
          "time": 113.22581400000009,
          "velocity": 0.5354330708661418,
          "duration": 0.16129033333332643
        },
        {
          "name": "C5",
          "midi": 72,
          "time": 113.70968500000008,
          "velocity": 0.4881889763779528,
          "duration": 0.16129033333332643
        },
        {
          "name": "A4",
          "midi": 69,
          "time": 113.95162050000008,
          "velocity": 0.49606299212598426,
          "duration": 0.1360887187500026
        },
        {
          "name": "D5",
          "midi": 74,
          "time": 114.19355600000007,
          "velocity": 0.5275590551181102,
          "duration": 0.15120968749999975
        },
        {
          "name": "C5",
          "midi": 72,
          "time": 114.67742700000007,
          "velocity": 0.5511811023622047,
          "duration": 0.1562500104166702
        },
        {
          "name": "A4",
          "midi": 69,
          "time": 114.91936250000006,
          "velocity": 0.5118110236220472,
          "duration": 0.1461693645833293
        },
        {
          "name": "D5",
          "midi": 74,
          "time": 115.16129800000006,
          "velocity": 0.5669291338582677,
          "duration": 0.16129033333332643
        },
        {
          "name": "C5",
          "midi": 72,
          "time": 115.64516900000005,
          "velocity": 0.5354330708661418,
          "duration": 0.15120968749999975
        },
        {
          "name": "A4",
          "midi": 69,
          "time": 115.88710450000005,
          "velocity": 0.5354330708661418,
          "duration": 0.1562500104166702
        },
        {
          "name": "D5",
          "midi": 74,
          "time": 116.12904000000005,
          "velocity": 0.5433070866141733,
          "duration": 0.1562500104166702
        },
        {
          "name": "C5",
          "midi": 72,
          "time": 116.61291100000005,
          "velocity": 0.5118110236220472,
          "duration": 0.16633065624999688
        },
        {
          "name": "A4",
          "midi": 69,
          "time": 116.85484650000005,
          "velocity": 0.5590551181102362,
          "duration": 0.1562500104166702
        },
        {
          "name": "D5",
          "midi": 74,
          "time": 117.09678200000005,
          "velocity": 0.5354330708661418,
          "duration": 0.15120968749999975
        },
        {
          "name": "C5",
          "midi": 72,
          "time": 117.58065300000004,
          "velocity": 0.49606299212598426,
          "duration": 0.16633065624999688
        },
        {
          "name": "A4",
          "midi": 69,
          "time": 117.82258850000004,
          "velocity": 0.5039370078740157,
          "duration": 0.1461693645833293
        },
        {
          "name": "D5",
          "midi": 74,
          "time": 118.06452400000003,
          "velocity": 0.5196850393700787,
          "duration": 0.16129033333332643
        },
        {
          "name": "C5",
          "midi": 72,
          "time": 118.54839500000003,
          "velocity": 0.4881889763779528,
          "duration": 0.181451624999994
        },
        {
          "name": "A4",
          "midi": 69,
          "time": 118.79033050000002,
          "velocity": 0.4881889763779528,
          "duration": 0.14112904166667306
        },
        {
          "name": "D5",
          "midi": 74,
          "time": 119.03226600000004,
          "velocity": 0.5196850393700787,
          "duration": 0.16129033333332643
        },
        {
          "name": "C5",
          "midi": 72,
          "time": 119.51613700000003,
          "velocity": 0.5118110236220472,
          "duration": 0.17137097916666733
        },
        {
          "name": "A4",
          "midi": 69,
          "time": 119.75807250000003,
          "velocity": 0.47244094488188976,
          "duration": 0.14112904166667306
        },
        {
          "name": "D5",
          "midi": 74,
          "time": 120.00000800000004,
          "velocity": 0.5118110236220472,
          "duration": 0.16129033333332643
        },
        {
          "name": "C5",
          "midi": 72,
          "time": 120.48387900000003,
          "velocity": 0.4881889763779528,
          "duration": 0.1360887187500026
        },
        {
          "name": "A4",
          "midi": 69,
          "time": 120.72581450000003,
          "velocity": 0.4881889763779528,
          "duration": 0.13104839583333217
        },
        {
          "name": "D5",
          "midi": 74,
          "time": 120.96775000000002,
          "velocity": 0.5039370078740157,
          "duration": 0.1461693645833293
        },
        {
          "name": "C5",
          "midi": 72,
          "time": 121.45162100000002,
          "velocity": 0.5039370078740157,
          "duration": 0.14112904166667306
        },
        {
          "name": "A4",
          "midi": 69,
          "time": 121.69355650000003,
          "velocity": 0.47244094488188976,
          "duration": 0.1360887187500026
        },
        {
          "name": "D5",
          "midi": 74,
          "time": 121.93549200000002,
          "velocity": 0.47244094488188976,
          "duration": 0.1360887187500026
        },
        {
          "name": "C5",
          "midi": 72,
          "time": 122.41936300000003,
          "velocity": 0.47244094488188976,
          "duration": 0.14112904166667306
        },
        {
          "name": "A4",
          "midi": 69,
          "time": 122.66129850000004,
          "velocity": 0.4645669291338583,
          "duration": 0.13104839583333217
        },
        {
          "name": "D5",
          "midi": 74,
          "time": 122.90323400000004,
          "velocity": 0.48031496062992124,
          "duration": 0.12600807291666172
        },
        {
          "name": "C5",
          "midi": 72,
          "time": 123.38710500000003,
          "velocity": 0.44881889763779526,
          "duration": 0.1360887187500026
        },
        {
          "name": "A4",
          "midi": 69,
          "time": 123.62904050000003,
          "velocity": 0.4330708661417323,
          "duration": 0.12096775000000548
        },
        {
          "name": "D5",
          "midi": 74,
          "time": 123.87097600000004,
          "velocity": 0.47244094488188976,
          "duration": 0.12096775000000548
        },
        {
          "name": "C5",
          "midi": 72,
          "time": 124.35484700000005,
          "velocity": 0.4645669291338583,
          "duration": 0.11088710416666459
        },
        {
          "name": "A4",
          "midi": 69,
          "time": 124.59678250000005,
          "velocity": 0.4015748031496063,
          "duration": 0.12096775000000548
        },
        {
          "name": "D5",
          "midi": 74,
          "time": 124.83871800000006,
          "velocity": 0.49606299212598426,
          "duration": 0.12600807291666172
        },
        {
          "name": "C5",
          "midi": 72,
          "time": 125.32258900000005,
          "velocity": 0.5118110236220472,
          "duration": 0.11592742708333503
        },
        {
          "name": "A4",
          "midi": 69,
          "time": 125.56452450000005,
          "velocity": 0.4645669291338583,
          "duration": 0.12096775000000548
        },
        {
          "name": "D5",
          "midi": 74,
          "time": 125.80646000000006,
          "velocity": 0.5039370078740157,
          "duration": 0.12600807291666172
        },
        {
          "name": "C5",
          "midi": 72,
          "time": 126.29033100000005,
          "velocity": 0.4645669291338583,
          "duration": 0.14112904166667306
        },
        {
          "name": "A4",
          "midi": 69,
          "time": 126.53226650000006,
          "velocity": 0.4330708661417323,
          "duration": 0.12600807291666172
        },
        {
          "name": "D5",
          "midi": 74,
          "time": 126.77420200000006,
          "velocity": 0.44881889763779526,
          "duration": 0.12096775000000548
        },
        {
          "name": "C5",
          "midi": 72,
          "time": 127.25807300000007,
          "velocity": 0.4645669291338583,
          "duration": 0.13104839583333217
        },
        {
          "name": "A4",
          "midi": 69,
          "time": 127.50000850000006,
          "velocity": 0.4094488188976378,
          "duration": 0.13104839583333217
        },
        {
          "name": "D5",
          "midi": 74,
          "time": 127.74194400000006,
          "velocity": 0.47244094488188976,
          "duration": 0.1360887187500026
        },
        {
          "name": "C5",
          "midi": 72,
          "time": 128.22581500000007,
          "velocity": 0.6535433070866141,
          "duration": 0.16129033333334064
        },
        {
          "name": "A4",
          "midi": 69,
          "time": 128.46775050000008,
          "velocity": 0.6299212598425197,
          "duration": 0.16129033333334064
        },
        {
          "name": "D5",
          "midi": 74,
          "time": 128.7096860000001,
          "velocity": 0.5984251968503937,
          "duration": 0.181451624999994
        },
        {
          "name": "C5",
          "midi": 72,
          "time": 129.19355700000008,
          "velocity": 0.5826771653543307,
          "duration": 0.1562500104166702
        },
        {
          "name": "A4",
          "midi": 69,
          "time": 129.4354925000001,
          "velocity": 0.6141732283464567,
          "duration": 0.1461693645833293
        },
        {
          "name": "D5",
          "midi": 74,
          "time": 129.67742800000008,
          "velocity": 0.5669291338582677,
          "duration": 0.1663306562500111
        },
        {
          "name": "C5",
          "midi": 72,
          "time": 130.1612990000001,
          "velocity": 0.5669291338582677,
          "duration": 0.15120968749999975
        },
        {
          "name": "A4",
          "midi": 69,
          "time": 130.4032345000001,
          "velocity": 0.6141732283464567,
          "duration": 0.1663306562500111
        },
        {
          "name": "D5",
          "midi": 74,
          "time": 130.64517000000012,
          "velocity": 0.5905511811023622,
          "duration": 0.1663306562500111
        },
        {
          "name": "C5",
          "midi": 72,
          "time": 131.12904100000014,
          "velocity": 0.5748031496062992,
          "duration": 0.1461693645833293
        },
        {
          "name": "A4",
          "midi": 69,
          "time": 131.37097650000013,
          "velocity": 0.6141732283464567,
          "duration": 0.1562500104166702
        },
        {
          "name": "D5",
          "midi": 74,
          "time": 131.61291200000014,
          "velocity": 0.5748031496062992,
          "duration": 0.16129033333334064
        },
        {
          "name": "C5",
          "midi": 72,
          "time": 132.09678300000013,
          "velocity": 0.5669291338582677,
          "duration": 0.1562500104166702
        },
        {
          "name": "A4",
          "midi": 69,
          "time": 132.33871850000014,
          "velocity": 0.5826771653543307,
          "duration": 0.1562500104166702
        },
        {
          "name": "D5",
          "midi": 74,
          "time": 132.58065400000015,
          "velocity": 0.5354330708661418,
          "duration": 0.1562500104166702
        },
        {
          "name": "C5",
          "midi": 72,
          "time": 133.06452500000015,
          "velocity": 0.5511811023622047,
          "duration": 0.17641130208332356
        },
        {
          "name": "A4",
          "midi": 69,
          "time": 133.30646050000013,
          "velocity": 0.5748031496062992,
          "duration": 0.1461693645833293
        },
        {
          "name": "D5",
          "midi": 74,
          "time": 133.5483960000001,
          "velocity": 0.5433070866141733,
          "duration": 0.1562500104166702
        },
        {
          "name": "C5",
          "midi": 72,
          "time": 134.0322670000001,
          "velocity": 0.5354330708661418,
          "duration": 0.16129033333334064
        },
        {
          "name": "A4",
          "midi": 69,
          "time": 134.27420250000011,
          "velocity": 0.5354330708661418,
          "duration": 0.16129033333334064
        },
        {
          "name": "D5",
          "midi": 74,
          "time": 134.51613800000013,
          "velocity": 0.5433070866141733,
          "duration": 0.16129033333334064
        },
        {
          "name": "C5",
          "midi": 72,
          "time": 135.00000900000012,
          "velocity": 0.5354330708661418,
          "duration": 0.1461693645833293
        },
        {
          "name": "A4",
          "midi": 69,
          "time": 135.2419445000001,
          "velocity": 0.5433070866141733,
          "duration": 0.1915322708333349
        },
        {
          "name": "D5",
          "midi": 74,
          "time": 135.4838800000001,
          "velocity": 0.5669291338582677,
          "duration": 0.181451624999994
        },
        {
          "name": "C5",
          "midi": 72,
          "time": 135.9677510000001,
          "velocity": 0.5511811023622047,
          "duration": 0.17641130208332356
        },
        {
          "name": "A4",
          "midi": 69,
          "time": 136.2096865000001,
          "velocity": 0.5354330708661418,
          "duration": 0.1663306562500111
        },
        {
          "name": "D5",
          "midi": 74,
          "time": 136.4516220000001,
          "velocity": 0.5196850393700787,
          "duration": 0.1562500104166702
        },
        {
          "name": "C5",
          "midi": 72,
          "time": 136.9354930000001,
          "velocity": 0.5118110236220472,
          "duration": 0.1360887187499884
        },
        {
          "name": "A4",
          "midi": 69,
          "time": 137.17742850000008,
          "velocity": 0.5590551181102362,
          "duration": 0.16129033333334064
        },
        {
          "name": "D5",
          "midi": 74,
          "time": 137.4193640000001,
          "velocity": 0.5039370078740157,
          "duration": 0.14112904166665885
        },
        {
          "name": "C5",
          "midi": 72,
          "time": 137.90323500000008,
          "velocity": 0.5748031496062992,
          "duration": 0.16129033333334064
        },
        {
          "name": "A4",
          "midi": 69,
          "time": 138.1451705000001,
          "velocity": 0.6141732283464567,
          "duration": 0.15120968749999975
        },
        {
          "name": "D5",
          "midi": 74,
          "time": 138.3871060000001,
          "velocity": 0.5748031496062992,
          "duration": 0.14112904166665885
        },
        {
          "name": "C5",
          "midi": 72,
          "time": 138.8709770000001,
          "velocity": 0.6062992125984252,
          "duration": 0.14112904166665885
        },
        {
          "name": "A4",
          "midi": 69,
          "time": 139.11291250000008,
          "velocity": 0.5669291338582677,
          "duration": 0.16129033333334064
        },
        {
          "name": "D5",
          "midi": 74,
          "time": 139.3548480000001,
          "velocity": 0.5669291338582677,
          "duration": 0.1663306562500111
        },
        {
          "name": "C5",
          "midi": 72,
          "time": 139.8387190000001,
          "velocity": 0.5590551181102362,
          "duration": 0.1562500104166702
        },
        {
          "name": "A4",
          "midi": 69,
          "time": 140.08065450000012,
          "velocity": 0.5984251968503937,
          "duration": 0.16129033333334064
        },
        {
          "name": "D5",
          "midi": 74,
          "time": 140.32259000000013,
          "velocity": 0.5669291338582677,
          "duration": 0.14112904166665885
        },
        {
          "name": "C5",
          "midi": 72,
          "time": 140.80646100000013,
          "velocity": 0.5511811023622047,
          "duration": 0.1562500104166702
        },
        {
          "name": "A4",
          "midi": 69,
          "time": 141.04839650000014,
          "velocity": 0.5826771653543307,
          "duration": 0.15120968749999975
        },
        {
          "name": "D5",
          "midi": 74,
          "time": 141.29033200000015,
          "velocity": 0.5511811023622047,
          "duration": 0.14112904166665885
        },
        {
          "name": "C5",
          "midi": 72,
          "time": 141.77420300000014,
          "velocity": 0.5354330708661418,
          "duration": 0.1461693645833293
        },
        {
          "name": "A4",
          "midi": 69,
          "time": 142.01613850000012,
          "velocity": 0.5826771653543307,
          "duration": 0.15120968749999975
        },
        {
          "name": "D5",
          "midi": 74,
          "time": 142.25807400000014,
          "velocity": 0.5354330708661418,
          "duration": 0.15120968749999975
        },
        {
          "name": "C5",
          "midi": 72,
          "time": 142.74194500000013,
          "velocity": 0.49606299212598426,
          "duration": 0.1461693645833293
        },
        {
          "name": "A4",
          "midi": 69,
          "time": 142.9838805000001,
          "velocity": 0.5669291338582677,
          "duration": 0.1461693645833293
        },
        {
          "name": "D5",
          "midi": 74,
          "time": 143.2258160000001,
          "velocity": 0.5354330708661418,
          "duration": 0.15120968749999975
        },
        {
          "name": "C5",
          "midi": 72,
          "time": 143.7096870000001,
          "velocity": 0.4881889763779528,
          "duration": 0.12600807291667593
        },
        {
          "name": "A4",
          "midi": 69,
          "time": 143.9516225000001,
          "velocity": 0.5669291338582677,
          "duration": 0.14112904166665885
        },
        {
          "name": "D5",
          "midi": 74,
          "time": 144.19355800000008,
          "velocity": 0.5275590551181102,
          "duration": 0.14112904166665885
        },
        {
          "name": "C5",
          "midi": 72,
          "time": 144.67742900000007,
          "velocity": 0.5905511811023622,
          "duration": 0.12096775000000548
        },
        {
          "name": "A4",
          "midi": 69,
          "time": 144.91936450000009,
          "velocity": 0.5905511811023622,
          "duration": 0.15120968749999975
        },
        {
          "name": "D5",
          "midi": 74,
          "time": 145.1613000000001,
          "velocity": 0.5748031496062992,
          "duration": 0.14112904166665885
        },
        {
          "name": "C5",
          "midi": 72,
          "time": 145.6451710000001,
          "velocity": 0.5354330708661418,
          "duration": 0.14112904166665885
        },
        {
          "name": "A4",
          "midi": 69,
          "time": 145.88710650000007,
          "velocity": 0.6141732283464567,
          "duration": 0.14112904166665885
        },
        {
          "name": "D5",
          "midi": 74,
          "time": 146.12904200000006,
          "velocity": 0.5669291338582677,
          "duration": 0.1360887187499884
        },
        {
          "name": "C5",
          "midi": 72,
          "time": 146.61291300000005,
          "velocity": 0.5669291338582677,
          "duration": 0.1663306562500111
        },
        {
          "name": "A4",
          "midi": 69,
          "time": 146.85484850000006,
          "velocity": 0.5590551181102362,
          "duration": 0.14112904166665885
        },
        {
          "name": "D5",
          "midi": 74,
          "time": 147.09678400000004,
          "velocity": 0.5669291338582677,
          "duration": 0.1663306562500111
        },
        {
          "name": "C5",
          "midi": 72,
          "time": 147.58065500000006,
          "velocity": 0.5748031496062992,
          "duration": 0.1461693645833293
        },
        {
          "name": "A4",
          "midi": 69,
          "time": 147.82259050000005,
          "velocity": 0.5669291338582677,
          "duration": 0.14112904166665885
        },
        {
          "name": "D5",
          "midi": 74,
          "time": 148.06452600000003,
          "velocity": 0.5511811023622047,
          "duration": 0.1663306562500111
        },
        {
          "name": "C5",
          "midi": 72,
          "time": 148.54839700000005,
          "velocity": 0.5354330708661418,
          "duration": 0.16129033333334064
        },
        {
          "name": "A4",
          "midi": 69,
          "time": 148.79033250000006,
          "velocity": 0.5511811023622047,
          "duration": 0.1562500104166702
        },
        {
          "name": "D5",
          "midi": 74,
          "time": 149.03226800000007,
          "velocity": 0.5590551181102362,
          "duration": 0.181451624999994
        },
        {
          "name": "C5",
          "midi": 72,
          "time": 149.51613900000007,
          "velocity": 0.5354330708661418,
          "duration": 0.17641130208332356
        },
        {
          "name": "A4",
          "midi": 69,
          "time": 149.75807450000005,
          "velocity": 0.6141732283464567,
          "duration": 0.1461693645833293
        },
        {
          "name": "D5",
          "midi": 74,
          "time": 150.00001000000003,
          "velocity": 0.5590551181102362,
          "duration": 0.1562500104166702
        },
        {
          "name": "C5",
          "midi": 72,
          "time": 150.48388100000003,
          "velocity": 0.5275590551181102,
          "duration": 0.1562500104166702
        },
        {
          "name": "A4",
          "midi": 69,
          "time": 150.72581650000004,
          "velocity": 0.5984251968503937,
          "duration": 0.14112904166665885
        },
        {
          "name": "D5",
          "midi": 74,
          "time": 150.96775200000002,
          "velocity": 0.5669291338582677,
          "duration": 0.15120968749999975
        }
      ],
      "controlChanges": {},
      "id": 7,
      "name": "English Horn",
      "instrumentNumber": 69,
      "instrument": "english horn",
      "instrumentFamily": "reed",
      "channelNumber": 5,
      "isPercussion": false
    },
    {
      "startTime": 0.967742,
      "duration": 164.27420450000005,
      "length": 574,
      "notes": [
        {
          "name": "E6",
          "midi": 88,
          "time": 0.967742,
          "velocity": 0.6692913385826772,
          "duration": 1.8346775416666667
        },
        {
          "name": "F5",
          "midi": 77,
          "time": 0.967742,
          "velocity": 0.5433070866141733,
          "duration": 1.81451625
        },
        {
          "name": "A5",
          "midi": 81,
          "time": 0.967742,
          "velocity": 0.6141732283464567,
          "duration": 1.8245968958333334
        },
        {
          "name": "F6",
          "midi": 89,
          "time": 2.903226,
          "velocity": 0.6692913385826772,
          "duration": 0.9979839375000004
        },
        {
          "name": "E5",
          "midi": 76,
          "time": 2.903226,
          "velocity": 0.5354330708661418,
          "duration": 0.8971774791666669
        },
        {
          "name": "A5",
          "midi": 81,
          "time": 2.903226,
          "velocity": 0.6220472440944882,
          "duration": 0.8870968333333336
        },
        {
          "name": "D6",
          "midi": 86,
          "time": 3.8709680000000004,
          "velocity": 0.6377952755905512,
          "duration": 0.9475807083333327
        },
        {
          "name": "D5",
          "midi": 74,
          "time": 3.8709680000000004,
          "velocity": 0.5590551181102362,
          "duration": 0.8568548958333331
        },
        {
          "name": "A5",
          "midi": 81,
          "time": 3.8709680000000004,
          "velocity": 0.6220472440944882,
          "duration": 0.866935541666666
        },
        {
          "name": "D6",
          "midi": 86,
          "time": 4.83871,
          "velocity": 0.7007874015748031,
          "duration": 0.8064516666666668
        },
        {
          "name": "A5",
          "midi": 81,
          "time": 4.83871,
          "velocity": 0.5984251968503937,
          "duration": 0.8971774791666665
        },
        {
          "name": "D5",
          "midi": 74,
          "time": 4.83871,
          "velocity": 0.5748031496062992,
          "duration": 0.8770161874999998
        },
        {
          "name": "E6",
          "midi": 88,
          "time": 6.774194,
          "velocity": 0.6299212598425197,
          "duration": 1.8548388333333339
        },
        {
          "name": "F5",
          "midi": 77,
          "time": 6.774194,
          "velocity": 0.5984251968503937,
          "duration": 1.8750001249999997
        },
        {
          "name": "A5",
          "midi": 81,
          "time": 6.774194,
          "velocity": 0.6456692913385826,
          "duration": 1.8548388333333339
        },
        {
          "name": "F6",
          "midi": 89,
          "time": 8.709677999999998,
          "velocity": 0.6535433070866141,
          "duration": 0.917338770833334
        },
        {
          "name": "A5",
          "midi": 81,
          "time": 8.709677999999998,
          "velocity": 0.5590551181102362,
          "duration": 0.8266129583333335
        },
        {
          "name": "E5",
          "midi": 76,
          "time": 8.709677999999998,
          "velocity": 0.5354330708661418,
          "duration": 0.8266129583333335
        },
        {
          "name": "D6",
          "midi": 86,
          "time": 9.67742,
          "velocity": 0.5984251968503937,
          "duration": 0.8870968333333344
        },
        {
          "name": "A5",
          "midi": 81,
          "time": 9.67742,
          "velocity": 0.6220472440944882,
          "duration": 0.9072581250000002
        },
        {
          "name": "D5",
          "midi": 74,
          "time": 9.67742,
          "velocity": 0.5590551181102362,
          "duration": 0.8770161875000007
        },
        {
          "name": "D6",
          "midi": 86,
          "time": 10.645162,
          "velocity": 0.6220472440944882,
          "duration": 0.8165323124999997
        },
        {
          "name": "A5",
          "midi": 81,
          "time": 10.645162,
          "velocity": 0.5748031496062992,
          "duration": 0.8165323124999997
        },
        {
          "name": "D5",
          "midi": 74,
          "time": 10.645162,
          "velocity": 0.5905511811023622,
          "duration": 0.8064516666666659
        },
        {
          "name": "E6",
          "midi": 88,
          "time": 12.580645999999998,
          "velocity": 0.7165354330708661,
          "duration": 1.7338710833333337
        },
        {
          "name": "F5",
          "midi": 77,
          "time": 12.580645999999998,
          "velocity": 0.5748031496062992,
          "duration": 1.7540323749999995
        },
        {
          "name": "A5",
          "midi": 81,
          "time": 12.580645999999998,
          "velocity": 0.6062992125984252,
          "duration": 1.7641130208333333
        },
        {
          "name": "D6",
          "midi": 86,
          "time": 14.516129999999999,
          "velocity": 0.6220472440944882,
          "duration": 0.8770161875000007
        },
        {
          "name": "G5",
          "midi": 79,
          "time": 14.516129999999999,
          "velocity": 0.5984251968503937,
          "duration": 0.8266129583333335
        },
        {
          "name": "E5",
          "midi": 76,
          "time": 14.516129999999999,
          "velocity": 0.5354330708661418,
          "duration": 0.8669355416666669
        },
        {
          "name": "E6",
          "midi": 88,
          "time": 15.483872,
          "velocity": 0.5748031496062992,
          "duration": 0.9475807083333319
        },
        {
          "name": "A5",
          "midi": 81,
          "time": 15.483872,
          "velocity": 0.5826771653543307,
          "duration": 0.9979839375000008
        },
        {
          "name": "F5",
          "midi": 77,
          "time": 15.483872,
          "velocity": 0.5354330708661418,
          "duration": 0.9576613541666656
        },
        {
          "name": "D6",
          "midi": 86,
          "time": 16.451614,
          "velocity": 0.6141732283464567,
          "duration": 0.9375000624999998
        },
        {
          "name": "G5",
          "midi": 79,
          "time": 16.451614,
          "velocity": 0.6062992125984252,
          "duration": 0.9879032916666688
        },
        {
          "name": "E5",
          "midi": 76,
          "time": 16.451614,
          "velocity": 0.4881889763779528,
          "duration": 0.9979839375000026
        },
        {
          "name": "D6",
          "midi": 86,
          "time": 17.419356,
          "velocity": 0.6377952755905512,
          "duration": 0.7560484374999987
        },
        {
          "name": "G5",
          "midi": 79,
          "time": 17.419356,
          "velocity": 0.6692913385826772,
          "duration": 0.6552419791666679
        },
        {
          "name": "E5",
          "midi": 76,
          "time": 17.419356,
          "velocity": 0.5196850393700787,
          "duration": 0.6955645624999995
        },
        {
          "name": "E6",
          "midi": 88,
          "time": 18.387097999999998,
          "velocity": 0.6377952755905512,
          "duration": 0.7258065000000009
        },
        {
          "name": "A5",
          "midi": 81,
          "time": 18.387097999999998,
          "velocity": 0.5905511811023622,
          "duration": 0.7560484375000023
        },
        {
          "name": "F5",
          "midi": 77,
          "time": 18.387097999999998,
          "velocity": 0.5433070866141733,
          "duration": 0.7661290833333361
        },
        {
          "name": "E6",
          "midi": 88,
          "time": 19.35484,
          "velocity": 0.7480314960629921,
          "duration": 3.8508067083333337
        },
        {
          "name": "A5",
          "midi": 81,
          "time": 19.35484,
          "velocity": 0.6771653543307087,
          "duration": 3.8205647708333323
        },
        {
          "name": "E5",
          "midi": 76,
          "time": 19.35484,
          "velocity": 0.5905511811023622,
          "duration": 3.830645416666666
        },
        {
          "name": "D3",
          "midi": 50,
          "time": 46.6935515,
          "velocity": 0.31496062992125984,
          "duration": 0.786290374999993
        },
        {
          "name": "C4",
          "midi": 60,
          "time": 46.935486999999995,
          "velocity": 0.31496062992125984,
          "duration": 0.14112904166666596
        },
        {
          "name": "A3",
          "midi": 57,
          "time": 47.17742249999999,
          "velocity": 0.31496062992125984,
          "duration": 0.16129033333333354
        },
        {
          "name": "D4",
          "midi": 62,
          "time": 47.41935799999999,
          "velocity": 0.31496062992125984,
          "duration": 0.1562500104166702
        },
        {
          "name": "D3",
          "midi": 50,
          "time": 47.66129349999999,
          "velocity": 0.31496062992125984,
          "duration": 0.7762097291666592
        },
        {
          "name": "C4",
          "midi": 60,
          "time": 47.90322899999999,
          "velocity": 0.31496062992125984,
          "duration": 0.17641130208333067
        },
        {
          "name": "A3",
          "midi": 57,
          "time": 48.145164499999986,
          "velocity": 0.31496062992125984,
          "duration": 0.14112904166666596
        },
        {
          "name": "D4",
          "midi": 62,
          "time": 48.38709999999998,
          "velocity": 0.31496062992125984,
          "duration": 0.16129033333333354
        },
        {
          "name": "D3",
          "midi": 50,
          "time": 48.62903549999998,
          "velocity": 0.31496062992125984,
          "duration": 0.8064516666666606
        },
        {
          "name": "C4",
          "midi": 60,
          "time": 48.870970999999976,
          "velocity": 0.31496062992125984,
          "duration": 0.17641130208333067
        },
        {
          "name": "A3",
          "midi": 57,
          "time": 49.11290649999997,
          "velocity": 0.31496062992125984,
          "duration": 0.1461693645833364
        },
        {
          "name": "D4",
          "midi": 62,
          "time": 49.35484199999998,
          "velocity": 0.31496062992125984,
          "duration": 0.14112904166666596
        },
        {
          "name": "D3",
          "midi": 50,
          "time": 49.59677749999997,
          "velocity": 0.31496062992125984,
          "duration": 0.786290374999993
        },
        {
          "name": "C4",
          "midi": 60,
          "time": 49.83871299999997,
          "velocity": 0.31496062992125984,
          "duration": 0.14112904166666596
        },
        {
          "name": "A3",
          "midi": 57,
          "time": 50.08064849999997,
          "velocity": 0.31496062992125984,
          "duration": 0.16129033333333354
        },
        {
          "name": "D4",
          "midi": 62,
          "time": 50.322583999999964,
          "velocity": 0.31496062992125984,
          "duration": 0.1562500104166702
        },
        {
          "name": "D3",
          "midi": 50,
          "time": 50.56451949999997,
          "velocity": 0.31496062992125984,
          "duration": 0.7762097291666592
        },
        {
          "name": "C4",
          "midi": 60,
          "time": 50.806454999999964,
          "velocity": 0.31496062992125984,
          "duration": 0.17641130208333067
        },
        {
          "name": "A3",
          "midi": 57,
          "time": 51.04839049999996,
          "velocity": 0.31496062992125984,
          "duration": 0.14112904166666596
        },
        {
          "name": "D4",
          "midi": 62,
          "time": 51.29032599999996,
          "velocity": 0.31496062992125984,
          "duration": 0.16129033333333354
        },
        {
          "name": "D3",
          "midi": 50,
          "time": 51.532261499999954,
          "velocity": 0.31496062992125984,
          "duration": 0.8064516666666606
        },
        {
          "name": "C4",
          "midi": 60,
          "time": 51.77419699999995,
          "velocity": 0.31496062992125984,
          "duration": 0.17641130208333067
        },
        {
          "name": "A3",
          "midi": 57,
          "time": 52.01613249999995,
          "velocity": 0.31496062992125984,
          "duration": 0.1461693645833364
        },
        {
          "name": "D4",
          "midi": 62,
          "time": 52.25806799999995,
          "velocity": 0.31496062992125984,
          "duration": 0.14112904166666596
        },
        {
          "name": "D3",
          "midi": 50,
          "time": 52.50000349999995,
          "velocity": 0.31496062992125984,
          "duration": 0.786290374999993
        },
        {
          "name": "C4",
          "midi": 60,
          "time": 52.741938999999945,
          "velocity": 0.31496062992125984,
          "duration": 0.14112904166666596
        },
        {
          "name": "A3",
          "midi": 57,
          "time": 52.98387449999994,
          "velocity": 0.31496062992125984,
          "duration": 0.16129033333333354
        },
        {
          "name": "D4",
          "midi": 62,
          "time": 53.22580999999994,
          "velocity": 0.31496062992125984,
          "duration": 0.1562500104166702
        },
        {
          "name": "D3",
          "midi": 50,
          "time": 53.46774549999994,
          "velocity": 0.31496062992125984,
          "duration": 0.7762097291666592
        },
        {
          "name": "C4",
          "midi": 60,
          "time": 53.70968099999994,
          "velocity": 0.31496062992125984,
          "duration": 0.17641130208333067
        },
        {
          "name": "A3",
          "midi": 57,
          "time": 53.951616499999936,
          "velocity": 0.31496062992125984,
          "duration": 0.14112904166666596
        },
        {
          "name": "D4",
          "midi": 62,
          "time": 54.19355199999993,
          "velocity": 0.31496062992125984,
          "duration": 0.16129033333333354
        },
        {
          "name": "D3",
          "midi": 50,
          "time": 54.43548749999993,
          "velocity": 0.31496062992125984,
          "duration": 0.8064516666666606
        },
        {
          "name": "C4",
          "midi": 60,
          "time": 54.677422999999926,
          "velocity": 0.31496062992125984,
          "duration": 0.17641130208333067
        },
        {
          "name": "A3",
          "midi": 57,
          "time": 54.91935849999992,
          "velocity": 0.31496062992125984,
          "duration": 0.1461693645833364
        },
        {
          "name": "D4",
          "midi": 62,
          "time": 55.16129399999993,
          "velocity": 0.31496062992125984,
          "duration": 0.14112904166666596
        },
        {
          "name": "D3",
          "midi": 50,
          "time": 55.403229499999924,
          "velocity": 0.31496062992125984,
          "duration": 0.786290374999993
        },
        {
          "name": "C4",
          "midi": 60,
          "time": 55.64516499999992,
          "velocity": 0.31496062992125984,
          "duration": 0.14112904166666596
        },
        {
          "name": "A3",
          "midi": 57,
          "time": 55.88710049999992,
          "velocity": 0.31496062992125984,
          "duration": 0.16129033333333354
        },
        {
          "name": "D4",
          "midi": 62,
          "time": 56.129035999999914,
          "velocity": 0.31496062992125984,
          "duration": 0.1562500104166702
        },
        {
          "name": "D3",
          "midi": 50,
          "time": 56.37097149999992,
          "velocity": 0.31496062992125984,
          "duration": 0.7762097291666592
        },
        {
          "name": "C4",
          "midi": 60,
          "time": 56.612906999999915,
          "velocity": 0.31496062992125984,
          "duration": 0.17641130208333067
        },
        {
          "name": "A3",
          "midi": 57,
          "time": 56.85484249999991,
          "velocity": 0.31496062992125984,
          "duration": 0.14112904166666596
        },
        {
          "name": "D4",
          "midi": 62,
          "time": 57.09677799999991,
          "velocity": 0.31496062992125984,
          "duration": 0.16129033333333354
        },
        {
          "name": "D3",
          "midi": 50,
          "time": 57.338713499999905,
          "velocity": 0.31496062992125984,
          "duration": 0.8064516666666606
        },
        {
          "name": "C4",
          "midi": 60,
          "time": 57.5806489999999,
          "velocity": 0.31496062992125984,
          "duration": 0.17641130208333067
        },
        {
          "name": "A3",
          "midi": 57,
          "time": 57.8225844999999,
          "velocity": 0.31496062992125984,
          "duration": 0.1461693645833364
        },
        {
          "name": "D4",
          "midi": 62,
          "time": 58.0645199999999,
          "velocity": 0.31496062992125984,
          "duration": 0.14112904166666596
        },
        {
          "name": "D3",
          "midi": 50,
          "time": 81.5322634999999,
          "velocity": 0.31496062992125984,
          "duration": 0.7862903750000072
        },
        {
          "name": "C4",
          "midi": 60,
          "time": 81.7741989999999,
          "velocity": 0.31496062992125984,
          "duration": 0.14112904166667306
        },
        {
          "name": "A3",
          "midi": 57,
          "time": 82.01613449999991,
          "velocity": 0.31496062992125984,
          "duration": 0.16129033333332643
        },
        {
          "name": "D4",
          "midi": 62,
          "time": 82.2580699999999,
          "velocity": 0.31496062992125984,
          "duration": 0.1562500104166702
        },
        {
          "name": "D3",
          "midi": 50,
          "time": 82.5000054999999,
          "velocity": 0.31496062992125984,
          "duration": 0.7762097291666805
        },
        {
          "name": "C4",
          "midi": 60,
          "time": 82.7419409999999,
          "velocity": 0.31496062992125984,
          "duration": 0.17641130208333777
        },
        {
          "name": "A3",
          "midi": 57,
          "time": 82.98387649999991,
          "velocity": 0.31496062992125984,
          "duration": 0.14112904166667306
        },
        {
          "name": "D4",
          "midi": 62,
          "time": 83.22581199999992,
          "velocity": 0.31496062992125984,
          "duration": 0.16129033333332643
        },
        {
          "name": "D3",
          "midi": 50,
          "time": 83.46774749999992,
          "velocity": 0.31496062992125984,
          "duration": 0.8064516666666748
        },
        {
          "name": "C4",
          "midi": 60,
          "time": 83.70968299999991,
          "velocity": 0.31496062992125984,
          "duration": 0.17641130208333777
        },
        {
          "name": "A3",
          "midi": 57,
          "time": 83.95161849999992,
          "velocity": 0.31496062992125984,
          "duration": 0.1461693645833293
        },
        {
          "name": "D4",
          "midi": 62,
          "time": 84.19355399999992,
          "velocity": 0.31496062992125984,
          "duration": 0.14112904166667306
        },
        {
          "name": "D3",
          "midi": 50,
          "time": 84.43548949999993,
          "velocity": 0.31496062992125984,
          "duration": 0.7862903750000072
        },
        {
          "name": "C4",
          "midi": 60,
          "time": 84.67742499999993,
          "velocity": 0.31496062992125984,
          "duration": 0.14112904166667306
        },
        {
          "name": "A3",
          "midi": 57,
          "time": 84.91936049999994,
          "velocity": 0.31496062992125984,
          "duration": 0.16129033333332643
        },
        {
          "name": "D4",
          "midi": 62,
          "time": 85.16129599999994,
          "velocity": 0.31496062992125984,
          "duration": 0.1562500104166702
        },
        {
          "name": "D3",
          "midi": 50,
          "time": 85.40323149999993,
          "velocity": 0.31496062992125984,
          "duration": 0.7762097291666805
        },
        {
          "name": "C4",
          "midi": 60,
          "time": 85.64516699999993,
          "velocity": 0.31496062992125984,
          "duration": 0.17641130208333777
        },
        {
          "name": "A3",
          "midi": 57,
          "time": 85.88710249999994,
          "velocity": 0.31496062992125984,
          "duration": 0.14112904166667306
        },
        {
          "name": "D4",
          "midi": 62,
          "time": 86.12903799999995,
          "velocity": 0.31496062992125984,
          "duration": 0.16129033333332643
        },
        {
          "name": "D3",
          "midi": 50,
          "time": 86.37097349999995,
          "velocity": 0.31496062992125984,
          "duration": 0.8064516666666748
        },
        {
          "name": "C4",
          "midi": 60,
          "time": 86.61290899999995,
          "velocity": 0.31496062992125984,
          "duration": 0.17641130208333777
        },
        {
          "name": "A3",
          "midi": 57,
          "time": 86.85484449999996,
          "velocity": 0.31496062992125984,
          "duration": 0.1461693645833293
        },
        {
          "name": "D4",
          "midi": 62,
          "time": 87.09677999999995,
          "velocity": 0.31496062992125984,
          "duration": 0.14112904166667306
        },
        {
          "name": "D3",
          "midi": 50,
          "time": 87.33871549999996,
          "velocity": 0.31496062992125984,
          "duration": 0.7862903750000072
        },
        {
          "name": "C4",
          "midi": 60,
          "time": 87.58065099999996,
          "velocity": 0.31496062992125984,
          "duration": 0.14112904166667306
        },
        {
          "name": "A3",
          "midi": 57,
          "time": 87.82258649999997,
          "velocity": 0.31496062992125984,
          "duration": 0.16129033333332643
        },
        {
          "name": "D4",
          "midi": 62,
          "time": 88.06452199999997,
          "velocity": 0.31496062992125984,
          "duration": 0.1562500104166702
        },
        {
          "name": "D3",
          "midi": 50,
          "time": 88.30645749999996,
          "velocity": 0.31496062992125984,
          "duration": 0.7762097291666805
        },
        {
          "name": "C4",
          "midi": 60,
          "time": 88.54839299999996,
          "velocity": 0.31496062992125984,
          "duration": 0.17641130208333777
        },
        {
          "name": "A3",
          "midi": 57,
          "time": 88.79032849999997,
          "velocity": 0.31496062992125984,
          "duration": 0.14112904166667306
        },
        {
          "name": "D4",
          "midi": 62,
          "time": 89.03226399999998,
          "velocity": 0.31496062992125984,
          "duration": 0.16129033333332643
        },
        {
          "name": "D3",
          "midi": 50,
          "time": 89.27419949999998,
          "velocity": 0.31496062992125984,
          "duration": 0.8064516666666748
        },
        {
          "name": "C4",
          "midi": 60,
          "time": 89.51613499999998,
          "velocity": 0.31496062992125984,
          "duration": 0.17641130208333777
        },
        {
          "name": "A3",
          "midi": 57,
          "time": 89.75807049999999,
          "velocity": 0.31496062992125984,
          "duration": 0.1461693645833293
        },
        {
          "name": "D4",
          "midi": 62,
          "time": 90.00000599999998,
          "velocity": 0.31496062992125984,
          "duration": 0.14112904166667306
        },
        {
          "name": "D3",
          "midi": 50,
          "time": 90.2419415,
          "velocity": 0.31496062992125984,
          "duration": 0.7862903750000072
        },
        {
          "name": "C4",
          "midi": 60,
          "time": 90.48387699999999,
          "velocity": 0.31496062992125984,
          "duration": 0.14112904166667306
        },
        {
          "name": "A3",
          "midi": 57,
          "time": 90.7258125,
          "velocity": 0.31496062992125984,
          "duration": 0.16129033333332643
        },
        {
          "name": "D4",
          "midi": 62,
          "time": 90.967748,
          "velocity": 0.31496062992125984,
          "duration": 0.1562500104166702
        },
        {
          "name": "D3",
          "midi": 50,
          "time": 91.2096835,
          "velocity": 0.31496062992125984,
          "duration": 0.7762097291666805
        },
        {
          "name": "C4",
          "midi": 60,
          "time": 91.451619,
          "velocity": 0.31496062992125984,
          "duration": 0.17641130208333777
        },
        {
          "name": "A3",
          "midi": 57,
          "time": 91.6935545,
          "velocity": 0.31496062992125984,
          "duration": 0.14112904166667306
        },
        {
          "name": "D4",
          "midi": 62,
          "time": 91.93549000000002,
          "velocity": 0.31496062992125984,
          "duration": 0.16129033333332643
        },
        {
          "name": "D3",
          "midi": 50,
          "time": 92.17742550000001,
          "velocity": 0.31496062992125984,
          "duration": 0.8064516666666748
        },
        {
          "name": "C4",
          "midi": 60,
          "time": 92.41936100000001,
          "velocity": 0.31496062992125984,
          "duration": 0.17641130208333777
        },
        {
          "name": "A3",
          "midi": 57,
          "time": 92.66129650000002,
          "velocity": 0.31496062992125984,
          "duration": 0.1461693645833293
        },
        {
          "name": "D4",
          "midi": 62,
          "time": 92.90323200000002,
          "velocity": 0.31496062992125984,
          "duration": 0.14112904166667306
        },
        {
          "name": "D3",
          "midi": 50,
          "time": 93.14516750000003,
          "velocity": 0.31496062992125984,
          "duration": 0.7862903750000072
        },
        {
          "name": "C4",
          "midi": 60,
          "time": 93.38710300000002,
          "velocity": 0.31496062992125984,
          "duration": 0.14112904166667306
        },
        {
          "name": "A3",
          "midi": 57,
          "time": 93.62903850000004,
          "velocity": 0.31496062992125984,
          "duration": 0.16129033333332643
        },
        {
          "name": "D4",
          "midi": 62,
          "time": 93.87097400000003,
          "velocity": 0.31496062992125984,
          "duration": 0.1562500104166702
        },
        {
          "name": "D3",
          "midi": 50,
          "time": 94.11290950000003,
          "velocity": 0.31496062992125984,
          "duration": 0.7762097291666805
        },
        {
          "name": "C4",
          "midi": 60,
          "time": 94.35484500000003,
          "velocity": 0.31496062992125984,
          "duration": 0.17641130208333777
        },
        {
          "name": "A3",
          "midi": 57,
          "time": 94.59678050000004,
          "velocity": 0.31496062992125984,
          "duration": 0.14112904166667306
        },
        {
          "name": "D4",
          "midi": 62,
          "time": 94.83871600000005,
          "velocity": 0.31496062992125984,
          "duration": 0.16129033333332643
        },
        {
          "name": "D3",
          "midi": 50,
          "time": 95.08065150000004,
          "velocity": 0.31496062992125984,
          "duration": 0.8064516666666748
        },
        {
          "name": "C4",
          "midi": 60,
          "time": 95.32258700000004,
          "velocity": 0.31496062992125984,
          "duration": 0.17641130208333777
        },
        {
          "name": "A3",
          "midi": 57,
          "time": 95.56452250000005,
          "velocity": 0.31496062992125984,
          "duration": 0.1461693645833293
        },
        {
          "name": "D4",
          "midi": 62,
          "time": 95.80645800000005,
          "velocity": 0.31496062992125984,
          "duration": 0.14112904166667306
        },
        {
          "name": "D3",
          "midi": 50,
          "time": 96.04839350000006,
          "velocity": 0.31496062992125984,
          "duration": 0.7862903750000072
        },
        {
          "name": "C4",
          "midi": 60,
          "time": 96.29032900000006,
          "velocity": 0.31496062992125984,
          "duration": 0.14112904166667306
        },
        {
          "name": "A3",
          "midi": 57,
          "time": 96.53226450000007,
          "velocity": 0.31496062992125984,
          "duration": 0.16129033333332643
        },
        {
          "name": "D4",
          "midi": 62,
          "time": 96.77420000000006,
          "velocity": 0.31496062992125984,
          "duration": 0.1562500104166702
        },
        {
          "name": "D3",
          "midi": 50,
          "time": 97.01613550000006,
          "velocity": 0.31496062992125984,
          "duration": 0.7762097291666805
        },
        {
          "name": "C4",
          "midi": 60,
          "time": 97.25807100000006,
          "velocity": 0.31496062992125984,
          "duration": 0.17641130208333777
        },
        {
          "name": "A3",
          "midi": 57,
          "time": 97.50000650000007,
          "velocity": 0.31496062992125984,
          "duration": 0.14112904166667306
        },
        {
          "name": "D4",
          "midi": 62,
          "time": 97.74194200000008,
          "velocity": 0.31496062992125984,
          "duration": 0.16129033333332643
        },
        {
          "name": "D3",
          "midi": 50,
          "time": 97.98387750000008,
          "velocity": 0.31496062992125984,
          "duration": 0.8064516666666748
        },
        {
          "name": "C4",
          "midi": 60,
          "time": 98.22581300000007,
          "velocity": 0.31496062992125984,
          "duration": 0.17641130208333777
        },
        {
          "name": "A3",
          "midi": 57,
          "time": 98.46774850000008,
          "velocity": 0.31496062992125984,
          "duration": 0.1461693645833293
        },
        {
          "name": "D4",
          "midi": 62,
          "time": 98.70968400000008,
          "velocity": 0.31496062992125984,
          "duration": 0.14112904166667306
        },
        {
          "name": "D3",
          "midi": 50,
          "time": 98.95161950000009,
          "velocity": 0.31496062992125984,
          "duration": 0.7862903750000072
        },
        {
          "name": "C4",
          "midi": 60,
          "time": 99.19355500000009,
          "velocity": 0.31496062992125984,
          "duration": 0.14112904166667306
        },
        {
          "name": "A3",
          "midi": 57,
          "time": 99.4354905000001,
          "velocity": 0.31496062992125984,
          "duration": 0.16129033333332643
        },
        {
          "name": "D4",
          "midi": 62,
          "time": 99.6774260000001,
          "velocity": 0.31496062992125984,
          "duration": 0.1562500104166702
        },
        {
          "name": "D3",
          "midi": 50,
          "time": 99.9193615000001,
          "velocity": 0.31496062992125984,
          "duration": 0.7762097291666805
        },
        {
          "name": "C4",
          "midi": 60,
          "time": 100.16129700000009,
          "velocity": 0.31496062992125984,
          "duration": 0.17641130208333777
        },
        {
          "name": "A3",
          "midi": 57,
          "time": 100.4032325000001,
          "velocity": 0.31496062992125984,
          "duration": 0.14112904166667306
        },
        {
          "name": "D4",
          "midi": 62,
          "time": 100.64516800000011,
          "velocity": 0.31496062992125984,
          "duration": 0.16129033333332643
        },
        {
          "name": "D3",
          "midi": 50,
          "time": 100.88710350000011,
          "velocity": 0.31496062992125984,
          "duration": 0.8064516666666748
        },
        {
          "name": "C4",
          "midi": 60,
          "time": 101.1290390000001,
          "velocity": 0.31496062992125984,
          "duration": 0.17641130208333777
        },
        {
          "name": "A3",
          "midi": 57,
          "time": 101.37097450000012,
          "velocity": 0.31496062992125984,
          "duration": 0.1461693645833293
        },
        {
          "name": "D4",
          "midi": 62,
          "time": 101.61291000000011,
          "velocity": 0.31496062992125984,
          "duration": 0.14112904166667306
        },
        {
          "name": "D3",
          "midi": 50,
          "time": 101.85484550000012,
          "velocity": 0.31496062992125984,
          "duration": 0.7862903750000072
        },
        {
          "name": "C4",
          "midi": 60,
          "time": 102.09678100000012,
          "velocity": 0.31496062992125984,
          "duration": 0.14112904166667306
        },
        {
          "name": "A3",
          "midi": 57,
          "time": 102.33871650000013,
          "velocity": 0.31496062992125984,
          "duration": 0.16129033333332643
        },
        {
          "name": "D4",
          "midi": 62,
          "time": 102.58065200000013,
          "velocity": 0.31496062992125984,
          "duration": 0.1562500104166702
        },
        {
          "name": "D3",
          "midi": 50,
          "time": 102.82258750000013,
          "velocity": 0.31496062992125984,
          "duration": 0.7762097291666805
        },
        {
          "name": "C4",
          "midi": 60,
          "time": 103.06452300000012,
          "velocity": 0.31496062992125984,
          "duration": 0.17641130208333777
        },
        {
          "name": "A3",
          "midi": 57,
          "time": 103.30645850000013,
          "velocity": 0.31496062992125984,
          "duration": 0.14112904166667306
        },
        {
          "name": "D4",
          "midi": 62,
          "time": 103.54839400000014,
          "velocity": 0.31496062992125984,
          "duration": 0.16129033333332643
        },
        {
          "name": "D3",
          "midi": 50,
          "time": 103.79032950000014,
          "velocity": 0.31496062992125984,
          "duration": 0.8064516666666748
        },
        {
          "name": "C4",
          "midi": 60,
          "time": 104.03226500000014,
          "velocity": 0.31496062992125984,
          "duration": 0.17641130208333777
        },
        {
          "name": "A3",
          "midi": 57,
          "time": 104.27420050000015,
          "velocity": 0.31496062992125984,
          "duration": 0.1461693645833293
        },
        {
          "name": "D4",
          "midi": 62,
          "time": 104.51613600000015,
          "velocity": 0.31496062992125984,
          "duration": 0.14112904166667306
        },
        {
          "name": "D4",
          "midi": 62,
          "time": 104.75807150000016,
          "velocity": 0.7244094488188977,
          "duration": 0.1915322708333349
        },
        {
          "name": "C6",
          "midi": 84,
          "time": 105.00000700000015,
          "velocity": 0.5826771653543307,
          "duration": 0.16633065624999688
        },
        {
          "name": "C5",
          "midi": 72,
          "time": 105.00000700000015,
          "velocity": 0.6929133858267716,
          "duration": 0.19657259374999114
        },
        {
          "name": "A5",
          "midi": 81,
          "time": 105.24194250000015,
          "velocity": 0.5748031496062992,
          "duration": 0.17137097916666733
        },
        {
          "name": "A4",
          "midi": 69,
          "time": 105.24194250000015,
          "velocity": 0.6850393700787402,
          "duration": 0.1562500104166702
        },
        {
          "name": "D6",
          "midi": 86,
          "time": 105.48387800000015,
          "velocity": 0.6456692913385826,
          "duration": 0.18145162500000822
        },
        {
          "name": "D5",
          "midi": 74,
          "time": 105.48387800000015,
          "velocity": 0.6850393700787402,
          "duration": 0.17641130208333777
        },
        {
          "name": "D4",
          "midi": 62,
          "time": 105.72581350000016,
          "velocity": 0.7401574803149606,
          "duration": 0.181451624999994
        },
        {
          "name": "C6",
          "midi": 84,
          "time": 105.96774900000015,
          "velocity": 0.6929133858267716,
          "duration": 0.16129033333332643
        },
        {
          "name": "C5",
          "midi": 72,
          "time": 105.96774900000015,
          "velocity": 0.6850393700787402,
          "duration": 0.181451624999994
        },
        {
          "name": "A5",
          "midi": 81,
          "time": 106.20968450000015,
          "velocity": 0.48031496062992124,
          "duration": 0.1562500104166702
        },
        {
          "name": "A4",
          "midi": 69,
          "time": 106.20968450000015,
          "velocity": 0.5354330708661418,
          "duration": 0.14112904166667306
        },
        {
          "name": "D6",
          "midi": 86,
          "time": 106.45162000000015,
          "velocity": 0.5354330708661418,
          "duration": 0.1461693645833293
        },
        {
          "name": "D5",
          "midi": 74,
          "time": 106.45162000000015,
          "velocity": 0.5354330708661418,
          "duration": 0.15625001041665598
        },
        {
          "name": "D4",
          "midi": 62,
          "time": 106.69355550000013,
          "velocity": 0.5748031496062992,
          "duration": 0.15120968749999975
        },
        {
          "name": "C6",
          "midi": 84,
          "time": 106.93549100000013,
          "velocity": 0.5275590551181102,
          "duration": 0.16129033333332643
        },
        {
          "name": "C5",
          "midi": 72,
          "time": 106.93549100000013,
          "velocity": 0.5118110236220472,
          "duration": 0.16129033333332643
        },
        {
          "name": "A5",
          "midi": 81,
          "time": 107.17742650000012,
          "velocity": 0.4881889763779528,
          "duration": 0.1461693645833293
        },
        {
          "name": "A4",
          "midi": 69,
          "time": 107.17742650000012,
          "velocity": 0.5511811023622047,
          "duration": 0.12600807291666172
        },
        {
          "name": "D6",
          "midi": 86,
          "time": 107.41936200000012,
          "velocity": 0.5118110236220472,
          "duration": 0.13104839583333217
        },
        {
          "name": "D5",
          "midi": 74,
          "time": 107.41936200000012,
          "velocity": 0.5590551181102362,
          "duration": 0.12600807291666172
        },
        {
          "name": "D4",
          "midi": 62,
          "time": 107.66129750000012,
          "velocity": 0.5826771653543307,
          "duration": 0.14112904166667306
        },
        {
          "name": "C6",
          "midi": 84,
          "time": 107.90323300000013,
          "velocity": 0.5118110236220472,
          "duration": 0.16129033333334064
        },
        {
          "name": "C5",
          "midi": 72,
          "time": 107.90323300000013,
          "velocity": 0.5354330708661418,
          "duration": 0.1562500104166702
        },
        {
          "name": "A5",
          "midi": 81,
          "time": 108.14516850000014,
          "velocity": 0.48031496062992124,
          "duration": 0.16633065624999688
        },
        {
          "name": "A4",
          "midi": 69,
          "time": 108.14516850000014,
          "velocity": 0.5669291338582677,
          "duration": 0.1360887187500026
        },
        {
          "name": "D6",
          "midi": 86,
          "time": 108.38710400000014,
          "velocity": 0.5118110236220472,
          "duration": 0.14112904166667306
        },
        {
          "name": "D5",
          "midi": 74,
          "time": 108.38710400000014,
          "velocity": 0.5275590551181102,
          "duration": 0.1562500104166702
        },
        {
          "name": "D4",
          "midi": 62,
          "time": 108.62903950000013,
          "velocity": 0.5590551181102362,
          "duration": 0.16129033333332643
        },
        {
          "name": "C6",
          "midi": 84,
          "time": 108.87097500000013,
          "velocity": 0.5039370078740157,
          "duration": 0.1562500104166702
        },
        {
          "name": "C5",
          "midi": 72,
          "time": 108.87097500000013,
          "velocity": 0.4881889763779528,
          "duration": 0.14112904166667306
        },
        {
          "name": "A5",
          "midi": 81,
          "time": 109.11291050000013,
          "velocity": 0.4881889763779528,
          "duration": 0.14112904166667306
        },
        {
          "name": "A4",
          "midi": 69,
          "time": 109.11291050000013,
          "velocity": 0.47244094488188976,
          "duration": 0.1360887187500026
        },
        {
          "name": "D6",
          "midi": 86,
          "time": 109.35484600000014,
          "velocity": 0.5039370078740157,
          "duration": 0.16129033333332643
        },
        {
          "name": "D5",
          "midi": 74,
          "time": 109.35484600000014,
          "velocity": 0.49606299212598426,
          "duration": 0.12600807291666172
        },
        {
          "name": "D4",
          "midi": 62,
          "time": 109.59678150000013,
          "velocity": 0.5354330708661418,
          "duration": 0.14112904166667306
        },
        {
          "name": "C6",
          "midi": 84,
          "time": 109.83871700000014,
          "velocity": 0.5118110236220472,
          "duration": 0.14112904166667306
        },
        {
          "name": "C5",
          "midi": 72,
          "time": 109.83871700000014,
          "velocity": 0.4881889763779528,
          "duration": 0.1461693645833435
        },
        {
          "name": "A5",
          "midi": 81,
          "time": 110.08065250000016,
          "velocity": 0.47244094488188976,
          "duration": 0.13104839583333217
        },
        {
          "name": "A4",
          "midi": 69,
          "time": 110.08065250000016,
          "velocity": 0.47244094488188976,
          "duration": 0.11592742708333503
        },
        {
          "name": "D6",
          "midi": 86,
          "time": 110.32258800000015,
          "velocity": 0.48031496062992124,
          "duration": 0.1461693645833293
        },
        {
          "name": "D5",
          "midi": 74,
          "time": 110.32258800000015,
          "velocity": 0.4881889763779528,
          "duration": 0.1360887187500026
        },
        {
          "name": "D4",
          "midi": 62,
          "time": 110.56452350000015,
          "velocity": 0.5354330708661418,
          "duration": 0.13104839583333217
        },
        {
          "name": "C6",
          "midi": 84,
          "time": 110.80645900000015,
          "velocity": 0.5118110236220472,
          "duration": 0.15120968749999975
        },
        {
          "name": "C5",
          "midi": 72,
          "time": 110.80645900000015,
          "velocity": 0.5039370078740157,
          "duration": 0.13104839583333217
        },
        {
          "name": "A5",
          "midi": 81,
          "time": 111.04839450000014,
          "velocity": 0.47244094488188976,
          "duration": 0.1461693645833293
        },
        {
          "name": "A4",
          "midi": 69,
          "time": 111.04839450000014,
          "velocity": 0.47244094488188976,
          "duration": 0.12600807291666172
        },
        {
          "name": "D6",
          "midi": 86,
          "time": 111.29033000000014,
          "velocity": 0.5039370078740157,
          "duration": 0.16129033333334064
        },
        {
          "name": "D5",
          "midi": 74,
          "time": 111.29033000000014,
          "velocity": 0.4881889763779528,
          "duration": 0.11592742708333503
        },
        {
          "name": "D4",
          "midi": 62,
          "time": 111.53226550000015,
          "velocity": 0.5196850393700787,
          "duration": 0.13104839583333217
        },
        {
          "name": "C6",
          "midi": 84,
          "time": 111.77420100000015,
          "velocity": 0.5118110236220472,
          "duration": 0.1562500104166702
        },
        {
          "name": "C5",
          "midi": 72,
          "time": 111.77420100000015,
          "velocity": 0.5039370078740157,
          "duration": 0.1360887187500026
        },
        {
          "name": "A5",
          "midi": 81,
          "time": 112.01613650000014,
          "velocity": 0.5039370078740157,
          "duration": 0.14112904166667306
        },
        {
          "name": "A4",
          "midi": 69,
          "time": 112.01613650000014,
          "velocity": 0.4881889763779528,
          "duration": 0.12096775000000548
        },
        {
          "name": "D6",
          "midi": 86,
          "time": 112.25807200000015,
          "velocity": 0.4881889763779528,
          "duration": 0.1461693645833293
        },
        {
          "name": "D5",
          "midi": 74,
          "time": 112.25807200000015,
          "velocity": 0.4881889763779528,
          "duration": 0.12600807291666172
        },
        {
          "name": "D4",
          "midi": 62,
          "time": 112.50000750000015,
          "velocity": 0.5196850393700787,
          "duration": 0.12600807291666172
        },
        {
          "name": "C6",
          "midi": 84,
          "time": 112.74194300000015,
          "velocity": 0.5196850393700787,
          "duration": 0.1562500104166702
        },
        {
          "name": "C5",
          "midi": 72,
          "time": 112.74194300000015,
          "velocity": 0.4645669291338583,
          "duration": 0.1360887187500026
        },
        {
          "name": "A5",
          "midi": 81,
          "time": 112.98387850000015,
          "velocity": 0.4881889763779528,
          "duration": 0.1562500104166702
        },
        {
          "name": "A4",
          "midi": 69,
          "time": 112.98387850000015,
          "velocity": 0.4881889763779528,
          "duration": 0.13104839583333217
        },
        {
          "name": "D6",
          "midi": 86,
          "time": 113.22581400000014,
          "velocity": 0.48031496062992124,
          "duration": 0.16129033333332643
        },
        {
          "name": "D5",
          "midi": 74,
          "time": 113.22581400000014,
          "velocity": 0.47244094488188976,
          "duration": 0.12600807291666172
        },
        {
          "name": "D4",
          "midi": 62,
          "time": 113.46774950000014,
          "velocity": 0.5039370078740157,
          "duration": 0.14112904166667306
        },
        {
          "name": "C6",
          "midi": 84,
          "time": 113.70968500000015,
          "velocity": 0.47244094488188976,
          "duration": 0.17641130208332356
        },
        {
          "name": "C5",
          "midi": 72,
          "time": 113.70968500000015,
          "velocity": 0.4409448818897638,
          "duration": 0.12600807291666172
        },
        {
          "name": "A5",
          "midi": 81,
          "time": 113.95162050000015,
          "velocity": 0.47244094488188976,
          "duration": 0.1461693645833435
        },
        {
          "name": "A4",
          "midi": 69,
          "time": 113.95162050000015,
          "velocity": 0.44881889763779526,
          "duration": 0.12096775000000548
        },
        {
          "name": "D6",
          "midi": 86,
          "time": 114.19355600000016,
          "velocity": 0.4881889763779528,
          "duration": 0.1562500104166702
        },
        {
          "name": "D5",
          "midi": 74,
          "time": 114.19355600000016,
          "velocity": 0.4645669291338583,
          "duration": 0.12096775000000548
        },
        {
          "name": "D4",
          "midi": 62,
          "time": 114.43549150000015,
          "velocity": 0.4881889763779528,
          "duration": 0.12600807291666172
        },
        {
          "name": "C6",
          "midi": 84,
          "time": 114.67742700000015,
          "velocity": 0.5196850393700787,
          "duration": 0.16633065624999688
        },
        {
          "name": "C5",
          "midi": 72,
          "time": 114.67742700000015,
          "velocity": 0.4566929133858268,
          "duration": 0.16129033333332643
        },
        {
          "name": "A5",
          "midi": 81,
          "time": 114.91936250000015,
          "velocity": 0.47244094488188976,
          "duration": 0.1562500104166702
        },
        {
          "name": "A4",
          "midi": 69,
          "time": 114.91936250000015,
          "velocity": 0.4881889763779528,
          "duration": 0.14112904166667306
        },
        {
          "name": "D6",
          "midi": 86,
          "time": 115.16129800000014,
          "velocity": 0.49606299212598426,
          "duration": 0.1461693645833293
        },
        {
          "name": "D5",
          "midi": 74,
          "time": 115.16129800000014,
          "velocity": 0.47244094488188976,
          "duration": 0.1360887187500026
        },
        {
          "name": "D4",
          "midi": 62,
          "time": 115.40323350000014,
          "velocity": 0.4645669291338583,
          "duration": 0.12096775000000548
        },
        {
          "name": "C6",
          "midi": 84,
          "time": 115.64516900000015,
          "velocity": 0.5118110236220472,
          "duration": 0.1461693645833293
        },
        {
          "name": "C5",
          "midi": 72,
          "time": 115.64516900000015,
          "velocity": 0.4330708661417323,
          "duration": 0.1461693645833293
        },
        {
          "name": "A5",
          "midi": 81,
          "time": 115.88710450000015,
          "velocity": 0.4881889763779528,
          "duration": 0.15625001041665598
        },
        {
          "name": "A4",
          "midi": 69,
          "time": 115.88710450000015,
          "velocity": 0.3779527559055118,
          "duration": 0.12600807291666172
        },
        {
          "name": "D6",
          "midi": 86,
          "time": 116.12904000000013,
          "velocity": 0.4881889763779528,
          "duration": 0.14112904166667306
        },
        {
          "name": "D5",
          "midi": 74,
          "time": 116.12904000000013,
          "velocity": 0.4881889763779528,
          "duration": 0.12096775000000548
        },
        {
          "name": "D4",
          "midi": 62,
          "time": 116.37097550000014,
          "velocity": 0.4881889763779528,
          "duration": 0.14112904166667306
        },
        {
          "name": "C6",
          "midi": 84,
          "time": 116.61291100000015,
          "velocity": 0.5354330708661418,
          "duration": 0.16129033333334064
        },
        {
          "name": "C5",
          "midi": 72,
          "time": 116.61291100000015,
          "velocity": 0.4881889763779528,
          "duration": 0.1562500104166702
        },
        {
          "name": "A5",
          "midi": 81,
          "time": 116.85484650000016,
          "velocity": 0.5039370078740157,
          "duration": 0.15625001041665598
        },
        {
          "name": "A4",
          "midi": 69,
          "time": 116.85484650000016,
          "velocity": 0.4566929133858268,
          "duration": 0.12600807291666172
        },
        {
          "name": "D6",
          "midi": 86,
          "time": 117.09678200000015,
          "velocity": 0.5039370078740157,
          "duration": 0.16129033333334064
        },
        {
          "name": "D5",
          "midi": 74,
          "time": 117.09678200000015,
          "velocity": 0.4409448818897638,
          "duration": 0.12096775000000548
        },
        {
          "name": "D4",
          "midi": 62,
          "time": 117.33871750000016,
          "velocity": 0.5039370078740157,
          "duration": 0.1360887187500026
        },
        {
          "name": "C6",
          "midi": 84,
          "time": 117.58065300000015,
          "velocity": 0.5433070866141733,
          "duration": 0.15625001041665598
        },
        {
          "name": "C5",
          "midi": 72,
          "time": 117.58065300000015,
          "velocity": 0.4881889763779528,
          "duration": 0.1461693645833293
        },
        {
          "name": "A5",
          "midi": 81,
          "time": 117.82258850000014,
          "velocity": 0.4881889763779528,
          "duration": 0.16129033333332643
        },
        {
          "name": "A4",
          "midi": 69,
          "time": 117.82258850000014,
          "velocity": 0.4881889763779528,
          "duration": 0.12600807291666172
        },
        {
          "name": "D6",
          "midi": 86,
          "time": 118.06452400000013,
          "velocity": 0.5118110236220472,
          "duration": 0.1461693645833293
        },
        {
          "name": "D5",
          "midi": 74,
          "time": 118.06452400000013,
          "velocity": 0.5118110236220472,
          "duration": 0.12600807291666172
        },
        {
          "name": "D4",
          "midi": 62,
          "time": 118.30645950000013,
          "velocity": 0.5196850393700787,
          "duration": 0.1360887187500026
        },
        {
          "name": "C6",
          "midi": 84,
          "time": 118.54839500000013,
          "velocity": 0.5196850393700787,
          "duration": 0.1461693645833435
        },
        {
          "name": "C5",
          "midi": 72,
          "time": 118.54839500000013,
          "velocity": 0.47244094488188976,
          "duration": 0.14112904166667306
        },
        {
          "name": "A5",
          "midi": 81,
          "time": 118.79033050000014,
          "velocity": 0.5039370078740157,
          "duration": 0.13104839583333217
        },
        {
          "name": "A4",
          "midi": 69,
          "time": 118.79033050000014,
          "velocity": 0.48031496062992124,
          "duration": 0.14112904166665885
        },
        {
          "name": "D6",
          "midi": 86,
          "time": 119.03226600000013,
          "velocity": 0.4881889763779528,
          "duration": 0.14112904166667306
        },
        {
          "name": "D5",
          "midi": 74,
          "time": 119.03226600000013,
          "velocity": 0.47244094488188976,
          "duration": 0.14112904166667306
        },
        {
          "name": "D4",
          "midi": 62,
          "time": 119.27420150000015,
          "velocity": 0.4881889763779528,
          "duration": 0.11592742708333503
        },
        {
          "name": "C6",
          "midi": 84,
          "time": 119.51613700000014,
          "velocity": 0.4881889763779528,
          "duration": 0.14112904166667306
        },
        {
          "name": "C5",
          "midi": 72,
          "time": 119.51613700000014,
          "velocity": 0.49606299212598426,
          "duration": 0.1461693645833435
        },
        {
          "name": "A5",
          "midi": 81,
          "time": 119.75807250000015,
          "velocity": 0.47244094488188976,
          "duration": 0.17137097916666733
        },
        {
          "name": "A4",
          "midi": 69,
          "time": 119.75807250000015,
          "velocity": 0.4094488188976378,
          "duration": 0.11088710416666459
        },
        {
          "name": "D6",
          "midi": 86,
          "time": 120.00000800000015,
          "velocity": 0.5039370078740157,
          "duration": 0.1360887187500026
        },
        {
          "name": "D5",
          "midi": 74,
          "time": 120.00000800000015,
          "velocity": 0.47244094488188976,
          "duration": 0.12096775000000548
        },
        {
          "name": "D4",
          "midi": 62,
          "time": 120.24194350000015,
          "velocity": 0.44881889763779526,
          "duration": 0.11592742708333503
        },
        {
          "name": "C6",
          "midi": 84,
          "time": 120.48387900000014,
          "velocity": 0.4881889763779528,
          "duration": 0.15625001041665598
        },
        {
          "name": "C5",
          "midi": 72,
          "time": 120.48387900000014,
          "velocity": 0.47244094488188976,
          "duration": 0.1461693645833293
        },
        {
          "name": "A5",
          "midi": 81,
          "time": 120.72581450000013,
          "velocity": 0.47244094488188976,
          "duration": 0.17137097916666733
        },
        {
          "name": "A4",
          "midi": 69,
          "time": 120.72581450000013,
          "velocity": 0.4566929133858268,
          "duration": 0.12096775000000548
        },
        {
          "name": "D6",
          "midi": 86,
          "time": 120.96775000000012,
          "velocity": 0.49606299212598426,
          "duration": 0.18145162500000822
        },
        {
          "name": "D5",
          "midi": 74,
          "time": 120.96775000000012,
          "velocity": 0.47244094488188976,
          "duration": 0.1360887187500026
        },
        {
          "name": "D4",
          "midi": 62,
          "time": 121.20968550000013,
          "velocity": 0.4409448818897638,
          "duration": 0.12096775000000548
        },
        {
          "name": "C6",
          "midi": 84,
          "time": 121.45162100000015,
          "velocity": 0.5118110236220472,
          "duration": 0.1562500104166702
        },
        {
          "name": "C5",
          "midi": 72,
          "time": 121.45162100000015,
          "velocity": 0.4645669291338583,
          "duration": 0.14112904166667306
        },
        {
          "name": "A5",
          "midi": 81,
          "time": 121.69355650000014,
          "velocity": 0.44881889763779526,
          "duration": 0.1562500104166702
        },
        {
          "name": "A4",
          "midi": 69,
          "time": 121.69355650000014,
          "velocity": 0.44881889763779526,
          "duration": 0.12096775000000548
        },
        {
          "name": "D6",
          "midi": 86,
          "time": 121.93549200000014,
          "velocity": 0.5196850393700787,
          "duration": 0.14112904166665885
        },
        {
          "name": "D5",
          "midi": 74,
          "time": 121.93549200000014,
          "velocity": 0.4645669291338583,
          "duration": 0.12600807291666172
        },
        {
          "name": "D4",
          "midi": 62,
          "time": 122.17742750000014,
          "velocity": 0.4645669291338583,
          "duration": 0.1360887187500026
        },
        {
          "name": "C6",
          "midi": 84,
          "time": 122.41936300000013,
          "velocity": 0.5118110236220472,
          "duration": 0.14112904166667306
        },
        {
          "name": "C5",
          "midi": 72,
          "time": 122.41936300000013,
          "velocity": 0.4409448818897638,
          "duration": 0.12096775000000548
        },
        {
          "name": "A5",
          "midi": 81,
          "time": 122.66129850000014,
          "velocity": 0.44881889763779526,
          "duration": 0.15120968749999975
        },
        {
          "name": "A4",
          "midi": 69,
          "time": 122.66129850000014,
          "velocity": 0.4645669291338583,
          "duration": 0.12096775000000548
        },
        {
          "name": "D6",
          "midi": 86,
          "time": 122.90323400000014,
          "velocity": 0.5118110236220472,
          "duration": 0.16129033333332643
        },
        {
          "name": "D5",
          "midi": 74,
          "time": 122.90323400000014,
          "velocity": 0.44881889763779526,
          "duration": 0.11088710416666459
        },
        {
          "name": "D4",
          "midi": 62,
          "time": 123.14516950000014,
          "velocity": 0.47244094488188976,
          "duration": 0.1360887187500026
        },
        {
          "name": "C6",
          "midi": 84,
          "time": 123.38710500000013,
          "velocity": 0.5511811023622047,
          "duration": 0.16633065624999688
        },
        {
          "name": "C5",
          "midi": 72,
          "time": 123.38710500000013,
          "velocity": 0.4645669291338583,
          "duration": 0.13104839583333217
        },
        {
          "name": "A5",
          "midi": 81,
          "time": 123.62904050000013,
          "velocity": 0.5433070866141733,
          "duration": 0.15120968749999975
        },
        {
          "name": "A4",
          "midi": 69,
          "time": 123.62904050000013,
          "velocity": 0.4645669291338583,
          "duration": 0.12600807291666172
        },
        {
          "name": "D6",
          "midi": 86,
          "time": 123.87097600000013,
          "velocity": 0.5118110236220472,
          "duration": 0.16129033333332643
        },
        {
          "name": "D5",
          "midi": 74,
          "time": 123.87097600000013,
          "velocity": 0.4566929133858268,
          "duration": 0.12600807291666172
        },
        {
          "name": "D4",
          "midi": 62,
          "time": 124.11291150000012,
          "velocity": 0.47244094488188976,
          "duration": 0.12600807291666172
        },
        {
          "name": "C6",
          "midi": 84,
          "time": 124.35484700000012,
          "velocity": 0.5433070866141733,
          "duration": 0.17137097916666733
        },
        {
          "name": "C5",
          "midi": 72,
          "time": 124.35484700000012,
          "velocity": 0.44881889763779526,
          "duration": 0.1360887187500026
        },
        {
          "name": "A5",
          "midi": 81,
          "time": 124.59678250000012,
          "velocity": 0.4881889763779528,
          "duration": 0.1461693645833293
        },
        {
          "name": "A4",
          "midi": 69,
          "time": 124.59678250000012,
          "velocity": 0.4330708661417323,
          "duration": 0.11088710416666459
        },
        {
          "name": "D6",
          "midi": 86,
          "time": 124.83871800000011,
          "velocity": 0.5275590551181102,
          "duration": 0.1663306562500111
        },
        {
          "name": "D5",
          "midi": 74,
          "time": 124.83871800000011,
          "velocity": 0.4409448818897638,
          "duration": 0.12096775000000548
        },
        {
          "name": "D4",
          "midi": 62,
          "time": 125.08065350000012,
          "velocity": 0.44881889763779526,
          "duration": 0.11088710416666459
        },
        {
          "name": "C6",
          "midi": 84,
          "time": 125.32258900000012,
          "velocity": 0.5433070866141733,
          "duration": 0.14112904166665885
        },
        {
          "name": "C5",
          "midi": 72,
          "time": 125.32258900000012,
          "velocity": 0.44881889763779526,
          "duration": 0.12600807291666172
        },
        {
          "name": "A5",
          "midi": 81,
          "time": 125.56452450000012,
          "velocity": 0.49606299212598426,
          "duration": 0.15120968749999975
        },
        {
          "name": "A4",
          "midi": 69,
          "time": 125.56452450000012,
          "velocity": 0.44881889763779526,
          "duration": 0.12600807291666172
        },
        {
          "name": "D6",
          "midi": 86,
          "time": 125.80646000000011,
          "velocity": 0.5118110236220472,
          "duration": 0.1360887187500026
        },
        {
          "name": "D5",
          "midi": 74,
          "time": 125.80646000000011,
          "velocity": 0.47244094488188976,
          "duration": 0.12096775000000548
        },
        {
          "name": "D4",
          "midi": 62,
          "time": 126.04839550000011,
          "velocity": 0.47244094488188976,
          "duration": 0.14112904166667306
        },
        {
          "name": "C6",
          "midi": 84,
          "time": 126.29033100000012,
          "velocity": 0.49606299212598426,
          "duration": 0.1461693645833293
        },
        {
          "name": "C5",
          "midi": 72,
          "time": 126.29033100000012,
          "velocity": 0.44881889763779526,
          "duration": 0.1461693645833293
        },
        {
          "name": "A5",
          "midi": 81,
          "time": 126.53226650000012,
          "velocity": 0.4881889763779528,
          "duration": 0.14112904166667306
        },
        {
          "name": "A4",
          "midi": 69,
          "time": 126.53226650000012,
          "velocity": 0.4330708661417323,
          "duration": 0.11592742708333503
        },
        {
          "name": "D6",
          "midi": 86,
          "time": 126.77420200000013,
          "velocity": 0.5118110236220472,
          "duration": 0.15120968749999975
        },
        {
          "name": "D5",
          "midi": 74,
          "time": 126.77420200000013,
          "velocity": 0.44881889763779526,
          "duration": 0.12096775000000548
        },
        {
          "name": "D4",
          "midi": 62,
          "time": 127.01613750000013,
          "velocity": 0.44881889763779526,
          "duration": 0.12096775000000548
        },
        {
          "name": "C6",
          "midi": 84,
          "time": 127.25807300000014,
          "velocity": 0.5354330708661418,
          "duration": 0.15625001041665598
        },
        {
          "name": "C5",
          "midi": 72,
          "time": 127.25807300000014,
          "velocity": 0.4645669291338583,
          "duration": 0.1461693645833293
        },
        {
          "name": "A5",
          "midi": 81,
          "time": 127.50000850000012,
          "velocity": 0.4645669291338583,
          "duration": 0.1461693645833293
        },
        {
          "name": "A4",
          "midi": 69,
          "time": 127.50000850000012,
          "velocity": 0.4409448818897638,
          "duration": 0.1360887187500026
        },
        {
          "name": "D6",
          "midi": 86,
          "time": 127.74194400000012,
          "velocity": 0.5118110236220472,
          "duration": 0.1461693645833293
        },
        {
          "name": "D5",
          "midi": 74,
          "time": 127.74194400000012,
          "velocity": 0.4330708661417323,
          "duration": 0.13104839583333217
        },
        {
          "name": "D4",
          "midi": 62,
          "time": 127.98387950000011,
          "velocity": 0.6692913385826772,
          "duration": 0.17137097916665311
        },
        {
          "name": "C6",
          "midi": 84,
          "time": 128.2258150000001,
          "velocity": 0.5354330708661418,
          "duration": 0.14112904166665885
        },
        {
          "name": "C5",
          "midi": 72,
          "time": 128.2258150000001,
          "velocity": 0.5669291338582677,
          "duration": 0.17137097916665311
        },
        {
          "name": "A5",
          "midi": 81,
          "time": 128.46775050000008,
          "velocity": 0.4566929133858268,
          "duration": 0.15120968749999975
        },
        {
          "name": "A4",
          "midi": 69,
          "time": 128.46775050000008,
          "velocity": 0.6377952755905512,
          "duration": 0.14112904166665885
        },
        {
          "name": "D6",
          "midi": 86,
          "time": 128.7096860000001,
          "velocity": 0.5118110236220472,
          "duration": 0.14112904166665885
        },
        {
          "name": "D5",
          "midi": 74,
          "time": 128.7096860000001,
          "velocity": 0.5748031496062992,
          "duration": 0.18649194791666446
        },
        {
          "name": "D4",
          "midi": 62,
          "time": 128.9516215000001,
          "velocity": 0.6377952755905512,
          "duration": 0.1562500104166702
        },
        {
          "name": "C6",
          "midi": 84,
          "time": 129.1935570000001,
          "velocity": 0.5196850393700787,
          "duration": 0.1562500104166702
        },
        {
          "name": "C5",
          "midi": 72,
          "time": 129.1935570000001,
          "velocity": 0.5905511811023622,
          "duration": 0.16129033333334064
        },
        {
          "name": "A5",
          "midi": 81,
          "time": 129.43549250000012,
          "velocity": 0.49606299212598426,
          "duration": 0.14616936458335772
        },
        {
          "name": "A4",
          "midi": 69,
          "time": 129.43549250000012,
          "velocity": 0.5984251968503937,
          "duration": 0.13104839583334638
        },
        {
          "name": "D6",
          "midi": 86,
          "time": 129.67742800000013,
          "velocity": 0.5748031496062992,
          "duration": 0.17641130208332356
        },
        {
          "name": "D5",
          "midi": 74,
          "time": 129.67742800000013,
          "velocity": 0.5669291338582677,
          "duration": 0.17641130208332356
        },
        {
          "name": "D4",
          "midi": 62,
          "time": 129.91936350000012,
          "velocity": 0.6299212598425197,
          "duration": 0.1663306562500111
        },
        {
          "name": "C6",
          "midi": 84,
          "time": 130.16129900000013,
          "velocity": 0.6062992125984252,
          "duration": 0.16129033333334064
        },
        {
          "name": "C5",
          "midi": 72,
          "time": 130.16129900000013,
          "velocity": 0.5590551181102362,
          "duration": 0.15120968749999975
        },
        {
          "name": "A5",
          "midi": 81,
          "time": 130.40323450000014,
          "velocity": 0.6299212598425197,
          "duration": 0.1562500104166702
        },
        {
          "name": "A4",
          "midi": 69,
          "time": 130.40323450000014,
          "velocity": 0.5905511811023622,
          "duration": 0.14112904166665885
        },
        {
          "name": "D6",
          "midi": 86,
          "time": 130.64517000000015,
          "velocity": 0.5826771653543307,
          "duration": 0.16129033333334064
        },
        {
          "name": "D5",
          "midi": 74,
          "time": 130.64517000000015,
          "velocity": 0.5590551181102362,
          "duration": 0.16129033333334064
        },
        {
          "name": "D4",
          "midi": 62,
          "time": 130.88710550000016,
          "velocity": 0.5984251968503937,
          "duration": 0.1663306562500111
        },
        {
          "name": "C6",
          "midi": 84,
          "time": 131.12904100000017,
          "velocity": 0.5511811023622047,
          "duration": 0.1562500104166702
        },
        {
          "name": "C5",
          "midi": 72,
          "time": 131.12904100000017,
          "velocity": 0.5433070866141733,
          "duration": 0.16129033333334064
        },
        {
          "name": "A5",
          "midi": 81,
          "time": 131.37097650000018,
          "velocity": 0.6141732283464567,
          "duration": 0.1562500104166702
        },
        {
          "name": "A4",
          "midi": 69,
          "time": 131.37097650000018,
          "velocity": 0.5826771653543307,
          "duration": 0.12096775000000548
        },
        {
          "name": "D6",
          "midi": 86,
          "time": 131.6129120000002,
          "velocity": 0.5748031496062992,
          "duration": 0.17641130208332356
        },
        {
          "name": "D5",
          "midi": 74,
          "time": 131.6129120000002,
          "velocity": 0.5669291338582677,
          "duration": 0.17137097916665311
        },
        {
          "name": "D4",
          "midi": 62,
          "time": 131.85484750000018,
          "velocity": 0.6062992125984252,
          "duration": 0.16129033333334064
        },
        {
          "name": "C6",
          "midi": 84,
          "time": 132.0967830000002,
          "velocity": 0.5669291338582677,
          "duration": 0.16129033333334064
        },
        {
          "name": "C5",
          "midi": 72,
          "time": 132.0967830000002,
          "velocity": 0.5984251968503937,
          "duration": 0.1562500104166702
        },
        {
          "name": "A5",
          "midi": 81,
          "time": 132.3387185000002,
          "velocity": 0.5984251968503937,
          "duration": 0.14616936458335772
        },
        {
          "name": "A4",
          "midi": 69,
          "time": 132.3387185000002,
          "velocity": 0.5826771653543307,
          "duration": 0.13104839583334638
        },
        {
          "name": "D6",
          "midi": 86,
          "time": 132.5806540000002,
          "velocity": 0.5354330708661418,
          "duration": 0.17641130208332356
        },
        {
          "name": "D5",
          "midi": 74,
          "time": 132.5806540000002,
          "velocity": 0.5669291338582677,
          "duration": 0.17641130208332356
        },
        {
          "name": "D4",
          "midi": 62,
          "time": 132.8225895000002,
          "velocity": 0.6299212598425197,
          "duration": 0.17137097916665311
        },
        {
          "name": "C6",
          "midi": 84,
          "time": 133.06452500000017,
          "velocity": 0.5669291338582677,
          "duration": 0.16129033333334064
        },
        {
          "name": "C5",
          "midi": 72,
          "time": 133.06452500000017,
          "velocity": 0.6141732283464567,
          "duration": 0.16129033333334064
        },
        {
          "name": "A5",
          "midi": 81,
          "time": 133.30646050000018,
          "velocity": 0.6141732283464567,
          "duration": 0.1663306562500111
        },
        {
          "name": "A4",
          "midi": 69,
          "time": 133.30646050000018,
          "velocity": 0.5905511811023622,
          "duration": 0.12096775000000548
        },
        {
          "name": "D6",
          "midi": 86,
          "time": 133.5483960000002,
          "velocity": 0.5354330708661418,
          "duration": 0.1663306562500111
        },
        {
          "name": "D5",
          "midi": 74,
          "time": 133.5483960000002,
          "velocity": 0.5039370078740157,
          "duration": 0.16129033333334064
        },
        {
          "name": "D4",
          "midi": 62,
          "time": 133.7903315000002,
          "velocity": 0.6299212598425197,
          "duration": 0.16129033333334064
        },
        {
          "name": "C6",
          "midi": 84,
          "time": 134.03226700000022,
          "velocity": 0.5826771653543307,
          "duration": 0.16129033333334064
        },
        {
          "name": "C5",
          "midi": 72,
          "time": 134.03226700000022,
          "velocity": 0.5748031496062992,
          "duration": 0.15120968749999975
        },
        {
          "name": "A5",
          "midi": 81,
          "time": 134.27420250000023,
          "velocity": 0.5826771653543307,
          "duration": 0.16129033333331222
        },
        {
          "name": "A4",
          "midi": 69,
          "time": 134.27420250000023,
          "velocity": 0.5826771653543307,
          "duration": 0.14112904166665885
        },
        {
          "name": "D6",
          "midi": 86,
          "time": 134.5161380000002,
          "velocity": 0.5590551181102362,
          "duration": 0.16129033333334064
        },
        {
          "name": "D5",
          "midi": 74,
          "time": 134.5161380000002,
          "velocity": 0.5669291338582677,
          "duration": 0.16129033333334064
        },
        {
          "name": "D4",
          "midi": 62,
          "time": 134.75807350000022,
          "velocity": 0.6062992125984252,
          "duration": 0.14112904166665885
        },
        {
          "name": "C6",
          "midi": 84,
          "time": 135.0000090000002,
          "velocity": 0.5748031496062992,
          "duration": 0.1461693645833293
        },
        {
          "name": "C5",
          "midi": 72,
          "time": 135.0000090000002,
          "velocity": 0.5511811023622047,
          "duration": 0.16129033333334064
        },
        {
          "name": "A5",
          "midi": 81,
          "time": 135.24194450000022,
          "velocity": 0.5511811023622047,
          "duration": 0.15120968749999975
        },
        {
          "name": "A4",
          "midi": 69,
          "time": 135.24194450000022,
          "velocity": 0.5433070866141733,
          "duration": 0.1461693645833293
        },
        {
          "name": "D6",
          "midi": 86,
          "time": 135.48388000000023,
          "velocity": 0.5669291338582677,
          "duration": 0.15120968749999975
        },
        {
          "name": "D5",
          "midi": 74,
          "time": 135.48388000000023,
          "velocity": 0.5590551181102362,
          "duration": 0.17137097916665311
        },
        {
          "name": "D4",
          "midi": 62,
          "time": 135.7258155000002,
          "velocity": 0.5669291338582677,
          "duration": 0.17137097916665311
        },
        {
          "name": "C6",
          "midi": 84,
          "time": 135.9677510000002,
          "velocity": 0.5511811023622047,
          "duration": 0.14112904166665885
        },
        {
          "name": "C5",
          "midi": 72,
          "time": 135.9677510000002,
          "velocity": 0.5433070866141733,
          "duration": 0.16129033333331222
        },
        {
          "name": "A5",
          "midi": 81,
          "time": 136.20968650000017,
          "velocity": 0.5039370078740157,
          "duration": 0.15120968749999975
        },
        {
          "name": "A4",
          "midi": 69,
          "time": 136.20968650000017,
          "velocity": 0.5748031496062992,
          "duration": 0.1461693645833293
        },
        {
          "name": "D6",
          "midi": 86,
          "time": 136.45162200000019,
          "velocity": 0.5433070866141733,
          "duration": 0.16129033333334064
        },
        {
          "name": "D5",
          "midi": 74,
          "time": 136.45162200000019,
          "velocity": 0.5433070866141733,
          "duration": 0.16129033333334064
        },
        {
          "name": "D4",
          "midi": 62,
          "time": 136.6935575000002,
          "velocity": 0.5826771653543307,
          "duration": 0.16129033333334064
        },
        {
          "name": "C6",
          "midi": 84,
          "time": 136.9354930000002,
          "velocity": 0.5669291338582677,
          "duration": 0.16129033333334064
        },
        {
          "name": "C5",
          "midi": 72,
          "time": 136.9354930000002,
          "velocity": 0.5275590551181102,
          "duration": 0.17137097916668154
        },
        {
          "name": "A5",
          "midi": 81,
          "time": 137.17742850000022,
          "velocity": 0.5118110236220472,
          "duration": 0.14112904166665885
        },
        {
          "name": "A4",
          "midi": 69,
          "time": 137.17742850000022,
          "velocity": 0.5669291338582677,
          "duration": 0.14112904166665885
        },
        {
          "name": "D6",
          "midi": 86,
          "time": 137.4193640000002,
          "velocity": 0.5354330708661418,
          "duration": 0.1663306562500111
        },
        {
          "name": "D5",
          "midi": 74,
          "time": 137.4193640000002,
          "velocity": 0.5354330708661418,
          "duration": 0.17137097916668154
        },
        {
          "name": "D4",
          "midi": 62,
          "time": 137.6612995000002,
          "velocity": 0.6299212598425197,
          "duration": 0.17641130208332356
        },
        {
          "name": "C6",
          "midi": 84,
          "time": 137.9032350000002,
          "velocity": 0.5196850393700787,
          "duration": 0.15120968749999975
        },
        {
          "name": "C5",
          "midi": 72,
          "time": 137.9032350000002,
          "velocity": 0.5669291338582677,
          "duration": 0.16129033333334064
        },
        {
          "name": "A5",
          "midi": 81,
          "time": 138.1451705000002,
          "velocity": 0.5669291338582677,
          "duration": 0.16129033333334064
        },
        {
          "name": "A4",
          "midi": 69,
          "time": 138.1451705000002,
          "velocity": 0.6299212598425197,
          "duration": 0.1461693645833293
        },
        {
          "name": "D6",
          "midi": 86,
          "time": 138.38710600000022,
          "velocity": 0.5590551181102362,
          "duration": 0.1461693645833293
        },
        {
          "name": "D5",
          "midi": 74,
          "time": 138.38710600000022,
          "velocity": 0.5669291338582677,
          "duration": 0.16633065624998267
        },
        {
          "name": "D4",
          "midi": 62,
          "time": 138.6290415000002,
          "velocity": 0.5905511811023622,
          "duration": 0.17137097916665311
        },
        {
          "name": "C6",
          "midi": 84,
          "time": 138.87097700000018,
          "velocity": 0.5433070866141733,
          "duration": 0.1461693645833293
        },
        {
          "name": "C5",
          "midi": 72,
          "time": 138.87097700000018,
          "velocity": 0.6299212598425197,
          "duration": 0.16129033333334064
        },
        {
          "name": "A5",
          "midi": 81,
          "time": 139.1129125000002,
          "velocity": 0.4881889763779528,
          "duration": 0.1461693645833293
        },
        {
          "name": "A4",
          "midi": 69,
          "time": 139.1129125000002,
          "velocity": 0.5669291338582677,
          "duration": 0.14112904166665885
        },
        {
          "name": "D6",
          "midi": 86,
          "time": 139.35484800000017,
          "velocity": 0.5511811023622047,
          "duration": 0.1663306562500111
        },
        {
          "name": "D5",
          "midi": 74,
          "time": 139.35484800000017,
          "velocity": 0.5511811023622047,
          "duration": 0.18145162500002243
        },
        {
          "name": "D4",
          "midi": 62,
          "time": 139.59678350000019,
          "velocity": 0.6299212598425197,
          "duration": 0.16129033333334064
        },
        {
          "name": "C6",
          "midi": 84,
          "time": 139.8387190000002,
          "velocity": 0.5511811023622047,
          "duration": 0.1461693645833293
        },
        {
          "name": "C5",
          "midi": 72,
          "time": 139.8387190000002,
          "velocity": 0.5433070866141733,
          "duration": 0.16129033333334064
        },
        {
          "name": "A5",
          "midi": 81,
          "time": 140.0806545000002,
          "velocity": 0.4251968503937008,
          "duration": 0.13104839583334638
        },
        {
          "name": "A4",
          "midi": 69,
          "time": 140.0806545000002,
          "velocity": 0.5669291338582677,
          "duration": 0.13608871875001682
        },
        {
          "name": "D6",
          "midi": 86,
          "time": 140.32259000000022,
          "velocity": 0.47244094488188976,
          "duration": 0.1562500104166702
        },
        {
          "name": "D5",
          "midi": 74,
          "time": 140.32259000000022,
          "velocity": 0.5354330708661418,
          "duration": 0.181451624999994
        },
        {
          "name": "D4",
          "midi": 62,
          "time": 140.5645255000002,
          "velocity": 0.5826771653543307,
          "duration": 0.16129033333334064
        },
        {
          "name": "C6",
          "midi": 84,
          "time": 140.8064610000002,
          "velocity": 0.5118110236220472,
          "duration": 0.12096775000000548
        },
        {
          "name": "C5",
          "midi": 72,
          "time": 140.8064610000002,
          "velocity": 0.5275590551181102,
          "duration": 0.181451624999994
        },
        {
          "name": "A5",
          "midi": 81,
          "time": 141.0483965000002,
          "velocity": 0.4566929133858268,
          "duration": 0.15120968749999975
        },
        {
          "name": "A4",
          "midi": 69,
          "time": 141.0483965000002,
          "velocity": 0.5433070866141733,
          "duration": 0.1562500104166702
        },
        {
          "name": "D6",
          "midi": 86,
          "time": 141.2903320000002,
          "velocity": 0.4881889763779528,
          "duration": 0.15120968749999975
        },
        {
          "name": "D5",
          "midi": 74,
          "time": 141.2903320000002,
          "velocity": 0.5354330708661418,
          "duration": 0.18649194791666446
        },
        {
          "name": "D4",
          "midi": 62,
          "time": 141.53226750000022,
          "velocity": 0.5748031496062992,
          "duration": 0.17137097916665311
        },
        {
          "name": "C6",
          "midi": 84,
          "time": 141.7742030000002,
          "velocity": 0.5354330708661418,
          "duration": 0.15120968749999975
        },
        {
          "name": "C5",
          "midi": 72,
          "time": 141.7742030000002,
          "velocity": 0.5196850393700787,
          "duration": 0.18649194791666446
        },
        {
          "name": "A5",
          "midi": 81,
          "time": 142.0161385000002,
          "velocity": 0.5039370078740157,
          "duration": 0.1461693645833293
        },
        {
          "name": "A4",
          "midi": 69,
          "time": 142.0161385000002,
          "velocity": 0.5354330708661418,
          "duration": 0.14112904166665885
        },
        {
          "name": "D6",
          "midi": 86,
          "time": 142.2580740000002,
          "velocity": 0.5118110236220472,
          "duration": 0.1461693645833293
        },
        {
          "name": "D5",
          "midi": 74,
          "time": 142.2580740000002,
          "velocity": 0.5354330708661418,
          "duration": 0.17137097916665311
        },
        {
          "name": "D4",
          "midi": 62,
          "time": 142.50000950000017,
          "velocity": 0.5905511811023622,
          "duration": 0.181451624999994
        },
        {
          "name": "C6",
          "midi": 84,
          "time": 142.74194500000016,
          "velocity": 0.5118110236220472,
          "duration": 0.15120968749999975
        },
        {
          "name": "C5",
          "midi": 72,
          "time": 142.74194500000016,
          "velocity": 0.5354330708661418,
          "duration": 0.17641130208332356
        },
        {
          "name": "A5",
          "midi": 81,
          "time": 142.98388050000014,
          "velocity": 0.4881889763779528,
          "duration": 0.1663306562500111
        },
        {
          "name": "A4",
          "midi": 69,
          "time": 142.98388050000014,
          "velocity": 0.5354330708661418,
          "duration": 0.17641130208335198
        },
        {
          "name": "D6",
          "midi": 86,
          "time": 143.22581600000015,
          "velocity": 0.5039370078740157,
          "duration": 0.1562500104166702
        },
        {
          "name": "D5",
          "midi": 74,
          "time": 143.22581600000015,
          "velocity": 0.5511811023622047,
          "duration": 0.17137097916668154
        },
        {
          "name": "D4",
          "midi": 62,
          "time": 143.46775150000016,
          "velocity": 0.5669291338582677,
          "duration": 0.17641130208332356
        },
        {
          "name": "C6",
          "midi": 84,
          "time": 143.70968700000014,
          "velocity": 0.5275590551181102,
          "duration": 0.15120968749999975
        },
        {
          "name": "C5",
          "midi": 72,
          "time": 143.70968700000014,
          "velocity": 0.5433070866141733,
          "duration": 0.17137097916665311
        },
        {
          "name": "A5",
          "midi": 81,
          "time": 143.95162250000013,
          "velocity": 0.5118110236220472,
          "duration": 0.16129033333331222
        },
        {
          "name": "A4",
          "midi": 69,
          "time": 143.95162250000013,
          "velocity": 0.5433070866141733,
          "duration": 0.14112904166665885
        },
        {
          "name": "D6",
          "midi": 86,
          "time": 144.1935580000001,
          "velocity": 0.5196850393700787,
          "duration": 0.17137097916665311
        },
        {
          "name": "D5",
          "midi": 74,
          "time": 144.1935580000001,
          "velocity": 0.5354330708661418,
          "duration": 0.15120968749999975
        },
        {
          "name": "D4",
          "midi": 62,
          "time": 144.4354935000001,
          "velocity": 0.5669291338582677,
          "duration": 0.16129033333334064
        },
        {
          "name": "C6",
          "midi": 84,
          "time": 144.6774290000001,
          "velocity": 0.5118110236220472,
          "duration": 0.1461693645833293
        },
        {
          "name": "C5",
          "midi": 72,
          "time": 144.6774290000001,
          "velocity": 0.5118110236220472,
          "duration": 0.15120968749999975
        },
        {
          "name": "A5",
          "midi": 81,
          "time": 144.9193645000001,
          "velocity": 0.49606299212598426,
          "duration": 0.1562500104166702
        },
        {
          "name": "A4",
          "midi": 69,
          "time": 144.9193645000001,
          "velocity": 0.5590551181102362,
          "duration": 0.14112904166665885
        },
        {
          "name": "D6",
          "midi": 86,
          "time": 145.16130000000013,
          "velocity": 0.5118110236220472,
          "duration": 0.15120968749999975
        },
        {
          "name": "D5",
          "midi": 74,
          "time": 145.16130000000013,
          "velocity": 0.5196850393700787,
          "duration": 0.15120968749999975
        },
        {
          "name": "D4",
          "midi": 62,
          "time": 145.40323550000014,
          "velocity": 0.6141732283464567,
          "duration": 0.17641130208332356
        },
        {
          "name": "C6",
          "midi": 84,
          "time": 145.64517100000012,
          "velocity": 0.5669291338582677,
          "duration": 0.14112904166665885
        },
        {
          "name": "C5",
          "midi": 72,
          "time": 145.64517100000012,
          "velocity": 0.5669291338582677,
          "duration": 0.15120968749999975
        },
        {
          "name": "A5",
          "midi": 81,
          "time": 145.88710650000013,
          "velocity": 0.4645669291338583,
          "duration": 0.1461693645833293
        },
        {
          "name": "A4",
          "midi": 69,
          "time": 145.88710650000013,
          "velocity": 0.5118110236220472,
          "duration": 0.12600807291667593
        },
        {
          "name": "D6",
          "midi": 86,
          "time": 146.1290420000001,
          "velocity": 0.5275590551181102,
          "duration": 0.1663306562500111
        },
        {
          "name": "D5",
          "midi": 74,
          "time": 146.1290420000001,
          "velocity": 0.5275590551181102,
          "duration": 0.17137097916668154
        },
        {
          "name": "D4",
          "midi": 62,
          "time": 146.37097750000012,
          "velocity": 0.5590551181102362,
          "duration": 0.15120968749999975
        },
        {
          "name": "C6",
          "midi": 84,
          "time": 146.61291300000013,
          "velocity": 0.5354330708661418,
          "duration": 0.16129033333334064
        },
        {
          "name": "C5",
          "midi": 72,
          "time": 146.61291300000013,
          "velocity": 0.5590551181102362,
          "duration": 0.1663306562500111
        },
        {
          "name": "A5",
          "midi": 81,
          "time": 146.85484850000014,
          "velocity": 0.5196850393700787,
          "duration": 0.16129033333334064
        },
        {
          "name": "A4",
          "midi": 69,
          "time": 146.85484850000014,
          "velocity": 0.5118110236220472,
          "duration": 0.13104839583334638
        },
        {
          "name": "D6",
          "midi": 86,
          "time": 147.09678400000016,
          "velocity": 0.5196850393700787,
          "duration": 0.181451624999994
        },
        {
          "name": "D5",
          "midi": 74,
          "time": 147.09678400000016,
          "velocity": 0.5196850393700787,
          "duration": 0.1562500104166702
        },
        {
          "name": "D4",
          "midi": 62,
          "time": 147.33871950000014,
          "velocity": 0.5669291338582677,
          "duration": 0.1562500104166702
        },
        {
          "name": "C6",
          "midi": 84,
          "time": 147.58065500000015,
          "velocity": 0.5354330708661418,
          "duration": 0.1562500104166702
        },
        {
          "name": "C5",
          "midi": 72,
          "time": 147.58065500000015,
          "velocity": 0.5354330708661418,
          "duration": 0.1663306562500111
        },
        {
          "name": "A5",
          "midi": 81,
          "time": 147.82259050000016,
          "velocity": 0.5118110236220472,
          "duration": 0.15120968749999975
        },
        {
          "name": "A4",
          "midi": 69,
          "time": 147.82259050000016,
          "velocity": 0.5433070866141733,
          "duration": 0.1360887187499884
        },
        {
          "name": "D6",
          "midi": 86,
          "time": 148.06452600000017,
          "velocity": 0.5118110236220472,
          "duration": 0.17137097916665311
        },
        {
          "name": "D5",
          "midi": 74,
          "time": 148.06452600000017,
          "velocity": 0.5196850393700787,
          "duration": 0.15120968749999975
        },
        {
          "name": "D4",
          "midi": 62,
          "time": 148.30646150000015,
          "velocity": 0.6062992125984252,
          "duration": 0.1663306562500111
        },
        {
          "name": "C6",
          "midi": 84,
          "time": 148.54839700000016,
          "velocity": 0.5669291338582677,
          "duration": 0.1562500104166702
        },
        {
          "name": "C5",
          "midi": 72,
          "time": 148.54839700000016,
          "velocity": 0.5118110236220472,
          "duration": 0.181451624999994
        },
        {
          "name": "A5",
          "midi": 81,
          "time": 148.79033250000015,
          "velocity": 0.5354330708661418,
          "duration": 0.16129033333331222
        },
        {
          "name": "A4",
          "midi": 69,
          "time": 148.79033250000015,
          "velocity": 0.5354330708661418,
          "duration": 0.1360887187499884
        },
        {
          "name": "D6",
          "midi": 86,
          "time": 149.03226800000013,
          "velocity": 0.5275590551181102,
          "duration": 0.18145162500002243
        },
        {
          "name": "D5",
          "midi": 74,
          "time": 149.03226800000013,
          "velocity": 0.5275590551181102,
          "duration": 0.1663306562500111
        },
        {
          "name": "D4",
          "midi": 62,
          "time": 149.27420350000014,
          "velocity": 0.5905511811023622,
          "duration": 0.17137097916665311
        },
        {
          "name": "C6",
          "midi": 84,
          "time": 149.51613900000012,
          "velocity": 0.5669291338582677,
          "duration": 0.1663306562500111
        },
        {
          "name": "C5",
          "midi": 72,
          "time": 149.51613900000012,
          "velocity": 0.5118110236220472,
          "duration": 0.17137097916668154
        },
        {
          "name": "A5",
          "midi": 81,
          "time": 149.75807450000013,
          "velocity": 0.5354330708661418,
          "duration": 0.181451624999994
        },
        {
          "name": "A4",
          "midi": 69,
          "time": 149.75807450000013,
          "velocity": 0.5275590551181102,
          "duration": 0.1461693645833293
        },
        {
          "name": "D6",
          "midi": 86,
          "time": 150.00001000000012,
          "velocity": 0.5433070866141733,
          "duration": 0.17137097916665311
        },
        {
          "name": "D5",
          "midi": 74,
          "time": 150.00001000000012,
          "velocity": 0.5196850393700787,
          "duration": 0.17137097916665311
        },
        {
          "name": "D4",
          "midi": 62,
          "time": 150.2419455000001,
          "velocity": 0.5826771653543307,
          "duration": 0.1915322708333349
        },
        {
          "name": "C6",
          "midi": 84,
          "time": 150.4838810000001,
          "velocity": 0.5433070866141733,
          "duration": 0.1461693645833293
        },
        {
          "name": "C5",
          "midi": 72,
          "time": 150.4838810000001,
          "velocity": 0.5039370078740157,
          "duration": 0.181451624999994
        },
        {
          "name": "A5",
          "midi": 81,
          "time": 150.7258165000001,
          "velocity": 0.5433070866141733,
          "duration": 0.16633065624998267
        },
        {
          "name": "A4",
          "midi": 69,
          "time": 150.7258165000001,
          "velocity": 0.5118110236220472,
          "duration": 0.1461693645833293
        },
        {
          "name": "D6",
          "midi": 86,
          "time": 150.96775200000008,
          "velocity": 0.5275590551181102,
          "duration": 0.1562500104166702
        },
        {
          "name": "D5",
          "midi": 74,
          "time": 150.96775200000008,
          "velocity": 0.5039370078740157,
          "duration": 0.16129033333334064
        },
        {
          "name": "D4",
          "midi": 62,
          "time": 151.2096875000001,
          "velocity": 0.7637795275590551,
          "duration": 0.12096775000000548
        },
        {
          "name": "C5",
          "midi": 72,
          "time": 151.4516230000001,
          "velocity": 0.6377952755905512,
          "duration": 0.12096775000000548
        },
        {
          "name": "A4",
          "midi": 69,
          "time": 151.6935585000001,
          "velocity": 0.6535433070866141,
          "duration": 0.14112904166665885
        },
        {
          "name": "D5",
          "midi": 74,
          "time": 151.9354940000001,
          "velocity": 0.6535433070866141,
          "duration": 0.16129033333334064
        },
        {
          "name": "D4",
          "midi": 62,
          "time": 152.1774295000001,
          "velocity": 0.7637795275590551,
          "duration": 0.1915322708333349
        },
        {
          "name": "C5",
          "midi": 72,
          "time": 152.4193650000001,
          "velocity": 0.6456692913385826,
          "duration": 0.17137097916665311
        },
        {
          "name": "A4",
          "midi": 69,
          "time": 152.6613005000001,
          "velocity": 0.6535433070866141,
          "duration": 0.1562500104166702
        },
        {
          "name": "D5",
          "midi": 74,
          "time": 152.9032360000001,
          "velocity": 0.6535433070866141,
          "duration": 0.181451624999994
        },
        {
          "name": "D4",
          "midi": 62,
          "time": 153.1451715000001,
          "velocity": 0.7244094488188977,
          "duration": 0.16129033333334064
        },
        {
          "name": "C5",
          "midi": 72,
          "time": 153.3871070000001,
          "velocity": 0.6141732283464567,
          "duration": 0.181451624999994
        },
        {
          "name": "A4",
          "midi": 69,
          "time": 153.62904250000008,
          "velocity": 0.6456692913385826,
          "duration": 0.15120968749999975
        },
        {
          "name": "D5",
          "midi": 74,
          "time": 153.8709780000001,
          "velocity": 0.6535433070866141,
          "duration": 0.1663306562500111
        },
        {
          "name": "D4",
          "midi": 62,
          "time": 154.1129135000001,
          "velocity": 0.7086614173228346,
          "duration": 0.181451624999994
        },
        {
          "name": "C5",
          "midi": 72,
          "time": 154.3548490000001,
          "velocity": 0.6141732283464567,
          "duration": 0.1915322708333349
        },
        {
          "name": "A4",
          "midi": 69,
          "time": 154.5967845000001,
          "velocity": 0.6535433070866141,
          "duration": 0.14112904166665885
        },
        {
          "name": "D5",
          "midi": 74,
          "time": 154.83872000000008,
          "velocity": 0.6614173228346457,
          "duration": 0.1461693645833293
        },
        {
          "name": "D4",
          "midi": 62,
          "time": 155.08065550000006,
          "velocity": 0.7244094488188977,
          "duration": 0.12096775000000548
        },
        {
          "name": "C5",
          "midi": 72,
          "time": 155.32259100000007,
          "velocity": 0.6535433070866141,
          "duration": 0.17137097916665311
        },
        {
          "name": "A4",
          "midi": 69,
          "time": 155.56452650000006,
          "velocity": 0.6850393700787402,
          "duration": 0.14112904166665885
        },
        {
          "name": "D5",
          "midi": 74,
          "time": 155.80646200000004,
          "velocity": 0.6535433070866141,
          "duration": 0.1562500104166702
        },
        {
          "name": "D4",
          "midi": 62,
          "time": 156.04839750000005,
          "velocity": 0.7165354330708661,
          "duration": 0.1562500104166702
        },
        {
          "name": "C5",
          "midi": 72,
          "time": 156.29033300000006,
          "velocity": 0.6771653543307087,
          "duration": 0.17641130208332356
        },
        {
          "name": "A4",
          "midi": 69,
          "time": 156.53226850000004,
          "velocity": 0.6614173228346457,
          "duration": 0.13104839583334638
        },
        {
          "name": "D5",
          "midi": 74,
          "time": 156.77420400000005,
          "velocity": 0.6535433070866141,
          "duration": 0.15120968749999975
        },
        {
          "name": "D4",
          "midi": 62,
          "time": 157.01613950000007,
          "velocity": 0.7559055118110236,
          "duration": 0.1562500104166702
        },
        {
          "name": "C5",
          "midi": 72,
          "time": 157.25807500000008,
          "velocity": 0.6456692913385826,
          "duration": 0.17641130208332356
        },
        {
          "name": "A4",
          "midi": 69,
          "time": 157.50001050000006,
          "velocity": 0.7165354330708661,
          "duration": 0.15120968749999975
        },
        {
          "name": "D5",
          "midi": 74,
          "time": 157.74194600000007,
          "velocity": 0.6692913385826772,
          "duration": 0.16129033333334064
        },
        {
          "name": "D4",
          "midi": 62,
          "time": 157.98388150000008,
          "velocity": 0.7401574803149606,
          "duration": 0.16129033333334064
        },
        {
          "name": "C5",
          "midi": 72,
          "time": 158.2258170000001,
          "velocity": 0.6850393700787402,
          "duration": 0.181451624999994
        },
        {
          "name": "A4",
          "midi": 69,
          "time": 158.46775250000007,
          "velocity": 0.6929133858267716,
          "duration": 0.1360887187499884
        },
        {
          "name": "D5",
          "midi": 74,
          "time": 158.70968800000006,
          "velocity": 0.6456692913385826,
          "duration": 0.1663306562500111
        },
        {
          "name": "D4",
          "midi": 62,
          "time": 158.95162350000007,
          "velocity": 0.6929133858267716,
          "duration": 0.12096775000000548
        },
        {
          "name": "C5",
          "midi": 72,
          "time": 159.19355900000008,
          "velocity": 0.6456692913385826,
          "duration": 0.181451624999994
        },
        {
          "name": "A4",
          "midi": 69,
          "time": 159.43549450000006,
          "velocity": 0.6535433070866141,
          "duration": 0.13104839583334638
        },
        {
          "name": "D5",
          "midi": 74,
          "time": 159.67743000000007,
          "velocity": 0.6456692913385826,
          "duration": 0.16129033333334064
        },
        {
          "name": "D4",
          "midi": 62,
          "time": 159.91936550000008,
          "velocity": 0.7244094488188977,
          "duration": 0.12600807291667593
        },
        {
          "name": "C5",
          "midi": 72,
          "time": 160.1613010000001,
          "velocity": 0.6456692913385826,
          "duration": 0.17137097916665311
        },
        {
          "name": "A4",
          "midi": 69,
          "time": 160.40323650000008,
          "velocity": 0.6220472440944882,
          "duration": 0.13104839583334638
        },
        {
          "name": "D5",
          "midi": 74,
          "time": 160.6451720000001,
          "velocity": 0.6377952755905512,
          "duration": 0.17137097916665311
        },
        {
          "name": "D4",
          "midi": 62,
          "time": 160.88710750000007,
          "velocity": 0.7401574803149606,
          "duration": 0.1360887187499884
        },
        {
          "name": "C5",
          "midi": 72,
          "time": 161.12904300000005,
          "velocity": 0.6299212598425197,
          "duration": 0.17137097916665311
        },
        {
          "name": "A4",
          "midi": 69,
          "time": 161.37097850000004,
          "velocity": 0.6456692913385826,
          "duration": 0.16129033333334064
        },
        {
          "name": "D5",
          "midi": 74,
          "time": 161.61291400000005,
          "velocity": 0.6141732283464567,
          "duration": 0.1562500104166702
        },
        {
          "name": "D4",
          "midi": 62,
          "time": 161.85484950000006,
          "velocity": 0.7165354330708661,
          "duration": 0.14112904166665885
        },
        {
          "name": "C5",
          "midi": 72,
          "time": 162.09678500000004,
          "velocity": 0.6299212598425197,
          "duration": 0.20665323958334625
        },
        {
          "name": "A4",
          "midi": 69,
          "time": 162.33872050000005,
          "velocity": 0.6377952755905512,
          "duration": 0.14112904166665885
        },
        {
          "name": "D5",
          "midi": 74,
          "time": 162.58065600000003,
          "velocity": 0.6456692913385826,
          "duration": 0.16129033333334064
        },
        {
          "name": "D5",
          "midi": 74,
          "time": 162.82259150000004,
          "velocity": 0.8582677165354331,
          "duration": 1.451613000000009
        }
      ],
      "controlChanges": {},
      "id": 8,
      "name": "Clarinet Pipe",
      "instrumentNumber": 71,
      "instrument": "clarinet",
      "instrumentFamily": "reed",
      "channelNumber": 6,
      "isPercussion": false
    },
    {
      "startTime": 0,
      "duration": 164.27420449999983,
      "length": 428,
      "notes": [
        {
          "name": "D3",
          "midi": 50,
          "time": 0,
          "velocity": 0.7716535433070866,
          "duration": 1.754032375
        },
        {
          "name": "D2",
          "midi": 38,
          "time": 0,
          "velocity": 1,
          "duration": 1.9052420625
        },
        {
          "name": "C3",
          "midi": 48,
          "time": 1.935484,
          "velocity": 0.8188976377952756,
          "duration": 1.8548388333333337
        },
        {
          "name": "C2",
          "midi": 36,
          "time": 1.935484,
          "velocity": 0.84251968503937,
          "duration": 1.9153227083333337
        },
        {
          "name": "A#2",
          "midi": 46,
          "time": 3.8709680000000004,
          "velocity": 0.8818897637795275,
          "duration": 1.8850807708333335
        },
        {
          "name": "A#1",
          "midi": 34,
          "time": 3.8709680000000004,
          "velocity": 0.8818897637795275,
          "duration": 1.8850807708333335
        },
        {
          "name": "D3",
          "midi": 50,
          "time": 5.806452,
          "velocity": 0.9133858267716536,
          "duration": 2.0060485208333327
        },
        {
          "name": "D2",
          "midi": 38,
          "time": 5.806452,
          "velocity": 1,
          "duration": 2.0060485208333327
        },
        {
          "name": "C3",
          "midi": 48,
          "time": 7.741936,
          "velocity": 0.8582677165354331,
          "duration": 1.7741936666666662
        },
        {
          "name": "C2",
          "midi": 36,
          "time": 7.741936,
          "velocity": 0.8582677165354331,
          "duration": 1.9052420625000002
        },
        {
          "name": "A#2",
          "midi": 46,
          "time": 9.67742,
          "velocity": 0.7716535433070866,
          "duration": 1.7741936666666671
        },
        {
          "name": "A#1",
          "midi": 34,
          "time": 9.67742,
          "velocity": 0.7716535433070866,
          "duration": 1.7641130208333333
        },
        {
          "name": "A2",
          "midi": 45,
          "time": 11.612904,
          "velocity": 0.8582677165354331,
          "duration": 1.9959678749999998
        },
        {
          "name": "A1",
          "midi": 33,
          "time": 11.612904,
          "velocity": 1,
          "duration": 1.9959678749999998
        },
        {
          "name": "A3",
          "midi": 57,
          "time": 13.548388000000001,
          "velocity": 0.9133858267716536,
          "duration": 9.62701677083333
        },
        {
          "name": "A2",
          "midi": 45,
          "time": 13.548388000000001,
          "velocity": 0.9133858267716536,
          "duration": 9.62701677083333
        },
        {
          "name": "D3",
          "midi": 50,
          "time": 23.467743499999997,
          "velocity": 0.5433070866141733,
          "duration": 0.8568548958333366
        },
        {
          "name": "C4",
          "midi": 60,
          "time": 23.709678999999998,
          "velocity": 0.47244094488188976,
          "duration": 0.11592742708333503
        },
        {
          "name": "C4",
          "midi": 60,
          "time": 23.709678999999998,
          "velocity": 0.4409448818897638,
          "duration": 0.16633065625000043
        },
        {
          "name": "A3",
          "midi": 57,
          "time": 23.951614499999998,
          "velocity": 0.49606299212598426,
          "duration": 0.09576613541666745
        },
        {
          "name": "A3",
          "midi": 57,
          "time": 23.951614499999998,
          "velocity": 0.4566929133858268,
          "duration": 0.12096775000000193
        },
        {
          "name": "D4",
          "midi": 62,
          "time": 24.19355,
          "velocity": 0.5433070866141733,
          "duration": 0.10584678125000124
        },
        {
          "name": "D4",
          "midi": 62,
          "time": 24.19355,
          "velocity": 0.5118110236220472,
          "duration": 0.11592742708333503
        },
        {
          "name": "D3",
          "midi": 50,
          "time": 24.435485500000002,
          "velocity": 0.49606299212598426,
          "duration": 0.836693604166669
        },
        {
          "name": "C4",
          "midi": 60,
          "time": 24.677421000000002,
          "velocity": 0.48031496062992124,
          "duration": 0.10584678125000124
        },
        {
          "name": "C4",
          "midi": 60,
          "time": 24.677421000000002,
          "velocity": 0.4409448818897638,
          "duration": 0.11592742708333503
        },
        {
          "name": "A3",
          "midi": 57,
          "time": 24.919356500000003,
          "velocity": 0.5275590551181102,
          "duration": 0.10080645833333435
        },
        {
          "name": "A3",
          "midi": 57,
          "time": 24.919356500000003,
          "velocity": 0.5275590551181102,
          "duration": 0.1360887187500026
        },
        {
          "name": "D4",
          "midi": 62,
          "time": 25.161292000000007,
          "velocity": 0.5118110236220472,
          "duration": 0.06552419791666608
        },
        {
          "name": "D4",
          "midi": 62,
          "time": 25.161292000000007,
          "velocity": 0.49606299212598426,
          "duration": 0.12096774999999838
        },
        {
          "name": "D3",
          "midi": 50,
          "time": 25.403227500000003,
          "velocity": 0.5433070866141733,
          "duration": 0.766129083333329
        },
        {
          "name": "C4",
          "midi": 60,
          "time": 25.645163000000004,
          "velocity": 0.4566929133858268,
          "duration": 0.10584678125000124
        },
        {
          "name": "C4",
          "midi": 60,
          "time": 25.645163000000004,
          "velocity": 0.4881889763779528,
          "duration": 0.11592742708333503
        },
        {
          "name": "A3",
          "midi": 57,
          "time": 25.887098500000004,
          "velocity": 0.4645669291338583,
          "duration": 0.12096774999999838
        },
        {
          "name": "A3",
          "midi": 57,
          "time": 25.887098500000004,
          "velocity": 0.44881889763779526,
          "duration": 0.12096774999999838
        },
        {
          "name": "D4",
          "midi": 62,
          "time": 26.129034,
          "velocity": 0.4566929133858268,
          "duration": 0.07560484374999987
        },
        {
          "name": "D4",
          "midi": 62,
          "time": 26.129034,
          "velocity": 0.5275590551181102,
          "duration": 0.11592742708333148
        },
        {
          "name": "D3",
          "midi": 50,
          "time": 26.370969499999998,
          "velocity": 0.49606299212598426,
          "duration": 0.902217802083328
        },
        {
          "name": "C4",
          "midi": 60,
          "time": 26.612904999999998,
          "velocity": 0.4015748031496063,
          "duration": 0.12096774999999838
        },
        {
          "name": "A3",
          "midi": 57,
          "time": 26.854840499999995,
          "velocity": 0.49606299212598426,
          "duration": 0.12096774999999838
        },
        {
          "name": "D4",
          "midi": 62,
          "time": 27.09677599999999,
          "velocity": 0.4645669291338583,
          "duration": 0.11592742708333503
        },
        {
          "name": "D3",
          "midi": 50,
          "time": 27.33871149999999,
          "velocity": 0.5354330708661418,
          "duration": 0.8215726354166684
        },
        {
          "name": "C4",
          "midi": 60,
          "time": 27.580646999999992,
          "velocity": 0.47244094488188976,
          "duration": 0.10584678125000124
        },
        {
          "name": "A3",
          "midi": 57,
          "time": 27.822582499999992,
          "velocity": 0.3700787401574803,
          "duration": 0.10080645833333435
        },
        {
          "name": "D4",
          "midi": 62,
          "time": 28.064517999999993,
          "velocity": 0.5196850393700787,
          "duration": 0.06552419791666608
        },
        {
          "name": "D3",
          "midi": 50,
          "time": 28.306453499999993,
          "velocity": 0.5118110236220472,
          "duration": 0.8064516666666641
        },
        {
          "name": "C4",
          "midi": 60,
          "time": 28.548388999999993,
          "velocity": 0.4409448818897638,
          "duration": 0.14112904166666596
        },
        {
          "name": "A3",
          "midi": 57,
          "time": 28.790324499999993,
          "velocity": 0.4409448818897638,
          "duration": 0.12096774999999838
        },
        {
          "name": "D4",
          "midi": 62,
          "time": 29.03225999999999,
          "velocity": 0.47244094488188976,
          "duration": 0.09072581250000056
        },
        {
          "name": "D3",
          "midi": 50,
          "time": 29.27419549999999,
          "velocity": 0.5275590551181102,
          "duration": 0.8165323124999979
        },
        {
          "name": "C4",
          "midi": 60,
          "time": 29.51613099999999,
          "velocity": 0.4015748031496063,
          "duration": 0.12096774999999838
        },
        {
          "name": "A3",
          "midi": 57,
          "time": 29.758066499999988,
          "velocity": 0.4330708661417323,
          "duration": 0.09072581250000056
        },
        {
          "name": "D4",
          "midi": 62,
          "time": 30.000001999999988,
          "velocity": 0.48031496062992124,
          "duration": 0.11592742708333503
        },
        {
          "name": "D3",
          "midi": 50,
          "time": 30.241937499999988,
          "velocity": 0.5039370078740157,
          "duration": 0.8266129583333353
        },
        {
          "name": "C4",
          "midi": 60,
          "time": 30.48387299999999,
          "velocity": 0.44881889763779526,
          "duration": 0.10584678125000124
        },
        {
          "name": "A3",
          "midi": 57,
          "time": 30.72580849999999,
          "velocity": 0.4330708661417323,
          "duration": 0.11592742708333503
        },
        {
          "name": "D4",
          "midi": 62,
          "time": 30.96774399999999,
          "velocity": 0.47244094488188976,
          "duration": 0.15120968749999975
        },
        {
          "name": "D3",
          "midi": 50,
          "time": 31.20967949999999,
          "velocity": 0.4881889763779528,
          "duration": 0.8266129583333317
        },
        {
          "name": "C4",
          "midi": 60,
          "time": 31.45161499999999,
          "velocity": 0.47244094488188976,
          "duration": 0.11592742708333503
        },
        {
          "name": "A3",
          "midi": 57,
          "time": 31.69355049999999,
          "velocity": 0.47244094488188976,
          "duration": 0.10584678125000124
        },
        {
          "name": "D4",
          "midi": 62,
          "time": 31.93548599999999,
          "velocity": 0.44881889763779526,
          "duration": 0.090725812499997
        },
        {
          "name": "D3",
          "midi": 50,
          "time": 32.17742149999999,
          "velocity": 0.44881889763779526,
          "duration": 0.8669355416666562
        },
        {
          "name": "C4",
          "midi": 60,
          "time": 32.419356999999984,
          "velocity": 0.4645669291338583,
          "duration": 0.1008064583333308
        },
        {
          "name": "A3",
          "midi": 57,
          "time": 32.66129249999998,
          "velocity": 0.5039370078740157,
          "duration": 0.11088710416666459
        },
        {
          "name": "D4",
          "midi": 62,
          "time": 32.90322799999998,
          "velocity": 0.4566929133858268,
          "duration": 0.08568548958333366
        },
        {
          "name": "D3",
          "midi": 50,
          "time": 33.145163499999974,
          "velocity": 0.5275590551181102,
          "duration": 0.8114919895833239
        },
        {
          "name": "C4",
          "midi": 60,
          "time": 33.38709899999997,
          "velocity": 0.49606299212598426,
          "duration": 0.090725812499997
        },
        {
          "name": "A3",
          "midi": 57,
          "time": 33.62903449999997,
          "velocity": 0.4251968503937008,
          "duration": 0.07560484374999987
        },
        {
          "name": "D4",
          "midi": 62,
          "time": 33.870969999999964,
          "velocity": 0.5590551181102362,
          "duration": 0.1008064583333308
        },
        {
          "name": "D3",
          "midi": 50,
          "time": 34.11290549999996,
          "velocity": 0.48031496062992124,
          "duration": 0.8014113437499901
        },
        {
          "name": "C4",
          "midi": 60,
          "time": 34.35484099999996,
          "velocity": 0.4330708661417323,
          "duration": 0.1008064583333308
        },
        {
          "name": "A3",
          "midi": 57,
          "time": 34.596776499999955,
          "velocity": 0.4566929133858268,
          "duration": 0.08064516666666321
        },
        {
          "name": "D4",
          "midi": 62,
          "time": 34.83871199999995,
          "velocity": 0.5118110236220472,
          "duration": 0.09576613541666745
        },
        {
          "name": "D3",
          "midi": 50,
          "time": 35.080647499999955,
          "velocity": 0.5354330708661418,
          "duration": 0.8618952187499929
        },
        {
          "name": "C4",
          "midi": 60,
          "time": 35.32258299999995,
          "velocity": 0.4409448818897638,
          "duration": 0.1008064583333308
        },
        {
          "name": "A3",
          "midi": 57,
          "time": 35.56451849999995,
          "velocity": 0.5118110236220472,
          "duration": 0.1008064583333308
        },
        {
          "name": "D4",
          "midi": 62,
          "time": 35.806453999999945,
          "velocity": 0.5039370078740157,
          "duration": 0.08568548958333366
        },
        {
          "name": "D3",
          "midi": 50,
          "time": 36.04838949999995,
          "velocity": 0.49606299212598426,
          "duration": 0.8215726354166648
        },
        {
          "name": "C4",
          "midi": 60,
          "time": 36.290324999999946,
          "velocity": 0.49606299212598426,
          "duration": 0.1008064583333308
        },
        {
          "name": "A3",
          "midi": 57,
          "time": 36.53226049999994,
          "velocity": 0.47244094488188976,
          "duration": 0.10584678125000124
        },
        {
          "name": "D4",
          "midi": 62,
          "time": 36.77419599999995,
          "velocity": 0.4881889763779528,
          "duration": 0.07560484374999987
        },
        {
          "name": "D3",
          "midi": 50,
          "time": 37.01613149999995,
          "velocity": 0.5196850393700787,
          "duration": 0.7913306979166563
        },
        {
          "name": "C4",
          "midi": 60,
          "time": 37.25806699999995,
          "velocity": 0.4409448818897638,
          "duration": 0.1008064583333308
        },
        {
          "name": "A3",
          "midi": 57,
          "time": 37.500002499999944,
          "velocity": 0.47244094488188976,
          "duration": 0.11088710416666459
        },
        {
          "name": "D4",
          "midi": 62,
          "time": 37.74193799999994,
          "velocity": 0.3858267716535433,
          "duration": 0.07056452083332942
        },
        {
          "name": "D3",
          "midi": 50,
          "time": 37.98387349999994,
          "velocity": 0.5039370078740157,
          "duration": 0.8971774791666576
        },
        {
          "name": "C4",
          "midi": 60,
          "time": 38.225808999999934,
          "velocity": 0.4645669291338583,
          "duration": 0.08064516666666321
        },
        {
          "name": "A3",
          "midi": 57,
          "time": 38.46774449999993,
          "velocity": 0.44881889763779526,
          "duration": 0.090725812499997
        },
        {
          "name": "D4",
          "midi": 62,
          "time": 38.70967999999993,
          "velocity": 0.4015748031496063,
          "duration": 0.06048387500000274
        },
        {
          "name": "D3",
          "midi": 50,
          "time": 38.95161549999993,
          "velocity": 0.4645669291338583,
          "duration": 0.7661290833333396
        },
        {
          "name": "C4",
          "midi": 60,
          "time": 39.19355099999993,
          "velocity": 0.4251968503937008,
          "duration": 0.10584678125000124
        },
        {
          "name": "A3",
          "midi": 57,
          "time": 39.43548649999993,
          "velocity": 0.49606299212598426,
          "duration": 0.10584678125000124
        },
        {
          "name": "D4",
          "midi": 62,
          "time": 39.677421999999936,
          "velocity": 0.48031496062992124,
          "duration": 0.06552419791666608
        },
        {
          "name": "D3",
          "midi": 50,
          "time": 39.91935749999993,
          "velocity": 0.49606299212598426,
          "duration": 0.786290374999993
        },
        {
          "name": "C4",
          "midi": 60,
          "time": 40.16129299999993,
          "velocity": 0.4409448818897638,
          "duration": 0.090725812499997
        },
        {
          "name": "A3",
          "midi": 57,
          "time": 40.403228499999926,
          "velocity": 0.5039370078740157,
          "duration": 0.12096774999999838
        },
        {
          "name": "D4",
          "midi": 62,
          "time": 40.64516399999992,
          "velocity": 0.5196850393700787,
          "duration": 0.1008064583333379
        },
        {
          "name": "D3",
          "midi": 50,
          "time": 40.88709949999993,
          "velocity": 0.4566929133858268,
          "duration": 0.8669355416666562
        },
        {
          "name": "C4",
          "midi": 60,
          "time": 41.129034999999924,
          "velocity": 0.4330708661417323,
          "duration": 0.11088710416666459
        },
        {
          "name": "A3",
          "midi": 57,
          "time": 41.37097049999992,
          "velocity": 0.44881889763779526,
          "duration": 0.14112904166666596
        },
        {
          "name": "D4",
          "midi": 62,
          "time": 41.61290599999992,
          "velocity": 0.5118110236220472,
          "duration": 0.11088710416666459
        },
        {
          "name": "D3",
          "midi": 50,
          "time": 41.854841499999914,
          "velocity": 0.49606299212598426,
          "duration": 0.7308468229166536
        },
        {
          "name": "C4",
          "midi": 60,
          "time": 42.09677699999991,
          "velocity": 0.41732283464566927,
          "duration": 0.090725812499997
        },
        {
          "name": "A3",
          "midi": 57,
          "time": 42.33871249999991,
          "velocity": 0.4409448818897638,
          "duration": 0.1008064583333308
        },
        {
          "name": "D4",
          "midi": 62,
          "time": 42.580647999999904,
          "velocity": 0.49606299212598426,
          "duration": 0.08064516666666321
        },
        {
          "name": "D3",
          "midi": 50,
          "time": 42.8225834999999,
          "velocity": 0.49606299212598426,
          "duration": 0.8618952187499929
        },
        {
          "name": "C4",
          "midi": 60,
          "time": 43.0645189999999,
          "velocity": 0.4566929133858268,
          "duration": 0.11592742708333503
        },
        {
          "name": "A3",
          "midi": 57,
          "time": 43.3064544999999,
          "velocity": 0.3937007874015748,
          "duration": 0.08064516666666321
        },
        {
          "name": "D4",
          "midi": 62,
          "time": 43.5483899999999,
          "velocity": 0.4409448818897638,
          "duration": 0.05544355208333229
        },
        {
          "name": "D3",
          "midi": 50,
          "time": 43.790325499999895,
          "velocity": 0.4881889763779528,
          "duration": 0.8366936041666548
        },
        {
          "name": "C4",
          "midi": 60,
          "time": 44.03226099999989,
          "velocity": 0.4409448818897638,
          "duration": 0.11088710416666459
        },
        {
          "name": "A3",
          "midi": 57,
          "time": 44.27419649999989,
          "velocity": 0.5118110236220472,
          "duration": 0.1008064583333308
        },
        {
          "name": "D4",
          "midi": 62,
          "time": 44.516131999999885,
          "velocity": 0.44881889763779526,
          "duration": 0.08064516666666321
        },
        {
          "name": "D3",
          "midi": 50,
          "time": 44.75806749999988,
          "velocity": 0.4566929133858268,
          "duration": 0.8366936041666548
        },
        {
          "name": "C4",
          "midi": 60,
          "time": 45.00000299999988,
          "velocity": 0.4330708661417323,
          "duration": 0.1008064583333308
        },
        {
          "name": "A3",
          "midi": 57,
          "time": 45.241938499999875,
          "velocity": 0.47244094488188976,
          "duration": 0.12096774999999838
        },
        {
          "name": "D4",
          "midi": 62,
          "time": 45.48387399999987,
          "velocity": 0.5039370078740157,
          "duration": 0.10584678125000124
        },
        {
          "name": "D3",
          "midi": 50,
          "time": 45.72580949999987,
          "velocity": 0.4645669291338583,
          "duration": 0.720766177083334
        },
        {
          "name": "C4",
          "midi": 60,
          "time": 45.967744999999866,
          "velocity": 0.5039370078740157,
          "duration": 0.10584678125000124
        },
        {
          "name": "A3",
          "midi": 57,
          "time": 46.20968049999987,
          "velocity": 0.44881889763779526,
          "duration": 0.1008064583333308
        },
        {
          "name": "D4",
          "midi": 62,
          "time": 46.451615999999866,
          "velocity": 0.47244094488188976,
          "duration": 0.1008064583333308
        },
        {
          "name": "D2",
          "midi": 38,
          "time": 46.69355149999986,
          "velocity": 0.5511811023622047,
          "duration": 0.8518145729166662
        },
        {
          "name": "D1",
          "midi": 26,
          "time": 46.69355149999986,
          "velocity": 0.5039370078740157,
          "duration": 2.6965727604166716
        },
        {
          "name": "D2",
          "midi": 38,
          "time": 47.661293499999864,
          "velocity": 0.5669291338582677,
          "duration": 0.8064516666666677
        },
        {
          "name": "D2",
          "midi": 38,
          "time": 48.629035499999866,
          "velocity": 0.5039370078740157,
          "duration": 0.7913306979166705
        },
        {
          "name": "D2",
          "midi": 38,
          "time": 49.59677749999987,
          "velocity": 0.5984251968503937,
          "duration": 0.8820565104166675
        },
        {
          "name": "D1",
          "midi": 26,
          "time": 49.59677749999987,
          "velocity": 0.5590551181102362,
          "duration": 2.782258249999998
        },
        {
          "name": "D2",
          "midi": 38,
          "time": 50.56451949999987,
          "velocity": 0.5196850393700787,
          "duration": 0.7056452083333298
        },
        {
          "name": "D2",
          "midi": 38,
          "time": 51.53226149999986,
          "velocity": 0.49606299212598426,
          "duration": 0.720766177083334
        },
        {
          "name": "D2",
          "midi": 38,
          "time": 52.50000349999986,
          "velocity": 0.5118110236220472,
          "duration": 0.8820565104166675
        },
        {
          "name": "D1",
          "midi": 26,
          "time": 52.50000349999986,
          "velocity": 0.5354330708661418,
          "duration": 5.645161666666652
        },
        {
          "name": "D2",
          "midi": 38,
          "time": 53.467745499999864,
          "velocity": 0.5669291338582677,
          "duration": 0.7258064999999974
        },
        {
          "name": "D2",
          "midi": 38,
          "time": 54.43548749999986,
          "velocity": 0.5196850393700787,
          "duration": 0.8669355416666633
        },
        {
          "name": "D2",
          "midi": 38,
          "time": 55.40322949999985,
          "velocity": 0.49606299212598426,
          "duration": 0.7913306979166634
        },
        {
          "name": "D2",
          "midi": 38,
          "time": 56.37097149999985,
          "velocity": 0.4330708661417323,
          "duration": 0.7963710208333339
        },
        {
          "name": "D2",
          "midi": 38,
          "time": 57.33871349999985,
          "velocity": 0.5433070866141733,
          "duration": 0.7762097291666663
        },
        {
          "name": "D3",
          "midi": 50,
          "time": 58.30645549999985,
          "velocity": 0.3700787401574803,
          "duration": 0.8518145729166662
        },
        {
          "name": "C4",
          "midi": 60,
          "time": 58.548390999999846,
          "velocity": 0.5039370078740157,
          "duration": 0.11088710416666459
        },
        {
          "name": "A3",
          "midi": 57,
          "time": 58.79032649999984,
          "velocity": 0.47244094488188976,
          "duration": 0.10584678125000124
        },
        {
          "name": "D4",
          "midi": 62,
          "time": 59.03226199999985,
          "velocity": 0.4881889763779528,
          "duration": 0.09576613541666745
        },
        {
          "name": "D3",
          "midi": 50,
          "time": 59.27419749999985,
          "velocity": 0.4015748031496063,
          "duration": 0.7106855312500002
        },
        {
          "name": "C4",
          "midi": 60,
          "time": 59.51613299999985,
          "velocity": 0.4566929133858268,
          "duration": 0.12600807291666882
        },
        {
          "name": "A3",
          "midi": 57,
          "time": 59.75806849999985,
          "velocity": 0.44881889763779526,
          "duration": 0.12096774999999838
        },
        {
          "name": "D4",
          "midi": 62,
          "time": 60.00000399999985,
          "velocity": 0.4881889763779528,
          "duration": 0.08568548958333366
        },
        {
          "name": "D3",
          "midi": 50,
          "time": 60.24193949999985,
          "velocity": 0.41732283464566927,
          "duration": 0.8568548958333295
        },
        {
          "name": "C4",
          "midi": 60,
          "time": 60.48387499999985,
          "velocity": 0.5039370078740157,
          "duration": 0.10584678125000124
        },
        {
          "name": "A3",
          "midi": 57,
          "time": 60.72581049999985,
          "velocity": 0.47244094488188976,
          "duration": 0.14112904166666596
        },
        {
          "name": "D4",
          "midi": 62,
          "time": 60.96774599999985,
          "velocity": 0.48031496062992124,
          "duration": 0.17641130208333067
        },
        {
          "name": "D3",
          "midi": 50,
          "time": 61.209681499999846,
          "velocity": 0.5196850393700787,
          "duration": 0.8064516666666606
        },
        {
          "name": "C4",
          "midi": 60,
          "time": 61.45161699999984,
          "velocity": 0.4330708661417323,
          "duration": 0.11088710416666459
        },
        {
          "name": "A3",
          "midi": 57,
          "time": 61.69355249999984,
          "velocity": 0.4566929133858268,
          "duration": 0.10584678125000124
        },
        {
          "name": "D4",
          "midi": 62,
          "time": 61.93548799999984,
          "velocity": 0.41732283464566927,
          "duration": 0.1008064583333308
        },
        {
          "name": "D3",
          "midi": 50,
          "time": 62.17742349999984,
          "velocity": 0.4330708661417323,
          "duration": 0.8870968333333309
        },
        {
          "name": "C4",
          "midi": 60,
          "time": 62.41935899999984,
          "velocity": 0.41732283464566927,
          "duration": 0.1360887187500026
        },
        {
          "name": "A3",
          "midi": 57,
          "time": 62.66129449999984,
          "velocity": 0.4645669291338583,
          "duration": 0.11088710416666459
        },
        {
          "name": "D4",
          "midi": 62,
          "time": 62.90322999999984,
          "velocity": 0.49606299212598426,
          "duration": 0.11088710416666459
        },
        {
          "name": "D3",
          "midi": 50,
          "time": 63.145165499999834,
          "velocity": 0.44881889763779526,
          "duration": 0.786290374999993
        },
        {
          "name": "C4",
          "midi": 60,
          "time": 63.38710099999983,
          "velocity": 0.4881889763779528,
          "duration": 0.13104839583333217
        },
        {
          "name": "A3",
          "midi": 57,
          "time": 63.62903649999983,
          "velocity": 0.41732283464566927,
          "duration": 0.1008064583333308
        },
        {
          "name": "D4",
          "midi": 62,
          "time": 63.870971999999824,
          "velocity": 0.5118110236220472,
          "duration": 0.10584678125000124
        },
        {
          "name": "D3",
          "midi": 50,
          "time": 64.11290749999982,
          "velocity": 0.4251968503937008,
          "duration": 0.8518145729166662
        },
        {
          "name": "C4",
          "midi": 60,
          "time": 64.35484299999982,
          "velocity": 0.4330708661417323,
          "duration": 0.12096775000000548
        },
        {
          "name": "A3",
          "midi": 57,
          "time": 64.59677849999983,
          "velocity": 0.3779527559055118,
          "duration": 0.090725812499997
        },
        {
          "name": "D4",
          "midi": 62,
          "time": 64.83871399999983,
          "velocity": 0.49606299212598426,
          "duration": 0.1461693645833293
        },
        {
          "name": "D3",
          "midi": 50,
          "time": 65.08064949999982,
          "velocity": 0.4566929133858268,
          "duration": 0.8064516666666748
        },
        {
          "name": "C4",
          "midi": 60,
          "time": 65.32258499999982,
          "velocity": 0.4566929133858268,
          "duration": 0.12096775000000548
        },
        {
          "name": "A3",
          "midi": 57,
          "time": 65.56452049999983,
          "velocity": 0.3937007874015748,
          "duration": 0.11088710416666459
        },
        {
          "name": "D4",
          "midi": 62,
          "time": 65.80645599999983,
          "velocity": 0.4645669291338583,
          "duration": 0.14112904166667306
        },
        {
          "name": "D3",
          "midi": 50,
          "time": 66.04839149999984,
          "velocity": 0.4881889763779528,
          "duration": 0.7661290833333396
        },
        {
          "name": "C4",
          "midi": 60,
          "time": 66.29032699999983,
          "velocity": 0.3937007874015748,
          "duration": 0.11088710416666459
        },
        {
          "name": "A3",
          "midi": 57,
          "time": 66.53226249999983,
          "velocity": 0.5039370078740157,
          "duration": 0.12096775000000548
        },
        {
          "name": "D4",
          "midi": 62,
          "time": 66.77419799999984,
          "velocity": 0.5196850393700787,
          "duration": 0.12096775000000548
        },
        {
          "name": "D3",
          "midi": 50,
          "time": 67.01613349999985,
          "velocity": 0.47244094488188976,
          "duration": 0.8870968333333309
        },
        {
          "name": "C4",
          "midi": 60,
          "time": 67.25806899999985,
          "velocity": 0.4645669291338583,
          "duration": 0.13104839583333217
        },
        {
          "name": "A3",
          "midi": 57,
          "time": 67.50000449999985,
          "velocity": 0.4251968503937008,
          "duration": 0.12600807291666172
        },
        {
          "name": "D4",
          "midi": 62,
          "time": 67.74193999999984,
          "velocity": 0.5118110236220472,
          "duration": 0.11592742708333503
        },
        {
          "name": "D3",
          "midi": 50,
          "time": 67.98387549999985,
          "velocity": 0.44881889763779526,
          "duration": 0.8266129583333424
        },
        {
          "name": "C4",
          "midi": 60,
          "time": 68.22581099999985,
          "velocity": 0.4566929133858268,
          "duration": 0.1360887187500026
        },
        {
          "name": "A3",
          "midi": 57,
          "time": 68.46774649999985,
          "velocity": 0.44881889763779526,
          "duration": 0.12096775000000548
        },
        {
          "name": "D4",
          "midi": 62,
          "time": 68.70968199999986,
          "velocity": 0.4330708661417323,
          "duration": 0.07560484374999987
        },
        {
          "name": "D3",
          "midi": 50,
          "time": 68.95161749999987,
          "velocity": 0.4566929133858268,
          "duration": 0.8014113437500185
        },
        {
          "name": "C4",
          "midi": 60,
          "time": 69.19355299999987,
          "velocity": 0.4409448818897638,
          "duration": 0.12096775000000548
        },
        {
          "name": "A3",
          "midi": 57,
          "time": 69.43548849999988,
          "velocity": 0.4409448818897638,
          "duration": 0.1008064583333379
        },
        {
          "name": "D4",
          "midi": 62,
          "time": 69.67742399999989,
          "velocity": 0.5433070866141733,
          "duration": 0.08568548958332656
        },
        {
          "name": "D3",
          "midi": 50,
          "time": 69.91935949999989,
          "velocity": 0.4409448818897638,
          "duration": 0.8870968333333309
        },
        {
          "name": "C4",
          "midi": 60,
          "time": 70.16129499999988,
          "velocity": 0.4566929133858268,
          "duration": 0.14112904166667306
        },
        {
          "name": "A3",
          "midi": 57,
          "time": 70.40323049999989,
          "velocity": 0.5511811023622047,
          "duration": 0.13104839583333217
        },
        {
          "name": "D4",
          "midi": 62,
          "time": 70.64516599999989,
          "velocity": 0.5196850393700787,
          "duration": 0.12600807291666172
        },
        {
          "name": "D3",
          "midi": 50,
          "time": 70.88710149999989,
          "velocity": 0.5118110236220472,
          "duration": 0.786290374999993
        },
        {
          "name": "C4",
          "midi": 60,
          "time": 71.12903699999988,
          "velocity": 0.44881889763779526,
          "duration": 0.1360887187500026
        },
        {
          "name": "A3",
          "midi": 57,
          "time": 71.37097249999988,
          "velocity": 0.47244094488188976,
          "duration": 0.1360887187500026
        },
        {
          "name": "D4",
          "midi": 62,
          "time": 71.61290799999988,
          "velocity": 0.33858267716535434,
          "duration": 0.16129033333334064
        },
        {
          "name": "D3",
          "midi": 50,
          "time": 71.85484349999989,
          "velocity": 0.49606299212598426,
          "duration": 0.7812500520833368
        },
        {
          "name": "C4",
          "midi": 60,
          "time": 72.09677899999988,
          "velocity": 0.41732283464566927,
          "duration": 0.11088710416666459
        },
        {
          "name": "A3",
          "midi": 57,
          "time": 72.33871449999988,
          "velocity": 0.49606299212598426,
          "duration": 0.12096775000000548
        },
        {
          "name": "D4",
          "midi": 62,
          "time": 72.58064999999989,
          "velocity": 0.4645669291338583,
          "duration": 0.11592742708333503
        },
        {
          "name": "D3",
          "midi": 50,
          "time": 72.82258549999989,
          "velocity": 0.4566929133858268,
          "duration": 0.8870968333333309
        },
        {
          "name": "C4",
          "midi": 60,
          "time": 73.06452099999989,
          "velocity": 0.44881889763779526,
          "duration": 0.12600807291666172
        },
        {
          "name": "A3",
          "midi": 57,
          "time": 73.30645649999988,
          "velocity": 0.4566929133858268,
          "duration": 0.11592742708333503
        },
        {
          "name": "D4",
          "midi": 62,
          "time": 73.54839199999988,
          "velocity": 0.4566929133858268,
          "duration": 0.09576613541666745
        },
        {
          "name": "D3",
          "midi": 50,
          "time": 73.79032749999989,
          "velocity": 0.47244094488188976,
          "duration": 0.8266129583333566
        },
        {
          "name": "C4",
          "midi": 60,
          "time": 74.03226299999989,
          "velocity": 0.4094488188976378,
          "duration": 0.12096775000000548
        },
        {
          "name": "A3",
          "midi": 57,
          "time": 74.2741984999999,
          "velocity": 0.47244094488188976,
          "duration": 0.1008064583333379
        },
        {
          "name": "D4",
          "midi": 62,
          "time": 74.51613399999991,
          "velocity": 0.5196850393700787,
          "duration": 0.10584678125000835
        },
        {
          "name": "D3",
          "midi": 50,
          "time": 74.75806949999992,
          "velocity": 0.4409448818897638,
          "duration": 0.7510081145833283
        },
        {
          "name": "C4",
          "midi": 60,
          "time": 75.00000499999992,
          "velocity": 0.4881889763779528,
          "duration": 0.13104839583333217
        },
        {
          "name": "A3",
          "midi": 57,
          "time": 75.24194049999991,
          "velocity": 0.5118110236220472,
          "duration": 0.11592742708333503
        },
        {
          "name": "D4",
          "midi": 62,
          "time": 75.48387599999991,
          "velocity": 0.5196850393700787,
          "duration": 0.08064516666667032
        },
        {
          "name": "D3",
          "midi": 50,
          "time": 75.7258114999999,
          "velocity": 0.49606299212598426,
          "duration": 0.8719758645833338
        },
        {
          "name": "C4",
          "midi": 60,
          "time": 75.9677469999999,
          "velocity": 0.4566929133858268,
          "duration": 0.12096775000000548
        },
        {
          "name": "A3",
          "midi": 57,
          "time": 76.20968249999991,
          "velocity": 0.44881889763779526,
          "duration": 0.16129033333332643
        },
        {
          "name": "D4",
          "midi": 62,
          "time": 76.45161799999991,
          "velocity": 0.5118110236220472,
          "duration": 0.09576613541666745
        },
        {
          "name": "D3",
          "midi": 50,
          "time": 76.69355349999991,
          "velocity": 0.4015748031496063,
          "duration": 0.7862903750000072
        },
        {
          "name": "C4",
          "midi": 60,
          "time": 76.9354889999999,
          "velocity": 0.4409448818897638,
          "duration": 0.10584678124999414
        },
        {
          "name": "A3",
          "midi": 57,
          "time": 77.1774244999999,
          "velocity": 0.4881889763779528,
          "duration": 0.1008064583333379
        },
        {
          "name": "D4",
          "midi": 62,
          "time": 77.41935999999991,
          "velocity": 0.49606299212598426,
          "duration": 0.090725812499997
        },
        {
          "name": "D3",
          "midi": 50,
          "time": 77.66129549999991,
          "velocity": 0.4094488188976378,
          "duration": 0.7459677916666578
        },
        {
          "name": "C4",
          "midi": 60,
          "time": 77.9032309999999,
          "velocity": 0.4330708661417323,
          "duration": 0.11592742708333503
        },
        {
          "name": "A3",
          "midi": 57,
          "time": 78.1451664999999,
          "velocity": 0.4881889763779528,
          "duration": 0.11592742708333503
        },
        {
          "name": "D4",
          "midi": 62,
          "time": 78.3871019999999,
          "velocity": 0.5039370078740157,
          "duration": 0.09576613541666745
        },
        {
          "name": "D3",
          "midi": 50,
          "time": 78.6290374999999,
          "velocity": 0.4566929133858268,
          "duration": 0.8669355416666775
        },
        {
          "name": "C4",
          "midi": 60,
          "time": 78.87097299999989,
          "velocity": 0.4330708661417323,
          "duration": 0.12096775000000548
        },
        {
          "name": "A3",
          "midi": 57,
          "time": 79.1129084999999,
          "velocity": 0.4409448818897638,
          "duration": 0.11088710416666459
        },
        {
          "name": "D4",
          "midi": 62,
          "time": 79.3548439999999,
          "velocity": 0.5118110236220472,
          "duration": 0.12096775000000548
        },
        {
          "name": "D3",
          "midi": 50,
          "time": 79.59677949999991,
          "velocity": 0.5118110236220472,
          "duration": 0.8014113437499901
        },
        {
          "name": "C4",
          "midi": 60,
          "time": 79.83871499999991,
          "velocity": 0.4330708661417323,
          "duration": 0.11088710416666459
        },
        {
          "name": "A3",
          "midi": 57,
          "time": 80.0806504999999,
          "velocity": 0.3937007874015748,
          "duration": 0.11088710416666459
        },
        {
          "name": "D4",
          "midi": 62,
          "time": 80.3225859999999,
          "velocity": 0.5039370078740157,
          "duration": 0.08568548958332656
        },
        {
          "name": "D3",
          "midi": 50,
          "time": 80.5645214999999,
          "velocity": 0.3858267716535433,
          "duration": 0.786290374999993
        },
        {
          "name": "C4",
          "midi": 60,
          "time": 80.8064569999999,
          "velocity": 0.4566929133858268,
          "duration": 0.11088710416666459
        },
        {
          "name": "A3",
          "midi": 57,
          "time": 81.04839249999989,
          "velocity": 0.4409448818897638,
          "duration": 0.12600807291666172
        },
        {
          "name": "D4",
          "midi": 62,
          "time": 81.29032799999989,
          "velocity": 0.4645669291338583,
          "duration": 0.1008064583333379
        },
        {
          "name": "D2",
          "midi": 38,
          "time": 81.5322634999999,
          "velocity": 0.5039370078740157,
          "duration": 0.7610887604166692
        },
        {
          "name": "D1",
          "midi": 26,
          "time": 81.5322634999999,
          "velocity": 0.5354330708661418,
          "duration": 2.721774374999981
        },
        {
          "name": "D2",
          "midi": 38,
          "time": 82.5000054999999,
          "velocity": 0.41732283464566927,
          "duration": 0.8064516666666606
        },
        {
          "name": "D2",
          "midi": 38,
          "time": 83.46774749999989,
          "velocity": 0.5039370078740157,
          "duration": 0.8366936041666548
        },
        {
          "name": "D2",
          "midi": 38,
          "time": 84.43548949999987,
          "velocity": 0.5433070866141733,
          "duration": 0.8266129583333282
        },
        {
          "name": "D1",
          "midi": 26,
          "time": 84.43548949999987,
          "velocity": 0.5118110236220472,
          "duration": 2.741935666666649
        },
        {
          "name": "D2",
          "midi": 38,
          "time": 85.40323149999988,
          "velocity": 0.4015748031496063,
          "duration": 0.8064516666666606
        },
        {
          "name": "D2",
          "midi": 38,
          "time": 86.37097349999986,
          "velocity": 0.4645669291338583,
          "duration": 0.8366936041666548
        },
        {
          "name": "D2",
          "midi": 38,
          "time": 87.33871549999985,
          "velocity": 0.3937007874015748,
          "duration": 0.8467742499999957
        },
        {
          "name": "D1",
          "midi": 26,
          "time": 87.33871549999985,
          "velocity": 0.49606299212598426,
          "duration": 5.66532295833332
        },
        {
          "name": "D2",
          "midi": 38,
          "time": 88.30645749999985,
          "velocity": 0.49606299212598426,
          "duration": 0.786290374999993
        },
        {
          "name": "D2",
          "midi": 38,
          "time": 89.27419949999984,
          "velocity": 0.4251968503937008,
          "duration": 0.8669355416666633
        },
        {
          "name": "D2",
          "midi": 38,
          "time": 90.24194149999984,
          "velocity": 0.4566929133858268,
          "duration": 0.8215726354166719
        },
        {
          "name": "D2",
          "midi": 38,
          "time": 91.20968349999984,
          "velocity": 0.49606299212598426,
          "duration": 0.836693604166669
        },
        {
          "name": "D2",
          "midi": 38,
          "time": 92.17742549999984,
          "velocity": 0.4645669291338583,
          "duration": 0.8719758645833338
        },
        {
          "name": "D2",
          "midi": 38,
          "time": 93.14516749999984,
          "velocity": 0.4566929133858268,
          "duration": 0.7812500520833368
        },
        {
          "name": "D1",
          "midi": 26,
          "time": 93.14516749999984,
          "velocity": 0.4645669291338583,
          "duration": 2.792338895833325
        },
        {
          "name": "D2",
          "midi": 38,
          "time": 94.11290949999984,
          "velocity": 0.4409448818897638,
          "duration": 0.8820565104166604
        },
        {
          "name": "D2",
          "midi": 38,
          "time": 95.08065149999983,
          "velocity": 0.4330708661417323,
          "duration": 0.8215726354166719
        },
        {
          "name": "D2",
          "midi": 38,
          "time": 96.04839349999983,
          "velocity": 0.4015748031496063,
          "duration": 0.8719758645833338
        },
        {
          "name": "D1",
          "midi": 26,
          "time": 96.04839349999983,
          "velocity": 0.5196850393700787,
          "duration": 2.7570566354166743
        },
        {
          "name": "D2",
          "midi": 38,
          "time": 97.01613549999983,
          "velocity": 0.3858267716535433,
          "duration": 0.8215726354166719
        },
        {
          "name": "D2",
          "midi": 38,
          "time": 97.98387749999983,
          "velocity": 0.4409448818897638,
          "duration": 0.8165323125000015
        },
        {
          "name": "D2",
          "midi": 38,
          "time": 98.95161949999984,
          "velocity": 0.44881889763779526,
          "duration": 0.902217802083328
        },
        {
          "name": "D1",
          "midi": 26,
          "time": 98.95161949999984,
          "velocity": 0.4330708661417323,
          "duration": 5.599798760416675
        },
        {
          "name": "D2",
          "midi": 38,
          "time": 99.91936149999984,
          "velocity": 0.3464566929133858,
          "duration": 0.8266129583333282
        },
        {
          "name": "D2",
          "midi": 38,
          "time": 100.88710349999984,
          "velocity": 0.29133858267716534,
          "duration": 0.8467742499999957
        },
        {
          "name": "D2",
          "midi": 38,
          "time": 101.85484549999984,
          "velocity": 0.4330708661417323,
          "duration": 0.7409274687500016
        },
        {
          "name": "D2",
          "midi": 38,
          "time": 102.82258749999984,
          "velocity": 0.44881889763779526,
          "duration": 0.7661290833333396
        },
        {
          "name": "D2",
          "midi": 38,
          "time": 103.79032949999984,
          "velocity": 0.4566929133858268,
          "duration": 0.53931455208334
        },
        {
          "name": "D3",
          "midi": 50,
          "time": 104.75807149999984,
          "velocity": 0.6535433070866141,
          "duration": 0.16129033333332643
        },
        {
          "name": "C4",
          "midi": 60,
          "time": 105.00000699999984,
          "velocity": 0.5905511811023622,
          "duration": 0.22177420833332917
        },
        {
          "name": "A3",
          "midi": 57,
          "time": 105.24194249999984,
          "velocity": 0.6614173228346457,
          "duration": 0.16633065624999688
        },
        {
          "name": "D4",
          "midi": 62,
          "time": 105.48387799999983,
          "velocity": 0.6141732283464567,
          "duration": 0.18649194791666446
        },
        {
          "name": "D3",
          "midi": 50,
          "time": 105.72581349999983,
          "velocity": 0.7086614173228346,
          "duration": 0.16129033333332643
        },
        {
          "name": "C4",
          "midi": 60,
          "time": 105.96774899999983,
          "velocity": 0.5748031496062992,
          "duration": 0.19657259375000535
        },
        {
          "name": "A3",
          "midi": 57,
          "time": 106.20968449999984,
          "velocity": 0.49606299212598426,
          "duration": 0.13104839583333217
        },
        {
          "name": "D4",
          "midi": 62,
          "time": 106.45161999999983,
          "velocity": 0.4566929133858268,
          "duration": 0.14112904166667306
        },
        {
          "name": "D3",
          "midi": 50,
          "time": 106.69355549999985,
          "velocity": 0.5118110236220472,
          "duration": 0.15120968749999975
        },
        {
          "name": "C4",
          "midi": 60,
          "time": 106.93549099999984,
          "velocity": 0.4330708661417323,
          "duration": 0.1915322708333349
        },
        {
          "name": "A3",
          "midi": 57,
          "time": 107.17742649999984,
          "velocity": 0.5275590551181102,
          "duration": 0.1360887187500026
        },
        {
          "name": "D4",
          "midi": 62,
          "time": 107.41936199999984,
          "velocity": 0.5039370078740157,
          "duration": 0.14112904166667306
        },
        {
          "name": "D3",
          "midi": 50,
          "time": 107.66129749999985,
          "velocity": 0.5511811023622047,
          "duration": 0.15120968749999975
        },
        {
          "name": "C4",
          "midi": 60,
          "time": 107.90323299999984,
          "velocity": 0.47244094488188976,
          "duration": 0.16129033333332643
        },
        {
          "name": "A3",
          "midi": 57,
          "time": 108.14516849999984,
          "velocity": 0.5590551181102362,
          "duration": 0.11592742708333503
        },
        {
          "name": "D4",
          "midi": 62,
          "time": 108.38710399999984,
          "velocity": 0.5039370078740157,
          "duration": 0.1360887187500026
        },
        {
          "name": "D3",
          "midi": 50,
          "time": 108.62903949999983,
          "velocity": 0.5118110236220472,
          "duration": 0.14112904166667306
        },
        {
          "name": "C4",
          "midi": 60,
          "time": 108.87097499999985,
          "velocity": 0.48031496062992124,
          "duration": 0.16633065624999688
        },
        {
          "name": "A3",
          "midi": 57,
          "time": 109.11291049999984,
          "velocity": 0.5118110236220472,
          "duration": 0.12096775000000548
        },
        {
          "name": "D4",
          "midi": 62,
          "time": 109.35484599999985,
          "velocity": 0.4881889763779528,
          "duration": 0.1360887187500026
        },
        {
          "name": "D3",
          "midi": 50,
          "time": 109.59678149999985,
          "velocity": 0.47244094488188976,
          "duration": 0.1360887187500026
        },
        {
          "name": "C4",
          "midi": 60,
          "time": 109.83871699999985,
          "velocity": 0.4645669291338583,
          "duration": 0.16129033333332643
        },
        {
          "name": "A3",
          "midi": 57,
          "time": 110.08065249999984,
          "velocity": 0.47244094488188976,
          "duration": 0.1008064583333379
        },
        {
          "name": "D4",
          "midi": 62,
          "time": 110.32258799999985,
          "velocity": 0.4881889763779528,
          "duration": 0.12096775000000548
        },
        {
          "name": "D3",
          "midi": 50,
          "time": 110.56452349999986,
          "velocity": 0.5118110236220472,
          "duration": 0.16129033333332643
        },
        {
          "name": "C4",
          "midi": 60,
          "time": 110.80645899999986,
          "velocity": 0.4645669291338583,
          "duration": 0.13104839583333217
        },
        {
          "name": "A3",
          "midi": 57,
          "time": 111.04839449999986,
          "velocity": 0.5118110236220472,
          "duration": 0.12096775000000548
        },
        {
          "name": "D4",
          "midi": 62,
          "time": 111.29032999999987,
          "velocity": 0.4881889763779528,
          "duration": 0.12096775000000548
        },
        {
          "name": "D3",
          "midi": 50,
          "time": 111.53226549999988,
          "velocity": 0.5196850393700787,
          "duration": 0.1461693645833293
        },
        {
          "name": "C4",
          "midi": 60,
          "time": 111.77420099999988,
          "velocity": 0.47244094488188976,
          "duration": 0.14112904166667306
        },
        {
          "name": "A3",
          "midi": 57,
          "time": 112.01613649999989,
          "velocity": 0.5196850393700787,
          "duration": 0.12600807291666172
        },
        {
          "name": "D4",
          "midi": 62,
          "time": 112.25807199999988,
          "velocity": 0.5118110236220472,
          "duration": 0.16129033333332643
        },
        {
          "name": "D3",
          "midi": 50,
          "time": 112.50000749999988,
          "velocity": 0.5748031496062992,
          "duration": 0.15120968749999975
        },
        {
          "name": "C4",
          "midi": 60,
          "time": 112.74194299999988,
          "velocity": 0.4566929133858268,
          "duration": 0.14112904166667306
        },
        {
          "name": "A3",
          "midi": 57,
          "time": 112.98387849999989,
          "velocity": 0.5039370078740157,
          "duration": 0.1461693645833293
        },
        {
          "name": "D4",
          "midi": 62,
          "time": 113.22581399999989,
          "velocity": 0.5039370078740157,
          "duration": 0.12096775000000548
        },
        {
          "name": "D3",
          "midi": 50,
          "time": 113.4677494999999,
          "velocity": 0.5669291338582677,
          "duration": 0.181451624999994
        },
        {
          "name": "C4",
          "midi": 60,
          "time": 113.7096849999999,
          "velocity": 0.4566929133858268,
          "duration": 0.16633065624999688
        },
        {
          "name": "A3",
          "midi": 57,
          "time": 113.95162049999989,
          "velocity": 0.5275590551181102,
          "duration": 0.16633065624999688
        },
        {
          "name": "D4",
          "midi": 62,
          "time": 114.19355599999989,
          "velocity": 0.5118110236220472,
          "duration": 0.17641130208333777
        },
        {
          "name": "D3",
          "midi": 50,
          "time": 114.4354914999999,
          "velocity": 0.5039370078740157,
          "duration": 0.17137097916666733
        },
        {
          "name": "C4",
          "midi": 60,
          "time": 114.6774269999999,
          "velocity": 0.47244094488188976,
          "duration": 0.17137097916666733
        },
        {
          "name": "A3",
          "midi": 57,
          "time": 114.91936249999989,
          "velocity": 0.5039370078740157,
          "duration": 0.1360887187500026
        },
        {
          "name": "D4",
          "midi": 62,
          "time": 115.16129799999989,
          "velocity": 0.47244094488188976,
          "duration": 0.17641130208333777
        },
        {
          "name": "D3",
          "midi": 50,
          "time": 115.4032334999999,
          "velocity": 0.5118110236220472,
          "duration": 0.16129033333332643
        },
        {
          "name": "C4",
          "midi": 60,
          "time": 115.6451689999999,
          "velocity": 0.44881889763779526,
          "duration": 0.16129033333332643
        },
        {
          "name": "A3",
          "midi": 57,
          "time": 115.8871044999999,
          "velocity": 0.5039370078740157,
          "duration": 0.12600807291666172
        },
        {
          "name": "D4",
          "midi": 62,
          "time": 116.12903999999989,
          "velocity": 0.49606299212598426,
          "duration": 0.16633065624999688
        },
        {
          "name": "D3",
          "midi": 50,
          "time": 116.37097549999989,
          "velocity": 0.5354330708661418,
          "duration": 0.1562500104166702
        },
        {
          "name": "C4",
          "midi": 60,
          "time": 116.61291099999988,
          "velocity": 0.4645669291338583,
          "duration": 0.19657259375000535
        },
        {
          "name": "A3",
          "midi": 57,
          "time": 116.8548464999999,
          "velocity": 0.4881889763779528,
          "duration": 0.12600807291666172
        },
        {
          "name": "D4",
          "midi": 62,
          "time": 117.09678199999989,
          "velocity": 0.5039370078740157,
          "duration": 0.15120968749999975
        },
        {
          "name": "D3",
          "midi": 50,
          "time": 117.33871749999989,
          "velocity": 0.5196850393700787,
          "duration": 0.14112904166667306
        },
        {
          "name": "C4",
          "midi": 60,
          "time": 117.5806529999999,
          "velocity": 0.4566929133858268,
          "duration": 0.17137097916666733
        },
        {
          "name": "A3",
          "midi": 57,
          "time": 117.8225884999999,
          "velocity": 0.5196850393700787,
          "duration": 0.13104839583333217
        },
        {
          "name": "D4",
          "midi": 62,
          "time": 118.06452399999989,
          "velocity": 0.5118110236220472,
          "duration": 0.16129033333332643
        },
        {
          "name": "D3",
          "midi": 50,
          "time": 118.30645949999989,
          "velocity": 0.5275590551181102,
          "duration": 0.1360887187500026
        },
        {
          "name": "C4",
          "midi": 60,
          "time": 118.54839499999989,
          "velocity": 0.4645669291338583,
          "duration": 0.16129033333332643
        },
        {
          "name": "A3",
          "midi": 57,
          "time": 118.79033049999988,
          "velocity": 0.47244094488188976,
          "duration": 0.16129033333332643
        },
        {
          "name": "D4",
          "midi": 62,
          "time": 119.03226599999988,
          "velocity": 0.5039370078740157,
          "duration": 0.11088710416666459
        },
        {
          "name": "D3",
          "midi": 50,
          "time": 119.27420149999988,
          "velocity": 0.5748031496062992,
          "duration": 0.16129033333332643
        },
        {
          "name": "C4",
          "midi": 60,
          "time": 119.51613699999987,
          "velocity": 0.47244094488188976,
          "duration": 0.16129033333332643
        },
        {
          "name": "A3",
          "midi": 57,
          "time": 119.75807249999987,
          "velocity": 0.5275590551181102,
          "duration": 0.15120968749999975
        },
        {
          "name": "D4",
          "midi": 62,
          "time": 120.00000799999987,
          "velocity": 0.5118110236220472,
          "duration": 0.17641130208333777
        },
        {
          "name": "D3",
          "midi": 50,
          "time": 120.24194349999988,
          "velocity": 0.6299212598425197,
          "duration": 0.1360887187500026
        },
        {
          "name": "C4",
          "midi": 60,
          "time": 120.48387899999987,
          "velocity": 0.4566929133858268,
          "duration": 0.1562500104166702
        },
        {
          "name": "A3",
          "midi": 57,
          "time": 120.72581449999987,
          "velocity": 0.5118110236220472,
          "duration": 0.15120968749999975
        },
        {
          "name": "D4",
          "midi": 62,
          "time": 120.96774999999987,
          "velocity": 0.4881889763779528,
          "duration": 0.17137097916666733
        },
        {
          "name": "D3",
          "midi": 50,
          "time": 121.20968549999986,
          "velocity": 0.5984251968503937,
          "duration": 0.13104839583333217
        },
        {
          "name": "C4",
          "midi": 60,
          "time": 121.45162099999986,
          "velocity": 0.44881889763779526,
          "duration": 0.15120968749999975
        },
        {
          "name": "A3",
          "midi": 57,
          "time": 121.69355649999986,
          "velocity": 0.5118110236220472,
          "duration": 0.14112904166667306
        },
        {
          "name": "D4",
          "midi": 62,
          "time": 121.93549199999987,
          "velocity": 0.4881889763779528,
          "duration": 0.15120968749999975
        },
        {
          "name": "D3",
          "midi": 50,
          "time": 122.17742749999987,
          "velocity": 0.5748031496062992,
          "duration": 0.14112904166667306
        },
        {
          "name": "C4",
          "midi": 60,
          "time": 122.41936299999988,
          "velocity": 0.44881889763779526,
          "duration": 0.1562500104166702
        },
        {
          "name": "A3",
          "midi": 57,
          "time": 122.66129849999987,
          "velocity": 0.47244094488188976,
          "duration": 0.14112904166667306
        },
        {
          "name": "D4",
          "midi": 62,
          "time": 122.90323399999988,
          "velocity": 0.4881889763779528,
          "duration": 0.15120968749999975
        },
        {
          "name": "D3",
          "midi": 50,
          "time": 123.14516949999988,
          "velocity": 0.5118110236220472,
          "duration": 0.13104839583333217
        },
        {
          "name": "C4",
          "midi": 60,
          "time": 123.38710499999988,
          "velocity": 0.4251968503937008,
          "duration": 0.16129033333332643
        },
        {
          "name": "A3",
          "midi": 57,
          "time": 123.62904049999987,
          "velocity": 0.48031496062992124,
          "duration": 0.15120968749999975
        },
        {
          "name": "D4",
          "midi": 62,
          "time": 123.87097599999987,
          "velocity": 0.4645669291338583,
          "duration": 0.14112904166667306
        },
        {
          "name": "D3",
          "midi": 50,
          "time": 124.11291149999988,
          "velocity": 0.5354330708661418,
          "duration": 0.181451624999994
        },
        {
          "name": "C4",
          "midi": 60,
          "time": 124.35484699999988,
          "velocity": 0.4251968503937008,
          "duration": 0.1360887187500026
        },
        {
          "name": "A3",
          "midi": 57,
          "time": 124.59678249999988,
          "velocity": 0.4409448818897638,
          "duration": 0.13104839583333217
        },
        {
          "name": "D4",
          "midi": 62,
          "time": 124.83871799999987,
          "velocity": 0.4645669291338583,
          "duration": 0.14112904166667306
        },
        {
          "name": "D3",
          "midi": 50,
          "time": 125.08065349999988,
          "velocity": 0.5354330708661418,
          "duration": 0.16633065624999688
        },
        {
          "name": "C4",
          "midi": 60,
          "time": 125.32258899999988,
          "velocity": 0.4409448818897638,
          "duration": 0.17137097916666733
        },
        {
          "name": "A3",
          "midi": 57,
          "time": 125.56452449999988,
          "velocity": 0.4645669291338583,
          "duration": 0.14112904166667306
        },
        {
          "name": "D4",
          "midi": 62,
          "time": 125.80645999999989,
          "velocity": 0.4881889763779528,
          "duration": 0.1562500104166702
        },
        {
          "name": "D3",
          "midi": 50,
          "time": 126.04839549999988,
          "velocity": 0.5118110236220472,
          "duration": 0.20665323958333204
        },
        {
          "name": "C4",
          "midi": 60,
          "time": 126.29033099999988,
          "velocity": 0.4330708661417323,
          "duration": 0.15120968749999975
        },
        {
          "name": "A3",
          "midi": 57,
          "time": 126.53226649999988,
          "velocity": 0.47244094488188976,
          "duration": 0.13104839583333217
        },
        {
          "name": "D4",
          "midi": 62,
          "time": 126.77420199999987,
          "velocity": 0.4645669291338583,
          "duration": 0.1461693645833293
        },
        {
          "name": "D3",
          "midi": 50,
          "time": 127.01613749999987,
          "velocity": 0.47244094488188976,
          "duration": 0.181451624999994
        },
        {
          "name": "C4",
          "midi": 60,
          "time": 127.25807299999987,
          "velocity": 0.4094488188976378,
          "duration": 0.181451624999994
        },
        {
          "name": "A3",
          "midi": 57,
          "time": 127.50000849999986,
          "velocity": 0.4094488188976378,
          "duration": 0.13104839583333217
        },
        {
          "name": "D4",
          "midi": 62,
          "time": 127.74194399999986,
          "velocity": 0.4409448818897638,
          "duration": 0.13104839583333217
        },
        {
          "name": "D2",
          "midi": 38,
          "time": 127.98387949999986,
          "velocity": 0.5669291338582677,
          "duration": 2.8629034166666543
        },
        {
          "name": "D3",
          "midi": 50,
          "time": 127.98387949999986,
          "velocity": 0.6614173228346457,
          "duration": 1.9405243229166729
        },
        {
          "name": "D3",
          "midi": 50,
          "time": 129.91936349999986,
          "velocity": 0.7244094488188977,
          "duration": 0.8266129583333282
        },
        {
          "name": "D2",
          "midi": 38,
          "time": 130.88710549999985,
          "velocity": 0.6141732283464567,
          "duration": 2.767137281250001
        },
        {
          "name": "D3",
          "midi": 50,
          "time": 130.88710549999985,
          "velocity": 0.6929133858267716,
          "duration": 0.8064516666666748
        },
        {
          "name": "D3",
          "midi": 50,
          "time": 131.85484749999986,
          "velocity": 0.7165354330708661,
          "duration": 0.9324597395833223
        },
        {
          "name": "D3",
          "midi": 50,
          "time": 132.82258949999985,
          "velocity": 0.6692913385826772,
          "duration": 0.8064516666666748
        },
        {
          "name": "D2",
          "midi": 38,
          "time": 133.79033149999984,
          "velocity": 0.6299212598425197,
          "duration": 2.8175405104167055
        },
        {
          "name": "D3",
          "midi": 50,
          "time": 133.79033149999984,
          "velocity": 0.7165354330708661,
          "duration": 0.8467742500000099
        },
        {
          "name": "D3",
          "midi": 50,
          "time": 134.75807349999985,
          "velocity": 0.7244094488188977,
          "duration": 0.9122984479166689
        },
        {
          "name": "D3",
          "midi": 50,
          "time": 135.72581549999987,
          "velocity": 0.6850393700787402,
          "duration": 0.8770161875000042
        },
        {
          "name": "D2",
          "midi": 38,
          "time": 136.69355749999988,
          "velocity": 0.6062992125984252,
          "duration": 2.716734052083325
        },
        {
          "name": "D3",
          "midi": 50,
          "time": 136.69355749999988,
          "velocity": 0.6929133858267716,
          "duration": 0.902217802083328
        },
        {
          "name": "D3",
          "midi": 50,
          "time": 137.66129949999987,
          "velocity": 0.6850393700787402,
          "duration": 0.8820565104166747
        },
        {
          "name": "D3",
          "midi": 50,
          "time": 138.6290414999999,
          "velocity": 0.7007874015748031,
          "duration": 0.8165323124999873
        },
        {
          "name": "D3",
          "midi": 50,
          "time": 139.59678349999987,
          "velocity": 0.7401574803149606,
          "duration": 0.8770161875000042
        },
        {
          "name": "D1",
          "midi": 26,
          "time": 139.59678349999987,
          "velocity": 0.7086614173228346,
          "duration": 2.7620969583333306
        },
        {
          "name": "D3",
          "midi": 50,
          "time": 140.5645254999999,
          "velocity": 0.6850393700787402,
          "duration": 0.8618952187499929
        },
        {
          "name": "D3",
          "midi": 50,
          "time": 141.53226749999988,
          "velocity": 0.6929133858267716,
          "duration": 0.8669355416666633
        },
        {
          "name": "D3",
          "midi": 50,
          "time": 142.50000949999986,
          "velocity": 0.6929133858267716,
          "duration": 0.8669355416666633
        },
        {
          "name": "D1",
          "midi": 26,
          "time": 142.50000949999986,
          "velocity": 0.6929133858267716,
          "duration": 2.8578630937499554
        },
        {
          "name": "D3",
          "midi": 50,
          "time": 143.46775149999985,
          "velocity": 0.7559055118110236,
          "duration": 0.8921371562499871
        },
        {
          "name": "D3",
          "midi": 50,
          "time": 144.43549349999984,
          "velocity": 0.7559055118110236,
          "duration": 0.8618952187499929
        },
        {
          "name": "D3",
          "midi": 50,
          "time": 145.40323549999982,
          "velocity": 0.7716535433070866,
          "duration": 0.8770161875000042
        },
        {
          "name": "D1",
          "midi": 26,
          "time": 145.40323549999982,
          "velocity": 0.8582677165354331,
          "duration": 5.559476177083354
        },
        {
          "name": "D3",
          "midi": 50,
          "time": 146.37097749999984,
          "velocity": 0.7165354330708661,
          "duration": 0.8770161875000042
        },
        {
          "name": "D3",
          "midi": 50,
          "time": 147.33871949999985,
          "velocity": 0.7244094488188977,
          "duration": 0.8669355416666633
        },
        {
          "name": "D3",
          "midi": 50,
          "time": 148.30646149999984,
          "velocity": 0.6929133858267716,
          "duration": 0.836693604166669
        },
        {
          "name": "D3",
          "midi": 50,
          "time": 149.27420349999986,
          "velocity": 0.7559055118110236,
          "duration": 0.8921371562499871
        },
        {
          "name": "D3",
          "midi": 50,
          "time": 150.24194549999984,
          "velocity": 0.6299212598425197,
          "duration": 0.7963710208333339
        },
        {
          "name": "D2",
          "midi": 38,
          "time": 151.20968749999983,
          "velocity": 0.8188976377952756,
          "duration": 0.43346777083334587
        },
        {
          "name": "D3",
          "midi": 50,
          "time": 151.20968749999983,
          "velocity": 0.84251968503937,
          "duration": 0.4284274479166754
        },
        {
          "name": "C2",
          "midi": 36,
          "time": 151.69355849999985,
          "velocity": 0.7637795275590551,
          "duration": 0.8669355416666633
        },
        {
          "name": "C3",
          "midi": 48,
          "time": 151.69355849999985,
          "velocity": 0.9291338582677166,
          "duration": 0.8719758645833338
        },
        {
          "name": "D2",
          "midi": 38,
          "time": 152.66130049999984,
          "velocity": 0.7952755905511811,
          "duration": 0.3830645416666698
        },
        {
          "name": "D3",
          "midi": 50,
          "time": 152.66130049999984,
          "velocity": 0.8188976377952756,
          "duration": 0.3931451875000107
        },
        {
          "name": "C2",
          "midi": 36,
          "time": 153.14517149999986,
          "velocity": 0.8582677165354331,
          "duration": 0.8618952187500213
        },
        {
          "name": "C3",
          "midi": 48,
          "time": 153.14517149999986,
          "velocity": 0.84251968503937,
          "duration": 0.8518145729166804
        },
        {
          "name": "D2",
          "midi": 38,
          "time": 154.11291349999988,
          "velocity": 0.8031496062992126,
          "duration": 0.40826615624999363
        },
        {
          "name": "D3",
          "midi": 50,
          "time": 154.11291349999988,
          "velocity": 0.8582677165354331,
          "duration": 0.40826615624999363
        },
        {
          "name": "C2",
          "midi": 36,
          "time": 154.59678449999987,
          "velocity": 0.7559055118110236,
          "duration": 0.3830645416666698
        },
        {
          "name": "C3",
          "midi": 48,
          "time": 154.59678449999987,
          "velocity": 0.8188976377952756,
          "duration": 0.36794357291665847
        },
        {
          "name": "D2",
          "midi": 38,
          "time": 155.08065549999986,
          "velocity": 0.7874015748031497,
          "duration": 0.4032258333333232
        },
        {
          "name": "D3",
          "midi": 50,
          "time": 155.08065549999986,
          "velocity": 0.8031496062992126,
          "duration": 0.4032258333333232
        },
        {
          "name": "C3",
          "midi": 48,
          "time": 155.56452649999986,
          "velocity": 0.8818897637795275,
          "duration": 0.39818551041665273
        },
        {
          "name": "C2",
          "midi": 36,
          "time": 155.56452649999986,
          "velocity": 0.8740157480314961,
          "duration": 0.4032258333333232
        },
        {
          "name": "D3",
          "midi": 50,
          "time": 156.04839749999985,
          "velocity": 0.7952755905511811,
          "duration": 0.40826615624999363
        },
        {
          "name": "D2",
          "midi": 38,
          "time": 156.04839749999985,
          "velocity": 0.8267716535433071,
          "duration": 0.4032258333333232
        },
        {
          "name": "C2",
          "midi": 36,
          "time": 156.53226849999984,
          "velocity": 0.7952755905511811,
          "duration": 0.4032258333333516
        },
        {
          "name": "C3",
          "midi": 48,
          "time": 156.53226849999984,
          "velocity": 0.84251968503937,
          "duration": 0.38810486458334026
        },
        {
          "name": "D3",
          "midi": 50,
          "time": 157.01613949999987,
          "velocity": 0.8582677165354331,
          "duration": 0.4133064791666641
        },
        {
          "name": "D2",
          "midi": 38,
          "time": 157.01613949999987,
          "velocity": 0.84251968503937,
          "duration": 0.3931451875000107
        },
        {
          "name": "C2",
          "midi": 36,
          "time": 157.50001049999986,
          "velocity": 0.7637795275590551,
          "duration": 0.37802421874999936
        },
        {
          "name": "C3",
          "midi": 48,
          "time": 157.50001049999986,
          "velocity": 0.8188976377952756,
          "duration": 0.36794357291665847
        },
        {
          "name": "D2",
          "midi": 38,
          "time": 157.98388149999985,
          "velocity": 0.7716535433070866,
          "duration": 0.34274195833333465
        },
        {
          "name": "D3",
          "midi": 50,
          "time": 157.98388149999985,
          "velocity": 0.8188976377952756,
          "duration": 0.3477822812500051
        },
        {
          "name": "C2",
          "midi": 36,
          "time": 158.46775249999985,
          "velocity": 0.7637795275590551,
          "duration": 0.39818551041665273
        },
        {
          "name": "C3",
          "midi": 48,
          "time": 158.46775249999985,
          "velocity": 0.8740157480314961,
          "duration": 0.39818551041665273
        },
        {
          "name": "D3",
          "midi": 50,
          "time": 158.95162349999984,
          "velocity": 0.7952755905511811,
          "duration": 0.4183468020833345
        },
        {
          "name": "D2",
          "midi": 38,
          "time": 158.95162349999984,
          "velocity": 0.7637795275590551,
          "duration": 0.4032258333333232
        },
        {
          "name": "C2",
          "midi": 36,
          "time": 159.43549449999983,
          "velocity": 0.7716535433070866,
          "duration": 0.4586693854166697
        },
        {
          "name": "C3",
          "midi": 48,
          "time": 159.43549449999983,
          "velocity": 0.8031496062992126,
          "duration": 0.4032258333333232
        },
        {
          "name": "D3",
          "midi": 50,
          "time": 159.91936549999983,
          "velocity": 0.84251968503937,
          "duration": 0.8870968333333167
        },
        {
          "name": "D2",
          "midi": 38,
          "time": 159.91936549999983,
          "velocity": 0.8188976377952756,
          "duration": 0.8618952187499929
        },
        {
          "name": "D2",
          "midi": 38,
          "time": 160.88710749999981,
          "velocity": 0.7874015748031497,
          "duration": 0.836693604166669
        },
        {
          "name": "D3",
          "midi": 50,
          "time": 160.88710749999981,
          "velocity": 0.9133858267716536,
          "duration": 0.8467742500000099
        },
        {
          "name": "D2",
          "midi": 38,
          "time": 161.85484949999983,
          "velocity": 0.7716535433070866,
          "duration": 0.8669355416666633
        },
        {
          "name": "D3",
          "midi": 50,
          "time": 161.85484949999983,
          "velocity": 0.9133858267716536,
          "duration": 0.8669355416666633
        },
        {
          "name": "D3",
          "midi": 50,
          "time": 162.82259149999982,
          "velocity": 0.968503937007874,
          "duration": 1.451613000000009
        },
        {
          "name": "D2",
          "midi": 38,
          "time": 162.82259149999982,
          "velocity": 0.8818897637795275,
          "duration": 1.451613000000009
        }
      ],
      "controlChanges": {},
      "id": 9,
      "name": "Bassoon",
      "instrumentNumber": 70,
      "instrument": "bassoon",
      "instrumentFamily": "reed",
      "channelNumber": 7,
      "isPercussion": false
    },
    {
      "startTime": 0.967742,
      "duration": 164.27420450000045,
      "length": 701,
      "notes": [
        {
          "name": "D5",
          "midi": 74,
          "time": 0.967742,
          "velocity": 0.7086614173228346,
          "duration": 1.7943549583333338
        },
        {
          "name": "A5",
          "midi": 81,
          "time": 0.967742,
          "velocity": 0.8582677165354331,
          "duration": 1.8750001250000006
        },
        {
          "name": "A3",
          "midi": 57,
          "time": 0.967742,
          "velocity": 0.7401574803149606,
          "duration": 1.713709791666667
        },
        {
          "name": "D3",
          "midi": 50,
          "time": 0.967742,
          "velocity": 0.7007874015748031,
          "duration": 1.7036291458333337
        },
        {
          "name": "F4",
          "midi": 65,
          "time": 0.967742,
          "velocity": 0.84251968503937,
          "duration": 1.8044356041666672
        },
        {
          "name": "E5",
          "midi": 76,
          "time": 0.967742,
          "velocity": 0.8346456692913385,
          "duration": 1.7943549583333338
        },
        {
          "name": "D5",
          "midi": 74,
          "time": 0.967742,
          "velocity": 0.84251968503937,
          "duration": 1.8951614166666673
        },
        {
          "name": "A5",
          "midi": 81,
          "time": 2.9032260000000005,
          "velocity": 0.8976377952755905,
          "duration": 0.7963710208333334
        },
        {
          "name": "D5",
          "midi": 74,
          "time": 2.9032260000000005,
          "velocity": 0.8188976377952756,
          "duration": 0.7862903750000001
        },
        {
          "name": "A3",
          "midi": 57,
          "time": 2.9032260000000005,
          "velocity": 0.8740157480314961,
          "duration": 0.8165323125000001
        },
        {
          "name": "D3",
          "midi": 50,
          "time": 2.9032260000000005,
          "velocity": 0.6220472440944882,
          "duration": 0.8064516666666668
        },
        {
          "name": "E4",
          "midi": 64,
          "time": 2.9032260000000005,
          "velocity": 0.84251968503937,
          "duration": 0.8870968333333336
        },
        {
          "name": "C5",
          "midi": 72,
          "time": 2.9032260000000005,
          "velocity": 0.84251968503937,
          "duration": 0.8870968333333336
        },
        {
          "name": "F5",
          "midi": 77,
          "time": 2.9032260000000005,
          "velocity": 0.84251968503937,
          "duration": 0.8770161875000002
        },
        {
          "name": "A5",
          "midi": 81,
          "time": 3.870968000000001,
          "velocity": 0.7637795275590551,
          "duration": 0.9375000624999994
        },
        {
          "name": "D5",
          "midi": 74,
          "time": 3.870968000000001,
          "velocity": 0.7637795275590551,
          "duration": 0.8467742499999997
        },
        {
          "name": "A3",
          "midi": 57,
          "time": 3.870968000000001,
          "velocity": 0.7952755905511811,
          "duration": 0.8870968333333331
        },
        {
          "name": "D3",
          "midi": 50,
          "time": 3.870968000000001,
          "velocity": 0.7086614173228346,
          "duration": 0.9072581249999998
        },
        {
          "name": "D5",
          "midi": 74,
          "time": 3.870968000000001,
          "velocity": 0.84251968503937,
          "duration": 0.9475807083333323
        },
        {
          "name": "C5",
          "midi": 72,
          "time": 3.870968000000001,
          "velocity": 0.84251968503937,
          "duration": 0.8366936041666668
        },
        {
          "name": "D4",
          "midi": 62,
          "time": 3.870968000000001,
          "velocity": 0.84251968503937,
          "duration": 0.8366936041666668
        },
        {
          "name": "D5",
          "midi": 74,
          "time": 4.83871,
          "velocity": 0.8267716535433071,
          "duration": 0.866935541666666
        },
        {
          "name": "A5",
          "midi": 81,
          "time": 4.83871,
          "velocity": 0.8188976377952756,
          "duration": 0.866935541666666
        },
        {
          "name": "D3",
          "midi": 50,
          "time": 4.83871,
          "velocity": 0.6929133858267716,
          "duration": 0.8165323124999997
        },
        {
          "name": "A3",
          "midi": 57,
          "time": 4.83871,
          "velocity": 0.8188976377952756,
          "duration": 0.8165323124999997
        },
        {
          "name": "D4",
          "midi": 62,
          "time": 4.83871,
          "velocity": 0.84251968503937,
          "duration": 0.8870968333333318
        },
        {
          "name": "D5",
          "midi": 74,
          "time": 4.83871,
          "velocity": 0.84251968503937,
          "duration": 0.8770161874999989
        },
        {
          "name": "A#4",
          "midi": 70,
          "time": 4.83871,
          "velocity": 0.84251968503937,
          "duration": 0.8770161874999989
        },
        {
          "name": "A5",
          "midi": 81,
          "time": 6.774193999999998,
          "velocity": 0.8267716535433071,
          "duration": 1.8145162500000005
        },
        {
          "name": "D5",
          "midi": 74,
          "time": 6.774193999999998,
          "velocity": 0.7165354330708661,
          "duration": 1.8044356041666667
        },
        {
          "name": "A3",
          "midi": 57,
          "time": 6.774193999999998,
          "velocity": 0.7086614173228346,
          "duration": 1.8145162500000005
        },
        {
          "name": "D3",
          "midi": 50,
          "time": 6.774193999999998,
          "velocity": 0.7007874015748031,
          "duration": 1.8145162500000005
        },
        {
          "name": "D5",
          "midi": 74,
          "time": 6.774193999999998,
          "velocity": 0.84251968503937,
          "duration": 1.8346775416666663
        },
        {
          "name": "E5",
          "midi": 76,
          "time": 6.774193999999998,
          "velocity": 0.84251968503937,
          "duration": 1.8750001249999997
        },
        {
          "name": "F4",
          "midi": 65,
          "time": 6.774193999999998,
          "velocity": 0.84251968503937,
          "duration": 1.8750001249999997
        },
        {
          "name": "A5",
          "midi": 81,
          "time": 8.709677999999997,
          "velocity": 0.7559055118110236,
          "duration": 0.8266129583333335
        },
        {
          "name": "D5",
          "midi": 74,
          "time": 8.709677999999997,
          "velocity": 0.7244094488188977,
          "duration": 0.8064516666666659
        },
        {
          "name": "A3",
          "midi": 57,
          "time": 8.709677999999997,
          "velocity": 0.7874015748031497,
          "duration": 0.8266129583333335
        },
        {
          "name": "D3",
          "midi": 50,
          "time": 8.709677999999997,
          "velocity": 0.7007874015748031,
          "duration": 0.8165323124999997
        },
        {
          "name": "E4",
          "midi": 64,
          "time": 8.709677999999997,
          "velocity": 0.8346456692913385,
          "duration": 0.9375000624999998
        },
        {
          "name": "C5",
          "midi": 72,
          "time": 8.709677999999997,
          "velocity": 0.84251968503937,
          "duration": 0.8870968333333327
        },
        {
          "name": "F5",
          "midi": 77,
          "time": 8.709677999999997,
          "velocity": 0.84251968503937,
          "duration": 0.8870968333333327
        },
        {
          "name": "A5",
          "midi": 81,
          "time": 9.677419999999996,
          "velocity": 0.7559055118110236,
          "duration": 0.8669355416666669
        },
        {
          "name": "D5",
          "midi": 74,
          "time": 9.677419999999996,
          "velocity": 0.7559055118110236,
          "duration": 0.8266129583333335
        },
        {
          "name": "A3",
          "midi": 57,
          "time": 9.677419999999996,
          "velocity": 0.7165354330708661,
          "duration": 0.8770161875000007
        },
        {
          "name": "D3",
          "midi": 50,
          "time": 9.677419999999996,
          "velocity": 0.6771653543307087,
          "duration": 0.8669355416666669
        },
        {
          "name": "D4",
          "midi": 62,
          "time": 9.677419999999996,
          "velocity": 0.84251968503937,
          "duration": 0.8266129583333335
        },
        {
          "name": "C5",
          "midi": 72,
          "time": 9.677419999999996,
          "velocity": 0.84251968503937,
          "duration": 0.8266129583333335
        },
        {
          "name": "D5",
          "midi": 74,
          "time": 9.677419999999996,
          "velocity": 0.84251968503937,
          "duration": 0.8366936041666673
        },
        {
          "name": "A5",
          "midi": 81,
          "time": 10.645161999999997,
          "velocity": 0.8031496062992126,
          "duration": 0.8366936041666673
        },
        {
          "name": "D5",
          "midi": 74,
          "time": 10.645161999999997,
          "velocity": 0.7244094488188977,
          "duration": 0.7862903750000001
        },
        {
          "name": "D3",
          "midi": 50,
          "time": 10.645161999999997,
          "velocity": 0.7244094488188977,
          "duration": 0.8467742500000011
        },
        {
          "name": "A3",
          "midi": 57,
          "time": 10.645161999999997,
          "velocity": 0.7952755905511811,
          "duration": 0.8467742500000011
        },
        {
          "name": "D4",
          "midi": 62,
          "time": 10.645161999999997,
          "velocity": 0.84251968503937,
          "duration": 0.7963710208333339
        },
        {
          "name": "D5",
          "midi": 74,
          "time": 10.645161999999997,
          "velocity": 0.84251968503937,
          "duration": 0.8467742500000011
        },
        {
          "name": "A#4",
          "midi": 70,
          "time": 10.645161999999997,
          "velocity": 0.84251968503937,
          "duration": 0.7862903750000001
        },
        {
          "name": "A5",
          "midi": 81,
          "time": 12.580645999999998,
          "velocity": 0.7401574803149606,
          "duration": 1.6431452708333332
        },
        {
          "name": "A3",
          "midi": 57,
          "time": 12.580645999999998,
          "velocity": 0.7716535433070866,
          "duration": 1.7137097916666661
        },
        {
          "name": "F5",
          "midi": 77,
          "time": 12.580645999999998,
          "velocity": 0.84251968503937,
          "duration": 1.6834678541666666
        },
        {
          "name": "A5",
          "midi": 81,
          "time": 12.580645999999998,
          "velocity": 0.84251968503937,
          "duration": 1.794354958333333
        },
        {
          "name": "E5",
          "midi": 76,
          "time": 12.580645999999998,
          "velocity": 0.84251968503937,
          "duration": 1.6129033333333336
        },
        {
          "name": "A5",
          "midi": 81,
          "time": 14.516129999999997,
          "velocity": 0.7401574803149606,
          "duration": 0.8669355416666669
        },
        {
          "name": "A3",
          "midi": 57,
          "time": 14.516129999999997,
          "velocity": 0.8267716535433071,
          "duration": 0.9475807083333319
        },
        {
          "name": "E5",
          "midi": 76,
          "time": 14.516129999999997,
          "velocity": 0.84251968503937,
          "duration": 0.8870968333333327
        },
        {
          "name": "D5",
          "midi": 74,
          "time": 14.516129999999997,
          "velocity": 0.84251968503937,
          "duration": 0.8669355416666669
        },
        {
          "name": "G5",
          "midi": 79,
          "time": 14.516129999999997,
          "velocity": 0.84251968503937,
          "duration": 0.8568548958333331
        },
        {
          "name": "A5",
          "midi": 81,
          "time": 15.483871999999995,
          "velocity": 0.7952755905511811,
          "duration": 0.8669355416666669
        },
        {
          "name": "A3",
          "midi": 57,
          "time": 15.483871999999995,
          "velocity": 0.8188976377952756,
          "duration": 0.7862903750000001
        },
        {
          "name": "F5",
          "midi": 77,
          "time": 15.483871999999995,
          "velocity": 0.84251968503937,
          "duration": 0.927419416666666
        },
        {
          "name": "E5",
          "midi": 76,
          "time": 15.483871999999995,
          "velocity": 0.84251968503937,
          "duration": 0.927419416666666
        },
        {
          "name": "A5",
          "midi": 81,
          "time": 15.483871999999995,
          "velocity": 0.84251968503937,
          "duration": 0.927419416666666
        },
        {
          "name": "A5",
          "midi": 81,
          "time": 16.451613999999992,
          "velocity": 0.8188976377952756,
          "duration": 0.8366936041666655
        },
        {
          "name": "A3",
          "midi": 57,
          "time": 16.451613999999992,
          "velocity": 0.8188976377952756,
          "duration": 0.927419416666666
        },
        {
          "name": "E5",
          "midi": 76,
          "time": 16.451613999999992,
          "velocity": 0.84251968503937,
          "duration": 0.8669355416666669
        },
        {
          "name": "D5",
          "midi": 74,
          "time": 16.451613999999992,
          "velocity": 0.84251968503937,
          "duration": 0.8568548958333331
        },
        {
          "name": "G5",
          "midi": 79,
          "time": 16.451613999999992,
          "velocity": 0.84251968503937,
          "duration": 0.8366936041666655
        },
        {
          "name": "A5",
          "midi": 81,
          "time": 17.41935599999999,
          "velocity": 0.8188976377952756,
          "duration": 0.6854839166666657
        },
        {
          "name": "A3",
          "midi": 57,
          "time": 17.41935599999999,
          "velocity": 0.7952755905511811,
          "duration": 0.6350806875000004
        },
        {
          "name": "D5",
          "midi": 74,
          "time": 17.41935599999999,
          "velocity": 0.84251968503937,
          "duration": 0.7661290833333325
        },
        {
          "name": "E5",
          "midi": 76,
          "time": 17.41935599999999,
          "velocity": 0.84251968503937,
          "duration": 0.7258064999999974
        },
        {
          "name": "G5",
          "midi": 79,
          "time": 17.41935599999999,
          "velocity": 0.84251968503937,
          "duration": 0.7358871458333311
        },
        {
          "name": "A5",
          "midi": 81,
          "time": 18.387097999999988,
          "velocity": 0.7874015748031497,
          "duration": 0.7459677916666685
        },
        {
          "name": "A3",
          "midi": 57,
          "time": 18.387097999999988,
          "velocity": 0.8818897637795275,
          "duration": 0.7661290833333361
        },
        {
          "name": "E5",
          "midi": 76,
          "time": 18.387097999999988,
          "velocity": 0.84251968503937,
          "duration": 0.7056452083333333
        },
        {
          "name": "F5",
          "midi": 77,
          "time": 18.387097999999988,
          "velocity": 0.84251968503937,
          "duration": 0.7358871458333347
        },
        {
          "name": "A5",
          "midi": 81,
          "time": 19.35483999999999,
          "velocity": 0.8031496062992126,
          "duration": 3.7500002499999994
        },
        {
          "name": "A3",
          "midi": 57,
          "time": 19.35483999999999,
          "velocity": 0.8976377952755905,
          "duration": 3.7096776666666678
        },
        {
          "name": "E5",
          "midi": 76,
          "time": 19.35483999999999,
          "velocity": 0.84251968503937,
          "duration": 3.770161541666667
        },
        {
          "name": "A4",
          "midi": 69,
          "time": 19.35483999999999,
          "velocity": 0.84251968503937,
          "duration": 3.7500002499999994
        },
        {
          "name": "D4",
          "midi": 62,
          "time": 23.46774349999999,
          "velocity": 0.5826771653543307,
          "duration": 2.696572760416668
        },
        {
          "name": "D2",
          "midi": 38,
          "time": 23.46774349999999,
          "velocity": 0.6141732283464567,
          "duration": 2.6814517916666674
        },
        {
          "name": "D2",
          "midi": 38,
          "time": 26.37096949999999,
          "velocity": 0.49606299212598426,
          "duration": 2.7318550208333328
        },
        {
          "name": "D4",
          "midi": 62,
          "time": 26.37096949999999,
          "velocity": 0.5748031496062992,
          "duration": 2.7318550208333328
        },
        {
          "name": "D2",
          "midi": 38,
          "time": 29.27419549999999,
          "velocity": 0.5118110236220472,
          "duration": 5.6552423125
        },
        {
          "name": "D4",
          "midi": 62,
          "time": 29.27419549999999,
          "velocity": 0.5748031496062992,
          "duration": 5.645161666666667
        },
        {
          "name": "D2",
          "midi": 38,
          "time": 35.08064749999999,
          "velocity": 0.48031496062992124,
          "duration": 2.7620969583333306
        },
        {
          "name": "D4",
          "midi": 62,
          "time": 35.08064749999999,
          "velocity": 0.5039370078740157,
          "duration": 2.7620969583333306
        },
        {
          "name": "D2",
          "midi": 38,
          "time": 37.98387349999999,
          "velocity": 0.5196850393700787,
          "duration": 2.7469759895833334
        },
        {
          "name": "D4",
          "midi": 62,
          "time": 37.98387349999999,
          "velocity": 0.5275590551181102,
          "duration": 2.74193566666667
        },
        {
          "name": "D4",
          "midi": 62,
          "time": 40.88709949999999,
          "velocity": 0.5196850393700787,
          "duration": 5.635081020833333
        },
        {
          "name": "D2",
          "midi": 38,
          "time": 40.88709949999999,
          "velocity": 0.5354330708661418,
          "duration": 5.6048390833333315
        },
        {
          "name": "D2",
          "midi": 38,
          "time": 46.69355149999999,
          "velocity": 0.5984251968503937,
          "duration": 2.6814517916666674
        },
        {
          "name": "D4",
          "midi": 62,
          "time": 46.69355149999999,
          "velocity": 0.5984251968503937,
          "duration": 2.7721776041666644
        },
        {
          "name": "D2",
          "midi": 38,
          "time": 49.59677749999999,
          "velocity": 0.5748031496062992,
          "duration": 2.726814697916666
        },
        {
          "name": "D4",
          "midi": 62,
          "time": 49.59677749999999,
          "velocity": 0.5984251968503937,
          "duration": 2.726814697916666
        },
        {
          "name": "D4",
          "midi": 62,
          "time": 52.500003499999984,
          "velocity": 0.5826771653543307,
          "duration": 2.278225958333337
        },
        {
          "name": "D2",
          "midi": 38,
          "time": 52.500003499999984,
          "velocity": 0.5196850393700787,
          "duration": 2.3991937083333355
        },
        {
          "name": "D2",
          "midi": 38,
          "time": 58.306455499999984,
          "velocity": 0.5669291338582677,
          "duration": 2.6713711458333336
        },
        {
          "name": "D4",
          "midi": 62,
          "time": 58.306455499999984,
          "velocity": 0.5826771653543307,
          "duration": 2.6814517916666674
        },
        {
          "name": "D2",
          "midi": 38,
          "time": 61.20968149999999,
          "velocity": 0.5433070866141733,
          "duration": 2.782258249999998
        },
        {
          "name": "D4",
          "midi": 62,
          "time": 61.20968149999999,
          "velocity": 0.5669291338582677,
          "duration": 2.726814697916666
        },
        {
          "name": "D2",
          "midi": 38,
          "time": 64.11290749999999,
          "velocity": 0.5275590551181102,
          "duration": 5.498992302083337
        },
        {
          "name": "D4",
          "midi": 62,
          "time": 64.11290749999999,
          "velocity": 0.5826771653543307,
          "duration": 5.579637468750008
        },
        {
          "name": "D2",
          "midi": 38,
          "time": 69.9193595,
          "velocity": 0.5590551181102362,
          "duration": 1.2651210520833303
        },
        {
          "name": "D4",
          "midi": 62,
          "time": 69.9193595,
          "velocity": 0.5826771653543307,
          "duration": 1.2651210520833303
        },
        {
          "name": "D2",
          "midi": 38,
          "time": 72.8225855,
          "velocity": 0.5118110236220472,
          "duration": 2.6814517916666603
        },
        {
          "name": "D4",
          "midi": 62,
          "time": 72.8225855,
          "velocity": 0.5669291338582677,
          "duration": 2.6965727604166574
        },
        {
          "name": "D2",
          "midi": 38,
          "time": 75.72581149999999,
          "velocity": 0.49606299212598426,
          "duration": 5.625000374999999
        },
        {
          "name": "D4",
          "midi": 62,
          "time": 75.72581149999999,
          "velocity": 0.5669291338582677,
          "duration": 5.589718114583334
        },
        {
          "name": "D4",
          "midi": 62,
          "time": 81.53226349999998,
          "velocity": 0.5354330708661418,
          "duration": 2.752016312500004
        },
        {
          "name": "D2",
          "midi": 38,
          "time": 81.53226349999998,
          "velocity": 0.4881889763779528,
          "duration": 2.752016312500004
        },
        {
          "name": "D2",
          "midi": 38,
          "time": 84.43548949999999,
          "velocity": 0.5039370078740157,
          "duration": 2.8024195416666657
        },
        {
          "name": "D4",
          "midi": 62,
          "time": 84.43548949999999,
          "velocity": 0.5590551181102362,
          "duration": 2.8125001874999924
        },
        {
          "name": "D2",
          "midi": 38,
          "time": 87.33871549999998,
          "velocity": 0.5433070866141733,
          "duration": 5.619960052083329
        },
        {
          "name": "D4",
          "midi": 62,
          "time": 87.33871549999998,
          "velocity": 0.5905511811023622,
          "duration": 5.619960052083329
        },
        {
          "name": "D2",
          "midi": 38,
          "time": 93.14516749999997,
          "velocity": 0.5039370078740157,
          "duration": 2.7368953437499925
        },
        {
          "name": "D4",
          "midi": 62,
          "time": 93.14516749999997,
          "velocity": 0.5196850393700787,
          "duration": 2.7217743749999954
        },
        {
          "name": "D2",
          "midi": 38,
          "time": 96.04839349999996,
          "velocity": 0.5275590551181102,
          "duration": 2.7469759895833334
        },
        {
          "name": "D4",
          "midi": 62,
          "time": 96.04839349999996,
          "velocity": 0.5826771653543307,
          "duration": 2.7872985729166686
        },
        {
          "name": "D2",
          "midi": 38,
          "time": 98.95161949999996,
          "velocity": 0.5118110236220472,
          "duration": 5.685484250000002
        },
        {
          "name": "D4",
          "midi": 62,
          "time": 98.95161949999996,
          "velocity": 0.5590551181102362,
          "duration": 5.670363281250005
        },
        {
          "name": "D4",
          "midi": 62,
          "time": 104.75807149999997,
          "velocity": 0.8110236220472441,
          "duration": 2.741935666666663
        },
        {
          "name": "A4",
          "midi": 69,
          "time": 104.75807149999997,
          "velocity": 0.8110236220472441,
          "duration": 0.2016129166666616
        },
        {
          "name": "A#4",
          "midi": 70,
          "time": 105.00000699999997,
          "velocity": 0.8110236220472441,
          "duration": 0.181451624999994
        },
        {
          "name": "F3",
          "midi": 53,
          "time": 105.24194249999996,
          "velocity": 0.5118110236220472,
          "duration": 0.32258066666666707
        },
        {
          "name": "F5",
          "midi": 77,
          "time": 105.24194249999996,
          "velocity": 0.5118110236220472,
          "duration": 0.34274195833333465
        },
        {
          "name": "G4",
          "midi": 67,
          "time": 105.24194249999996,
          "velocity": 0.8110236220472441,
          "duration": 0.181451624999994
        },
        {
          "name": "A#4",
          "midi": 70,
          "time": 105.48387799999996,
          "velocity": 0.8110236220472441,
          "duration": 0.17137097916666733
        },
        {
          "name": "F3",
          "midi": 53,
          "time": 105.72581349999996,
          "velocity": 0.5118110236220472,
          "duration": 0.3830645416666698
        },
        {
          "name": "F5",
          "midi": 77,
          "time": 105.72581349999996,
          "velocity": 0.5118110236220472,
          "duration": 0.3830645416666698
        },
        {
          "name": "A4",
          "midi": 69,
          "time": 105.72581349999996,
          "velocity": 0.8110236220472441,
          "duration": 0.1562500104166702
        },
        {
          "name": "A#4",
          "midi": 70,
          "time": 105.96774899999996,
          "velocity": 0.8110236220472441,
          "duration": 0.1915322708333349
        },
        {
          "name": "E3",
          "midi": 52,
          "time": 106.20968449999995,
          "velocity": 0.5118110236220472,
          "duration": 0.37802421874998515
        },
        {
          "name": "E5",
          "midi": 76,
          "time": 106.20968449999995,
          "velocity": 0.5118110236220472,
          "duration": 0.36794357291665847
        },
        {
          "name": "G4",
          "midi": 67,
          "time": 106.20968449999995,
          "velocity": 0.8110236220472441,
          "duration": 0.1562500104166702
        },
        {
          "name": "A#4",
          "midi": 70,
          "time": 106.45161999999995,
          "velocity": 0.8110236220472441,
          "duration": 0.16129033333332643
        },
        {
          "name": "E3",
          "midi": 52,
          "time": 106.69355549999995,
          "velocity": 0.5118110236220472,
          "duration": 0.6451613333333484
        },
        {
          "name": "E5",
          "midi": 76,
          "time": 106.69355549999995,
          "velocity": 0.5118110236220472,
          "duration": 0.6401210104166779
        },
        {
          "name": "A4",
          "midi": 69,
          "time": 106.69355549999995,
          "velocity": 0.8110236220472441,
          "duration": 0.17641130208333777
        },
        {
          "name": "A#4",
          "midi": 70,
          "time": 106.93549099999996,
          "velocity": 0.8110236220472441,
          "duration": 0.1562500104166702
        },
        {
          "name": "G4",
          "midi": 67,
          "time": 107.17742649999995,
          "velocity": 0.8110236220472441,
          "duration": 0.1562500104166702
        },
        {
          "name": "A#4",
          "midi": 70,
          "time": 107.41936199999996,
          "velocity": 0.8110236220472441,
          "duration": 0.14112904166667306
        },
        {
          "name": "D4",
          "midi": 62,
          "time": 107.66129749999998,
          "velocity": 0.8110236220472441,
          "duration": 2.8024195416667084
        },
        {
          "name": "A4",
          "midi": 69,
          "time": 107.66129749999998,
          "velocity": 0.8110236220472441,
          "duration": 0.181451624999994
        },
        {
          "name": "A#4",
          "midi": 70,
          "time": 107.90323299999997,
          "velocity": 0.8110236220472441,
          "duration": 0.18649194791666446
        },
        {
          "name": "F3",
          "midi": 53,
          "time": 108.14516849999997,
          "velocity": 0.5118110236220472,
          "duration": 0.34274195833333465
        },
        {
          "name": "F5",
          "midi": 77,
          "time": 108.14516849999997,
          "velocity": 0.5118110236220472,
          "duration": 0.34274195833333465
        },
        {
          "name": "G4",
          "midi": 67,
          "time": 108.14516849999997,
          "velocity": 0.8110236220472441,
          "duration": 0.181451624999994
        },
        {
          "name": "A#4",
          "midi": 70,
          "time": 108.38710399999997,
          "velocity": 0.8110236220472441,
          "duration": 0.16129033333334064
        },
        {
          "name": "F3",
          "midi": 53,
          "time": 108.62903949999998,
          "velocity": 0.5118110236220472,
          "duration": 0.3931451874999965
        },
        {
          "name": "F5",
          "midi": 77,
          "time": 108.62903949999998,
          "velocity": 0.5118110236220472,
          "duration": 0.39818551041666694
        },
        {
          "name": "A4",
          "midi": 69,
          "time": 108.62903949999998,
          "velocity": 0.8110236220472441,
          "duration": 0.16129033333332643
        },
        {
          "name": "A#4",
          "midi": 70,
          "time": 108.87097499999997,
          "velocity": 0.8110236220472441,
          "duration": 0.17641130208333777
        },
        {
          "name": "E3",
          "midi": 52,
          "time": 109.11291049999998,
          "velocity": 0.5118110236220472,
          "duration": 0.36290325000000223
        },
        {
          "name": "E5",
          "midi": 76,
          "time": 109.11291049999998,
          "velocity": 0.5118110236220472,
          "duration": 0.3679435729166727
        },
        {
          "name": "G4",
          "midi": 67,
          "time": 109.11291049999998,
          "velocity": 0.8110236220472441,
          "duration": 0.17137097916666733
        },
        {
          "name": "A#4",
          "midi": 70,
          "time": 109.35484599999998,
          "velocity": 0.8110236220472441,
          "duration": 0.16129033333334064
        },
        {
          "name": "E3",
          "midi": 52,
          "time": 109.59678149999999,
          "velocity": 0.5118110236220472,
          "duration": 0.6048387500000132
        },
        {
          "name": "E5",
          "midi": 76,
          "time": 109.59678149999999,
          "velocity": 0.5118110236220472,
          "duration": 0.564516166666678
        },
        {
          "name": "A4",
          "midi": 69,
          "time": 109.59678149999999,
          "velocity": 0.8110236220472441,
          "duration": 0.16129033333332643
        },
        {
          "name": "A#4",
          "midi": 70,
          "time": 109.83871699999999,
          "velocity": 0.8110236220472441,
          "duration": 0.17641130208333777
        },
        {
          "name": "G4",
          "midi": 67,
          "time": 110.0806525,
          "velocity": 0.8110236220472441,
          "duration": 0.14112904166667306
        },
        {
          "name": "A#4",
          "midi": 70,
          "time": 110.32258800000001,
          "velocity": 0.8110236220472441,
          "duration": 0.15120968749999975
        },
        {
          "name": "D4",
          "midi": 62,
          "time": 110.5645235,
          "velocity": 0.8110236220472441,
          "duration": 5.7056455416666125
        },
        {
          "name": "A4",
          "midi": 69,
          "time": 110.5645235,
          "velocity": 0.8110236220472441,
          "duration": 0.17641130208333777
        },
        {
          "name": "A#4",
          "midi": 70,
          "time": 110.80645900000002,
          "velocity": 0.8110236220472441,
          "duration": 0.16633065624999688
        },
        {
          "name": "F3",
          "midi": 53,
          "time": 111.04839450000001,
          "velocity": 0.5118110236220472,
          "duration": 0.3377016354166642
        },
        {
          "name": "F5",
          "midi": 77,
          "time": 111.04839450000001,
          "velocity": 0.5118110236220472,
          "duration": 0.36290325000000223
        },
        {
          "name": "G4",
          "midi": 67,
          "time": 111.04839450000001,
          "velocity": 0.8110236220472441,
          "duration": 0.181451624999994
        },
        {
          "name": "A#4",
          "midi": 70,
          "time": 111.29033000000001,
          "velocity": 0.8110236220472441,
          "duration": 0.17137097916666733
        },
        {
          "name": "F5",
          "midi": 77,
          "time": 111.53226550000001,
          "velocity": 0.5118110236220472,
          "duration": 0.38810486458332605
        },
        {
          "name": "F3",
          "midi": 53,
          "time": 111.53226550000001,
          "velocity": 0.5118110236220472,
          "duration": 0.37802421874999936
        },
        {
          "name": "A4",
          "midi": 69,
          "time": 111.53226550000001,
          "velocity": 0.8110236220472441,
          "duration": 0.15120968749999975
        },
        {
          "name": "A#4",
          "midi": 70,
          "time": 111.774201,
          "velocity": 0.8110236220472441,
          "duration": 0.17641130208332356
        },
        {
          "name": "E3",
          "midi": 52,
          "time": 112.0161365,
          "velocity": 0.5118110236220472,
          "duration": 0.4032258333333232
        },
        {
          "name": "E5",
          "midi": 76,
          "time": 112.0161365,
          "velocity": 0.5118110236220472,
          "duration": 0.3729838958333289
        },
        {
          "name": "G4",
          "midi": 67,
          "time": 112.0161365,
          "velocity": 0.8110236220472441,
          "duration": 0.16129033333332643
        },
        {
          "name": "A#4",
          "midi": 70,
          "time": 112.258072,
          "velocity": 0.8110236220472441,
          "duration": 0.17137097916665311
        },
        {
          "name": "F3",
          "midi": 53,
          "time": 112.50000749999998,
          "velocity": 0.5118110236220472,
          "duration": 0.8921371562499871
        },
        {
          "name": "F5",
          "midi": 77,
          "time": 112.50000749999998,
          "velocity": 0.5118110236220472,
          "duration": 0.8618952187499929
        },
        {
          "name": "A4",
          "midi": 69,
          "time": 112.50000749999998,
          "velocity": 0.8110236220472441,
          "duration": 0.15120968749999975
        },
        {
          "name": "A#4",
          "midi": 70,
          "time": 112.74194299999998,
          "velocity": 0.8110236220472441,
          "duration": 0.16129033333332643
        },
        {
          "name": "G4",
          "midi": 67,
          "time": 112.98387849999997,
          "velocity": 0.8110236220472441,
          "duration": 0.1562500104166702
        },
        {
          "name": "A#4",
          "midi": 70,
          "time": 113.22581399999997,
          "velocity": 0.8110236220472441,
          "duration": 0.1562500104166702
        },
        {
          "name": "G3",
          "midi": 55,
          "time": 113.46774949999997,
          "velocity": 0.5118110236220472,
          "duration": 0.836693604166669
        },
        {
          "name": "G5",
          "midi": 79,
          "time": 113.46774949999997,
          "velocity": 0.5118110236220472,
          "duration": 0.8870968333333309
        },
        {
          "name": "A4",
          "midi": 69,
          "time": 113.46774949999997,
          "velocity": 0.8110236220472441,
          "duration": 0.11592742708333503
        },
        {
          "name": "A#4",
          "midi": 70,
          "time": 113.70968499999996,
          "velocity": 0.8110236220472441,
          "duration": 0.14112904166667306
        },
        {
          "name": "G4",
          "midi": 67,
          "time": 113.95162049999998,
          "velocity": 0.8110236220472441,
          "duration": 0.13104839583333217
        },
        {
          "name": "A#4",
          "midi": 70,
          "time": 114.19355599999997,
          "velocity": 0.8110236220472441,
          "duration": 0.15120968749999975
        },
        {
          "name": "F3",
          "midi": 53,
          "time": 114.43549149999997,
          "velocity": 0.5118110236220472,
          "duration": 0.4032258333333232
        },
        {
          "name": "F5",
          "midi": 77,
          "time": 114.43549149999997,
          "velocity": 0.5118110236220472,
          "duration": 0.4183468020833203
        },
        {
          "name": "A4",
          "midi": 69,
          "time": 114.43549149999997,
          "velocity": 0.8110236220472441,
          "duration": 0.1461693645833293
        },
        {
          "name": "A#4",
          "midi": 70,
          "time": 114.67742699999997,
          "velocity": 0.8110236220472441,
          "duration": 0.1461693645833293
        },
        {
          "name": "E3",
          "midi": 52,
          "time": 114.91936249999996,
          "velocity": 0.5118110236220472,
          "duration": 0.9879032916666546
        },
        {
          "name": "E5",
          "midi": 76,
          "time": 114.91936249999996,
          "velocity": 0.5118110236220472,
          "duration": 0.9072581249999843
        },
        {
          "name": "G4",
          "midi": 67,
          "time": 114.91936249999996,
          "velocity": 0.8110236220472441,
          "duration": 0.1562500104166702
        },
        {
          "name": "A#4",
          "midi": 70,
          "time": 115.16129799999996,
          "velocity": 0.8110236220472441,
          "duration": 0.1562500104166702
        },
        {
          "name": "A4",
          "midi": 69,
          "time": 115.40323349999996,
          "velocity": 0.8110236220472441,
          "duration": 0.16129033333332643
        },
        {
          "name": "A#4",
          "midi": 70,
          "time": 115.64516899999995,
          "velocity": 0.8110236220472441,
          "duration": 0.181451624999994
        },
        {
          "name": "G4",
          "midi": 67,
          "time": 115.88710449999995,
          "velocity": 0.8110236220472441,
          "duration": 0.1562500104166702
        },
        {
          "name": "A#4",
          "midi": 70,
          "time": 116.12903999999995,
          "velocity": 0.8110236220472441,
          "duration": 0.15120968749999975
        },
        {
          "name": "D4",
          "midi": 62,
          "time": 116.37097549999994,
          "velocity": 0.8110236220472441,
          "duration": 2.807459864583322
        },
        {
          "name": "A4",
          "midi": 69,
          "time": 116.37097549999994,
          "velocity": 0.8110236220472441,
          "duration": 0.16633065624999688
        },
        {
          "name": "A#4",
          "midi": 70,
          "time": 116.61291099999994,
          "velocity": 0.8110236220472441,
          "duration": 0.1461693645833293
        },
        {
          "name": "F5",
          "midi": 77,
          "time": 116.85484649999994,
          "velocity": 0.5118110236220472,
          "duration": 0.3276209895833375
        },
        {
          "name": "F3",
          "midi": 53,
          "time": 116.85484649999994,
          "velocity": 0.5118110236220472,
          "duration": 0.32258066666666707
        },
        {
          "name": "G4",
          "midi": 67,
          "time": 116.85484649999994,
          "velocity": 0.8110236220472441,
          "duration": 0.1360887187500026
        },
        {
          "name": "A#4",
          "midi": 70,
          "time": 117.09678199999993,
          "velocity": 0.8110236220472441,
          "duration": 0.15120968750001396
        },
        {
          "name": "F3",
          "midi": 53,
          "time": 117.33871749999994,
          "velocity": 0.5118110236220472,
          "duration": 0.3931451874999965
        },
        {
          "name": "F5",
          "midi": 77,
          "time": 117.33871749999994,
          "velocity": 0.5118110236220472,
          "duration": 0.3830645416666698
        },
        {
          "name": "A4",
          "midi": 69,
          "time": 117.33871749999994,
          "velocity": 0.8110236220472441,
          "duration": 0.16129033333332643
        },
        {
          "name": "A#4",
          "midi": 70,
          "time": 117.58065299999994,
          "velocity": 0.8110236220472441,
          "duration": 0.17137097916666733
        },
        {
          "name": "E3",
          "midi": 52,
          "time": 117.82258849999994,
          "velocity": 0.5118110236220472,
          "duration": 0.36290325000000223
        },
        {
          "name": "E5",
          "midi": 76,
          "time": 117.82258849999994,
          "velocity": 0.5118110236220472,
          "duration": 0.3679435729166727
        },
        {
          "name": "G4",
          "midi": 67,
          "time": 117.82258849999994,
          "velocity": 0.8110236220472441,
          "duration": 0.17137097916666733
        },
        {
          "name": "A#4",
          "midi": 70,
          "time": 118.06452399999993,
          "velocity": 0.8110236220472441,
          "duration": 0.16129033333334064
        },
        {
          "name": "E3",
          "midi": 52,
          "time": 118.30645949999995,
          "velocity": 0.5118110236220472,
          "duration": 0.5594758437499934
        },
        {
          "name": "E5",
          "midi": 76,
          "time": 118.30645949999995,
          "velocity": 0.5118110236220472,
          "duration": 0.5241935833333287
        },
        {
          "name": "A4",
          "midi": 69,
          "time": 118.30645949999995,
          "velocity": 0.8110236220472441,
          "duration": 0.181451624999994
        },
        {
          "name": "A#4",
          "midi": 70,
          "time": 118.54839499999994,
          "velocity": 0.8110236220472441,
          "duration": 0.16633065624999688
        },
        {
          "name": "G4",
          "midi": 67,
          "time": 118.79033049999994,
          "velocity": 0.8110236220472441,
          "duration": 0.1461693645833293
        },
        {
          "name": "A#4",
          "midi": 70,
          "time": 119.03226599999994,
          "velocity": 0.8110236220472441,
          "duration": 0.15120968749999975
        },
        {
          "name": "D4",
          "midi": 62,
          "time": 119.27420149999993,
          "velocity": 0.8110236220472441,
          "duration": 2.7368953437500068
        },
        {
          "name": "A4",
          "midi": 69,
          "time": 119.27420149999993,
          "velocity": 0.8110236220472441,
          "duration": 0.16633065624999688
        },
        {
          "name": "A#4",
          "midi": 70,
          "time": 119.51613699999993,
          "velocity": 0.8110236220472441,
          "duration": 0.16129033333332643
        },
        {
          "name": "F3",
          "midi": 53,
          "time": 119.75807249999993,
          "velocity": 0.5118110236220472,
          "duration": 0.3377016354166642
        },
        {
          "name": "F5",
          "midi": 77,
          "time": 119.75807249999993,
          "velocity": 0.5118110236220472,
          "duration": 0.34274195833333465
        },
        {
          "name": "G4",
          "midi": 67,
          "time": 119.75807249999993,
          "velocity": 0.8110236220472441,
          "duration": 0.16633065624999688
        },
        {
          "name": "A#4",
          "midi": 70,
          "time": 120.00000799999992,
          "velocity": 0.8110236220472441,
          "duration": 0.1461693645833435
        },
        {
          "name": "F3",
          "midi": 53,
          "time": 120.24194349999993,
          "velocity": 0.5118110236220472,
          "duration": 0.36290325000000223
        },
        {
          "name": "F5",
          "midi": 77,
          "time": 120.24194349999993,
          "velocity": 0.5118110236220472,
          "duration": 0.3830645416666698
        },
        {
          "name": "A4",
          "midi": 69,
          "time": 120.24194349999993,
          "velocity": 0.8110236220472441,
          "duration": 0.1562500104166702
        },
        {
          "name": "A#4",
          "midi": 70,
          "time": 120.48387899999993,
          "velocity": 0.8110236220472441,
          "duration": 0.18145162500000822
        },
        {
          "name": "E3",
          "midi": 52,
          "time": 120.72581449999994,
          "velocity": 0.5118110236220472,
          "duration": 0.36794357291665847
        },
        {
          "name": "E5",
          "midi": 76,
          "time": 120.72581449999994,
          "velocity": 0.5118110236220472,
          "duration": 0.3477822812499909
        },
        {
          "name": "G4",
          "midi": 67,
          "time": 120.72581449999994,
          "velocity": 0.8110236220472441,
          "duration": 0.16129033333332643
        },
        {
          "name": "A#4",
          "midi": 70,
          "time": 120.96774999999994,
          "velocity": 0.8110236220472441,
          "duration": 0.16129033333332643
        },
        {
          "name": "E3",
          "midi": 52,
          "time": 121.20968549999994,
          "velocity": 0.5118110236220472,
          "duration": 0.5292339062500133
        },
        {
          "name": "E5",
          "midi": 76,
          "time": 121.20968549999994,
          "velocity": 0.5118110236220472,
          "duration": 0.53931455208334
        },
        {
          "name": "A4",
          "midi": 69,
          "time": 121.20968549999994,
          "velocity": 0.8110236220472441,
          "duration": 0.14112904166667306
        },
        {
          "name": "A#4",
          "midi": 70,
          "time": 121.45162099999995,
          "velocity": 0.8110236220472441,
          "duration": 0.17137097916666733
        },
        {
          "name": "G4",
          "midi": 67,
          "time": 121.69355649999994,
          "velocity": 0.8110236220472441,
          "duration": 0.16129033333332643
        },
        {
          "name": "A#4",
          "midi": 70,
          "time": 121.93549199999994,
          "velocity": 0.8110236220472441,
          "duration": 0.14112904166667306
        },
        {
          "name": "D4",
          "midi": 62,
          "time": 122.17742749999995,
          "velocity": 0.8110236220472441,
          "duration": 5.745968125000019
        },
        {
          "name": "A4",
          "midi": 69,
          "time": 122.17742749999995,
          "velocity": 0.8110236220472441,
          "duration": 0.18649194791666446
        },
        {
          "name": "A#4",
          "midi": 70,
          "time": 122.41936299999995,
          "velocity": 0.8110236220472441,
          "duration": 0.16129033333332643
        },
        {
          "name": "F5",
          "midi": 77,
          "time": 122.66129849999994,
          "velocity": 0.5118110236220472,
          "duration": 0.36290325000000223
        },
        {
          "name": "F3",
          "midi": 53,
          "time": 122.66129849999994,
          "velocity": 0.5118110236220472,
          "duration": 0.34274195833333465
        },
        {
          "name": "G4",
          "midi": 67,
          "time": 122.66129849999994,
          "velocity": 0.8110236220472441,
          "duration": 0.15120968749999975
        },
        {
          "name": "A#4",
          "midi": 70,
          "time": 122.90323399999994,
          "velocity": 0.8110236220472441,
          "duration": 0.1562500104166702
        },
        {
          "name": "F3",
          "midi": 53,
          "time": 123.14516949999994,
          "velocity": 0.5118110236220472,
          "duration": 0.38810486458332605
        },
        {
          "name": "F5",
          "midi": 77,
          "time": 123.14516949999994,
          "velocity": 0.5118110236220472,
          "duration": 0.4032258333333232
        },
        {
          "name": "A4",
          "midi": 69,
          "time": 123.14516949999994,
          "velocity": 0.8110236220472441,
          "duration": 0.1562500104166702
        },
        {
          "name": "A#4",
          "midi": 70,
          "time": 123.38710499999993,
          "velocity": 0.8110236220472441,
          "duration": 0.16633065624999688
        },
        {
          "name": "E5",
          "midi": 76,
          "time": 123.62904049999993,
          "velocity": 0.5118110236220472,
          "duration": 0.3830645416666698
        },
        {
          "name": "E3",
          "midi": 52,
          "time": 123.62904049999993,
          "velocity": 0.5118110236220472,
          "duration": 0.3830645416666698
        },
        {
          "name": "G4",
          "midi": 67,
          "time": 123.62904049999993,
          "velocity": 0.8110236220472441,
          "duration": 0.16129033333332643
        },
        {
          "name": "A#4",
          "midi": 70,
          "time": 123.87097599999993,
          "velocity": 0.8110236220472441,
          "duration": 0.16129033333334064
        },
        {
          "name": "F5",
          "midi": 77,
          "time": 124.11291149999994,
          "velocity": 0.5118110236220472,
          "duration": 0.902217802083328
        },
        {
          "name": "F3",
          "midi": 53,
          "time": 124.11291149999994,
          "velocity": 0.5118110236220472,
          "duration": 0.8921371562500013
        },
        {
          "name": "A4",
          "midi": 69,
          "time": 124.11291149999994,
          "velocity": 0.8110236220472441,
          "duration": 0.1562500104166702
        },
        {
          "name": "A#4",
          "midi": 70,
          "time": 124.35484699999994,
          "velocity": 0.8110236220472441,
          "duration": 0.17641130208333777
        },
        {
          "name": "G4",
          "midi": 67,
          "time": 124.59678249999995,
          "velocity": 0.8110236220472441,
          "duration": 0.1461693645833293
        },
        {
          "name": "A#4",
          "midi": 70,
          "time": 124.83871799999994,
          "velocity": 0.8110236220472441,
          "duration": 0.1562500104166702
        },
        {
          "name": "G3",
          "midi": 55,
          "time": 125.08065349999994,
          "velocity": 0.5118110236220472,
          "duration": 0.8215726354166719
        },
        {
          "name": "G5",
          "midi": 79,
          "time": 125.08065349999994,
          "velocity": 0.5118110236220472,
          "duration": 0.8870968333333451
        },
        {
          "name": "A4",
          "midi": 69,
          "time": 125.08065349999994,
          "velocity": 0.8110236220472441,
          "duration": 0.14112904166667306
        },
        {
          "name": "A#4",
          "midi": 70,
          "time": 125.32258899999995,
          "velocity": 0.8110236220472441,
          "duration": 0.16129033333332643
        },
        {
          "name": "G4",
          "midi": 67,
          "time": 125.56452449999995,
          "velocity": 0.8110236220472441,
          "duration": 0.16129033333332643
        },
        {
          "name": "A#4",
          "midi": 70,
          "time": 125.80645999999994,
          "velocity": 0.8110236220472441,
          "duration": 0.1562500104166702
        },
        {
          "name": "F3",
          "midi": 53,
          "time": 126.04839549999996,
          "velocity": 0.5118110236220472,
          "duration": 0.42338712499999076
        },
        {
          "name": "F5",
          "midi": 77,
          "time": 126.04839549999996,
          "velocity": 0.5118110236220472,
          "duration": 0.42338712499999076
        },
        {
          "name": "A4",
          "midi": 69,
          "time": 126.04839549999996,
          "velocity": 0.8110236220472441,
          "duration": 0.1562500104166702
        },
        {
          "name": "A#4",
          "midi": 70,
          "time": 126.29033099999995,
          "velocity": 0.8110236220472441,
          "duration": 0.16129033333332643
        },
        {
          "name": "E3",
          "midi": 52,
          "time": 126.53226649999995,
          "velocity": 0.5118110236220472,
          "duration": 0.9929436145833535
        },
        {
          "name": "E5",
          "midi": 76,
          "time": 126.53226649999995,
          "velocity": 0.5118110236220472,
          "duration": 0.9929436145833535
        },
        {
          "name": "G4",
          "midi": 67,
          "time": 126.53226649999995,
          "velocity": 0.8110236220472441,
          "duration": 0.14112904166667306
        },
        {
          "name": "A#4",
          "midi": 70,
          "time": 126.77420199999996,
          "velocity": 0.8110236220472441,
          "duration": 0.1461693645833293
        },
        {
          "name": "A4",
          "midi": 69,
          "time": 127.01613749999996,
          "velocity": 0.8110236220472441,
          "duration": 0.14112904166667306
        },
        {
          "name": "A#4",
          "midi": 70,
          "time": 127.25807299999997,
          "velocity": 0.8110236220472441,
          "duration": 0.181451624999994
        },
        {
          "name": "G4",
          "midi": 67,
          "time": 127.50000849999996,
          "velocity": 0.8110236220472441,
          "duration": 0.12096775000000548
        },
        {
          "name": "A#4",
          "midi": 70,
          "time": 127.74194399999998,
          "velocity": 0.8110236220472441,
          "duration": 0.11088710416666459
        },
        {
          "name": "D4",
          "midi": 62,
          "time": 127.98387949999997,
          "velocity": 0.8110236220472441,
          "duration": 0.8568548958333224
        },
        {
          "name": "A4",
          "midi": 69,
          "time": 127.98387949999997,
          "velocity": 0.8110236220472441,
          "duration": 0.2772177604166757
        },
        {
          "name": "A#4",
          "midi": 70,
          "time": 128.22581499999998,
          "velocity": 0.8110236220472441,
          "duration": 0.21169356249998827
        },
        {
          "name": "A3",
          "midi": 57,
          "time": 128.46775049999997,
          "velocity": 0.5118110236220472,
          "duration": 0.34274195833333465
        },
        {
          "name": "F5",
          "midi": 77,
          "time": 128.46775049999997,
          "velocity": 0.5118110236220472,
          "duration": 0.3477822812500051
        },
        {
          "name": "A5",
          "midi": 81,
          "time": 128.46775049999997,
          "velocity": 0.5118110236220472,
          "duration": 0.3830645416666698
        },
        {
          "name": "D5",
          "midi": 74,
          "time": 128.46775049999997,
          "velocity": 0.8110236220472441,
          "duration": 0.18649194791666446
        },
        {
          "name": "G4",
          "midi": 67,
          "time": 128.70968599999998,
          "velocity": 0.8110236220472441,
          "duration": 0.1915322708333349
        },
        {
          "name": "A3",
          "midi": 57,
          "time": 128.9516215,
          "velocity": 0.5118110236220472,
          "duration": 0.4032258333333516
        },
        {
          "name": "A5",
          "midi": 81,
          "time": 128.9516215,
          "velocity": 0.5118110236220472,
          "duration": 0.38306454166669823
        },
        {
          "name": "F5",
          "midi": 77,
          "time": 128.9516215,
          "velocity": 0.5118110236220472,
          "duration": 0.3477822812500335
        },
        {
          "name": "D4",
          "midi": 62,
          "time": 128.9516215,
          "velocity": 0.8110236220472441,
          "duration": 0.7258065000000045
        },
        {
          "name": "A4",
          "midi": 69,
          "time": 128.9516215,
          "velocity": 0.8110236220472441,
          "duration": 0.292338729166687
        },
        {
          "name": "A#4",
          "midi": 70,
          "time": 129.193557,
          "velocity": 0.8110236220472441,
          "duration": 0.22177420833332917
        },
        {
          "name": "A3",
          "midi": 57,
          "time": 129.43549249999998,
          "velocity": 0.5118110236220472,
          "duration": 0.35282260416670397
        },
        {
          "name": "E5",
          "midi": 76,
          "time": 129.43549249999998,
          "velocity": 0.5118110236220472,
          "duration": 0.3326613125000222
        },
        {
          "name": "G5",
          "midi": 79,
          "time": 129.43549249999998,
          "velocity": 0.5118110236220472,
          "duration": 0.3477822812500335
        },
        {
          "name": "D5",
          "midi": 74,
          "time": 129.43549249999998,
          "velocity": 0.8110236220472441,
          "duration": 0.18649194791666446
        },
        {
          "name": "G4",
          "midi": 67,
          "time": 129.677428,
          "velocity": 0.8110236220472441,
          "duration": 0.20161291666670422
        },
        {
          "name": "A3",
          "midi": 57,
          "time": 129.91936350000003,
          "velocity": 0.5118110236220472,
          "duration": 0.6703629479167148
        },
        {
          "name": "E5",
          "midi": 76,
          "time": 129.91936350000003,
          "velocity": 0.5118110236220472,
          "duration": 0.6754032708333852
        },
        {
          "name": "G5",
          "midi": 79,
          "time": 129.91936350000003,
          "velocity": 0.5118110236220472,
          "duration": 0.6653226250000444
        },
        {
          "name": "A4",
          "midi": 69,
          "time": 129.91936350000003,
          "velocity": 0.8110236220472441,
          "duration": 0.2016129166666758
        },
        {
          "name": "D4",
          "midi": 62,
          "time": 129.91936350000003,
          "velocity": 0.8110236220472441,
          "duration": 0.7258065000000613
        },
        {
          "name": "A#4",
          "midi": 70,
          "time": 130.16129900000004,
          "velocity": 0.8110236220472441,
          "duration": 0.2570564687500223
        },
        {
          "name": "D5",
          "midi": 74,
          "time": 130.40323450000005,
          "velocity": 0.8110236220472441,
          "duration": 0.20161291666670422
        },
        {
          "name": "G4",
          "midi": 67,
          "time": 130.6451700000001,
          "velocity": 0.8110236220472441,
          "duration": 0.16129033333334064
        },
        {
          "name": "D4",
          "midi": 62,
          "time": 130.8871055000001,
          "velocity": 0.8110236220472441,
          "duration": 0.7258065000000045
        },
        {
          "name": "A4",
          "midi": 69,
          "time": 130.8871055000001,
          "velocity": 0.8110236220472441,
          "duration": 0.21169356249998827
        },
        {
          "name": "A#4",
          "midi": 70,
          "time": 131.1290410000001,
          "velocity": 0.8110236220472441,
          "duration": 0.23185485416667007
        },
        {
          "name": "A3",
          "midi": 57,
          "time": 131.3709765000001,
          "velocity": 0.5118110236220472,
          "duration": 0.3377016354166642
        },
        {
          "name": "A5",
          "midi": 81,
          "time": 131.3709765000001,
          "velocity": 0.5118110236220472,
          "duration": 0.35282260416667555
        },
        {
          "name": "F5",
          "midi": 77,
          "time": 131.3709765000001,
          "velocity": 0.5118110236220472,
          "duration": 0.2772177604166757
        },
        {
          "name": "D5",
          "midi": 74,
          "time": 131.3709765000001,
          "velocity": 0.8110236220472441,
          "duration": 0.19657259375000535
        },
        {
          "name": "G4",
          "midi": 67,
          "time": 131.6129120000001,
          "velocity": 0.8110236220472441,
          "duration": 0.17137097916665311
        },
        {
          "name": "A3",
          "midi": 57,
          "time": 131.8548475000001,
          "velocity": 0.5118110236220472,
          "duration": 0.4133064791666925
        },
        {
          "name": "A5",
          "midi": 81,
          "time": 131.8548475000001,
          "velocity": 0.5118110236220472,
          "duration": 0.3881048645833687
        },
        {
          "name": "F5",
          "midi": 77,
          "time": 131.8548475000001,
          "velocity": 0.5118110236220472,
          "duration": 0.3377016354166926
        },
        {
          "name": "A4",
          "midi": 69,
          "time": 131.8548475000001,
          "velocity": 0.8110236220472441,
          "duration": 0.2822580833333461
        },
        {
          "name": "D4",
          "midi": 62,
          "time": 131.8548475000001,
          "velocity": 0.8110236220472441,
          "duration": 0.6955645625000386
        },
        {
          "name": "A#4",
          "midi": 70,
          "time": 132.0967830000001,
          "velocity": 0.8110236220472441,
          "duration": 0.21673388541668714
        },
        {
          "name": "A3",
          "midi": 57,
          "time": 132.3387185000001,
          "velocity": 0.5118110236220472,
          "duration": 0.3729838958333289
        },
        {
          "name": "E5",
          "midi": 76,
          "time": 132.3387185000001,
          "velocity": 0.5118110236220472,
          "duration": 0.3326613125000222
        },
        {
          "name": "G5",
          "midi": 79,
          "time": 132.3387185000001,
          "velocity": 0.5118110236220472,
          "duration": 0.35282260416667555
        },
        {
          "name": "D5",
          "midi": 74,
          "time": 132.3387185000001,
          "velocity": 0.8110236220472441,
          "duration": 0.19657259375000535
        },
        {
          "name": "G4",
          "midi": 67,
          "time": 132.58065400000012,
          "velocity": 0.8110236220472441,
          "duration": 0.19657259374997693
        },
        {
          "name": "A3",
          "midi": 57,
          "time": 132.8225895000001,
          "velocity": 0.5118110236220472,
          "duration": 0.5493951979166525
        },
        {
          "name": "G5",
          "midi": 79,
          "time": 132.8225895000001,
          "velocity": 0.5118110236220472,
          "duration": 0.544354874999982
        },
        {
          "name": "E5",
          "midi": 76,
          "time": 132.8225895000001,
          "velocity": 0.5118110236220472,
          "duration": 0.5241935833333287
        },
        {
          "name": "A4",
          "midi": 69,
          "time": 132.8225895000001,
          "velocity": 0.8110236220472441,
          "duration": 0.20665323958334625
        },
        {
          "name": "D4",
          "midi": 62,
          "time": 132.8225895000001,
          "velocity": 0.8110236220472441,
          "duration": 0.7308468229166749
        },
        {
          "name": "A#4",
          "midi": 70,
          "time": 133.06452500000012,
          "velocity": 0.8110236220472441,
          "duration": 0.21673388541665872
        },
        {
          "name": "D5",
          "midi": 74,
          "time": 133.3064605000001,
          "velocity": 0.8110236220472441,
          "duration": 0.19657259375000535
        },
        {
          "name": "G4",
          "midi": 67,
          "time": 133.5483960000001,
          "velocity": 0.8110236220472441,
          "duration": 0.1562500104166702
        },
        {
          "name": "D4",
          "midi": 62,
          "time": 133.79033150000012,
          "velocity": 0.8110236220472441,
          "duration": 0.715725854166692
        },
        {
          "name": "A4",
          "midi": 69,
          "time": 133.79033150000012,
          "velocity": 0.8110236220472441,
          "duration": 0.16129033333334064
        },
        {
          "name": "A#4",
          "midi": 70,
          "time": 134.03226700000013,
          "velocity": 0.8110236220472441,
          "duration": 0.2570564687500223
        },
        {
          "name": "A5",
          "midi": 81,
          "time": 134.27420250000014,
          "velocity": 0.5118110236220472,
          "duration": 0.3528226041666471
        },
        {
          "name": "A3",
          "midi": 57,
          "time": 134.27420250000014,
          "velocity": 0.5118110236220472,
          "duration": 0.33266131249999376
        },
        {
          "name": "F5",
          "midi": 77,
          "time": 134.27420250000014,
          "velocity": 0.5118110236220472,
          "duration": 0.3125000208333404
        },
        {
          "name": "D5",
          "midi": 74,
          "time": 134.27420250000014,
          "velocity": 0.8110236220472441,
          "duration": 0.1915322708333349
        },
        {
          "name": "G4",
          "midi": 67,
          "time": 134.51613800000015,
          "velocity": 0.8110236220472441,
          "duration": 0.14112904166663043
        },
        {
          "name": "A3",
          "midi": 57,
          "time": 134.7580735000001,
          "velocity": 0.5118110236220472,
          "duration": 0.36794357291663005
        },
        {
          "name": "A5",
          "midi": 81,
          "time": 134.7580735000001,
          "velocity": 0.5118110236220472,
          "duration": 0.3830645416666414
        },
        {
          "name": "F5",
          "midi": 77,
          "time": 134.7580735000001,
          "velocity": 0.5118110236220472,
          "duration": 0.3377016354166358
        },
        {
          "name": "A4",
          "midi": 69,
          "time": 134.7580735000001,
          "velocity": 0.8110236220472441,
          "duration": 0.17137097916665311
        },
        {
          "name": "D4",
          "midi": 62,
          "time": 134.7580735000001,
          "velocity": 0.8110236220472441,
          "duration": 0.725806499999976
        },
        {
          "name": "A#4",
          "midi": 70,
          "time": 135.0000090000001,
          "velocity": 0.8110236220472441,
          "duration": 0.22177420833332917
        },
        {
          "name": "A3",
          "midi": 57,
          "time": 135.24194450000007,
          "velocity": 0.5118110236220472,
          "duration": 0.4133064791666925
        },
        {
          "name": "G5",
          "midi": 79,
          "time": 135.24194450000007,
          "velocity": 0.5118110236220472,
          "duration": 0.38810486458334026
        },
        {
          "name": "E5",
          "midi": 76,
          "time": 135.24194450000007,
          "velocity": 0.5118110236220472,
          "duration": 0.3931451875000107
        },
        {
          "name": "D5",
          "midi": 74,
          "time": 135.24194450000007,
          "velocity": 0.8110236220472441,
          "duration": 0.2016129166666758
        },
        {
          "name": "G4",
          "midi": 67,
          "time": 135.48388000000008,
          "velocity": 0.8110236220472441,
          "duration": 0.16129033333334064
        },
        {
          "name": "A3",
          "midi": 57,
          "time": 135.7258155000001,
          "velocity": 0.5118110236220472,
          "duration": 0.8165323125000157
        },
        {
          "name": "D5",
          "midi": 74,
          "time": 135.7258155000001,
          "velocity": 0.5118110236220472,
          "duration": 0.6754032708333284
        },
        {
          "name": "F5",
          "midi": 77,
          "time": 135.7258155000001,
          "velocity": 0.5118110236220472,
          "duration": 0.8064516666666748
        },
        {
          "name": "D4",
          "midi": 62,
          "time": 135.7258155000001,
          "velocity": 0.8110236220472441,
          "duration": 0.781250052083351
        },
        {
          "name": "A4",
          "midi": 69,
          "time": 135.7258155000001,
          "velocity": 0.8110236220472441,
          "duration": 0.17641130208332356
        },
        {
          "name": "A#4",
          "midi": 70,
          "time": 135.96775100000008,
          "velocity": 0.8110236220472441,
          "duration": 0.2016129166666758
        },
        {
          "name": "D5",
          "midi": 74,
          "time": 136.2096865000001,
          "velocity": 0.8110236220472441,
          "duration": 0.292338729166687
        },
        {
          "name": "G4",
          "midi": 67,
          "time": 136.4516220000001,
          "velocity": 0.8110236220472441,
          "duration": 0.1562500104166702
        },
        {
          "name": "A3",
          "midi": 57,
          "time": 136.6935575000001,
          "velocity": 0.5118110236220472,
          "duration": 0.8114919895833168
        },
        {
          "name": "E5",
          "midi": 76,
          "time": 136.6935575000001,
          "velocity": 0.5118110236220472,
          "duration": 0.786290374999993
        },
        {
          "name": "G5",
          "midi": 79,
          "time": 136.6935575000001,
          "velocity": 0.5118110236220472,
          "duration": 0.8114919895833168
        },
        {
          "name": "D4",
          "midi": 62,
          "time": 136.6935575000001,
          "velocity": 0.8110236220472441,
          "duration": 0.7056452083333511
        },
        {
          "name": "A4",
          "midi": 69,
          "time": 136.6935575000001,
          "velocity": 0.8110236220472441,
          "duration": 0.29737905208335746
        },
        {
          "name": "A#4",
          "midi": 70,
          "time": 136.93549300000012,
          "velocity": 0.8110236220472441,
          "duration": 0.2116935625000167
        },
        {
          "name": "D5",
          "midi": 74,
          "time": 137.17742850000013,
          "velocity": 0.8110236220472441,
          "duration": 0.18649194791666446
        },
        {
          "name": "G4",
          "midi": 67,
          "time": 137.41936400000012,
          "velocity": 0.8110236220472441,
          "duration": 0.14616936458330088
        },
        {
          "name": "A3",
          "midi": 57,
          "time": 137.66129950000007,
          "velocity": 0.5118110236220472,
          "duration": 0.35282260416667555
        },
        {
          "name": "D5",
          "midi": 74,
          "time": 137.66129950000007,
          "velocity": 0.5118110236220472,
          "duration": 0.292338729166687
        },
        {
          "name": "F5",
          "midi": 77,
          "time": 137.66129950000007,
          "velocity": 0.5118110236220472,
          "duration": 0.3225806666666813
        },
        {
          "name": "D4",
          "midi": 62,
          "time": 137.66129950000007,
          "velocity": 0.8110236220472441,
          "duration": 0.8266129583333282
        },
        {
          "name": "A4",
          "midi": 69,
          "time": 137.66129950000007,
          "velocity": 0.8110236220472441,
          "duration": 0.292338729166687
        },
        {
          "name": "A#4",
          "midi": 70,
          "time": 137.90323500000008,
          "velocity": 0.8110236220472441,
          "duration": 0.22177420833332917
        },
        {
          "name": "A3",
          "midi": 57,
          "time": 138.14517050000006,
          "velocity": 0.5118110236220472,
          "duration": 1.1542339479167083
        },
        {
          "name": "E5",
          "midi": 76,
          "time": 138.14517050000006,
          "velocity": 0.5118110236220472,
          "duration": 0.9576613541666745
        },
        {
          "name": "G5",
          "midi": 79,
          "time": 138.14517050000006,
          "velocity": 0.5118110236220472,
          "duration": 0.9879032916666972
        },
        {
          "name": "D5",
          "midi": 74,
          "time": 138.14517050000006,
          "velocity": 0.8110236220472441,
          "duration": 0.2016129166666758
        },
        {
          "name": "G4",
          "midi": 67,
          "time": 138.38710600000007,
          "velocity": 0.8110236220472441,
          "duration": 0.17641130208332356
        },
        {
          "name": "D4",
          "midi": 62,
          "time": 138.62904150000006,
          "velocity": 0.8110236220472441,
          "duration": 0.8467742500000384
        },
        {
          "name": "A4",
          "midi": 69,
          "time": 138.62904150000006,
          "velocity": 0.8110236220472441,
          "duration": 0.19657259375000535
        },
        {
          "name": "A#4",
          "midi": 70,
          "time": 138.87097700000007,
          "velocity": 0.8110236220472441,
          "duration": 0.2469758229166814
        },
        {
          "name": "D5",
          "midi": 74,
          "time": 139.11291250000008,
          "velocity": 0.8110236220472441,
          "duration": 0.21673388541668714
        },
        {
          "name": "G4",
          "midi": 67,
          "time": 139.3548480000001,
          "velocity": 0.8110236220472441,
          "duration": 0.17641130208335198
        },
        {
          "name": "D4",
          "midi": 62,
          "time": 139.5967835000001,
          "velocity": 0.8110236220472441,
          "duration": 0.8316532812499702
        },
        {
          "name": "A4",
          "midi": 69,
          "time": 139.5967835000001,
          "velocity": 0.8110236220472441,
          "duration": 0.17641130208332356
        },
        {
          "name": "A#4",
          "midi": 70,
          "time": 139.83871900000008,
          "velocity": 0.8110236220472441,
          "duration": 0.20665323958334625
        },
        {
          "name": "F5",
          "midi": 77,
          "time": 140.0806545000001,
          "velocity": 0.5118110236220472,
          "duration": 0.3074596979166415
        },
        {
          "name": "A5",
          "midi": 81,
          "time": 140.0806545000001,
          "velocity": 0.5118110236220472,
          "duration": 0.3175403437499824
        },
        {
          "name": "A3",
          "midi": 57,
          "time": 140.0806545000001,
          "velocity": 0.5118110236220472,
          "duration": 0.34274195833330623
        },
        {
          "name": "D5",
          "midi": 74,
          "time": 140.0806545000001,
          "velocity": 0.8110236220472441,
          "duration": 0.21673388541665872
        },
        {
          "name": "G4",
          "midi": 67,
          "time": 140.32259000000008,
          "velocity": 0.8110236220472441,
          "duration": 0.1562500104166702
        },
        {
          "name": "A3",
          "midi": 57,
          "time": 140.5645255000001,
          "velocity": 0.5118110236220472,
          "duration": 0.3729838958333289
        },
        {
          "name": "F5",
          "midi": 77,
          "time": 140.5645255000001,
          "velocity": 0.5118110236220472,
          "duration": 0.34274195833333465
        },
        {
          "name": "A5",
          "midi": 81,
          "time": 140.5645255000001,
          "velocity": 0.5118110236220472,
          "duration": 0.3830645416666698
        },
        {
          "name": "D4",
          "midi": 62,
          "time": 140.5645255000001,
          "velocity": 0.8110236220472441,
          "duration": 0.8467742500000099
        },
        {
          "name": "A4",
          "midi": 69,
          "time": 140.5645255000001,
          "velocity": 0.8110236220472441,
          "duration": 0.18649194791666446
        },
        {
          "name": "A#4",
          "midi": 70,
          "time": 140.8064610000001,
          "velocity": 0.8110236220472441,
          "duration": 0.23185485416667007
        },
        {
          "name": "A3",
          "midi": 57,
          "time": 141.0483965000001,
          "velocity": 0.5118110236220472,
          "duration": 0.362903249999988
        },
        {
          "name": "G5",
          "midi": 79,
          "time": 141.0483965000001,
          "velocity": 0.5118110236220472,
          "duration": 0.362903249999988
        },
        {
          "name": "E5",
          "midi": 76,
          "time": 141.0483965000001,
          "velocity": 0.5118110236220472,
          "duration": 0.32258066666665286
        },
        {
          "name": "D5",
          "midi": 74,
          "time": 141.0483965000001,
          "velocity": 0.8110236220472441,
          "duration": 0.17641130208332356
        },
        {
          "name": "G4",
          "midi": 67,
          "time": 141.2903320000001,
          "velocity": 0.8110236220472441,
          "duration": 0.14112904166665885
        },
        {
          "name": "A3",
          "midi": 57,
          "time": 141.53226750000007,
          "velocity": 0.5118110236220472,
          "duration": 0.5241935833333287
        },
        {
          "name": "G5",
          "midi": 79,
          "time": 141.53226750000007,
          "velocity": 0.5118110236220472,
          "duration": 0.48891132291666395
        },
        {
          "name": "E5",
          "midi": 76,
          "time": 141.53226750000007,
          "velocity": 0.5118110236220472,
          "duration": 0.4838709999999935
        },
        {
          "name": "D4",
          "midi": 62,
          "time": 141.53226750000007,
          "velocity": 0.8110236220472441,
          "duration": 0.7510081145833283
        },
        {
          "name": "A4",
          "midi": 69,
          "time": 141.53226750000007,
          "velocity": 0.8110236220472441,
          "duration": 0.17641130208332356
        },
        {
          "name": "A#4",
          "midi": 70,
          "time": 141.77420300000006,
          "velocity": 0.8110236220472441,
          "duration": 0.22681453124999962
        },
        {
          "name": "D5",
          "midi": 74,
          "time": 142.01613850000007,
          "velocity": 0.8110236220472441,
          "duration": 0.18649194791666446
        },
        {
          "name": "G4",
          "midi": 67,
          "time": 142.25807400000008,
          "velocity": 0.8110236220472441,
          "duration": 0.1461693645833293
        },
        {
          "name": "D4",
          "midi": 62,
          "time": 142.50000950000006,
          "velocity": 0.8110236220472441,
          "duration": 0.8215726354166577
        },
        {
          "name": "A4",
          "midi": 69,
          "time": 142.50000950000006,
          "velocity": 0.8110236220472441,
          "duration": 0.17137097916665311
        },
        {
          "name": "A#4",
          "midi": 70,
          "time": 142.74194500000004,
          "velocity": 0.8110236220472441,
          "duration": 0.17641130208332356
        },
        {
          "name": "A3",
          "midi": 57,
          "time": 142.98388050000003,
          "velocity": 0.5118110236220472,
          "duration": 0.3125000208333404
        },
        {
          "name": "A5",
          "midi": 81,
          "time": 142.98388050000003,
          "velocity": 0.5118110236220472,
          "duration": 0.3225806666666813
        },
        {
          "name": "F5",
          "midi": 77,
          "time": 142.98388050000003,
          "velocity": 0.5118110236220472,
          "duration": 0.3024193749999995
        },
        {
          "name": "D5",
          "midi": 74,
          "time": 142.98388050000003,
          "velocity": 0.8110236220472441,
          "duration": 0.19657259375000535
        },
        {
          "name": "G4",
          "midi": 67,
          "time": 143.22581600000004,
          "velocity": 0.8110236220472441,
          "duration": 0.15120968750002817
        },
        {
          "name": "A3",
          "midi": 57,
          "time": 143.46775150000008,
          "velocity": 0.5118110236220472,
          "duration": 0.3931451874999823
        },
        {
          "name": "F5",
          "midi": 77,
          "time": 143.46775150000008,
          "velocity": 0.5118110236220472,
          "duration": 0.3377016354166358
        },
        {
          "name": "A5",
          "midi": 81,
          "time": 143.46775150000008,
          "velocity": 0.5118110236220472,
          "duration": 0.38810486458331184
        },
        {
          "name": "D4",
          "midi": 62,
          "time": 143.46775150000008,
          "velocity": 0.8110236220472441,
          "duration": 0.8064516666666464
        },
        {
          "name": "A4",
          "midi": 69,
          "time": 143.46775150000008,
          "velocity": 0.8110236220472441,
          "duration": 0.181451624999994
        },
        {
          "name": "A#4",
          "midi": 70,
          "time": 143.70968700000006,
          "velocity": 0.8110236220472441,
          "duration": 0.21673388541665872
        },
        {
          "name": "A3",
          "midi": 57,
          "time": 143.95162250000004,
          "velocity": 0.5118110236220472,
          "duration": 0.3427419583333631
        },
        {
          "name": "E5",
          "midi": 76,
          "time": 143.95162250000004,
          "velocity": 0.5118110236220472,
          "duration": 0.3225806666666813
        },
        {
          "name": "G5",
          "midi": 79,
          "time": 143.95162250000004,
          "velocity": 0.5118110236220472,
          "duration": 0.3326613125000222
        },
        {
          "name": "D5",
          "midi": 74,
          "time": 143.95162250000004,
          "velocity": 0.8110236220472441,
          "duration": 0.18649194791666446
        },
        {
          "name": "G4",
          "midi": 67,
          "time": 144.19355800000005,
          "velocity": 0.8110236220472441,
          "duration": 0.14112904166668727
        },
        {
          "name": "A3",
          "midi": 57,
          "time": 144.43549350000006,
          "velocity": 0.5118110236220472,
          "duration": 0.5443548749999536
        },
        {
          "name": "E5",
          "midi": 76,
          "time": 144.43549350000006,
          "velocity": 0.5118110236220472,
          "duration": 0.5342742291666127
        },
        {
          "name": "G5",
          "midi": 79,
          "time": 144.43549350000006,
          "velocity": 0.5118110236220472,
          "duration": 0.5141129374999593
        },
        {
          "name": "D4",
          "midi": 62,
          "time": 144.43549350000006,
          "velocity": 0.8110236220472441,
          "duration": 0.8064516666666179
        },
        {
          "name": "A4",
          "midi": 69,
          "time": 144.43549350000006,
          "velocity": 0.8110236220472441,
          "duration": 0.1461693645833293
        },
        {
          "name": "A#4",
          "midi": 70,
          "time": 144.67742900000005,
          "velocity": 0.8110236220472441,
          "duration": 0.21673388541665872
        },
        {
          "name": "D5",
          "midi": 74,
          "time": 144.91936450000003,
          "velocity": 0.8110236220472441,
          "duration": 0.20161291666664738
        },
        {
          "name": "G4",
          "midi": 67,
          "time": 145.1613,
          "velocity": 0.8110236220472441,
          "duration": 0.16129033333334064
        },
        {
          "name": "D4",
          "midi": 62,
          "time": 145.40323550000002,
          "velocity": 0.8110236220472441,
          "duration": 0.7610887604166692
        },
        {
          "name": "A4",
          "midi": 69,
          "time": 145.40323550000002,
          "velocity": 0.8110236220472441,
          "duration": 0.22177420833332917
        },
        {
          "name": "A#4",
          "midi": 70,
          "time": 145.645171,
          "velocity": 0.8110236220472441,
          "duration": 0.18649194791666446
        },
        {
          "name": "A4",
          "midi": 69,
          "time": 145.645171,
          "velocity": 0.8110236220472441,
          "duration": 0.04032258333333516
        },
        {
          "name": "A3",
          "midi": 57,
          "time": 145.88710650000002,
          "velocity": 0.5118110236220472,
          "duration": 0.32762098958335173
        },
        {
          "name": "F5",
          "midi": 77,
          "time": 145.88710650000002,
          "velocity": 0.5118110236220472,
          "duration": 0.3427419583333631
        },
        {
          "name": "A5",
          "midi": 81,
          "time": 145.88710650000002,
          "velocity": 0.5118110236220472,
          "duration": 0.3427419583333631
        },
        {
          "name": "D5",
          "midi": 74,
          "time": 145.88710650000002,
          "velocity": 0.8110236220472441,
          "duration": 0.18649194791666446
        },
        {
          "name": "G4",
          "midi": 67,
          "time": 146.12904200000003,
          "velocity": 0.8110236220472441,
          "duration": 0.14112904166668727
        },
        {
          "name": "A3",
          "midi": 57,
          "time": 146.37097750000004,
          "velocity": 0.5118110236220472,
          "duration": 0.362903249999988
        },
        {
          "name": "F5",
          "midi": 77,
          "time": 146.37097750000004,
          "velocity": 0.5118110236220472,
          "duration": 0.34274195833333465
        },
        {
          "name": "A5",
          "midi": 81,
          "time": 146.37097750000004,
          "velocity": 0.5118110236220472,
          "duration": 0.33266131249999376
        },
        {
          "name": "D4",
          "midi": 62,
          "time": 146.37097750000004,
          "velocity": 0.8110236220472441,
          "duration": 0.8266129583332997
        },
        {
          "name": "A4",
          "midi": 69,
          "time": 146.37097750000004,
          "velocity": 0.8110236220472441,
          "duration": 0.181451624999994
        },
        {
          "name": "A#4",
          "midi": 70,
          "time": 146.61291300000002,
          "velocity": 0.8110236220472441,
          "duration": 0.2116935625000167
        },
        {
          "name": "A3",
          "midi": 57,
          "time": 146.85484850000003,
          "velocity": 0.5118110236220472,
          "duration": 0.9324597395833507
        },
        {
          "name": "E5",
          "midi": 76,
          "time": 146.85484850000003,
          "velocity": 0.5118110236220472,
          "duration": 0.45362906249999924
        },
        {
          "name": "G5",
          "midi": 79,
          "time": 146.85484850000003,
          "velocity": 0.5118110236220472,
          "duration": 0.44354841666665834
        },
        {
          "name": "D5",
          "midi": 74,
          "time": 146.85484850000003,
          "velocity": 0.8110236220472441,
          "duration": 0.181451624999994
        },
        {
          "name": "G4",
          "midi": 67,
          "time": 147.096784,
          "velocity": 0.8110236220472441,
          "duration": 0.1461693645833293
        },
        {
          "name": "F5",
          "midi": 77,
          "time": 147.33871950000002,
          "velocity": 0.5118110236220472,
          "duration": 0.3830645416666698
        },
        {
          "name": "A5",
          "midi": 81,
          "time": 147.33871950000002,
          "velocity": 0.5118110236220472,
          "duration": 0.3931451875000107
        },
        {
          "name": "D4",
          "midi": 62,
          "time": 147.33871950000002,
          "velocity": 0.8110236220472441,
          "duration": 0.831653281250027
        },
        {
          "name": "A4",
          "midi": 69,
          "time": 147.33871950000002,
          "velocity": 0.8110236220472441,
          "duration": 0.21169356249998827
        },
        {
          "name": "A#4",
          "midi": 70,
          "time": 147.580655,
          "velocity": 0.8110236220472441,
          "duration": 0.23689517708336894
        },
        {
          "name": "A4",
          "midi": 69,
          "time": 147.580655,
          "velocity": 0.8110236220472441,
          "duration": 0.0554435520833465
        },
        {
          "name": "A3",
          "midi": 57,
          "time": 147.82259050000005,
          "velocity": 0.5118110236220472,
          "duration": 0.8618952187500213
        },
        {
          "name": "A#5",
          "midi": 82,
          "time": 147.82259050000005,
          "velocity": 0.5118110236220472,
          "duration": 0.46370970833334013
        },
        {
          "name": "G5",
          "midi": 79,
          "time": 147.82259050000005,
          "velocity": 0.5118110236220472,
          "duration": 0.44354841666668676
        },
        {
          "name": "D5",
          "midi": 74,
          "time": 147.82259050000005,
          "velocity": 0.8110236220472441,
          "duration": 0.19657259375000535
        },
        {
          "name": "G4",
          "midi": 67,
          "time": 148.06452600000006,
          "velocity": 0.8110236220472441,
          "duration": 0.16129033333334064
        },
        {
          "name": "F5",
          "midi": 77,
          "time": 148.30646150000004,
          "velocity": 0.5118110236220472,
          "duration": 0.37298389583335734
        },
        {
          "name": "A5",
          "midi": 81,
          "time": 148.30646150000004,
          "velocity": 0.5118110236220472,
          "duration": 0.3881048645833687
        },
        {
          "name": "D4",
          "midi": 62,
          "time": 148.30646150000004,
          "velocity": 0.8110236220472441,
          "duration": 0.6854839166667261
        },
        {
          "name": "A4",
          "midi": 69,
          "time": 148.30646150000004,
          "velocity": 0.8110236220472441,
          "duration": 0.19657259375000535
        },
        {
          "name": "A#4",
          "midi": 70,
          "time": 148.54839700000005,
          "velocity": 0.8110236220472441,
          "duration": 0.19153227083336333
        },
        {
          "name": "A3",
          "midi": 57,
          "time": 148.7903325000001,
          "velocity": 0.5118110236220472,
          "duration": 0.8820565104166747
        },
        {
          "name": "G5",
          "midi": 79,
          "time": 148.7903325000001,
          "velocity": 0.5118110236220472,
          "duration": 0.39818551041668115
        },
        {
          "name": "E5",
          "midi": 76,
          "time": 148.7903325000001,
          "velocity": 0.5118110236220472,
          "duration": 0.36290325000001644
        },
        {
          "name": "D5",
          "midi": 74,
          "time": 148.7903325000001,
          "velocity": 0.8110236220472441,
          "duration": 0.2016129166666758
        },
        {
          "name": "G4",
          "midi": 67,
          "time": 149.0322680000001,
          "velocity": 0.8110236220472441,
          "duration": 0.14112904166665885
        },
        {
          "name": "D5",
          "midi": 74,
          "time": 149.2742035000001,
          "velocity": 0.5118110236220472,
          "duration": 0.39818551041665273
        },
        {
          "name": "F5",
          "midi": 77,
          "time": 149.2742035000001,
          "velocity": 0.5118110236220472,
          "duration": 0.42338712499997655
        },
        {
          "name": "D4",
          "midi": 62,
          "time": 149.2742035000001,
          "velocity": 0.8110236220472441,
          "duration": 0.7056452083332942
        },
        {
          "name": "A4",
          "midi": 69,
          "time": 149.2742035000001,
          "velocity": 0.8110236220472441,
          "duration": 0.14112904166665885
        },
        {
          "name": "A#4",
          "midi": 70,
          "time": 149.5161390000001,
          "velocity": 0.8110236220472441,
          "duration": 0.2822580833333177
        },
        {
          "name": "A3",
          "midi": 57,
          "time": 149.75807450000008,
          "velocity": 0.5118110236220472,
          "duration": 0.8417339270833111
        },
        {
          "name": "E5",
          "midi": 76,
          "time": 149.75807450000008,
          "velocity": 0.5118110236220472,
          "duration": 0.37802421874997094
        },
        {
          "name": "G5",
          "midi": 79,
          "time": 149.75807450000008,
          "velocity": 0.5118110236220472,
          "duration": 0.44858873958330037
        },
        {
          "name": "D5",
          "midi": 74,
          "time": 149.75807450000008,
          "velocity": 0.8110236220472441,
          "duration": 0.17641130208332356
        },
        {
          "name": "G4",
          "midi": 67,
          "time": 150.00001000000006,
          "velocity": 0.8110236220472441,
          "duration": 0.1461693645833293
        },
        {
          "name": "F5",
          "midi": 77,
          "time": 150.24194550000004,
          "velocity": 0.5118110236220472,
          "duration": 0.3024193749999995
        },
        {
          "name": "D5",
          "midi": 74,
          "time": 150.24194550000004,
          "velocity": 0.5118110236220472,
          "duration": 0.24193550000001096
        },
        {
          "name": "D4",
          "midi": 62,
          "time": 150.24194550000004,
          "velocity": 0.8110236220472441,
          "duration": 0.7711694062500385
        },
        {
          "name": "A4",
          "midi": 69,
          "time": 150.24194550000004,
          "velocity": 0.8110236220472441,
          "duration": 0.2016129166666758
        },
        {
          "name": "A#4",
          "midi": 70,
          "time": 150.48388100000005,
          "velocity": 0.8110236220472441,
          "duration": 0.23185485416667007
        },
        {
          "name": "E5",
          "midi": 76,
          "time": 150.72581650000006,
          "velocity": 0.5118110236220472,
          "duration": 0.3830645416666698
        },
        {
          "name": "C#5",
          "midi": 73,
          "time": 150.72581650000006,
          "velocity": 0.5118110236220472,
          "duration": 0.3477822812500051
        },
        {
          "name": "A3",
          "midi": 57,
          "time": 150.72581650000006,
          "velocity": 0.5118110236220472,
          "duration": 0.3729838958333289
        },
        {
          "name": "D5",
          "midi": 74,
          "time": 150.72581650000006,
          "velocity": 0.8110236220472441,
          "duration": 0.2016129166666758
        },
        {
          "name": "G4",
          "midi": 67,
          "time": 150.96775200000008,
          "velocity": 0.8110236220472441,
          "duration": 0.1461693645833293
        },
        {
          "name": "D4",
          "midi": 62,
          "time": 151.20968750000006,
          "velocity": 1,
          "duration": 0.3326613125000222
        },
        {
          "name": "D5",
          "midi": 74,
          "time": 151.20968750000006,
          "velocity": 1,
          "duration": 0.12096775000000548
        },
        {
          "name": "D5",
          "midi": 74,
          "time": 151.20968750000006,
          "velocity": 1,
          "duration": 0.3326613125000222
        },
        {
          "name": "A5",
          "midi": 81,
          "time": 151.20968750000006,
          "velocity": 1,
          "duration": 0.12096775000000548
        },
        {
          "name": "F#5",
          "midi": 78,
          "time": 151.20968750000006,
          "velocity": 1,
          "duration": 0.12096775000000548
        },
        {
          "name": "C5",
          "midi": 72,
          "time": 151.45162300000007,
          "velocity": 1,
          "duration": 0.12096775000000548
        },
        {
          "name": "G5",
          "midi": 79,
          "time": 151.45162300000007,
          "velocity": 1,
          "duration": 0.12096775000000548
        },
        {
          "name": "E5",
          "midi": 76,
          "time": 151.45162300000007,
          "velocity": 1,
          "duration": 0.12096775000000548
        },
        {
          "name": "C4",
          "midi": 60,
          "time": 151.69355850000008,
          "velocity": 0.7559055118110236,
          "duration": 0.8870968333333735
        },
        {
          "name": "C5",
          "midi": 72,
          "time": 151.69355850000008,
          "velocity": 0.9133858267716536,
          "duration": 0.36290325000001644
        },
        {
          "name": "D5",
          "midi": 74,
          "time": 151.69355850000008,
          "velocity": 1,
          "duration": 0.12096775000000548
        },
        {
          "name": "F#5",
          "midi": 78,
          "time": 151.69355850000008,
          "velocity": 1,
          "duration": 0.12096775000000548
        },
        {
          "name": "A5",
          "midi": 81,
          "time": 151.69355850000008,
          "velocity": 1,
          "duration": 0.12096775000000548
        },
        {
          "name": "E5",
          "midi": 76,
          "time": 151.9354940000001,
          "velocity": 1,
          "duration": 0.12096775000000548
        },
        {
          "name": "G5",
          "midi": 79,
          "time": 151.9354940000001,
          "velocity": 1,
          "duration": 0.12096775000000548
        },
        {
          "name": "C5",
          "midi": 72,
          "time": 151.9354940000001,
          "velocity": 1,
          "duration": 0.6048387500000274
        },
        {
          "name": "A4",
          "midi": 69,
          "time": 152.1774295000001,
          "velocity": 1,
          "duration": 0.12096775000000548
        },
        {
          "name": "D5",
          "midi": 74,
          "time": 152.1774295000001,
          "velocity": 1,
          "duration": 0.12096775000000548
        },
        {
          "name": "F#5",
          "midi": 78,
          "time": 152.1774295000001,
          "velocity": 1,
          "duration": 0.12096775000000548
        },
        {
          "name": "C5",
          "midi": 72,
          "time": 152.4193650000001,
          "velocity": 1,
          "duration": 0.1461693645833293
        },
        {
          "name": "G5",
          "midi": 79,
          "time": 152.4193650000001,
          "velocity": 1,
          "duration": 0.12096775000000548
        },
        {
          "name": "E5",
          "midi": 76,
          "time": 152.4193650000001,
          "velocity": 1,
          "duration": 0.12096775000000548
        },
        {
          "name": "D4",
          "midi": 62,
          "time": 152.66130050000012,
          "velocity": 0.8740157480314961,
          "duration": 0.3679435729166869
        },
        {
          "name": "D5",
          "midi": 74,
          "time": 152.66130050000012,
          "velocity": 0.8818897637795275,
          "duration": 0.12096775000000548
        },
        {
          "name": "F#5",
          "midi": 78,
          "time": 152.66130050000012,
          "velocity": 1,
          "duration": 0.12096775000000548
        },
        {
          "name": "A5",
          "midi": 81,
          "time": 152.66130050000012,
          "velocity": 1,
          "duration": 0.12096775000000548
        },
        {
          "name": "D5",
          "midi": 74,
          "time": 152.66130050000012,
          "velocity": 1,
          "duration": 0.37298389583335734
        },
        {
          "name": "C5",
          "midi": 72,
          "time": 152.90323600000013,
          "velocity": 1,
          "duration": 0.12096775000000548
        },
        {
          "name": "G5",
          "midi": 79,
          "time": 152.90323600000013,
          "velocity": 1,
          "duration": 0.12096775000000548
        },
        {
          "name": "E5",
          "midi": 76,
          "time": 152.90323600000013,
          "velocity": 1,
          "duration": 0.12096775000000548
        },
        {
          "name": "C4",
          "midi": 60,
          "time": 153.14517150000015,
          "velocity": 0.7401574803149606,
          "duration": 0.8870968333333735
        },
        {
          "name": "C5",
          "midi": 72,
          "time": 153.14517150000015,
          "velocity": 0.8582677165354331,
          "duration": 0.36290325000001644
        },
        {
          "name": "D5",
          "midi": 74,
          "time": 153.14517150000015,
          "velocity": 1,
          "duration": 0.12096775000000548
        },
        {
          "name": "F#5",
          "midi": 78,
          "time": 153.14517150000015,
          "velocity": 1,
          "duration": 0.12096775000000548
        },
        {
          "name": "A5",
          "midi": 81,
          "time": 153.14517150000015,
          "velocity": 1,
          "duration": 0.12096775000000548
        },
        {
          "name": "C5",
          "midi": 72,
          "time": 153.38710700000016,
          "velocity": 1,
          "duration": 0.6048387500000274
        },
        {
          "name": "E5",
          "midi": 76,
          "time": 153.38710700000016,
          "velocity": 1,
          "duration": 0.12096775000000548
        },
        {
          "name": "G5",
          "midi": 79,
          "time": 153.38710700000016,
          "velocity": 1,
          "duration": 0.12096775000000548
        },
        {
          "name": "A4",
          "midi": 69,
          "time": 153.62904250000017,
          "velocity": 1,
          "duration": 0.12096775000000548
        },
        {
          "name": "D5",
          "midi": 74,
          "time": 153.62904250000017,
          "velocity": 1,
          "duration": 0.12096775000000548
        },
        {
          "name": "F#5",
          "midi": 78,
          "time": 153.62904250000017,
          "velocity": 1,
          "duration": 0.12096775000000548
        },
        {
          "name": "G5",
          "midi": 79,
          "time": 153.87097800000018,
          "velocity": 1,
          "duration": 0.12096775000000548
        },
        {
          "name": "C5",
          "midi": 72,
          "time": 153.87097800000018,
          "velocity": 1,
          "duration": 0.12600807291667593
        },
        {
          "name": "E5",
          "midi": 76,
          "time": 153.87097800000018,
          "velocity": 1,
          "duration": 0.12096775000000548
        },
        {
          "name": "D4",
          "midi": 62,
          "time": 154.1129135000002,
          "velocity": 0.8267716535433071,
          "duration": 0.40826615625002205
        },
        {
          "name": "D5",
          "midi": 74,
          "time": 154.1129135000002,
          "velocity": 0.8818897637795275,
          "duration": 0.12096775000000548
        },
        {
          "name": "D5",
          "midi": 74,
          "time": 154.1129135000002,
          "velocity": 1,
          "duration": 0.4032258333333516
        },
        {
          "name": "A5",
          "midi": 81,
          "time": 154.1129135000002,
          "velocity": 1,
          "duration": 0.12096775000000548
        },
        {
          "name": "F#5",
          "midi": 78,
          "time": 154.1129135000002,
          "velocity": 1,
          "duration": 0.12096775000000548
        },
        {
          "name": "C5",
          "midi": 72,
          "time": 154.3548490000002,
          "velocity": 1,
          "duration": 0.12096775000000548
        },
        {
          "name": "G5",
          "midi": 79,
          "time": 154.3548490000002,
          "velocity": 1,
          "duration": 0.12096775000000548
        },
        {
          "name": "E5",
          "midi": 76,
          "time": 154.3548490000002,
          "velocity": 1,
          "duration": 0.12096775000000548
        },
        {
          "name": "C4",
          "midi": 60,
          "time": 154.5967845000002,
          "velocity": 0.7322834645669292,
          "duration": 0.38810486458334026
        },
        {
          "name": "C5",
          "midi": 72,
          "time": 154.5967845000002,
          "velocity": 0.84251968503937,
          "duration": 0.36290325000001644
        },
        {
          "name": "D5",
          "midi": 74,
          "time": 154.5967845000002,
          "velocity": 1,
          "duration": 0.12096775000000548
        },
        {
          "name": "F#5",
          "midi": 78,
          "time": 154.5967845000002,
          "velocity": 1,
          "duration": 0.12096775000000548
        },
        {
          "name": "A5",
          "midi": 81,
          "time": 154.5967845000002,
          "velocity": 1,
          "duration": 0.12096775000000548
        },
        {
          "name": "C5",
          "midi": 72,
          "time": 154.83872000000022,
          "velocity": 1,
          "duration": 0.12096775000000548
        },
        {
          "name": "G5",
          "midi": 79,
          "time": 154.83872000000022,
          "velocity": 1,
          "duration": 0.12096775000000548
        },
        {
          "name": "E5",
          "midi": 76,
          "time": 154.83872000000022,
          "velocity": 1,
          "duration": 0.12096775000000548
        },
        {
          "name": "D5",
          "midi": 74,
          "time": 155.0806555000002,
          "velocity": 0.8582677165354331,
          "duration": 0.12096775000000548
        },
        {
          "name": "D4",
          "midi": 62,
          "time": 155.0806555000002,
          "velocity": 0.7952755905511811,
          "duration": 0.37298389583335734
        },
        {
          "name": "F#5",
          "midi": 78,
          "time": 155.0806555000002,
          "velocity": 1,
          "duration": 0.12096775000000548
        },
        {
          "name": "D5",
          "midi": 74,
          "time": 155.0806555000002,
          "velocity": 1,
          "duration": 0.3780242187500278
        },
        {
          "name": "A4",
          "midi": 69,
          "time": 155.0806555000002,
          "velocity": 1,
          "duration": 0.12096775000000548
        },
        {
          "name": "C5",
          "midi": 72,
          "time": 155.32259100000022,
          "velocity": 1,
          "duration": 0.12096775000000548
        },
        {
          "name": "E5",
          "midi": 76,
          "time": 155.32259100000022,
          "velocity": 1,
          "duration": 0.12096775000000548
        },
        {
          "name": "G5",
          "midi": 79,
          "time": 155.32259100000022,
          "velocity": 1,
          "duration": 0.12096775000000548
        },
        {
          "name": "C4",
          "midi": 60,
          "time": 155.56452650000023,
          "velocity": 0.7007874015748031,
          "duration": 0.3931451875000107
        },
        {
          "name": "C5",
          "midi": 72,
          "time": 155.56452650000023,
          "velocity": 0.8818897637795275,
          "duration": 0.36290325000001644
        },
        {
          "name": "D5",
          "midi": 74,
          "time": 155.56452650000023,
          "velocity": 1,
          "duration": 0.12096775000000548
        },
        {
          "name": "F#5",
          "midi": 78,
          "time": 155.56452650000023,
          "velocity": 1,
          "duration": 0.12096775000000548
        },
        {
          "name": "A5",
          "midi": 81,
          "time": 155.56452650000023,
          "velocity": 1,
          "duration": 0.12096775000000548
        },
        {
          "name": "C5",
          "midi": 72,
          "time": 155.80646200000024,
          "velocity": 1,
          "duration": 0.12600807291667593
        },
        {
          "name": "E5",
          "midi": 76,
          "time": 155.80646200000024,
          "velocity": 1,
          "duration": 0.12096775000000548
        },
        {
          "name": "G5",
          "midi": 79,
          "time": 155.80646200000024,
          "velocity": 1,
          "duration": 0.12096775000000548
        },
        {
          "name": "D5",
          "midi": 74,
          "time": 156.04839750000025,
          "velocity": 0.8582677165354331,
          "duration": 0.12096775000000548
        },
        {
          "name": "D4",
          "midi": 62,
          "time": 156.04839750000025,
          "velocity": 0.7874015748031497,
          "duration": 0.3931451875000107
        },
        {
          "name": "A5",
          "midi": 81,
          "time": 156.04839750000025,
          "velocity": 1,
          "duration": 0.12096775000000548
        },
        {
          "name": "F#5",
          "midi": 78,
          "time": 156.04839750000025,
          "velocity": 1,
          "duration": 0.12096775000000548
        },
        {
          "name": "D5",
          "midi": 74,
          "time": 156.04839750000025,
          "velocity": 1,
          "duration": 0.3931451875000107
        },
        {
          "name": "C5",
          "midi": 72,
          "time": 156.29033300000026,
          "velocity": 1,
          "duration": 0.12096775000000548
        },
        {
          "name": "G5",
          "midi": 79,
          "time": 156.29033300000026,
          "velocity": 1,
          "duration": 0.12096775000000548
        },
        {
          "name": "E5",
          "midi": 76,
          "time": 156.29033300000026,
          "velocity": 1,
          "duration": 0.12096775000000548
        },
        {
          "name": "C4",
          "midi": 60,
          "time": 156.53226850000027,
          "velocity": 0.7244094488188977,
          "duration": 0.41834680208336295
        },
        {
          "name": "C5",
          "midi": 72,
          "time": 156.53226850000027,
          "velocity": 0.8267716535433071,
          "duration": 0.36290325000001644
        },
        {
          "name": "A4",
          "midi": 69,
          "time": 156.53226850000027,
          "velocity": 1,
          "duration": 0.12096775000000548
        },
        {
          "name": "D5",
          "midi": 74,
          "time": 156.53226850000027,
          "velocity": 1,
          "duration": 0.12096775000000548
        },
        {
          "name": "F#5",
          "midi": 78,
          "time": 156.53226850000027,
          "velocity": 1,
          "duration": 0.12096775000000548
        },
        {
          "name": "C5",
          "midi": 72,
          "time": 156.77420400000028,
          "velocity": 1,
          "duration": 0.16129033333334064
        },
        {
          "name": "E5",
          "midi": 76,
          "time": 156.77420400000028,
          "velocity": 1,
          "duration": 0.12096775000000548
        },
        {
          "name": "G5",
          "midi": 79,
          "time": 156.77420400000028,
          "velocity": 1,
          "duration": 0.12096775000000548
        },
        {
          "name": "D4",
          "midi": 62,
          "time": 157.0161395000003,
          "velocity": 0.8031496062992126,
          "duration": 0.35282260416667555
        },
        {
          "name": "D5",
          "midi": 74,
          "time": 157.0161395000003,
          "velocity": 0.8582677165354331,
          "duration": 0.12096775000000548
        },
        {
          "name": "D5",
          "midi": 74,
          "time": 157.0161395000003,
          "velocity": 1,
          "duration": 0.3931451875000107
        },
        {
          "name": "F#5",
          "midi": 78,
          "time": 157.0161395000003,
          "velocity": 1,
          "duration": 0.12096775000000548
        },
        {
          "name": "A5",
          "midi": 81,
          "time": 157.0161395000003,
          "velocity": 1,
          "duration": 0.12096775000000548
        },
        {
          "name": "C5",
          "midi": 72,
          "time": 157.2580750000003,
          "velocity": 1,
          "duration": 0.12096775000000548
        },
        {
          "name": "G5",
          "midi": 79,
          "time": 157.2580750000003,
          "velocity": 1,
          "duration": 0.12096775000000548
        },
        {
          "name": "E5",
          "midi": 76,
          "time": 157.2580750000003,
          "velocity": 1,
          "duration": 0.12096775000000548
        },
        {
          "name": "C4",
          "midi": 60,
          "time": 157.50001050000031,
          "velocity": 0.7637795275590551,
          "duration": 0.3830645416666698
        },
        {
          "name": "C5",
          "midi": 72,
          "time": 157.50001050000031,
          "velocity": 0.8818897637795275,
          "duration": 0.36290325000001644
        },
        {
          "name": "D5",
          "midi": 74,
          "time": 157.50001050000031,
          "velocity": 1,
          "duration": 0.12096775000000548
        },
        {
          "name": "F#5",
          "midi": 78,
          "time": 157.50001050000031,
          "velocity": 1,
          "duration": 0.12096775000000548
        },
        {
          "name": "A5",
          "midi": 81,
          "time": 157.50001050000031,
          "velocity": 1,
          "duration": 0.12096775000000548
        },
        {
          "name": "C5",
          "midi": 72,
          "time": 157.74194600000033,
          "velocity": 1,
          "duration": 0.12096775000000548
        },
        {
          "name": "E5",
          "midi": 76,
          "time": 157.74194600000033,
          "velocity": 1,
          "duration": 0.12096775000000548
        },
        {
          "name": "G5",
          "midi": 79,
          "time": 157.74194600000033,
          "velocity": 1,
          "duration": 0.12096775000000548
        },
        {
          "name": "D5",
          "midi": 74,
          "time": 157.9838815000003,
          "velocity": 0.8267716535433071,
          "duration": 0.12096775000000548
        },
        {
          "name": "D4",
          "midi": 62,
          "time": 157.9838815000003,
          "velocity": 0.8031496062992126,
          "duration": 0.4032258333333516
        },
        {
          "name": "F#5",
          "midi": 78,
          "time": 157.9838815000003,
          "velocity": 1,
          "duration": 0.12096775000000548
        },
        {
          "name": "A4",
          "midi": 69,
          "time": 157.9838815000003,
          "velocity": 1,
          "duration": 0.12096775000000548
        },
        {
          "name": "D5",
          "midi": 74,
          "time": 157.9838815000003,
          "velocity": 1,
          "duration": 0.42338712500000497
        },
        {
          "name": "C5",
          "midi": 72,
          "time": 158.22581700000032,
          "velocity": 1,
          "duration": 0.12096775000000548
        },
        {
          "name": "E5",
          "midi": 76,
          "time": 158.22581700000032,
          "velocity": 1,
          "duration": 0.12096775000000548
        },
        {
          "name": "G5",
          "midi": 79,
          "time": 158.22581700000032,
          "velocity": 1,
          "duration": 0.12096775000000548
        },
        {
          "name": "C5",
          "midi": 72,
          "time": 158.4677525000003,
          "velocity": 0.9133858267716536,
          "duration": 0.36290325000001644
        },
        {
          "name": "C4",
          "midi": 60,
          "time": 158.4677525000003,
          "velocity": 0.7637795275590551,
          "duration": 0.38810486458334026
        },
        {
          "name": "D5",
          "midi": 74,
          "time": 158.4677525000003,
          "velocity": 1,
          "duration": 0.12096775000000548
        },
        {
          "name": "F#5",
          "midi": 78,
          "time": 158.4677525000003,
          "velocity": 1,
          "duration": 0.12096775000000548
        },
        {
          "name": "A5",
          "midi": 81,
          "time": 158.4677525000003,
          "velocity": 1,
          "duration": 0.12096775000000548
        },
        {
          "name": "C5",
          "midi": 72,
          "time": 158.7096880000003,
          "velocity": 1,
          "duration": 0.14112904166665885
        },
        {
          "name": "E5",
          "midi": 76,
          "time": 158.7096880000003,
          "velocity": 1,
          "duration": 0.12096775000000548
        },
        {
          "name": "G5",
          "midi": 79,
          "time": 158.7096880000003,
          "velocity": 1,
          "duration": 0.12096775000000548
        },
        {
          "name": "D5",
          "midi": 74,
          "time": 158.9516235000003,
          "velocity": 0.8740157480314961,
          "duration": 0.12096775000000548
        },
        {
          "name": "D4",
          "midi": 62,
          "time": 158.9516235000003,
          "velocity": 0.84251968503937,
          "duration": 0.34274195833333465
        },
        {
          "name": "F#5",
          "midi": 78,
          "time": 158.9516235000003,
          "velocity": 1,
          "duration": 0.12096775000000548
        },
        {
          "name": "A5",
          "midi": 81,
          "time": 158.9516235000003,
          "velocity": 1,
          "duration": 0.12096775000000548
        },
        {
          "name": "D5",
          "midi": 74,
          "time": 158.9516235000003,
          "velocity": 1,
          "duration": 0.362903249999988
        },
        {
          "name": "E5",
          "midi": 76,
          "time": 159.1935590000003,
          "velocity": 1,
          "duration": 0.12096774999997706
        },
        {
          "name": "C5",
          "midi": 72,
          "time": 159.1935590000003,
          "velocity": 1,
          "duration": 0.12096774999997706
        },
        {
          "name": "G5",
          "midi": 79,
          "time": 159.1935590000003,
          "velocity": 1,
          "duration": 0.12096774999997706
        },
        {
          "name": "C4",
          "midi": 60,
          "time": 159.4354945000003,
          "velocity": 0.7007874015748031,
          "duration": 0.36290325000001644
        },
        {
          "name": "C5",
          "midi": 72,
          "time": 159.4354945000003,
          "velocity": 0.9133858267716536,
          "duration": 0.3477822812500051
        },
        {
          "name": "D5",
          "midi": 74,
          "time": 159.4354945000003,
          "velocity": 1,
          "duration": 0.12096775000000548
        },
        {
          "name": "A4",
          "midi": 69,
          "time": 159.4354945000003,
          "velocity": 1,
          "duration": 0.12096775000000548
        },
        {
          "name": "F#5",
          "midi": 78,
          "time": 159.4354945000003,
          "velocity": 1,
          "duration": 0.12096775000000548
        },
        {
          "name": "E5",
          "midi": 76,
          "time": 159.6774300000003,
          "velocity": 1,
          "duration": 0.12096775000000548
        },
        {
          "name": "C5",
          "midi": 72,
          "time": 159.6774300000003,
          "velocity": 1,
          "duration": 0.12096775000000548
        },
        {
          "name": "G5",
          "midi": 79,
          "time": 159.6774300000003,
          "velocity": 1,
          "duration": 0.12096775000000548
        },
        {
          "name": "D4",
          "midi": 62,
          "time": 159.9193655000003,
          "velocity": 0.8267716535433071,
          "duration": 0.8266129583333566
        },
        {
          "name": "D5",
          "midi": 74,
          "time": 159.9193655000003,
          "velocity": 0.8740157480314961,
          "duration": 0.12096775000000548
        },
        {
          "name": "D5",
          "midi": 74,
          "time": 159.9193655000003,
          "velocity": 1,
          "duration": 0.6048387500000274
        },
        {
          "name": "F#5",
          "midi": 78,
          "time": 159.9193655000003,
          "velocity": 1,
          "duration": 0.12096775000000548
        },
        {
          "name": "A5",
          "midi": 81,
          "time": 159.9193655000003,
          "velocity": 1,
          "duration": 0.12096775000000548
        },
        {
          "name": "E5",
          "midi": 76,
          "time": 160.16130100000032,
          "velocity": 1,
          "duration": 0.12096775000000548
        },
        {
          "name": "C5",
          "midi": 72,
          "time": 160.16130100000032,
          "velocity": 1,
          "duration": 0.12096775000000548
        },
        {
          "name": "G5",
          "midi": 79,
          "time": 160.16130100000032,
          "velocity": 1,
          "duration": 0.12096775000000548
        },
        {
          "name": "F#5",
          "midi": 78,
          "time": 160.40323650000033,
          "velocity": 1,
          "duration": 0.12096775000000548
        },
        {
          "name": "D5",
          "midi": 74,
          "time": 160.40323650000033,
          "velocity": 1,
          "duration": 0.34274195833333465
        },
        {
          "name": "A4",
          "midi": 69,
          "time": 160.40323650000033,
          "velocity": 1,
          "duration": 0.12096775000000548
        },
        {
          "name": "E5",
          "midi": 76,
          "time": 160.64517200000034,
          "velocity": 1,
          "duration": 0.12096774999997706
        },
        {
          "name": "C5",
          "midi": 72,
          "time": 160.64517200000034,
          "velocity": 1,
          "duration": 0.12096774999997706
        },
        {
          "name": "G5",
          "midi": 79,
          "time": 160.64517200000034,
          "velocity": 1,
          "duration": 0.12096774999997706
        },
        {
          "name": "D5",
          "midi": 74,
          "time": 160.88710750000033,
          "velocity": 0.8818897637795275,
          "duration": 0.12096775000000548
        },
        {
          "name": "D4",
          "midi": 62,
          "time": 160.88710750000033,
          "velocity": 0.7874015748031497,
          "duration": 0.7812500520833794
        },
        {
          "name": "F#5",
          "midi": 78,
          "time": 160.88710750000033,
          "velocity": 1,
          "duration": 0.12096775000000548
        },
        {
          "name": "A5",
          "midi": 81,
          "time": 160.88710750000033,
          "velocity": 1,
          "duration": 0.12096775000000548
        },
        {
          "name": "D5",
          "midi": 74,
          "time": 160.88710750000033,
          "velocity": 1,
          "duration": 0.6048387500000274
        },
        {
          "name": "C5",
          "midi": 72,
          "time": 161.12904300000034,
          "velocity": 1,
          "duration": 0.12096775000000548
        },
        {
          "name": "E5",
          "midi": 76,
          "time": 161.12904300000034,
          "velocity": 1,
          "duration": 0.12096775000000548
        },
        {
          "name": "G5",
          "midi": 79,
          "time": 161.12904300000034,
          "velocity": 1,
          "duration": 0.12096775000000548
        },
        {
          "name": "D5",
          "midi": 74,
          "time": 161.37097850000035,
          "velocity": 1,
          "duration": 0.3125000208333688
        },
        {
          "name": "A4",
          "midi": 69,
          "time": 161.37097850000035,
          "velocity": 1,
          "duration": 0.12096775000000548
        },
        {
          "name": "F#5",
          "midi": 78,
          "time": 161.37097850000035,
          "velocity": 1,
          "duration": 0.12096775000000548
        },
        {
          "name": "E5",
          "midi": 76,
          "time": 161.61291400000036,
          "velocity": 1,
          "duration": 0.1209677500000339
        },
        {
          "name": "C5",
          "midi": 72,
          "time": 161.61291400000036,
          "velocity": 1,
          "duration": 0.1209677500000339
        },
        {
          "name": "G5",
          "midi": 79,
          "time": 161.61291400000036,
          "velocity": 1,
          "duration": 0.1209677500000339
        },
        {
          "name": "D5",
          "midi": 74,
          "time": 161.8548495000004,
          "velocity": 0.8582677165354331,
          "duration": 0.12096775000000548
        },
        {
          "name": "D4",
          "midi": 62,
          "time": 161.8548495000004,
          "velocity": 0.8031496062992126,
          "duration": 0.9274194166667087
        },
        {
          "name": "F#5",
          "midi": 78,
          "time": 161.8548495000004,
          "velocity": 1,
          "duration": 0.12096775000000548
        },
        {
          "name": "A5",
          "midi": 81,
          "time": 161.8548495000004,
          "velocity": 1,
          "duration": 0.12096775000000548
        },
        {
          "name": "D5",
          "midi": 74,
          "time": 161.8548495000004,
          "velocity": 1,
          "duration": 0.6048387500000274
        },
        {
          "name": "G5",
          "midi": 79,
          "time": 162.0967850000004,
          "velocity": 1,
          "duration": 0.12096775000000548
        },
        {
          "name": "E5",
          "midi": 76,
          "time": 162.0967850000004,
          "velocity": 1,
          "duration": 0.12096775000000548
        },
        {
          "name": "C5",
          "midi": 72,
          "time": 162.0967850000004,
          "velocity": 1,
          "duration": 0.12096775000000548
        },
        {
          "name": "D5",
          "midi": 74,
          "time": 162.33872050000042,
          "velocity": 1,
          "duration": 0.2822580833333461
        },
        {
          "name": "A4",
          "midi": 69,
          "time": 162.33872050000042,
          "velocity": 1,
          "duration": 0.12096775000000548
        },
        {
          "name": "F#5",
          "midi": 78,
          "time": 162.33872050000042,
          "velocity": 1,
          "duration": 0.12096775000000548
        },
        {
          "name": "C5",
          "midi": 72,
          "time": 162.58065600000043,
          "velocity": 1,
          "duration": 0.12096775000000548
        },
        {
          "name": "E5",
          "midi": 76,
          "time": 162.58065600000043,
          "velocity": 1,
          "duration": 0.12096775000000548
        },
        {
          "name": "G5",
          "midi": 79,
          "time": 162.58065600000043,
          "velocity": 1,
          "duration": 0.12096775000000548
        },
        {
          "name": "F#5",
          "midi": 78,
          "time": 162.82259150000044,
          "velocity": 0.6771653543307087,
          "duration": 1.451613000000009
        },
        {
          "name": "A4",
          "midi": 69,
          "time": 162.82259150000044,
          "velocity": 0.9133858267716536,
          "duration": 1.451613000000009
        },
        {
          "name": "D4",
          "midi": 62,
          "time": 162.82259150000044,
          "velocity": 0.8740157480314961,
          "duration": 1.451613000000009
        },
        {
          "name": "F#5",
          "midi": 78,
          "time": 162.82259150000044,
          "velocity": 1,
          "duration": 1.451613000000009
        },
        {
          "name": "D5",
          "midi": 74,
          "time": 162.82259150000044,
          "velocity": 1,
          "duration": 1.451613000000009
        },
        {
          "name": "A5",
          "midi": 81,
          "time": 162.82259150000044,
          "velocity": 1,
          "duration": 1.451613000000009
        }
      ],
      "controlChanges": {
        "64": [
          {
            "number": 64,
            "time": 54.67238267708332,
            "value": 1
          },
          {
            "number": 64,
            "time": 57.98387483333332,
            "value": 0
          },
          {
            "number": 64,
            "time": 71.03327086458333,
            "value": 1
          },
          {
            "number": 64,
            "time": 72.67641613541666,
            "value": 0
          },
          {
            "number": 64,
            "time": 72.69657742708333,
            "value": 1
          },
          {
            "number": 64,
            "time": 72.70161775,
            "value": 0
          }
        ]
      },
      "id": 10,
      "name": "Trumpet",
      "instrumentNumber": 56,
      "instrument": "trumpet",
      "instrumentFamily": "brass",
      "channelNumber": 8,
      "isPercussion": false
    },
    {
      "startTime": 0.010080645833333332,
      "duration": 165.06049487500047,
      "length": 523,
      "notes": [
        {
          "name": "D3",
          "midi": 50,
          "time": 0.010080645833333332,
          "velocity": 1,
          "duration": 0.6451613333333333
        },
        {
          "name": "D2",
          "midi": 38,
          "time": 0.010080645833333332,
          "velocity": 1,
          "duration": 0.6451613333333333
        },
        {
          "name": "D1",
          "midi": 26,
          "time": 0.010080645833333332,
          "velocity": 1,
          "duration": 0.6451613333333333
        },
        {
          "name": "D3",
          "midi": 50,
          "time": 0.010080645833333332,
          "velocity": 1,
          "duration": 0.6451613333333333
        },
        {
          "name": "D2",
          "midi": 38,
          "time": 0.010080645833333332,
          "velocity": 1,
          "duration": 0.6451613333333333
        },
        {
          "name": "D1",
          "midi": 26,
          "time": 0.010080645833333332,
          "velocity": 1,
          "duration": 0.6451613333333333
        },
        {
          "name": "D2",
          "midi": 38,
          "time": 0.9778226458333332,
          "velocity": 1,
          "duration": 0.6451613333333333
        },
        {
          "name": "D1",
          "midi": 26,
          "time": 0.9778226458333332,
          "velocity": 1,
          "duration": 0.6451613333333333
        },
        {
          "name": "D2",
          "midi": 38,
          "time": 0.9778226458333332,
          "velocity": 1,
          "duration": 0.6451613333333333
        },
        {
          "name": "D1",
          "midi": 26,
          "time": 0.9778226458333332,
          "velocity": 1,
          "duration": 0.6451613333333333
        },
        {
          "name": "C2",
          "midi": 36,
          "time": 1.945564645833333,
          "velocity": 1,
          "duration": 0.6451613333333333
        },
        {
          "name": "C2",
          "midi": 36,
          "time": 1.945564645833333,
          "velocity": 1,
          "duration": 0.6451613333333333
        },
        {
          "name": "C2",
          "midi": 36,
          "time": 2.913306645833333,
          "velocity": 1,
          "duration": 0.6451613333333333
        },
        {
          "name": "C2",
          "midi": 36,
          "time": 2.913306645833333,
          "velocity": 1,
          "duration": 0.6451613333333333
        },
        {
          "name": "A#2",
          "midi": 46,
          "time": 3.881048645833333,
          "velocity": 1,
          "duration": 0.6451613333333328
        },
        {
          "name": "A#1",
          "midi": 34,
          "time": 3.881048645833333,
          "velocity": 1,
          "duration": 0.6451613333333328
        },
        {
          "name": "A#2",
          "midi": 46,
          "time": 3.881048645833333,
          "velocity": 1,
          "duration": 0.6451613333333328
        },
        {
          "name": "A#1",
          "midi": 34,
          "time": 3.881048645833333,
          "velocity": 1,
          "duration": 0.6451613333333328
        },
        {
          "name": "A#2",
          "midi": 46,
          "time": 4.848790645833333,
          "velocity": 1,
          "duration": 0.6451613333333333
        },
        {
          "name": "A#1",
          "midi": 34,
          "time": 4.848790645833333,
          "velocity": 1,
          "duration": 0.6451613333333333
        },
        {
          "name": "A#2",
          "midi": 46,
          "time": 4.848790645833333,
          "velocity": 1,
          "duration": 0.6451613333333333
        },
        {
          "name": "A#1",
          "midi": 34,
          "time": 4.848790645833333,
          "velocity": 1,
          "duration": 0.6451613333333333
        },
        {
          "name": "D3",
          "midi": 50,
          "time": 5.816532645833332,
          "velocity": 1,
          "duration": 0.6451613333333333
        },
        {
          "name": "D2",
          "midi": 38,
          "time": 5.816532645833332,
          "velocity": 1,
          "duration": 0.6451613333333333
        },
        {
          "name": "D1",
          "midi": 26,
          "time": 5.816532645833332,
          "velocity": 1,
          "duration": 0.6451613333333333
        },
        {
          "name": "D3",
          "midi": 50,
          "time": 5.816532645833332,
          "velocity": 1,
          "duration": 0.6451613333333333
        },
        {
          "name": "D2",
          "midi": 38,
          "time": 5.816532645833332,
          "velocity": 1,
          "duration": 0.6451613333333333
        },
        {
          "name": "D1",
          "midi": 26,
          "time": 5.816532645833332,
          "velocity": 1,
          "duration": 0.6451613333333333
        },
        {
          "name": "D2",
          "midi": 38,
          "time": 6.784274645833332,
          "velocity": 1,
          "duration": 0.6451613333333333
        },
        {
          "name": "D1",
          "midi": 26,
          "time": 6.784274645833332,
          "velocity": 1,
          "duration": 0.6451613333333333
        },
        {
          "name": "D2",
          "midi": 38,
          "time": 6.784274645833332,
          "velocity": 1,
          "duration": 0.6451613333333333
        },
        {
          "name": "D1",
          "midi": 26,
          "time": 6.784274645833332,
          "velocity": 1,
          "duration": 0.6451613333333333
        },
        {
          "name": "C2",
          "midi": 36,
          "time": 7.752016645833331,
          "velocity": 1,
          "duration": 0.6451613333333324
        },
        {
          "name": "C1",
          "midi": 24,
          "time": 7.752016645833331,
          "velocity": 1,
          "duration": 0.6451613333333324
        },
        {
          "name": "C2",
          "midi": 36,
          "time": 7.752016645833331,
          "velocity": 1,
          "duration": 0.6451613333333324
        },
        {
          "name": "C1",
          "midi": 24,
          "time": 7.752016645833331,
          "velocity": 1,
          "duration": 0.6451613333333324
        },
        {
          "name": "C2",
          "midi": 36,
          "time": 8.71975864583333,
          "velocity": 1,
          "duration": 0.6451613333333341
        },
        {
          "name": "C1",
          "midi": 24,
          "time": 8.71975864583333,
          "velocity": 1,
          "duration": 0.6451613333333341
        },
        {
          "name": "C3",
          "midi": 48,
          "time": 8.71975864583333,
          "velocity": 1,
          "duration": 0.6451613333333341
        },
        {
          "name": "C2",
          "midi": 36,
          "time": 8.71975864583333,
          "velocity": 1,
          "duration": 0.6451613333333341
        },
        {
          "name": "C1",
          "midi": 24,
          "time": 8.71975864583333,
          "velocity": 1,
          "duration": 0.6451613333333341
        },
        {
          "name": "A#2",
          "midi": 46,
          "time": 9.687500645833332,
          "velocity": 1,
          "duration": 0.6451613333333341
        },
        {
          "name": "A#1",
          "midi": 34,
          "time": 9.687500645833332,
          "velocity": 1,
          "duration": 0.6451613333333341
        },
        {
          "name": "A#0",
          "midi": 22,
          "time": 9.687500645833332,
          "velocity": 1,
          "duration": 0.6451613333333341
        },
        {
          "name": "A#2",
          "midi": 46,
          "time": 9.687500645833332,
          "velocity": 1,
          "duration": 0.6451613333333341
        },
        {
          "name": "A#1",
          "midi": 34,
          "time": 9.687500645833332,
          "velocity": 1,
          "duration": 0.6451613333333341
        },
        {
          "name": "A#0",
          "midi": 22,
          "time": 9.687500645833332,
          "velocity": 1,
          "duration": 0.6451613333333341
        },
        {
          "name": "A#2",
          "midi": 46,
          "time": 10.655242645833333,
          "velocity": 1,
          "duration": 0.6451613333333341
        },
        {
          "name": "A#1",
          "midi": 34,
          "time": 10.655242645833333,
          "velocity": 1,
          "duration": 0.6451613333333341
        },
        {
          "name": "A#0",
          "midi": 22,
          "time": 10.655242645833333,
          "velocity": 1,
          "duration": 0.6451613333333341
        },
        {
          "name": "A#2",
          "midi": 46,
          "time": 10.655242645833333,
          "velocity": 1,
          "duration": 0.6451613333333341
        },
        {
          "name": "A#1",
          "midi": 34,
          "time": 10.655242645833333,
          "velocity": 1,
          "duration": 0.6451613333333341
        },
        {
          "name": "A#0",
          "midi": 22,
          "time": 10.655242645833333,
          "velocity": 1,
          "duration": 0.6451613333333341
        },
        {
          "name": "A2",
          "midi": 45,
          "time": 11.622984645833334,
          "velocity": 1,
          "duration": 0.6451613333333341
        },
        {
          "name": "A1",
          "midi": 33,
          "time": 11.622984645833334,
          "velocity": 1,
          "duration": 0.6451613333333341
        },
        {
          "name": "A0",
          "midi": 21,
          "time": 11.622984645833334,
          "velocity": 1,
          "duration": 0.6451613333333341
        },
        {
          "name": "A2",
          "midi": 45,
          "time": 11.622984645833334,
          "velocity": 1,
          "duration": 0.6451613333333341
        },
        {
          "name": "A1",
          "midi": 33,
          "time": 11.622984645833334,
          "velocity": 1,
          "duration": 0.6451613333333341
        },
        {
          "name": "A0",
          "midi": 21,
          "time": 11.622984645833334,
          "velocity": 1,
          "duration": 0.6451613333333341
        },
        {
          "name": "A0",
          "midi": 21,
          "time": 13.538307354166669,
          "velocity": 1,
          "duration": 1.2903226666666665
        },
        {
          "name": "A1",
          "midi": 33,
          "time": 13.538307354166669,
          "velocity": 1,
          "duration": 0.040322583333333384
        },
        {
          "name": "A1",
          "midi": 33,
          "time": 13.548388000000003,
          "velocity": 0.7952755905511811,
          "duration": 0.11088710416666636
        },
        {
          "name": "A1",
          "midi": 33,
          "time": 13.62903316666667,
          "velocity": 0.7952755905511811,
          "duration": 0.10080645833333257
        },
        {
          "name": "A1",
          "midi": 33,
          "time": 13.699597687500003,
          "velocity": 0.7952755905511811,
          "duration": 0.10080645833333257
        },
        {
          "name": "A1",
          "midi": 33,
          "time": 13.770162208333335,
          "velocity": 0.7952755905511811,
          "duration": 0.10080645833333257
        },
        {
          "name": "A1",
          "midi": 33,
          "time": 13.840726729166668,
          "velocity": 0.7952755905511811,
          "duration": 0.11088710416666636
        },
        {
          "name": "A1",
          "midi": 33,
          "time": 13.911291250000001,
          "velocity": 0.7952755905511811,
          "duration": 0.11088710416666636
        },
        {
          "name": "A1",
          "midi": 33,
          "time": 13.991936416666668,
          "velocity": 0.7952755905511811,
          "duration": 0.11088710416666636
        },
        {
          "name": "A1",
          "midi": 33,
          "time": 14.072581583333335,
          "velocity": 0.7952755905511811,
          "duration": 0.11088710416666636
        },
        {
          "name": "A1",
          "midi": 33,
          "time": 14.153226750000002,
          "velocity": 0.7952755905511811,
          "duration": 0.10080645833333257
        },
        {
          "name": "A1",
          "midi": 33,
          "time": 14.223791270833335,
          "velocity": 0.7952755905511811,
          "duration": 0.12096775000000015
        },
        {
          "name": "A1",
          "midi": 33,
          "time": 14.304436437500001,
          "velocity": 0.7952755905511811,
          "duration": 0.17137097916666733
        },
        {
          "name": "A1",
          "midi": 33,
          "time": 14.385081604166668,
          "velocity": 0.7952755905511811,
          "duration": 0.13104839583333394
        },
        {
          "name": "A1",
          "midi": 33,
          "time": 14.475807416666669,
          "velocity": 0.7952755905511811,
          "duration": 0.12096775000000015
        },
        {
          "name": "A1",
          "midi": 33,
          "time": 14.556452583333336,
          "velocity": 0.7952755905511811,
          "duration": 0.12096775000000015
        },
        {
          "name": "A1",
          "midi": 33,
          "time": 14.647178395833336,
          "velocity": 0.7952755905511811,
          "duration": 0.12096774999999838
        },
        {
          "name": "A1",
          "midi": 33,
          "time": 14.737904208333335,
          "velocity": 0.7952755905511811,
          "duration": 0.09072581250000056
        },
        {
          "name": "A1",
          "midi": 33,
          "time": 14.818549375000002,
          "velocity": 0.7952755905511811,
          "duration": 0.040322583333333384
        },
        {
          "name": "A1",
          "midi": 33,
          "time": 14.909275187500002,
          "velocity": 0.7952755905511811,
          "duration": 0.030241937499999594
        },
        {
          "name": "A1",
          "midi": 33,
          "time": 14.989920354166669,
          "velocity": 0.7952755905511811,
          "duration": 0.050403229166667174
        },
        {
          "name": "A1",
          "midi": 33,
          "time": 15.08064616666667,
          "velocity": 0.7952755905511811,
          "duration": 0.040322583333333384
        },
        {
          "name": "A1",
          "midi": 33,
          "time": 15.17137197916667,
          "velocity": 0.7952755905511811,
          "duration": 0.050403229166667174
        },
        {
          "name": "A1",
          "midi": 33,
          "time": 15.26209779166667,
          "velocity": 0.7952755905511811,
          "duration": 0.050403229166667174
        },
        {
          "name": "A1",
          "midi": 33,
          "time": 15.352823604166671,
          "velocity": 0.7952755905511811,
          "duration": 0.10080645833333257
        },
        {
          "name": "A1",
          "midi": 33,
          "time": 15.463710708333338,
          "velocity": 0.7952755905511811,
          "duration": 0.030241937499999594
        },
        {
          "name": "A1",
          "midi": 33,
          "time": 15.544355875000004,
          "velocity": 0.7952755905511811,
          "duration": 0.050403229166667174
        },
        {
          "name": "A1",
          "midi": 33,
          "time": 15.645162333333339,
          "velocity": 0.7952755905511811,
          "duration": 0.040322583333333384
        },
        {
          "name": "A1",
          "midi": 33,
          "time": 15.745968791666671,
          "velocity": 0.7952755905511811,
          "duration": 0.040322583333333384
        },
        {
          "name": "A1",
          "midi": 33,
          "time": 15.846775250000004,
          "velocity": 0.7952755905511811,
          "duration": 0.040322583333333384
        },
        {
          "name": "A1",
          "midi": 33,
          "time": 15.947581708333336,
          "velocity": 0.7952755905511811,
          "duration": 0.050403229166667174
        },
        {
          "name": "A1",
          "midi": 33,
          "time": 16.04838816666667,
          "velocity": 0.7952755905511811,
          "duration": 0.04032258333333161
        },
        {
          "name": "A1",
          "midi": 33,
          "time": 16.159275270833334,
          "velocity": 0.7952755905511811,
          "duration": 0.04032258333333161
        },
        {
          "name": "A1",
          "midi": 33,
          "time": 16.270162374999998,
          "velocity": 0.7952755905511811,
          "duration": 0.04032258333333161
        },
        {
          "name": "A1",
          "midi": 33,
          "time": 16.431452708333328,
          "velocity": 0.7952755905511811,
          "duration": 0.04032258333333161
        },
        {
          "name": "A1",
          "midi": 33,
          "time": 16.542339812499993,
          "velocity": 0.7952755905511811,
          "duration": 0.04032258333333161
        },
        {
          "name": "A1",
          "midi": 33,
          "time": 16.653226916666657,
          "velocity": 0.7952755905511811,
          "duration": 0.0504032291666654
        },
        {
          "name": "A1",
          "midi": 33,
          "time": 16.764114020833322,
          "velocity": 0.7952755905511811,
          "duration": 0.04032258333333161
        },
        {
          "name": "A1",
          "midi": 33,
          "time": 16.875001124999987,
          "velocity": 0.7952755905511811,
          "duration": 0.06048387499999919
        },
        {
          "name": "A1",
          "midi": 33,
          "time": 16.98588822916665,
          "velocity": 0.7952755905511811,
          "duration": 0.06048387499999919
        },
        {
          "name": "A1",
          "midi": 33,
          "time": 17.096775333333316,
          "velocity": 0.7952755905511811,
          "duration": 0.06048387499999919
        },
        {
          "name": "A1",
          "midi": 33,
          "time": 17.217743083333314,
          "velocity": 0.7952755905511811,
          "duration": 0.06048387499999919
        },
        {
          "name": "A1",
          "midi": 33,
          "time": 17.41935599999998,
          "velocity": 0.7952755905511811,
          "duration": 0.04032258333333161
        },
        {
          "name": "A1",
          "midi": 33,
          "time": 17.530243104166644,
          "velocity": 0.7952755905511811,
          "duration": 0.0504032291666654
        },
        {
          "name": "A1",
          "midi": 33,
          "time": 17.64113020833331,
          "velocity": 0.7952755905511811,
          "duration": 0.0504032291666654
        },
        {
          "name": "A1",
          "midi": 33,
          "time": 17.752017312499973,
          "velocity": 0.7952755905511811,
          "duration": 0.04032258333333161
        },
        {
          "name": "A1",
          "midi": 33,
          "time": 17.862904416666638,
          "velocity": 0.7952755905511811,
          "duration": 0.04032258333333161
        },
        {
          "name": "A1",
          "midi": 33,
          "time": 17.96371087499997,
          "velocity": 0.7952755905511811,
          "duration": 0.04032258333333161
        },
        {
          "name": "A1",
          "midi": 33,
          "time": 18.0645173333333,
          "velocity": 0.7952755905511811,
          "duration": 0.0504032291666654
        },
        {
          "name": "A1",
          "midi": 33,
          "time": 18.16532379166663,
          "velocity": 0.7952755905511811,
          "duration": 0.04032258333333161
        },
        {
          "name": "A1",
          "midi": 33,
          "time": 18.346775416666627,
          "velocity": 0.7952755905511811,
          "duration": 0.04032258333333161
        },
        {
          "name": "A1",
          "midi": 33,
          "time": 18.437501229166624,
          "velocity": 0.7952755905511811,
          "duration": 0.03024193750000137
        },
        {
          "name": "A1",
          "midi": 33,
          "time": 18.528227041666625,
          "velocity": 0.7952755905511811,
          "duration": 0.03024193750000137
        },
        {
          "name": "A1",
          "midi": 33,
          "time": 18.608872208333292,
          "velocity": 0.7952755905511811,
          "duration": 0.04032258333333161
        },
        {
          "name": "A1",
          "midi": 33,
          "time": 18.689517374999955,
          "velocity": 0.7952755905511811,
          "duration": 0.04032258333333161
        },
        {
          "name": "A1",
          "midi": 33,
          "time": 18.77016254166662,
          "velocity": 0.7952755905511811,
          "duration": 0.04032258333333161
        },
        {
          "name": "A1",
          "midi": 33,
          "time": 18.85080770833328,
          "velocity": 0.7952755905511811,
          "duration": 0.04032258333333161
        },
        {
          "name": "A1",
          "midi": 33,
          "time": 18.931452874999945,
          "velocity": 0.7952755905511811,
          "duration": 0.03024193750000137
        },
        {
          "name": "A1",
          "midi": 33,
          "time": 19.01209804166661,
          "velocity": 0.7952755905511811,
          "duration": 0.03024193750000137
        },
        {
          "name": "A1",
          "midi": 33,
          "time": 19.082662562499944,
          "velocity": 0.7952755905511811,
          "duration": 0.03024193750000137
        },
        {
          "name": "A1",
          "midi": 33,
          "time": 19.153227083333277,
          "velocity": 0.7952755905511811,
          "duration": 0.03024193750000137
        },
        {
          "name": "A1",
          "midi": 33,
          "time": 19.22379160416661,
          "velocity": 0.7952755905511811,
          "duration": 0.0504032291666654
        },
        {
          "name": "A1",
          "midi": 33,
          "time": 19.274194833333276,
          "velocity": 0.7952755905511811,
          "duration": 0.03024193750000137
        },
        {
          "name": "A1",
          "midi": 33,
          "time": 19.33467870833328,
          "velocity": 0.7952755905511811,
          "duration": 0.02016129166666758
        },
        {
          "name": "A1",
          "midi": 33,
          "time": 19.385081937499947,
          "velocity": 0.7952755905511811,
          "duration": 0.02016129166666758
        },
        {
          "name": "A1",
          "midi": 33,
          "time": 19.435485166666616,
          "velocity": 0.7952755905511811,
          "duration": 0.02016129166666758
        },
        {
          "name": "A1",
          "midi": 33,
          "time": 19.485888395833285,
          "velocity": 0.7952755905511811,
          "duration": 0.02016129166666758
        },
        {
          "name": "A1",
          "midi": 33,
          "time": 19.536291624999954,
          "velocity": 0.7952755905511811,
          "duration": 0.03024193750000137
        },
        {
          "name": "A1",
          "midi": 33,
          "time": 19.586694854166623,
          "velocity": 0.7952755905511811,
          "duration": 0.03024193750000137
        },
        {
          "name": "A1",
          "midi": 33,
          "time": 19.637098083333292,
          "velocity": 0.7952755905511811,
          "duration": 0.03024193750000137
        },
        {
          "name": "A1",
          "midi": 33,
          "time": 19.697581958333295,
          "velocity": 0.7952755905511811,
          "duration": 0.02016129166666758
        },
        {
          "name": "A1",
          "midi": 33,
          "time": 19.747985187499964,
          "velocity": 0.7952755905511811,
          "duration": 0.02016129166666758
        },
        {
          "name": "A1",
          "midi": 33,
          "time": 19.798388416666633,
          "velocity": 0.7952755905511811,
          "duration": 0.02016129166666758
        },
        {
          "name": "A1",
          "midi": 33,
          "time": 19.848791645833302,
          "velocity": 0.7952755905511811,
          "duration": 0.02016129166666758
        },
        {
          "name": "A1",
          "midi": 33,
          "time": 19.89919487499997,
          "velocity": 0.7952755905511811,
          "duration": 0.02016129166666758
        },
        {
          "name": "A1",
          "midi": 33,
          "time": 19.94959810416664,
          "velocity": 0.7952755905511811,
          "duration": 0.02016129166666758
        },
        {
          "name": "A1",
          "midi": 33,
          "time": 20.00000133333331,
          "velocity": 0.7952755905511811,
          "duration": 0.02016129166666758
        },
        {
          "name": "A1",
          "midi": 33,
          "time": 20.050404562499978,
          "velocity": 0.7952755905511811,
          "duration": 0.02016129166666758
        },
        {
          "name": "A1",
          "midi": 33,
          "time": 20.100807791666647,
          "velocity": 0.7952755905511811,
          "duration": 0.02016129166666758
        },
        {
          "name": "A1",
          "midi": 33,
          "time": 20.151211020833316,
          "velocity": 0.7952755905511811,
          "duration": 0.03024193750000137
        },
        {
          "name": "A1",
          "midi": 33,
          "time": 20.201614249999984,
          "velocity": 0.7952755905511811,
          "duration": 0.02016129166666758
        },
        {
          "name": "A1",
          "midi": 33,
          "time": 20.252017479166653,
          "velocity": 0.7952755905511811,
          "duration": 0.03024193750000137
        },
        {
          "name": "A1",
          "midi": 33,
          "time": 20.312501354166656,
          "velocity": 0.7952755905511811,
          "duration": 0.01008064583333379
        },
        {
          "name": "A1",
          "midi": 33,
          "time": 20.36290458333332,
          "velocity": 0.7952755905511811,
          "duration": 0.02016129166666758
        },
        {
          "name": "A1",
          "midi": 33,
          "time": 20.403227166666657,
          "velocity": 0.7952755905511811,
          "duration": 0.03024193750000137
        },
        {
          "name": "A1",
          "midi": 33,
          "time": 20.46371104166666,
          "velocity": 0.7952755905511811,
          "duration": 0.02016129166666758
        },
        {
          "name": "A1",
          "midi": 33,
          "time": 20.51411427083333,
          "velocity": 0.7952755905511811,
          "duration": 0.02016129166666758
        },
        {
          "name": "A1",
          "midi": 33,
          "time": 20.564517499999997,
          "velocity": 0.7952755905511811,
          "duration": 0.02016129166666758
        },
        {
          "name": "A1",
          "midi": 33,
          "time": 20.614920729166666,
          "velocity": 0.7952755905511811,
          "duration": 0.03024193750000137
        },
        {
          "name": "A1",
          "midi": 33,
          "time": 20.665323958333335,
          "velocity": 0.7952755905511811,
          "duration": 0.02016129166666758
        },
        {
          "name": "A1",
          "midi": 33,
          "time": 20.715727187500004,
          "velocity": 0.7952755905511811,
          "duration": 0.03024193750000137
        },
        {
          "name": "A1",
          "midi": 33,
          "time": 20.766130416666673,
          "velocity": 0.7952755905511811,
          "duration": 0.03024193750000137
        },
        {
          "name": "A1",
          "midi": 33,
          "time": 20.826614291666676,
          "velocity": 0.7952755905511811,
          "duration": 0.02016129166666758
        },
        {
          "name": "A1",
          "midi": 33,
          "time": 20.86693687500001,
          "velocity": 0.7952755905511811,
          "duration": 0.02016129166666758
        },
        {
          "name": "A1",
          "midi": 33,
          "time": 20.92742075000001,
          "velocity": 0.7952755905511811,
          "duration": 0.02016129166666758
        },
        {
          "name": "A1",
          "midi": 33,
          "time": 20.97782397916668,
          "velocity": 0.7952755905511811,
          "duration": 0.02016129166666758
        },
        {
          "name": "A1",
          "midi": 33,
          "time": 21.028227208333348,
          "velocity": 0.7952755905511811,
          "duration": 0.02016129166666758
        },
        {
          "name": "A1",
          "midi": 33,
          "time": 21.078630437500017,
          "velocity": 0.7952755905511811,
          "duration": 0.02016129166666758
        },
        {
          "name": "A1",
          "midi": 33,
          "time": 21.129033666666686,
          "velocity": 0.7952755905511811,
          "duration": 0.02016129166666758
        },
        {
          "name": "A1",
          "midi": 33,
          "time": 21.179436895833355,
          "velocity": 0.7952755905511811,
          "duration": 0.02016129166666758
        },
        {
          "name": "A1",
          "midi": 33,
          "time": 21.229840125000024,
          "velocity": 0.7952755905511811,
          "duration": 0.02016129166666758
        },
        {
          "name": "A1",
          "midi": 33,
          "time": 21.280243354166693,
          "velocity": 0.7952755905511811,
          "duration": 0.02016129166666758
        },
        {
          "name": "A1",
          "midi": 33,
          "time": 21.330646583333362,
          "velocity": 0.7952755905511811,
          "duration": 0.02016129166666758
        },
        {
          "name": "A1",
          "midi": 33,
          "time": 21.39113045833336,
          "velocity": 0.7952755905511811,
          "duration": 0.01008064583333379
        },
        {
          "name": "A1",
          "midi": 33,
          "time": 21.441533687500026,
          "velocity": 0.7952755905511811,
          "duration": 0.01008064583333379
        },
        {
          "name": "A1",
          "midi": 33,
          "time": 21.491936916666692,
          "velocity": 0.7952755905511811,
          "duration": 0.02016129166666758
        },
        {
          "name": "A1",
          "midi": 33,
          "time": 21.54234014583336,
          "velocity": 0.7952755905511811,
          "duration": 0.01008064583333379
        },
        {
          "name": "A1",
          "midi": 33,
          "time": 21.592743375000026,
          "velocity": 0.7952755905511811,
          "duration": 0.02016129166666758
        },
        {
          "name": "A1",
          "midi": 33,
          "time": 21.643146604166695,
          "velocity": 0.7952755905511811,
          "duration": 0.02016129166666758
        },
        {
          "name": "A1",
          "midi": 33,
          "time": 21.693549833333364,
          "velocity": 0.7952755905511811,
          "duration": 0.02016129166666758
        },
        {
          "name": "A1",
          "midi": 33,
          "time": 21.743953062500033,
          "velocity": 0.7952755905511811,
          "duration": 0.02016129166666758
        },
        {
          "name": "A1",
          "midi": 33,
          "time": 21.794356291666702,
          "velocity": 0.7952755905511811,
          "duration": 0.02016129166666758
        },
        {
          "name": "A1",
          "midi": 33,
          "time": 21.84475952083337,
          "velocity": 0.7952755905511811,
          "duration": 0.02016129166666758
        },
        {
          "name": "A1",
          "midi": 33,
          "time": 21.89516275000004,
          "velocity": 0.7952755905511811,
          "duration": 0.02016129166666758
        },
        {
          "name": "A1",
          "midi": 33,
          "time": 21.95564662500004,
          "velocity": 0.7952755905511811,
          "duration": 0.01008064583333379
        },
        {
          "name": "A1",
          "midi": 33,
          "time": 21.995969208333374,
          "velocity": 0.7952755905511811,
          "duration": 0.03024193750000137
        },
        {
          "name": "A1",
          "midi": 33,
          "time": 22.056453083333377,
          "velocity": 0.7952755905511811,
          "duration": 0.01008064583333379
        },
        {
          "name": "A1",
          "midi": 33,
          "time": 22.096775666666712,
          "velocity": 0.7952755905511811,
          "duration": 0.03024193750000137
        },
        {
          "name": "A1",
          "midi": 33,
          "time": 22.157259541666715,
          "velocity": 0.7952755905511811,
          "duration": 0.02016129166666758
        },
        {
          "name": "A1",
          "midi": 33,
          "time": 22.207662770833384,
          "velocity": 0.7952755905511811,
          "duration": 0.02016129166666758
        },
        {
          "name": "A1",
          "midi": 33,
          "time": 22.258066000000053,
          "velocity": 0.7952755905511811,
          "duration": 0.02016129166666758
        },
        {
          "name": "A1",
          "midi": 33,
          "time": 22.30846922916672,
          "velocity": 0.7952755905511811,
          "duration": 0.02016129166666758
        },
        {
          "name": "A1",
          "midi": 33,
          "time": 22.35887245833339,
          "velocity": 0.7952755905511811,
          "duration": 0.02016129166666758
        },
        {
          "name": "A1",
          "midi": 33,
          "time": 22.40927568750006,
          "velocity": 0.7952755905511811,
          "duration": 0.02016129166666758
        },
        {
          "name": "A1",
          "midi": 33,
          "time": 22.45967891666673,
          "velocity": 0.7952755905511811,
          "duration": 0.02016129166666758
        },
        {
          "name": "A1",
          "midi": 33,
          "time": 22.510082145833398,
          "velocity": 0.7952755905511811,
          "duration": 0.02016129166666758
        },
        {
          "name": "A1",
          "midi": 33,
          "time": 22.560485375000066,
          "velocity": 0.7952755905511811,
          "duration": 0.02016129166666758
        },
        {
          "name": "A1",
          "midi": 33,
          "time": 22.610888604166735,
          "velocity": 0.7952755905511811,
          "duration": 0.03024193750000137
        },
        {
          "name": "A1",
          "midi": 33,
          "time": 22.661291833333404,
          "velocity": 0.7952755905511811,
          "duration": 0.03024193750000137
        },
        {
          "name": "A1",
          "midi": 33,
          "time": 22.721775708333407,
          "velocity": 0.7952755905511811,
          "duration": 0.02016129166666758
        },
        {
          "name": "A1",
          "midi": 33,
          "time": 22.762098291666742,
          "velocity": 0.7952755905511811,
          "duration": 0.03024193750000137
        },
        {
          "name": "A1",
          "midi": 33,
          "time": 22.822582166666745,
          "velocity": 0.7952755905511811,
          "duration": 0.02016129166666758
        },
        {
          "name": "A1",
          "midi": 33,
          "time": 22.872985395833414,
          "velocity": 0.7952755905511811,
          "duration": 0.02016129166666758
        },
        {
          "name": "A1",
          "midi": 33,
          "time": 22.923388625000083,
          "velocity": 0.7952755905511811,
          "duration": 0.02016129166666758
        },
        {
          "name": "A1",
          "midi": 33,
          "time": 22.973791854166752,
          "velocity": 0.7952755905511811,
          "duration": 0.01008064583333379
        },
        {
          "name": "D2",
          "midi": 38,
          "time": 104.76311182291676,
          "velocity": 1,
          "duration": 0.13104839583333217
        },
        {
          "name": "D1",
          "midi": 26,
          "time": 104.76311182291676,
          "velocity": 1,
          "duration": 0.5645161666666496
        },
        {
          "name": "D3",
          "midi": 50,
          "time": 104.76311182291676,
          "velocity": 1,
          "duration": 0.609879072916641
        },
        {
          "name": "D2",
          "midi": 38,
          "time": 104.76311182291676,
          "velocity": 1,
          "duration": 0.5745968124999763
        },
        {
          "name": "A2",
          "midi": 45,
          "time": 105.00000700000008,
          "velocity": 1,
          "duration": 0.2016129166666616
        },
        {
          "name": "G2",
          "midi": 43,
          "time": 105.24194250000008,
          "velocity": 1,
          "duration": 0.15120968749998553
        },
        {
          "name": "A2",
          "midi": 45,
          "time": 105.48387800000006,
          "velocity": 1,
          "duration": 0.2016129166666616
        },
        {
          "name": "A1",
          "midi": 33,
          "time": 105.72581350000006,
          "velocity": 1,
          "duration": 0.16633065624999688
        },
        {
          "name": "A2",
          "midi": 45,
          "time": 105.96774900000005,
          "velocity": 1,
          "duration": 0.1461693645833293
        },
        {
          "name": "D2",
          "midi": 38,
          "time": 106.20968450000005,
          "velocity": 1,
          "duration": 0.17137097916666733
        },
        {
          "name": "A2",
          "midi": 45,
          "time": 106.45162000000005,
          "velocity": 1,
          "duration": 0.181451624999994
        },
        {
          "name": "G2",
          "midi": 43,
          "time": 106.69355550000004,
          "velocity": 1,
          "duration": 0.12096775000000548
        },
        {
          "name": "A2",
          "midi": 45,
          "time": 106.93549100000006,
          "velocity": 1,
          "duration": 0.17137097916666733
        },
        {
          "name": "A1",
          "midi": 33,
          "time": 107.17742650000005,
          "velocity": 1,
          "duration": 0.17137097916666733
        },
        {
          "name": "A2",
          "midi": 45,
          "time": 107.41936200000005,
          "velocity": 1,
          "duration": 0.17137097916666733
        },
        {
          "name": "D2",
          "midi": 38,
          "time": 107.66129750000005,
          "velocity": 1,
          "duration": 0.2016129166666616
        },
        {
          "name": "D1",
          "midi": 26,
          "time": 107.66129750000005,
          "velocity": 1,
          "duration": 0.4385080937500021
        },
        {
          "name": "D2",
          "midi": 38,
          "time": 107.66129750000005,
          "velocity": 1,
          "duration": 0.46370970833334013
        },
        {
          "name": "D3",
          "midi": 50,
          "time": 107.66129750000005,
          "velocity": 1,
          "duration": 0.4385080937500021
        },
        {
          "name": "A2",
          "midi": 45,
          "time": 107.90323300000004,
          "velocity": 1,
          "duration": 0.17137097916666733
        },
        {
          "name": "G2",
          "midi": 43,
          "time": 108.14516850000005,
          "velocity": 1,
          "duration": 0.12096775000000548
        },
        {
          "name": "A2",
          "midi": 45,
          "time": 108.38710400000006,
          "velocity": 1,
          "duration": 0.16129033333332643
        },
        {
          "name": "A1",
          "midi": 33,
          "time": 108.62903950000006,
          "velocity": 1,
          "duration": 0.21169356250000249
        },
        {
          "name": "A2",
          "midi": 45,
          "time": 108.87097500000006,
          "velocity": 1,
          "duration": 0.18649194791666446
        },
        {
          "name": "D2",
          "midi": 38,
          "time": 109.11291050000005,
          "velocity": 1,
          "duration": 0.181451624999994
        },
        {
          "name": "A2",
          "midi": 45,
          "time": 109.35484600000005,
          "velocity": 1,
          "duration": 0.19657259375000535
        },
        {
          "name": "G2",
          "midi": 43,
          "time": 109.59678150000006,
          "velocity": 1,
          "duration": 0.12096775000000548
        },
        {
          "name": "A2",
          "midi": 45,
          "time": 109.83871700000007,
          "velocity": 1,
          "duration": 0.2016129166666616
        },
        {
          "name": "A1",
          "midi": 33,
          "time": 110.08065250000007,
          "velocity": 1,
          "duration": 0.1915322708333349
        },
        {
          "name": "A2",
          "midi": 45,
          "time": 110.32258800000007,
          "velocity": 1,
          "duration": 0.18649194791666446
        },
        {
          "name": "D2",
          "midi": 38,
          "time": 110.56452350000006,
          "velocity": 1,
          "duration": 0.2016129166666616
        },
        {
          "name": "D1",
          "midi": 26,
          "time": 110.56452350000006,
          "velocity": 1,
          "duration": 0.6754032708333284
        },
        {
          "name": "D2",
          "midi": 38,
          "time": 110.56452350000006,
          "velocity": 1,
          "duration": 0.7056452083333227
        },
        {
          "name": "D3",
          "midi": 50,
          "time": 110.56452350000006,
          "velocity": 1,
          "duration": 0.6754032708333284
        },
        {
          "name": "A2",
          "midi": 45,
          "time": 110.80645900000006,
          "velocity": 1,
          "duration": 0.181451624999994
        },
        {
          "name": "G2",
          "midi": 43,
          "time": 111.04839450000006,
          "velocity": 1,
          "duration": 0.12096775000000548
        },
        {
          "name": "A2",
          "midi": 45,
          "time": 111.29033000000005,
          "velocity": 1,
          "duration": 0.17137097916666733
        },
        {
          "name": "A1",
          "midi": 33,
          "time": 111.53226550000005,
          "velocity": 1,
          "duration": 0.16129033333332643
        },
        {
          "name": "A2",
          "midi": 45,
          "time": 111.77420100000005,
          "velocity": 1,
          "duration": 0.17641130208333777
        },
        {
          "name": "D2",
          "midi": 38,
          "time": 112.01613650000006,
          "velocity": 1,
          "duration": 0.1915322708333349
        },
        {
          "name": "A2",
          "midi": 45,
          "time": 112.25807200000006,
          "velocity": 1,
          "duration": 0.181451624999994
        },
        {
          "name": "G2",
          "midi": 43,
          "time": 112.50000750000005,
          "velocity": 1,
          "duration": 0.13104839583333217
        },
        {
          "name": "A2",
          "midi": 45,
          "time": 112.74194300000005,
          "velocity": 1,
          "duration": 0.181451624999994
        },
        {
          "name": "A1",
          "midi": 33,
          "time": 112.98387850000005,
          "velocity": 1,
          "duration": 0.17137097916666733
        },
        {
          "name": "A2",
          "midi": 45,
          "time": 113.22581400000004,
          "velocity": 1,
          "duration": 0.2016129166666616
        },
        {
          "name": "D2",
          "midi": 38,
          "time": 113.46774950000004,
          "velocity": 1,
          "duration": 0.19657259375000535
        },
        {
          "name": "A2",
          "midi": 45,
          "time": 113.70968500000005,
          "velocity": 1,
          "duration": 0.2016129166666616
        },
        {
          "name": "G2",
          "midi": 43,
          "time": 113.95162050000005,
          "velocity": 1,
          "duration": 0.14112904166667306
        },
        {
          "name": "A2",
          "midi": 45,
          "time": 114.19355600000006,
          "velocity": 1,
          "duration": 0.18649194791666446
        },
        {
          "name": "A1",
          "midi": 33,
          "time": 114.43549150000005,
          "velocity": 1,
          "duration": 0.16633065624999688
        },
        {
          "name": "A2",
          "midi": 45,
          "time": 114.67742700000005,
          "velocity": 1,
          "duration": 0.17137097916666733
        },
        {
          "name": "D2",
          "midi": 38,
          "time": 114.91936250000005,
          "velocity": 1,
          "duration": 0.181451624999994
        },
        {
          "name": "A2",
          "midi": 45,
          "time": 115.16129800000004,
          "velocity": 1,
          "duration": 0.19657259375000535
        },
        {
          "name": "G2",
          "midi": 43,
          "time": 115.40323350000006,
          "velocity": 1,
          "duration": 0.1461693645833293
        },
        {
          "name": "A2",
          "midi": 45,
          "time": 115.64516900000005,
          "velocity": 1,
          "duration": 0.181451624999994
        },
        {
          "name": "A1",
          "midi": 33,
          "time": 115.88710450000005,
          "velocity": 1,
          "duration": 0.19657259375000535
        },
        {
          "name": "A2",
          "midi": 45,
          "time": 116.12904000000006,
          "velocity": 1,
          "duration": 0.16633065624999688
        },
        {
          "name": "D2",
          "midi": 38,
          "time": 116.37097550000006,
          "velocity": 1,
          "duration": 0.22681453124999962
        },
        {
          "name": "D1",
          "midi": 26,
          "time": 116.37097550000006,
          "velocity": 1,
          "duration": 0.42338712500000497
        },
        {
          "name": "D2",
          "midi": 38,
          "time": 116.37097550000006,
          "velocity": 1,
          "duration": 0.4586693854166697
        },
        {
          "name": "D3",
          "midi": 50,
          "time": 116.37097550000006,
          "velocity": 1,
          "duration": 0.448588739583343
        },
        {
          "name": "A2",
          "midi": 45,
          "time": 116.61291100000005,
          "velocity": 1,
          "duration": 0.17641130208333777
        },
        {
          "name": "G2",
          "midi": 43,
          "time": 116.85484650000006,
          "velocity": 1,
          "duration": 0.14112904166667306
        },
        {
          "name": "A2",
          "midi": 45,
          "time": 117.09678200000008,
          "velocity": 1,
          "duration": 0.18649194791666446
        },
        {
          "name": "A1",
          "midi": 33,
          "time": 117.33871750000007,
          "velocity": 1,
          "duration": 0.18649194791666446
        },
        {
          "name": "A2",
          "midi": 45,
          "time": 117.58065300000007,
          "velocity": 1,
          "duration": 0.2016129166666616
        },
        {
          "name": "D2",
          "midi": 38,
          "time": 117.82258850000007,
          "velocity": 1,
          "duration": 0.181451624999994
        },
        {
          "name": "A2",
          "midi": 45,
          "time": 118.06452400000006,
          "velocity": 1,
          "duration": 0.16633065624999688
        },
        {
          "name": "G2",
          "midi": 43,
          "time": 118.30645950000006,
          "velocity": 1,
          "duration": 0.12600807291666172
        },
        {
          "name": "A2",
          "midi": 45,
          "time": 118.54839500000006,
          "velocity": 1,
          "duration": 0.181451624999994
        },
        {
          "name": "A1",
          "midi": 33,
          "time": 118.79033050000005,
          "velocity": 1,
          "duration": 0.16633065624999688
        },
        {
          "name": "A2",
          "midi": 45,
          "time": 119.03226600000005,
          "velocity": 1,
          "duration": 0.2570564687499939
        },
        {
          "name": "D2",
          "midi": 38,
          "time": 119.27420150000005,
          "velocity": 1,
          "duration": 0.14112904166665885
        },
        {
          "name": "D1",
          "midi": 26,
          "time": 119.27420150000005,
          "velocity": 1,
          "duration": 0.5141129374999878
        },
        {
          "name": "D2",
          "midi": 38,
          "time": 119.27420150000005,
          "velocity": 1,
          "duration": 0.5241935833333145
        },
        {
          "name": "D3",
          "midi": 50,
          "time": 119.27420150000005,
          "velocity": 1,
          "duration": 0.5141129374999878
        },
        {
          "name": "A2",
          "midi": 45,
          "time": 119.51613700000004,
          "velocity": 1,
          "duration": 0.181451624999994
        },
        {
          "name": "G2",
          "midi": 43,
          "time": 119.75807250000004,
          "velocity": 1,
          "duration": 0.1461693645833151
        },
        {
          "name": "A2",
          "midi": 45,
          "time": 120.00000800000002,
          "velocity": 1,
          "duration": 0.17641130208333777
        },
        {
          "name": "A1",
          "midi": 33,
          "time": 120.24194350000003,
          "velocity": 1,
          "duration": 0.22681453124999962
        },
        {
          "name": "A2",
          "midi": 45,
          "time": 120.48387900000003,
          "velocity": 1,
          "duration": 0.18649194791666446
        },
        {
          "name": "D2",
          "midi": 38,
          "time": 120.72581450000003,
          "velocity": 1,
          "duration": 0.21673388541667293
        },
        {
          "name": "A2",
          "midi": 45,
          "time": 120.96775000000004,
          "velocity": 1,
          "duration": 0.18649194791666446
        },
        {
          "name": "G2",
          "midi": 43,
          "time": 121.20968550000003,
          "velocity": 1,
          "duration": 0.15120968749999975
        },
        {
          "name": "A2",
          "midi": 45,
          "time": 121.45162100000003,
          "velocity": 1,
          "duration": 0.2016129166666616
        },
        {
          "name": "A1",
          "midi": 33,
          "time": 121.69355650000003,
          "velocity": 1,
          "duration": 0.18649194791666446
        },
        {
          "name": "A2",
          "midi": 45,
          "time": 121.93549200000002,
          "velocity": 1,
          "duration": 0.181451624999994
        },
        {
          "name": "D2",
          "midi": 38,
          "time": 122.17742750000002,
          "velocity": 1,
          "duration": 0.2016129166666616
        },
        {
          "name": "D1",
          "midi": 26,
          "time": 122.17742750000002,
          "velocity": 1,
          "duration": 0.5292339062499991
        },
        {
          "name": "D2",
          "midi": 38,
          "time": 122.17742750000002,
          "velocity": 1,
          "duration": 0.5040322916666611
        },
        {
          "name": "D3",
          "midi": 50,
          "time": 122.17742750000002,
          "velocity": 1,
          "duration": 0.5090726145833315
        },
        {
          "name": "A2",
          "midi": 45,
          "time": 122.41936300000002,
          "velocity": 1,
          "duration": 0.181451624999994
        },
        {
          "name": "G2",
          "midi": 43,
          "time": 122.66129850000002,
          "velocity": 1,
          "duration": 0.14112904166667306
        },
        {
          "name": "A2",
          "midi": 45,
          "time": 122.90323400000003,
          "velocity": 1,
          "duration": 0.17641130208333777
        },
        {
          "name": "A1",
          "midi": 33,
          "time": 123.14516950000004,
          "velocity": 1,
          "duration": 0.16633065624999688
        },
        {
          "name": "A2",
          "midi": 45,
          "time": 123.38710500000003,
          "velocity": 1,
          "duration": 0.2016129166666616
        },
        {
          "name": "D2",
          "midi": 38,
          "time": 123.62904050000003,
          "velocity": 1,
          "duration": 0.17137097916666733
        },
        {
          "name": "A2",
          "midi": 45,
          "time": 123.87097600000003,
          "velocity": 1,
          "duration": 0.181451624999994
        },
        {
          "name": "G2",
          "midi": 43,
          "time": 124.11291150000002,
          "velocity": 1,
          "duration": 0.181451624999994
        },
        {
          "name": "A2",
          "midi": 45,
          "time": 124.35484700000002,
          "velocity": 1,
          "duration": 0.22177420833332917
        },
        {
          "name": "A1",
          "midi": 33,
          "time": 124.59678250000002,
          "velocity": 1,
          "duration": 0.181451624999994
        },
        {
          "name": "A2",
          "midi": 45,
          "time": 124.83871800000001,
          "velocity": 1,
          "duration": 0.20665323958333204
        },
        {
          "name": "D2",
          "midi": 38,
          "time": 125.08065350000001,
          "velocity": 1,
          "duration": 0.16633065624999688
        },
        {
          "name": "A2",
          "midi": 45,
          "time": 125.32258900000001,
          "velocity": 1,
          "duration": 0.20665323958333204
        },
        {
          "name": "G2",
          "midi": 43,
          "time": 125.5645245,
          "velocity": 1,
          "duration": 0.1461693645833293
        },
        {
          "name": "A2",
          "midi": 45,
          "time": 125.80646,
          "velocity": 1,
          "duration": 0.1915322708333349
        },
        {
          "name": "A1",
          "midi": 33,
          "time": 126.0483955,
          "velocity": 1,
          "duration": 0.22177420833332917
        },
        {
          "name": "A2",
          "midi": 45,
          "time": 126.290331,
          "velocity": 1,
          "duration": 0.21673388541667293
        },
        {
          "name": "D2",
          "midi": 38,
          "time": 126.5322665,
          "velocity": 1,
          "duration": 0.18649194791666446
        },
        {
          "name": "A2",
          "midi": 45,
          "time": 126.774202,
          "velocity": 1,
          "duration": 0.19657259375000535
        },
        {
          "name": "G2",
          "midi": 43,
          "time": 127.01613750000001,
          "velocity": 1,
          "duration": 0.1461693645833293
        },
        {
          "name": "A2",
          "midi": 45,
          "time": 127.25807300000001,
          "velocity": 1,
          "duration": 0.2016129166666616
        },
        {
          "name": "A1",
          "midi": 33,
          "time": 127.5000085,
          "velocity": 1,
          "duration": 0.16129033333332643
        },
        {
          "name": "A2",
          "midi": 45,
          "time": 127.741944,
          "velocity": 1,
          "duration": 0.14112904166667306
        },
        {
          "name": "D2",
          "midi": 38,
          "time": 127.98387950000001,
          "velocity": 1,
          "duration": 0.22177420833334338
        },
        {
          "name": "D2",
          "midi": 38,
          "time": 127.98387950000001,
          "velocity": 1,
          "duration": 0.9778226458333421
        },
        {
          "name": "D3",
          "midi": 50,
          "time": 127.98387950000001,
          "velocity": 1,
          "duration": 0.9576613541666603
        },
        {
          "name": "D1",
          "midi": 26,
          "time": 127.98387950000001,
          "velocity": 1,
          "duration": 0.9576613541666603
        },
        {
          "name": "A2",
          "midi": 45,
          "time": 128.225815,
          "velocity": 1,
          "duration": 0.2016129166666758
        },
        {
          "name": "G2",
          "midi": 43,
          "time": 128.46775050000002,
          "velocity": 1,
          "duration": 0.16129033333334064
        },
        {
          "name": "A2",
          "midi": 45,
          "time": 128.70968600000003,
          "velocity": 1,
          "duration": 0.21169356249998827
        },
        {
          "name": "A1",
          "midi": 33,
          "time": 128.95162150000002,
          "velocity": 1,
          "duration": 0.17137097916668154
        },
        {
          "name": "A2",
          "midi": 45,
          "time": 129.19355700000003,
          "velocity": 1,
          "duration": 0.2671371145833348
        },
        {
          "name": "D2",
          "midi": 38,
          "time": 129.43549250000004,
          "velocity": 1,
          "duration": 0.1562500104166702
        },
        {
          "name": "A2",
          "midi": 45,
          "time": 129.67742800000005,
          "velocity": 1,
          "duration": 0.24193550000001096
        },
        {
          "name": "G2",
          "midi": 43,
          "time": 129.91936350000006,
          "velocity": 1,
          "duration": 0.15120968749999975
        },
        {
          "name": "A2",
          "midi": 45,
          "time": 130.16129900000007,
          "velocity": 1,
          "duration": 0.23185485416667007
        },
        {
          "name": "A1",
          "midi": 33,
          "time": 130.40323450000008,
          "velocity": 1,
          "duration": 0.181451624999994
        },
        {
          "name": "A2",
          "midi": 45,
          "time": 130.64517000000006,
          "velocity": 1,
          "duration": 0.22177420833332917
        },
        {
          "name": "D2",
          "midi": 38,
          "time": 130.88710550000005,
          "velocity": 1,
          "duration": 0.1915322708333349
        },
        {
          "name": "D1",
          "midi": 26,
          "time": 130.88710550000005,
          "velocity": 1,
          "duration": 0.45362906250002766
        },
        {
          "name": "D2",
          "midi": 38,
          "time": 130.88710550000005,
          "velocity": 1,
          "duration": 0.46370970833336855
        },
        {
          "name": "D3",
          "midi": 50,
          "time": 130.88710550000005,
          "velocity": 1,
          "duration": 0.4385080937500163
        },
        {
          "name": "A2",
          "midi": 45,
          "time": 131.12904100000006,
          "velocity": 1,
          "duration": 0.21673388541668714
        },
        {
          "name": "G2",
          "midi": 43,
          "time": 131.37097650000007,
          "velocity": 1,
          "duration": 0.1562500104166702
        },
        {
          "name": "A2",
          "midi": 45,
          "time": 131.61291200000008,
          "velocity": 1,
          "duration": 0.21169356249998827
        },
        {
          "name": "A1",
          "midi": 33,
          "time": 131.85484750000006,
          "velocity": 1,
          "duration": 0.18649194791666446
        },
        {
          "name": "A2",
          "midi": 45,
          "time": 132.09678300000007,
          "velocity": 1,
          "duration": 0.1915322708333349
        },
        {
          "name": "D2",
          "midi": 38,
          "time": 132.33871850000008,
          "velocity": 1,
          "duration": 0.2016129166666758
        },
        {
          "name": "A2",
          "midi": 45,
          "time": 132.5806540000001,
          "velocity": 1,
          "duration": 0.18649194791666446
        },
        {
          "name": "G2",
          "midi": 43,
          "time": 132.8225895000001,
          "velocity": 1,
          "duration": 0.13104839583334638
        },
        {
          "name": "A2",
          "midi": 45,
          "time": 133.06452500000012,
          "velocity": 1,
          "duration": 0.181451624999994
        },
        {
          "name": "A1",
          "midi": 33,
          "time": 133.3064605000001,
          "velocity": 1,
          "duration": 0.16129033333334064
        },
        {
          "name": "A2",
          "midi": 45,
          "time": 133.5483960000001,
          "velocity": 1,
          "duration": 0.20665323958334625
        },
        {
          "name": "D2",
          "midi": 38,
          "time": 133.79033150000012,
          "velocity": 1,
          "duration": 0.2016129166666758
        },
        {
          "name": "D2",
          "midi": 38,
          "time": 133.79033150000012,
          "velocity": 1,
          "duration": 0.4485887395833572
        },
        {
          "name": "D1",
          "midi": 26,
          "time": 133.79033150000012,
          "velocity": 1,
          "duration": 0.4385080937500163
        },
        {
          "name": "D3",
          "midi": 50,
          "time": 133.79033150000012,
          "velocity": 1,
          "duration": 0.4284274479166754
        },
        {
          "name": "A2",
          "midi": 45,
          "time": 134.03226700000013,
          "velocity": 1,
          "duration": 0.2016129166666758
        },
        {
          "name": "G2",
          "midi": 43,
          "time": 134.27420250000014,
          "velocity": 1,
          "duration": 0.12600807291667593
        },
        {
          "name": "A2",
          "midi": 45,
          "time": 134.51613800000015,
          "velocity": 1,
          "duration": 0.181451624999994
        },
        {
          "name": "A1",
          "midi": 33,
          "time": 134.75807350000014,
          "velocity": 1,
          "duration": 0.1663306562500111
        },
        {
          "name": "A2",
          "midi": 45,
          "time": 135.00000900000015,
          "velocity": 1,
          "duration": 0.181451624999994
        },
        {
          "name": "D2",
          "midi": 38,
          "time": 135.24194450000013,
          "velocity": 1,
          "duration": 0.181451624999994
        },
        {
          "name": "A2",
          "midi": 45,
          "time": 135.4838800000001,
          "velocity": 1,
          "duration": 0.181451624999994
        },
        {
          "name": "G2",
          "midi": 43,
          "time": 135.7258155000001,
          "velocity": 1,
          "duration": 0.14112904166665885
        },
        {
          "name": "A2",
          "midi": 45,
          "time": 135.96775100000008,
          "velocity": 1,
          "duration": 0.17641130208332356
        },
        {
          "name": "A1",
          "midi": 33,
          "time": 136.20968650000006,
          "velocity": 1,
          "duration": 0.16129033333334064
        },
        {
          "name": "A2",
          "midi": 45,
          "time": 136.45162200000007,
          "velocity": 1,
          "duration": 0.21169356249998827
        },
        {
          "name": "D2",
          "midi": 38,
          "time": 136.69355750000005,
          "velocity": 1,
          "duration": 0.1915322708333349
        },
        {
          "name": "A2",
          "midi": 45,
          "time": 136.93549300000006,
          "velocity": 1,
          "duration": 0.2016129166666758
        },
        {
          "name": "G2",
          "midi": 43,
          "time": 137.17742850000008,
          "velocity": 1,
          "duration": 0.14112904166665885
        },
        {
          "name": "A2",
          "midi": 45,
          "time": 137.41936400000006,
          "velocity": 1,
          "duration": 0.20665323958334625
        },
        {
          "name": "A1",
          "midi": 33,
          "time": 137.66129950000007,
          "velocity": 1,
          "duration": 0.181451624999994
        },
        {
          "name": "A2",
          "midi": 45,
          "time": 137.90323500000005,
          "velocity": 1,
          "duration": 0.20665323958334625
        },
        {
          "name": "D2",
          "midi": 38,
          "time": 138.14517050000006,
          "velocity": 1,
          "duration": 0.18649194791666446
        },
        {
          "name": "A2",
          "midi": 45,
          "time": 138.38710600000007,
          "velocity": 1,
          "duration": 0.2016129166666758
        },
        {
          "name": "G2",
          "midi": 43,
          "time": 138.62904150000008,
          "velocity": 1,
          "duration": 0.13104839583334638
        },
        {
          "name": "A2",
          "midi": 45,
          "time": 138.8709770000001,
          "velocity": 1,
          "duration": 0.181451624999994
        },
        {
          "name": "A1",
          "midi": 33,
          "time": 139.11291250000008,
          "velocity": 1,
          "duration": 0.1562500104166702
        },
        {
          "name": "A2",
          "midi": 45,
          "time": 139.3548480000001,
          "velocity": 1,
          "duration": 0.20665323958334625
        },
        {
          "name": "D2",
          "midi": 38,
          "time": 139.5967835000001,
          "velocity": 1,
          "duration": 0.1915322708333349
        },
        {
          "name": "D1",
          "midi": 26,
          "time": 139.5967835000001,
          "velocity": 1,
          "duration": 0.4284274479166754
        },
        {
          "name": "D2",
          "midi": 38,
          "time": 139.5967835000001,
          "velocity": 1,
          "duration": 0.4133064791666641
        },
        {
          "name": "D3",
          "midi": 50,
          "time": 139.5967835000001,
          "velocity": 1,
          "duration": 0.4385080937500163
        },
        {
          "name": "A2",
          "midi": 45,
          "time": 139.8387190000001,
          "velocity": 1,
          "duration": 0.2016129166666758
        },
        {
          "name": "G2",
          "midi": 43,
          "time": 140.08065450000012,
          "velocity": 1,
          "duration": 0.1360887187499884
        },
        {
          "name": "A2",
          "midi": 45,
          "time": 140.3225900000001,
          "velocity": 1,
          "duration": 0.16129033333334064
        },
        {
          "name": "A1",
          "midi": 33,
          "time": 140.56452550000012,
          "velocity": 1,
          "duration": 0.15120968749999975
        },
        {
          "name": "A2",
          "midi": 45,
          "time": 140.80646100000013,
          "velocity": 1,
          "duration": 0.181451624999994
        },
        {
          "name": "D2",
          "midi": 38,
          "time": 141.0483965000001,
          "velocity": 1,
          "duration": 0.19657259375000535
        },
        {
          "name": "A2",
          "midi": 45,
          "time": 141.29033200000012,
          "velocity": 1,
          "duration": 0.1915322708333349
        },
        {
          "name": "G2",
          "midi": 43,
          "time": 141.53226750000013,
          "velocity": 1,
          "duration": 0.13104839583334638
        },
        {
          "name": "A2",
          "midi": 45,
          "time": 141.77420300000014,
          "velocity": 1,
          "duration": 0.17641130208332356
        },
        {
          "name": "A1",
          "midi": 33,
          "time": 142.01613850000012,
          "velocity": 1,
          "duration": 0.1562500104166702
        },
        {
          "name": "A2",
          "midi": 45,
          "time": 142.25807400000014,
          "velocity": 1,
          "duration": 0.1663306562500111
        },
        {
          "name": "D2",
          "midi": 38,
          "time": 142.50000950000015,
          "velocity": 1,
          "duration": 0.19657259375000535
        },
        {
          "name": "D1",
          "midi": 26,
          "time": 142.50000950000015,
          "velocity": 1,
          "duration": 0.3931451875000107
        },
        {
          "name": "D2",
          "midi": 38,
          "time": 142.50000950000015,
          "velocity": 1,
          "duration": 0.357862927083346
        },
        {
          "name": "D3",
          "midi": 50,
          "time": 142.50000950000015,
          "velocity": 1,
          "duration": 0.4032258333333516
        },
        {
          "name": "A2",
          "midi": 45,
          "time": 142.74194500000016,
          "velocity": 1,
          "duration": 0.181451624999994
        },
        {
          "name": "G2",
          "midi": 43,
          "time": 142.98388050000014,
          "velocity": 1,
          "duration": 0.14112904166665885
        },
        {
          "name": "A2",
          "midi": 45,
          "time": 143.22581600000012,
          "velocity": 1,
          "duration": 0.181451624999994
        },
        {
          "name": "A1",
          "midi": 33,
          "time": 143.4677515000001,
          "velocity": 1,
          "duration": 0.1562500104166702
        },
        {
          "name": "A2",
          "midi": 45,
          "time": 143.70968700000012,
          "velocity": 1,
          "duration": 0.21673388541665872
        },
        {
          "name": "D2",
          "midi": 38,
          "time": 143.9516225000001,
          "velocity": 1,
          "duration": 0.2016129166666758
        },
        {
          "name": "A2",
          "midi": 45,
          "time": 144.1935580000001,
          "velocity": 1,
          "duration": 0.18649194791666446
        },
        {
          "name": "G2",
          "midi": 43,
          "time": 144.43549350000012,
          "velocity": 1,
          "duration": 0.15120968749999975
        },
        {
          "name": "A2",
          "midi": 45,
          "time": 144.67742900000013,
          "velocity": 1,
          "duration": 0.181451624999994
        },
        {
          "name": "A1",
          "midi": 33,
          "time": 144.9193645000001,
          "velocity": 1,
          "duration": 0.16129033333334064
        },
        {
          "name": "A2",
          "midi": 45,
          "time": 145.16130000000013,
          "velocity": 1,
          "duration": 0.18649194791666446
        },
        {
          "name": "D2",
          "midi": 38,
          "time": 145.40323550000014,
          "velocity": 1,
          "duration": 0.1915322708333349
        },
        {
          "name": "D1",
          "midi": 26,
          "time": 145.40323550000014,
          "velocity": 1,
          "duration": 0.38306454166669823
        },
        {
          "name": "D3",
          "midi": 50,
          "time": 145.40323550000014,
          "velocity": 1,
          "duration": 0.38306454166669823
        },
        {
          "name": "D2",
          "midi": 38,
          "time": 145.40323550000014,
          "velocity": 1,
          "duration": 0.37298389583335734
        },
        {
          "name": "A2",
          "midi": 45,
          "time": 145.64517100000015,
          "velocity": 1,
          "duration": 0.2217742083333576
        },
        {
          "name": "G2",
          "midi": 43,
          "time": 145.88710650000016,
          "velocity": 1,
          "duration": 0.16129033333334064
        },
        {
          "name": "A2",
          "midi": 45,
          "time": 146.12904200000017,
          "velocity": 1,
          "duration": 0.1663306562500111
        },
        {
          "name": "A1",
          "midi": 33,
          "time": 146.37097750000018,
          "velocity": 1,
          "duration": 0.14112904166665885
        },
        {
          "name": "A2",
          "midi": 45,
          "time": 146.61291300000016,
          "velocity": 1,
          "duration": 0.1915322708333349
        },
        {
          "name": "D2",
          "midi": 38,
          "time": 146.85484850000017,
          "velocity": 1,
          "duration": 0.20665323958334625
        },
        {
          "name": "A2",
          "midi": 45,
          "time": 147.09678400000018,
          "velocity": 1,
          "duration": 0.1915322708333349
        },
        {
          "name": "G2",
          "midi": 43,
          "time": 147.3387195000002,
          "velocity": 1,
          "duration": 0.14112904166665885
        },
        {
          "name": "A2",
          "midi": 45,
          "time": 147.58065500000018,
          "velocity": 1,
          "duration": 0.181451624999994
        },
        {
          "name": "A1",
          "midi": 33,
          "time": 147.82259050000016,
          "velocity": 1,
          "duration": 0.16129033333334064
        },
        {
          "name": "A2",
          "midi": 45,
          "time": 148.06452600000017,
          "velocity": 1,
          "duration": 0.1915322708333349
        },
        {
          "name": "D2",
          "midi": 38,
          "time": 148.30646150000018,
          "velocity": 1,
          "duration": 0.2016129166666758
        },
        {
          "name": "A2",
          "midi": 45,
          "time": 148.5483970000002,
          "velocity": 1,
          "duration": 0.19657259375000535
        },
        {
          "name": "G2",
          "midi": 43,
          "time": 148.7903325000002,
          "velocity": 1,
          "duration": 0.1461693645833293
        },
        {
          "name": "A2",
          "midi": 45,
          "time": 149.0322680000002,
          "velocity": 1,
          "duration": 0.181451624999994
        },
        {
          "name": "A1",
          "midi": 33,
          "time": 149.27420350000017,
          "velocity": 1,
          "duration": 0.17641130208332356
        },
        {
          "name": "A2",
          "midi": 45,
          "time": 149.51613900000015,
          "velocity": 1,
          "duration": 0.22177420833332917
        },
        {
          "name": "D2",
          "midi": 38,
          "time": 149.75807450000013,
          "velocity": 1,
          "duration": 0.19657259375000535
        },
        {
          "name": "A2",
          "midi": 45,
          "time": 150.00001000000015,
          "velocity": 1,
          "duration": 0.17641130208332356
        },
        {
          "name": "G2",
          "midi": 43,
          "time": 150.24194550000013,
          "velocity": 1,
          "duration": 0.14112904166665885
        },
        {
          "name": "A2",
          "midi": 45,
          "time": 150.4838810000001,
          "velocity": 1,
          "duration": 0.18649194791666446
        },
        {
          "name": "A1",
          "midi": 33,
          "time": 150.72581650000012,
          "velocity": 1,
          "duration": 0.2016129166666758
        },
        {
          "name": "A2",
          "midi": 45,
          "time": 150.96775200000013,
          "velocity": 1,
          "duration": 0.17641130208332356
        },
        {
          "name": "D2",
          "midi": 38,
          "time": 151.20968750000011,
          "velocity": 1,
          "duration": 0.22177420833332917
        },
        {
          "name": "D1",
          "midi": 26,
          "time": 151.21472782291679,
          "velocity": 1,
          "duration": 0.4737903541666526
        },
        {
          "name": "D2",
          "midi": 38,
          "time": 151.21472782291679,
          "velocity": 1,
          "duration": 0.5141129374999878
        },
        {
          "name": "D3",
          "midi": 50,
          "time": 151.21472782291679,
          "velocity": 1,
          "duration": 0.5342742291666411
        },
        {
          "name": "A2",
          "midi": 45,
          "time": 151.4516230000001,
          "velocity": 1,
          "duration": 0.2368951770833405
        },
        {
          "name": "A1",
          "midi": 33,
          "time": 151.6935585000001,
          "velocity": 1,
          "duration": 0.181451624999994
        },
        {
          "name": "A2",
          "midi": 45,
          "time": 151.9354940000001,
          "velocity": 1,
          "duration": 0.20665323958334625
        },
        {
          "name": "D2",
          "midi": 38,
          "time": 152.1774295000001,
          "velocity": 1,
          "duration": 0.22177420833332917
        },
        {
          "name": "A2",
          "midi": 45,
          "time": 152.41936500000008,
          "velocity": 1,
          "duration": 0.2016129166666758
        },
        {
          "name": "A1",
          "midi": 33,
          "time": 152.6613005000001,
          "velocity": 1,
          "duration": 0.1915322708333349
        },
        {
          "name": "A2",
          "midi": 45,
          "time": 152.9032360000001,
          "velocity": 1,
          "duration": 0.181451624999994
        },
        {
          "name": "D2",
          "midi": 38,
          "time": 153.1451715000001,
          "velocity": 1,
          "duration": 0.2016129166666758
        },
        {
          "name": "A2",
          "midi": 45,
          "time": 153.3871070000001,
          "velocity": 1,
          "duration": 0.22177420833332917
        },
        {
          "name": "A1",
          "midi": 33,
          "time": 153.62904250000008,
          "velocity": 1,
          "duration": 0.17137097916665311
        },
        {
          "name": "A2",
          "midi": 45,
          "time": 153.87097800000006,
          "velocity": 1,
          "duration": 0.2368951770833405
        },
        {
          "name": "D2",
          "midi": 38,
          "time": 154.11291350000008,
          "velocity": 1,
          "duration": 0.1915322708333349
        },
        {
          "name": "A2",
          "midi": 45,
          "time": 154.3548490000001,
          "velocity": 1,
          "duration": 0.17641130208332356
        },
        {
          "name": "A1",
          "midi": 33,
          "time": 154.59678450000007,
          "velocity": 1,
          "duration": 0.18649194791666446
        },
        {
          "name": "A2",
          "midi": 45,
          "time": 154.83872000000008,
          "velocity": 1,
          "duration": 0.22681453124999962
        },
        {
          "name": "D2",
          "midi": 38,
          "time": 155.0806555000001,
          "velocity": 1,
          "duration": 0.2016129166666758
        },
        {
          "name": "A2",
          "midi": 45,
          "time": 155.3225910000001,
          "velocity": 1,
          "duration": 0.19657259375000535
        },
        {
          "name": "A1",
          "midi": 33,
          "time": 155.5645265000001,
          "velocity": 1,
          "duration": 0.2016129166666758
        },
        {
          "name": "A2",
          "midi": 45,
          "time": 155.80646200000012,
          "velocity": 1,
          "duration": 0.17137097916665311
        },
        {
          "name": "D2",
          "midi": 38,
          "time": 156.0483975000001,
          "velocity": 1,
          "duration": 0.17137097916665311
        },
        {
          "name": "A2",
          "midi": 45,
          "time": 156.2903330000001,
          "velocity": 1,
          "duration": 0.181451624999994
        },
        {
          "name": "A1",
          "midi": 33,
          "time": 156.53226850000007,
          "velocity": 1,
          "duration": 0.17641130208332356
        },
        {
          "name": "A2",
          "midi": 45,
          "time": 156.77420400000005,
          "velocity": 1,
          "duration": 0.181451624999994
        },
        {
          "name": "D2",
          "midi": 38,
          "time": 157.01613950000004,
          "velocity": 1,
          "duration": 0.181451624999994
        },
        {
          "name": "A2",
          "midi": 45,
          "time": 157.25807500000002,
          "velocity": 1,
          "duration": 0.18649194791666446
        },
        {
          "name": "A1",
          "midi": 33,
          "time": 157.50001050000003,
          "velocity": 1,
          "duration": 0.2016129166666758
        },
        {
          "name": "A2",
          "midi": 45,
          "time": 157.74194600000004,
          "velocity": 1,
          "duration": 0.24193550000001096
        },
        {
          "name": "D2",
          "midi": 38,
          "time": 157.98388150000005,
          "velocity": 1,
          "duration": 0.1915322708333349
        },
        {
          "name": "A2",
          "midi": 45,
          "time": 158.22581700000006,
          "velocity": 1,
          "duration": 0.16129033333334064
        },
        {
          "name": "A1",
          "midi": 33,
          "time": 158.46775250000007,
          "velocity": 1,
          "duration": 0.19657259375000535
        },
        {
          "name": "A2",
          "midi": 45,
          "time": 158.70968800000009,
          "velocity": 1,
          "duration": 0.1663306562500111
        },
        {
          "name": "D2",
          "midi": 38,
          "time": 158.9516235000001,
          "velocity": 1,
          "duration": 0.2016129166666758
        },
        {
          "name": "A2",
          "midi": 45,
          "time": 159.1935590000001,
          "velocity": 1,
          "duration": 0.1360887187499884
        },
        {
          "name": "A1",
          "midi": 33,
          "time": 159.4354945000001,
          "velocity": 1,
          "duration": 0.2016129166666758
        },
        {
          "name": "A2",
          "midi": 45,
          "time": 159.6774300000001,
          "velocity": 1,
          "duration": 0.1461693645833293
        },
        {
          "name": "D2",
          "midi": 38,
          "time": 159.91936550000008,
          "velocity": 1,
          "duration": 0.2016129166666758
        },
        {
          "name": "A2",
          "midi": 45,
          "time": 160.1613010000001,
          "velocity": 1,
          "duration": 0.1461693645833293
        },
        {
          "name": "A1",
          "midi": 33,
          "time": 160.40323650000008,
          "velocity": 1,
          "duration": 0.20665323958334625
        },
        {
          "name": "A2",
          "midi": 45,
          "time": 160.6451720000001,
          "velocity": 1,
          "duration": 0.15120968749999975
        },
        {
          "name": "D2",
          "midi": 38,
          "time": 160.8871075000001,
          "velocity": 1,
          "duration": 0.1915322708333349
        },
        {
          "name": "A2",
          "midi": 45,
          "time": 161.1290430000001,
          "velocity": 1,
          "duration": 0.15120968749999975
        },
        {
          "name": "A1",
          "midi": 33,
          "time": 161.37097850000012,
          "velocity": 1,
          "duration": 0.181451624999994
        },
        {
          "name": "A2",
          "midi": 45,
          "time": 161.6129140000001,
          "velocity": 1,
          "duration": 0.2016129166666758
        },
        {
          "name": "D2",
          "midi": 38,
          "time": 161.8548495000001,
          "velocity": 1,
          "duration": 0.181451624999994
        },
        {
          "name": "A2",
          "midi": 45,
          "time": 162.0967850000001,
          "velocity": 1,
          "duration": 0.17641130208332356
        },
        {
          "name": "A1",
          "midi": 33,
          "time": 162.33872050000008,
          "velocity": 1,
          "duration": 0.181451624999994
        },
        {
          "name": "A2",
          "midi": 45,
          "time": 162.58065600000006,
          "velocity": 1,
          "duration": 0.14112904166665885
        },
        {
          "name": "D2",
          "midi": 38,
          "time": 162.82259150000004,
          "velocity": 1,
          "duration": 0.010080645833340895
        },
        {
          "name": "D3",
          "midi": 50,
          "time": 162.82763182291671,
          "velocity": 1,
          "duration": 0.2318548541667269
        },
        {
          "name": "D1",
          "midi": 26,
          "time": 162.82763182291671,
          "velocity": 1,
          "duration": 0.24697582291673825
        },
        {
          "name": "D2",
          "midi": 38,
          "time": 162.82763182291671,
          "velocity": 1,
          "duration": 0.03528226041666471
        },
        {
          "name": "D2",
          "midi": 38,
          "time": 162.85283343750004,
          "velocity": 1,
          "duration": 0.04032258333333516
        },
        {
          "name": "D2",
          "midi": 38,
          "time": 162.88307537500003,
          "velocity": 1,
          "duration": 0.04032258333333516
        },
        {
          "name": "D2",
          "midi": 38,
          "time": 162.91331731250003,
          "velocity": 1,
          "duration": 0.04032258333333516
        },
        {
          "name": "D2",
          "midi": 38,
          "time": 162.94355925000002,
          "velocity": 1,
          "duration": 0.04032258333336358
        },
        {
          "name": "D2",
          "midi": 38,
          "time": 162.96876086458337,
          "velocity": 1,
          "duration": 0.04032258333336358
        },
        {
          "name": "D2",
          "midi": 38,
          "time": 162.9990028020834,
          "velocity": 1,
          "duration": 0.04032258333336358
        },
        {
          "name": "D2",
          "midi": 38,
          "time": 163.02420441666675,
          "velocity": 1,
          "duration": 0.04032258333336358
        },
        {
          "name": "D2",
          "midi": 38,
          "time": 163.05444635416677,
          "velocity": 1,
          "duration": 0.02016129166668179
        },
        {
          "name": "D2",
          "midi": 38,
          "time": 163.0846882916668,
          "velocity": 1,
          "duration": 0.010080645833340895
        },
        {
          "name": "D2",
          "midi": 38,
          "time": 163.10988990625015,
          "velocity": 1,
          "duration": 0.015120968750011343
        },
        {
          "name": "D2",
          "midi": 38,
          "time": 163.14013184375017,
          "velocity": 1,
          "duration": 0.010080645833340895
        },
        {
          "name": "D2",
          "midi": 38,
          "time": 163.17037378125016,
          "velocity": 1,
          "duration": 0.010080645833340895
        },
        {
          "name": "D2",
          "midi": 38,
          "time": 163.20061571875016,
          "velocity": 1,
          "duration": 0.005040322916670448
        },
        {
          "name": "D2",
          "midi": 38,
          "time": 163.22581733333348,
          "velocity": 1,
          "duration": 0.010080645833340895
        },
        {
          "name": "D2",
          "midi": 38,
          "time": 163.25605927083348,
          "velocity": 1,
          "duration": 0.010080645833340895
        },
        {
          "name": "D2",
          "midi": 38,
          "time": 163.28630120833347,
          "velocity": 1,
          "duration": 0.005040322916670448
        },
        {
          "name": "D2",
          "midi": 38,
          "time": 163.3115028229168,
          "velocity": 1,
          "duration": 0.015120968750011343
        },
        {
          "name": "D2",
          "midi": 38,
          "time": 163.34174476041682,
          "velocity": 1,
          "duration": 0.005040322916670448
        },
        {
          "name": "D2",
          "midi": 38,
          "time": 163.36694637500014,
          "velocity": 1,
          "duration": 0.015120968750011343
        },
        {
          "name": "D2",
          "midi": 38,
          "time": 163.39718831250016,
          "velocity": 1,
          "duration": 0.010080645833340895
        },
        {
          "name": "D2",
          "midi": 38,
          "time": 163.42743025000016,
          "velocity": 1,
          "duration": 0.010080645833340895
        },
        {
          "name": "D2",
          "midi": 38,
          "time": 163.4526318645835,
          "velocity": 1,
          "duration": 0.015120968750011343
        },
        {
          "name": "D2",
          "midi": 38,
          "time": 163.48287380208353,
          "velocity": 1,
          "duration": 0.010080645833340895
        },
        {
          "name": "D2",
          "midi": 38,
          "time": 163.50807541666688,
          "velocity": 1,
          "duration": 0.015120968750011343
        },
        {
          "name": "D2",
          "midi": 38,
          "time": 163.5383173541669,
          "velocity": 1,
          "duration": 0.010080645833340895
        },
        {
          "name": "D2",
          "midi": 38,
          "time": 163.5685592916669,
          "velocity": 1,
          "duration": 0.010080645833340895
        },
        {
          "name": "D2",
          "midi": 38,
          "time": 163.59376090625025,
          "velocity": 1,
          "duration": 0.015120968750011343
        },
        {
          "name": "D2",
          "midi": 38,
          "time": 163.62400284375028,
          "velocity": 1,
          "duration": 0.015120968750011343
        },
        {
          "name": "D2",
          "midi": 38,
          "time": 163.64920445833363,
          "velocity": 1,
          "duration": 0.02016129166665337
        },
        {
          "name": "D2",
          "midi": 38,
          "time": 163.67944639583362,
          "velocity": 1,
          "duration": 0.015120968750011343
        },
        {
          "name": "D2",
          "midi": 38,
          "time": 163.70968833333365,
          "velocity": 1,
          "duration": 0.015120968750011343
        },
        {
          "name": "D2",
          "midi": 38,
          "time": 163.734889947917,
          "velocity": 1,
          "duration": 0.015120968750011343
        },
        {
          "name": "D2",
          "midi": 38,
          "time": 163.76513188541702,
          "velocity": 1,
          "duration": 0.015120968750011343
        },
        {
          "name": "D2",
          "midi": 38,
          "time": 163.79033350000037,
          "velocity": 1,
          "duration": 0.02016129166665337
        },
        {
          "name": "D2",
          "midi": 38,
          "time": 163.82057543750037,
          "velocity": 1,
          "duration": 0.015120968750011343
        },
        {
          "name": "D2",
          "midi": 38,
          "time": 163.8508173750004,
          "velocity": 1,
          "duration": 0.015120968750011343
        },
        {
          "name": "D2",
          "midi": 38,
          "time": 163.8810593125004,
          "velocity": 1,
          "duration": 0.010080645833340895
        },
        {
          "name": "D2",
          "midi": 38,
          "time": 163.9113012500004,
          "velocity": 1,
          "duration": 0.010080645833340895
        },
        {
          "name": "D2",
          "midi": 38,
          "time": 163.93650286458376,
          "velocity": 1,
          "duration": 0.015120968750011343
        },
        {
          "name": "D2",
          "midi": 38,
          "time": 163.96674480208378,
          "velocity": 1,
          "duration": 0.010080645833340895
        },
        {
          "name": "D2",
          "midi": 38,
          "time": 163.99194641666713,
          "velocity": 1,
          "duration": 0.015120968750011343
        },
        {
          "name": "D2",
          "midi": 38,
          "time": 164.0272286770838,
          "velocity": 1,
          "duration": 0.005040322916670448
        },
        {
          "name": "D2",
          "midi": 38,
          "time": 164.07763190625047,
          "velocity": 1,
          "duration": 0.4939516458333344
        },
        {
          "name": "D2",
          "midi": 38,
          "time": 164.07763190625047,
          "velocity": 1,
          "duration": 0.49899196875000484
        },
        {
          "name": "D2",
          "midi": 38,
          "time": 164.07763190625047,
          "velocity": 1,
          "duration": 0.5040322916666753
        },
        {
          "name": "D2",
          "midi": 38,
          "time": 164.07763190625047,
          "velocity": 1,
          "duration": 0.9828629687499983
        }
      ],
      "controlChanges": {},
      "id": 13,
      "name": "Timpani Ensemble",
      "instrumentNumber": 47,
      "instrument": "timpani",
      "instrumentFamily": "strings",
      "channelNumber": 11,
      "isPercussion": false
    },
    {
      "startTime": 0,
      "duration": 164.27420449999988,
      "length": 1570,
      "notes": [
        {
          "name": "D1",
          "midi": 26,
          "time": 0,
          "velocity": 1,
          "duration": 1.8447581875
        },
        {
          "name": "D2",
          "midi": 38,
          "time": 0,
          "velocity": 1,
          "duration": 1.8649194791666668
        },
        {
          "name": "D3",
          "midi": 50,
          "time": 0,
          "velocity": 1,
          "duration": 1.9354840000000002
        },
        {
          "name": "E6",
          "midi": 88,
          "time": 0.967742,
          "velocity": 1,
          "duration": 1.9254033541666673
        },
        {
          "name": "F5",
          "midi": 77,
          "time": 0.967742,
          "velocity": 1,
          "duration": 1.9254033541666673
        },
        {
          "name": "A5",
          "midi": 81,
          "time": 0.967742,
          "velocity": 1,
          "duration": 1.9254033541666673
        },
        {
          "name": "A4",
          "midi": 69,
          "time": 0.967742,
          "velocity": 1,
          "duration": 1.3306452500000003
        },
        {
          "name": "F4",
          "midi": 65,
          "time": 0.967742,
          "velocity": 1,
          "duration": 1.320564604166667
        },
        {
          "name": "E5",
          "midi": 76,
          "time": 0.967742,
          "velocity": 1,
          "duration": 1.4314517083333338
        },
        {
          "name": "C2",
          "midi": 36,
          "time": 1.9354840000000002,
          "velocity": 1,
          "duration": 1.552419458333334
        },
        {
          "name": "C3",
          "midi": 48,
          "time": 1.9354840000000002,
          "velocity": 1,
          "duration": 1.612903333333334
        },
        {
          "name": "C1",
          "midi": 24,
          "time": 1.9354840000000002,
          "velocity": 1,
          "duration": 1.5120968750000006
        },
        {
          "name": "A5",
          "midi": 81,
          "time": 2.9032260000000005,
          "velocity": 1,
          "duration": 0.957661354166667
        },
        {
          "name": "E5",
          "midi": 76,
          "time": 2.9032260000000005,
          "velocity": 1,
          "duration": 0.957661354166667
        },
        {
          "name": "F6",
          "midi": 89,
          "time": 2.9032260000000005,
          "velocity": 1,
          "duration": 0.957661354166667
        },
        {
          "name": "E4",
          "midi": 64,
          "time": 2.9032260000000005,
          "velocity": 1,
          "duration": 1.0282258750000004
        },
        {
          "name": "F5",
          "midi": 77,
          "time": 2.9032260000000005,
          "velocity": 1,
          "duration": 1.0080645833333337
        },
        {
          "name": "A4",
          "midi": 69,
          "time": 2.9032260000000005,
          "velocity": 1,
          "duration": 1.048387166666667
        },
        {
          "name": "C4",
          "midi": 60,
          "time": 3.870968000000001,
          "velocity": 1,
          "duration": 0.957661354166667
        },
        {
          "name": "D3",
          "midi": 50,
          "time": 3.870968000000001,
          "velocity": 1,
          "duration": 0.957661354166667
        },
        {
          "name": "D4",
          "midi": 62,
          "time": 3.870968000000001,
          "velocity": 1,
          "duration": 0.957661354166667
        },
        {
          "name": "A#0",
          "midi": 22,
          "time": 3.870968000000001,
          "velocity": 1,
          "duration": 1.7137097916666666
        },
        {
          "name": "A#2",
          "midi": 46,
          "time": 3.870968000000001,
          "velocity": 1,
          "duration": 1.7137097916666666
        },
        {
          "name": "A#1",
          "midi": 34,
          "time": 3.870968000000001,
          "velocity": 1,
          "duration": 1.7137097916666666
        },
        {
          "name": "A#4",
          "midi": 70,
          "time": 4.838710000000001,
          "velocity": 1,
          "duration": 0.9274194166666669
        },
        {
          "name": "C6",
          "midi": 84,
          "time": 4.838710000000001,
          "velocity": 1,
          "duration": 0.9576613541666665
        },
        {
          "name": "D6",
          "midi": 86,
          "time": 4.838710000000001,
          "velocity": 1,
          "duration": 0.9576613541666665
        },
        {
          "name": "A4",
          "midi": 69,
          "time": 4.838710000000001,
          "velocity": 1,
          "duration": 0.9274194166666669
        },
        {
          "name": "D4",
          "midi": 62,
          "time": 4.838710000000001,
          "velocity": 1,
          "duration": 0.9274194166666669
        },
        {
          "name": "D2",
          "midi": 38,
          "time": 5.806452,
          "velocity": 1,
          "duration": 1.7741936666666671
        },
        {
          "name": "D1",
          "midi": 26,
          "time": 5.806452,
          "velocity": 1,
          "duration": 1.7338710833333337
        },
        {
          "name": "D3",
          "midi": 50,
          "time": 5.806452,
          "velocity": 1,
          "duration": 1.8548388333333339
        },
        {
          "name": "F5",
          "midi": 77,
          "time": 6.7741940000000005,
          "velocity": 1,
          "duration": 1.9254033541666677
        },
        {
          "name": "E6",
          "midi": 88,
          "time": 6.7741940000000005,
          "velocity": 1,
          "duration": 1.9254033541666677
        },
        {
          "name": "A5",
          "midi": 81,
          "time": 6.7741940000000005,
          "velocity": 1,
          "duration": 1.9254033541666677
        },
        {
          "name": "A4",
          "midi": 69,
          "time": 6.7741940000000005,
          "velocity": 1,
          "duration": 1.250000083333334
        },
        {
          "name": "F4",
          "midi": 65,
          "time": 6.7741940000000005,
          "velocity": 1,
          "duration": 1.2096775000000006
        },
        {
          "name": "E5",
          "midi": 76,
          "time": 6.7741940000000005,
          "velocity": 1,
          "duration": 1.1693549166666672
        },
        {
          "name": "C3",
          "midi": 48,
          "time": 7.741936000000001,
          "velocity": 1,
          "duration": 1.6834678541666666
        },
        {
          "name": "C2",
          "midi": 36,
          "time": 7.741936000000001,
          "velocity": 1,
          "duration": 1.6129033333333336
        },
        {
          "name": "C1",
          "midi": 24,
          "time": 7.741936000000001,
          "velocity": 1,
          "duration": 1.653225916666667
        },
        {
          "name": "A5",
          "midi": 81,
          "time": 8.709678000000002,
          "velocity": 1,
          "duration": 0.9576613541666639
        },
        {
          "name": "F6",
          "midi": 89,
          "time": 8.709678000000002,
          "velocity": 1,
          "duration": 0.9576613541666639
        },
        {
          "name": "E5",
          "midi": 76,
          "time": 8.709678000000002,
          "velocity": 1,
          "duration": 0.9576613541666639
        },
        {
          "name": "E4",
          "midi": 64,
          "time": 8.709678000000002,
          "velocity": 1,
          "duration": 0.9576613541666639
        },
        {
          "name": "A4",
          "midi": 69,
          "time": 8.709678000000002,
          "velocity": 1,
          "duration": 0.9375000624999981
        },
        {
          "name": "F5",
          "midi": 77,
          "time": 8.709678000000002,
          "velocity": 1,
          "duration": 0.9576613541666639
        },
        {
          "name": "D4",
          "midi": 62,
          "time": 9.67742,
          "velocity": 1,
          "duration": 0.9576613541666674
        },
        {
          "name": "C4",
          "midi": 60,
          "time": 9.67742,
          "velocity": 1,
          "duration": 0.9576613541666674
        },
        {
          "name": "D3",
          "midi": 50,
          "time": 9.67742,
          "velocity": 1,
          "duration": 0.9576613541666674
        },
        {
          "name": "A#0",
          "midi": 22,
          "time": 9.67742,
          "velocity": 1,
          "duration": 1.8951614166666673
        },
        {
          "name": "A#1",
          "midi": 34,
          "time": 9.67742,
          "velocity": 1,
          "duration": 1.834677541666668
        },
        {
          "name": "A#2",
          "midi": 46,
          "time": 9.67742,
          "velocity": 1,
          "duration": 2.0161291666666674
        },
        {
          "name": "A#4",
          "midi": 70,
          "time": 10.645162000000001,
          "velocity": 1,
          "duration": 0.927419416666666
        },
        {
          "name": "C6",
          "midi": 84,
          "time": 10.645162000000001,
          "velocity": 1,
          "duration": 0.9576613541666656
        },
        {
          "name": "D6",
          "midi": 86,
          "time": 10.645162000000001,
          "velocity": 1,
          "duration": 0.9576613541666656
        },
        {
          "name": "A4",
          "midi": 69,
          "time": 10.645162000000001,
          "velocity": 1,
          "duration": 0.927419416666666
        },
        {
          "name": "D4",
          "midi": 62,
          "time": 10.645162000000001,
          "velocity": 1,
          "duration": 0.927419416666666
        },
        {
          "name": "A0",
          "midi": 21,
          "time": 11.612904,
          "velocity": 1,
          "duration": 0.6451613333333341
        },
        {
          "name": "A2",
          "midi": 45,
          "time": 11.612904,
          "velocity": 1,
          "duration": 1.6834678541666683
        },
        {
          "name": "A1",
          "midi": 33,
          "time": 11.612904,
          "velocity": 1,
          "duration": 1.643145270833335
        },
        {
          "name": "A0",
          "midi": 21,
          "time": 11.612904,
          "velocity": 0.7874015748031497,
          "duration": 0.6451613333333341
        },
        {
          "name": "A0",
          "midi": 21,
          "time": 11.612904,
          "velocity": 0.7874015748031497,
          "duration": 1.5625001041666682
        },
        {
          "name": "A4",
          "midi": 69,
          "time": 12.580646000000002,
          "velocity": 1,
          "duration": 1.9254033541666686
        },
        {
          "name": "E5",
          "midi": 76,
          "time": 12.580646000000002,
          "velocity": 1,
          "duration": 1.9254033541666686
        },
        {
          "name": "F5",
          "midi": 77,
          "time": 12.580646000000002,
          "velocity": 1,
          "duration": 1.9254033541666686
        },
        {
          "name": "A5",
          "midi": 81,
          "time": 12.580646000000002,
          "velocity": 1,
          "duration": 1.9254033541666686
        },
        {
          "name": "E6",
          "midi": 88,
          "time": 12.580646000000002,
          "velocity": 1,
          "duration": 1.9254033541666686
        },
        {
          "name": "F6",
          "midi": 89,
          "time": 12.580646000000002,
          "velocity": 1,
          "duration": 1.9254033541666686
        },
        {
          "name": "A6",
          "midi": 93,
          "time": 12.580646000000002,
          "velocity": 1,
          "duration": 1.9254033541666686
        },
        {
          "name": "A2",
          "midi": 45,
          "time": 13.548388000000003,
          "velocity": 1,
          "duration": 5.483871333333337
        },
        {
          "name": "A1",
          "midi": 33,
          "time": 13.548388000000003,
          "velocity": 1,
          "duration": 5.514113270833338
        },
        {
          "name": "A3",
          "midi": 57,
          "time": 13.548388000000003,
          "velocity": 1,
          "duration": 5.383064875000002
        },
        {
          "name": "D5",
          "midi": 74,
          "time": 14.516130000000004,
          "velocity": 1,
          "duration": 0.9576613541666674
        },
        {
          "name": "G5",
          "midi": 79,
          "time": 14.516130000000004,
          "velocity": 1,
          "duration": 0.9576613541666674
        },
        {
          "name": "E5",
          "midi": 76,
          "time": 14.516130000000004,
          "velocity": 1,
          "duration": 0.9576613541666674
        },
        {
          "name": "E6",
          "midi": 88,
          "time": 14.516130000000004,
          "velocity": 1,
          "duration": 0.9576613541666674
        },
        {
          "name": "D6",
          "midi": 86,
          "time": 14.516130000000004,
          "velocity": 1,
          "duration": 0.9576613541666674
        },
        {
          "name": "G6",
          "midi": 91,
          "time": 14.516130000000004,
          "velocity": 1,
          "duration": 0.9576613541666674
        },
        {
          "name": "A4",
          "midi": 69,
          "time": 15.483872000000005,
          "velocity": 1,
          "duration": 0.9072581249999985
        },
        {
          "name": "F5",
          "midi": 77,
          "time": 15.483872000000005,
          "velocity": 1,
          "duration": 0.9072581249999985
        },
        {
          "name": "E5",
          "midi": 76,
          "time": 15.483872000000005,
          "velocity": 1,
          "duration": 0.9072581249999985
        },
        {
          "name": "E6",
          "midi": 88,
          "time": 15.483872000000005,
          "velocity": 1,
          "duration": 0.9072581249999985
        },
        {
          "name": "F6",
          "midi": 89,
          "time": 15.483872000000005,
          "velocity": 1,
          "duration": 0.9072581249999985
        },
        {
          "name": "A6",
          "midi": 93,
          "time": 15.483872000000005,
          "velocity": 1,
          "duration": 0.9072581249999985
        },
        {
          "name": "D5",
          "midi": 74,
          "time": 16.451614000000003,
          "velocity": 1,
          "duration": 0.9576613541666674
        },
        {
          "name": "E5",
          "midi": 76,
          "time": 16.451614000000003,
          "velocity": 1,
          "duration": 0.9576613541666674
        },
        {
          "name": "G5",
          "midi": 79,
          "time": 16.451614000000003,
          "velocity": 1,
          "duration": 0.9576613541666674
        },
        {
          "name": "E6",
          "midi": 88,
          "time": 16.451614000000003,
          "velocity": 1,
          "duration": 0.9576613541666674
        },
        {
          "name": "D6",
          "midi": 86,
          "time": 16.451614000000003,
          "velocity": 1,
          "duration": 0.9576613541666674
        },
        {
          "name": "G6",
          "midi": 91,
          "time": 16.451614000000003,
          "velocity": 1,
          "duration": 0.9576613541666674
        },
        {
          "name": "G5",
          "midi": 79,
          "time": 17.419356000000004,
          "velocity": 1,
          "duration": 0.9576613541666674
        },
        {
          "name": "E5",
          "midi": 76,
          "time": 17.419356000000004,
          "velocity": 1,
          "duration": 0.9576613541666674
        },
        {
          "name": "D5",
          "midi": 74,
          "time": 17.419356000000004,
          "velocity": 1,
          "duration": 0.9576613541666674
        },
        {
          "name": "E6",
          "midi": 88,
          "time": 17.419356000000004,
          "velocity": 1,
          "duration": 0.9576613541666674
        },
        {
          "name": "D6",
          "midi": 86,
          "time": 17.419356000000004,
          "velocity": 1,
          "duration": 0.9576613541666674
        },
        {
          "name": "G6",
          "midi": 91,
          "time": 17.419356000000004,
          "velocity": 1,
          "duration": 0.9576613541666674
        },
        {
          "name": "F5",
          "midi": 77,
          "time": 18.387098000000005,
          "velocity": 1,
          "duration": 0.9576613541666674
        },
        {
          "name": "E5",
          "midi": 76,
          "time": 18.387098000000005,
          "velocity": 1,
          "duration": 0.9576613541666674
        },
        {
          "name": "D5",
          "midi": 74,
          "time": 18.387098000000005,
          "velocity": 1,
          "duration": 0.9576613541666674
        },
        {
          "name": "D6",
          "midi": 86,
          "time": 18.387098000000005,
          "velocity": 1,
          "duration": 0.9576613541666674
        },
        {
          "name": "E6",
          "midi": 88,
          "time": 18.387098000000005,
          "velocity": 1,
          "duration": 0.9576613541666674
        },
        {
          "name": "F6",
          "midi": 89,
          "time": 18.387098000000005,
          "velocity": 1,
          "duration": 0.9576613541666674
        },
        {
          "name": "D5",
          "midi": 74,
          "time": 19.354840000000006,
          "velocity": 1,
          "duration": 3.8608873541666675
        },
        {
          "name": "A4",
          "midi": 69,
          "time": 19.354840000000006,
          "velocity": 1,
          "duration": 3.8608873541666675
        },
        {
          "name": "E5",
          "midi": 76,
          "time": 19.354840000000006,
          "velocity": 1,
          "duration": 3.8608873541666675
        },
        {
          "name": "D6",
          "midi": 86,
          "time": 19.354840000000006,
          "velocity": 1,
          "duration": 3.8608873541666675
        },
        {
          "name": "E6",
          "midi": 88,
          "time": 19.354840000000006,
          "velocity": 1,
          "duration": 3.8608873541666675
        },
        {
          "name": "A5",
          "midi": 81,
          "time": 19.354840000000006,
          "velocity": 1,
          "duration": 3.8608873541666675
        },
        {
          "name": "D2",
          "midi": 38,
          "time": 23.467743500000008,
          "velocity": 0.8976377952755905,
          "duration": 0.8215726354166684
        },
        {
          "name": "D1",
          "midi": 26,
          "time": 23.467743500000008,
          "velocity": 0.8976377952755905,
          "duration": 0.7862903750000001
        },
        {
          "name": "D2",
          "midi": 38,
          "time": 23.467743500000008,
          "velocity": 0.8976377952755905,
          "duration": 0.8215726354166684
        },
        {
          "name": "D1",
          "midi": 26,
          "time": 23.467743500000008,
          "velocity": 0.8976377952755905,
          "duration": 0.7862903750000001
        },
        {
          "name": "C3",
          "midi": 48,
          "time": 23.70967900000001,
          "velocity": 0.6850393700787402,
          "duration": 0.21673388541666583
        },
        {
          "name": "C4",
          "midi": 60,
          "time": 23.70967900000001,
          "velocity": 0.7244094488188977,
          "duration": 0.2620967916666679
        },
        {
          "name": "C3",
          "midi": 48,
          "time": 23.70967900000001,
          "velocity": 0.6850393700787402,
          "duration": 0.21673388541666583
        },
        {
          "name": "C4",
          "midi": 60,
          "time": 23.70967900000001,
          "velocity": 0.7244094488188977,
          "duration": 0.2620967916666679
        },
        {
          "name": "A2",
          "midi": 45,
          "time": 23.95161450000001,
          "velocity": 0.7244094488188977,
          "duration": 0.186491947916668
        },
        {
          "name": "A3",
          "midi": 57,
          "time": 23.95161450000001,
          "velocity": 0.7559055118110236,
          "duration": 0.18145162500000112
        },
        {
          "name": "A2",
          "midi": 45,
          "time": 23.95161450000001,
          "velocity": 0.7244094488188977,
          "duration": 0.186491947916668
        },
        {
          "name": "A3",
          "midi": 57,
          "time": 23.95161450000001,
          "velocity": 0.7559055118110236,
          "duration": 0.18145162500000112
        },
        {
          "name": "D3",
          "midi": 50,
          "time": 24.19355000000001,
          "velocity": 0.7165354330708661,
          "duration": 0.08064516666666677
        },
        {
          "name": "D4",
          "midi": 62,
          "time": 24.19355000000001,
          "velocity": 0.7480314960629921,
          "duration": 0.09576613541666745
        },
        {
          "name": "D3",
          "midi": 50,
          "time": 24.19355000000001,
          "velocity": 0.7165354330708661,
          "duration": 0.08064516666666677
        },
        {
          "name": "D4",
          "midi": 62,
          "time": 24.19355000000001,
          "velocity": 0.7480314960629921,
          "duration": 0.09576613541666745
        },
        {
          "name": "D1",
          "midi": 26,
          "time": 24.43548550000001,
          "velocity": 0.8976377952755905,
          "duration": 0.7862903750000001
        },
        {
          "name": "D2",
          "midi": 38,
          "time": 24.43548550000001,
          "velocity": 0.8976377952755905,
          "duration": 0.7711694062499994
        },
        {
          "name": "D1",
          "midi": 26,
          "time": 24.43548550000001,
          "velocity": 0.8976377952755905,
          "duration": 0.7862903750000001
        },
        {
          "name": "D2",
          "midi": 38,
          "time": 24.43548550000001,
          "velocity": 0.8976377952755905,
          "duration": 0.7711694062499994
        },
        {
          "name": "C4",
          "midi": 60,
          "time": 24.67742100000001,
          "velocity": 0.7165354330708661,
          "duration": 0.2419355000000003
        },
        {
          "name": "C3",
          "midi": 48,
          "time": 24.67742100000001,
          "velocity": 0.6929133858267716,
          "duration": 0.20665323958333204
        },
        {
          "name": "C4",
          "midi": 60,
          "time": 24.67742100000001,
          "velocity": 0.7165354330708661,
          "duration": 0.2419355000000003
        },
        {
          "name": "C3",
          "midi": 48,
          "time": 24.67742100000001,
          "velocity": 0.6929133858267716,
          "duration": 0.20665323958333204
        },
        {
          "name": "A2",
          "midi": 45,
          "time": 24.91935650000001,
          "velocity": 0.7480314960629921,
          "duration": 0.18145162500000112
        },
        {
          "name": "A3",
          "midi": 57,
          "time": 24.91935650000001,
          "velocity": 0.6771653543307087,
          "duration": 0.186491947916668
        },
        {
          "name": "A2",
          "midi": 45,
          "time": 24.91935650000001,
          "velocity": 0.7480314960629921,
          "duration": 0.18145162500000112
        },
        {
          "name": "A3",
          "midi": 57,
          "time": 24.91935650000001,
          "velocity": 0.6771653543307087,
          "duration": 0.186491947916668
        },
        {
          "name": "D3",
          "midi": 50,
          "time": 25.16129200000001,
          "velocity": 0.7401574803149606,
          "duration": 0.12600807291666527
        },
        {
          "name": "D4",
          "midi": 62,
          "time": 25.16129200000001,
          "velocity": 0.7322834645669292,
          "duration": 0.1008064583333308
        },
        {
          "name": "D3",
          "midi": 50,
          "time": 25.16129200000001,
          "velocity": 0.7401574803149606,
          "duration": 0.12600807291666527
        },
        {
          "name": "D4",
          "midi": 62,
          "time": 25.16129200000001,
          "velocity": 0.7322834645669292,
          "duration": 0.1008064583333308
        },
        {
          "name": "D1",
          "midi": 26,
          "time": 25.40322750000001,
          "velocity": 0.8976377952755905,
          "duration": 0.7056452083333369
        },
        {
          "name": "D2",
          "midi": 38,
          "time": 25.40322750000001,
          "velocity": 0.8976377952755905,
          "duration": 0.6754032708333355
        },
        {
          "name": "D1",
          "midi": 26,
          "time": 25.40322750000001,
          "velocity": 0.8976377952755905,
          "duration": 0.7056452083333369
        },
        {
          "name": "D2",
          "midi": 38,
          "time": 25.40322750000001,
          "velocity": 0.8976377952755905,
          "duration": 0.6754032708333355
        },
        {
          "name": "C3",
          "midi": 48,
          "time": 25.64516300000001,
          "velocity": 0.7559055118110236,
          "duration": 0.1915322708333349
        },
        {
          "name": "C4",
          "midi": 60,
          "time": 25.64516300000001,
          "velocity": 0.7559055118110236,
          "duration": 0.1965725937500018
        },
        {
          "name": "C3",
          "midi": 48,
          "time": 25.64516300000001,
          "velocity": 0.7559055118110236,
          "duration": 0.1915322708333349
        },
        {
          "name": "C4",
          "midi": 60,
          "time": 25.64516300000001,
          "velocity": 0.7559055118110236,
          "duration": 0.1965725937500018
        },
        {
          "name": "A2",
          "midi": 45,
          "time": 25.88709850000001,
          "velocity": 0.7637795275590551,
          "duration": 0.25201614583333765
        },
        {
          "name": "A3",
          "midi": 57,
          "time": 25.88709850000001,
          "velocity": 0.7480314960629921,
          "duration": 0.18145162500000112
        },
        {
          "name": "A2",
          "midi": 45,
          "time": 25.88709850000001,
          "velocity": 0.7637795275590551,
          "duration": 0.25201614583333765
        },
        {
          "name": "A3",
          "midi": 57,
          "time": 25.88709850000001,
          "velocity": 0.7480314960629921,
          "duration": 0.18145162500000112
        },
        {
          "name": "D3",
          "midi": 50,
          "time": 26.129034000000015,
          "velocity": 0.7559055118110236,
          "duration": 0.09576613541666745
        },
        {
          "name": "D4",
          "midi": 62,
          "time": 26.129034000000015,
          "velocity": 0.7165354330708661,
          "duration": 0.08064516666666677
        },
        {
          "name": "D3",
          "midi": 50,
          "time": 26.129034000000015,
          "velocity": 0.7559055118110236,
          "duration": 0.09576613541666745
        },
        {
          "name": "D4",
          "midi": 62,
          "time": 26.129034000000015,
          "velocity": 0.7165354330708661,
          "duration": 0.08064516666666677
        },
        {
          "name": "D2",
          "midi": 38,
          "time": 26.370969500000015,
          "velocity": 0.8976377952755905,
          "duration": 0.8215726354166684
        },
        {
          "name": "D1",
          "midi": 26,
          "time": 26.370969500000015,
          "velocity": 0.8976377952755905,
          "duration": 0.7862903750000001
        },
        {
          "name": "C3",
          "midi": 48,
          "time": 26.612905000000016,
          "velocity": 0.6850393700787402,
          "duration": 0.21673388541666583
        },
        {
          "name": "C4",
          "midi": 60,
          "time": 26.612905000000016,
          "velocity": 0.7244094488188977,
          "duration": 0.2620967916666679
        },
        {
          "name": "A2",
          "midi": 45,
          "time": 26.854840500000016,
          "velocity": 0.7244094488188977,
          "duration": 0.186491947916668
        },
        {
          "name": "A3",
          "midi": 57,
          "time": 26.854840500000016,
          "velocity": 0.7559055118110236,
          "duration": 0.18145162500000112
        },
        {
          "name": "D3",
          "midi": 50,
          "time": 27.096776000000016,
          "velocity": 0.7165354330708661,
          "duration": 0.08064516666666677
        },
        {
          "name": "D4",
          "midi": 62,
          "time": 27.096776000000016,
          "velocity": 0.7480314960629921,
          "duration": 0.09576613541666745
        },
        {
          "name": "D1",
          "midi": 26,
          "time": 27.338711500000016,
          "velocity": 0.8976377952755905,
          "duration": 0.7862903750000001
        },
        {
          "name": "D2",
          "midi": 38,
          "time": 27.338711500000016,
          "velocity": 0.8976377952755905,
          "duration": 0.7711694062499994
        },
        {
          "name": "C4",
          "midi": 60,
          "time": 27.580647000000017,
          "velocity": 0.7165354330708661,
          "duration": 0.2419355000000003
        },
        {
          "name": "C3",
          "midi": 48,
          "time": 27.580647000000017,
          "velocity": 0.6929133858267716,
          "duration": 0.20665323958333204
        },
        {
          "name": "A2",
          "midi": 45,
          "time": 27.822582500000017,
          "velocity": 0.7480314960629921,
          "duration": 0.18145162500000112
        },
        {
          "name": "A3",
          "midi": 57,
          "time": 27.822582500000017,
          "velocity": 0.6771653543307087,
          "duration": 0.186491947916668
        },
        {
          "name": "D3",
          "midi": 50,
          "time": 28.064518000000017,
          "velocity": 0.7401574803149606,
          "duration": 0.12600807291666527
        },
        {
          "name": "D4",
          "midi": 62,
          "time": 28.064518000000017,
          "velocity": 0.7322834645669292,
          "duration": 0.1008064583333308
        },
        {
          "name": "D1",
          "midi": 26,
          "time": 28.306453500000018,
          "velocity": 0.8976377952755905,
          "duration": 0.7056452083333369
        },
        {
          "name": "D2",
          "midi": 38,
          "time": 28.306453500000018,
          "velocity": 0.8976377952755905,
          "duration": 0.6754032708333355
        },
        {
          "name": "C3",
          "midi": 48,
          "time": 28.548389000000018,
          "velocity": 0.7559055118110236,
          "duration": 0.1915322708333349
        },
        {
          "name": "C4",
          "midi": 60,
          "time": 28.548389000000018,
          "velocity": 0.7559055118110236,
          "duration": 0.1965725937500018
        },
        {
          "name": "A2",
          "midi": 45,
          "time": 28.79032450000002,
          "velocity": 0.7637795275590551,
          "duration": 0.25201614583333765
        },
        {
          "name": "A3",
          "midi": 57,
          "time": 28.79032450000002,
          "velocity": 0.7480314960629921,
          "duration": 0.18145162500000112
        },
        {
          "name": "D3",
          "midi": 50,
          "time": 29.032260000000022,
          "velocity": 0.7559055118110236,
          "duration": 0.09576613541666745
        },
        {
          "name": "D4",
          "midi": 62,
          "time": 29.032260000000022,
          "velocity": 0.7165354330708661,
          "duration": 0.08064516666666677
        },
        {
          "name": "D2",
          "midi": 38,
          "time": 29.274195500000022,
          "velocity": 0.8976377952755905,
          "duration": 0.8215726354166684
        },
        {
          "name": "D1",
          "midi": 26,
          "time": 29.274195500000022,
          "velocity": 0.8976377952755905,
          "duration": 0.7862903750000001
        },
        {
          "name": "C3",
          "midi": 48,
          "time": 29.516131000000023,
          "velocity": 0.6850393700787402,
          "duration": 0.21673388541666583
        },
        {
          "name": "C4",
          "midi": 60,
          "time": 29.516131000000023,
          "velocity": 0.7244094488188977,
          "duration": 0.2620967916666679
        },
        {
          "name": "A2",
          "midi": 45,
          "time": 29.758066500000023,
          "velocity": 0.7244094488188977,
          "duration": 0.186491947916668
        },
        {
          "name": "A3",
          "midi": 57,
          "time": 29.758066500000023,
          "velocity": 0.7559055118110236,
          "duration": 0.18145162500000112
        },
        {
          "name": "D3",
          "midi": 50,
          "time": 30.000002000000023,
          "velocity": 0.7165354330708661,
          "duration": 0.08064516666666677
        },
        {
          "name": "D4",
          "midi": 62,
          "time": 30.000002000000023,
          "velocity": 0.7480314960629921,
          "duration": 0.09576613541666745
        },
        {
          "name": "D1",
          "midi": 26,
          "time": 30.241937500000024,
          "velocity": 0.8976377952755905,
          "duration": 0.7862903750000001
        },
        {
          "name": "D2",
          "midi": 38,
          "time": 30.241937500000024,
          "velocity": 0.8976377952755905,
          "duration": 0.7711694062499994
        },
        {
          "name": "C4",
          "midi": 60,
          "time": 30.483873000000024,
          "velocity": 0.7165354330708661,
          "duration": 0.2419355000000003
        },
        {
          "name": "C3",
          "midi": 48,
          "time": 30.483873000000024,
          "velocity": 0.6929133858267716,
          "duration": 0.20665323958333204
        },
        {
          "name": "A2",
          "midi": 45,
          "time": 30.725808500000024,
          "velocity": 0.7480314960629921,
          "duration": 0.18145162500000112
        },
        {
          "name": "A3",
          "midi": 57,
          "time": 30.725808500000024,
          "velocity": 0.6771653543307087,
          "duration": 0.186491947916668
        },
        {
          "name": "D3",
          "midi": 50,
          "time": 30.967744000000025,
          "velocity": 0.7401574803149606,
          "duration": 0.12600807291666527
        },
        {
          "name": "D4",
          "midi": 62,
          "time": 30.967744000000025,
          "velocity": 0.7322834645669292,
          "duration": 0.1008064583333308
        },
        {
          "name": "D1",
          "midi": 26,
          "time": 31.209679500000025,
          "velocity": 0.8976377952755905,
          "duration": 0.7056452083333369
        },
        {
          "name": "D2",
          "midi": 38,
          "time": 31.209679500000025,
          "velocity": 0.8976377952755905,
          "duration": 0.6754032708333355
        },
        {
          "name": "C3",
          "midi": 48,
          "time": 31.451615000000025,
          "velocity": 0.7559055118110236,
          "duration": 0.1915322708333349
        },
        {
          "name": "C4",
          "midi": 60,
          "time": 31.451615000000025,
          "velocity": 0.7559055118110236,
          "duration": 0.1965725937500018
        },
        {
          "name": "A2",
          "midi": 45,
          "time": 31.693550500000025,
          "velocity": 0.7637795275590551,
          "duration": 0.25201614583333765
        },
        {
          "name": "A3",
          "midi": 57,
          "time": 31.693550500000025,
          "velocity": 0.7480314960629921,
          "duration": 0.18145162500000112
        },
        {
          "name": "D3",
          "midi": 50,
          "time": 31.93548600000003,
          "velocity": 0.7559055118110236,
          "duration": 0.0957661354166639
        },
        {
          "name": "D4",
          "midi": 62,
          "time": 31.93548600000003,
          "velocity": 0.7165354330708661,
          "duration": 0.08064516666666677
        },
        {
          "name": "D2",
          "midi": 38,
          "time": 32.17742150000003,
          "velocity": 0.8976377952755905,
          "duration": 0.8215726354166577
        },
        {
          "name": "D1",
          "midi": 26,
          "time": 32.17742150000003,
          "velocity": 0.8976377952755905,
          "duration": 0.786290374999993
        },
        {
          "name": "C3",
          "midi": 48,
          "time": 32.419357000000026,
          "velocity": 0.6850393700787402,
          "duration": 0.21673388541666583
        },
        {
          "name": "C4",
          "midi": 60,
          "time": 32.419357000000026,
          "velocity": 0.7244094488188977,
          "duration": 0.26209679166666433
        },
        {
          "name": "A2",
          "midi": 45,
          "time": 32.66129250000002,
          "velocity": 0.7244094488188977,
          "duration": 0.18649194791666446
        },
        {
          "name": "A3",
          "midi": 57,
          "time": 32.66129250000002,
          "velocity": 0.7559055118110236,
          "duration": 0.18145162500000112
        },
        {
          "name": "D3",
          "midi": 50,
          "time": 32.90322800000002,
          "velocity": 0.7165354330708661,
          "duration": 0.08064516666667032
        },
        {
          "name": "D4",
          "midi": 62,
          "time": 32.90322800000002,
          "velocity": 0.7480314960629921,
          "duration": 0.09576613541666745
        },
        {
          "name": "D1",
          "midi": 26,
          "time": 33.145163500000024,
          "velocity": 0.8976377952755905,
          "duration": 0.7862903749999859
        },
        {
          "name": "D2",
          "midi": 38,
          "time": 33.145163500000024,
          "velocity": 0.8976377952755905,
          "duration": 0.7711694062499888
        },
        {
          "name": "C4",
          "midi": 60,
          "time": 33.38709900000002,
          "velocity": 0.7165354330708661,
          "duration": 0.24193549999999675
        },
        {
          "name": "C3",
          "midi": 48,
          "time": 33.38709900000002,
          "velocity": 0.6929133858267716,
          "duration": 0.20665323958333204
        },
        {
          "name": "A2",
          "midi": 45,
          "time": 33.62903450000002,
          "velocity": 0.7480314960629921,
          "duration": 0.18145162500000112
        },
        {
          "name": "A3",
          "midi": 57,
          "time": 33.62903450000002,
          "velocity": 0.6771653543307087,
          "duration": 0.18649194791666446
        },
        {
          "name": "D3",
          "midi": 50,
          "time": 33.870970000000014,
          "velocity": 0.7401574803149606,
          "duration": 0.12600807291666172
        },
        {
          "name": "D4",
          "midi": 62,
          "time": 33.870970000000014,
          "velocity": 0.7322834645669292,
          "duration": 0.1008064583333308
        },
        {
          "name": "D1",
          "midi": 26,
          "time": 34.11290550000001,
          "velocity": 0.8976377952755905,
          "duration": 0.7056452083333298
        },
        {
          "name": "D2",
          "midi": 38,
          "time": 34.11290550000001,
          "velocity": 0.8976377952755905,
          "duration": 0.6754032708333284
        },
        {
          "name": "C3",
          "midi": 48,
          "time": 34.35484100000001,
          "velocity": 0.7559055118110236,
          "duration": 0.1915322708333349
        },
        {
          "name": "C4",
          "midi": 60,
          "time": 34.35484100000001,
          "velocity": 0.7559055118110236,
          "duration": 0.19657259374999825
        },
        {
          "name": "A2",
          "midi": 45,
          "time": 34.596776500000004,
          "velocity": 0.7637795275590551,
          "duration": 0.25201614583333765
        },
        {
          "name": "A3",
          "midi": 57,
          "time": 34.596776500000004,
          "velocity": 0.7480314960629921,
          "duration": 0.18145162500000112
        },
        {
          "name": "D3",
          "midi": 50,
          "time": 34.83871200000001,
          "velocity": 0.7559055118110236,
          "duration": 0.09576613541666745
        },
        {
          "name": "D4",
          "midi": 62,
          "time": 34.83871200000001,
          "velocity": 0.7165354330708661,
          "duration": 0.08064516666667032
        },
        {
          "name": "D2",
          "midi": 38,
          "time": 35.08064750000001,
          "velocity": 0.8976377952755905,
          "duration": 0.8215726354166577
        },
        {
          "name": "D1",
          "midi": 26,
          "time": 35.08064750000001,
          "velocity": 0.8976377952755905,
          "duration": 0.786290374999993
        },
        {
          "name": "C3",
          "midi": 48,
          "time": 35.32258300000001,
          "velocity": 0.6850393700787402,
          "duration": 0.21673388541666583
        },
        {
          "name": "C4",
          "midi": 60,
          "time": 35.32258300000001,
          "velocity": 0.7244094488188977,
          "duration": 0.26209679166666433
        },
        {
          "name": "A2",
          "midi": 45,
          "time": 35.564518500000005,
          "velocity": 0.7244094488188977,
          "duration": 0.18649194791666446
        },
        {
          "name": "A3",
          "midi": 57,
          "time": 35.564518500000005,
          "velocity": 0.7559055118110236,
          "duration": 0.18145162500000112
        },
        {
          "name": "D3",
          "midi": 50,
          "time": 35.806454,
          "velocity": 0.7165354330708661,
          "duration": 0.08064516666667032
        },
        {
          "name": "D4",
          "midi": 62,
          "time": 35.806454,
          "velocity": 0.7480314960629921,
          "duration": 0.09576613541666745
        },
        {
          "name": "D1",
          "midi": 26,
          "time": 36.048389500000006,
          "velocity": 0.8976377952755905,
          "duration": 0.7862903749999859
        },
        {
          "name": "D2",
          "midi": 38,
          "time": 36.048389500000006,
          "velocity": 0.8976377952755905,
          "duration": 0.7711694062499888
        },
        {
          "name": "C4",
          "midi": 60,
          "time": 36.290325,
          "velocity": 0.7165354330708661,
          "duration": 0.24193549999999675
        },
        {
          "name": "C3",
          "midi": 48,
          "time": 36.290325,
          "velocity": 0.6929133858267716,
          "duration": 0.20665323958333204
        },
        {
          "name": "A2",
          "midi": 45,
          "time": 36.5322605,
          "velocity": 0.7480314960629921,
          "duration": 0.18145162500000112
        },
        {
          "name": "A3",
          "midi": 57,
          "time": 36.5322605,
          "velocity": 0.6771653543307087,
          "duration": 0.18649194791666446
        },
        {
          "name": "D3",
          "midi": 50,
          "time": 36.774195999999996,
          "velocity": 0.7401574803149606,
          "duration": 0.12600807291666172
        },
        {
          "name": "D4",
          "midi": 62,
          "time": 36.774195999999996,
          "velocity": 0.7322834645669292,
          "duration": 0.1008064583333308
        },
        {
          "name": "D1",
          "midi": 26,
          "time": 37.01613149999999,
          "velocity": 0.8976377952755905,
          "duration": 0.7056452083333298
        },
        {
          "name": "D2",
          "midi": 38,
          "time": 37.01613149999999,
          "velocity": 0.8976377952755905,
          "duration": 0.6754032708333284
        },
        {
          "name": "C3",
          "midi": 48,
          "time": 37.25806699999999,
          "velocity": 0.7559055118110236,
          "duration": 0.1915322708333349
        },
        {
          "name": "C4",
          "midi": 60,
          "time": 37.25806699999999,
          "velocity": 0.7559055118110236,
          "duration": 0.19657259374999825
        },
        {
          "name": "A2",
          "midi": 45,
          "time": 37.50000249999999,
          "velocity": 0.7637795275590551,
          "duration": 0.25201614583333765
        },
        {
          "name": "A3",
          "midi": 57,
          "time": 37.50000249999999,
          "velocity": 0.7480314960629921,
          "duration": 0.18145162500000112
        },
        {
          "name": "D3",
          "midi": 50,
          "time": 37.74193799999999,
          "velocity": 0.7559055118110236,
          "duration": 0.09576613541666745
        },
        {
          "name": "D4",
          "midi": 62,
          "time": 37.74193799999999,
          "velocity": 0.7165354330708661,
          "duration": 0.08064516666667032
        },
        {
          "name": "D2",
          "midi": 38,
          "time": 37.983873499999994,
          "velocity": 0.8976377952755905,
          "duration": 0.8215726354166577
        },
        {
          "name": "D1",
          "midi": 26,
          "time": 37.983873499999994,
          "velocity": 0.8976377952755905,
          "duration": 0.786290374999993
        },
        {
          "name": "C3",
          "midi": 48,
          "time": 38.22580899999999,
          "velocity": 0.6850393700787402,
          "duration": 0.21673388541666583
        },
        {
          "name": "C4",
          "midi": 60,
          "time": 38.22580899999999,
          "velocity": 0.7244094488188977,
          "duration": 0.26209679166666433
        },
        {
          "name": "A2",
          "midi": 45,
          "time": 38.46774449999999,
          "velocity": 0.7244094488188977,
          "duration": 0.18649194791666446
        },
        {
          "name": "A3",
          "midi": 57,
          "time": 38.46774449999999,
          "velocity": 0.7559055118110236,
          "duration": 0.18145162500000112
        },
        {
          "name": "D3",
          "midi": 50,
          "time": 38.709679999999985,
          "velocity": 0.7165354330708661,
          "duration": 0.08064516666667032
        },
        {
          "name": "D4",
          "midi": 62,
          "time": 38.709679999999985,
          "velocity": 0.7480314960629921,
          "duration": 0.09576613541666745
        },
        {
          "name": "D1",
          "midi": 26,
          "time": 38.95161549999999,
          "velocity": 0.8976377952755905,
          "duration": 0.7862903749999859
        },
        {
          "name": "D2",
          "midi": 38,
          "time": 38.95161549999999,
          "velocity": 0.8976377952755905,
          "duration": 0.7711694062499888
        },
        {
          "name": "C4",
          "midi": 60,
          "time": 39.193550999999985,
          "velocity": 0.7165354330708661,
          "duration": 0.24193549999999675
        },
        {
          "name": "C3",
          "midi": 48,
          "time": 39.193550999999985,
          "velocity": 0.6929133858267716,
          "duration": 0.20665323958333204
        },
        {
          "name": "A2",
          "midi": 45,
          "time": 39.43548649999998,
          "velocity": 0.7480314960629921,
          "duration": 0.18145162500000112
        },
        {
          "name": "A3",
          "midi": 57,
          "time": 39.43548649999998,
          "velocity": 0.6771653543307087,
          "duration": 0.18649194791666446
        },
        {
          "name": "D3",
          "midi": 50,
          "time": 39.67742199999998,
          "velocity": 0.7401574803149606,
          "duration": 0.12600807291666172
        },
        {
          "name": "D4",
          "midi": 62,
          "time": 39.67742199999998,
          "velocity": 0.7322834645669292,
          "duration": 0.1008064583333308
        },
        {
          "name": "D1",
          "midi": 26,
          "time": 39.919357499999975,
          "velocity": 0.8976377952755905,
          "duration": 0.7056452083333298
        },
        {
          "name": "D2",
          "midi": 38,
          "time": 39.919357499999975,
          "velocity": 0.8976377952755905,
          "duration": 0.6754032708333284
        },
        {
          "name": "C3",
          "midi": 48,
          "time": 40.16129299999997,
          "velocity": 0.7559055118110236,
          "duration": 0.1915322708333349
        },
        {
          "name": "C4",
          "midi": 60,
          "time": 40.16129299999997,
          "velocity": 0.7559055118110236,
          "duration": 0.19657259374999825
        },
        {
          "name": "A2",
          "midi": 45,
          "time": 40.40322849999997,
          "velocity": 0.7637795275590551,
          "duration": 0.25201614583333765
        },
        {
          "name": "A3",
          "midi": 57,
          "time": 40.40322849999997,
          "velocity": 0.7480314960629921,
          "duration": 0.18145162500000112
        },
        {
          "name": "D3",
          "midi": 50,
          "time": 40.64516399999997,
          "velocity": 0.7559055118110236,
          "duration": 0.09576613541666745
        },
        {
          "name": "D4",
          "midi": 62,
          "time": 40.64516399999997,
          "velocity": 0.7165354330708661,
          "duration": 0.08064516666667032
        },
        {
          "name": "D2",
          "midi": 38,
          "time": 40.88709949999998,
          "velocity": 0.8976377952755905,
          "duration": 0.8215726354166577
        },
        {
          "name": "D1",
          "midi": 26,
          "time": 40.88709949999998,
          "velocity": 0.8976377952755905,
          "duration": 0.786290374999993
        },
        {
          "name": "C3",
          "midi": 48,
          "time": 41.12903499999997,
          "velocity": 0.6850393700787402,
          "duration": 0.21673388541666583
        },
        {
          "name": "C4",
          "midi": 60,
          "time": 41.12903499999997,
          "velocity": 0.7244094488188977,
          "duration": 0.26209679166666433
        },
        {
          "name": "A2",
          "midi": 45,
          "time": 41.37097049999997,
          "velocity": 0.7244094488188977,
          "duration": 0.18649194791666446
        },
        {
          "name": "A3",
          "midi": 57,
          "time": 41.37097049999997,
          "velocity": 0.7559055118110236,
          "duration": 0.18145162500000112
        },
        {
          "name": "D3",
          "midi": 50,
          "time": 41.61290599999997,
          "velocity": 0.7165354330708661,
          "duration": 0.08064516666667032
        },
        {
          "name": "D4",
          "midi": 62,
          "time": 41.61290599999997,
          "velocity": 0.7480314960629921,
          "duration": 0.09576613541666745
        },
        {
          "name": "D1",
          "midi": 26,
          "time": 41.85484149999997,
          "velocity": 0.8976377952755905,
          "duration": 0.7862903749999859
        },
        {
          "name": "D2",
          "midi": 38,
          "time": 41.85484149999997,
          "velocity": 0.8976377952755905,
          "duration": 0.7711694062499888
        },
        {
          "name": "C4",
          "midi": 60,
          "time": 42.09677699999997,
          "velocity": 0.7165354330708661,
          "duration": 0.24193549999999675
        },
        {
          "name": "C3",
          "midi": 48,
          "time": 42.09677699999997,
          "velocity": 0.6929133858267716,
          "duration": 0.20665323958333204
        },
        {
          "name": "A2",
          "midi": 45,
          "time": 42.338712499999964,
          "velocity": 0.7480314960629921,
          "duration": 0.18145162500000112
        },
        {
          "name": "A3",
          "midi": 57,
          "time": 42.338712499999964,
          "velocity": 0.6771653543307087,
          "duration": 0.18649194791666446
        },
        {
          "name": "D3",
          "midi": 50,
          "time": 42.58064799999996,
          "velocity": 0.7401574803149606,
          "duration": 0.12600807291666172
        },
        {
          "name": "D4",
          "midi": 62,
          "time": 42.58064799999996,
          "velocity": 0.7322834645669292,
          "duration": 0.1008064583333308
        },
        {
          "name": "D1",
          "midi": 26,
          "time": 42.82258349999996,
          "velocity": 0.8976377952755905,
          "duration": 0.7056452083333298
        },
        {
          "name": "D2",
          "midi": 38,
          "time": 42.82258349999996,
          "velocity": 0.8976377952755905,
          "duration": 0.6754032708333284
        },
        {
          "name": "C3",
          "midi": 48,
          "time": 43.064518999999954,
          "velocity": 0.7559055118110236,
          "duration": 0.1915322708333349
        },
        {
          "name": "C4",
          "midi": 60,
          "time": 43.064518999999954,
          "velocity": 0.7559055118110236,
          "duration": 0.19657259374999825
        },
        {
          "name": "A2",
          "midi": 45,
          "time": 43.30645449999995,
          "velocity": 0.7637795275590551,
          "duration": 0.25201614583333765
        },
        {
          "name": "A3",
          "midi": 57,
          "time": 43.30645449999995,
          "velocity": 0.7480314960629921,
          "duration": 0.18145162500000112
        },
        {
          "name": "D3",
          "midi": 50,
          "time": 43.548389999999955,
          "velocity": 0.7559055118110236,
          "duration": 0.09576613541666745
        },
        {
          "name": "D4",
          "midi": 62,
          "time": 43.548389999999955,
          "velocity": 0.7165354330708661,
          "duration": 0.08064516666667032
        },
        {
          "name": "D2",
          "midi": 38,
          "time": 43.79032549999996,
          "velocity": 0.8976377952755905,
          "duration": 0.8215726354166577
        },
        {
          "name": "D1",
          "midi": 26,
          "time": 43.79032549999996,
          "velocity": 0.8976377952755905,
          "duration": 0.786290374999993
        },
        {
          "name": "C3",
          "midi": 48,
          "time": 44.032260999999956,
          "velocity": 0.6850393700787402,
          "duration": 0.21673388541666583
        },
        {
          "name": "C4",
          "midi": 60,
          "time": 44.032260999999956,
          "velocity": 0.7244094488188977,
          "duration": 0.26209679166666433
        },
        {
          "name": "A2",
          "midi": 45,
          "time": 44.27419649999995,
          "velocity": 0.7244094488188977,
          "duration": 0.18649194791666446
        },
        {
          "name": "A3",
          "midi": 57,
          "time": 44.27419649999995,
          "velocity": 0.7559055118110236,
          "duration": 0.18145162500000112
        },
        {
          "name": "D3",
          "midi": 50,
          "time": 44.51613199999995,
          "velocity": 0.7165354330708661,
          "duration": 0.08064516666667032
        },
        {
          "name": "D4",
          "midi": 62,
          "time": 44.51613199999995,
          "velocity": 0.7480314960629921,
          "duration": 0.09576613541666745
        },
        {
          "name": "D1",
          "midi": 26,
          "time": 44.75806749999995,
          "velocity": 0.8976377952755905,
          "duration": 0.7862903749999859
        },
        {
          "name": "D2",
          "midi": 38,
          "time": 44.75806749999995,
          "velocity": 0.8976377952755905,
          "duration": 0.7711694062499888
        },
        {
          "name": "C4",
          "midi": 60,
          "time": 45.00000299999995,
          "velocity": 0.7165354330708661,
          "duration": 0.24193549999999675
        },
        {
          "name": "C3",
          "midi": 48,
          "time": 45.00000299999995,
          "velocity": 0.6929133858267716,
          "duration": 0.20665323958333204
        },
        {
          "name": "A2",
          "midi": 45,
          "time": 45.24193849999995,
          "velocity": 0.7480314960629921,
          "duration": 0.18145162500000112
        },
        {
          "name": "A3",
          "midi": 57,
          "time": 45.24193849999995,
          "velocity": 0.6771653543307087,
          "duration": 0.18649194791666446
        },
        {
          "name": "D3",
          "midi": 50,
          "time": 45.48387399999994,
          "velocity": 0.7401574803149606,
          "duration": 0.12600807291666172
        },
        {
          "name": "D4",
          "midi": 62,
          "time": 45.48387399999994,
          "velocity": 0.7322834645669292,
          "duration": 0.1008064583333308
        },
        {
          "name": "D1",
          "midi": 26,
          "time": 45.72580949999994,
          "velocity": 0.8976377952755905,
          "duration": 0.7056452083333298
        },
        {
          "name": "D2",
          "midi": 38,
          "time": 45.72580949999994,
          "velocity": 0.8976377952755905,
          "duration": 0.6754032708333284
        },
        {
          "name": "C3",
          "midi": 48,
          "time": 45.96774499999994,
          "velocity": 0.7559055118110236,
          "duration": 0.1915322708333349
        },
        {
          "name": "C4",
          "midi": 60,
          "time": 45.96774499999994,
          "velocity": 0.7559055118110236,
          "duration": 0.19657259374999825
        },
        {
          "name": "A2",
          "midi": 45,
          "time": 46.20968049999993,
          "velocity": 0.7637795275590551,
          "duration": 0.25201614583333765
        },
        {
          "name": "A3",
          "midi": 57,
          "time": 46.20968049999993,
          "velocity": 0.7480314960629921,
          "duration": 0.18145162500000112
        },
        {
          "name": "D3",
          "midi": 50,
          "time": 46.45161599999994,
          "velocity": 0.7559055118110236,
          "duration": 0.09576613541666745
        },
        {
          "name": "D4",
          "midi": 62,
          "time": 46.45161599999994,
          "velocity": 0.7165354330708661,
          "duration": 0.08064516666667032
        },
        {
          "name": "D2",
          "midi": 38,
          "time": 46.69355149999994,
          "velocity": 0.8976377952755905,
          "duration": 0.8215726354166577
        },
        {
          "name": "D1",
          "midi": 26,
          "time": 46.69355149999994,
          "velocity": 0.8976377952755905,
          "duration": 0.786290374999993
        },
        {
          "name": "C3",
          "midi": 48,
          "time": 46.93548699999994,
          "velocity": 0.6850393700787402,
          "duration": 0.21673388541666583
        },
        {
          "name": "C4",
          "midi": 60,
          "time": 46.93548699999994,
          "velocity": 0.7244094488188977,
          "duration": 0.26209679166666433
        },
        {
          "name": "A2",
          "midi": 45,
          "time": 47.177422499999935,
          "velocity": 0.7244094488188977,
          "duration": 0.18649194791666446
        },
        {
          "name": "A3",
          "midi": 57,
          "time": 47.177422499999935,
          "velocity": 0.7559055118110236,
          "duration": 0.18145162500000112
        },
        {
          "name": "D3",
          "midi": 50,
          "time": 47.41935799999993,
          "velocity": 0.7165354330708661,
          "duration": 0.08064516666667032
        },
        {
          "name": "D4",
          "midi": 62,
          "time": 47.41935799999993,
          "velocity": 0.7480314960629921,
          "duration": 0.09576613541666745
        },
        {
          "name": "D1",
          "midi": 26,
          "time": 47.661293499999935,
          "velocity": 0.8976377952755905,
          "duration": 0.7862903749999859
        },
        {
          "name": "D2",
          "midi": 38,
          "time": 47.661293499999935,
          "velocity": 0.8976377952755905,
          "duration": 0.7711694062499888
        },
        {
          "name": "C4",
          "midi": 60,
          "time": 47.90322899999993,
          "velocity": 0.7165354330708661,
          "duration": 0.24193549999999675
        },
        {
          "name": "C3",
          "midi": 48,
          "time": 47.90322899999993,
          "velocity": 0.6929133858267716,
          "duration": 0.20665323958333204
        },
        {
          "name": "A2",
          "midi": 45,
          "time": 48.14516449999993,
          "velocity": 0.7480314960629921,
          "duration": 0.18145162500000112
        },
        {
          "name": "A3",
          "midi": 57,
          "time": 48.14516449999993,
          "velocity": 0.6771653543307087,
          "duration": 0.18649194791666446
        },
        {
          "name": "D3",
          "midi": 50,
          "time": 48.387099999999926,
          "velocity": 0.7401574803149606,
          "duration": 0.12600807291666172
        },
        {
          "name": "D4",
          "midi": 62,
          "time": 48.387099999999926,
          "velocity": 0.7322834645669292,
          "duration": 0.1008064583333308
        },
        {
          "name": "D1",
          "midi": 26,
          "time": 48.62903549999992,
          "velocity": 0.8976377952755905,
          "duration": 0.7056452083333298
        },
        {
          "name": "D2",
          "midi": 38,
          "time": 48.62903549999992,
          "velocity": 0.8976377952755905,
          "duration": 0.6754032708333284
        },
        {
          "name": "C3",
          "midi": 48,
          "time": 48.87097099999992,
          "velocity": 0.7559055118110236,
          "duration": 0.1915322708333349
        },
        {
          "name": "C4",
          "midi": 60,
          "time": 48.87097099999992,
          "velocity": 0.7559055118110236,
          "duration": 0.19657259374999825
        },
        {
          "name": "A2",
          "midi": 45,
          "time": 49.112906499999916,
          "velocity": 0.7637795275590551,
          "duration": 0.25201614583333765
        },
        {
          "name": "A3",
          "midi": 57,
          "time": 49.112906499999916,
          "velocity": 0.7480314960629921,
          "duration": 0.18145162500000112
        },
        {
          "name": "D3",
          "midi": 50,
          "time": 49.35484199999992,
          "velocity": 0.7559055118110236,
          "duration": 0.09576613541666745
        },
        {
          "name": "D4",
          "midi": 62,
          "time": 49.35484199999992,
          "velocity": 0.7165354330708661,
          "duration": 0.08064516666667032
        },
        {
          "name": "D2",
          "midi": 38,
          "time": 49.596777499999924,
          "velocity": 0.8976377952755905,
          "duration": 0.8215726354166577
        },
        {
          "name": "D1",
          "midi": 26,
          "time": 49.596777499999924,
          "velocity": 0.8976377952755905,
          "duration": 0.786290374999993
        },
        {
          "name": "C3",
          "midi": 48,
          "time": 49.83871299999992,
          "velocity": 0.6850393700787402,
          "duration": 0.21673388541666583
        },
        {
          "name": "C4",
          "midi": 60,
          "time": 49.83871299999992,
          "velocity": 0.7244094488188977,
          "duration": 0.26209679166666433
        },
        {
          "name": "A2",
          "midi": 45,
          "time": 50.08064849999992,
          "velocity": 0.7244094488188977,
          "duration": 0.18649194791666446
        },
        {
          "name": "A3",
          "midi": 57,
          "time": 50.08064849999992,
          "velocity": 0.7559055118110236,
          "duration": 0.18145162500000112
        },
        {
          "name": "D3",
          "midi": 50,
          "time": 50.322583999999914,
          "velocity": 0.7165354330708661,
          "duration": 0.08064516666667032
        },
        {
          "name": "D4",
          "midi": 62,
          "time": 50.322583999999914,
          "velocity": 0.7480314960629921,
          "duration": 0.09576613541666745
        },
        {
          "name": "D1",
          "midi": 26,
          "time": 50.56451949999992,
          "velocity": 0.8976377952755905,
          "duration": 0.7862903749999859
        },
        {
          "name": "D2",
          "midi": 38,
          "time": 50.56451949999992,
          "velocity": 0.8976377952755905,
          "duration": 0.7711694062499888
        },
        {
          "name": "C4",
          "midi": 60,
          "time": 50.806454999999914,
          "velocity": 0.7165354330708661,
          "duration": 0.24193549999999675
        },
        {
          "name": "C3",
          "midi": 48,
          "time": 50.806454999999914,
          "velocity": 0.6929133858267716,
          "duration": 0.20665323958333204
        },
        {
          "name": "A2",
          "midi": 45,
          "time": 51.04839049999991,
          "velocity": 0.7480314960629921,
          "duration": 0.18145162500000112
        },
        {
          "name": "A3",
          "midi": 57,
          "time": 51.04839049999991,
          "velocity": 0.6771653543307087,
          "duration": 0.18649194791666446
        },
        {
          "name": "D3",
          "midi": 50,
          "time": 51.29032599999991,
          "velocity": 0.7401574803149606,
          "duration": 0.12600807291666172
        },
        {
          "name": "D4",
          "midi": 62,
          "time": 51.29032599999991,
          "velocity": 0.7322834645669292,
          "duration": 0.1008064583333308
        },
        {
          "name": "D1",
          "midi": 26,
          "time": 51.532261499999905,
          "velocity": 0.8976377952755905,
          "duration": 0.7056452083333298
        },
        {
          "name": "D2",
          "midi": 38,
          "time": 51.532261499999905,
          "velocity": 0.8976377952755905,
          "duration": 0.6754032708333284
        },
        {
          "name": "C3",
          "midi": 48,
          "time": 51.7741969999999,
          "velocity": 0.7559055118110236,
          "duration": 0.1915322708333349
        },
        {
          "name": "C4",
          "midi": 60,
          "time": 51.7741969999999,
          "velocity": 0.7559055118110236,
          "duration": 0.19657259374999825
        },
        {
          "name": "A2",
          "midi": 45,
          "time": 52.0161324999999,
          "velocity": 0.7637795275590551,
          "duration": 0.25201614583333765
        },
        {
          "name": "A3",
          "midi": 57,
          "time": 52.0161324999999,
          "velocity": 0.7480314960629921,
          "duration": 0.18145162500000112
        },
        {
          "name": "D3",
          "midi": 50,
          "time": 52.2580679999999,
          "velocity": 0.7559055118110236,
          "duration": 0.09576613541666745
        },
        {
          "name": "D4",
          "midi": 62,
          "time": 52.2580679999999,
          "velocity": 0.7165354330708661,
          "duration": 0.08064516666667032
        },
        {
          "name": "D2",
          "midi": 38,
          "time": 52.500003499999906,
          "velocity": 0.8976377952755905,
          "duration": 0.8215726354166577
        },
        {
          "name": "D1",
          "midi": 26,
          "time": 52.500003499999906,
          "velocity": 0.8976377952755905,
          "duration": 0.786290374999993
        },
        {
          "name": "C3",
          "midi": 48,
          "time": 52.7419389999999,
          "velocity": 0.6850393700787402,
          "duration": 0.21673388541666583
        },
        {
          "name": "C4",
          "midi": 60,
          "time": 52.7419389999999,
          "velocity": 0.7244094488188977,
          "duration": 0.26209679166666433
        },
        {
          "name": "A2",
          "midi": 45,
          "time": 52.9838744999999,
          "velocity": 0.7244094488188977,
          "duration": 0.18649194791666446
        },
        {
          "name": "A3",
          "midi": 57,
          "time": 52.9838744999999,
          "velocity": 0.7559055118110236,
          "duration": 0.18145162500000112
        },
        {
          "name": "D3",
          "midi": 50,
          "time": 53.225809999999896,
          "velocity": 0.7165354330708661,
          "duration": 0.08064516666667032
        },
        {
          "name": "D4",
          "midi": 62,
          "time": 53.225809999999896,
          "velocity": 0.7480314960629921,
          "duration": 0.09576613541666745
        },
        {
          "name": "D1",
          "midi": 26,
          "time": 53.4677454999999,
          "velocity": 0.8976377952755905,
          "duration": 0.7862903749999859
        },
        {
          "name": "D2",
          "midi": 38,
          "time": 53.4677454999999,
          "velocity": 0.8976377952755905,
          "duration": 0.7711694062499888
        },
        {
          "name": "C4",
          "midi": 60,
          "time": 53.7096809999999,
          "velocity": 0.7165354330708661,
          "duration": 0.24193549999999675
        },
        {
          "name": "C3",
          "midi": 48,
          "time": 53.7096809999999,
          "velocity": 0.6929133858267716,
          "duration": 0.20665323958333204
        },
        {
          "name": "A2",
          "midi": 45,
          "time": 53.95161649999989,
          "velocity": 0.7480314960629921,
          "duration": 0.18145162500000112
        },
        {
          "name": "A3",
          "midi": 57,
          "time": 53.95161649999989,
          "velocity": 0.6771653543307087,
          "duration": 0.18649194791666446
        },
        {
          "name": "D3",
          "midi": 50,
          "time": 54.19355199999989,
          "velocity": 0.7401574803149606,
          "duration": 0.12600807291666172
        },
        {
          "name": "D4",
          "midi": 62,
          "time": 54.19355199999989,
          "velocity": 0.7322834645669292,
          "duration": 0.1008064583333308
        },
        {
          "name": "D1",
          "midi": 26,
          "time": 54.43548749999989,
          "velocity": 0.8976377952755905,
          "duration": 0.7056452083333298
        },
        {
          "name": "D2",
          "midi": 38,
          "time": 54.43548749999989,
          "velocity": 0.8976377952755905,
          "duration": 0.6754032708333284
        },
        {
          "name": "C3",
          "midi": 48,
          "time": 54.677422999999884,
          "velocity": 0.7559055118110236,
          "duration": 0.1915322708333349
        },
        {
          "name": "C4",
          "midi": 60,
          "time": 54.677422999999884,
          "velocity": 0.7559055118110236,
          "duration": 0.19657259374999825
        },
        {
          "name": "A2",
          "midi": 45,
          "time": 54.91935849999988,
          "velocity": 0.7637795275590551,
          "duration": 0.25201614583333765
        },
        {
          "name": "A3",
          "midi": 57,
          "time": 54.91935849999988,
          "velocity": 0.7480314960629921,
          "duration": 0.18145162500000112
        },
        {
          "name": "D3",
          "midi": 50,
          "time": 55.161293999999884,
          "velocity": 0.7559055118110236,
          "duration": 0.09576613541666745
        },
        {
          "name": "D4",
          "midi": 62,
          "time": 55.161293999999884,
          "velocity": 0.7165354330708661,
          "duration": 0.08064516666667032
        },
        {
          "name": "D2",
          "midi": 38,
          "time": 55.40322949999989,
          "velocity": 0.8976377952755905,
          "duration": 0.8215726354166577
        },
        {
          "name": "D1",
          "midi": 26,
          "time": 55.40322949999989,
          "velocity": 0.8976377952755905,
          "duration": 0.786290374999993
        },
        {
          "name": "C3",
          "midi": 48,
          "time": 55.645164999999885,
          "velocity": 0.6850393700787402,
          "duration": 0.21673388541666583
        },
        {
          "name": "C4",
          "midi": 60,
          "time": 55.645164999999885,
          "velocity": 0.7244094488188977,
          "duration": 0.26209679166666433
        },
        {
          "name": "A2",
          "midi": 45,
          "time": 55.88710049999988,
          "velocity": 0.7244094488188977,
          "duration": 0.18649194791666446
        },
        {
          "name": "A3",
          "midi": 57,
          "time": 55.88710049999988,
          "velocity": 0.7559055118110236,
          "duration": 0.18145162500000112
        },
        {
          "name": "D3",
          "midi": 50,
          "time": 56.12903599999988,
          "velocity": 0.7165354330708661,
          "duration": 0.08064516666667032
        },
        {
          "name": "D4",
          "midi": 62,
          "time": 56.12903599999988,
          "velocity": 0.7480314960629921,
          "duration": 0.09576613541666745
        },
        {
          "name": "D1",
          "midi": 26,
          "time": 56.37097149999988,
          "velocity": 0.8976377952755905,
          "duration": 0.7862903749999859
        },
        {
          "name": "D2",
          "midi": 38,
          "time": 56.37097149999988,
          "velocity": 0.8976377952755905,
          "duration": 0.7711694062499888
        },
        {
          "name": "C4",
          "midi": 60,
          "time": 56.61290699999988,
          "velocity": 0.7165354330708661,
          "duration": 0.24193549999999675
        },
        {
          "name": "C3",
          "midi": 48,
          "time": 56.61290699999988,
          "velocity": 0.6929133858267716,
          "duration": 0.20665323958333204
        },
        {
          "name": "A2",
          "midi": 45,
          "time": 56.854842499999876,
          "velocity": 0.7480314960629921,
          "duration": 0.18145162500000112
        },
        {
          "name": "A3",
          "midi": 57,
          "time": 56.854842499999876,
          "velocity": 0.6771653543307087,
          "duration": 0.18649194791666446
        },
        {
          "name": "D3",
          "midi": 50,
          "time": 57.09677799999987,
          "velocity": 0.7401574803149606,
          "duration": 0.12600807291666172
        },
        {
          "name": "D4",
          "midi": 62,
          "time": 57.09677799999987,
          "velocity": 0.7322834645669292,
          "duration": 0.1008064583333308
        },
        {
          "name": "D1",
          "midi": 26,
          "time": 57.33871349999987,
          "velocity": 0.8976377952755905,
          "duration": 0.7056452083333298
        },
        {
          "name": "D2",
          "midi": 38,
          "time": 57.33871349999987,
          "velocity": 0.8976377952755905,
          "duration": 0.6754032708333284
        },
        {
          "name": "C3",
          "midi": 48,
          "time": 57.580648999999866,
          "velocity": 0.7559055118110236,
          "duration": 0.1915322708333349
        },
        {
          "name": "C4",
          "midi": 60,
          "time": 57.580648999999866,
          "velocity": 0.7559055118110236,
          "duration": 0.19657259374999825
        },
        {
          "name": "A2",
          "midi": 45,
          "time": 57.82258449999986,
          "velocity": 0.7637795275590551,
          "duration": 0.25201614583333765
        },
        {
          "name": "A3",
          "midi": 57,
          "time": 57.82258449999986,
          "velocity": 0.7480314960629921,
          "duration": 0.18145162500000112
        },
        {
          "name": "D3",
          "midi": 50,
          "time": 58.06451999999987,
          "velocity": 0.7559055118110236,
          "duration": 0.09576613541666745
        },
        {
          "name": "D4",
          "midi": 62,
          "time": 58.06451999999987,
          "velocity": 0.7165354330708661,
          "duration": 0.08064516666667032
        },
        {
          "name": "D2",
          "midi": 38,
          "time": 58.30645549999987,
          "velocity": 0.8976377952755905,
          "duration": 0.8215726354166577
        },
        {
          "name": "D1",
          "midi": 26,
          "time": 58.30645549999987,
          "velocity": 0.8976377952755905,
          "duration": 0.786290374999993
        },
        {
          "name": "C3",
          "midi": 48,
          "time": 58.54839099999987,
          "velocity": 0.6850393700787402,
          "duration": 0.21673388541666583
        },
        {
          "name": "C4",
          "midi": 60,
          "time": 58.54839099999987,
          "velocity": 0.7244094488188977,
          "duration": 0.26209679166666433
        },
        {
          "name": "A2",
          "midi": 45,
          "time": 58.790326499999864,
          "velocity": 0.7244094488188977,
          "duration": 0.18649194791666446
        },
        {
          "name": "A3",
          "midi": 57,
          "time": 58.790326499999864,
          "velocity": 0.7559055118110236,
          "duration": 0.18145162500000112
        },
        {
          "name": "D3",
          "midi": 50,
          "time": 59.03226199999986,
          "velocity": 0.7165354330708661,
          "duration": 0.08064516666667032
        },
        {
          "name": "D4",
          "midi": 62,
          "time": 59.03226199999986,
          "velocity": 0.7480314960629921,
          "duration": 0.09576613541666745
        },
        {
          "name": "D1",
          "midi": 26,
          "time": 59.274197499999865,
          "velocity": 0.8976377952755905,
          "duration": 0.7862903749999859
        },
        {
          "name": "D2",
          "midi": 38,
          "time": 59.274197499999865,
          "velocity": 0.8976377952755905,
          "duration": 0.7711694062499888
        },
        {
          "name": "C4",
          "midi": 60,
          "time": 59.51613299999986,
          "velocity": 0.7165354330708661,
          "duration": 0.24193549999999675
        },
        {
          "name": "C3",
          "midi": 48,
          "time": 59.51613299999986,
          "velocity": 0.6929133858267716,
          "duration": 0.20665323958333204
        },
        {
          "name": "A2",
          "midi": 45,
          "time": 59.75806849999986,
          "velocity": 0.7480314960629921,
          "duration": 0.18145162500000112
        },
        {
          "name": "A3",
          "midi": 57,
          "time": 59.75806849999986,
          "velocity": 0.6771653543307087,
          "duration": 0.18649194791666446
        },
        {
          "name": "D3",
          "midi": 50,
          "time": 60.000003999999855,
          "velocity": 0.7401574803149606,
          "duration": 0.12600807291666172
        },
        {
          "name": "D4",
          "midi": 62,
          "time": 60.000003999999855,
          "velocity": 0.7322834645669292,
          "duration": 0.1008064583333308
        },
        {
          "name": "D1",
          "midi": 26,
          "time": 60.24193949999985,
          "velocity": 0.8976377952755905,
          "duration": 0.7056452083333298
        },
        {
          "name": "D2",
          "midi": 38,
          "time": 60.24193949999985,
          "velocity": 0.8976377952755905,
          "duration": 0.6754032708333284
        },
        {
          "name": "C3",
          "midi": 48,
          "time": 60.48387499999985,
          "velocity": 0.7559055118110236,
          "duration": 0.1915322708333349
        },
        {
          "name": "C4",
          "midi": 60,
          "time": 60.48387499999985,
          "velocity": 0.7559055118110236,
          "duration": 0.19657259374999825
        },
        {
          "name": "A2",
          "midi": 45,
          "time": 60.725810499999845,
          "velocity": 0.7637795275590551,
          "duration": 0.25201614583333765
        },
        {
          "name": "A3",
          "midi": 57,
          "time": 60.725810499999845,
          "velocity": 0.7480314960629921,
          "duration": 0.18145162500000112
        },
        {
          "name": "D3",
          "midi": 50,
          "time": 60.96774599999985,
          "velocity": 0.7559055118110236,
          "duration": 0.09576613541666745
        },
        {
          "name": "D4",
          "midi": 62,
          "time": 60.96774599999985,
          "velocity": 0.7165354330708661,
          "duration": 0.08064516666667032
        },
        {
          "name": "D2",
          "midi": 38,
          "time": 61.20968149999985,
          "velocity": 0.8976377952755905,
          "duration": 0.8215726354166577
        },
        {
          "name": "D1",
          "midi": 26,
          "time": 61.20968149999985,
          "velocity": 0.8976377952755905,
          "duration": 0.786290374999993
        },
        {
          "name": "C3",
          "midi": 48,
          "time": 61.45161699999985,
          "velocity": 0.6850393700787402,
          "duration": 0.21673388541666583
        },
        {
          "name": "C4",
          "midi": 60,
          "time": 61.45161699999985,
          "velocity": 0.7244094488188977,
          "duration": 0.26209679166666433
        },
        {
          "name": "A2",
          "midi": 45,
          "time": 61.693552499999846,
          "velocity": 0.7244094488188977,
          "duration": 0.18649194791666446
        },
        {
          "name": "A3",
          "midi": 57,
          "time": 61.693552499999846,
          "velocity": 0.7559055118110236,
          "duration": 0.18145162500000112
        },
        {
          "name": "D3",
          "midi": 50,
          "time": 61.93548799999984,
          "velocity": 0.7165354330708661,
          "duration": 0.08064516666667032
        },
        {
          "name": "D4",
          "midi": 62,
          "time": 61.93548799999984,
          "velocity": 0.7480314960629921,
          "duration": 0.09576613541666745
        },
        {
          "name": "D1",
          "midi": 26,
          "time": 62.17742349999985,
          "velocity": 0.8976377952755905,
          "duration": 0.7862903749999859
        },
        {
          "name": "D2",
          "midi": 38,
          "time": 62.17742349999985,
          "velocity": 0.8976377952755905,
          "duration": 0.7711694062499888
        },
        {
          "name": "C4",
          "midi": 60,
          "time": 62.419358999999844,
          "velocity": 0.7165354330708661,
          "duration": 0.24193549999999675
        },
        {
          "name": "C3",
          "midi": 48,
          "time": 62.419358999999844,
          "velocity": 0.6929133858267716,
          "duration": 0.20665323958333204
        },
        {
          "name": "A2",
          "midi": 45,
          "time": 62.66129449999984,
          "velocity": 0.7480314960629921,
          "duration": 0.18145162500000112
        },
        {
          "name": "A3",
          "midi": 57,
          "time": 62.66129449999984,
          "velocity": 0.6771653543307087,
          "duration": 0.18649194791666446
        },
        {
          "name": "D3",
          "midi": 50,
          "time": 62.90322999999984,
          "velocity": 0.7401574803149606,
          "duration": 0.12600807291666172
        },
        {
          "name": "D4",
          "midi": 62,
          "time": 62.90322999999984,
          "velocity": 0.7322834645669292,
          "duration": 0.1008064583333308
        },
        {
          "name": "D1",
          "midi": 26,
          "time": 63.145165499999834,
          "velocity": 0.8976377952755905,
          "duration": 0.7056452083333298
        },
        {
          "name": "D2",
          "midi": 38,
          "time": 63.145165499999834,
          "velocity": 0.8976377952755905,
          "duration": 0.6754032708333284
        },
        {
          "name": "C3",
          "midi": 48,
          "time": 63.38710099999983,
          "velocity": 0.7559055118110236,
          "duration": 0.1915322708333349
        },
        {
          "name": "C4",
          "midi": 60,
          "time": 63.38710099999983,
          "velocity": 0.7559055118110236,
          "duration": 0.19657259374999825
        },
        {
          "name": "A2",
          "midi": 45,
          "time": 63.62903649999983,
          "velocity": 0.7637795275590551,
          "duration": 0.25201614583333765
        },
        {
          "name": "A3",
          "midi": 57,
          "time": 63.62903649999983,
          "velocity": 0.7480314960629921,
          "duration": 0.18145162500000112
        },
        {
          "name": "D3",
          "midi": 50,
          "time": 63.87097199999983,
          "velocity": 0.7559055118110236,
          "duration": 0.09576613541666745
        },
        {
          "name": "D4",
          "midi": 62,
          "time": 63.87097199999983,
          "velocity": 0.7165354330708661,
          "duration": 0.08064516666667032
        },
        {
          "name": "D2",
          "midi": 38,
          "time": 64.11290749999984,
          "velocity": 0.8976377952755905,
          "duration": 0.8215726354166719
        },
        {
          "name": "D1",
          "midi": 26,
          "time": 64.11290749999984,
          "velocity": 0.8976377952755905,
          "duration": 0.7862903750000072
        },
        {
          "name": "C3",
          "midi": 48,
          "time": 64.35484299999983,
          "velocity": 0.6850393700787402,
          "duration": 0.21673388541667293
        },
        {
          "name": "C4",
          "midi": 60,
          "time": 64.35484299999983,
          "velocity": 0.7244094488188977,
          "duration": 0.26209679166667854
        },
        {
          "name": "A2",
          "midi": 45,
          "time": 64.59677849999984,
          "velocity": 0.7244094488188977,
          "duration": 0.18649194791666446
        },
        {
          "name": "A3",
          "midi": 57,
          "time": 64.59677849999984,
          "velocity": 0.7559055118110236,
          "duration": 0.181451624999994
        },
        {
          "name": "D3",
          "midi": 50,
          "time": 64.83871399999984,
          "velocity": 0.7165354330708661,
          "duration": 0.08064516666667032
        },
        {
          "name": "D4",
          "midi": 62,
          "time": 64.83871399999984,
          "velocity": 0.7480314960629921,
          "duration": 0.09576613541666745
        },
        {
          "name": "D1",
          "midi": 26,
          "time": 65.08064949999984,
          "velocity": 0.8976377952755905,
          "duration": 0.786290374999993
        },
        {
          "name": "D2",
          "midi": 38,
          "time": 65.08064949999984,
          "velocity": 0.8976377952755905,
          "duration": 0.7711694062499959
        },
        {
          "name": "C4",
          "midi": 60,
          "time": 65.32258499999983,
          "velocity": 0.7165354330708661,
          "duration": 0.24193549999999675
        },
        {
          "name": "C3",
          "midi": 48,
          "time": 65.32258499999983,
          "velocity": 0.6929133858267716,
          "duration": 0.20665323958333204
        },
        {
          "name": "A2",
          "midi": 45,
          "time": 65.56452049999983,
          "velocity": 0.7480314960629921,
          "duration": 0.181451624999994
        },
        {
          "name": "A3",
          "midi": 57,
          "time": 65.56452049999983,
          "velocity": 0.6771653543307087,
          "duration": 0.18649194791666446
        },
        {
          "name": "D3",
          "midi": 50,
          "time": 65.80645599999983,
          "velocity": 0.7401574803149606,
          "duration": 0.12600807291667593
        },
        {
          "name": "D4",
          "midi": 62,
          "time": 65.80645599999983,
          "velocity": 0.7322834645669292,
          "duration": 0.1008064583333379
        },
        {
          "name": "D1",
          "midi": 26,
          "time": 66.04839149999984,
          "velocity": 0.8976377952755905,
          "duration": 0.7056452083333227
        },
        {
          "name": "D2",
          "midi": 38,
          "time": 66.04839149999984,
          "velocity": 0.8976377952755905,
          "duration": 0.6754032708333284
        },
        {
          "name": "C3",
          "midi": 48,
          "time": 66.29032699999983,
          "velocity": 0.7559055118110236,
          "duration": 0.1915322708333349
        },
        {
          "name": "C4",
          "midi": 60,
          "time": 66.29032699999983,
          "velocity": 0.7559055118110236,
          "duration": 0.19657259375000535
        },
        {
          "name": "A2",
          "midi": 45,
          "time": 66.53226249999985,
          "velocity": 0.7637795275590551,
          "duration": 0.2520161458333092
        },
        {
          "name": "A3",
          "midi": 57,
          "time": 66.53226249999985,
          "velocity": 0.7480314960629921,
          "duration": 0.181451624999994
        },
        {
          "name": "D3",
          "midi": 50,
          "time": 66.77419799999983,
          "velocity": 0.7559055118110236,
          "duration": 0.09576613541665324
        },
        {
          "name": "D4",
          "midi": 62,
          "time": 66.77419799999983,
          "velocity": 0.7165354330708661,
          "duration": 0.08064516666665611
        },
        {
          "name": "D2",
          "midi": 38,
          "time": 67.01613349999981,
          "velocity": 0.8976377952755905,
          "duration": 0.8215726354166719
        },
        {
          "name": "D1",
          "midi": 26,
          "time": 67.01613349999981,
          "velocity": 0.8976377952755905,
          "duration": 0.7862903750000072
        },
        {
          "name": "C3",
          "midi": 48,
          "time": 67.25806899999981,
          "velocity": 0.6850393700787402,
          "duration": 0.21673388541667293
        },
        {
          "name": "C4",
          "midi": 60,
          "time": 67.25806899999981,
          "velocity": 0.7244094488188977,
          "duration": 0.26209679166667854
        },
        {
          "name": "A2",
          "midi": 45,
          "time": 67.50000449999982,
          "velocity": 0.7244094488188977,
          "duration": 0.18649194791666446
        },
        {
          "name": "A3",
          "midi": 57,
          "time": 67.50000449999982,
          "velocity": 0.7559055118110236,
          "duration": 0.181451624999994
        },
        {
          "name": "D3",
          "midi": 50,
          "time": 67.74193999999981,
          "velocity": 0.7165354330708661,
          "duration": 0.08064516666667032
        },
        {
          "name": "D4",
          "midi": 62,
          "time": 67.74193999999981,
          "velocity": 0.7480314960629921,
          "duration": 0.09576613541666745
        },
        {
          "name": "D1",
          "midi": 26,
          "time": 67.98387549999981,
          "velocity": 0.8976377952755905,
          "duration": 0.786290374999993
        },
        {
          "name": "D2",
          "midi": 38,
          "time": 67.98387549999981,
          "velocity": 0.8976377952755905,
          "duration": 0.7711694062499959
        },
        {
          "name": "C4",
          "midi": 60,
          "time": 68.22581099999981,
          "velocity": 0.7165354330708661,
          "duration": 0.24193549999999675
        },
        {
          "name": "C3",
          "midi": 48,
          "time": 68.22581099999981,
          "velocity": 0.6929133858267716,
          "duration": 0.20665323958333204
        },
        {
          "name": "A2",
          "midi": 45,
          "time": 68.4677464999998,
          "velocity": 0.7480314960629921,
          "duration": 0.181451624999994
        },
        {
          "name": "A3",
          "midi": 57,
          "time": 68.4677464999998,
          "velocity": 0.6771653543307087,
          "duration": 0.18649194791666446
        },
        {
          "name": "D3",
          "midi": 50,
          "time": 68.7096819999998,
          "velocity": 0.7401574803149606,
          "duration": 0.12600807291667593
        },
        {
          "name": "D4",
          "midi": 62,
          "time": 68.7096819999998,
          "velocity": 0.7322834645669292,
          "duration": 0.1008064583333379
        },
        {
          "name": "D1",
          "midi": 26,
          "time": 68.95161749999981,
          "velocity": 0.8976377952755905,
          "duration": 0.7056452083333227
        },
        {
          "name": "D2",
          "midi": 38,
          "time": 68.95161749999981,
          "velocity": 0.8976377952755905,
          "duration": 0.6754032708333284
        },
        {
          "name": "C3",
          "midi": 48,
          "time": 69.19355299999981,
          "velocity": 0.7559055118110236,
          "duration": 0.1915322708333349
        },
        {
          "name": "C4",
          "midi": 60,
          "time": 69.19355299999981,
          "velocity": 0.7559055118110236,
          "duration": 0.19657259375000535
        },
        {
          "name": "A2",
          "midi": 45,
          "time": 69.43548849999982,
          "velocity": 0.7637795275590551,
          "duration": 0.2520161458333092
        },
        {
          "name": "A3",
          "midi": 57,
          "time": 69.43548849999982,
          "velocity": 0.7480314960629921,
          "duration": 0.181451624999994
        },
        {
          "name": "D3",
          "midi": 50,
          "time": 69.6774239999998,
          "velocity": 0.7559055118110236,
          "duration": 0.09576613541665324
        },
        {
          "name": "D4",
          "midi": 62,
          "time": 69.6774239999998,
          "velocity": 0.7165354330708661,
          "duration": 0.08064516666665611
        },
        {
          "name": "D2",
          "midi": 38,
          "time": 69.91935949999979,
          "velocity": 0.8976377952755905,
          "duration": 0.8215726354166719
        },
        {
          "name": "D1",
          "midi": 26,
          "time": 69.91935949999979,
          "velocity": 0.8976377952755905,
          "duration": 0.7862903750000072
        },
        {
          "name": "C3",
          "midi": 48,
          "time": 70.16129499999978,
          "velocity": 0.6850393700787402,
          "duration": 0.21673388541667293
        },
        {
          "name": "C4",
          "midi": 60,
          "time": 70.16129499999978,
          "velocity": 0.7244094488188977,
          "duration": 0.26209679166667854
        },
        {
          "name": "A2",
          "midi": 45,
          "time": 70.4032304999998,
          "velocity": 0.7244094488188977,
          "duration": 0.18649194791666446
        },
        {
          "name": "A3",
          "midi": 57,
          "time": 70.4032304999998,
          "velocity": 0.7559055118110236,
          "duration": 0.181451624999994
        },
        {
          "name": "D3",
          "midi": 50,
          "time": 70.64516599999979,
          "velocity": 0.7165354330708661,
          "duration": 0.08064516666667032
        },
        {
          "name": "D4",
          "midi": 62,
          "time": 70.64516599999979,
          "velocity": 0.7480314960629921,
          "duration": 0.09576613541666745
        },
        {
          "name": "D1",
          "midi": 26,
          "time": 70.88710149999979,
          "velocity": 0.8976377952755905,
          "duration": 0.786290374999993
        },
        {
          "name": "D2",
          "midi": 38,
          "time": 70.88710149999979,
          "velocity": 0.8976377952755905,
          "duration": 0.7711694062499959
        },
        {
          "name": "C4",
          "midi": 60,
          "time": 71.12903699999978,
          "velocity": 0.7165354330708661,
          "duration": 0.24193549999999675
        },
        {
          "name": "C3",
          "midi": 48,
          "time": 71.12903699999978,
          "velocity": 0.6929133858267716,
          "duration": 0.20665323958333204
        },
        {
          "name": "A2",
          "midi": 45,
          "time": 71.37097249999978,
          "velocity": 0.7480314960629921,
          "duration": 0.181451624999994
        },
        {
          "name": "A3",
          "midi": 57,
          "time": 71.37097249999978,
          "velocity": 0.6771653543307087,
          "duration": 0.18649194791666446
        },
        {
          "name": "D3",
          "midi": 50,
          "time": 71.61290799999978,
          "velocity": 0.7401574803149606,
          "duration": 0.12600807291667593
        },
        {
          "name": "D4",
          "midi": 62,
          "time": 71.61290799999978,
          "velocity": 0.7322834645669292,
          "duration": 0.1008064583333379
        },
        {
          "name": "D1",
          "midi": 26,
          "time": 71.85484349999979,
          "velocity": 0.8976377952755905,
          "duration": 0.7056452083333227
        },
        {
          "name": "D2",
          "midi": 38,
          "time": 71.85484349999979,
          "velocity": 0.8976377952755905,
          "duration": 0.6754032708333284
        },
        {
          "name": "C3",
          "midi": 48,
          "time": 72.09677899999978,
          "velocity": 0.7559055118110236,
          "duration": 0.1915322708333349
        },
        {
          "name": "C4",
          "midi": 60,
          "time": 72.09677899999978,
          "velocity": 0.7559055118110236,
          "duration": 0.19657259375000535
        },
        {
          "name": "A2",
          "midi": 45,
          "time": 72.3387144999998,
          "velocity": 0.7637795275590551,
          "duration": 0.2520161458333092
        },
        {
          "name": "A3",
          "midi": 57,
          "time": 72.3387144999998,
          "velocity": 0.7480314960629921,
          "duration": 0.181451624999994
        },
        {
          "name": "D3",
          "midi": 50,
          "time": 72.58064999999978,
          "velocity": 0.7559055118110236,
          "duration": 0.09576613541665324
        },
        {
          "name": "D4",
          "midi": 62,
          "time": 72.58064999999978,
          "velocity": 0.7165354330708661,
          "duration": 0.08064516666665611
        },
        {
          "name": "D2",
          "midi": 38,
          "time": 72.82258549999976,
          "velocity": 0.8976377952755905,
          "duration": 0.8215726354166719
        },
        {
          "name": "D1",
          "midi": 26,
          "time": 72.82258549999976,
          "velocity": 0.8976377952755905,
          "duration": 0.7862903750000072
        },
        {
          "name": "C3",
          "midi": 48,
          "time": 73.06452099999976,
          "velocity": 0.6850393700787402,
          "duration": 0.21673388541667293
        },
        {
          "name": "C4",
          "midi": 60,
          "time": 73.06452099999976,
          "velocity": 0.7244094488188977,
          "duration": 0.26209679166667854
        },
        {
          "name": "A2",
          "midi": 45,
          "time": 73.30645649999977,
          "velocity": 0.7244094488188977,
          "duration": 0.18649194791666446
        },
        {
          "name": "A3",
          "midi": 57,
          "time": 73.30645649999977,
          "velocity": 0.7559055118110236,
          "duration": 0.181451624999994
        },
        {
          "name": "D3",
          "midi": 50,
          "time": 73.54839199999977,
          "velocity": 0.7165354330708661,
          "duration": 0.08064516666667032
        },
        {
          "name": "D4",
          "midi": 62,
          "time": 73.54839199999977,
          "velocity": 0.7480314960629921,
          "duration": 0.09576613541666745
        },
        {
          "name": "D1",
          "midi": 26,
          "time": 73.79032749999976,
          "velocity": 0.8976377952755905,
          "duration": 0.786290374999993
        },
        {
          "name": "D2",
          "midi": 38,
          "time": 73.79032749999976,
          "velocity": 0.8976377952755905,
          "duration": 0.7711694062499959
        },
        {
          "name": "C4",
          "midi": 60,
          "time": 74.03226299999976,
          "velocity": 0.7165354330708661,
          "duration": 0.24193549999999675
        },
        {
          "name": "C3",
          "midi": 48,
          "time": 74.03226299999976,
          "velocity": 0.6929133858267716,
          "duration": 0.20665323958333204
        },
        {
          "name": "A2",
          "midi": 45,
          "time": 74.27419849999976,
          "velocity": 0.7480314960629921,
          "duration": 0.181451624999994
        },
        {
          "name": "A3",
          "midi": 57,
          "time": 74.27419849999976,
          "velocity": 0.6771653543307087,
          "duration": 0.18649194791666446
        },
        {
          "name": "D3",
          "midi": 50,
          "time": 74.51613399999975,
          "velocity": 0.7401574803149606,
          "duration": 0.12600807291667593
        },
        {
          "name": "D4",
          "midi": 62,
          "time": 74.51613399999975,
          "velocity": 0.7322834645669292,
          "duration": 0.1008064583333379
        },
        {
          "name": "D1",
          "midi": 26,
          "time": 74.75806949999976,
          "velocity": 0.8976377952755905,
          "duration": 0.7056452083333227
        },
        {
          "name": "D2",
          "midi": 38,
          "time": 74.75806949999976,
          "velocity": 0.8976377952755905,
          "duration": 0.6754032708333284
        },
        {
          "name": "C3",
          "midi": 48,
          "time": 75.00000499999976,
          "velocity": 0.7559055118110236,
          "duration": 0.1915322708333349
        },
        {
          "name": "C4",
          "midi": 60,
          "time": 75.00000499999976,
          "velocity": 0.7559055118110236,
          "duration": 0.19657259375000535
        },
        {
          "name": "A2",
          "midi": 45,
          "time": 75.24194049999977,
          "velocity": 0.7637795275590551,
          "duration": 0.2520161458333092
        },
        {
          "name": "A3",
          "midi": 57,
          "time": 75.24194049999977,
          "velocity": 0.7480314960629921,
          "duration": 0.181451624999994
        },
        {
          "name": "D3",
          "midi": 50,
          "time": 75.48387599999975,
          "velocity": 0.7559055118110236,
          "duration": 0.09576613541665324
        },
        {
          "name": "D4",
          "midi": 62,
          "time": 75.48387599999975,
          "velocity": 0.7165354330708661,
          "duration": 0.08064516666665611
        },
        {
          "name": "D2",
          "midi": 38,
          "time": 75.72581149999974,
          "velocity": 0.8976377952755905,
          "duration": 0.8215726354166719
        },
        {
          "name": "D1",
          "midi": 26,
          "time": 75.72581149999974,
          "velocity": 0.8976377952755905,
          "duration": 0.7862903750000072
        },
        {
          "name": "C3",
          "midi": 48,
          "time": 75.96774699999973,
          "velocity": 0.6850393700787402,
          "duration": 0.21673388541667293
        },
        {
          "name": "C4",
          "midi": 60,
          "time": 75.96774699999973,
          "velocity": 0.7244094488188977,
          "duration": 0.26209679166667854
        },
        {
          "name": "A2",
          "midi": 45,
          "time": 76.20968249999974,
          "velocity": 0.7244094488188977,
          "duration": 0.18649194791666446
        },
        {
          "name": "A3",
          "midi": 57,
          "time": 76.20968249999974,
          "velocity": 0.7559055118110236,
          "duration": 0.181451624999994
        },
        {
          "name": "D3",
          "midi": 50,
          "time": 76.45161799999974,
          "velocity": 0.7165354330708661,
          "duration": 0.08064516666667032
        },
        {
          "name": "D4",
          "midi": 62,
          "time": 76.45161799999974,
          "velocity": 0.7480314960629921,
          "duration": 0.09576613541666745
        },
        {
          "name": "D1",
          "midi": 26,
          "time": 76.69355349999974,
          "velocity": 0.8976377952755905,
          "duration": 0.786290374999993
        },
        {
          "name": "D2",
          "midi": 38,
          "time": 76.69355349999974,
          "velocity": 0.8976377952755905,
          "duration": 0.7711694062499959
        },
        {
          "name": "C4",
          "midi": 60,
          "time": 76.93548899999973,
          "velocity": 0.7165354330708661,
          "duration": 0.24193549999999675
        },
        {
          "name": "C3",
          "midi": 48,
          "time": 76.93548899999973,
          "velocity": 0.6929133858267716,
          "duration": 0.20665323958333204
        },
        {
          "name": "A2",
          "midi": 45,
          "time": 77.17742449999973,
          "velocity": 0.7480314960629921,
          "duration": 0.181451624999994
        },
        {
          "name": "A3",
          "midi": 57,
          "time": 77.17742449999973,
          "velocity": 0.6771653543307087,
          "duration": 0.18649194791666446
        },
        {
          "name": "D3",
          "midi": 50,
          "time": 77.41935999999973,
          "velocity": 0.7401574803149606,
          "duration": 0.12600807291667593
        },
        {
          "name": "D4",
          "midi": 62,
          "time": 77.41935999999973,
          "velocity": 0.7322834645669292,
          "duration": 0.1008064583333379
        },
        {
          "name": "D1",
          "midi": 26,
          "time": 77.66129549999974,
          "velocity": 0.8976377952755905,
          "duration": 0.7056452083333227
        },
        {
          "name": "D2",
          "midi": 38,
          "time": 77.66129549999974,
          "velocity": 0.8976377952755905,
          "duration": 0.6754032708333284
        },
        {
          "name": "C3",
          "midi": 48,
          "time": 77.90323099999974,
          "velocity": 0.7559055118110236,
          "duration": 0.1915322708333349
        },
        {
          "name": "C4",
          "midi": 60,
          "time": 77.90323099999974,
          "velocity": 0.7559055118110236,
          "duration": 0.19657259375000535
        },
        {
          "name": "A2",
          "midi": 45,
          "time": 78.14516649999975,
          "velocity": 0.7637795275590551,
          "duration": 0.2520161458333092
        },
        {
          "name": "A3",
          "midi": 57,
          "time": 78.14516649999975,
          "velocity": 0.7480314960629921,
          "duration": 0.181451624999994
        },
        {
          "name": "D3",
          "midi": 50,
          "time": 78.38710199999973,
          "velocity": 0.7559055118110236,
          "duration": 0.09576613541665324
        },
        {
          "name": "D4",
          "midi": 62,
          "time": 78.38710199999973,
          "velocity": 0.7165354330708661,
          "duration": 0.08064516666665611
        },
        {
          "name": "D2",
          "midi": 38,
          "time": 78.62903749999971,
          "velocity": 0.8976377952755905,
          "duration": 0.8215726354166719
        },
        {
          "name": "D1",
          "midi": 26,
          "time": 78.62903749999971,
          "velocity": 0.8976377952755905,
          "duration": 0.7862903750000072
        },
        {
          "name": "C3",
          "midi": 48,
          "time": 78.87097299999971,
          "velocity": 0.6850393700787402,
          "duration": 0.21673388541667293
        },
        {
          "name": "C4",
          "midi": 60,
          "time": 78.87097299999971,
          "velocity": 0.7244094488188977,
          "duration": 0.26209679166667854
        },
        {
          "name": "A2",
          "midi": 45,
          "time": 79.11290849999972,
          "velocity": 0.7244094488188977,
          "duration": 0.18649194791666446
        },
        {
          "name": "A3",
          "midi": 57,
          "time": 79.11290849999972,
          "velocity": 0.7559055118110236,
          "duration": 0.181451624999994
        },
        {
          "name": "D3",
          "midi": 50,
          "time": 79.35484399999972,
          "velocity": 0.7165354330708661,
          "duration": 0.08064516666667032
        },
        {
          "name": "D4",
          "midi": 62,
          "time": 79.35484399999972,
          "velocity": 0.7480314960629921,
          "duration": 0.09576613541666745
        },
        {
          "name": "D1",
          "midi": 26,
          "time": 79.59677949999971,
          "velocity": 0.8661417322834646,
          "duration": 0.786290374999993
        },
        {
          "name": "D2",
          "midi": 38,
          "time": 79.59677949999971,
          "velocity": 0.8976377952755905,
          "duration": 0.7711694062499959
        },
        {
          "name": "C4",
          "midi": 60,
          "time": 79.83871499999971,
          "velocity": 0.7165354330708661,
          "duration": 0.24193549999999675
        },
        {
          "name": "C3",
          "midi": 48,
          "time": 79.83871499999971,
          "velocity": 0.6929133858267716,
          "duration": 0.20665323958333204
        },
        {
          "name": "A2",
          "midi": 45,
          "time": 80.0806504999997,
          "velocity": 0.7480314960629921,
          "duration": 0.181451624999994
        },
        {
          "name": "A3",
          "midi": 57,
          "time": 80.0806504999997,
          "velocity": 0.6771653543307087,
          "duration": 0.18649194791666446
        },
        {
          "name": "D3",
          "midi": 50,
          "time": 80.3225859999997,
          "velocity": 0.7401574803149606,
          "duration": 0.12600807291667593
        },
        {
          "name": "D4",
          "midi": 62,
          "time": 80.3225859999997,
          "velocity": 0.7322834645669292,
          "duration": 0.1008064583333379
        },
        {
          "name": "D1",
          "midi": 26,
          "time": 80.56452149999971,
          "velocity": 0.8976377952755905,
          "duration": 0.7056452083333227
        },
        {
          "name": "D2",
          "midi": 38,
          "time": 80.56452149999971,
          "velocity": 0.8976377952755905,
          "duration": 0.6754032708333284
        },
        {
          "name": "C3",
          "midi": 48,
          "time": 80.80645699999971,
          "velocity": 0.7559055118110236,
          "duration": 0.1915322708333349
        },
        {
          "name": "C4",
          "midi": 60,
          "time": 80.80645699999971,
          "velocity": 0.7559055118110236,
          "duration": 0.19657259375000535
        },
        {
          "name": "A2",
          "midi": 45,
          "time": 81.04839249999972,
          "velocity": 0.7637795275590551,
          "duration": 0.2520161458333092
        },
        {
          "name": "A3",
          "midi": 57,
          "time": 81.04839249999972,
          "velocity": 0.7480314960629921,
          "duration": 0.181451624999994
        },
        {
          "name": "D3",
          "midi": 50,
          "time": 81.2903279999997,
          "velocity": 0.7559055118110236,
          "duration": 0.09576613541665324
        },
        {
          "name": "D4",
          "midi": 62,
          "time": 81.2903279999997,
          "velocity": 0.7165354330708661,
          "duration": 0.08064516666665611
        },
        {
          "name": "D2",
          "midi": 38,
          "time": 81.53226349999969,
          "velocity": 0.8976377952755905,
          "duration": 0.8215726354166719
        },
        {
          "name": "D1",
          "midi": 26,
          "time": 81.53226349999969,
          "velocity": 0.8976377952755905,
          "duration": 0.7862903750000072
        },
        {
          "name": "C3",
          "midi": 48,
          "time": 81.77419899999968,
          "velocity": 0.6850393700787402,
          "duration": 0.21673388541667293
        },
        {
          "name": "C4",
          "midi": 60,
          "time": 81.77419899999968,
          "velocity": 0.7244094488188977,
          "duration": 0.26209679166667854
        },
        {
          "name": "A2",
          "midi": 45,
          "time": 82.0161344999997,
          "velocity": 0.7244094488188977,
          "duration": 0.18649194791666446
        },
        {
          "name": "A3",
          "midi": 57,
          "time": 82.0161344999997,
          "velocity": 0.7559055118110236,
          "duration": 0.181451624999994
        },
        {
          "name": "D3",
          "midi": 50,
          "time": 82.25806999999969,
          "velocity": 0.7165354330708661,
          "duration": 0.08064516666667032
        },
        {
          "name": "D4",
          "midi": 62,
          "time": 82.25806999999969,
          "velocity": 0.7480314960629921,
          "duration": 0.09576613541666745
        },
        {
          "name": "D1",
          "midi": 26,
          "time": 82.50000549999969,
          "velocity": 0.8976377952755905,
          "duration": 0.786290374999993
        },
        {
          "name": "D2",
          "midi": 38,
          "time": 82.50000549999969,
          "velocity": 0.8976377952755905,
          "duration": 0.7711694062499959
        },
        {
          "name": "C4",
          "midi": 60,
          "time": 82.74194099999968,
          "velocity": 0.7165354330708661,
          "duration": 0.24193549999999675
        },
        {
          "name": "C3",
          "midi": 48,
          "time": 82.74194099999968,
          "velocity": 0.6929133858267716,
          "duration": 0.20665323958333204
        },
        {
          "name": "A2",
          "midi": 45,
          "time": 82.98387649999968,
          "velocity": 0.7480314960629921,
          "duration": 0.181451624999994
        },
        {
          "name": "A3",
          "midi": 57,
          "time": 82.98387649999968,
          "velocity": 0.6771653543307087,
          "duration": 0.18649194791666446
        },
        {
          "name": "D3",
          "midi": 50,
          "time": 83.22581199999968,
          "velocity": 0.7401574803149606,
          "duration": 0.12600807291667593
        },
        {
          "name": "D4",
          "midi": 62,
          "time": 83.22581199999968,
          "velocity": 0.7322834645669292,
          "duration": 0.1008064583333379
        },
        {
          "name": "D1",
          "midi": 26,
          "time": 83.46774749999969,
          "velocity": 0.8976377952755905,
          "duration": 0.7056452083333227
        },
        {
          "name": "D2",
          "midi": 38,
          "time": 83.46774749999969,
          "velocity": 0.8976377952755905,
          "duration": 0.6754032708333284
        },
        {
          "name": "C3",
          "midi": 48,
          "time": 83.70968299999969,
          "velocity": 0.7559055118110236,
          "duration": 0.1915322708333349
        },
        {
          "name": "C4",
          "midi": 60,
          "time": 83.70968299999969,
          "velocity": 0.7559055118110236,
          "duration": 0.19657259375000535
        },
        {
          "name": "A2",
          "midi": 45,
          "time": 83.9516184999997,
          "velocity": 0.7637795275590551,
          "duration": 0.2520161458333092
        },
        {
          "name": "A3",
          "midi": 57,
          "time": 83.9516184999997,
          "velocity": 0.7480314960629921,
          "duration": 0.181451624999994
        },
        {
          "name": "D3",
          "midi": 50,
          "time": 84.19355399999968,
          "velocity": 0.7559055118110236,
          "duration": 0.09576613541665324
        },
        {
          "name": "D4",
          "midi": 62,
          "time": 84.19355399999968,
          "velocity": 0.7165354330708661,
          "duration": 0.08064516666665611
        },
        {
          "name": "D2",
          "midi": 38,
          "time": 84.43548949999966,
          "velocity": 0.8976377952755905,
          "duration": 0.8215726354166719
        },
        {
          "name": "D1",
          "midi": 26,
          "time": 84.43548949999966,
          "velocity": 0.8976377952755905,
          "duration": 0.7862903750000072
        },
        {
          "name": "C3",
          "midi": 48,
          "time": 84.67742499999966,
          "velocity": 0.6850393700787402,
          "duration": 0.21673388541667293
        },
        {
          "name": "C4",
          "midi": 60,
          "time": 84.67742499999966,
          "velocity": 0.7244094488188977,
          "duration": 0.26209679166667854
        },
        {
          "name": "A2",
          "midi": 45,
          "time": 84.91936049999967,
          "velocity": 0.7244094488188977,
          "duration": 0.18649194791666446
        },
        {
          "name": "A3",
          "midi": 57,
          "time": 84.91936049999967,
          "velocity": 0.7559055118110236,
          "duration": 0.181451624999994
        },
        {
          "name": "D3",
          "midi": 50,
          "time": 85.16129599999967,
          "velocity": 0.7165354330708661,
          "duration": 0.08064516666667032
        },
        {
          "name": "D4",
          "midi": 62,
          "time": 85.16129599999967,
          "velocity": 0.7480314960629921,
          "duration": 0.09576613541666745
        },
        {
          "name": "D1",
          "midi": 26,
          "time": 85.40323149999966,
          "velocity": 0.8976377952755905,
          "duration": 0.786290374999993
        },
        {
          "name": "D2",
          "midi": 38,
          "time": 85.40323149999966,
          "velocity": 0.8976377952755905,
          "duration": 0.7711694062499959
        },
        {
          "name": "C4",
          "midi": 60,
          "time": 85.64516699999966,
          "velocity": 0.7165354330708661,
          "duration": 0.24193549999999675
        },
        {
          "name": "C3",
          "midi": 48,
          "time": 85.64516699999966,
          "velocity": 0.6929133858267716,
          "duration": 0.20665323958333204
        },
        {
          "name": "A2",
          "midi": 45,
          "time": 85.88710249999966,
          "velocity": 0.7480314960629921,
          "duration": 0.181451624999994
        },
        {
          "name": "A3",
          "midi": 57,
          "time": 85.88710249999966,
          "velocity": 0.6771653543307087,
          "duration": 0.18649194791666446
        },
        {
          "name": "D3",
          "midi": 50,
          "time": 86.12903799999965,
          "velocity": 0.7401574803149606,
          "duration": 0.12600807291667593
        },
        {
          "name": "D4",
          "midi": 62,
          "time": 86.12903799999965,
          "velocity": 0.7322834645669292,
          "duration": 0.1008064583333379
        },
        {
          "name": "D1",
          "midi": 26,
          "time": 86.37097349999966,
          "velocity": 0.8976377952755905,
          "duration": 0.7056452083333227
        },
        {
          "name": "D2",
          "midi": 38,
          "time": 86.37097349999966,
          "velocity": 0.8976377952755905,
          "duration": 0.6754032708333284
        },
        {
          "name": "C3",
          "midi": 48,
          "time": 86.61290899999966,
          "velocity": 0.7559055118110236,
          "duration": 0.1915322708333349
        },
        {
          "name": "C4",
          "midi": 60,
          "time": 86.61290899999966,
          "velocity": 0.7559055118110236,
          "duration": 0.19657259375000535
        },
        {
          "name": "A2",
          "midi": 45,
          "time": 86.85484449999967,
          "velocity": 0.7637795275590551,
          "duration": 0.2520161458333092
        },
        {
          "name": "A3",
          "midi": 57,
          "time": 86.85484449999967,
          "velocity": 0.7480314960629921,
          "duration": 0.181451624999994
        },
        {
          "name": "D3",
          "midi": 50,
          "time": 87.09677999999965,
          "velocity": 0.7559055118110236,
          "duration": 0.09576613541665324
        },
        {
          "name": "D4",
          "midi": 62,
          "time": 87.09677999999965,
          "velocity": 0.7165354330708661,
          "duration": 0.08064516666665611
        },
        {
          "name": "D2",
          "midi": 38,
          "time": 87.33871549999964,
          "velocity": 0.8976377952755905,
          "duration": 0.8215726354166719
        },
        {
          "name": "D1",
          "midi": 26,
          "time": 87.33871549999964,
          "velocity": 0.8976377952755905,
          "duration": 0.7862903750000072
        },
        {
          "name": "C3",
          "midi": 48,
          "time": 87.58065099999963,
          "velocity": 0.6850393700787402,
          "duration": 0.21673388541667293
        },
        {
          "name": "C4",
          "midi": 60,
          "time": 87.58065099999963,
          "velocity": 0.7244094488188977,
          "duration": 0.26209679166667854
        },
        {
          "name": "A2",
          "midi": 45,
          "time": 87.82258649999964,
          "velocity": 0.7244094488188977,
          "duration": 0.18649194791666446
        },
        {
          "name": "A3",
          "midi": 57,
          "time": 87.82258649999964,
          "velocity": 0.7559055118110236,
          "duration": 0.181451624999994
        },
        {
          "name": "D3",
          "midi": 50,
          "time": 88.06452199999964,
          "velocity": 0.7165354330708661,
          "duration": 0.08064516666667032
        },
        {
          "name": "D4",
          "midi": 62,
          "time": 88.06452199999964,
          "velocity": 0.7480314960629921,
          "duration": 0.09576613541666745
        },
        {
          "name": "D1",
          "midi": 26,
          "time": 88.30645749999964,
          "velocity": 0.8976377952755905,
          "duration": 0.786290374999993
        },
        {
          "name": "D2",
          "midi": 38,
          "time": 88.30645749999964,
          "velocity": 0.8976377952755905,
          "duration": 0.7711694062499959
        },
        {
          "name": "C4",
          "midi": 60,
          "time": 88.54839299999963,
          "velocity": 0.7165354330708661,
          "duration": 0.24193549999999675
        },
        {
          "name": "C3",
          "midi": 48,
          "time": 88.54839299999963,
          "velocity": 0.6929133858267716,
          "duration": 0.20665323958333204
        },
        {
          "name": "A2",
          "midi": 45,
          "time": 88.79032849999963,
          "velocity": 0.7480314960629921,
          "duration": 0.181451624999994
        },
        {
          "name": "A3",
          "midi": 57,
          "time": 88.79032849999963,
          "velocity": 0.6771653543307087,
          "duration": 0.18649194791666446
        },
        {
          "name": "D3",
          "midi": 50,
          "time": 89.03226399999963,
          "velocity": 0.7401574803149606,
          "duration": 0.12600807291667593
        },
        {
          "name": "D4",
          "midi": 62,
          "time": 89.03226399999963,
          "velocity": 0.7322834645669292,
          "duration": 0.1008064583333379
        },
        {
          "name": "D1",
          "midi": 26,
          "time": 89.27419949999964,
          "velocity": 0.8976377952755905,
          "duration": 0.7056452083333227
        },
        {
          "name": "D2",
          "midi": 38,
          "time": 89.27419949999964,
          "velocity": 0.8976377952755905,
          "duration": 0.6754032708333284
        },
        {
          "name": "C3",
          "midi": 48,
          "time": 89.51613499999964,
          "velocity": 0.7559055118110236,
          "duration": 0.1915322708333349
        },
        {
          "name": "C4",
          "midi": 60,
          "time": 89.51613499999964,
          "velocity": 0.7559055118110236,
          "duration": 0.19657259375000535
        },
        {
          "name": "A2",
          "midi": 45,
          "time": 89.75807049999965,
          "velocity": 0.7637795275590551,
          "duration": 0.2520161458333092
        },
        {
          "name": "A3",
          "midi": 57,
          "time": 89.75807049999965,
          "velocity": 0.7480314960629921,
          "duration": 0.181451624999994
        },
        {
          "name": "D3",
          "midi": 50,
          "time": 90.00000599999963,
          "velocity": 0.7559055118110236,
          "duration": 0.09576613541665324
        },
        {
          "name": "D4",
          "midi": 62,
          "time": 90.00000599999963,
          "velocity": 0.7165354330708661,
          "duration": 0.08064516666665611
        },
        {
          "name": "D2",
          "midi": 38,
          "time": 90.24194149999961,
          "velocity": 0.8976377952755905,
          "duration": 0.8215726354166719
        },
        {
          "name": "D1",
          "midi": 26,
          "time": 90.24194149999961,
          "velocity": 0.8976377952755905,
          "duration": 0.7862903750000072
        },
        {
          "name": "C3",
          "midi": 48,
          "time": 90.48387699999961,
          "velocity": 0.6850393700787402,
          "duration": 0.21673388541667293
        },
        {
          "name": "C4",
          "midi": 60,
          "time": 90.48387699999961,
          "velocity": 0.7244094488188977,
          "duration": 0.26209679166667854
        },
        {
          "name": "A2",
          "midi": 45,
          "time": 90.72581249999962,
          "velocity": 0.7244094488188977,
          "duration": 0.18649194791666446
        },
        {
          "name": "A3",
          "midi": 57,
          "time": 90.72581249999962,
          "velocity": 0.7559055118110236,
          "duration": 0.181451624999994
        },
        {
          "name": "D3",
          "midi": 50,
          "time": 90.96774799999962,
          "velocity": 0.7165354330708661,
          "duration": 0.08064516666667032
        },
        {
          "name": "D4",
          "midi": 62,
          "time": 90.96774799999962,
          "velocity": 0.7480314960629921,
          "duration": 0.09576613541666745
        },
        {
          "name": "D1",
          "midi": 26,
          "time": 91.20968349999961,
          "velocity": 0.8976377952755905,
          "duration": 0.786290374999993
        },
        {
          "name": "D2",
          "midi": 38,
          "time": 91.20968349999961,
          "velocity": 0.8976377952755905,
          "duration": 0.7711694062499959
        },
        {
          "name": "C4",
          "midi": 60,
          "time": 91.45161899999961,
          "velocity": 0.7165354330708661,
          "duration": 0.24193549999999675
        },
        {
          "name": "C3",
          "midi": 48,
          "time": 91.45161899999961,
          "velocity": 0.6929133858267716,
          "duration": 0.20665323958333204
        },
        {
          "name": "A2",
          "midi": 45,
          "time": 91.6935544999996,
          "velocity": 0.7480314960629921,
          "duration": 0.181451624999994
        },
        {
          "name": "A3",
          "midi": 57,
          "time": 91.6935544999996,
          "velocity": 0.6771653543307087,
          "duration": 0.18649194791666446
        },
        {
          "name": "D3",
          "midi": 50,
          "time": 91.9354899999996,
          "velocity": 0.7401574803149606,
          "duration": 0.12600807291667593
        },
        {
          "name": "D4",
          "midi": 62,
          "time": 91.9354899999996,
          "velocity": 0.7322834645669292,
          "duration": 0.1008064583333379
        },
        {
          "name": "D1",
          "midi": 26,
          "time": 92.17742549999961,
          "velocity": 0.8976377952755905,
          "duration": 0.7056452083333227
        },
        {
          "name": "D2",
          "midi": 38,
          "time": 92.17742549999961,
          "velocity": 0.8976377952755905,
          "duration": 0.6754032708333284
        },
        {
          "name": "C3",
          "midi": 48,
          "time": 92.41936099999961,
          "velocity": 0.7559055118110236,
          "duration": 0.1915322708333349
        },
        {
          "name": "C4",
          "midi": 60,
          "time": 92.41936099999961,
          "velocity": 0.7559055118110236,
          "duration": 0.19657259375000535
        },
        {
          "name": "A2",
          "midi": 45,
          "time": 92.66129649999962,
          "velocity": 0.7637795275590551,
          "duration": 0.2520161458333092
        },
        {
          "name": "A3",
          "midi": 57,
          "time": 92.66129649999962,
          "velocity": 0.7480314960629921,
          "duration": 0.181451624999994
        },
        {
          "name": "D3",
          "midi": 50,
          "time": 92.9032319999996,
          "velocity": 0.7559055118110236,
          "duration": 0.09576613541665324
        },
        {
          "name": "D4",
          "midi": 62,
          "time": 92.9032319999996,
          "velocity": 0.7165354330708661,
          "duration": 0.08064516666665611
        },
        {
          "name": "D2",
          "midi": 38,
          "time": 93.14516749999959,
          "velocity": 0.8976377952755905,
          "duration": 0.8215726354166719
        },
        {
          "name": "D1",
          "midi": 26,
          "time": 93.14516749999959,
          "velocity": 0.8976377952755905,
          "duration": 0.7862903750000072
        },
        {
          "name": "C3",
          "midi": 48,
          "time": 93.38710299999958,
          "velocity": 0.6850393700787402,
          "duration": 0.21673388541667293
        },
        {
          "name": "C4",
          "midi": 60,
          "time": 93.38710299999958,
          "velocity": 0.7244094488188977,
          "duration": 0.26209679166667854
        },
        {
          "name": "A2",
          "midi": 45,
          "time": 93.6290384999996,
          "velocity": 0.7244094488188977,
          "duration": 0.18649194791666446
        },
        {
          "name": "A3",
          "midi": 57,
          "time": 93.6290384999996,
          "velocity": 0.7559055118110236,
          "duration": 0.181451624999994
        },
        {
          "name": "D3",
          "midi": 50,
          "time": 93.87097399999959,
          "velocity": 0.7165354330708661,
          "duration": 0.08064516666667032
        },
        {
          "name": "D4",
          "midi": 62,
          "time": 93.87097399999959,
          "velocity": 0.7480314960629921,
          "duration": 0.09576613541666745
        },
        {
          "name": "D1",
          "midi": 26,
          "time": 94.11290949999959,
          "velocity": 0.8976377952755905,
          "duration": 0.786290374999993
        },
        {
          "name": "D2",
          "midi": 38,
          "time": 94.11290949999959,
          "velocity": 0.8976377952755905,
          "duration": 0.7711694062499959
        },
        {
          "name": "C4",
          "midi": 60,
          "time": 94.35484499999959,
          "velocity": 0.7165354330708661,
          "duration": 0.24193549999999675
        },
        {
          "name": "C3",
          "midi": 48,
          "time": 94.35484499999959,
          "velocity": 0.6929133858267716,
          "duration": 0.20665323958333204
        },
        {
          "name": "A2",
          "midi": 45,
          "time": 94.59678049999958,
          "velocity": 0.7480314960629921,
          "duration": 0.181451624999994
        },
        {
          "name": "A3",
          "midi": 57,
          "time": 94.59678049999958,
          "velocity": 0.6771653543307087,
          "duration": 0.18649194791666446
        },
        {
          "name": "D3",
          "midi": 50,
          "time": 94.83871599999958,
          "velocity": 0.7401574803149606,
          "duration": 0.12600807291667593
        },
        {
          "name": "D4",
          "midi": 62,
          "time": 94.83871599999958,
          "velocity": 0.7322834645669292,
          "duration": 0.1008064583333379
        },
        {
          "name": "D1",
          "midi": 26,
          "time": 95.08065149999959,
          "velocity": 0.8976377952755905,
          "duration": 0.7056452083333227
        },
        {
          "name": "D2",
          "midi": 38,
          "time": 95.08065149999959,
          "velocity": 0.8976377952755905,
          "duration": 0.6754032708333284
        },
        {
          "name": "C3",
          "midi": 48,
          "time": 95.32258699999959,
          "velocity": 0.7559055118110236,
          "duration": 0.1915322708333349
        },
        {
          "name": "C4",
          "midi": 60,
          "time": 95.32258699999959,
          "velocity": 0.7559055118110236,
          "duration": 0.19657259375000535
        },
        {
          "name": "A2",
          "midi": 45,
          "time": 95.5645224999996,
          "velocity": 0.7637795275590551,
          "duration": 0.2520161458333092
        },
        {
          "name": "A3",
          "midi": 57,
          "time": 95.5645224999996,
          "velocity": 0.7480314960629921,
          "duration": 0.181451624999994
        },
        {
          "name": "D3",
          "midi": 50,
          "time": 95.80645799999958,
          "velocity": 0.7559055118110236,
          "duration": 0.09576613541665324
        },
        {
          "name": "D4",
          "midi": 62,
          "time": 95.80645799999958,
          "velocity": 0.7165354330708661,
          "duration": 0.08064516666665611
        },
        {
          "name": "D2",
          "midi": 38,
          "time": 96.04839349999956,
          "velocity": 0.8976377952755905,
          "duration": 0.8215726354166719
        },
        {
          "name": "D1",
          "midi": 26,
          "time": 96.04839349999956,
          "velocity": 0.8976377952755905,
          "duration": 0.7862903750000072
        },
        {
          "name": "C3",
          "midi": 48,
          "time": 96.29032899999956,
          "velocity": 0.6850393700787402,
          "duration": 0.21673388541667293
        },
        {
          "name": "C4",
          "midi": 60,
          "time": 96.29032899999956,
          "velocity": 0.7244094488188977,
          "duration": 0.26209679166667854
        },
        {
          "name": "A2",
          "midi": 45,
          "time": 96.53226449999957,
          "velocity": 0.7244094488188977,
          "duration": 0.18649194791666446
        },
        {
          "name": "A3",
          "midi": 57,
          "time": 96.53226449999957,
          "velocity": 0.7559055118110236,
          "duration": 0.181451624999994
        },
        {
          "name": "D3",
          "midi": 50,
          "time": 96.77419999999957,
          "velocity": 0.7165354330708661,
          "duration": 0.08064516666667032
        },
        {
          "name": "D4",
          "midi": 62,
          "time": 96.77419999999957,
          "velocity": 0.7480314960629921,
          "duration": 0.09576613541666745
        },
        {
          "name": "D1",
          "midi": 26,
          "time": 97.01613549999956,
          "velocity": 0.8976377952755905,
          "duration": 0.786290374999993
        },
        {
          "name": "D2",
          "midi": 38,
          "time": 97.01613549999956,
          "velocity": 0.8976377952755905,
          "duration": 0.7711694062499959
        },
        {
          "name": "C4",
          "midi": 60,
          "time": 97.25807099999956,
          "velocity": 0.7165354330708661,
          "duration": 0.24193549999999675
        },
        {
          "name": "C3",
          "midi": 48,
          "time": 97.25807099999956,
          "velocity": 0.6929133858267716,
          "duration": 0.20665323958333204
        },
        {
          "name": "A2",
          "midi": 45,
          "time": 97.50000649999956,
          "velocity": 0.7480314960629921,
          "duration": 0.181451624999994
        },
        {
          "name": "A3",
          "midi": 57,
          "time": 97.50000649999956,
          "velocity": 0.6771653543307087,
          "duration": 0.18649194791666446
        },
        {
          "name": "D3",
          "midi": 50,
          "time": 97.74194199999955,
          "velocity": 0.7401574803149606,
          "duration": 0.12600807291667593
        },
        {
          "name": "D4",
          "midi": 62,
          "time": 97.74194199999955,
          "velocity": 0.7322834645669292,
          "duration": 0.1008064583333379
        },
        {
          "name": "D1",
          "midi": 26,
          "time": 97.98387749999956,
          "velocity": 0.8976377952755905,
          "duration": 0.7056452083333227
        },
        {
          "name": "D2",
          "midi": 38,
          "time": 97.98387749999956,
          "velocity": 0.8976377952755905,
          "duration": 0.6754032708333284
        },
        {
          "name": "C3",
          "midi": 48,
          "time": 98.22581299999956,
          "velocity": 0.7559055118110236,
          "duration": 0.1915322708333349
        },
        {
          "name": "C4",
          "midi": 60,
          "time": 98.22581299999956,
          "velocity": 0.7559055118110236,
          "duration": 0.19657259375000535
        },
        {
          "name": "A2",
          "midi": 45,
          "time": 98.46774849999957,
          "velocity": 0.7637795275590551,
          "duration": 0.2520161458333092
        },
        {
          "name": "A3",
          "midi": 57,
          "time": 98.46774849999957,
          "velocity": 0.7480314960629921,
          "duration": 0.181451624999994
        },
        {
          "name": "D3",
          "midi": 50,
          "time": 98.70968399999956,
          "velocity": 0.7559055118110236,
          "duration": 0.09576613541665324
        },
        {
          "name": "D4",
          "midi": 62,
          "time": 98.70968399999956,
          "velocity": 0.7165354330708661,
          "duration": 0.08064516666665611
        },
        {
          "name": "D2",
          "midi": 38,
          "time": 98.95161949999954,
          "velocity": 0.8976377952755905,
          "duration": 0.8215726354166719
        },
        {
          "name": "D1",
          "midi": 26,
          "time": 98.95161949999954,
          "velocity": 0.8976377952755905,
          "duration": 0.7862903750000072
        },
        {
          "name": "C3",
          "midi": 48,
          "time": 99.19355499999953,
          "velocity": 0.6850393700787402,
          "duration": 0.21673388541667293
        },
        {
          "name": "C4",
          "midi": 60,
          "time": 99.19355499999953,
          "velocity": 0.7244094488188977,
          "duration": 0.26209679166667854
        },
        {
          "name": "A2",
          "midi": 45,
          "time": 99.43549049999955,
          "velocity": 0.7244094488188977,
          "duration": 0.18649194791666446
        },
        {
          "name": "A3",
          "midi": 57,
          "time": 99.43549049999955,
          "velocity": 0.7559055118110236,
          "duration": 0.181451624999994
        },
        {
          "name": "D3",
          "midi": 50,
          "time": 99.67742599999954,
          "velocity": 0.7165354330708661,
          "duration": 0.08064516666667032
        },
        {
          "name": "D4",
          "midi": 62,
          "time": 99.67742599999954,
          "velocity": 0.7480314960629921,
          "duration": 0.09576613541666745
        },
        {
          "name": "D1",
          "midi": 26,
          "time": 99.91936149999954,
          "velocity": 0.8976377952755905,
          "duration": 0.786290374999993
        },
        {
          "name": "D2",
          "midi": 38,
          "time": 99.91936149999954,
          "velocity": 0.8976377952755905,
          "duration": 0.7711694062499959
        },
        {
          "name": "C4",
          "midi": 60,
          "time": 100.16129699999954,
          "velocity": 0.7165354330708661,
          "duration": 0.24193549999999675
        },
        {
          "name": "C3",
          "midi": 48,
          "time": 100.16129699999954,
          "velocity": 0.6929133858267716,
          "duration": 0.20665323958333204
        },
        {
          "name": "A2",
          "midi": 45,
          "time": 100.40323249999953,
          "velocity": 0.7480314960629921,
          "duration": 0.181451624999994
        },
        {
          "name": "A3",
          "midi": 57,
          "time": 100.40323249999953,
          "velocity": 0.6771653543307087,
          "duration": 0.18649194791666446
        },
        {
          "name": "D3",
          "midi": 50,
          "time": 100.64516799999953,
          "velocity": 0.7401574803149606,
          "duration": 0.12600807291667593
        },
        {
          "name": "D4",
          "midi": 62,
          "time": 100.64516799999953,
          "velocity": 0.7322834645669292,
          "duration": 0.1008064583333379
        },
        {
          "name": "D1",
          "midi": 26,
          "time": 100.88710349999954,
          "velocity": 0.8976377952755905,
          "duration": 0.7056452083333227
        },
        {
          "name": "D2",
          "midi": 38,
          "time": 100.88710349999954,
          "velocity": 0.8976377952755905,
          "duration": 0.6754032708333284
        },
        {
          "name": "C3",
          "midi": 48,
          "time": 101.12903899999954,
          "velocity": 0.7559055118110236,
          "duration": 0.1915322708333349
        },
        {
          "name": "C4",
          "midi": 60,
          "time": 101.12903899999954,
          "velocity": 0.7559055118110236,
          "duration": 0.19657259375000535
        },
        {
          "name": "A2",
          "midi": 45,
          "time": 101.37097449999955,
          "velocity": 0.7637795275590551,
          "duration": 0.2520161458333092
        },
        {
          "name": "A3",
          "midi": 57,
          "time": 101.37097449999955,
          "velocity": 0.7480314960629921,
          "duration": 0.181451624999994
        },
        {
          "name": "D3",
          "midi": 50,
          "time": 101.61290999999953,
          "velocity": 0.7559055118110236,
          "duration": 0.09576613541665324
        },
        {
          "name": "D4",
          "midi": 62,
          "time": 101.61290999999953,
          "velocity": 0.7165354330708661,
          "duration": 0.08064516666665611
        },
        {
          "name": "D1",
          "midi": 26,
          "time": 101.85484549999951,
          "velocity": 0.7480314960629921,
          "duration": 0.6552419791666608
        },
        {
          "name": "D2",
          "midi": 38,
          "time": 101.85484549999951,
          "velocity": 0.7480314960629921,
          "duration": 0.720766177083334
        },
        {
          "name": "C3",
          "midi": 48,
          "time": 102.09678099999951,
          "velocity": 0.7480314960629921,
          "duration": 0.2016129166666616
        },
        {
          "name": "C4",
          "midi": 60,
          "time": 102.09678099999951,
          "velocity": 0.7480314960629921,
          "duration": 0.16129033333332643
        },
        {
          "name": "A2",
          "midi": 45,
          "time": 102.3387164999995,
          "velocity": 0.7480314960629921,
          "duration": 0.17641130208333777
        },
        {
          "name": "A3",
          "midi": 57,
          "time": 102.3387164999995,
          "velocity": 0.7480314960629921,
          "duration": 0.16633065624999688
        },
        {
          "name": "D3",
          "midi": 50,
          "time": 102.58065199999952,
          "velocity": 0.7480314960629921,
          "duration": 0.19657259375000535
        },
        {
          "name": "D4",
          "midi": 62,
          "time": 102.58065199999952,
          "velocity": 0.7480314960629921,
          "duration": 0.14112904166667306
        },
        {
          "name": "D1",
          "midi": 26,
          "time": 102.82258749999953,
          "velocity": 0.7480314960629921,
          "duration": 0.7459677916666863
        },
        {
          "name": "D2",
          "midi": 38,
          "time": 102.82258749999953,
          "velocity": 0.7480314960629921,
          "duration": 0.7862903750000214
        },
        {
          "name": "C3",
          "midi": 48,
          "time": 103.06452299999953,
          "velocity": 0.7480314960629921,
          "duration": 0.16129033333334064
        },
        {
          "name": "C4",
          "midi": 60,
          "time": 103.06452299999953,
          "velocity": 0.7480314960629921,
          "duration": 0.1562500104166702
        },
        {
          "name": "A2",
          "midi": 45,
          "time": 103.30645849999954,
          "velocity": 0.7480314960629921,
          "duration": 0.18145162500000822
        },
        {
          "name": "A3",
          "midi": 57,
          "time": 103.30645849999954,
          "velocity": 0.7480314960629921,
          "duration": 0.1562500104166702
        },
        {
          "name": "D3",
          "midi": 50,
          "time": 103.54839399999955,
          "velocity": 0.7480314960629921,
          "duration": 0.1562500104166702
        },
        {
          "name": "D4",
          "midi": 62,
          "time": 103.54839399999955,
          "velocity": 0.7480314960629921,
          "duration": 0.12600807291667593
        },
        {
          "name": "D2",
          "midi": 38,
          "time": 103.79032949999954,
          "velocity": 0.7480314960629921,
          "duration": 0.5544355208333229
        },
        {
          "name": "D1",
          "midi": 26,
          "time": 103.79032949999954,
          "velocity": 0.7480314960629921,
          "duration": 0.6250000416666524
        },
        {
          "name": "C3",
          "midi": 48,
          "time": 104.03226499999954,
          "velocity": 0.7480314960629921,
          "duration": 0.16129033333332643
        },
        {
          "name": "C4",
          "midi": 60,
          "time": 104.03226499999954,
          "velocity": 0.7480314960629921,
          "duration": 0.16129033333332643
        },
        {
          "name": "A2",
          "midi": 45,
          "time": 104.27420049999954,
          "velocity": 0.7480314960629921,
          "duration": 0.17137097916665311
        },
        {
          "name": "A3",
          "midi": 57,
          "time": 104.27420049999954,
          "velocity": 0.7480314960629921,
          "duration": 0.15120968749998553
        },
        {
          "name": "D3",
          "midi": 50,
          "time": 104.51613599999952,
          "velocity": 0.7480314960629921,
          "duration": 0.1008064583333379
        },
        {
          "name": "D4",
          "midi": 62,
          "time": 104.51613599999952,
          "velocity": 0.7480314960629921,
          "duration": 0.12096775000000548
        },
        {
          "name": "D1",
          "midi": 26,
          "time": 104.75807149999953,
          "velocity": 0.7480314960629921,
          "duration": 0.8870968333333167
        },
        {
          "name": "D2",
          "midi": 38,
          "time": 104.75807149999953,
          "velocity": 0.7480314960629921,
          "duration": 0.8870968333333167
        },
        {
          "name": "D3",
          "midi": 50,
          "time": 104.75807149999953,
          "velocity": 0.7480314960629921,
          "duration": 0.20665323958333204
        },
        {
          "name": "D4",
          "midi": 62,
          "time": 104.75807149999953,
          "velocity": 0.7480314960629921,
          "duration": 0.1915322708333349
        },
        {
          "name": "C6",
          "midi": 84,
          "time": 105.00000699999953,
          "velocity": 0.7480314960629921,
          "duration": 0.23185485416665585
        },
        {
          "name": "C5",
          "midi": 72,
          "time": 105.00000699999953,
          "velocity": 0.7480314960629921,
          "duration": 0.2016129166666616
        },
        {
          "name": "C4",
          "midi": 60,
          "time": 105.00000699999953,
          "velocity": 0.7480314960629921,
          "duration": 0.22177420833332917
        },
        {
          "name": "A3",
          "midi": 57,
          "time": 105.24194249999951,
          "velocity": 0.7480314960629921,
          "duration": 0.1562500104166702
        },
        {
          "name": "A4",
          "midi": 69,
          "time": 105.24194249999951,
          "velocity": 0.7480314960629921,
          "duration": 0.17641130208333777
        },
        {
          "name": "A5",
          "midi": 81,
          "time": 105.24194249999951,
          "velocity": 0.7480314960629921,
          "duration": 0.1562500104166702
        },
        {
          "name": "D5",
          "midi": 74,
          "time": 105.48387799999952,
          "velocity": 0.7480314960629921,
          "duration": 0.181451624999994
        },
        {
          "name": "D4",
          "midi": 62,
          "time": 105.48387799999952,
          "velocity": 0.7480314960629921,
          "duration": 0.13104839583333217
        },
        {
          "name": "D6",
          "midi": 86,
          "time": 105.48387799999952,
          "velocity": 0.7480314960629921,
          "duration": 0.14112904166665885
        },
        {
          "name": "D1",
          "midi": 26,
          "time": 105.72581349999952,
          "velocity": 0.7480314960629921,
          "duration": 0.8518145729166662
        },
        {
          "name": "D2",
          "midi": 38,
          "time": 105.72581349999952,
          "velocity": 0.7480314960629921,
          "duration": 0.8518145729166662
        },
        {
          "name": "D4",
          "midi": 62,
          "time": 105.72581349999952,
          "velocity": 0.7480314960629921,
          "duration": 0.16633065624999688
        },
        {
          "name": "D3",
          "midi": 50,
          "time": 105.72581349999952,
          "velocity": 0.7480314960629921,
          "duration": 0.16633065624999688
        },
        {
          "name": "C5",
          "midi": 72,
          "time": 105.96774899999951,
          "velocity": 0.7480314960629921,
          "duration": 0.1461693645833293
        },
        {
          "name": "C6",
          "midi": 84,
          "time": 105.96774899999951,
          "velocity": 0.7480314960629921,
          "duration": 0.15120968749999975
        },
        {
          "name": "C4",
          "midi": 60,
          "time": 105.96774899999951,
          "velocity": 0.7480314960629921,
          "duration": 0.21673388541667293
        },
        {
          "name": "A5",
          "midi": 81,
          "time": 106.20968449999953,
          "velocity": 0.7874015748031497,
          "duration": 0.1562500104166702
        },
        {
          "name": "A4",
          "midi": 69,
          "time": 106.20968449999953,
          "velocity": 0.7874015748031497,
          "duration": 0.18649194791666446
        },
        {
          "name": "A3",
          "midi": 57,
          "time": 106.20968449999953,
          "velocity": 0.7874015748031497,
          "duration": 0.1562500104166702
        },
        {
          "name": "D5",
          "midi": 74,
          "time": 106.45161999999952,
          "velocity": 0.7952755905511811,
          "duration": 0.15120968749999975
        },
        {
          "name": "D6",
          "midi": 86,
          "time": 106.45161999999952,
          "velocity": 0.7952755905511811,
          "duration": 0.16633065624999688
        },
        {
          "name": "D4",
          "midi": 62,
          "time": 106.45161999999952,
          "velocity": 0.7952755905511811,
          "duration": 0.1461693645833293
        },
        {
          "name": "D1",
          "midi": 26,
          "time": 106.69355549999952,
          "velocity": 0.7952755905511811,
          "duration": 0.7963710208333055
        },
        {
          "name": "D2",
          "midi": 38,
          "time": 106.69355549999952,
          "velocity": 0.7952755905511811,
          "duration": 0.7862903749999788
        },
        {
          "name": "D3",
          "midi": 50,
          "time": 106.69355549999952,
          "velocity": 0.7952755905511811,
          "duration": 0.1461693645833293
        },
        {
          "name": "D4",
          "midi": 62,
          "time": 106.69355549999952,
          "velocity": 0.7952755905511811,
          "duration": 0.15625001041665598
        },
        {
          "name": "C5",
          "midi": 72,
          "time": 106.9354909999995,
          "velocity": 0.7952755905511811,
          "duration": 0.1360887187500026
        },
        {
          "name": "C6",
          "midi": 84,
          "time": 106.9354909999995,
          "velocity": 0.7952755905511811,
          "duration": 0.15120968749999975
        },
        {
          "name": "C4",
          "midi": 60,
          "time": 106.9354909999995,
          "velocity": 0.7952755905511811,
          "duration": 0.17137097916666733
        },
        {
          "name": "A5",
          "midi": 81,
          "time": 107.1774264999995,
          "velocity": 0.7952755905511811,
          "duration": 0.15120968749999975
        },
        {
          "name": "A4",
          "midi": 69,
          "time": 107.1774264999995,
          "velocity": 0.7952755905511811,
          "duration": 0.16129033333332643
        },
        {
          "name": "A3",
          "midi": 57,
          "time": 107.1774264999995,
          "velocity": 0.7952755905511811,
          "duration": 0.14112904166667306
        },
        {
          "name": "D5",
          "midi": 74,
          "time": 107.4193619999995,
          "velocity": 0.7952755905511811,
          "duration": 0.13104839583333217
        },
        {
          "name": "D6",
          "midi": 86,
          "time": 107.4193619999995,
          "velocity": 0.7952755905511811,
          "duration": 0.14112904166665885
        },
        {
          "name": "D4",
          "midi": 62,
          "time": 107.4193619999995,
          "velocity": 0.7952755905511811,
          "duration": 0.181451624999994
        },
        {
          "name": "D3",
          "midi": 50,
          "time": 107.66129749999949,
          "velocity": 0.7952755905511811,
          "duration": 0.16633065624999688
        },
        {
          "name": "D4",
          "midi": 62,
          "time": 107.66129749999949,
          "velocity": 0.7952755905511811,
          "duration": 0.16129033333332643
        },
        {
          "name": "D1",
          "midi": 26,
          "time": 107.66129749999949,
          "velocity": 0.7952755905511811,
          "duration": 0.8316532812499844
        },
        {
          "name": "D2",
          "midi": 38,
          "time": 107.66129749999949,
          "velocity": 0.7952755905511811,
          "duration": 0.8316532812499844
        },
        {
          "name": "C5",
          "midi": 72,
          "time": 107.90323299999949,
          "velocity": 0.8031496062992126,
          "duration": 0.15120968749999975
        },
        {
          "name": "C4",
          "midi": 60,
          "time": 107.90323299999949,
          "velocity": 0.8031496062992126,
          "duration": 0.18649194791666446
        },
        {
          "name": "C6",
          "midi": 84,
          "time": 107.90323299999949,
          "velocity": 0.8031496062992126,
          "duration": 0.11592742708333503
        },
        {
          "name": "A5",
          "midi": 81,
          "time": 108.14516849999949,
          "velocity": 0.8031496062992126,
          "duration": 0.1562500104166702
        },
        {
          "name": "A4",
          "midi": 69,
          "time": 108.14516849999949,
          "velocity": 0.8031496062992126,
          "duration": 0.181451624999994
        },
        {
          "name": "A3",
          "midi": 57,
          "time": 108.14516849999949,
          "velocity": 0.8031496062992126,
          "duration": 0.16633065624999688
        },
        {
          "name": "D5",
          "midi": 74,
          "time": 108.38710399999948,
          "velocity": 0.8031496062992126,
          "duration": 0.16129033333332643
        },
        {
          "name": "D6",
          "midi": 86,
          "time": 108.38710399999948,
          "velocity": 0.8031496062992126,
          "duration": 0.14112904166665885
        },
        {
          "name": "D4",
          "midi": 62,
          "time": 108.38710399999948,
          "velocity": 0.8031496062992126,
          "duration": 0.16129033333332643
        },
        {
          "name": "D3",
          "midi": 50,
          "time": 108.62903949999948,
          "velocity": 0.8031496062992126,
          "duration": 0.16633065624999688
        },
        {
          "name": "D4",
          "midi": 62,
          "time": 108.62903949999948,
          "velocity": 0.8031496062992126,
          "duration": 0.16129033333332643
        },
        {
          "name": "D1",
          "midi": 26,
          "time": 108.62903949999948,
          "velocity": 0.8031496062992126,
          "duration": 0.8467742499999815
        },
        {
          "name": "D2",
          "midi": 38,
          "time": 108.62903949999948,
          "velocity": 0.8031496062992126,
          "duration": 0.8669355416666491
        },
        {
          "name": "C5",
          "midi": 72,
          "time": 108.87097499999948,
          "velocity": 0.8031496062992126,
          "duration": 0.1461693645833293
        },
        {
          "name": "C6",
          "midi": 84,
          "time": 108.87097499999948,
          "velocity": 0.8031496062992126,
          "duration": 0.13104839583333217
        },
        {
          "name": "C4",
          "midi": 60,
          "time": 108.87097499999948,
          "velocity": 0.8031496062992126,
          "duration": 0.18649194791666446
        },
        {
          "name": "A5",
          "midi": 81,
          "time": 109.11291049999947,
          "velocity": 0.8031496062992126,
          "duration": 0.13104839583333217
        },
        {
          "name": "A4",
          "midi": 69,
          "time": 109.11291049999947,
          "velocity": 0.8031496062992126,
          "duration": 0.1461693645833293
        },
        {
          "name": "A3",
          "midi": 57,
          "time": 109.11291049999947,
          "velocity": 0.8031496062992126,
          "duration": 0.15625001041665598
        },
        {
          "name": "D5",
          "midi": 74,
          "time": 109.35484599999945,
          "velocity": 0.8031496062992126,
          "duration": 0.17137097916666733
        },
        {
          "name": "D6",
          "midi": 86,
          "time": 109.35484599999945,
          "velocity": 0.8031496062992126,
          "duration": 0.1562500104166702
        },
        {
          "name": "D4",
          "midi": 62,
          "time": 109.35484599999945,
          "velocity": 0.8031496062992126,
          "duration": 0.16129033333334064
        },
        {
          "name": "D3",
          "midi": 50,
          "time": 109.59678149999945,
          "velocity": 0.8110236220472441,
          "duration": 0.1915322708333349
        },
        {
          "name": "D4",
          "midi": 62,
          "time": 109.59678149999945,
          "velocity": 0.8110236220472441,
          "duration": 0.1915322708333349
        },
        {
          "name": "D1",
          "midi": 26,
          "time": 109.59678149999945,
          "velocity": 0.8110236220472441,
          "duration": 0.8316532812499844
        },
        {
          "name": "D2",
          "midi": 38,
          "time": 109.59678149999945,
          "velocity": 0.8110236220472441,
          "duration": 0.851814572916652
        },
        {
          "name": "C6",
          "midi": 84,
          "time": 109.83871699999945,
          "velocity": 0.8110236220472441,
          "duration": 0.14112904166667306
        },
        {
          "name": "C5",
          "midi": 72,
          "time": 109.83871699999945,
          "velocity": 0.8110236220472441,
          "duration": 0.1562500104166702
        },
        {
          "name": "C4",
          "midi": 60,
          "time": 109.83871699999945,
          "velocity": 0.8110236220472441,
          "duration": 0.18649194791666446
        },
        {
          "name": "A5",
          "midi": 81,
          "time": 110.08065249999945,
          "velocity": 0.8110236220472441,
          "duration": 0.1461693645833293
        },
        {
          "name": "A4",
          "midi": 69,
          "time": 110.08065249999945,
          "velocity": 0.8110236220472441,
          "duration": 0.16129033333332643
        },
        {
          "name": "A3",
          "midi": 57,
          "time": 110.08065249999945,
          "velocity": 0.8110236220472441,
          "duration": 0.15625001041665598
        },
        {
          "name": "D5",
          "midi": 74,
          "time": 110.32258799999944,
          "velocity": 0.8110236220472441,
          "duration": 0.17137097916665311
        },
        {
          "name": "D6",
          "midi": 86,
          "time": 110.32258799999944,
          "velocity": 0.8110236220472441,
          "duration": 0.16129033333332643
        },
        {
          "name": "D4",
          "midi": 62,
          "time": 110.32258799999944,
          "velocity": 0.8110236220472441,
          "duration": 0.17641130208332356
        },
        {
          "name": "D3",
          "midi": 50,
          "time": 110.56452349999944,
          "velocity": 0.8110236220472441,
          "duration": 0.18649194791666446
        },
        {
          "name": "D4",
          "midi": 62,
          "time": 110.56452349999944,
          "velocity": 0.8110236220472441,
          "duration": 0.1915322708333349
        },
        {
          "name": "D1",
          "midi": 26,
          "time": 110.56452349999944,
          "velocity": 0.8110236220472441,
          "duration": 0.8165323124999873
        },
        {
          "name": "D2",
          "midi": 38,
          "time": 110.56452349999944,
          "velocity": 0.8110236220472441,
          "duration": 0.8366936041666548
        },
        {
          "name": "C5",
          "midi": 72,
          "time": 110.80645899999944,
          "velocity": 0.8110236220472441,
          "duration": 0.13104839583333217
        },
        {
          "name": "C6",
          "midi": 84,
          "time": 110.80645899999944,
          "velocity": 0.8110236220472441,
          "duration": 0.13104839583333217
        },
        {
          "name": "C4",
          "midi": 60,
          "time": 110.80645899999944,
          "velocity": 0.8110236220472441,
          "duration": 0.181451624999994
        },
        {
          "name": "A5",
          "midi": 81,
          "time": 111.04839449999943,
          "velocity": 0.8188976377952756,
          "duration": 0.16129033333332643
        },
        {
          "name": "A4",
          "midi": 69,
          "time": 111.04839449999943,
          "velocity": 0.8188976377952756,
          "duration": 0.1461693645833293
        },
        {
          "name": "A3",
          "midi": 57,
          "time": 111.04839449999943,
          "velocity": 0.8188976377952756,
          "duration": 0.16129033333332643
        },
        {
          "name": "D5",
          "midi": 74,
          "time": 111.29032999999943,
          "velocity": 0.8188976377952756,
          "duration": 0.17641130208332356
        },
        {
          "name": "D6",
          "midi": 86,
          "time": 111.29032999999943,
          "velocity": 0.8188976377952756,
          "duration": 0.14112904166665885
        },
        {
          "name": "D4",
          "midi": 62,
          "time": 111.29032999999943,
          "velocity": 0.8188976377952756,
          "duration": 0.15625001041665598
        },
        {
          "name": "D3",
          "midi": 50,
          "time": 111.53226549999943,
          "velocity": 0.8188976377952756,
          "duration": 0.1562500104166702
        },
        {
          "name": "D4",
          "midi": 62,
          "time": 111.53226549999943,
          "velocity": 0.8188976377952756,
          "duration": 0.16633065624999688
        },
        {
          "name": "D1",
          "midi": 26,
          "time": 111.53226549999943,
          "velocity": 0.8188976377952756,
          "duration": 0.8467742500000099
        },
        {
          "name": "D2",
          "midi": 38,
          "time": 111.53226549999943,
          "velocity": 0.8188976377952756,
          "duration": 0.8467742500000099
        },
        {
          "name": "C5",
          "midi": 72,
          "time": 111.77420099999942,
          "velocity": 0.8188976377952756,
          "duration": 0.15120968749999975
        },
        {
          "name": "C6",
          "midi": 84,
          "time": 111.77420099999942,
          "velocity": 0.8188976377952756,
          "duration": 0.14112904166667306
        },
        {
          "name": "C4",
          "midi": 60,
          "time": 111.77420099999942,
          "velocity": 0.8188976377952756,
          "duration": 0.181451624999994
        },
        {
          "name": "A4",
          "midi": 69,
          "time": 112.01613649999942,
          "velocity": 0.8188976377952756,
          "duration": 0.1562500104166702
        },
        {
          "name": "A5",
          "midi": 81,
          "time": 112.01613649999942,
          "velocity": 0.8188976377952756,
          "duration": 0.15120968749999975
        },
        {
          "name": "A3",
          "midi": 57,
          "time": 112.01613649999942,
          "velocity": 0.8188976377952756,
          "duration": 0.16129033333334064
        },
        {
          "name": "D5",
          "midi": 74,
          "time": 112.25807199999943,
          "velocity": 0.8188976377952756,
          "duration": 0.16129033333334064
        },
        {
          "name": "D6",
          "midi": 86,
          "time": 112.25807199999943,
          "velocity": 0.8188976377952756,
          "duration": 0.1461693645833435
        },
        {
          "name": "D4",
          "midi": 62,
          "time": 112.25807199999943,
          "velocity": 0.8188976377952756,
          "duration": 0.2016129166666758
        },
        {
          "name": "D3",
          "midi": 50,
          "time": 112.50000749999944,
          "velocity": 0.8267716535433071,
          "duration": 0.16129033333332643
        },
        {
          "name": "D4",
          "midi": 62,
          "time": 112.50000749999944,
          "velocity": 0.8267716535433071,
          "duration": 0.16633065624999688
        },
        {
          "name": "D1",
          "midi": 26,
          "time": 112.50000749999944,
          "velocity": 0.8267716535433071,
          "duration": 0.8467742499999957
        },
        {
          "name": "D2",
          "midi": 38,
          "time": 112.50000749999944,
          "velocity": 0.8267716535433071,
          "duration": 0.8266129583333282
        },
        {
          "name": "C5",
          "midi": 72,
          "time": 112.74194299999944,
          "velocity": 0.8267716535433071,
          "duration": 0.1562500104166702
        },
        {
          "name": "C6",
          "midi": 84,
          "time": 112.74194299999944,
          "velocity": 0.8267716535433071,
          "duration": 0.14112904166667306
        },
        {
          "name": "C4",
          "midi": 60,
          "time": 112.74194299999944,
          "velocity": 0.8267716535433071,
          "duration": 0.1915322708333349
        },
        {
          "name": "A5",
          "midi": 81,
          "time": 112.98387849999943,
          "velocity": 0.8267716535433071,
          "duration": 0.14112904166667306
        },
        {
          "name": "A4",
          "midi": 69,
          "time": 112.98387849999943,
          "velocity": 0.8267716535433071,
          "duration": 0.17137097916666733
        },
        {
          "name": "A3",
          "midi": 57,
          "time": 112.98387849999943,
          "velocity": 0.8267716535433071,
          "duration": 0.15120968749999975
        },
        {
          "name": "D5",
          "midi": 74,
          "time": 113.22581399999943,
          "velocity": 0.8267716535433071,
          "duration": 0.16129033333334064
        },
        {
          "name": "D6",
          "midi": 86,
          "time": 113.22581399999943,
          "velocity": 0.8267716535433071,
          "duration": 0.14112904166667306
        },
        {
          "name": "D4",
          "midi": 62,
          "time": 113.22581399999943,
          "velocity": 0.8267716535433071,
          "duration": 0.1915322708333349
        },
        {
          "name": "D3",
          "midi": 50,
          "time": 113.46774949999943,
          "velocity": 0.8267716535433071,
          "duration": 0.16129033333334064
        },
        {
          "name": "D4",
          "midi": 62,
          "time": 113.46774949999943,
          "velocity": 0.8267716535433071,
          "duration": 0.14112904166667306
        },
        {
          "name": "D2",
          "midi": 38,
          "time": 113.46774949999943,
          "velocity": 0.8267716535433071,
          "duration": 0.7762097291666805
        },
        {
          "name": "D1",
          "midi": 26,
          "time": 113.46774949999943,
          "velocity": 0.8267716535433071,
          "duration": 0.7207661770833482
        },
        {
          "name": "C6",
          "midi": 84,
          "time": 113.70968499999944,
          "velocity": 0.8267716535433071,
          "duration": 0.12096775000000548
        },
        {
          "name": "C5",
          "midi": 72,
          "time": 113.70968499999944,
          "velocity": 0.8267716535433071,
          "duration": 0.1360887187500026
        },
        {
          "name": "C4",
          "midi": 60,
          "time": 113.70968499999944,
          "velocity": 0.8267716535433071,
          "duration": 0.18145162500000822
        },
        {
          "name": "A5",
          "midi": 81,
          "time": 113.95162049999945,
          "velocity": 0.8267716535433071,
          "duration": 0.13104839583333217
        },
        {
          "name": "A4",
          "midi": 69,
          "time": 113.95162049999945,
          "velocity": 0.8267716535433071,
          "duration": 0.14112904166665885
        },
        {
          "name": "A3",
          "midi": 57,
          "time": 113.95162049999945,
          "velocity": 0.8267716535433071,
          "duration": 0.1461693645833293
        },
        {
          "name": "D5",
          "midi": 74,
          "time": 114.19355599999945,
          "velocity": 0.8346456692913385,
          "duration": 0.16633065624998267
        },
        {
          "name": "D6",
          "midi": 86,
          "time": 114.19355599999945,
          "velocity": 0.8346456692913385,
          "duration": 0.12096774999999127
        },
        {
          "name": "D4",
          "midi": 62,
          "time": 114.19355599999945,
          "velocity": 0.8346456692913385,
          "duration": 0.15625001041665598
        },
        {
          "name": "D3",
          "midi": 50,
          "time": 114.43549149999943,
          "velocity": 0.8346456692913385,
          "duration": 0.16633065624999688
        },
        {
          "name": "D4",
          "midi": 62,
          "time": 114.43549149999943,
          "velocity": 0.8346456692913385,
          "duration": 0.181451624999994
        },
        {
          "name": "D2",
          "midi": 38,
          "time": 114.43549149999943,
          "velocity": 0.8346456692913385,
          "duration": 0.90725812499997
        },
        {
          "name": "D1",
          "midi": 26,
          "time": 114.43549149999943,
          "velocity": 0.8346456692913385,
          "duration": 0.851814572916652
        },
        {
          "name": "C5",
          "midi": 72,
          "time": 114.67742699999943,
          "velocity": 0.8346456692913385,
          "duration": 0.16129033333334064
        },
        {
          "name": "C6",
          "midi": 84,
          "time": 114.67742699999943,
          "velocity": 0.8346456692913385,
          "duration": 0.1360887187500026
        },
        {
          "name": "C4",
          "midi": 60,
          "time": 114.67742699999943,
          "velocity": 0.8346456692913385,
          "duration": 0.18145162500000822
        },
        {
          "name": "A5",
          "midi": 81,
          "time": 114.91936249999944,
          "velocity": 0.8346456692913385,
          "duration": 0.1461693645833293
        },
        {
          "name": "A4",
          "midi": 69,
          "time": 114.91936249999944,
          "velocity": 0.8346456692913385,
          "duration": 0.15625001041665598
        },
        {
          "name": "A3",
          "midi": 57,
          "time": 114.91936249999944,
          "velocity": 0.8346456692913385,
          "duration": 0.1461693645833293
        },
        {
          "name": "D5",
          "midi": 74,
          "time": 115.16129799999942,
          "velocity": 0.8346456692913385,
          "duration": 0.15625001041665598
        },
        {
          "name": "D6",
          "midi": 86,
          "time": 115.16129799999942,
          "velocity": 0.8346456692913385,
          "duration": 0.1461693645833293
        },
        {
          "name": "D4",
          "midi": 62,
          "time": 115.16129799999942,
          "velocity": 0.8346456692913385,
          "duration": 0.17137097916665311
        },
        {
          "name": "D3",
          "midi": 50,
          "time": 115.4032334999994,
          "velocity": 0.8346456692913385,
          "duration": 0.16633065624999688
        },
        {
          "name": "D4",
          "midi": 62,
          "time": 115.4032334999994,
          "velocity": 0.8346456692913385,
          "duration": 0.181451624999994
        },
        {
          "name": "D1",
          "midi": 26,
          "time": 115.4032334999994,
          "velocity": 0.8346456692913385,
          "duration": 0.8014113437500043
        },
        {
          "name": "D2",
          "midi": 38,
          "time": 115.4032334999994,
          "velocity": 0.8346456692913385,
          "duration": 0.8266129583333424
        },
        {
          "name": "C5",
          "midi": 72,
          "time": 115.6451689999994,
          "velocity": 0.84251968503937,
          "duration": 0.1360887187500026
        },
        {
          "name": "C6",
          "midi": 84,
          "time": 115.6451689999994,
          "velocity": 0.84251968503937,
          "duration": 0.13104839583333217
        },
        {
          "name": "C4",
          "midi": 60,
          "time": 115.6451689999994,
          "velocity": 0.84251968503937,
          "duration": 0.18145162500000822
        },
        {
          "name": "A4",
          "midi": 69,
          "time": 115.88710449999941,
          "velocity": 0.84251968503937,
          "duration": 0.16129033333332643
        },
        {
          "name": "A5",
          "midi": 81,
          "time": 115.88710449999941,
          "velocity": 0.84251968503937,
          "duration": 0.14112904166667306
        },
        {
          "name": "A3",
          "midi": 57,
          "time": 115.88710449999941,
          "velocity": 0.84251968503937,
          "duration": 0.15120968749999975
        },
        {
          "name": "D5",
          "midi": 74,
          "time": 116.1290399999994,
          "velocity": 0.84251968503937,
          "duration": 0.1461693645833293
        },
        {
          "name": "D6",
          "midi": 86,
          "time": 116.1290399999994,
          "velocity": 0.84251968503937,
          "duration": 0.13104839583333217
        },
        {
          "name": "D4",
          "midi": 62,
          "time": 116.1290399999994,
          "velocity": 0.84251968503937,
          "duration": 0.1360887187500026
        },
        {
          "name": "D3",
          "midi": 50,
          "time": 116.3709754999994,
          "velocity": 0.84251968503937,
          "duration": 0.16129033333332643
        },
        {
          "name": "D4",
          "midi": 62,
          "time": 116.3709754999994,
          "velocity": 0.84251968503937,
          "duration": 0.181451624999994
        },
        {
          "name": "D1",
          "midi": 26,
          "time": 116.3709754999994,
          "velocity": 0.84251968503937,
          "duration": 0.806451666666689
        },
        {
          "name": "D2",
          "midi": 38,
          "time": 116.3709754999994,
          "velocity": 0.84251968503937,
          "duration": 0.8114919895833594
        },
        {
          "name": "C6",
          "midi": 84,
          "time": 116.6129109999994,
          "velocity": 0.84251968503937,
          "duration": 0.12096775000000548
        },
        {
          "name": "C5",
          "midi": 72,
          "time": 116.6129109999994,
          "velocity": 0.84251968503937,
          "duration": 0.14112904166667306
        },
        {
          "name": "C4",
          "midi": 60,
          "time": 116.6129109999994,
          "velocity": 0.84251968503937,
          "duration": 0.2016129166666758
        },
        {
          "name": "A5",
          "midi": 81,
          "time": 116.85484649999941,
          "velocity": 0.84251968503937,
          "duration": 0.14112904166667306
        },
        {
          "name": "A4",
          "midi": 69,
          "time": 116.85484649999941,
          "velocity": 0.84251968503937,
          "duration": 0.17641130208333777
        },
        {
          "name": "A3",
          "midi": 57,
          "time": 116.85484649999941,
          "velocity": 0.84251968503937,
          "duration": 0.16129033333334064
        },
        {
          "name": "D5",
          "midi": 74,
          "time": 117.09678199999942,
          "velocity": 0.84251968503937,
          "duration": 0.16129033333334064
        },
        {
          "name": "D4",
          "midi": 62,
          "time": 117.09678199999942,
          "velocity": 0.84251968503937,
          "duration": 0.19657259375000535
        },
        {
          "name": "D6",
          "midi": 86,
          "time": 117.09678199999942,
          "velocity": 0.84251968503937,
          "duration": 0.08064516666667032
        },
        {
          "name": "E6",
          "midi": 88,
          "time": 117.09678199999942,
          "velocity": 0.84251968503937,
          "duration": 0.08064516666667032
        },
        {
          "name": "D3",
          "midi": 50,
          "time": 117.33871749999943,
          "velocity": 0.8503937007874016,
          "duration": 0.17137097916666733
        },
        {
          "name": "D4",
          "midi": 62,
          "time": 117.33871749999943,
          "velocity": 0.8503937007874016,
          "duration": 0.2016129166666616
        },
        {
          "name": "D1",
          "midi": 26,
          "time": 117.33871749999943,
          "velocity": 0.8503937007874016,
          "duration": 0.7862903749999788
        },
        {
          "name": "D2",
          "midi": 38,
          "time": 117.33871749999943,
          "velocity": 0.8503937007874016,
          "duration": 0.5342742291666553
        },
        {
          "name": "C5",
          "midi": 72,
          "time": 117.58065299999943,
          "velocity": 0.8503937007874016,
          "duration": 0.1461693645833293
        },
        {
          "name": "C4",
          "midi": 60,
          "time": 117.58065299999943,
          "velocity": 0.8503937007874016,
          "duration": 0.18649194791666446
        },
        {
          "name": "C6",
          "midi": 84,
          "time": 117.58065299999943,
          "velocity": 0.8503937007874016,
          "duration": 0.11592742708333503
        },
        {
          "name": "A4",
          "midi": 69,
          "time": 117.82258849999943,
          "velocity": 0.8503937007874016,
          "duration": 0.15625001041665598
        },
        {
          "name": "A5",
          "midi": 81,
          "time": 117.82258849999943,
          "velocity": 0.8503937007874016,
          "duration": 0.14112904166665885
        },
        {
          "name": "A3",
          "midi": 57,
          "time": 117.82258849999943,
          "velocity": 0.8503937007874016,
          "duration": 0.15120968749998553
        },
        {
          "name": "D5",
          "midi": 74,
          "time": 118.06452399999941,
          "velocity": 0.8503937007874016,
          "duration": 0.16633065624999688
        },
        {
          "name": "D6",
          "midi": 86,
          "time": 118.06452399999941,
          "velocity": 0.8503937007874016,
          "duration": 0.16633065624999688
        },
        {
          "name": "D4",
          "midi": 62,
          "time": 118.06452399999941,
          "velocity": 0.8503937007874016,
          "duration": 0.1562500104166702
        },
        {
          "name": "D3",
          "midi": 50,
          "time": 118.3064594999994,
          "velocity": 0.8503937007874016,
          "duration": 0.17641130208333777
        },
        {
          "name": "D4",
          "midi": 62,
          "time": 118.3064594999994,
          "velocity": 0.8503937007874016,
          "duration": 0.18649194791666446
        },
        {
          "name": "D1",
          "midi": 26,
          "time": 118.3064594999994,
          "velocity": 0.8503937007874016,
          "duration": 0.7862903750000072
        },
        {
          "name": "D2",
          "midi": 38,
          "time": 118.3064594999994,
          "velocity": 0.8503937007874016,
          "duration": 0.7862903750000072
        },
        {
          "name": "C4",
          "midi": 60,
          "time": 118.5483949999994,
          "velocity": 0.8503937007874016,
          "duration": 0.18649194791667867
        },
        {
          "name": "C5",
          "midi": 72,
          "time": 118.5483949999994,
          "velocity": 0.8503937007874016,
          "duration": 0.14112904166667306
        },
        {
          "name": "C6",
          "midi": 84,
          "time": 118.5483949999994,
          "velocity": 0.8503937007874016,
          "duration": 0.14112904166667306
        },
        {
          "name": "A3",
          "midi": 57,
          "time": 118.79033049999941,
          "velocity": 0.8582677165354331,
          "duration": 0.181451624999994
        },
        {
          "name": "A5",
          "midi": 81,
          "time": 118.79033049999941,
          "velocity": 0.8582677165354331,
          "duration": 0.13104839583333217
        },
        {
          "name": "A4",
          "midi": 69,
          "time": 118.79033049999941,
          "velocity": 0.8582677165354331,
          "duration": 0.14112904166665885
        },
        {
          "name": "D5",
          "midi": 74,
          "time": 119.03226599999941,
          "velocity": 0.8582677165354331,
          "duration": 0.17137097916666733
        },
        {
          "name": "D6",
          "midi": 86,
          "time": 119.03226599999941,
          "velocity": 0.8582677165354331,
          "duration": 0.1562500104166702
        },
        {
          "name": "D4",
          "midi": 62,
          "time": 119.03226599999941,
          "velocity": 0.8582677165354331,
          "duration": 0.14112904166667306
        },
        {
          "name": "D3",
          "midi": 50,
          "time": 119.2742014999994,
          "velocity": 0.8582677165354331,
          "duration": 0.16633065624999688
        },
        {
          "name": "D4",
          "midi": 62,
          "time": 119.2742014999994,
          "velocity": 0.8582677165354331,
          "duration": 0.181451624999994
        },
        {
          "name": "D2",
          "midi": 38,
          "time": 119.2742014999994,
          "velocity": 0.8582677165354331,
          "duration": 0.8669355416666491
        },
        {
          "name": "D1",
          "midi": 26,
          "time": 119.2742014999994,
          "velocity": 0.8582677165354331,
          "duration": 0.87701618749999
        },
        {
          "name": "C4",
          "midi": 60,
          "time": 119.5161369999994,
          "velocity": 0.8582677165354331,
          "duration": 0.22177420833331496
        },
        {
          "name": "C5",
          "midi": 72,
          "time": 119.5161369999994,
          "velocity": 0.8582677165354331,
          "duration": 0.1360887187499884
        },
        {
          "name": "C6",
          "midi": 84,
          "time": 119.5161369999994,
          "velocity": 0.8582677165354331,
          "duration": 0.12600807291666172
        },
        {
          "name": "A4",
          "midi": 69,
          "time": 119.75807249999939,
          "velocity": 0.8582677165354331,
          "duration": 0.16129033333332643
        },
        {
          "name": "A5",
          "midi": 81,
          "time": 119.75807249999939,
          "velocity": 0.8582677165354331,
          "duration": 0.1461693645833293
        },
        {
          "name": "A3",
          "midi": 57,
          "time": 119.75807249999939,
          "velocity": 0.8582677165354331,
          "duration": 0.16129033333332643
        },
        {
          "name": "D5",
          "midi": 74,
          "time": 120.00000799999938,
          "velocity": 0.8582677165354331,
          "duration": 0.17137097916668154
        },
        {
          "name": "D6",
          "midi": 86,
          "time": 120.00000799999938,
          "velocity": 0.8582677165354331,
          "duration": 0.1461693645833435
        },
        {
          "name": "D4",
          "midi": 62,
          "time": 120.00000799999938,
          "velocity": 0.8582677165354331,
          "duration": 0.14112904166667306
        },
        {
          "name": "D3",
          "midi": 50,
          "time": 120.2419434999994,
          "velocity": 0.8661417322834646,
          "duration": 0.16129033333332643
        },
        {
          "name": "D4",
          "midi": 62,
          "time": 120.2419434999994,
          "velocity": 0.8661417322834646,
          "duration": 0.16633065624999688
        },
        {
          "name": "D2",
          "midi": 38,
          "time": 120.2419434999994,
          "velocity": 0.8661417322834646,
          "duration": 0.8266129583333424
        },
        {
          "name": "D1",
          "midi": 26,
          "time": 120.2419434999994,
          "velocity": 0.8661417322834646,
          "duration": 0.7913306979166777
        },
        {
          "name": "C5",
          "midi": 72,
          "time": 120.48387899999939,
          "velocity": 0.8661417322834646,
          "duration": 0.1461693645833435
        },
        {
          "name": "C6",
          "midi": 84,
          "time": 120.48387899999939,
          "velocity": 0.8661417322834646,
          "duration": 0.14112904166667306
        },
        {
          "name": "C4",
          "midi": 60,
          "time": 120.48387899999939,
          "velocity": 0.8661417322834646,
          "duration": 0.18145162500000822
        },
        {
          "name": "A5",
          "midi": 81,
          "time": 120.7258144999994,
          "velocity": 0.8661417322834646,
          "duration": 0.14112904166667306
        },
        {
          "name": "A4",
          "midi": 69,
          "time": 120.7258144999994,
          "velocity": 0.8661417322834646,
          "duration": 0.16633065624999688
        },
        {
          "name": "A3",
          "midi": 57,
          "time": 120.7258144999994,
          "velocity": 0.8661417322834646,
          "duration": 0.15120968749999975
        },
        {
          "name": "D5",
          "midi": 74,
          "time": 120.9677499999994,
          "velocity": 0.8661417322834646,
          "duration": 0.17641130208333777
        },
        {
          "name": "D6",
          "midi": 86,
          "time": 120.9677499999994,
          "velocity": 0.8661417322834646,
          "duration": 0.14112904166667306
        },
        {
          "name": "D4",
          "midi": 62,
          "time": 120.9677499999994,
          "velocity": 0.8661417322834646,
          "duration": 0.14112904166667306
        },
        {
          "name": "D3",
          "midi": 50,
          "time": 121.20968549999941,
          "velocity": 0.8661417322834646,
          "duration": 0.1461693645833293
        },
        {
          "name": "D4",
          "midi": 62,
          "time": 121.20968549999941,
          "velocity": 0.8661417322834646,
          "duration": 0.16129033333332643
        },
        {
          "name": "D2",
          "midi": 38,
          "time": 121.20968549999941,
          "velocity": 0.8661417322834646,
          "duration": 0.836693604166669
        },
        {
          "name": "D1",
          "midi": 26,
          "time": 121.20968549999941,
          "velocity": 0.8661417322834646,
          "duration": 0.7762097291666663
        },
        {
          "name": "C5",
          "midi": 72,
          "time": 121.4516209999994,
          "velocity": 0.8661417322834646,
          "duration": 0.15120968749999975
        },
        {
          "name": "C6",
          "midi": 84,
          "time": 121.4516209999994,
          "velocity": 0.8661417322834646,
          "duration": 0.15120968749999975
        },
        {
          "name": "C4",
          "midi": 60,
          "time": 121.4516209999994,
          "velocity": 0.8661417322834646,
          "duration": 0.181451624999994
        },
        {
          "name": "A4",
          "midi": 69,
          "time": 121.6935564999994,
          "velocity": 0.8661417322834646,
          "duration": 0.1461693645833435
        },
        {
          "name": "A5",
          "midi": 81,
          "time": 121.6935564999994,
          "velocity": 0.8661417322834646,
          "duration": 0.14112904166667306
        },
        {
          "name": "A3",
          "midi": 57,
          "time": 121.6935564999994,
          "velocity": 0.8661417322834646,
          "duration": 0.18145162500000822
        },
        {
          "name": "D5",
          "midi": 74,
          "time": 121.93549199999941,
          "velocity": 0.8740157480314961,
          "duration": 0.16129033333332643
        },
        {
          "name": "D6",
          "midi": 86,
          "time": 121.93549199999941,
          "velocity": 0.8740157480314961,
          "duration": 0.13104839583333217
        },
        {
          "name": "D4",
          "midi": 62,
          "time": 121.93549199999941,
          "velocity": 0.8740157480314961,
          "duration": 0.16129033333332643
        },
        {
          "name": "D3",
          "midi": 50,
          "time": 122.17742749999941,
          "velocity": 0.8740157480314961,
          "duration": 0.16129033333332643
        },
        {
          "name": "D4",
          "midi": 62,
          "time": 122.17742749999941,
          "velocity": 0.8740157480314961,
          "duration": 0.181451624999994
        },
        {
          "name": "D1",
          "midi": 26,
          "time": 122.17742749999941,
          "velocity": 0.8740157480314961,
          "duration": 0.8618952187499929
        },
        {
          "name": "D2",
          "midi": 38,
          "time": 122.17742749999941,
          "velocity": 0.8740157480314961,
          "duration": 0.6552419791666608
        },
        {
          "name": "C5",
          "midi": 72,
          "time": 122.41936299999941,
          "velocity": 0.8740157480314961,
          "duration": 0.1360887187499884
        },
        {
          "name": "C6",
          "midi": 84,
          "time": 122.41936299999941,
          "velocity": 0.8740157480314961,
          "duration": 0.12600807291666172
        },
        {
          "name": "C4",
          "midi": 60,
          "time": 122.41936299999941,
          "velocity": 0.8740157480314961,
          "duration": 0.181451624999994
        },
        {
          "name": "A5",
          "midi": 81,
          "time": 122.6612984999994,
          "velocity": 0.8740157480314961,
          "duration": 0.13104839583333217
        },
        {
          "name": "A4",
          "midi": 69,
          "time": 122.6612984999994,
          "velocity": 0.8740157480314961,
          "duration": 0.1461693645833293
        },
        {
          "name": "A3",
          "midi": 57,
          "time": 122.6612984999994,
          "velocity": 0.8740157480314961,
          "duration": 0.16633065624999688
        },
        {
          "name": "D5",
          "midi": 74,
          "time": 122.9032339999994,
          "velocity": 0.8740157480314961,
          "duration": 0.1562500104166702
        },
        {
          "name": "D6",
          "midi": 86,
          "time": 122.9032339999994,
          "velocity": 0.8740157480314961,
          "duration": 0.14112904166667306
        },
        {
          "name": "D4",
          "midi": 62,
          "time": 122.9032339999994,
          "velocity": 0.8740157480314961,
          "duration": 0.15120968749999975
        },
        {
          "name": "D2",
          "midi": 38,
          "time": 122.9032339999994,
          "velocity": 0.8740157480314961,
          "duration": 0.17137097916666733
        },
        {
          "name": "D3",
          "midi": 50,
          "time": 123.1451694999994,
          "velocity": 0.8740157480314961,
          "duration": 0.17137097916666733
        },
        {
          "name": "D4",
          "midi": 62,
          "time": 123.1451694999994,
          "velocity": 0.8740157480314961,
          "duration": 0.181451624999994
        },
        {
          "name": "D1",
          "midi": 26,
          "time": 123.1451694999994,
          "velocity": 0.8740157480314961,
          "duration": 0.8114919895833452
        },
        {
          "name": "D2",
          "midi": 38,
          "time": 123.1451694999994,
          "velocity": 0.8740157480314961,
          "duration": 0.8266129583333424
        },
        {
          "name": "C5",
          "midi": 72,
          "time": 123.3871049999994,
          "velocity": 0.8818897637795275,
          "duration": 0.1360887187500026
        },
        {
          "name": "C6",
          "midi": 84,
          "time": 123.3871049999994,
          "velocity": 0.8818897637795275,
          "duration": 0.12096775000000548
        },
        {
          "name": "C4",
          "midi": 60,
          "time": 123.3871049999994,
          "velocity": 0.8818897637795275,
          "duration": 0.19657259375000535
        },
        {
          "name": "A5",
          "midi": 81,
          "time": 123.6290404999994,
          "velocity": 0.8818897637795275,
          "duration": 0.14112904166667306
        },
        {
          "name": "A4",
          "midi": 69,
          "time": 123.6290404999994,
          "velocity": 0.8818897637795275,
          "duration": 0.16129033333334064
        },
        {
          "name": "A3",
          "midi": 57,
          "time": 123.6290404999994,
          "velocity": 0.8818897637795275,
          "duration": 0.18145162500000822
        },
        {
          "name": "D5",
          "midi": 74,
          "time": 123.87097599999942,
          "velocity": 0.8818897637795275,
          "duration": 0.16633065624999688
        },
        {
          "name": "D6",
          "midi": 86,
          "time": 123.87097599999942,
          "velocity": 0.8818897637795275,
          "duration": 0.14112904166665885
        },
        {
          "name": "D4",
          "midi": 62,
          "time": 123.87097599999942,
          "velocity": 0.8818897637795275,
          "duration": 0.17137097916666733
        },
        {
          "name": "D3",
          "midi": 50,
          "time": 124.11291149999941,
          "velocity": 0.8818897637795275,
          "duration": 0.18145162500000822
        },
        {
          "name": "D4",
          "midi": 62,
          "time": 124.11291149999941,
          "velocity": 0.8818897637795275,
          "duration": 0.17641130208333777
        },
        {
          "name": "D1",
          "midi": 26,
          "time": 124.11291149999941,
          "velocity": 0.8818897637795275,
          "duration": 0.8266129583333424
        },
        {
          "name": "D2",
          "midi": 38,
          "time": 124.11291149999941,
          "velocity": 0.8818897637795275,
          "duration": 0.8417339270833395
        },
        {
          "name": "C5",
          "midi": 72,
          "time": 124.35484699999942,
          "velocity": 0.8818897637795275,
          "duration": 0.13104839583333217
        },
        {
          "name": "C6",
          "midi": 84,
          "time": 124.35484699999942,
          "velocity": 0.8818897637795275,
          "duration": 0.12096775000000548
        },
        {
          "name": "C4",
          "midi": 60,
          "time": 124.35484699999942,
          "velocity": 0.8818897637795275,
          "duration": 0.22177420833332917
        },
        {
          "name": "A5",
          "midi": 81,
          "time": 124.59678249999942,
          "velocity": 0.8818897637795275,
          "duration": 0.12600807291666172
        },
        {
          "name": "A4",
          "midi": 69,
          "time": 124.59678249999942,
          "velocity": 0.8818897637795275,
          "duration": 0.15120968749999975
        },
        {
          "name": "A3",
          "midi": 57,
          "time": 124.59678249999942,
          "velocity": 0.8818897637795275,
          "duration": 0.16129033333332643
        },
        {
          "name": "D5",
          "midi": 74,
          "time": 124.83871799999942,
          "velocity": 0.8818897637795275,
          "duration": 0.16129033333334064
        },
        {
          "name": "D6",
          "midi": 86,
          "time": 124.83871799999942,
          "velocity": 0.8818897637795275,
          "duration": 0.1461693645833435
        },
        {
          "name": "D4",
          "midi": 62,
          "time": 124.83871799999942,
          "velocity": 0.8818897637795275,
          "duration": 0.14112904166667306
        },
        {
          "name": "D4",
          "midi": 62,
          "time": 125.08065349999943,
          "velocity": 0.889763779527559,
          "duration": 0.16633065624999688
        },
        {
          "name": "D3",
          "midi": 50,
          "time": 125.08065349999943,
          "velocity": 0.889763779527559,
          "duration": 0.17137097916666733
        },
        {
          "name": "D1",
          "midi": 26,
          "time": 125.08065349999943,
          "velocity": 0.889763779527559,
          "duration": 0.7056452083333227
        },
        {
          "name": "D2",
          "midi": 38,
          "time": 125.08065349999943,
          "velocity": 0.889763779527559,
          "duration": 0.7308468229166607
        },
        {
          "name": "C5",
          "midi": 72,
          "time": 125.32258899999943,
          "velocity": 0.889763779527559,
          "duration": 0.14112904166665885
        },
        {
          "name": "C4",
          "midi": 60,
          "time": 125.32258899999943,
          "velocity": 0.889763779527559,
          "duration": 0.181451624999994
        },
        {
          "name": "C6",
          "midi": 84,
          "time": 125.32258899999943,
          "velocity": 0.889763779527559,
          "duration": 0.12600807291666172
        },
        {
          "name": "A3",
          "midi": 57,
          "time": 125.56452449999942,
          "velocity": 0.889763779527559,
          "duration": 0.15120968749999975
        },
        {
          "name": "A4",
          "midi": 69,
          "time": 125.56452449999942,
          "velocity": 0.889763779527559,
          "duration": 0.13104839583333217
        },
        {
          "name": "A5",
          "midi": 81,
          "time": 125.56452449999942,
          "velocity": 0.889763779527559,
          "duration": 0.12096775000000548
        },
        {
          "name": "D5",
          "midi": 74,
          "time": 125.80645999999942,
          "velocity": 0.889763779527559,
          "duration": 0.18145162500000822
        },
        {
          "name": "D6",
          "midi": 86,
          "time": 125.80645999999942,
          "velocity": 0.889763779527559,
          "duration": 0.1461693645833435
        },
        {
          "name": "D4",
          "midi": 62,
          "time": 125.80645999999942,
          "velocity": 0.889763779527559,
          "duration": 0.17137097916668154
        },
        {
          "name": "D3",
          "midi": 50,
          "time": 126.04839549999943,
          "velocity": 0.889763779527559,
          "duration": 0.16633065624999688
        },
        {
          "name": "D4",
          "midi": 62,
          "time": 126.04839549999943,
          "velocity": 0.889763779527559,
          "duration": 0.16633065624999688
        },
        {
          "name": "D2",
          "midi": 38,
          "time": 126.04839549999943,
          "velocity": 0.889763779527559,
          "duration": 0.8820565104166604
        },
        {
          "name": "D1",
          "midi": 26,
          "time": 126.04839549999943,
          "velocity": 0.889763779527559,
          "duration": 0.8467742499999957
        },
        {
          "name": "C5",
          "midi": 72,
          "time": 126.29033099999943,
          "velocity": 0.889763779527559,
          "duration": 0.1562500104166702
        },
        {
          "name": "C6",
          "midi": 84,
          "time": 126.29033099999943,
          "velocity": 0.889763779527559,
          "duration": 0.14112904166667306
        },
        {
          "name": "C4",
          "midi": 60,
          "time": 126.29033099999943,
          "velocity": 0.889763779527559,
          "duration": 0.2016129166666758
        },
        {
          "name": "A4",
          "midi": 69,
          "time": 126.53226649999944,
          "velocity": 0.8976377952755905,
          "duration": 0.15625001041665598
        },
        {
          "name": "A5",
          "midi": 81,
          "time": 126.53226649999944,
          "velocity": 0.8976377952755905,
          "duration": 0.15625001041665598
        },
        {
          "name": "A3",
          "midi": 57,
          "time": 126.53226649999944,
          "velocity": 0.8976377952755905,
          "duration": 0.1461693645833293
        },
        {
          "name": "D5",
          "midi": 74,
          "time": 126.77420199999942,
          "velocity": 0.8976377952755905,
          "duration": 0.1562500104166702
        },
        {
          "name": "D6",
          "midi": 86,
          "time": 126.77420199999942,
          "velocity": 0.8976377952755905,
          "duration": 0.14112904166667306
        },
        {
          "name": "D4",
          "midi": 62,
          "time": 126.77420199999942,
          "velocity": 0.8976377952755905,
          "duration": 0.14112904166667306
        },
        {
          "name": "D3",
          "midi": 50,
          "time": 127.01613749999942,
          "velocity": 0.8976377952755905,
          "duration": 0.16129033333332643
        },
        {
          "name": "D4",
          "midi": 62,
          "time": 127.01613749999942,
          "velocity": 0.8976377952755905,
          "duration": 0.17641130208332356
        },
        {
          "name": "D1",
          "midi": 26,
          "time": 127.01613749999942,
          "velocity": 0.8976377952755905,
          "duration": 0.8064516666666748
        },
        {
          "name": "D2",
          "midi": 38,
          "time": 127.01613749999942,
          "velocity": 0.8976377952755905,
          "duration": 0.8114919895833452
        },
        {
          "name": "C5",
          "midi": 72,
          "time": 127.25807299999941,
          "velocity": 0.8976377952755905,
          "duration": 0.14112904166665885
        },
        {
          "name": "C6",
          "midi": 84,
          "time": 127.25807299999941,
          "velocity": 0.8976377952755905,
          "duration": 0.12600807291666172
        },
        {
          "name": "C4",
          "midi": 60,
          "time": 127.25807299999941,
          "velocity": 0.8976377952755905,
          "duration": 0.181451624999994
        },
        {
          "name": "A5",
          "midi": 81,
          "time": 127.50000849999941,
          "velocity": 0.8976377952755905,
          "duration": 0.12096775000000548
        },
        {
          "name": "A4",
          "midi": 69,
          "time": 127.50000849999941,
          "velocity": 0.8976377952755905,
          "duration": 0.1461693645833435
        },
        {
          "name": "A3",
          "midi": 57,
          "time": 127.50000849999941,
          "velocity": 0.8976377952755905,
          "duration": 0.1663306562500111
        },
        {
          "name": "D5",
          "midi": 74,
          "time": 127.74194399999942,
          "velocity": 0.8976377952755905,
          "duration": 0.16129033333334064
        },
        {
          "name": "D6",
          "midi": 86,
          "time": 127.74194399999942,
          "velocity": 0.8976377952755905,
          "duration": 0.1360887187500026
        },
        {
          "name": "C4",
          "midi": 60,
          "time": 127.74194399999942,
          "velocity": 0.8976377952755905,
          "duration": 0.18145162500000822
        },
        {
          "name": "D3",
          "midi": 50,
          "time": 127.98387949999943,
          "velocity": 0.8661417322834646,
          "duration": 0.18649194791666446
        },
        {
          "name": "D4",
          "midi": 62,
          "time": 127.98387949999943,
          "velocity": 0.8661417322834646,
          "duration": 0.17641130208332356
        },
        {
          "name": "D1",
          "midi": 26,
          "time": 127.98387949999943,
          "velocity": 0.8661417322834646,
          "duration": 0.8467742499999815
        },
        {
          "name": "D2",
          "midi": 38,
          "time": 127.98387949999943,
          "velocity": 0.8661417322834646,
          "duration": 0.8467742499999815
        },
        {
          "name": "C5",
          "midi": 72,
          "time": 128.22581499999944,
          "velocity": 0.8661417322834646,
          "duration": 0.15120968749999975
        },
        {
          "name": "C6",
          "midi": 84,
          "time": 128.22581499999944,
          "velocity": 0.8661417322834646,
          "duration": 0.14112904166665885
        },
        {
          "name": "D4",
          "midi": 62,
          "time": 128.22581499999944,
          "velocity": 0.8661417322834646,
          "duration": 0.030241937499994265
        },
        {
          "name": "C4",
          "midi": 60,
          "time": 128.22581499999944,
          "velocity": 0.8661417322834646,
          "duration": 0.21673388541665872
        },
        {
          "name": "A5",
          "midi": 81,
          "time": 128.46775049999943,
          "velocity": 0.8661417322834646,
          "duration": 0.10584678124999414
        },
        {
          "name": "A4",
          "midi": 69,
          "time": 128.46775049999943,
          "velocity": 0.8661417322834646,
          "duration": 0.13104839583331795
        },
        {
          "name": "A3",
          "midi": 57,
          "time": 128.46775049999943,
          "velocity": 0.8661417322834646,
          "duration": 0.16633065624998267
        },
        {
          "name": "D5",
          "midi": 74,
          "time": 128.7096859999994,
          "velocity": 0.8661417322834646,
          "duration": 0.16129033333334064
        },
        {
          "name": "D6",
          "midi": 86,
          "time": 128.7096859999994,
          "velocity": 0.8661417322834646,
          "duration": 0.1461693645833293
        },
        {
          "name": "D4",
          "midi": 62,
          "time": 128.7096859999994,
          "velocity": 0.8661417322834646,
          "duration": 0.1562500104166702
        },
        {
          "name": "D3",
          "midi": 50,
          "time": 128.95162149999942,
          "velocity": 0.8661417322834646,
          "duration": 0.14112904166665885
        },
        {
          "name": "D4",
          "midi": 62,
          "time": 128.95162149999942,
          "velocity": 0.8661417322834646,
          "duration": 0.17137097916665311
        },
        {
          "name": "D2",
          "midi": 38,
          "time": 128.95162149999942,
          "velocity": 0.8661417322834646,
          "duration": 0.8417339270833679
        },
        {
          "name": "D1",
          "midi": 26,
          "time": 128.95162149999942,
          "velocity": 0.8661417322834646,
          "duration": 0.8417339270833679
        },
        {
          "name": "C5",
          "midi": 72,
          "time": 129.1935569999994,
          "velocity": 0.8740157480314961,
          "duration": 0.14616936458335772
        },
        {
          "name": "C6",
          "midi": 84,
          "time": 129.1935569999994,
          "velocity": 0.8740157480314961,
          "duration": 0.13104839583334638
        },
        {
          "name": "C4",
          "midi": 60,
          "time": 129.1935569999994,
          "velocity": 0.8740157480314961,
          "duration": 0.22681453125002804
        },
        {
          "name": "A5",
          "midi": 81,
          "time": 129.43549249999944,
          "velocity": 0.8740157480314961,
          "duration": 0.12096775000000548
        },
        {
          "name": "A4",
          "midi": 69,
          "time": 129.43549249999944,
          "velocity": 0.8740157480314961,
          "duration": 0.14112904166668727
        },
        {
          "name": "A3",
          "midi": 57,
          "time": 129.43549249999944,
          "velocity": 0.8740157480314961,
          "duration": 0.13104839583334638
        },
        {
          "name": "D5",
          "midi": 74,
          "time": 129.67742799999945,
          "velocity": 0.8740157480314961,
          "duration": 0.16129033333334064
        },
        {
          "name": "D6",
          "midi": 86,
          "time": 129.67742799999945,
          "velocity": 0.8740157480314961,
          "duration": 0.14112904166665885
        },
        {
          "name": "D4",
          "midi": 62,
          "time": 129.67742799999945,
          "velocity": 0.8740157480314961,
          "duration": 0.1562500104166702
        },
        {
          "name": "D3",
          "midi": 50,
          "time": 129.91936349999946,
          "velocity": 0.8740157480314961,
          "duration": 0.18145162500002243
        },
        {
          "name": "D1",
          "midi": 26,
          "time": 129.91936349999946,
          "velocity": 0.8740157480314961,
          "duration": 0.8518145729167372
        },
        {
          "name": "D2",
          "midi": 38,
          "time": 129.91936349999946,
          "velocity": 0.8740157480314961,
          "duration": 0.8467742500000668
        },
        {
          "name": "D4",
          "midi": 62,
          "time": 129.91936349999946,
          "velocity": 0.8740157480314961,
          "duration": 0.13104839583334638
        },
        {
          "name": "C5",
          "midi": 72,
          "time": 130.16129899999947,
          "velocity": 0.8740157480314961,
          "duration": 0.13608871875001682
        },
        {
          "name": "C6",
          "midi": 84,
          "time": 130.16129899999947,
          "velocity": 0.8740157480314961,
          "duration": 0.13104839583334638
        },
        {
          "name": "C4",
          "midi": 60,
          "time": 130.16129899999947,
          "velocity": 0.8740157480314961,
          "duration": 0.24193550000001096
        },
        {
          "name": "A3",
          "midi": 57,
          "time": 130.40323449999948,
          "velocity": 0.8740157480314961,
          "duration": 0.15120968750002817
        },
        {
          "name": "A4",
          "midi": 69,
          "time": 130.40323449999948,
          "velocity": 0.8740157480314961,
          "duration": 0.13608871875001682
        },
        {
          "name": "A5",
          "midi": 81,
          "time": 130.40323449999948,
          "velocity": 0.8740157480314961,
          "duration": 0.13104839583334638
        },
        {
          "name": "D5",
          "midi": 74,
          "time": 130.64516999999952,
          "velocity": 0.8740157480314961,
          "duration": 0.16129033333334064
        },
        {
          "name": "D4",
          "midi": 62,
          "time": 130.64516999999952,
          "velocity": 0.8740157480314961,
          "duration": 0.1663306562500111
        },
        {
          "name": "D6",
          "midi": 86,
          "time": 130.64516999999952,
          "velocity": 0.8740157480314961,
          "duration": 0.10584678124999414
        },
        {
          "name": "D3",
          "midi": 50,
          "time": 130.88710549999954,
          "velocity": 0.8740157480314961,
          "duration": 0.16129033333334064
        },
        {
          "name": "D4",
          "midi": 62,
          "time": 130.88710549999954,
          "velocity": 0.8740157480314961,
          "duration": 0.17641130208335198
        },
        {
          "name": "D1",
          "midi": 26,
          "time": 130.88710549999954,
          "velocity": 0.8740157480314961,
          "duration": 0.8215726354167145
        },
        {
          "name": "D2",
          "midi": 38,
          "time": 130.88710549999954,
          "velocity": 0.8740157480314961,
          "duration": 0.8064516666667032
        },
        {
          "name": "C5",
          "midi": 72,
          "time": 131.12904099999955,
          "velocity": 0.8740157480314961,
          "duration": 0.1461693645833293
        },
        {
          "name": "C4",
          "midi": 60,
          "time": 131.12904099999955,
          "velocity": 0.8740157480314961,
          "duration": 0.18649194791666446
        },
        {
          "name": "C6",
          "midi": 84,
          "time": 131.12904099999955,
          "velocity": 0.8740157480314961,
          "duration": 0.11592742708333503
        },
        {
          "name": "A5",
          "midi": 81,
          "time": 131.37097649999956,
          "velocity": 0.8818897637795275,
          "duration": 0.13608871875001682
        },
        {
          "name": "A3",
          "midi": 57,
          "time": 131.37097649999956,
          "velocity": 0.8818897637795275,
          "duration": 0.14112904166668727
        },
        {
          "name": "A4",
          "midi": 69,
          "time": 131.37097649999956,
          "velocity": 0.8818897637795275,
          "duration": 0.12096775000000548
        },
        {
          "name": "D6",
          "midi": 86,
          "time": 131.61291199999957,
          "velocity": 0.8818897637795275,
          "duration": 0.13104839583334638
        },
        {
          "name": "D4",
          "midi": 62,
          "time": 131.61291199999957,
          "velocity": 0.8818897637795275,
          "duration": 0.1663306562500111
        },
        {
          "name": "D5",
          "midi": 74,
          "time": 131.61291199999957,
          "velocity": 0.8818897637795275,
          "duration": 0.14112904166668727
        },
        {
          "name": "D3",
          "midi": 50,
          "time": 131.85484749999958,
          "velocity": 0.8818897637795275,
          "duration": 0.1562500104166702
        },
        {
          "name": "D4",
          "midi": 62,
          "time": 131.85484749999958,
          "velocity": 0.8818897637795275,
          "duration": 0.1663306562500111
        },
        {
          "name": "D2",
          "midi": 38,
          "time": 131.85484749999958,
          "velocity": 0.8818897637795275,
          "duration": 0.8266129583333566
        },
        {
          "name": "D1",
          "midi": 26,
          "time": 131.85484749999958,
          "velocity": 0.8818897637795275,
          "duration": 0.8467742500000099
        },
        {
          "name": "C5",
          "midi": 72,
          "time": 132.0967829999996,
          "velocity": 0.8818897637795275,
          "duration": 0.12600807291667593
        },
        {
          "name": "C6",
          "midi": 84,
          "time": 132.0967829999996,
          "velocity": 0.8818897637795275,
          "duration": 0.12096775000000548
        },
        {
          "name": "C4",
          "midi": 60,
          "time": 132.0967829999996,
          "velocity": 0.8818897637795275,
          "duration": 0.2016129166666758
        },
        {
          "name": "A4",
          "midi": 69,
          "time": 132.3387184999996,
          "velocity": 0.8818897637795275,
          "duration": 0.11592742708333503
        },
        {
          "name": "A5",
          "midi": 81,
          "time": 132.3387184999996,
          "velocity": 0.8818897637795275,
          "duration": 0.12600807291667593
        },
        {
          "name": "A3",
          "midi": 57,
          "time": 132.3387184999996,
          "velocity": 0.8818897637795275,
          "duration": 0.16129033333334064
        },
        {
          "name": "D5",
          "midi": 74,
          "time": 132.5806539999996,
          "velocity": 0.8818897637795275,
          "duration": 0.13104839583331795
        },
        {
          "name": "D6",
          "midi": 86,
          "time": 132.5806539999996,
          "velocity": 0.8818897637795275,
          "duration": 0.12096774999997706
        },
        {
          "name": "D4",
          "midi": 62,
          "time": 132.5806539999996,
          "velocity": 0.8818897637795275,
          "duration": 0.15120968749997132
        },
        {
          "name": "D3",
          "midi": 50,
          "time": 132.8225894999996,
          "velocity": 0.8818897637795275,
          "duration": 0.1663306562500111
        },
        {
          "name": "D4",
          "midi": 62,
          "time": 132.8225894999996,
          "velocity": 0.8818897637795275,
          "duration": 0.1915322708333349
        },
        {
          "name": "D1",
          "midi": 26,
          "time": 132.8225894999996,
          "velocity": 0.8818897637795275,
          "duration": 0.8266129583333566
        },
        {
          "name": "D2",
          "midi": 38,
          "time": 132.8225894999996,
          "velocity": 0.8818897637795275,
          "duration": 0.8165323125000157
        },
        {
          "name": "C4",
          "midi": 60,
          "time": 133.0645249999996,
          "velocity": 0.8818897637795275,
          "duration": 0.20665323958331783
        },
        {
          "name": "C5",
          "midi": 72,
          "time": 133.0645249999996,
          "velocity": 0.8818897637795275,
          "duration": 0.11088710416666459
        },
        {
          "name": "C6",
          "midi": 84,
          "time": 133.0645249999996,
          "velocity": 0.8818897637795275,
          "duration": 0.11088710416666459
        },
        {
          "name": "A3",
          "midi": 57,
          "time": 133.3064604999996,
          "velocity": 0.8818897637795275,
          "duration": 0.16129033333334064
        },
        {
          "name": "A5",
          "midi": 81,
          "time": 133.3064604999996,
          "velocity": 0.8818897637795275,
          "duration": 0.12096775000000548
        },
        {
          "name": "A4",
          "midi": 69,
          "time": 133.3064604999996,
          "velocity": 0.8818897637795275,
          "duration": 0.12600807291667593
        },
        {
          "name": "D5",
          "midi": 74,
          "time": 133.5483959999996,
          "velocity": 0.889763779527559,
          "duration": 0.14616936458335772
        },
        {
          "name": "D6",
          "midi": 86,
          "time": 133.5483959999996,
          "velocity": 0.889763779527559,
          "duration": 0.13104839583334638
        },
        {
          "name": "D4",
          "midi": 62,
          "time": 133.5483959999996,
          "velocity": 0.889763779527559,
          "duration": 0.15120968750002817
        },
        {
          "name": "D3",
          "midi": 50,
          "time": 133.79033149999964,
          "velocity": 0.889763779527559,
          "duration": 0.18649194791666446
        },
        {
          "name": "D4",
          "midi": 62,
          "time": 133.79033149999964,
          "velocity": 0.889763779527559,
          "duration": 0.16129033333334064
        },
        {
          "name": "D2",
          "midi": 38,
          "time": 133.79033149999964,
          "velocity": 0.889763779527559,
          "duration": 0.8266129583333282
        },
        {
          "name": "D1",
          "midi": 26,
          "time": 133.79033149999964,
          "velocity": 0.889763779527559,
          "duration": 0.8064516666666748
        },
        {
          "name": "C5",
          "midi": 72,
          "time": 134.03226699999965,
          "velocity": 0.889763779527559,
          "duration": 0.12096775000000548
        },
        {
          "name": "C6",
          "midi": 84,
          "time": 134.03226699999965,
          "velocity": 0.889763779527559,
          "duration": 0.12096775000000548
        },
        {
          "name": "C4",
          "midi": 60,
          "time": 134.03226699999965,
          "velocity": 0.889763779527559,
          "duration": 0.2016129166666758
        },
        {
          "name": "A4",
          "midi": 69,
          "time": 134.27420249999966,
          "velocity": 0.889763779527559,
          "duration": 0.10080645833332369
        },
        {
          "name": "A5",
          "midi": 81,
          "time": 134.27420249999966,
          "velocity": 0.889763779527559,
          "duration": 0.10080645833332369
        },
        {
          "name": "A3",
          "midi": 57,
          "time": 134.27420249999966,
          "velocity": 0.889763779527559,
          "duration": 0.16129033333331222
        },
        {
          "name": "D5",
          "midi": 74,
          "time": 134.51613799999964,
          "velocity": 0.889763779527559,
          "duration": 0.16633065624998267
        },
        {
          "name": "D6",
          "midi": 86,
          "time": 134.51613799999964,
          "velocity": 0.889763779527559,
          "duration": 0.1360887187499884
        },
        {
          "name": "D4",
          "midi": 62,
          "time": 134.51613799999964,
          "velocity": 0.889763779527559,
          "duration": 0.17137097916665311
        },
        {
          "name": "D3",
          "midi": 50,
          "time": 134.75807349999963,
          "velocity": 0.889763779527559,
          "duration": 0.1915322708333349
        },
        {
          "name": "D4",
          "midi": 62,
          "time": 134.75807349999963,
          "velocity": 0.889763779527559,
          "duration": 0.16129033333334064
        },
        {
          "name": "D2",
          "midi": 38,
          "time": 134.75807349999963,
          "velocity": 0.889763779527559,
          "duration": 0.8316532812499986
        },
        {
          "name": "D1",
          "midi": 26,
          "time": 134.75807349999963,
          "velocity": 0.889763779527559,
          "duration": 0.8316532812499986
        },
        {
          "name": "C6",
          "midi": 84,
          "time": 135.00000899999964,
          "velocity": 0.889763779527559,
          "duration": 0.1360887187499884
        },
        {
          "name": "C5",
          "midi": 72,
          "time": 135.00000899999964,
          "velocity": 0.889763779527559,
          "duration": 0.1360887187499884
        },
        {
          "name": "C4",
          "midi": 60,
          "time": 135.00000899999964,
          "velocity": 0.889763779527559,
          "duration": 0.20161291666664738
        },
        {
          "name": "A5",
          "midi": 81,
          "time": 135.24194449999962,
          "velocity": 0.889763779527559,
          "duration": 0.14112904166665885
        },
        {
          "name": "A4",
          "midi": 69,
          "time": 135.24194449999962,
          "velocity": 0.889763779527559,
          "duration": 0.1461693645833293
        },
        {
          "name": "A3",
          "midi": 57,
          "time": 135.24194449999962,
          "velocity": 0.889763779527559,
          "duration": 0.15120968749999975
        },
        {
          "name": "D5",
          "midi": 74,
          "time": 135.48387999999963,
          "velocity": 0.889763779527559,
          "duration": 0.14112904166665885
        },
        {
          "name": "D6",
          "midi": 86,
          "time": 135.48387999999963,
          "velocity": 0.889763779527559,
          "duration": 0.14112904166665885
        },
        {
          "name": "D4",
          "midi": 62,
          "time": 135.48387999999963,
          "velocity": 0.889763779527559,
          "duration": 0.17641130208332356
        },
        {
          "name": "D3",
          "midi": 50,
          "time": 135.7258154999996,
          "velocity": 0.8976377952755905,
          "duration": 0.16129033333334064
        },
        {
          "name": "D4",
          "midi": 62,
          "time": 135.7258154999996,
          "velocity": 0.8976377952755905,
          "duration": 0.181451624999994
        },
        {
          "name": "D1",
          "midi": 26,
          "time": 135.7258154999996,
          "velocity": 0.8976377952755905,
          "duration": 0.791330697916635
        },
        {
          "name": "D2",
          "midi": 38,
          "time": 135.7258154999996,
          "velocity": 0.8976377952755905,
          "duration": 0.7963710208333055
        },
        {
          "name": "C5",
          "midi": 72,
          "time": 135.9677509999996,
          "velocity": 0.8976377952755905,
          "duration": 0.15120968749999975
        },
        {
          "name": "C6",
          "midi": 84,
          "time": 135.9677509999996,
          "velocity": 0.8976377952755905,
          "duration": 0.14112904166665885
        },
        {
          "name": "C4",
          "midi": 60,
          "time": 135.9677509999996,
          "velocity": 0.8976377952755905,
          "duration": 0.21169356249998827
        },
        {
          "name": "A3",
          "midi": 57,
          "time": 136.20968649999958,
          "velocity": 0.8976377952755905,
          "duration": 0.16129033333334064
        },
        {
          "name": "A5",
          "midi": 81,
          "time": 136.20968649999958,
          "velocity": 0.8976377952755905,
          "duration": 0.15120968749999975
        },
        {
          "name": "A4",
          "midi": 69,
          "time": 136.20968649999958,
          "velocity": 0.8976377952755905,
          "duration": 0.14112904166665885
        },
        {
          "name": "D5",
          "midi": 74,
          "time": 136.4516219999996,
          "velocity": 0.8976377952755905,
          "duration": 0.1562500104166702
        },
        {
          "name": "D4",
          "midi": 62,
          "time": 136.4516219999996,
          "velocity": 0.8976377952755905,
          "duration": 0.1562500104166702
        },
        {
          "name": "D6",
          "midi": 86,
          "time": 136.4516219999996,
          "velocity": 0.8976377952755905,
          "duration": 0.12096775000000548
        },
        {
          "name": "D3",
          "midi": 50,
          "time": 136.6935574999996,
          "velocity": 0.8976377952755905,
          "duration": 0.19153227083330648
        },
        {
          "name": "D4",
          "midi": 62,
          "time": 136.6935574999996,
          "velocity": 0.8976377952755905,
          "duration": 0.17137097916665311
        },
        {
          "name": "D2",
          "midi": 38,
          "time": 136.6935574999996,
          "velocity": 0.8976377952755905,
          "duration": 0.8064516666666748
        },
        {
          "name": "D1",
          "midi": 26,
          "time": 136.6935574999996,
          "velocity": 0.8976377952755905,
          "duration": 0.8064516666666748
        },
        {
          "name": "C5",
          "midi": 72,
          "time": 136.93549299999958,
          "velocity": 0.8976377952755905,
          "duration": 0.15120968749999975
        },
        {
          "name": "C4",
          "midi": 60,
          "time": 136.93549299999958,
          "velocity": 0.8976377952755905,
          "duration": 0.21169356249998827
        },
        {
          "name": "C6",
          "midi": 84,
          "time": 136.93549299999958,
          "velocity": 0.8976377952755905,
          "duration": 0.12096775000000548
        },
        {
          "name": "A3",
          "midi": 57,
          "time": 137.17742849999956,
          "velocity": 0.8976377952755905,
          "duration": 0.15625001041669861
        },
        {
          "name": "A5",
          "midi": 81,
          "time": 137.17742849999956,
          "velocity": 0.8976377952755905,
          "duration": 0.12600807291667593
        },
        {
          "name": "A4",
          "midi": 69,
          "time": 137.17742849999956,
          "velocity": 0.8976377952755905,
          "duration": 0.14112904166668727
        },
        {
          "name": "D5",
          "midi": 74,
          "time": 137.4193639999996,
          "velocity": 0.8976377952755905,
          "duration": 0.1562500104166702
        },
        {
          "name": "D6",
          "midi": 86,
          "time": 137.4193639999996,
          "velocity": 0.8976377952755905,
          "duration": 0.13104839583334638
        },
        {
          "name": "D4",
          "midi": 62,
          "time": 137.4193639999996,
          "velocity": 0.8976377952755905,
          "duration": 0.17641130208332356
        },
        {
          "name": "D3",
          "midi": 50,
          "time": 137.6612994999996,
          "velocity": 0.8976377952755905,
          "duration": 0.181451624999994
        },
        {
          "name": "D4",
          "midi": 62,
          "time": 137.6612994999996,
          "velocity": 0.8976377952755905,
          "duration": 0.19657259375000535
        },
        {
          "name": "D2",
          "midi": 38,
          "time": 137.6612994999996,
          "velocity": 0.8976377952755905,
          "duration": 0.8870968333333735
        },
        {
          "name": "D1",
          "midi": 26,
          "time": 137.6612994999996,
          "velocity": 0.8976377952755905,
          "duration": 0.892137156250044
        },
        {
          "name": "C5",
          "midi": 72,
          "time": 137.9032349999996,
          "velocity": 0.905511811023622,
          "duration": 0.14112904166668727
        },
        {
          "name": "C6",
          "midi": 84,
          "time": 137.9032349999996,
          "velocity": 0.905511811023622,
          "duration": 0.13104839583334638
        },
        {
          "name": "C4",
          "midi": 60,
          "time": 137.9032349999996,
          "velocity": 0.905511811023622,
          "duration": 0.18145162500002243
        },
        {
          "name": "A3",
          "midi": 57,
          "time": 138.1451704999996,
          "velocity": 0.905511811023622,
          "duration": 0.12600807291667593
        },
        {
          "name": "A5",
          "midi": 81,
          "time": 138.1451704999996,
          "velocity": 0.905511811023622,
          "duration": 0.13104839583334638
        },
        {
          "name": "A4",
          "midi": 69,
          "time": 138.1451704999996,
          "velocity": 0.905511811023622,
          "duration": 0.1562500104166702
        },
        {
          "name": "D5",
          "midi": 74,
          "time": 138.38710599999962,
          "velocity": 0.905511811023622,
          "duration": 0.1461693645833293
        },
        {
          "name": "D6",
          "midi": 86,
          "time": 138.38710599999962,
          "velocity": 0.905511811023622,
          "duration": 0.1360887187499884
        },
        {
          "name": "D4",
          "midi": 62,
          "time": 138.38710599999962,
          "velocity": 0.905511811023622,
          "duration": 0.1461693645833293
        },
        {
          "name": "D4",
          "midi": 62,
          "time": 138.62904149999963,
          "velocity": 0.905511811023622,
          "duration": 0.1663306562500111
        },
        {
          "name": "D3",
          "midi": 50,
          "time": 138.62904149999963,
          "velocity": 0.905511811023622,
          "duration": 0.17641130208335198
        },
        {
          "name": "D2",
          "midi": 38,
          "time": 138.62904149999963,
          "velocity": 0.905511811023622,
          "duration": 0.7862903750000214
        },
        {
          "name": "D1",
          "midi": 26,
          "time": 138.62904149999963,
          "velocity": 0.905511811023622,
          "duration": 0.8064516666666748
        },
        {
          "name": "C5",
          "midi": 72,
          "time": 138.87097699999964,
          "velocity": 0.905511811023622,
          "duration": 0.14112904166665885
        },
        {
          "name": "C6",
          "midi": 84,
          "time": 138.87097699999964,
          "velocity": 0.905511811023622,
          "duration": 0.1360887187499884
        },
        {
          "name": "C4",
          "midi": 60,
          "time": 138.87097699999964,
          "velocity": 0.905511811023622,
          "duration": 0.18649194791666446
        },
        {
          "name": "A4",
          "midi": 69,
          "time": 139.11291249999965,
          "velocity": 0.905511811023622,
          "duration": 0.14616936458335772
        },
        {
          "name": "A5",
          "midi": 81,
          "time": 139.11291249999965,
          "velocity": 0.905511811023622,
          "duration": 0.13104839583334638
        },
        {
          "name": "A3",
          "midi": 57,
          "time": 139.11291249999965,
          "velocity": 0.905511811023622,
          "duration": 0.14112904166668727
        },
        {
          "name": "D5",
          "midi": 74,
          "time": 139.35484799999966,
          "velocity": 0.905511811023622,
          "duration": 0.15120968749997132
        },
        {
          "name": "D6",
          "midi": 86,
          "time": 139.35484799999966,
          "velocity": 0.905511811023622,
          "duration": 0.14112904166663043
        },
        {
          "name": "D4",
          "midi": 62,
          "time": 139.35484799999966,
          "velocity": 0.905511811023622,
          "duration": 0.14112904166663043
        },
        {
          "name": "D3",
          "midi": 50,
          "time": 139.59678349999965,
          "velocity": 0.905511811023622,
          "duration": 0.17137097916665311
        },
        {
          "name": "D4",
          "midi": 62,
          "time": 139.59678349999965,
          "velocity": 0.905511811023622,
          "duration": 0.17641130208332356
        },
        {
          "name": "D2",
          "midi": 38,
          "time": 139.59678349999965,
          "velocity": 0.905511811023622,
          "duration": 0.8467742500000099
        },
        {
          "name": "D1",
          "midi": 26,
          "time": 139.59678349999965,
          "velocity": 0.905511811023622,
          "duration": 0.8467742500000099
        },
        {
          "name": "C5",
          "midi": 72,
          "time": 139.83871899999963,
          "velocity": 0.905511811023622,
          "duration": 0.16129033333334064
        },
        {
          "name": "C6",
          "midi": 84,
          "time": 139.83871899999963,
          "velocity": 0.905511811023622,
          "duration": 0.1461693645833293
        },
        {
          "name": "C4",
          "midi": 60,
          "time": 139.83871899999963,
          "velocity": 0.905511811023622,
          "duration": 0.17641130208335198
        },
        {
          "name": "A4",
          "midi": 69,
          "time": 140.08065449999964,
          "velocity": 0.9133858267716536,
          "duration": 0.14112904166665885
        },
        {
          "name": "A5",
          "midi": 81,
          "time": 140.08065449999964,
          "velocity": 0.9133858267716536,
          "duration": 0.12096775000000548
        },
        {
          "name": "A3",
          "midi": 57,
          "time": 140.08065449999964,
          "velocity": 0.9133858267716536,
          "duration": 0.1562500104166702
        },
        {
          "name": "D5",
          "midi": 74,
          "time": 140.32258999999965,
          "velocity": 0.9133858267716536,
          "duration": 0.1562500104166702
        },
        {
          "name": "D6",
          "midi": 86,
          "time": 140.32258999999965,
          "velocity": 0.9133858267716536,
          "duration": 0.15120968749999975
        },
        {
          "name": "D4",
          "midi": 62,
          "time": 140.32258999999965,
          "velocity": 0.9133858267716536,
          "duration": 0.16129033333334064
        },
        {
          "name": "D3",
          "midi": 50,
          "time": 140.56452549999966,
          "velocity": 0.9133858267716536,
          "duration": 0.1663306562500111
        },
        {
          "name": "D4",
          "midi": 62,
          "time": 140.56452549999966,
          "velocity": 0.9133858267716536,
          "duration": 0.1663306562500111
        },
        {
          "name": "D2",
          "midi": 38,
          "time": 140.56452549999966,
          "velocity": 0.9133858267716536,
          "duration": 0.826612958333385
        },
        {
          "name": "D1",
          "midi": 26,
          "time": 140.56452549999966,
          "velocity": 0.9133858267716536,
          "duration": 0.8114919895833737
        },
        {
          "name": "C5",
          "midi": 72,
          "time": 140.80646099999967,
          "velocity": 0.9133858267716536,
          "duration": 0.1360887187499884
        },
        {
          "name": "C6",
          "midi": 84,
          "time": 140.80646099999967,
          "velocity": 0.9133858267716536,
          "duration": 0.14112904166665885
        },
        {
          "name": "C4",
          "midi": 60,
          "time": 140.80646099999967,
          "velocity": 0.9133858267716536,
          "duration": 0.22681453124999962
        },
        {
          "name": "A4",
          "midi": 69,
          "time": 141.04839649999968,
          "velocity": 0.9133858267716536,
          "duration": 0.13104839583334638
        },
        {
          "name": "A5",
          "midi": 81,
          "time": 141.04839649999968,
          "velocity": 0.9133858267716536,
          "duration": 0.11592742708333503
        },
        {
          "name": "A3",
          "midi": 57,
          "time": 141.04839649999968,
          "velocity": 0.9133858267716536,
          "duration": 0.1562500104166702
        },
        {
          "name": "D5",
          "midi": 74,
          "time": 141.2903319999997,
          "velocity": 0.9133858267716536,
          "duration": 0.16129033333334064
        },
        {
          "name": "D6",
          "midi": 86,
          "time": 141.2903319999997,
          "velocity": 0.9133858267716536,
          "duration": 0.13608871875001682
        },
        {
          "name": "D4",
          "midi": 62,
          "time": 141.2903319999997,
          "velocity": 0.9133858267716536,
          "duration": 0.16129033333334064
        },
        {
          "name": "D3",
          "midi": 50,
          "time": 141.5322674999997,
          "velocity": 0.9133858267716536,
          "duration": 0.1663306562500111
        },
        {
          "name": "D4",
          "midi": 62,
          "time": 141.5322674999997,
          "velocity": 0.9133858267716536,
          "duration": 0.18145162500002243
        },
        {
          "name": "D2",
          "midi": 38,
          "time": 141.5322674999997,
          "velocity": 0.9133858267716536,
          "duration": 0.8215726354166577
        },
        {
          "name": "D1",
          "midi": 26,
          "time": 141.5322674999997,
          "velocity": 0.9133858267716536,
          "duration": 0.7913306979166634
        },
        {
          "name": "C5",
          "midi": 72,
          "time": 141.77420299999972,
          "velocity": 0.9133858267716536,
          "duration": 0.16129033333334064
        },
        {
          "name": "C6",
          "midi": 84,
          "time": 141.77420299999972,
          "velocity": 0.9133858267716536,
          "duration": 0.1461693645833293
        },
        {
          "name": "C4",
          "midi": 60,
          "time": 141.77420299999972,
          "velocity": 0.9133858267716536,
          "duration": 0.1663306562500111
        },
        {
          "name": "A5",
          "midi": 81,
          "time": 142.01613849999973,
          "velocity": 0.9133858267716536,
          "duration": 0.14112904166665885
        },
        {
          "name": "A4",
          "midi": 69,
          "time": 142.01613849999973,
          "velocity": 0.9133858267716536,
          "duration": 0.16129033333331222
        },
        {
          "name": "A3",
          "midi": 57,
          "time": 142.01613849999973,
          "velocity": 0.9133858267716536,
          "duration": 0.14112904166665885
        },
        {
          "name": "D5",
          "midi": 74,
          "time": 142.2580739999997,
          "velocity": 0.9212598425196851,
          "duration": 0.1461693645833293
        },
        {
          "name": "D6",
          "midi": 86,
          "time": 142.2580739999997,
          "velocity": 0.9212598425196851,
          "duration": 0.14112904166665885
        },
        {
          "name": "D4",
          "midi": 62,
          "time": 142.2580739999997,
          "velocity": 0.9212598425196851,
          "duration": 0.16633065624998267
        },
        {
          "name": "D3",
          "midi": 50,
          "time": 142.5000094999997,
          "velocity": 0.9212598425196851,
          "duration": 0.181451624999994
        },
        {
          "name": "D4",
          "midi": 62,
          "time": 142.5000094999997,
          "velocity": 0.9212598425196851,
          "duration": 0.181451624999994
        },
        {
          "name": "D2",
          "midi": 38,
          "time": 142.5000094999997,
          "velocity": 0.9212598425196851,
          "duration": 0.786290374999993
        },
        {
          "name": "D1",
          "midi": 26,
          "time": 142.5000094999997,
          "velocity": 0.9212598425196851,
          "duration": 0.7762097291666521
        },
        {
          "name": "C5",
          "midi": 72,
          "time": 142.74194499999967,
          "velocity": 0.9212598425196851,
          "duration": 0.1461693645833293
        },
        {
          "name": "C6",
          "midi": 84,
          "time": 142.74194499999967,
          "velocity": 0.9212598425196851,
          "duration": 0.14112904166665885
        },
        {
          "name": "C4",
          "midi": 60,
          "time": 142.74194499999967,
          "velocity": 0.9212598425196851,
          "duration": 0.21673388541665872
        },
        {
          "name": "A5",
          "midi": 81,
          "time": 142.98388049999966,
          "velocity": 0.9212598425196851,
          "duration": 0.12096775000000548
        },
        {
          "name": "A4",
          "midi": 69,
          "time": 142.98388049999966,
          "velocity": 0.9212598425196851,
          "duration": 0.16129033333334064
        },
        {
          "name": "A3",
          "midi": 57,
          "time": 142.98388049999966,
          "velocity": 0.9212598425196851,
          "duration": 0.15120968749999975
        },
        {
          "name": "D5",
          "midi": 74,
          "time": 143.22581599999967,
          "velocity": 0.9212598425196851,
          "duration": 0.14616936458335772
        },
        {
          "name": "D6",
          "midi": 86,
          "time": 143.22581599999967,
          "velocity": 0.9212598425196851,
          "duration": 0.14616936458335772
        },
        {
          "name": "D4",
          "midi": 62,
          "time": 143.22581599999967,
          "velocity": 0.9212598425196851,
          "duration": 0.14616936458335772
        },
        {
          "name": "D3",
          "midi": 50,
          "time": 143.46775149999968,
          "velocity": 0.9212598425196851,
          "duration": 0.181451624999994
        },
        {
          "name": "D4",
          "midi": 62,
          "time": 143.46775149999968,
          "velocity": 0.9212598425196851,
          "duration": 0.17641130208332356
        },
        {
          "name": "D2",
          "midi": 38,
          "time": 143.46775149999968,
          "velocity": 0.9212598425196851,
          "duration": 0.8165323124999588
        },
        {
          "name": "D1",
          "midi": 26,
          "time": 143.46775149999968,
          "velocity": 0.9212598425196851,
          "duration": 0.8316532812499702
        },
        {
          "name": "C6",
          "midi": 84,
          "time": 143.70968699999966,
          "velocity": 0.9212598425196851,
          "duration": 0.13104839583334638
        },
        {
          "name": "C5",
          "midi": 72,
          "time": 143.70968699999966,
          "velocity": 0.9212598425196851,
          "duration": 0.15120968749999975
        },
        {
          "name": "C4",
          "midi": 60,
          "time": 143.70968699999966,
          "velocity": 0.9212598425196851,
          "duration": 0.22177420833332917
        },
        {
          "name": "A4",
          "midi": 69,
          "time": 143.95162249999964,
          "velocity": 0.9212598425196851,
          "duration": 0.15120968749999975
        },
        {
          "name": "A5",
          "midi": 81,
          "time": 143.95162249999964,
          "velocity": 0.9212598425196851,
          "duration": 0.1360887187499884
        },
        {
          "name": "A3",
          "midi": 57,
          "time": 143.95162249999964,
          "velocity": 0.9212598425196851,
          "duration": 0.181451624999994
        },
        {
          "name": "D5",
          "midi": 74,
          "time": 144.19355799999963,
          "velocity": 0.9212598425196851,
          "duration": 0.15625001041669861
        },
        {
          "name": "D6",
          "midi": 86,
          "time": 144.19355799999963,
          "velocity": 0.9212598425196851,
          "duration": 0.15625001041669861
        },
        {
          "name": "D4",
          "midi": 62,
          "time": 144.19355799999963,
          "velocity": 0.9212598425196851,
          "duration": 0.1663306562500395
        },
        {
          "name": "D3",
          "midi": 50,
          "time": 144.43549349999967,
          "velocity": 0.9291338582677166,
          "duration": 0.18145162500002243
        },
        {
          "name": "D4",
          "midi": 62,
          "time": 144.43549349999967,
          "velocity": 0.9291338582677166,
          "duration": 0.1663306562500111
        },
        {
          "name": "D1",
          "midi": 26,
          "time": 144.43549349999967,
          "velocity": 0.9291338582677166,
          "duration": 0.831653281250027
        },
        {
          "name": "D2",
          "midi": 38,
          "time": 144.43549349999967,
          "velocity": 0.9291338582677166,
          "duration": 0.831653281250027
        },
        {
          "name": "C5",
          "midi": 72,
          "time": 144.67742899999968,
          "velocity": 0.9291338582677166,
          "duration": 0.15120968749999975
        },
        {
          "name": "C6",
          "midi": 84,
          "time": 144.67742899999968,
          "velocity": 0.9291338582677166,
          "duration": 0.14112904166665885
        },
        {
          "name": "C4",
          "midi": 60,
          "time": 144.67742899999968,
          "velocity": 0.9291338582677166,
          "duration": 0.1915322708333349
        },
        {
          "name": "A5",
          "midi": 81,
          "time": 144.9193644999997,
          "velocity": 0.9291338582677166,
          "duration": 0.12096775000000548
        },
        {
          "name": "A3",
          "midi": 57,
          "time": 144.9193644999997,
          "velocity": 0.9291338582677166,
          "duration": 0.1663306562500111
        },
        {
          "name": "A4",
          "midi": 69,
          "time": 144.9193644999997,
          "velocity": 0.9291338582677166,
          "duration": 0.12600807291667593
        },
        {
          "name": "D5",
          "midi": 74,
          "time": 145.1612999999997,
          "velocity": 0.9291338582677166,
          "duration": 0.15120968749999975
        },
        {
          "name": "D6",
          "midi": 86,
          "time": 145.1612999999997,
          "velocity": 0.9291338582677166,
          "duration": 0.1360887187499884
        },
        {
          "name": "D4",
          "midi": 62,
          "time": 145.1612999999997,
          "velocity": 0.9291338582677166,
          "duration": 0.1562500104166702
        },
        {
          "name": "D3",
          "midi": 50,
          "time": 145.4032354999997,
          "velocity": 0.9291338582677166,
          "duration": 0.18145162500002243
        },
        {
          "name": "D4",
          "midi": 62,
          "time": 145.4032354999997,
          "velocity": 0.9291338582677166,
          "duration": 0.1663306562500111
        },
        {
          "name": "D1",
          "midi": 26,
          "time": 145.4032354999997,
          "velocity": 0.9291338582677166,
          "duration": 0.7913306979167203
        },
        {
          "name": "D2",
          "midi": 38,
          "time": 145.4032354999997,
          "velocity": 0.9291338582677166,
          "duration": 0.7661290833333965
        },
        {
          "name": "C4",
          "midi": 60,
          "time": 145.64517099999972,
          "velocity": 0.9291338582677166,
          "duration": 0.22681453124999962
        },
        {
          "name": "C5",
          "midi": 72,
          "time": 145.64517099999972,
          "velocity": 0.9291338582677166,
          "duration": 0.11592742708333503
        },
        {
          "name": "C6",
          "midi": 84,
          "time": 145.64517099999972,
          "velocity": 0.9291338582677166,
          "duration": 0.13104839583334638
        },
        {
          "name": "A3",
          "midi": 57,
          "time": 145.88710649999973,
          "velocity": 0.9291338582677166,
          "duration": 0.15625001041669861
        },
        {
          "name": "A5",
          "midi": 81,
          "time": 145.88710649999973,
          "velocity": 0.9291338582677166,
          "duration": 0.13104839583334638
        },
        {
          "name": "A4",
          "midi": 69,
          "time": 145.88710649999973,
          "velocity": 0.9291338582677166,
          "duration": 0.14112904166668727
        },
        {
          "name": "D5",
          "midi": 74,
          "time": 146.12904199999977,
          "velocity": 0.9291338582677166,
          "duration": 0.1360887187499884
        },
        {
          "name": "D4",
          "midi": 62,
          "time": 146.12904199999977,
          "velocity": 0.9291338582677166,
          "duration": 0.1461693645833293
        },
        {
          "name": "D6",
          "midi": 86,
          "time": 146.12904199999977,
          "velocity": 0.9291338582677166,
          "duration": 0.13104839583331795
        },
        {
          "name": "D3",
          "midi": 50,
          "time": 146.37097749999975,
          "velocity": 0.9291338582677166,
          "duration": 0.18649194791666446
        },
        {
          "name": "D4",
          "midi": 62,
          "time": 146.37097749999975,
          "velocity": 0.9291338582677166,
          "duration": 0.16129033333334064
        },
        {
          "name": "D2",
          "midi": 38,
          "time": 146.37097749999975,
          "velocity": 0.9291338582677166,
          "duration": 0.8568548958333793
        },
        {
          "name": "D1",
          "midi": 26,
          "time": 146.37097749999975,
          "velocity": 0.9291338582677166,
          "duration": 0.8467742500000384
        },
        {
          "name": "C4",
          "midi": 60,
          "time": 146.61291299999976,
          "velocity": 0.9291338582677166,
          "duration": 0.2016129166666758
        },
        {
          "name": "C6",
          "midi": 84,
          "time": 146.61291299999976,
          "velocity": 0.9291338582677166,
          "duration": 0.1461693645833293
        },
        {
          "name": "C5",
          "midi": 72,
          "time": 146.61291299999976,
          "velocity": 0.9291338582677166,
          "duration": 0.14112904166665885
        },
        {
          "name": "A3",
          "midi": 57,
          "time": 146.85484849999978,
          "velocity": 0.937007874015748,
          "duration": 0.1663306562500111
        },
        {
          "name": "A5",
          "midi": 81,
          "time": 146.85484849999978,
          "velocity": 0.937007874015748,
          "duration": 0.14112904166665885
        },
        {
          "name": "A4",
          "midi": 69,
          "time": 146.85484849999978,
          "velocity": 0.937007874015748,
          "duration": 0.15120968749999975
        },
        {
          "name": "D4",
          "midi": 62,
          "time": 147.0967839999998,
          "velocity": 0.937007874015748,
          "duration": 0.17641130208335198
        },
        {
          "name": "D5",
          "midi": 74,
          "time": 147.0967839999998,
          "velocity": 0.937007874015748,
          "duration": 0.16129033333334064
        },
        {
          "name": "D6",
          "midi": 86,
          "time": 147.0967839999998,
          "velocity": 0.937007874015748,
          "duration": 0.12096775000000548
        },
        {
          "name": "D3",
          "midi": 50,
          "time": 147.3387194999998,
          "velocity": 0.937007874015748,
          "duration": 0.19657259374997693
        },
        {
          "name": "D4",
          "midi": 62,
          "time": 147.3387194999998,
          "velocity": 0.937007874015748,
          "duration": 0.17641130208332356
        },
        {
          "name": "D1",
          "midi": 26,
          "time": 147.3387194999998,
          "velocity": 0.937007874015748,
          "duration": 0.8014113437500043
        },
        {
          "name": "D2",
          "midi": 38,
          "time": 147.3387194999998,
          "velocity": 0.937007874015748,
          "duration": 0.7913306979166634
        },
        {
          "name": "C4",
          "midi": 60,
          "time": 147.58065499999978,
          "velocity": 0.937007874015748,
          "duration": 0.19657259375000535
        },
        {
          "name": "C5",
          "midi": 72,
          "time": 147.58065499999978,
          "velocity": 0.937007874015748,
          "duration": 0.1360887187499884
        },
        {
          "name": "C6",
          "midi": 84,
          "time": 147.58065499999978,
          "velocity": 0.937007874015748,
          "duration": 0.14112904166665885
        },
        {
          "name": "A5",
          "midi": 81,
          "time": 147.8225904999998,
          "velocity": 0.937007874015748,
          "duration": 0.1562500104166702
        },
        {
          "name": "A3",
          "midi": 57,
          "time": 147.8225904999998,
          "velocity": 0.937007874015748,
          "duration": 0.1663306562500111
        },
        {
          "name": "A4",
          "midi": 69,
          "time": 147.8225904999998,
          "velocity": 0.937007874015748,
          "duration": 0.12096775000000548
        },
        {
          "name": "D5",
          "midi": 74,
          "time": 148.0645259999998,
          "velocity": 0.937007874015748,
          "duration": 0.15120968749999975
        },
        {
          "name": "D4",
          "midi": 62,
          "time": 148.0645259999998,
          "velocity": 0.937007874015748,
          "duration": 0.16129033333334064
        },
        {
          "name": "D6",
          "midi": 86,
          "time": 148.0645259999998,
          "velocity": 0.937007874015748,
          "duration": 0.15120968749999975
        },
        {
          "name": "D1",
          "midi": 26,
          "time": 148.3064614999998,
          "velocity": 0.937007874015748,
          "duration": 0.8417339270832827
        },
        {
          "name": "D2",
          "midi": 38,
          "time": 148.3064614999998,
          "velocity": 0.937007874015748,
          "duration": 0.8215726354166293
        },
        {
          "name": "D3",
          "midi": 50,
          "time": 148.3064614999998,
          "velocity": 0.937007874015748,
          "duration": 0.1360887187499884
        },
        {
          "name": "D4",
          "midi": 62,
          "time": 148.3064614999998,
          "velocity": 0.937007874015748,
          "duration": 0.11592742708333503
        },
        {
          "name": "C5",
          "midi": 72,
          "time": 148.5483969999998,
          "velocity": 0.937007874015748,
          "duration": 0.14112904166665885
        },
        {
          "name": "C4",
          "midi": 60,
          "time": 148.5483969999998,
          "velocity": 0.937007874015748,
          "duration": 0.22177420833332917
        },
        {
          "name": "C6",
          "midi": 84,
          "time": 148.5483969999998,
          "velocity": 0.937007874015748,
          "duration": 0.12096775000000548
        },
        {
          "name": "A3",
          "midi": 57,
          "time": 148.79033249999978,
          "velocity": 0.937007874015748,
          "duration": 0.13608871875001682
        },
        {
          "name": "A4",
          "midi": 69,
          "time": 148.79033249999978,
          "velocity": 0.937007874015748,
          "duration": 0.12600807291667593
        },
        {
          "name": "A5",
          "midi": 81,
          "time": 148.79033249999978,
          "velocity": 0.937007874015748,
          "duration": 0.12096775000000548
        },
        {
          "name": "D5",
          "midi": 74,
          "time": 149.0322679999998,
          "velocity": 0.9448818897637795,
          "duration": 0.14112904166663043
        },
        {
          "name": "D6",
          "midi": 86,
          "time": 149.0322679999998,
          "velocity": 0.9448818897637795,
          "duration": 0.13608871874995998
        },
        {
          "name": "D4",
          "midi": 62,
          "time": 149.0322679999998,
          "velocity": 0.9448818897637795,
          "duration": 0.1612903333332838
        },
        {
          "name": "D1",
          "midi": 26,
          "time": 149.27420349999974,
          "velocity": 0.9448818897637795,
          "duration": 0.7862903750000214
        },
        {
          "name": "D2",
          "midi": 38,
          "time": 149.27420349999974,
          "velocity": 0.9448818897637795,
          "duration": 0.781250052083351
        },
        {
          "name": "D3",
          "midi": 50,
          "time": 149.27420349999974,
          "velocity": 0.9448818897637795,
          "duration": 0.12096775000000548
        },
        {
          "name": "D4",
          "midi": 62,
          "time": 149.27420349999974,
          "velocity": 0.9448818897637795,
          "duration": 0.12600807291667593
        },
        {
          "name": "C5",
          "midi": 72,
          "time": 149.51613899999975,
          "velocity": 0.9448818897637795,
          "duration": 0.14112904166665885
        },
        {
          "name": "C6",
          "midi": 84,
          "time": 149.51613899999975,
          "velocity": 0.9448818897637795,
          "duration": 0.1360887187499884
        },
        {
          "name": "C4",
          "midi": 60,
          "time": 149.51613899999975,
          "velocity": 0.9448818897637795,
          "duration": 0.25201614583332343
        },
        {
          "name": "A4",
          "midi": 69,
          "time": 149.75807449999974,
          "velocity": 0.9448818897637795,
          "duration": 0.13608871875001682
        },
        {
          "name": "A5",
          "midi": 81,
          "time": 149.75807449999974,
          "velocity": 0.9448818897637795,
          "duration": 0.13608871875001682
        },
        {
          "name": "A3",
          "midi": 57,
          "time": 149.75807449999974,
          "velocity": 0.9448818897637795,
          "duration": 0.16129033333334064
        },
        {
          "name": "D5",
          "midi": 74,
          "time": 150.00000999999975,
          "velocity": 0.9448818897637795,
          "duration": 0.16129033333336906
        },
        {
          "name": "D6",
          "midi": 86,
          "time": 150.00000999999975,
          "velocity": 0.9448818897637795,
          "duration": 0.14112904166668727
        },
        {
          "name": "D4",
          "midi": 62,
          "time": 150.00000999999975,
          "velocity": 0.9448818897637795,
          "duration": 0.15625001041669861
        },
        {
          "name": "D3",
          "midi": 50,
          "time": 150.2419454999998,
          "velocity": 0.9448818897637795,
          "duration": 0.16129033333334064
        },
        {
          "name": "D4",
          "midi": 62,
          "time": 150.2419454999998,
          "velocity": 0.9448818897637795,
          "duration": 0.1663306562500111
        },
        {
          "name": "D2",
          "midi": 38,
          "time": 150.2419454999998,
          "velocity": 0.9448818897637795,
          "duration": 0.7762097291666521
        },
        {
          "name": "D1",
          "midi": 26,
          "time": 150.2419454999998,
          "velocity": 0.9448818897637795,
          "duration": 0.786290374999993
        },
        {
          "name": "C5",
          "midi": 72,
          "time": 150.4838809999998,
          "velocity": 0.9448818897637795,
          "duration": 0.16129033333331222
        },
        {
          "name": "C6",
          "midi": 84,
          "time": 150.4838809999998,
          "velocity": 0.9448818897637795,
          "duration": 0.14112904166665885
        },
        {
          "name": "C4",
          "midi": 60,
          "time": 150.4838809999998,
          "velocity": 0.9448818897637795,
          "duration": 0.21169356249998827
        },
        {
          "name": "A3",
          "midi": 57,
          "time": 150.72581649999978,
          "velocity": 0.9448818897637795,
          "duration": 0.16129033333331222
        },
        {
          "name": "A4",
          "midi": 69,
          "time": 150.72581649999978,
          "velocity": 0.9448818897637795,
          "duration": 0.14112904166665885
        },
        {
          "name": "A5",
          "midi": 81,
          "time": 150.72581649999978,
          "velocity": 0.9448818897637795,
          "duration": 0.1360887187499884
        },
        {
          "name": "D5",
          "midi": 74,
          "time": 150.96775199999976,
          "velocity": 0.9448818897637795,
          "duration": 0.17137097916668154
        },
        {
          "name": "D6",
          "midi": 86,
          "time": 150.96775199999976,
          "velocity": 0.9448818897637795,
          "duration": 0.14112904166668727
        },
        {
          "name": "D4",
          "midi": 62,
          "time": 150.96775199999976,
          "velocity": 0.9448818897637795,
          "duration": 0.10584678125002256
        },
        {
          "name": "D3",
          "midi": 50,
          "time": 151.20968749999977,
          "velocity": 0.6614173228346457,
          "duration": 0.17137097916665311
        },
        {
          "name": "D4",
          "midi": 62,
          "time": 151.20968749999977,
          "velocity": 0.6614173228346457,
          "duration": 0.22177420833332917
        },
        {
          "name": "D1",
          "midi": 26,
          "time": 151.20968749999977,
          "velocity": 0.6614173228346457,
          "duration": 0.9576613541666461
        },
        {
          "name": "D2",
          "midi": 38,
          "time": 151.20968749999977,
          "velocity": 0.6614173228346457,
          "duration": 0.9727823229166574
        },
        {
          "name": "C4",
          "midi": 60,
          "time": 151.45162299999976,
          "velocity": 0.6614173228346457,
          "duration": 0.33266131249999376
        },
        {
          "name": "C6",
          "midi": 84,
          "time": 151.45162299999976,
          "velocity": 0.6614173228346457,
          "duration": 0.181451624999994
        },
        {
          "name": "C5",
          "midi": 72,
          "time": 151.45162299999976,
          "velocity": 0.6614173228346457,
          "duration": 0.17641130208332356
        },
        {
          "name": "A4",
          "midi": 69,
          "time": 151.69355849999974,
          "velocity": 0.6614173228346457,
          "duration": 0.2772177604166757
        },
        {
          "name": "A5",
          "midi": 81,
          "time": 151.69355849999974,
          "velocity": 0.6614173228346457,
          "duration": 0.19657259375000535
        },
        {
          "name": "A3",
          "midi": 57,
          "time": 151.69355849999974,
          "velocity": 0.6614173228346457,
          "duration": 0.16129033333334064
        },
        {
          "name": "D5",
          "midi": 74,
          "time": 151.93549399999975,
          "velocity": 0.6614173228346457,
          "duration": 0.181451624999994
        },
        {
          "name": "D6",
          "midi": 86,
          "time": 151.93549399999975,
          "velocity": 0.6614173228346457,
          "duration": 0.17137097916665311
        },
        {
          "name": "D4",
          "midi": 62,
          "time": 151.93549399999975,
          "velocity": 0.6614173228346457,
          "duration": 0.1360887187499884
        },
        {
          "name": "D3",
          "midi": 50,
          "time": 152.17742949999976,
          "velocity": 0.6614173228346457,
          "duration": 0.1663306562500111
        },
        {
          "name": "D4",
          "midi": 62,
          "time": 152.17742949999976,
          "velocity": 0.6614173228346457,
          "duration": 0.16129033333334064
        },
        {
          "name": "C4",
          "midi": 60,
          "time": 152.41936499999977,
          "velocity": 0.6614173228346457,
          "duration": 0.29737905208335746
        },
        {
          "name": "C6",
          "midi": 84,
          "time": 152.41936499999977,
          "velocity": 0.6614173228346457,
          "duration": 0.1663306562500111
        },
        {
          "name": "C5",
          "midi": 72,
          "time": 152.41936499999977,
          "velocity": 0.6614173228346457,
          "duration": 0.16129033333334064
        },
        {
          "name": "A5",
          "midi": 81,
          "time": 152.66130049999978,
          "velocity": 0.6614173228346457,
          "duration": 0.12096775000000548
        },
        {
          "name": "A4",
          "midi": 69,
          "time": 152.66130049999978,
          "velocity": 0.6614173228346457,
          "duration": 0.13608871875001682
        },
        {
          "name": "A3",
          "midi": 57,
          "time": 152.66130049999978,
          "velocity": 0.6614173228346457,
          "duration": 0.14112904166668727
        },
        {
          "name": "D4",
          "midi": 62,
          "time": 152.9032359999998,
          "velocity": 0.6614173228346457,
          "duration": 0.17641130208332356
        },
        {
          "name": "D5",
          "midi": 74,
          "time": 152.9032359999998,
          "velocity": 0.6614173228346457,
          "duration": 0.16129033333331222
        },
        {
          "name": "D6",
          "midi": 86,
          "time": 152.9032359999998,
          "velocity": 0.6614173228346457,
          "duration": 0.14112904166665885
        },
        {
          "name": "D3",
          "midi": 50,
          "time": 153.14517149999978,
          "velocity": 0.6614173228346457,
          "duration": 0.18649194791666446
        },
        {
          "name": "D4",
          "midi": 62,
          "time": 153.14517149999978,
          "velocity": 0.6614173228346457,
          "duration": 0.2016129166666758
        },
        {
          "name": "C6",
          "midi": 84,
          "time": 153.3871069999998,
          "velocity": 0.6692913385826772,
          "duration": 0.16129033333334064
        },
        {
          "name": "C5",
          "midi": 72,
          "time": 153.3871069999998,
          "velocity": 0.6692913385826772,
          "duration": 0.17641130208335198
        },
        {
          "name": "C4",
          "midi": 60,
          "time": 153.3871069999998,
          "velocity": 0.6692913385826772,
          "duration": 0.18145162500002243
        },
        {
          "name": "A5",
          "midi": 81,
          "time": 153.6290424999998,
          "velocity": 0.6692913385826772,
          "duration": 0.16129033333334064
        },
        {
          "name": "A4",
          "midi": 69,
          "time": 153.6290424999998,
          "velocity": 0.6692913385826772,
          "duration": 0.2116935625000167
        },
        {
          "name": "A3",
          "midi": 57,
          "time": 153.6290424999998,
          "velocity": 0.6692913385826772,
          "duration": 0.13104839583334638
        },
        {
          "name": "D4",
          "midi": 62,
          "time": 153.8709779999998,
          "velocity": 0.6692913385826772,
          "duration": 0.16129033333334064
        },
        {
          "name": "D5",
          "midi": 74,
          "time": 153.8709779999998,
          "velocity": 0.6692913385826772,
          "duration": 0.1915322708333349
        },
        {
          "name": "D6",
          "midi": 86,
          "time": 153.8709779999998,
          "velocity": 0.6692913385826772,
          "duration": 0.1461693645833293
        },
        {
          "name": "D3",
          "midi": 50,
          "time": 154.11291349999982,
          "velocity": 0.6692913385826772,
          "duration": 0.12600807291667593
        },
        {
          "name": "D4",
          "midi": 62,
          "time": 154.11291349999982,
          "velocity": 0.6692913385826772,
          "duration": 0.1461693645833293
        },
        {
          "name": "C4",
          "midi": 60,
          "time": 154.3548489999998,
          "velocity": 0.6692913385826772,
          "duration": 0.22177420833332917
        },
        {
          "name": "C6",
          "midi": 84,
          "time": 154.3548489999998,
          "velocity": 0.6692913385826772,
          "duration": 0.181451624999994
        },
        {
          "name": "C5",
          "midi": 72,
          "time": 154.3548489999998,
          "velocity": 0.6692913385826772,
          "duration": 0.16129033333334064
        },
        {
          "name": "A3",
          "midi": 57,
          "time": 154.59678449999979,
          "velocity": 0.6692913385826772,
          "duration": 0.16129033333334064
        },
        {
          "name": "A5",
          "midi": 81,
          "time": 154.59678449999979,
          "velocity": 0.6692913385826772,
          "duration": 0.1663306562500111
        },
        {
          "name": "A4",
          "midi": 69,
          "time": 154.59678449999979,
          "velocity": 0.6692913385826772,
          "duration": 0.2116935625000167
        },
        {
          "name": "D4",
          "midi": 62,
          "time": 154.8387199999998,
          "velocity": 0.6692913385826772,
          "duration": 0.15120968749999975
        },
        {
          "name": "D5",
          "midi": 74,
          "time": 154.8387199999998,
          "velocity": 0.6692913385826772,
          "duration": 0.2016129166666758
        },
        {
          "name": "D6",
          "midi": 86,
          "time": 154.8387199999998,
          "velocity": 0.6692913385826772,
          "duration": 0.18649194791666446
        },
        {
          "name": "D3",
          "midi": 50,
          "time": 155.0806554999998,
          "velocity": 0.6692913385826772,
          "duration": 0.13104839583334638
        },
        {
          "name": "D4",
          "midi": 62,
          "time": 155.0806554999998,
          "velocity": 0.6692913385826772,
          "duration": 0.17137097916668154
        },
        {
          "name": "C4",
          "midi": 60,
          "time": 155.32259099999982,
          "velocity": 0.6692913385826772,
          "duration": 0.25201614583332343
        },
        {
          "name": "C5",
          "midi": 72,
          "time": 155.32259099999982,
          "velocity": 0.6692913385826772,
          "duration": 0.19657259374997693
        },
        {
          "name": "C6",
          "midi": 84,
          "time": 155.32259099999982,
          "velocity": 0.6692913385826772,
          "duration": 0.17641130208332356
        },
        {
          "name": "A5",
          "midi": 81,
          "time": 155.5645264999998,
          "velocity": 0.6771653543307087,
          "duration": 0.14112904166665885
        },
        {
          "name": "A4",
          "midi": 69,
          "time": 155.5645264999998,
          "velocity": 0.6771653543307087,
          "duration": 0.181451624999994
        },
        {
          "name": "A3",
          "midi": 57,
          "time": 155.5645264999998,
          "velocity": 0.6771653543307087,
          "duration": 0.12096775000000548
        },
        {
          "name": "D4",
          "midi": 62,
          "time": 155.80646199999978,
          "velocity": 0.6771653543307087,
          "duration": 0.16129033333334064
        },
        {
          "name": "D5",
          "midi": 74,
          "time": 155.80646199999978,
          "velocity": 0.6771653543307087,
          "duration": 0.19657259375000535
        },
        {
          "name": "D6",
          "midi": 86,
          "time": 155.80646199999978,
          "velocity": 0.6771653543307087,
          "duration": 0.15120968749999975
        },
        {
          "name": "D3",
          "midi": 50,
          "time": 156.0483974999998,
          "velocity": 0.6771653543307087,
          "duration": 0.1360887187499884
        },
        {
          "name": "D4",
          "midi": 62,
          "time": 156.0483974999998,
          "velocity": 0.6771653543307087,
          "duration": 0.17137097916665311
        },
        {
          "name": "C4",
          "midi": 60,
          "time": 156.29033299999978,
          "velocity": 0.6771653543307087,
          "duration": 0.2116935625000167
        },
        {
          "name": "C5",
          "midi": 72,
          "time": 156.29033299999978,
          "velocity": 0.6771653543307087,
          "duration": 0.2016129166666758
        },
        {
          "name": "C6",
          "midi": 84,
          "time": 156.29033299999978,
          "velocity": 0.6771653543307087,
          "duration": 0.18649194791666446
        },
        {
          "name": "A3",
          "midi": 57,
          "time": 156.5322684999998,
          "velocity": 0.6771653543307087,
          "duration": 0.16129033333334064
        },
        {
          "name": "A4",
          "midi": 69,
          "time": 156.5322684999998,
          "velocity": 0.6771653543307087,
          "duration": 0.22681453124999962
        },
        {
          "name": "A5",
          "midi": 81,
          "time": 156.5322684999998,
          "velocity": 0.6771653543307087,
          "duration": 0.1562500104166702
        },
        {
          "name": "D4",
          "midi": 62,
          "time": 156.7742039999998,
          "velocity": 0.6771653543307087,
          "duration": 0.16129033333334064
        },
        {
          "name": "D5",
          "midi": 74,
          "time": 156.7742039999998,
          "velocity": 0.6771653543307087,
          "duration": 0.2016129166666758
        },
        {
          "name": "D6",
          "midi": 86,
          "time": 156.7742039999998,
          "velocity": 0.6771653543307087,
          "duration": 0.16129033333334064
        },
        {
          "name": "D3",
          "midi": 50,
          "time": 157.0161394999998,
          "velocity": 0.6771653543307087,
          "duration": 0.12600807291667593
        },
        {
          "name": "D4",
          "midi": 62,
          "time": 157.0161394999998,
          "velocity": 0.6771653543307087,
          "duration": 0.14112904166668727
        },
        {
          "name": "C4",
          "midi": 60,
          "time": 157.25807499999982,
          "velocity": 0.6771653543307087,
          "duration": 0.2016129166666758
        },
        {
          "name": "C5",
          "midi": 72,
          "time": 157.25807499999982,
          "velocity": 0.6771653543307087,
          "duration": 0.22177420833332917
        },
        {
          "name": "C6",
          "midi": 84,
          "time": 157.25807499999982,
          "velocity": 0.6771653543307087,
          "duration": 0.2016129166666758
        },
        {
          "name": "A3",
          "midi": 57,
          "time": 157.5000104999998,
          "velocity": 0.6771653543307087,
          "duration": 0.16129033333334064
        },
        {
          "name": "A5",
          "midi": 81,
          "time": 157.5000104999998,
          "velocity": 0.6771653543307087,
          "duration": 0.17137097916668154
        },
        {
          "name": "A4",
          "midi": 69,
          "time": 157.5000104999998,
          "velocity": 0.6771653543307087,
          "duration": 0.1915322708333349
        },
        {
          "name": "D4",
          "midi": 62,
          "time": 157.7419459999998,
          "velocity": 0.6771653543307087,
          "duration": 0.181451624999994
        },
        {
          "name": "D5",
          "midi": 74,
          "time": 157.7419459999998,
          "velocity": 0.6771653543307087,
          "duration": 0.1915322708333349
        },
        {
          "name": "D6",
          "midi": 86,
          "time": 157.7419459999998,
          "velocity": 0.6771653543307087,
          "duration": 0.16129033333334064
        },
        {
          "name": "D3",
          "midi": 50,
          "time": 157.98388149999982,
          "velocity": 0.6771653543307087,
          "duration": 0.14112904166665885
        },
        {
          "name": "D4",
          "midi": 62,
          "time": 157.98388149999982,
          "velocity": 0.6771653543307087,
          "duration": 0.16633065624998267
        },
        {
          "name": "C4",
          "midi": 60,
          "time": 158.2258169999998,
          "velocity": 0.6771653543307087,
          "duration": 0.2368951770833405
        },
        {
          "name": "C6",
          "midi": 84,
          "time": 158.2258169999998,
          "velocity": 0.6771653543307087,
          "duration": 0.16129033333334064
        },
        {
          "name": "C5",
          "midi": 72,
          "time": 158.2258169999998,
          "velocity": 0.6771653543307087,
          "duration": 0.15120968749999975
        },
        {
          "name": "A3",
          "midi": 57,
          "time": 158.46775249999982,
          "velocity": 0.6771653543307087,
          "duration": 0.1663306562500111
        },
        {
          "name": "A5",
          "midi": 81,
          "time": 158.46775249999982,
          "velocity": 0.6771653543307087,
          "duration": 0.16129033333334064
        },
        {
          "name": "A4",
          "midi": 69,
          "time": 158.46775249999982,
          "velocity": 0.6771653543307087,
          "duration": 0.18145162500002243
        },
        {
          "name": "D4",
          "midi": 62,
          "time": 158.70968799999983,
          "velocity": 0.6771653543307087,
          "duration": 0.1562500104166702
        },
        {
          "name": "D5",
          "midi": 74,
          "time": 158.70968799999983,
          "velocity": 0.6771653543307087,
          "duration": 0.181451624999994
        },
        {
          "name": "D6",
          "midi": 86,
          "time": 158.70968799999983,
          "velocity": 0.6771653543307087,
          "duration": 0.16129033333334064
        },
        {
          "name": "D3",
          "midi": 50,
          "time": 158.9516234999998,
          "velocity": 0.6771653543307087,
          "duration": 0.12600807291667593
        },
        {
          "name": "D4",
          "midi": 62,
          "time": 158.9516234999998,
          "velocity": 0.6771653543307087,
          "duration": 0.16129033333334064
        },
        {
          "name": "C4",
          "midi": 60,
          "time": 159.19355899999982,
          "velocity": 0.6771653543307087,
          "duration": 0.21169356249998827
        },
        {
          "name": "C5",
          "midi": 72,
          "time": 159.19355899999982,
          "velocity": 0.6771653543307087,
          "duration": 0.20161291666664738
        },
        {
          "name": "C6",
          "midi": 84,
          "time": 159.19355899999982,
          "velocity": 0.6771653543307087,
          "duration": 0.181451624999994
        },
        {
          "name": "A3",
          "midi": 57,
          "time": 159.4354944999998,
          "velocity": 0.6771653543307087,
          "duration": 0.1562500104166702
        },
        {
          "name": "A5",
          "midi": 81,
          "time": 159.4354944999998,
          "velocity": 0.6771653543307087,
          "duration": 0.1663306562500111
        },
        {
          "name": "A4",
          "midi": 69,
          "time": 159.4354944999998,
          "velocity": 0.6771653543307087,
          "duration": 0.15120968749999975
        },
        {
          "name": "D4",
          "midi": 62,
          "time": 159.67742999999982,
          "velocity": 0.6771653543307087,
          "duration": 0.1562500104166702
        },
        {
          "name": "D5",
          "midi": 74,
          "time": 159.67742999999982,
          "velocity": 0.6771653543307087,
          "duration": 0.18649194791666446
        },
        {
          "name": "D6",
          "midi": 86,
          "time": 159.67742999999982,
          "velocity": 0.6771653543307087,
          "duration": 0.1562500104166702
        },
        {
          "name": "D3",
          "midi": 50,
          "time": 159.91936549999983,
          "velocity": 0.6850393700787402,
          "duration": 0.11592742708333503
        },
        {
          "name": "D4",
          "midi": 62,
          "time": 159.91936549999983,
          "velocity": 0.6850393700787402,
          "duration": 0.1663306562500111
        },
        {
          "name": "C4",
          "midi": 60,
          "time": 160.16130099999984,
          "velocity": 0.6850393700787402,
          "duration": 0.22177420833332917
        },
        {
          "name": "C6",
          "midi": 84,
          "time": 160.16130099999984,
          "velocity": 0.6850393700787402,
          "duration": 0.16129033333334064
        },
        {
          "name": "C5",
          "midi": 72,
          "time": 160.16130099999984,
          "velocity": 0.6850393700787402,
          "duration": 0.181451624999994
        },
        {
          "name": "A3",
          "midi": 57,
          "time": 160.40323649999982,
          "velocity": 0.6850393700787402,
          "duration": 0.1663306562500111
        },
        {
          "name": "A5",
          "midi": 81,
          "time": 160.40323649999982,
          "velocity": 0.6850393700787402,
          "duration": 0.16129033333334064
        },
        {
          "name": "A4",
          "midi": 69,
          "time": 160.40323649999982,
          "velocity": 0.6850393700787402,
          "duration": 0.1663306562500111
        },
        {
          "name": "D4",
          "midi": 62,
          "time": 160.64517199999983,
          "velocity": 0.6850393700787402,
          "duration": 0.17137097916665311
        },
        {
          "name": "D6",
          "midi": 86,
          "time": 160.64517199999983,
          "velocity": 0.6850393700787402,
          "duration": 0.17137097916665311
        },
        {
          "name": "D5",
          "midi": 74,
          "time": 160.64517199999983,
          "velocity": 0.6850393700787402,
          "duration": 0.181451624999994
        },
        {
          "name": "D3",
          "midi": 50,
          "time": 160.88710749999981,
          "velocity": 0.6850393700787402,
          "duration": 0.18649194791666446
        },
        {
          "name": "D4",
          "midi": 62,
          "time": 160.88710749999981,
          "velocity": 0.6850393700787402,
          "duration": 0.14112904166665885
        },
        {
          "name": "C4",
          "midi": 60,
          "time": 161.12904299999983,
          "velocity": 0.6850393700787402,
          "duration": 0.23185485416667007
        },
        {
          "name": "C5",
          "midi": 72,
          "time": 161.12904299999983,
          "velocity": 0.6850393700787402,
          "duration": 0.16129033333334064
        },
        {
          "name": "C6",
          "midi": 84,
          "time": 161.12904299999983,
          "velocity": 0.6850393700787402,
          "duration": 0.1562500104166702
        },
        {
          "name": "A3",
          "midi": 57,
          "time": 161.37097849999984,
          "velocity": 0.6850393700787402,
          "duration": 0.181451624999994
        },
        {
          "name": "A5",
          "midi": 81,
          "time": 161.37097849999984,
          "velocity": 0.6850393700787402,
          "duration": 0.17137097916665311
        },
        {
          "name": "A4",
          "midi": 69,
          "time": 161.37097849999984,
          "velocity": 0.6850393700787402,
          "duration": 0.18649194791666446
        },
        {
          "name": "D4",
          "midi": 62,
          "time": 161.61291399999985,
          "velocity": 0.6850393700787402,
          "duration": 0.17641130208335198
        },
        {
          "name": "D5",
          "midi": 74,
          "time": 161.61291399999985,
          "velocity": 0.6850393700787402,
          "duration": 0.17137097916668154
        },
        {
          "name": "D6",
          "midi": 86,
          "time": 161.61291399999985,
          "velocity": 0.6850393700787402,
          "duration": 0.16129033333334064
        },
        {
          "name": "D3",
          "midi": 50,
          "time": 161.85484949999986,
          "velocity": 0.6850393700787402,
          "duration": 0.22681453124999962
        },
        {
          "name": "D4",
          "midi": 62,
          "time": 161.85484949999986,
          "velocity": 0.6850393700787402,
          "duration": 0.15120968749999975
        },
        {
          "name": "C4",
          "midi": 60,
          "time": 162.09678499999987,
          "velocity": 0.6929133858267716,
          "duration": 0.21673388541665872
        },
        {
          "name": "C5",
          "midi": 72,
          "time": 162.09678499999987,
          "velocity": 0.6929133858267716,
          "duration": 0.20161291666664738
        },
        {
          "name": "C6",
          "midi": 84,
          "time": 162.09678499999987,
          "velocity": 0.6929133858267716,
          "duration": 0.181451624999994
        },
        {
          "name": "A3",
          "midi": 57,
          "time": 162.33872049999985,
          "velocity": 0.6929133858267716,
          "duration": 0.21673388541668714
        },
        {
          "name": "A5",
          "midi": 81,
          "time": 162.33872049999985,
          "velocity": 0.6929133858267716,
          "duration": 0.18649194791666446
        },
        {
          "name": "A4",
          "midi": 69,
          "time": 162.33872049999985,
          "velocity": 0.6929133858267716,
          "duration": 0.2016129166666758
        },
        {
          "name": "D5",
          "midi": 74,
          "time": 162.58065599999986,
          "velocity": 0.6929133858267716,
          "duration": 0.1915322708333349
        },
        {
          "name": "D6",
          "midi": 86,
          "time": 162.58065599999986,
          "velocity": 0.6929133858267716,
          "duration": 0.1663306562500111
        },
        {
          "name": "D4",
          "midi": 62,
          "time": 162.58065599999986,
          "velocity": 0.6929133858267716,
          "duration": 0.15120968749999975
        },
        {
          "name": "D1",
          "midi": 26,
          "time": 162.82259149999987,
          "velocity": 0.9921259842519685,
          "duration": 1.451613000000009
        },
        {
          "name": "D2",
          "midi": 38,
          "time": 162.82259149999987,
          "velocity": 0.9921259842519685,
          "duration": 1.451613000000009
        },
        {
          "name": "D4",
          "midi": 62,
          "time": 162.82259149999987,
          "velocity": 0.9921259842519685,
          "duration": 1.451613000000009
        },
        {
          "name": "D3",
          "midi": 50,
          "time": 162.82259149999987,
          "velocity": 0.9921259842519685,
          "duration": 1.451613000000009
        }
      ],
      "controlChanges": {
        "32": [
          {
            "number": 32,
            "time": 0,
            "value": 0
          }
        ]
      },
      "id": 14,
      "name": "Acoustic Grand Piano",
      "instrumentNumber": 0,
      "instrument": "acoustic grand piano",
      "instrumentFamily": "piano",
      "channelNumber": 12,
      "isPercussion": false
    },
    {
      "startTime": 151.2096875,
      "duration": 164.27420450000005,
      "length": 61,
      "notes": [
        {
          "name": "D4",
          "midi": 62,
          "time": 151.2096875,
          "velocity": 0.84251968503937,
          "duration": 0.16129033333334064
        },
        {
          "name": "C5",
          "midi": 72,
          "time": 151.451623,
          "velocity": 0.7559055118110236,
          "duration": 0.19657259375000535
        },
        {
          "name": "A4",
          "midi": 69,
          "time": 151.69355850000002,
          "velocity": 0.7874015748031497,
          "duration": 0.17137097916665311
        },
        {
          "name": "D5",
          "midi": 74,
          "time": 151.935494,
          "velocity": 0.7559055118110236,
          "duration": 0.1915322708333349
        },
        {
          "name": "D4",
          "midi": 62,
          "time": 152.17742950000002,
          "velocity": 0.8740157480314961,
          "duration": 0.1663306562500111
        },
        {
          "name": "C5",
          "midi": 72,
          "time": 152.41936500000003,
          "velocity": 0.7952755905511811,
          "duration": 0.16129033333334064
        },
        {
          "name": "A4",
          "midi": 69,
          "time": 152.66130050000004,
          "velocity": 0.8031496062992126,
          "duration": 0.14112904166665885
        },
        {
          "name": "D5",
          "midi": 74,
          "time": 152.90323600000002,
          "velocity": 0.7401574803149606,
          "duration": 0.16129033333334064
        },
        {
          "name": "D4",
          "midi": 62,
          "time": 153.14517150000003,
          "velocity": 0.8267716535433071,
          "duration": 0.16129033333334064
        },
        {
          "name": "C5",
          "midi": 72,
          "time": 153.38710700000004,
          "velocity": 0.7559055118110236,
          "duration": 0.16129033333334064
        },
        {
          "name": "A4",
          "midi": 69,
          "time": 153.62904250000005,
          "velocity": 0.7952755905511811,
          "duration": 0.16129033333334064
        },
        {
          "name": "D5",
          "midi": 74,
          "time": 153.87097800000006,
          "velocity": 0.7401574803149606,
          "duration": 0.1663306562500111
        },
        {
          "name": "D4",
          "midi": 62,
          "time": 154.11291350000008,
          "velocity": 0.8582677165354331,
          "duration": 0.17641130208332356
        },
        {
          "name": "C5",
          "midi": 72,
          "time": 154.35484900000006,
          "velocity": 0.7401574803149606,
          "duration": 0.1461693645833293
        },
        {
          "name": "A4",
          "midi": 69,
          "time": 154.59678450000004,
          "velocity": 0.7637795275590551,
          "duration": 0.15120968749999975
        },
        {
          "name": "C3",
          "midi": 48,
          "time": 154.59678450000004,
          "velocity": 0.6614173228346457,
          "duration": 0.37298389583335734
        },
        {
          "name": "D5",
          "midi": 74,
          "time": 154.83872000000005,
          "velocity": 0.7401574803149606,
          "duration": 0.16129033333334064
        },
        {
          "name": "D4",
          "midi": 62,
          "time": 155.08065550000006,
          "velocity": 0.8740157480314961,
          "duration": 0.10080645833332369
        },
        {
          "name": "D3",
          "midi": 50,
          "time": 155.08065550000006,
          "velocity": 0.5905511811023622,
          "duration": 0.3729838958333289
        },
        {
          "name": "C5",
          "midi": 72,
          "time": 155.32259100000005,
          "velocity": 0.7559055118110236,
          "duration": 0.16129033333334064
        },
        {
          "name": "A4",
          "midi": 69,
          "time": 155.56452650000006,
          "velocity": 0.7874015748031497,
          "duration": 0.1562500104166702
        },
        {
          "name": "C3",
          "midi": 48,
          "time": 155.56452650000006,
          "velocity": 0.7874015748031497,
          "duration": 0.3326613125000222
        },
        {
          "name": "D5",
          "midi": 74,
          "time": 155.80646200000007,
          "velocity": 0.7322834645669292,
          "duration": 0.18145162500002243
        },
        {
          "name": "D4",
          "midi": 62,
          "time": 156.04839750000008,
          "velocity": 0.8582677165354331,
          "duration": 0.14112904166665885
        },
        {
          "name": "D3",
          "midi": 50,
          "time": 156.04839750000008,
          "velocity": 0.6771653543307087,
          "duration": 0.3830645416666414
        },
        {
          "name": "C5",
          "midi": 72,
          "time": 156.29033300000006,
          "velocity": 0.7637795275590551,
          "duration": 0.15120968749999975
        },
        {
          "name": "A4",
          "midi": 69,
          "time": 156.53226850000007,
          "velocity": 0.8031496062992126,
          "duration": 0.16129033333334064
        },
        {
          "name": "C3",
          "midi": 48,
          "time": 156.53226850000007,
          "velocity": 0.7716535433070866,
          "duration": 0.3477822812500051
        },
        {
          "name": "D5",
          "midi": 74,
          "time": 156.77420400000008,
          "velocity": 0.7086614173228346,
          "duration": 0.17641130208332356
        },
        {
          "name": "D4",
          "midi": 62,
          "time": 157.01613950000007,
          "velocity": 0.84251968503937,
          "duration": 0.14112904166665885
        },
        {
          "name": "D3",
          "midi": 50,
          "time": 157.01613950000007,
          "velocity": 0.5984251968503937,
          "duration": 0.3528226041666471
        },
        {
          "name": "C5",
          "midi": 72,
          "time": 157.25807500000005,
          "velocity": 0.7322834645669292,
          "duration": 0.1663306562500111
        },
        {
          "name": "A4",
          "midi": 69,
          "time": 157.50001050000006,
          "velocity": 0.8031496062992126,
          "duration": 0.1663306562500111
        },
        {
          "name": "C3",
          "midi": 48,
          "time": 157.50001050000006,
          "velocity": 0.7716535433070866,
          "duration": 0.3225806666666813
        },
        {
          "name": "D5",
          "midi": 74,
          "time": 157.74194600000007,
          "velocity": 0.7007874015748031,
          "duration": 0.1562500104166702
        },
        {
          "name": "D4",
          "midi": 62,
          "time": 157.98388150000008,
          "velocity": 0.7874015748031497,
          "duration": 0.14112904166665885
        },
        {
          "name": "D3",
          "midi": 50,
          "time": 157.98388150000008,
          "velocity": 0.6456692913385826,
          "duration": 0.36794357291665847
        },
        {
          "name": "C5",
          "midi": 72,
          "time": 158.22581700000006,
          "velocity": 0.7401574803149606,
          "duration": 0.17137097916668154
        },
        {
          "name": "A4",
          "midi": 69,
          "time": 158.46775250000007,
          "velocity": 0.7952755905511811,
          "duration": 0.14112904166665885
        },
        {
          "name": "C3",
          "midi": 48,
          "time": 158.46775250000007,
          "velocity": 0.7086614173228346,
          "duration": 0.30241937499997107
        },
        {
          "name": "D5",
          "midi": 74,
          "time": 158.70968800000006,
          "velocity": 0.6929133858267716,
          "duration": 0.17641130208332356
        },
        {
          "name": "D4",
          "midi": 62,
          "time": 158.95162350000004,
          "velocity": 0.8582677165354331,
          "duration": 0.17137097916665311
        },
        {
          "name": "D3",
          "midi": 50,
          "time": 158.95162350000004,
          "velocity": 0.6377952755905512,
          "duration": 0.3729838958333289
        },
        {
          "name": "C5",
          "midi": 72,
          "time": 159.19355900000002,
          "velocity": 0.7007874015748031,
          "duration": 0.17137097916668154
        },
        {
          "name": "A4",
          "midi": 69,
          "time": 159.43549450000003,
          "velocity": 0.7401574803149606,
          "duration": 0.15120968749999975
        },
        {
          "name": "C3",
          "midi": 48,
          "time": 159.43549450000003,
          "velocity": 0.6929133858267716,
          "duration": 0.34274195833333465
        },
        {
          "name": "D5",
          "midi": 74,
          "time": 159.67743000000004,
          "velocity": 0.7007874015748031,
          "duration": 0.181451624999994
        },
        {
          "name": "D4",
          "midi": 62,
          "time": 159.91936550000003,
          "velocity": 0.8740157480314961,
          "duration": 0.12600807291667593
        },
        {
          "name": "C5",
          "midi": 72,
          "time": 160.16130100000004,
          "velocity": 0.7401574803149606,
          "duration": 0.18649194791666446
        },
        {
          "name": "A4",
          "midi": 69,
          "time": 160.40323650000005,
          "velocity": 0.8031496062992126,
          "duration": 0.17641130208332356
        },
        {
          "name": "D5",
          "midi": 74,
          "time": 160.64517200000003,
          "velocity": 0.7244094488188977,
          "duration": 0.1663306562500111
        },
        {
          "name": "D4",
          "midi": 62,
          "time": 160.88710750000004,
          "velocity": 0.8976377952755905,
          "duration": 0.14112904166665885
        },
        {
          "name": "C5",
          "midi": 72,
          "time": 161.12904300000002,
          "velocity": 0.7874015748031497,
          "duration": 0.1663306562500111
        },
        {
          "name": "A4",
          "midi": 69,
          "time": 161.37097850000004,
          "velocity": 0.7401574803149606,
          "duration": 0.1562500104166702
        },
        {
          "name": "D5",
          "midi": 74,
          "time": 161.61291400000005,
          "velocity": 0.7401574803149606,
          "duration": 0.16129033333334064
        },
        {
          "name": "D4",
          "midi": 62,
          "time": 161.85484950000006,
          "velocity": 0.8582677165354331,
          "duration": 0.16129033333334064
        },
        {
          "name": "C5",
          "midi": 72,
          "time": 162.09678500000007,
          "velocity": 0.7559055118110236,
          "duration": 0.16129033333334064
        },
        {
          "name": "A4",
          "midi": 69,
          "time": 162.33872050000008,
          "velocity": 0.7165354330708661,
          "duration": 0.17137097916665311
        },
        {
          "name": "D5",
          "midi": 74,
          "time": 162.58065600000006,
          "velocity": 0.6692913385826772,
          "duration": 0.14112904166665885
        },
        {
          "name": "D4",
          "midi": 62,
          "time": 162.82259150000004,
          "velocity": 0.8818897637795275,
          "duration": 1.451613000000009
        },
        {
          "name": "D5",
          "midi": 74,
          "time": 162.82259150000004,
          "velocity": 0.984251968503937,
          "duration": 1.451613000000009
        }
      ],
      "controlChanges": {
        "32": [
          {
            "number": 32,
            "time": 0,
            "value": 0
          }
        ]
      },
      "id": 15,
      "name": "Glockenspiel",
      "instrumentNumber": 9,
      "instrument": "glockenspiel",
      "instrumentFamily": "chromatic percussion",
      "channelNumber": 13,
      "isPercussion": false
    },
    {
      "startTime": 0.967742,
      "duration": 164.2439625624998,
      "length": 510,
      "notes": [
        {
          "name": "A4",
          "midi": 69,
          "time": 0.967742,
          "velocity": 1,
          "duration": 1.7842743125
        },
        {
          "name": "D4",
          "midi": 62,
          "time": 0.967742,
          "velocity": 1,
          "duration": 0.5645161666666668
        },
        {
          "name": "E5",
          "midi": 76,
          "time": 0.967742,
          "velocity": 1,
          "duration": 1.7741936666666667
        },
        {
          "name": "F5",
          "midi": 77,
          "time": 2.903226,
          "velocity": 1,
          "duration": 0.9375000624999998
        },
        {
          "name": "D5",
          "midi": 74,
          "time": 3.870968,
          "velocity": 1,
          "duration": 0.8064516666666663
        },
        {
          "name": "D5",
          "midi": 74,
          "time": 4.83871,
          "velocity": 1,
          "duration": 0.9173387708333332
        },
        {
          "name": "D5",
          "midi": 74,
          "time": 4.83871,
          "velocity": 1,
          "duration": 0.9173387708333332
        },
        {
          "name": "D4",
          "midi": 62,
          "time": 4.83871,
          "velocity": 1,
          "duration": 0.8064516666666668
        },
        {
          "name": "D4",
          "midi": 62,
          "time": 6.774194,
          "velocity": 1,
          "duration": 0.262096791666667
        },
        {
          "name": "E5",
          "midi": 76,
          "time": 6.774194,
          "velocity": 1,
          "duration": 1.794354958333333
        },
        {
          "name": "A4",
          "midi": 69,
          "time": 6.774194,
          "velocity": 1,
          "duration": 1.8044356041666667
        },
        {
          "name": "F5",
          "midi": 77,
          "time": 8.709678,
          "velocity": 1,
          "duration": 0.8870968333333327
        },
        {
          "name": "D5",
          "midi": 74,
          "time": 9.67742,
          "velocity": 1,
          "duration": 0.8266129583333335
        },
        {
          "name": "D5",
          "midi": 74,
          "time": 10.645162,
          "velocity": 1,
          "duration": 0.8669355416666669
        },
        {
          "name": "D4",
          "midi": 62,
          "time": 10.645162,
          "velocity": 1,
          "duration": 0.8870968333333344
        },
        {
          "name": "D5",
          "midi": 74,
          "time": 10.645162,
          "velocity": 1,
          "duration": 0.8770161875000007
        },
        {
          "name": "A5",
          "midi": 81,
          "time": 12.580646,
          "velocity": 1,
          "duration": 1.7540323750000013
        },
        {
          "name": "A4",
          "midi": 69,
          "time": 12.580646,
          "velocity": 1,
          "duration": 1.7439517291666675
        },
        {
          "name": "D4",
          "midi": 62,
          "time": 12.580646,
          "velocity": 1,
          "duration": 0.13104839583333394
        },
        {
          "name": "A4",
          "midi": 69,
          "time": 14.51613,
          "velocity": 1,
          "duration": 0.9475807083333336
        },
        {
          "name": "G5",
          "midi": 79,
          "time": 14.51613,
          "velocity": 1,
          "duration": 0.9072581250000002
        },
        {
          "name": "A5",
          "midi": 81,
          "time": 15.483872,
          "velocity": 1,
          "duration": 0.9274194166666678
        },
        {
          "name": "A4",
          "midi": 69,
          "time": 15.483872,
          "velocity": 1,
          "duration": 0.9375000625000016
        },
        {
          "name": "G5",
          "midi": 79,
          "time": 16.451614000000003,
          "velocity": 1,
          "duration": 0.8064516666666677
        },
        {
          "name": "A4",
          "midi": 69,
          "time": 16.451614000000003,
          "velocity": 1,
          "duration": 0.8064516666666677
        },
        {
          "name": "A4",
          "midi": 69,
          "time": 17.419356000000004,
          "velocity": 1,
          "duration": 0.7459677916666685
        },
        {
          "name": "G5",
          "midi": 79,
          "time": 17.419356000000004,
          "velocity": 1,
          "duration": 0.7862903750000001
        },
        {
          "name": "F5",
          "midi": 77,
          "time": 18.387098000000005,
          "velocity": 1,
          "duration": 0.6451613333333341
        },
        {
          "name": "A4",
          "midi": 69,
          "time": 18.387098000000005,
          "velocity": 1,
          "duration": 0.6451613333333341
        },
        {
          "name": "E5",
          "midi": 76,
          "time": 19.354840000000006,
          "velocity": 1,
          "duration": 3.85080670833333
        },
        {
          "name": "A4",
          "midi": 69,
          "time": 19.354840000000006,
          "velocity": 1,
          "duration": 3.8104841249999986
        },
        {
          "name": "F5",
          "midi": 77,
          "time": 23.951614500000005,
          "velocity": 0.7559055118110236,
          "duration": 0.2419355000000003
        },
        {
          "name": "F4",
          "midi": 65,
          "time": 23.951614500000005,
          "velocity": 0.7559055118110236,
          "duration": 0.2419355000000003
        },
        {
          "name": "F4",
          "midi": 65,
          "time": 24.435485500000006,
          "velocity": 0.7401574803149606,
          "duration": 0.2419355000000003
        },
        {
          "name": "F5",
          "midi": 77,
          "time": 24.435485500000006,
          "velocity": 0.7952755905511811,
          "duration": 0.2419355000000003
        },
        {
          "name": "E5",
          "midi": 76,
          "time": 24.919356500000006,
          "velocity": 0.7795275590551181,
          "duration": 0.2419355000000003
        },
        {
          "name": "E4",
          "midi": 64,
          "time": 24.919356500000006,
          "velocity": 0.7716535433070866,
          "duration": 0.2419355000000003
        },
        {
          "name": "E4",
          "midi": 64,
          "time": 25.403227500000007,
          "velocity": 0.7165354330708661,
          "duration": 0.4838710000000006
        },
        {
          "name": "E5",
          "midi": 76,
          "time": 25.403227500000007,
          "velocity": 0.7637795275590551,
          "duration": 0.4838710000000006
        },
        {
          "name": "F4",
          "midi": 65,
          "time": 26.85484050000001,
          "velocity": 0.7007874015748031,
          "duration": 0.2419355000000003
        },
        {
          "name": "F5",
          "midi": 77,
          "time": 26.85484050000001,
          "velocity": 0.7401574803149606,
          "duration": 0.2419355000000003
        },
        {
          "name": "F4",
          "midi": 65,
          "time": 27.33871150000001,
          "velocity": 0.6692913385826772,
          "duration": 0.2419355000000003
        },
        {
          "name": "F5",
          "midi": 77,
          "time": 27.33871150000001,
          "velocity": 0.7480314960629921,
          "duration": 0.2419355000000003
        },
        {
          "name": "E5",
          "midi": 76,
          "time": 27.82258250000001,
          "velocity": 0.6377952755905512,
          "duration": 0.2419355000000003
        },
        {
          "name": "E4",
          "midi": 64,
          "time": 27.82258250000001,
          "velocity": 0.6850393700787402,
          "duration": 0.2419355000000003
        },
        {
          "name": "E5",
          "midi": 76,
          "time": 28.30645350000001,
          "velocity": 0.7244094488188977,
          "duration": 0.4838710000000006
        },
        {
          "name": "E4",
          "midi": 64,
          "time": 28.30645350000001,
          "velocity": 0.7244094488188977,
          "duration": 0.4838710000000006
        },
        {
          "name": "F5",
          "midi": 77,
          "time": 29.758066500000012,
          "velocity": 0.7244094488188977,
          "duration": 0.2419355000000003
        },
        {
          "name": "F4",
          "midi": 65,
          "time": 29.758066500000012,
          "velocity": 0.6929133858267716,
          "duration": 0.2419355000000003
        },
        {
          "name": "F4",
          "midi": 65,
          "time": 30.241937500000013,
          "velocity": 0.7244094488188977,
          "duration": 0.2419355000000003
        },
        {
          "name": "F5",
          "midi": 77,
          "time": 30.241937500000013,
          "velocity": 0.7401574803149606,
          "duration": 0.2419355000000003
        },
        {
          "name": "E5",
          "midi": 76,
          "time": 30.725808500000014,
          "velocity": 0.7165354330708661,
          "duration": 0.2419355000000003
        },
        {
          "name": "E4",
          "midi": 64,
          "time": 30.725808500000014,
          "velocity": 0.7007874015748031,
          "duration": 0.2419355000000003
        },
        {
          "name": "F4",
          "midi": 65,
          "time": 31.209679500000014,
          "velocity": 0.7401574803149606,
          "duration": 0.7258065000000009
        },
        {
          "name": "F5",
          "midi": 77,
          "time": 31.209679500000014,
          "velocity": 0.7165354330708661,
          "duration": 0.7258065000000009
        },
        {
          "name": "G4",
          "midi": 67,
          "time": 32.177421500000015,
          "velocity": 0.6377952755905512,
          "duration": 0.7258064999999974
        },
        {
          "name": "G5",
          "midi": 79,
          "time": 32.177421500000015,
          "velocity": 0.7480314960629921,
          "duration": 0.7258064999999974
        },
        {
          "name": "F5",
          "midi": 77,
          "time": 33.14516350000001,
          "velocity": 0.7637795275590551,
          "duration": 0.24193549999999675
        },
        {
          "name": "F4",
          "midi": 65,
          "time": 33.14516350000001,
          "velocity": 0.7086614173228346,
          "duration": 0.24193549999999675
        },
        {
          "name": "E4",
          "midi": 64,
          "time": 33.6290345,
          "velocity": 0.6535433070866141,
          "duration": 1.209677499999998
        },
        {
          "name": "E5",
          "midi": 76,
          "time": 33.6290345,
          "velocity": 0.6850393700787402,
          "duration": 1.209677499999998
        },
        {
          "name": "F5",
          "midi": 77,
          "time": 35.5645185,
          "velocity": 0.7559055118110236,
          "duration": 0.24193549999999675
        },
        {
          "name": "F4",
          "midi": 65,
          "time": 35.5645185,
          "velocity": 0.7559055118110236,
          "duration": 0.24193549999999675
        },
        {
          "name": "F4",
          "midi": 65,
          "time": 36.04838949999999,
          "velocity": 0.7401574803149606,
          "duration": 0.24193549999999675
        },
        {
          "name": "F5",
          "midi": 77,
          "time": 36.04838949999999,
          "velocity": 0.7952755905511811,
          "duration": 0.24193549999999675
        },
        {
          "name": "E5",
          "midi": 76,
          "time": 36.532260499999985,
          "velocity": 0.7795275590551181,
          "duration": 0.24193549999999675
        },
        {
          "name": "E4",
          "midi": 64,
          "time": 36.532260499999985,
          "velocity": 0.7716535433070866,
          "duration": 0.24193549999999675
        },
        {
          "name": "E4",
          "midi": 64,
          "time": 37.01613149999998,
          "velocity": 0.7165354330708661,
          "duration": 0.4838710000000006
        },
        {
          "name": "E5",
          "midi": 76,
          "time": 37.01613149999998,
          "velocity": 0.7637795275590551,
          "duration": 0.4838710000000006
        },
        {
          "name": "F4",
          "midi": 65,
          "time": 38.46774449999998,
          "velocity": 0.7007874015748031,
          "duration": 0.24193549999999675
        },
        {
          "name": "F5",
          "midi": 77,
          "time": 38.46774449999998,
          "velocity": 0.7401574803149606,
          "duration": 0.24193549999999675
        },
        {
          "name": "F4",
          "midi": 65,
          "time": 38.951615499999974,
          "velocity": 0.6692913385826772,
          "duration": 0.24193549999999675
        },
        {
          "name": "F5",
          "midi": 77,
          "time": 38.951615499999974,
          "velocity": 0.7480314960629921,
          "duration": 0.24193549999999675
        },
        {
          "name": "E5",
          "midi": 76,
          "time": 39.43548649999997,
          "velocity": 0.6377952755905512,
          "duration": 0.24193549999999675
        },
        {
          "name": "E4",
          "midi": 64,
          "time": 39.43548649999997,
          "velocity": 0.6850393700787402,
          "duration": 0.24193549999999675
        },
        {
          "name": "E5",
          "midi": 76,
          "time": 39.91935749999996,
          "velocity": 0.7244094488188977,
          "duration": 0.4838710000000006
        },
        {
          "name": "E4",
          "midi": 64,
          "time": 39.91935749999996,
          "velocity": 0.7244094488188977,
          "duration": 0.4838710000000006
        },
        {
          "name": "F5",
          "midi": 77,
          "time": 41.37097049999996,
          "velocity": 0.7244094488188977,
          "duration": 0.24193549999999675
        },
        {
          "name": "F4",
          "midi": 65,
          "time": 41.37097049999996,
          "velocity": 0.6929133858267716,
          "duration": 0.24193549999999675
        },
        {
          "name": "F4",
          "midi": 65,
          "time": 41.85484149999996,
          "velocity": 0.7244094488188977,
          "duration": 0.24193549999999675
        },
        {
          "name": "F5",
          "midi": 77,
          "time": 41.85484149999996,
          "velocity": 0.7401574803149606,
          "duration": 0.24193549999999675
        },
        {
          "name": "E5",
          "midi": 76,
          "time": 42.33871249999995,
          "velocity": 0.7165354330708661,
          "duration": 0.24193549999999675
        },
        {
          "name": "E4",
          "midi": 64,
          "time": 42.33871249999995,
          "velocity": 0.7007874015748031,
          "duration": 0.24193549999999675
        },
        {
          "name": "F4",
          "midi": 65,
          "time": 42.82258349999994,
          "velocity": 0.7401574803149606,
          "duration": 0.7258064999999974
        },
        {
          "name": "F5",
          "midi": 77,
          "time": 42.82258349999994,
          "velocity": 0.7165354330708661,
          "duration": 0.7258064999999974
        },
        {
          "name": "G4",
          "midi": 67,
          "time": 43.79032549999994,
          "velocity": 0.6377952755905512,
          "duration": 0.7258064999999974
        },
        {
          "name": "G5",
          "midi": 79,
          "time": 43.79032549999994,
          "velocity": 0.7480314960629921,
          "duration": 0.7258064999999974
        },
        {
          "name": "F5",
          "midi": 77,
          "time": 44.75806749999993,
          "velocity": 0.7637795275590551,
          "duration": 0.24193549999999675
        },
        {
          "name": "F4",
          "midi": 65,
          "time": 44.75806749999993,
          "velocity": 0.7086614173228346,
          "duration": 0.24193549999999675
        },
        {
          "name": "E4",
          "midi": 64,
          "time": 45.241938499999925,
          "velocity": 0.6535433070866141,
          "duration": 1.209677499999998
        },
        {
          "name": "E5",
          "midi": 76,
          "time": 45.241938499999925,
          "velocity": 0.6850393700787402,
          "duration": 1.209677499999998
        },
        {
          "name": "A4",
          "midi": 69,
          "time": 47.17742249999992,
          "velocity": 0.8267716535433071,
          "duration": 0.36290325000000223
        },
        {
          "name": "A5",
          "midi": 81,
          "time": 47.17742249999992,
          "velocity": 0.7952755905511811,
          "duration": 0.26209679166666433
        },
        {
          "name": "F5",
          "midi": 77,
          "time": 47.17742249999992,
          "velocity": 0.8031496062992126,
          "duration": 0.3125000208333333
        },
        {
          "name": "A4",
          "midi": 69,
          "time": 47.66129349999992,
          "velocity": 0.8267716535433071,
          "duration": 0.39818551041666694
        },
        {
          "name": "A5",
          "midi": 81,
          "time": 47.66129349999992,
          "velocity": 0.7952755905511811,
          "duration": 0.3578629270833318
        },
        {
          "name": "F5",
          "midi": 77,
          "time": 47.66129349999992,
          "velocity": 0.7795275590551181,
          "duration": 0.38810486458333315
        },
        {
          "name": "G5",
          "midi": 79,
          "time": 48.14516449999992,
          "velocity": 0.7637795275590551,
          "duration": 0.3629032499999951
        },
        {
          "name": "E5",
          "midi": 76,
          "time": 48.14516449999992,
          "velocity": 0.7716535433070866,
          "duration": 0.3629032499999951
        },
        {
          "name": "G4",
          "midi": 67,
          "time": 48.14516449999992,
          "velocity": 0.7480314960629921,
          "duration": 0.34274195833333465
        },
        {
          "name": "A4",
          "midi": 69,
          "time": 48.14516449999992,
          "velocity": 0.8188976377952756,
          "duration": 0.3578629270833318
        },
        {
          "name": "G4",
          "midi": 67,
          "time": 48.629035499999915,
          "velocity": 0.7952755905511811,
          "duration": 0.4838710000000006
        },
        {
          "name": "A4",
          "midi": 69,
          "time": 48.629035499999915,
          "velocity": 0.9133858267716536,
          "duration": 0.4838710000000006
        },
        {
          "name": "E5",
          "midi": 76,
          "time": 48.629035499999915,
          "velocity": 0.7637795275590551,
          "duration": 0.4838710000000006
        },
        {
          "name": "G5",
          "midi": 79,
          "time": 48.629035499999915,
          "velocity": 0.7559055118110236,
          "duration": 0.4838710000000006
        },
        {
          "name": "A4",
          "midi": 69,
          "time": 50.08064849999992,
          "velocity": 0.8582677165354331,
          "duration": 0.35282260416666844
        },
        {
          "name": "A5",
          "midi": 81,
          "time": 50.08064849999992,
          "velocity": 0.8267716535433071,
          "duration": 0.29737905208333615
        },
        {
          "name": "F5",
          "midi": 77,
          "time": 50.08064849999992,
          "velocity": 0.7480314960629921,
          "duration": 0.34274195833333465
        },
        {
          "name": "A4",
          "midi": 69,
          "time": 50.56451949999992,
          "velocity": 0.8976377952755905,
          "duration": 0.3830645416666627
        },
        {
          "name": "F5",
          "midi": 77,
          "time": 50.56451949999992,
          "velocity": 0.7637795275590551,
          "duration": 0.3729838958333289
        },
        {
          "name": "A5",
          "midi": 81,
          "time": 50.56451949999992,
          "velocity": 0.8267716535433071,
          "duration": 0.347782281249998
        },
        {
          "name": "A4",
          "midi": 69,
          "time": 51.04839049999991,
          "velocity": 0.8582677165354331,
          "duration": 0.372983895833336
        },
        {
          "name": "G4",
          "midi": 67,
          "time": 51.04839049999991,
          "velocity": 0.7480314960629921,
          "duration": 0.34274195833333465
        },
        {
          "name": "G5",
          "midi": 79,
          "time": 51.04839049999991,
          "velocity": 0.7716535433070866,
          "duration": 0.36290325000000223
        },
        {
          "name": "E5",
          "midi": 76,
          "time": 51.04839049999991,
          "velocity": 0.7007874015748031,
          "duration": 0.35282260416666844
        },
        {
          "name": "G4",
          "midi": 67,
          "time": 51.53226149999991,
          "velocity": 0.7874015748031497,
          "duration": 0.4838710000000006
        },
        {
          "name": "A4",
          "midi": 69,
          "time": 51.53226149999991,
          "velocity": 0.8976377952755905,
          "duration": 0.4838710000000006
        },
        {
          "name": "E5",
          "midi": 76,
          "time": 51.53226149999991,
          "velocity": 0.7480314960629921,
          "duration": 0.4838710000000006
        },
        {
          "name": "G5",
          "midi": 79,
          "time": 51.53226149999991,
          "velocity": 0.7952755905511811,
          "duration": 0.4838710000000006
        },
        {
          "name": "A5",
          "midi": 81,
          "time": 52.983874499999914,
          "velocity": 0.7637795275590551,
          "duration": 0.3377016354166642
        },
        {
          "name": "F5",
          "midi": 77,
          "time": 52.983874499999914,
          "velocity": 0.7244094488188977,
          "duration": 0.3377016354166642
        },
        {
          "name": "A4",
          "midi": 69,
          "time": 52.983874499999914,
          "velocity": 0.8267716535433071,
          "duration": 0.3629032499999951
        },
        {
          "name": "A5",
          "midi": 81,
          "time": 53.46774549999991,
          "velocity": 0.7952755905511811,
          "duration": 0.3830645416666627
        },
        {
          "name": "F5",
          "midi": 77,
          "time": 53.46774549999991,
          "velocity": 0.7795275590551181,
          "duration": 0.37802421874999936
        },
        {
          "name": "A4",
          "midi": 69,
          "time": 53.46774549999991,
          "velocity": 0.8976377952755905,
          "duration": 0.38810486458332605
        },
        {
          "name": "G5",
          "midi": 79,
          "time": 53.9516164999999,
          "velocity": 0.7480314960629921,
          "duration": 0.347782281249998
        },
        {
          "name": "E5",
          "midi": 76,
          "time": 53.9516164999999,
          "velocity": 0.7637795275590551,
          "duration": 0.34274195833333465
        },
        {
          "name": "G4",
          "midi": 67,
          "time": 53.9516164999999,
          "velocity": 0.7322834645669292,
          "duration": 0.28729840625000236
        },
        {
          "name": "A4",
          "midi": 69,
          "time": 53.9516164999999,
          "velocity": 0.889763779527559,
          "duration": 0.34274195833333465
        },
        {
          "name": "F4",
          "midi": 65,
          "time": 54.4354874999999,
          "velocity": 0.7952755905511811,
          "duration": 0.8467742500000028
        },
        {
          "name": "D5",
          "midi": 74,
          "time": 54.4354874999999,
          "velocity": 0.7401574803149606,
          "duration": 0.8568548958333366
        },
        {
          "name": "F5",
          "midi": 77,
          "time": 54.4354874999999,
          "velocity": 0.7952755905511811,
          "duration": 0.8719758645833338
        },
        {
          "name": "A4",
          "midi": 69,
          "time": 54.4354874999999,
          "velocity": 0.889763779527559,
          "duration": 0.8467742500000028
        },
        {
          "name": "A4",
          "midi": 69,
          "time": 55.4032294999999,
          "velocity": 0.8582677165354331,
          "duration": 0.40826615624999363
        },
        {
          "name": "G4",
          "midi": 67,
          "time": 55.4032294999999,
          "velocity": 0.7874015748031497,
          "duration": 0.4032258333333303
        },
        {
          "name": "E5",
          "midi": 76,
          "time": 55.4032294999999,
          "velocity": 0.8031496062992126,
          "duration": 0.347782281249998
        },
        {
          "name": "G5",
          "midi": 79,
          "time": 55.4032294999999,
          "velocity": 0.8267716535433071,
          "duration": 0.3629032499999951
        },
        {
          "name": "E5",
          "midi": 76,
          "time": 55.887100499999896,
          "velocity": 0.8110236220472441,
          "duration": 0.8568548958333366
        },
        {
          "name": "E4",
          "midi": 64,
          "time": 55.887100499999896,
          "velocity": 0.7952755905511811,
          "duration": 0.836693604166669
        },
        {
          "name": "A4",
          "midi": 69,
          "time": 55.887100499999896,
          "velocity": 0.937007874015748,
          "duration": 0.8669355416666704
        },
        {
          "name": "D5",
          "midi": 74,
          "time": 56.8548424999999,
          "velocity": 0.8661417322834646,
          "duration": 1.209677499999998
        },
        {
          "name": "A4",
          "midi": 69,
          "time": 56.8548424999999,
          "velocity": 0.7874015748031497,
          "duration": 1.209677499999998
        },
        {
          "name": "D4",
          "midi": 62,
          "time": 56.8548424999999,
          "velocity": 0.8188976377952756,
          "duration": 1.209677499999998
        },
        {
          "name": "F5",
          "midi": 77,
          "time": 58.79032649999989,
          "velocity": 0.8110236220472441,
          "duration": 0.24193549999999675
        },
        {
          "name": "F4",
          "midi": 65,
          "time": 58.79032649999989,
          "velocity": 0.8110236220472441,
          "duration": 0.24193549999999675
        },
        {
          "name": "F4",
          "midi": 65,
          "time": 59.274197499999886,
          "velocity": 0.7874015748031497,
          "duration": 0.24193549999999675
        },
        {
          "name": "F5",
          "midi": 77,
          "time": 59.274197499999886,
          "velocity": 0.8503937007874016,
          "duration": 0.24193549999999675
        },
        {
          "name": "E5",
          "midi": 76,
          "time": 59.75806849999988,
          "velocity": 0.8346456692913385,
          "duration": 0.24193549999999675
        },
        {
          "name": "E4",
          "midi": 64,
          "time": 59.75806849999988,
          "velocity": 0.8267716535433071,
          "duration": 0.24193549999999675
        },
        {
          "name": "E4",
          "midi": 64,
          "time": 60.24193949999987,
          "velocity": 0.7716535433070866,
          "duration": 0.4838710000000006
        },
        {
          "name": "E5",
          "midi": 76,
          "time": 60.24193949999987,
          "velocity": 0.8188976377952756,
          "duration": 0.4838710000000006
        },
        {
          "name": "F4",
          "midi": 65,
          "time": 61.693552499999875,
          "velocity": 0.7480314960629921,
          "duration": 0.24193549999999675
        },
        {
          "name": "F5",
          "midi": 77,
          "time": 61.693552499999875,
          "velocity": 0.7874015748031497,
          "duration": 0.24193549999999675
        },
        {
          "name": "F4",
          "midi": 65,
          "time": 62.17742349999987,
          "velocity": 0.7165354330708661,
          "duration": 0.24193549999999675
        },
        {
          "name": "F5",
          "midi": 77,
          "time": 62.17742349999987,
          "velocity": 0.8031496062992126,
          "duration": 0.24193549999999675
        },
        {
          "name": "E5",
          "midi": 76,
          "time": 62.66129449999986,
          "velocity": 0.6850393700787402,
          "duration": 0.24193549999999675
        },
        {
          "name": "E4",
          "midi": 64,
          "time": 62.66129449999986,
          "velocity": 0.7322834645669292,
          "duration": 0.24193549999999675
        },
        {
          "name": "E5",
          "midi": 76,
          "time": 63.145165499999855,
          "velocity": 0.7795275590551181,
          "duration": 0.4838710000000006
        },
        {
          "name": "E4",
          "midi": 64,
          "time": 63.145165499999855,
          "velocity": 0.7795275590551181,
          "duration": 0.4838710000000006
        },
        {
          "name": "F5",
          "midi": 77,
          "time": 64.59677849999986,
          "velocity": 0.7795275590551181,
          "duration": 0.24193549999999675
        },
        {
          "name": "F4",
          "midi": 65,
          "time": 64.59677849999986,
          "velocity": 0.7401574803149606,
          "duration": 0.24193549999999675
        },
        {
          "name": "F4",
          "midi": 65,
          "time": 65.08064949999985,
          "velocity": 0.7795275590551181,
          "duration": 0.24193549999999675
        },
        {
          "name": "F5",
          "midi": 77,
          "time": 65.08064949999985,
          "velocity": 0.7874015748031497,
          "duration": 0.24193549999999675
        },
        {
          "name": "E5",
          "midi": 76,
          "time": 65.56452049999984,
          "velocity": 0.7716535433070866,
          "duration": 0.24193549999999675
        },
        {
          "name": "E4",
          "midi": 64,
          "time": 65.56452049999984,
          "velocity": 0.7480314960629921,
          "duration": 0.24193549999999675
        },
        {
          "name": "F4",
          "midi": 65,
          "time": 66.04839149999984,
          "velocity": 0.7874015748031497,
          "duration": 0.7258065000000045
        },
        {
          "name": "F5",
          "midi": 77,
          "time": 66.04839149999984,
          "velocity": 0.7716535433070866,
          "duration": 0.7258065000000045
        },
        {
          "name": "G4",
          "midi": 67,
          "time": 67.01613349999984,
          "velocity": 0.6850393700787402,
          "duration": 0.7258065000000045
        },
        {
          "name": "G5",
          "midi": 79,
          "time": 67.01613349999984,
          "velocity": 0.8031496062992126,
          "duration": 0.7258065000000045
        },
        {
          "name": "F5",
          "midi": 77,
          "time": 67.98387549999984,
          "velocity": 0.8188976377952756,
          "duration": 0.24193549999999675
        },
        {
          "name": "F4",
          "midi": 65,
          "time": 67.98387549999984,
          "velocity": 0.7637795275590551,
          "duration": 0.24193549999999675
        },
        {
          "name": "E4",
          "midi": 64,
          "time": 68.46774649999983,
          "velocity": 0.7007874015748031,
          "duration": 1.209677499999998
        },
        {
          "name": "E5",
          "midi": 76,
          "time": 68.46774649999983,
          "velocity": 0.7322834645669292,
          "duration": 1.209677499999998
        },
        {
          "name": "F5",
          "midi": 77,
          "time": 70.40323049999984,
          "velocity": 0.8110236220472441,
          "duration": 0.24193549999999675
        },
        {
          "name": "F4",
          "midi": 65,
          "time": 70.40323049999984,
          "velocity": 0.8110236220472441,
          "duration": 0.24193549999999675
        },
        {
          "name": "F4",
          "midi": 65,
          "time": 70.88710149999983,
          "velocity": 0.7874015748031497,
          "duration": 0.24193549999999675
        },
        {
          "name": "F5",
          "midi": 77,
          "time": 70.88710149999983,
          "velocity": 0.8503937007874016,
          "duration": 0.24193549999999675
        },
        {
          "name": "E5",
          "midi": 76,
          "time": 71.37097249999982,
          "velocity": 0.8346456692913385,
          "duration": 0.24193549999999675
        },
        {
          "name": "E4",
          "midi": 64,
          "time": 71.37097249999982,
          "velocity": 0.8267716535433071,
          "duration": 0.24193549999999675
        },
        {
          "name": "E4",
          "midi": 64,
          "time": 71.85484349999982,
          "velocity": 0.7716535433070866,
          "duration": 0.4838709999999935
        },
        {
          "name": "E5",
          "midi": 76,
          "time": 71.85484349999982,
          "velocity": 0.8188976377952756,
          "duration": 0.4838709999999935
        },
        {
          "name": "F4",
          "midi": 65,
          "time": 73.30645649999981,
          "velocity": 0.7480314960629921,
          "duration": 0.24193549999999675
        },
        {
          "name": "F5",
          "midi": 77,
          "time": 73.30645649999981,
          "velocity": 0.7874015748031497,
          "duration": 0.24193549999999675
        },
        {
          "name": "F4",
          "midi": 65,
          "time": 73.7903274999998,
          "velocity": 0.7165354330708661,
          "duration": 0.24193549999999675
        },
        {
          "name": "F5",
          "midi": 77,
          "time": 73.7903274999998,
          "velocity": 0.8031496062992126,
          "duration": 0.24193549999999675
        },
        {
          "name": "E5",
          "midi": 76,
          "time": 74.2741984999998,
          "velocity": 0.6850393700787402,
          "duration": 0.24193549999999675
        },
        {
          "name": "E4",
          "midi": 64,
          "time": 74.2741984999998,
          "velocity": 0.7322834645669292,
          "duration": 0.24193549999999675
        },
        {
          "name": "E5",
          "midi": 76,
          "time": 74.75806949999979,
          "velocity": 0.7795275590551181,
          "duration": 0.4838709999999935
        },
        {
          "name": "E4",
          "midi": 64,
          "time": 74.75806949999979,
          "velocity": 0.7795275590551181,
          "duration": 0.4838709999999935
        },
        {
          "name": "F5",
          "midi": 77,
          "time": 76.20968249999979,
          "velocity": 0.7795275590551181,
          "duration": 0.24193549999999675
        },
        {
          "name": "F4",
          "midi": 65,
          "time": 76.20968249999979,
          "velocity": 0.7401574803149606,
          "duration": 0.24193549999999675
        },
        {
          "name": "F4",
          "midi": 65,
          "time": 76.69355349999978,
          "velocity": 0.7795275590551181,
          "duration": 0.24193549999999675
        },
        {
          "name": "F5",
          "midi": 77,
          "time": 76.69355349999978,
          "velocity": 0.7874015748031497,
          "duration": 0.24193549999999675
        },
        {
          "name": "E5",
          "midi": 76,
          "time": 77.17742449999977,
          "velocity": 0.7716535433070866,
          "duration": 0.24193549999999675
        },
        {
          "name": "E4",
          "midi": 64,
          "time": 77.17742449999977,
          "velocity": 0.7480314960629921,
          "duration": 0.24193549999999675
        },
        {
          "name": "F4",
          "midi": 65,
          "time": 77.66129549999977,
          "velocity": 0.7874015748031497,
          "duration": 0.7258065000000045
        },
        {
          "name": "F5",
          "midi": 77,
          "time": 77.66129549999977,
          "velocity": 0.7716535433070866,
          "duration": 0.7258065000000045
        },
        {
          "name": "G4",
          "midi": 67,
          "time": 78.62903749999977,
          "velocity": 0.6850393700787402,
          "duration": 0.7258065000000045
        },
        {
          "name": "G5",
          "midi": 79,
          "time": 78.62903749999977,
          "velocity": 0.8031496062992126,
          "duration": 0.7258065000000045
        },
        {
          "name": "F5",
          "midi": 77,
          "time": 79.59677949999977,
          "velocity": 0.8188976377952756,
          "duration": 0.24193549999999675
        },
        {
          "name": "F4",
          "midi": 65,
          "time": 79.59677949999977,
          "velocity": 0.7637795275590551,
          "duration": 0.24193549999999675
        },
        {
          "name": "E4",
          "midi": 64,
          "time": 80.08065049999976,
          "velocity": 0.7007874015748031,
          "duration": 1.209677499999998
        },
        {
          "name": "E5",
          "midi": 76,
          "time": 80.08065049999976,
          "velocity": 0.7322834645669292,
          "duration": 1.209677499999998
        },
        {
          "name": "A4",
          "midi": 69,
          "time": 82.01613449999977,
          "velocity": 0.7874015748031497,
          "duration": 0.3276209895833233
        },
        {
          "name": "A5",
          "midi": 81,
          "time": 82.01613449999977,
          "velocity": 0.8031496062992126,
          "duration": 0.29737905208332904
        },
        {
          "name": "F5",
          "midi": 77,
          "time": 82.01613449999977,
          "velocity": 0.7795275590551181,
          "duration": 0.34274195833332044
        },
        {
          "name": "A4",
          "midi": 69,
          "time": 82.50000549999976,
          "velocity": 0.8267716535433071,
          "duration": 0.38810486458334026
        },
        {
          "name": "A5",
          "midi": 81,
          "time": 82.50000549999976,
          "velocity": 0.7716535433070866,
          "duration": 0.38810486458334026
        },
        {
          "name": "F5",
          "midi": 77,
          "time": 82.50000549999976,
          "velocity": 0.7874015748031497,
          "duration": 0.3679435729166727
        },
        {
          "name": "G4",
          "midi": 67,
          "time": 82.98387649999977,
          "velocity": 0.7165354330708661,
          "duration": 0.3578629270833176
        },
        {
          "name": "A4",
          "midi": 69,
          "time": 82.98387649999977,
          "velocity": 0.7795275590551181,
          "duration": 0.34274195833332044
        },
        {
          "name": "G5",
          "midi": 79,
          "time": 82.98387649999977,
          "velocity": 0.6850393700787402,
          "duration": 0.3729838958333147
        },
        {
          "name": "E5",
          "midi": 76,
          "time": 82.98387649999977,
          "velocity": 0.6929133858267716,
          "duration": 0.33266131249999376
        },
        {
          "name": "A4",
          "midi": 69,
          "time": 83.46774749999975,
          "velocity": 0.8267716535433071,
          "duration": 0.4838709999999935
        },
        {
          "name": "E5",
          "midi": 76,
          "time": 83.46774749999975,
          "velocity": 0.7637795275590551,
          "duration": 0.4838709999999935
        },
        {
          "name": "G4",
          "midi": 67,
          "time": 83.46774749999975,
          "velocity": 0.7480314960629921,
          "duration": 0.4838709999999935
        },
        {
          "name": "G5",
          "midi": 79,
          "time": 83.46774749999975,
          "velocity": 0.7795275590551181,
          "duration": 0.4838709999999935
        },
        {
          "name": "A4",
          "midi": 69,
          "time": 84.91936049999974,
          "velocity": 0.7637795275590551,
          "duration": 0.33770163541665
        },
        {
          "name": "F5",
          "midi": 77,
          "time": 84.91936049999974,
          "velocity": 0.7401574803149606,
          "duration": 0.3276209895833233
        },
        {
          "name": "A5",
          "midi": 81,
          "time": 84.91936049999974,
          "velocity": 0.7637795275590551,
          "duration": 0.29737905208332904
        },
        {
          "name": "A4",
          "midi": 69,
          "time": 85.40323149999972,
          "velocity": 0.7480314960629921,
          "duration": 0.3729838958333147
        },
        {
          "name": "F5",
          "midi": 77,
          "time": 85.40323149999972,
          "velocity": 0.7480314960629921,
          "duration": 0.362903249999988
        },
        {
          "name": "A5",
          "midi": 81,
          "time": 85.40323149999972,
          "velocity": 0.7795275590551181,
          "duration": 0.35282260416666134
        },
        {
          "name": "G4",
          "midi": 67,
          "time": 85.8871024999997,
          "velocity": 0.6850393700787402,
          "duration": 0.36290325000001644
        },
        {
          "name": "A4",
          "midi": 69,
          "time": 85.8871024999997,
          "velocity": 0.7952755905511811,
          "duration": 0.383064541666684
        },
        {
          "name": "E5",
          "midi": 76,
          "time": 85.8871024999997,
          "velocity": 0.7086614173228346,
          "duration": 0.3377016354166784
        },
        {
          "name": "G5",
          "midi": 79,
          "time": 85.8871024999997,
          "velocity": 0.7244094488188977,
          "duration": 0.3125000208333404
        },
        {
          "name": "G5",
          "midi": 79,
          "time": 86.37097349999972,
          "velocity": 0.7637795275590551,
          "duration": 0.4838709999999935
        },
        {
          "name": "E5",
          "midi": 76,
          "time": 86.37097349999972,
          "velocity": 0.7244094488188977,
          "duration": 0.4838709999999935
        },
        {
          "name": "G4",
          "midi": 67,
          "time": 86.37097349999972,
          "velocity": 0.7480314960629921,
          "duration": 0.4838709999999935
        },
        {
          "name": "A4",
          "midi": 69,
          "time": 86.37097349999972,
          "velocity": 0.7795275590551181,
          "duration": 0.4838709999999935
        },
        {
          "name": "F5",
          "midi": 77,
          "time": 87.82258649999972,
          "velocity": 0.7637795275590551,
          "duration": 0.36290325000000223
        },
        {
          "name": "A5",
          "midi": 81,
          "time": 87.82258649999972,
          "velocity": 0.7401574803149606,
          "duration": 0.3024193749999995
        },
        {
          "name": "A4",
          "midi": 69,
          "time": 87.82258649999972,
          "velocity": 0.7795275590551181,
          "duration": 0.3830645416666698
        },
        {
          "name": "F5",
          "midi": 77,
          "time": 88.30645749999972,
          "velocity": 0.7795275590551181,
          "duration": 0.3729838958333289
        },
        {
          "name": "A4",
          "midi": 69,
          "time": 88.30645749999972,
          "velocity": 0.7637795275590551,
          "duration": 0.3578629270833318
        },
        {
          "name": "A5",
          "midi": 81,
          "time": 88.30645749999972,
          "velocity": 0.7244094488188977,
          "duration": 0.34274195833333465
        },
        {
          "name": "E5",
          "midi": 76,
          "time": 88.79032849999972,
          "velocity": 0.7322834645669292,
          "duration": 0.3578629270833318
        },
        {
          "name": "G5",
          "midi": 79,
          "time": 88.79032849999972,
          "velocity": 0.7244094488188977,
          "duration": 0.37802421874999936
        },
        {
          "name": "G4",
          "midi": 67,
          "time": 88.79032849999972,
          "velocity": 0.7007874015748031,
          "duration": 0.3276209895833375
        },
        {
          "name": "A4",
          "midi": 69,
          "time": 88.79032849999972,
          "velocity": 0.7637795275590551,
          "duration": 0.36290325000000223
        },
        {
          "name": "F5",
          "midi": 77,
          "time": 89.27419949999971,
          "velocity": 0.7795275590551181,
          "duration": 0.8971774791666718
        },
        {
          "name": "D5",
          "midi": 74,
          "time": 89.27419949999971,
          "velocity": 0.7401574803149606,
          "duration": 0.811491989583331
        },
        {
          "name": "F4",
          "midi": 65,
          "time": 89.27419949999971,
          "velocity": 0.7244094488188977,
          "duration": 0.8518145729166662
        },
        {
          "name": "A4",
          "midi": 69,
          "time": 89.27419949999971,
          "velocity": 0.7637795275590551,
          "duration": 0.8568548958333366
        },
        {
          "name": "E5",
          "midi": 76,
          "time": 90.24194149999971,
          "velocity": 0.7952755905511811,
          "duration": 0.8719758645833338
        },
        {
          "name": "G5",
          "midi": 79,
          "time": 90.24194149999971,
          "velocity": 0.7165354330708661,
          "duration": 0.8719758645833338
        },
        {
          "name": "G4",
          "midi": 67,
          "time": 90.24194149999971,
          "velocity": 0.6929133858267716,
          "duration": 0.8467742499999957
        },
        {
          "name": "A4",
          "midi": 69,
          "time": 90.24194149999971,
          "velocity": 0.7952755905511811,
          "duration": 0.8518145729166662
        },
        {
          "name": "D5",
          "midi": 74,
          "time": 91.20968349999971,
          "velocity": 0.7559055118110236,
          "duration": 0.42338712500000497
        },
        {
          "name": "F5",
          "midi": 77,
          "time": 91.20968349999971,
          "velocity": 0.7401574803149606,
          "duration": 0.4032258333333374
        },
        {
          "name": "F4",
          "midi": 65,
          "time": 91.20968349999971,
          "velocity": 0.7086614173228346,
          "duration": 0.37802421874999936
        },
        {
          "name": "A4",
          "midi": 69,
          "time": 91.20968349999971,
          "velocity": 0.7952755905511811,
          "duration": 0.37802421874999936
        },
        {
          "name": "G4",
          "midi": 67,
          "time": 91.69355449999972,
          "velocity": 0.7244094488188977,
          "duration": 1.2852823437499978
        },
        {
          "name": "E5",
          "midi": 76,
          "time": 91.69355449999972,
          "velocity": 0.7795275590551181,
          "duration": 1.3760081562499948
        },
        {
          "name": "G5",
          "midi": 79,
          "time": 91.69355449999972,
          "velocity": 0.7637795275590551,
          "duration": 1.234879114583336
        },
        {
          "name": "A4",
          "midi": 69,
          "time": 91.69355449999972,
          "velocity": 0.8267716535433071,
          "duration": 1.2449597604166627
        },
        {
          "name": "A5",
          "midi": 81,
          "time": 93.62903849999971,
          "velocity": 0.7637795275590551,
          "duration": 0.3276209895833375
        },
        {
          "name": "F5",
          "midi": 77,
          "time": 93.62903849999971,
          "velocity": 0.7952755905511811,
          "duration": 0.3477822812500051
        },
        {
          "name": "A4",
          "midi": 69,
          "time": 93.62903849999971,
          "velocity": 0.7874015748031497,
          "duration": 0.3830645416666698
        },
        {
          "name": "A5",
          "midi": 81,
          "time": 94.11290949999972,
          "velocity": 0.7480314960629921,
          "duration": 0.4183468020833345
        },
        {
          "name": "F5",
          "midi": 77,
          "time": 94.11290949999972,
          "velocity": 0.8031496062992126,
          "duration": 0.37802421874999936
        },
        {
          "name": "A4",
          "midi": 69,
          "time": 94.11290949999972,
          "velocity": 0.7952755905511811,
          "duration": 0.2822580833333319
        },
        {
          "name": "A4",
          "midi": 69,
          "time": 94.59678049999972,
          "velocity": 0.7795275590551181,
          "duration": 0.2721774375000052
        },
        {
          "name": "G4",
          "midi": 67,
          "time": 94.59678049999972,
          "velocity": 0.7637795275590551,
          "duration": 0.2721774375000052
        },
        {
          "name": "G5",
          "midi": 79,
          "time": 94.59678049999972,
          "velocity": 0.7637795275590551,
          "duration": 0.2721774375000052
        },
        {
          "name": "E5",
          "midi": 76,
          "time": 94.59678049999972,
          "velocity": 0.7637795275590551,
          "duration": 0.2721774375000052
        },
        {
          "name": "G4",
          "midi": 67,
          "time": 95.08065149999973,
          "velocity": 0.6929133858267716,
          "duration": 0.4838709999999935
        },
        {
          "name": "A4",
          "midi": 69,
          "time": 95.08065149999973,
          "velocity": 0.7165354330708661,
          "duration": 0.4838709999999935
        },
        {
          "name": "E5",
          "midi": 76,
          "time": 95.08065149999973,
          "velocity": 0.7874015748031497,
          "duration": 0.4838709999999935
        },
        {
          "name": "G5",
          "midi": 79,
          "time": 95.08065149999973,
          "velocity": 0.7795275590551181,
          "duration": 0.4838709999999935
        },
        {
          "name": "A5",
          "midi": 81,
          "time": 96.53226449999973,
          "velocity": 0.7637795275590551,
          "duration": 0.3276209895833375
        },
        {
          "name": "A4",
          "midi": 69,
          "time": 96.53226449999973,
          "velocity": 0.7401574803149606,
          "duration": 0.39818551041666694
        },
        {
          "name": "F5",
          "midi": 77,
          "time": 96.53226449999973,
          "velocity": 0.7401574803149606,
          "duration": 0.3276209895833375
        },
        {
          "name": "F5",
          "midi": 77,
          "time": 97.01613549999972,
          "velocity": 0.7480314960629921,
          "duration": 0.34274195833333465
        },
        {
          "name": "A5",
          "midi": 81,
          "time": 97.01613549999972,
          "velocity": 0.7086614173228346,
          "duration": 0.34274195833333465
        },
        {
          "name": "A4",
          "midi": 69,
          "time": 97.01613549999972,
          "velocity": 0.7559055118110236,
          "duration": 0.3830645416666698
        },
        {
          "name": "G5",
          "midi": 79,
          "time": 97.50000649999973,
          "velocity": 0.7086614173228346,
          "duration": 0.2721774375000052
        },
        {
          "name": "E5",
          "midi": 76,
          "time": 97.50000649999973,
          "velocity": 0.7480314960629921,
          "duration": 0.2721774375000052
        },
        {
          "name": "A4",
          "midi": 69,
          "time": 97.50000649999973,
          "velocity": 0.7480314960629921,
          "duration": 0.2721774375000052
        },
        {
          "name": "G4",
          "midi": 67,
          "time": 97.50000649999973,
          "velocity": 0.7086614173228346,
          "duration": 0.2721774375000052
        },
        {
          "name": "G5",
          "midi": 79,
          "time": 97.98387749999974,
          "velocity": 0.8267716535433071,
          "duration": 0.4838709999999935
        },
        {
          "name": "E5",
          "midi": 76,
          "time": 97.98387749999974,
          "velocity": 0.7795275590551181,
          "duration": 0.4838709999999935
        },
        {
          "name": "G4",
          "midi": 67,
          "time": 97.98387749999974,
          "velocity": 0.7244094488188977,
          "duration": 0.4838709999999935
        },
        {
          "name": "A4",
          "midi": 69,
          "time": 97.98387749999974,
          "velocity": 0.7795275590551181,
          "duration": 0.4838709999999935
        },
        {
          "name": "F5",
          "midi": 77,
          "time": 99.43549049999973,
          "velocity": 0.8031496062992126,
          "duration": 0.4032258333333374
        },
        {
          "name": "A5",
          "midi": 81,
          "time": 99.43549049999973,
          "velocity": 0.7952755905511811,
          "duration": 0.3477822812500051
        },
        {
          "name": "A4",
          "midi": 69,
          "time": 99.43549049999973,
          "velocity": 0.7795275590551181,
          "duration": 0.39818551041666694
        },
        {
          "name": "F5",
          "midi": 77,
          "time": 99.91936149999974,
          "velocity": 0.7952755905511811,
          "duration": 0.37802421874999936
        },
        {
          "name": "A5",
          "midi": 81,
          "time": 99.91936149999974,
          "velocity": 0.7795275590551181,
          "duration": 0.3729838958333289
        },
        {
          "name": "A4",
          "midi": 69,
          "time": 99.91936149999974,
          "velocity": 0.7559055118110236,
          "duration": 0.39818551041666694
        },
        {
          "name": "E5",
          "midi": 76,
          "time": 100.40323249999973,
          "velocity": 0.7480314960629921,
          "duration": 0.34274195833333465
        },
        {
          "name": "G5",
          "midi": 79,
          "time": 100.40323249999973,
          "velocity": 0.7480314960629921,
          "duration": 0.3729838958333431
        },
        {
          "name": "A4",
          "midi": 69,
          "time": 100.40323249999973,
          "velocity": 0.7559055118110236,
          "duration": 0.3679435729166727
        },
        {
          "name": "G4",
          "midi": 67,
          "time": 100.40323249999973,
          "velocity": 0.7559055118110236,
          "duration": 0.3477822812500051
        },
        {
          "name": "F5",
          "midi": 77,
          "time": 100.88710349999974,
          "velocity": 0.8267716535433071,
          "duration": 0.8618952187499929
        },
        {
          "name": "D5",
          "midi": 74,
          "time": 100.88710349999974,
          "velocity": 0.7716535433070866,
          "duration": 0.8266129583333282
        },
        {
          "name": "A4",
          "midi": 69,
          "time": 100.88710349999974,
          "velocity": 0.7086614173228346,
          "duration": 0.8669355416666633
        },
        {
          "name": "F4",
          "midi": 65,
          "time": 100.88710349999974,
          "velocity": 0.7952755905511811,
          "duration": 0.8266129583333282
        },
        {
          "name": "E5",
          "midi": 76,
          "time": 101.85484549999974,
          "velocity": 0.7874015748031497,
          "duration": 0.40826615625000784
        },
        {
          "name": "G5",
          "midi": 79,
          "time": 101.85484549999974,
          "velocity": 0.7480314960629921,
          "duration": 0.4032258333333374
        },
        {
          "name": "A4",
          "midi": 69,
          "time": 101.85484549999974,
          "velocity": 0.7244094488188977,
          "duration": 0.3830645416666698
        },
        {
          "name": "G4",
          "midi": 67,
          "time": 101.85484549999974,
          "velocity": 0.7637795275590551,
          "duration": 0.3578629270833318
        },
        {
          "name": "A4",
          "midi": 69,
          "time": 102.33871649999975,
          "velocity": 0.7165354330708661,
          "duration": 0.9072581249999985
        },
        {
          "name": "E5",
          "midi": 76,
          "time": 102.33871649999975,
          "velocity": 0.8031496062992126,
          "duration": 0.8870968333333309
        },
        {
          "name": "E4",
          "midi": 64,
          "time": 102.33871649999975,
          "velocity": 0.7952755905511811,
          "duration": 0.8618952187499929
        },
        {
          "name": "D5",
          "midi": 74,
          "time": 103.30645849999975,
          "velocity": 0.8267716535433071,
          "duration": 1.3608871874999977
        },
        {
          "name": "D4",
          "midi": 62,
          "time": 103.30645849999975,
          "velocity": 0.7952755905511811,
          "duration": 1.3205646041666625
        },
        {
          "name": "F5",
          "midi": 77,
          "time": 105.24194249999975,
          "velocity": 0.7874015748031497,
          "duration": 0.3377016354166784
        },
        {
          "name": "F6",
          "midi": 89,
          "time": 105.24194249999975,
          "velocity": 0.7874015748031497,
          "duration": 0.3125000208333404
        },
        {
          "name": "F4",
          "midi": 65,
          "time": 105.72581349999976,
          "velocity": 0.7874015748031497,
          "duration": 0.3931451874999965
        },
        {
          "name": "F5",
          "midi": 77,
          "time": 105.72581349999976,
          "velocity": 0.7874015748031497,
          "duration": 0.4032258333333232
        },
        {
          "name": "E4",
          "midi": 64,
          "time": 106.20968449999975,
          "velocity": 0.9212598425196851,
          "duration": 0.36290325000000223
        },
        {
          "name": "E5",
          "midi": 76,
          "time": 106.20968449999975,
          "velocity": 0.9212598425196851,
          "duration": 0.34274195833333465
        },
        {
          "name": "E4",
          "midi": 64,
          "time": 106.69355549999976,
          "velocity": 0.9212598425196851,
          "duration": 0.5897177812500018
        },
        {
          "name": "E5",
          "midi": 76,
          "time": 106.69355549999976,
          "velocity": 0.9212598425196851,
          "duration": 0.5443548749999962
        },
        {
          "name": "F4",
          "midi": 65,
          "time": 108.14516849999976,
          "velocity": 0.9212598425196851,
          "duration": 0.33266131249999376
        },
        {
          "name": "F5",
          "midi": 77,
          "time": 108.14516849999976,
          "velocity": 0.9212598425196851,
          "duration": 0.2822580833333319
        },
        {
          "name": "F4",
          "midi": 65,
          "time": 108.62903949999975,
          "velocity": 0.9212598425196851,
          "duration": 0.40826615625000784
        },
        {
          "name": "F5",
          "midi": 77,
          "time": 108.62903949999975,
          "velocity": 0.9212598425196851,
          "duration": 0.36290325000000223
        },
        {
          "name": "E4",
          "midi": 64,
          "time": 109.11291049999976,
          "velocity": 0.9212598425196851,
          "duration": 0.36290325000000223
        },
        {
          "name": "E5",
          "midi": 76,
          "time": 109.11291049999976,
          "velocity": 0.9212598425196851,
          "duration": 0.3729838958333289
        },
        {
          "name": "E4",
          "midi": 64,
          "time": 109.59678149999975,
          "velocity": 0.9212598425196851,
          "duration": 0.44354841666665834
        },
        {
          "name": "E5",
          "midi": 76,
          "time": 109.59678149999975,
          "velocity": 0.9212598425196851,
          "duration": 0.3931451874999965
        },
        {
          "name": "F4",
          "midi": 65,
          "time": 111.04839449999974,
          "velocity": 0.9212598425196851,
          "duration": 0.34274195833333465
        },
        {
          "name": "F5",
          "midi": 77,
          "time": 111.04839449999974,
          "velocity": 0.9212598425196851,
          "duration": 0.36290325000000223
        },
        {
          "name": "F4",
          "midi": 65,
          "time": 111.53226549999975,
          "velocity": 0.9212598425196851,
          "duration": 0.42338712500000497
        },
        {
          "name": "F5",
          "midi": 77,
          "time": 111.53226549999975,
          "velocity": 0.9212598425196851,
          "duration": 0.4183468020833345
        },
        {
          "name": "E4",
          "midi": 64,
          "time": 112.01613649999976,
          "velocity": 0.9212598425196851,
          "duration": 0.3729838958333289
        },
        {
          "name": "E5",
          "midi": 76,
          "time": 112.01613649999976,
          "velocity": 0.9212598425196851,
          "duration": 0.3931451874999965
        },
        {
          "name": "F4",
          "midi": 65,
          "time": 112.50000749999975,
          "velocity": 0.9212598425196851,
          "duration": 0.902217802083328
        },
        {
          "name": "F5",
          "midi": 77,
          "time": 112.50000749999975,
          "velocity": 0.9212598425196851,
          "duration": 0.8719758645833338
        },
        {
          "name": "G4",
          "midi": 67,
          "time": 113.46774949999975,
          "velocity": 0.9212598425196851,
          "duration": 0.8669355416666633
        },
        {
          "name": "G5",
          "midi": 79,
          "time": 113.46774949999975,
          "velocity": 0.9212598425196851,
          "duration": 0.927419416666666
        },
        {
          "name": "F4",
          "midi": 65,
          "time": 114.43549149999976,
          "velocity": 0.9212598425196851,
          "duration": 0.46875003124999637
        },
        {
          "name": "F5",
          "midi": 77,
          "time": 114.43549149999976,
          "velocity": 0.9212598425196851,
          "duration": 0.4385080937500021
        },
        {
          "name": "E4",
          "midi": 64,
          "time": 114.91936249999975,
          "velocity": 0.9212598425196851,
          "duration": 1.1693549166666628
        },
        {
          "name": "E5",
          "midi": 76,
          "time": 114.91936249999975,
          "velocity": 0.9212598425196851,
          "duration": 1.391129124999992
        },
        {
          "name": "F4",
          "midi": 65,
          "time": 116.85484649999974,
          "velocity": 0.9212598425196851,
          "duration": 0.32258066666666707
        },
        {
          "name": "F5",
          "midi": 77,
          "time": 116.85484649999974,
          "velocity": 0.9212598425196851,
          "duration": 0.3830645416666698
        },
        {
          "name": "F4",
          "midi": 65,
          "time": 117.33871749999975,
          "velocity": 0.9212598425196851,
          "duration": 0.4133064791666641
        },
        {
          "name": "F5",
          "midi": 77,
          "time": 117.33871749999975,
          "velocity": 0.9212598425196851,
          "duration": 0.42338712499999076
        },
        {
          "name": "E4",
          "midi": 64,
          "time": 117.82258849999974,
          "velocity": 0.9212598425196851,
          "duration": 0.3830645416666698
        },
        {
          "name": "E5",
          "midi": 76,
          "time": 117.82258849999974,
          "velocity": 0.9212598425196851,
          "duration": 0.3679435729166727
        },
        {
          "name": "E4",
          "midi": 64,
          "time": 118.30645949999975,
          "velocity": 0.9212598425196851,
          "duration": 0.5846774583333314
        },
        {
          "name": "E5",
          "midi": 76,
          "time": 118.30645949999975,
          "velocity": 0.9212598425196851,
          "duration": 0.4385080937500021
        },
        {
          "name": "F4",
          "midi": 65,
          "time": 119.75807249999974,
          "velocity": 0.9212598425196851,
          "duration": 0.3679435729166727
        },
        {
          "name": "F5",
          "midi": 77,
          "time": 119.75807249999974,
          "velocity": 0.9212598425196851,
          "duration": 0.28729840625000236
        },
        {
          "name": "F4",
          "midi": 65,
          "time": 120.24194349999975,
          "velocity": 0.9212598425196851,
          "duration": 0.40826615625000784
        },
        {
          "name": "F5",
          "midi": 77,
          "time": 120.24194349999975,
          "velocity": 0.9212598425196851,
          "duration": 0.38810486458334026
        },
        {
          "name": "E4",
          "midi": 64,
          "time": 120.72581449999976,
          "velocity": 0.9212598425196851,
          "duration": 0.36290325000000223
        },
        {
          "name": "E5",
          "midi": 76,
          "time": 120.72581449999976,
          "velocity": 0.9212598425196851,
          "duration": 0.36290325000000223
        },
        {
          "name": "E4",
          "midi": 64,
          "time": 121.20968549999976,
          "velocity": 0.9212598425196851,
          "duration": 0.5997984270833427
        },
        {
          "name": "E5",
          "midi": 76,
          "time": 121.20968549999976,
          "velocity": 0.9212598425196851,
          "duration": 0.47883067708333726
        },
        {
          "name": "F4",
          "midi": 65,
          "time": 122.66129849999977,
          "velocity": 0.9212598425196851,
          "duration": 0.3679435729166727
        },
        {
          "name": "F5",
          "midi": 77,
          "time": 122.66129849999977,
          "velocity": 0.9212598425196851,
          "duration": 0.3729838958333431
        },
        {
          "name": "F4",
          "midi": 65,
          "time": 123.14516949999978,
          "velocity": 0.9212598425196851,
          "duration": 0.4032258333333232
        },
        {
          "name": "F5",
          "midi": 77,
          "time": 123.14516949999978,
          "velocity": 0.9212598425196851,
          "duration": 0.3729838958333289
        },
        {
          "name": "E4",
          "midi": 64,
          "time": 123.62904049999977,
          "velocity": 0.9212598425196851,
          "duration": 0.3931451874999965
        },
        {
          "name": "E5",
          "midi": 76,
          "time": 123.62904049999977,
          "velocity": 0.9212598425196851,
          "duration": 0.3931451874999965
        },
        {
          "name": "F4",
          "midi": 65,
          "time": 124.11291149999977,
          "velocity": 0.9212598425196851,
          "duration": 0.9475807083333336
        },
        {
          "name": "F5",
          "midi": 77,
          "time": 124.11291149999977,
          "velocity": 0.9212598425196851,
          "duration": 0.9072581249999985
        },
        {
          "name": "G4",
          "midi": 67,
          "time": 125.08065349999977,
          "velocity": 0.9212598425196851,
          "duration": 0.8921371562500013
        },
        {
          "name": "G5",
          "midi": 79,
          "time": 125.08065349999977,
          "velocity": 0.9212598425196851,
          "duration": 0.9324597395833365
        },
        {
          "name": "F4",
          "midi": 65,
          "time": 126.04839549999977,
          "velocity": 0.9212598425196851,
          "duration": 0.43346777083333166
        },
        {
          "name": "F5",
          "midi": 77,
          "time": 126.04839549999977,
          "velocity": 0.9212598425196851,
          "duration": 0.4284274479166612
        },
        {
          "name": "E4",
          "midi": 64,
          "time": 126.53226649999976,
          "velocity": 0.9212598425196851,
          "duration": 1.1491936249999952
        },
        {
          "name": "E5",
          "midi": 76,
          "time": 126.53226649999976,
          "velocity": 0.9212598425196851,
          "duration": 1.2298387916666655
        },
        {
          "name": "F4",
          "midi": 65,
          "time": 128.46775049999977,
          "velocity": 0.9212598425196851,
          "duration": 0.31754034375001083
        },
        {
          "name": "A4",
          "midi": 69,
          "time": 128.46775049999977,
          "velocity": 0.9212598425196851,
          "duration": 0.35282260416667555
        },
        {
          "name": "A5",
          "midi": 81,
          "time": 128.46775049999977,
          "velocity": 0.9212598425196851,
          "duration": 0.32762098958335173
        },
        {
          "name": "F5",
          "midi": 77,
          "time": 128.46775049999977,
          "velocity": 0.9212598425196851,
          "duration": 0.2822580833333461
        },
        {
          "name": "A4",
          "midi": 69,
          "time": 128.9516214999998,
          "velocity": 0.9212598425196851,
          "duration": 0.34274195833333465
        },
        {
          "name": "F4",
          "midi": 65,
          "time": 128.9516214999998,
          "velocity": 0.9212598425196851,
          "duration": 0.30745969791666994
        },
        {
          "name": "A5",
          "midi": 81,
          "time": 128.9516214999998,
          "velocity": 0.9212598425196851,
          "duration": 0.38810486458334026
        },
        {
          "name": "F5",
          "midi": 77,
          "time": 128.9516214999998,
          "velocity": 0.9212598425196851,
          "duration": 0.35282260416667555
        },
        {
          "name": "E4",
          "midi": 64,
          "time": 129.43549249999978,
          "velocity": 1,
          "duration": 0.37802421874999936
        },
        {
          "name": "G4",
          "midi": 67,
          "time": 129.43549249999978,
          "velocity": 1,
          "duration": 0.34274195833333465
        },
        {
          "name": "G5",
          "midi": 79,
          "time": 129.43549249999978,
          "velocity": 1,
          "duration": 0.34274195833333465
        },
        {
          "name": "E5",
          "midi": 76,
          "time": 129.43549249999978,
          "velocity": 1,
          "duration": 0.3477822812500051
        },
        {
          "name": "E4",
          "midi": 64,
          "time": 129.91936349999978,
          "velocity": 1,
          "duration": 0.4939516458333344
        },
        {
          "name": "G4",
          "midi": 67,
          "time": 129.91936349999978,
          "velocity": 1,
          "duration": 0.48891132291666395
        },
        {
          "name": "G5",
          "midi": 79,
          "time": 129.91936349999978,
          "velocity": 1,
          "duration": 0.5241935833333287
        },
        {
          "name": "E5",
          "midi": 76,
          "time": 129.91936349999978,
          "velocity": 1,
          "duration": 0.5141129374999878
        },
        {
          "name": "F4",
          "midi": 65,
          "time": 131.37097649999978,
          "velocity": 1,
          "duration": 0.32762098958335173
        },
        {
          "name": "A4",
          "midi": 69,
          "time": 131.37097649999978,
          "velocity": 1,
          "duration": 0.357862927083346
        },
        {
          "name": "F5",
          "midi": 77,
          "time": 131.37097649999978,
          "velocity": 1,
          "duration": 0.26209679166666433
        },
        {
          "name": "A5",
          "midi": 81,
          "time": 131.37097649999978,
          "velocity": 1,
          "duration": 0.31754034375001083
        },
        {
          "name": "A4",
          "midi": 69,
          "time": 131.8548474999998,
          "velocity": 1,
          "duration": 0.39818551041668115
        },
        {
          "name": "F4",
          "midi": 65,
          "time": 131.8548474999998,
          "velocity": 1,
          "duration": 0.3830645416666698
        },
        {
          "name": "A5",
          "midi": 81,
          "time": 131.8548474999998,
          "velocity": 1,
          "duration": 0.36290325000001644
        },
        {
          "name": "F5",
          "midi": 77,
          "time": 131.8548474999998,
          "velocity": 1,
          "duration": 0.3125000208333404
        },
        {
          "name": "G4",
          "midi": 67,
          "time": 132.33871849999983,
          "velocity": 1,
          "duration": 0.3830645416666698
        },
        {
          "name": "E4",
          "midi": 64,
          "time": 132.33871849999983,
          "velocity": 1,
          "duration": 0.36794357291665847
        },
        {
          "name": "G5",
          "midi": 79,
          "time": 132.33871849999983,
          "velocity": 1,
          "duration": 0.3125000208333404
        },
        {
          "name": "E5",
          "midi": 76,
          "time": 132.33871849999983,
          "velocity": 1,
          "duration": 0.33266131249999376
        },
        {
          "name": "E4",
          "midi": 64,
          "time": 132.82258949999982,
          "velocity": 1,
          "duration": 0.5292339062499991
        },
        {
          "name": "G4",
          "midi": 67,
          "time": 132.82258949999982,
          "velocity": 1,
          "duration": 0.5040322916666753
        },
        {
          "name": "E5",
          "midi": 76,
          "time": 132.82258949999982,
          "velocity": 1,
          "duration": 0.5241935833333287
        },
        {
          "name": "G5",
          "midi": 79,
          "time": 132.82258949999982,
          "velocity": 1,
          "duration": 0.5292339062499991
        },
        {
          "name": "A4",
          "midi": 69,
          "time": 134.27420249999983,
          "velocity": 1,
          "duration": 0.3276209895833233
        },
        {
          "name": "F4",
          "midi": 65,
          "time": 134.27420249999983,
          "velocity": 1,
          "duration": 0.3024193749999995
        },
        {
          "name": "F5",
          "midi": 77,
          "time": 134.27420249999983,
          "velocity": 1,
          "duration": 0.26209679166666433
        },
        {
          "name": "A5",
          "midi": 81,
          "time": 134.27420249999983,
          "velocity": 1,
          "duration": 0.3276209895833233
        },
        {
          "name": "A4",
          "midi": 69,
          "time": 134.75807349999982,
          "velocity": 1,
          "duration": 0.4032258333333516
        },
        {
          "name": "F4",
          "midi": 65,
          "time": 134.75807349999982,
          "velocity": 1,
          "duration": 0.39818551041668115
        },
        {
          "name": "A5",
          "midi": 81,
          "time": 134.75807349999982,
          "velocity": 1,
          "duration": 0.3830645416666698
        },
        {
          "name": "F5",
          "midi": 77,
          "time": 134.75807349999982,
          "velocity": 1,
          "duration": 0.33266131249999376
        },
        {
          "name": "G4",
          "midi": 67,
          "time": 135.24194449999985,
          "velocity": 1,
          "duration": 0.39818551041665273
        },
        {
          "name": "E4",
          "midi": 64,
          "time": 135.24194449999985,
          "velocity": 1,
          "duration": 0.4032258333333232
        },
        {
          "name": "E5",
          "midi": 76,
          "time": 135.24194449999985,
          "velocity": 1,
          "duration": 0.4032258333333232
        },
        {
          "name": "G5",
          "midi": 79,
          "time": 135.24194449999985,
          "velocity": 1,
          "duration": 0.39818551041665273
        },
        {
          "name": "F4",
          "midi": 65,
          "time": 135.72581549999984,
          "velocity": 1,
          "duration": 0.8921371562500156
        },
        {
          "name": "D4",
          "midi": 62,
          "time": 135.72581549999984,
          "velocity": 1,
          "duration": 0.9022178020833564
        },
        {
          "name": "F5",
          "midi": 77,
          "time": 135.72581549999984,
          "velocity": 1,
          "duration": 0.8770161875000042
        },
        {
          "name": "D5",
          "midi": 74,
          "time": 135.72581549999984,
          "velocity": 1,
          "duration": 0.8870968333333451
        },
        {
          "name": "G4",
          "midi": 67,
          "time": 136.69355749999986,
          "velocity": 1,
          "duration": 0.9274194166666803
        },
        {
          "name": "E4",
          "midi": 64,
          "time": 136.69355749999986,
          "velocity": 1,
          "duration": 0.9173387708333394
        },
        {
          "name": "G5",
          "midi": 79,
          "time": 136.69355749999986,
          "velocity": 1,
          "duration": 0.8568548958333508
        },
        {
          "name": "E5",
          "midi": 76,
          "time": 136.69355749999986,
          "velocity": 1,
          "duration": 0.8518145729166804
        },
        {
          "name": "F4",
          "midi": 65,
          "time": 137.66129949999987,
          "velocity": 1,
          "duration": 0.4183468020833345
        },
        {
          "name": "D4",
          "midi": 62,
          "time": 137.66129949999987,
          "velocity": 1,
          "duration": 0.40826615624999363
        },
        {
          "name": "D5",
          "midi": 74,
          "time": 137.66129949999987,
          "velocity": 1,
          "duration": 0.5090726145833173
        },
        {
          "name": "F5",
          "midi": 77,
          "time": 137.66129949999987,
          "velocity": 1,
          "duration": 0.46370970833334013
        },
        {
          "name": "E4",
          "midi": 64,
          "time": 138.14517049999986,
          "velocity": 1,
          "duration": 1.391129124999992
        },
        {
          "name": "G4",
          "midi": 67,
          "time": 138.14517049999986,
          "velocity": 1,
          "duration": 1.381048479166651
        },
        {
          "name": "E5",
          "midi": 76,
          "time": 138.14517049999986,
          "velocity": 1,
          "duration": 1.4516129999999805
        },
        {
          "name": "G5",
          "midi": 79,
          "time": 138.14517049999986,
          "velocity": 1,
          "duration": 1.4516129999999805
        },
        {
          "name": "A4",
          "midi": 69,
          "time": 140.08065449999984,
          "velocity": 1,
          "duration": 0.3830645416666698
        },
        {
          "name": "F4",
          "midi": 65,
          "time": 140.08065449999984,
          "velocity": 1,
          "duration": 0.34274195833333465
        },
        {
          "name": "F5",
          "midi": 77,
          "time": 140.08065449999984,
          "velocity": 1,
          "duration": 0.26209679166666433
        },
        {
          "name": "A5",
          "midi": 81,
          "time": 140.08065449999984,
          "velocity": 1,
          "duration": 0.2570564687499939
        },
        {
          "name": "F4",
          "midi": 65,
          "time": 140.56452549999983,
          "velocity": 1,
          "duration": 0.32258066666665286
        },
        {
          "name": "A4",
          "midi": 69,
          "time": 140.56452549999983,
          "velocity": 1,
          "duration": 0.362903249999988
        },
        {
          "name": "F5",
          "midi": 77,
          "time": 140.56452549999983,
          "velocity": 1,
          "duration": 0.40826615624999363
        },
        {
          "name": "A5",
          "midi": 81,
          "time": 140.56452549999983,
          "velocity": 1,
          "duration": 0.43346777083331745
        },
        {
          "name": "E4",
          "midi": 64,
          "time": 141.04839649999982,
          "velocity": 1,
          "duration": 0.3729838958333289
        },
        {
          "name": "G4",
          "midi": 67,
          "time": 141.04839649999982,
          "velocity": 1,
          "duration": 0.38810486458334026
        },
        {
          "name": "E5",
          "midi": 76,
          "time": 141.04839649999982,
          "velocity": 1,
          "duration": 0.34274195833333465
        },
        {
          "name": "G5",
          "midi": 79,
          "time": 141.04839649999982,
          "velocity": 1,
          "duration": 0.34274195833333465
        },
        {
          "name": "E4",
          "midi": 64,
          "time": 141.53226749999982,
          "velocity": 1,
          "duration": 0.5947581041666581
        },
        {
          "name": "G4",
          "midi": 67,
          "time": 141.53226749999982,
          "velocity": 1,
          "duration": 0.5947581041666581
        },
        {
          "name": "E5",
          "midi": 76,
          "time": 141.53226749999982,
          "velocity": 1,
          "duration": 0.5342742291666696
        },
        {
          "name": "G5",
          "midi": 79,
          "time": 141.53226749999982,
          "velocity": 1,
          "duration": 0.5191532604166582
        },
        {
          "name": "A4",
          "midi": 69,
          "time": 142.9838804999998,
          "velocity": 1,
          "duration": 0.3377016354166642
        },
        {
          "name": "F4",
          "midi": 65,
          "time": 142.9838804999998,
          "velocity": 1,
          "duration": 0.3276209895833233
        },
        {
          "name": "F5",
          "midi": 77,
          "time": 142.9838804999998,
          "velocity": 1,
          "duration": 0.34274195833333465
        },
        {
          "name": "A5",
          "midi": 81,
          "time": 142.9838804999998,
          "velocity": 1,
          "duration": 0.37802421874999936
        },
        {
          "name": "A4",
          "midi": 69,
          "time": 143.4677514999998,
          "velocity": 1,
          "duration": 0.3830645416666698
        },
        {
          "name": "F4",
          "midi": 65,
          "time": 143.4677514999998,
          "velocity": 1,
          "duration": 0.35282260416667555
        },
        {
          "name": "F5",
          "midi": 77,
          "time": 143.4677514999998,
          "velocity": 1,
          "duration": 0.3729838958333289
        },
        {
          "name": "A5",
          "midi": 81,
          "time": 143.4677514999998,
          "velocity": 1,
          "duration": 0.4032258333333232
        },
        {
          "name": "G4",
          "midi": 67,
          "time": 143.9516224999998,
          "velocity": 1,
          "duration": 0.35282260416667555
        },
        {
          "name": "E4",
          "midi": 64,
          "time": 143.9516224999998,
          "velocity": 1,
          "duration": 0.35282260416667555
        },
        {
          "name": "E5",
          "midi": 76,
          "time": 143.9516224999998,
          "velocity": 1,
          "duration": 0.34274195833333465
        },
        {
          "name": "G5",
          "midi": 79,
          "time": 143.9516224999998,
          "velocity": 1,
          "duration": 0.34274195833333465
        },
        {
          "name": "E4",
          "midi": 64,
          "time": 144.4354934999998,
          "velocity": 1,
          "duration": 0.5947581041666865
        },
        {
          "name": "G4",
          "midi": 67,
          "time": 144.4354934999998,
          "velocity": 1,
          "duration": 0.5796371354166752
        },
        {
          "name": "G5",
          "midi": 79,
          "time": 144.4354934999998,
          "velocity": 1,
          "duration": 0.5443548750000105
        },
        {
          "name": "E5",
          "midi": 76,
          "time": 144.4354934999998,
          "velocity": 1,
          "duration": 0.5645161666666638
        },
        {
          "name": "A4",
          "midi": 69,
          "time": 145.88710649999982,
          "velocity": 1,
          "duration": 0.3326613125000222
        },
        {
          "name": "F4",
          "midi": 65,
          "time": 145.88710649999982,
          "velocity": 1,
          "duration": 0.3326613125000222
        },
        {
          "name": "F5",
          "midi": 77,
          "time": 145.88710649999982,
          "velocity": 1,
          "duration": 0.2822580833333461
        },
        {
          "name": "A5",
          "midi": 81,
          "time": 145.88710649999982,
          "velocity": 1,
          "duration": 0.3225806666666813
        },
        {
          "name": "F4",
          "midi": 65,
          "time": 146.37097749999984,
          "velocity": 1,
          "duration": 0.4133064791666925
        },
        {
          "name": "A4",
          "midi": 69,
          "time": 146.37097749999984,
          "velocity": 1,
          "duration": 0.4032258333333516
        },
        {
          "name": "A5",
          "midi": 81,
          "time": 146.37097749999984,
          "velocity": 1,
          "duration": 0.38810486458334026
        },
        {
          "name": "F5",
          "midi": 77,
          "time": 146.37097749999984,
          "velocity": 1,
          "duration": 0.3729838958333289
        },
        {
          "name": "E4",
          "midi": 64,
          "time": 146.85484849999986,
          "velocity": 1,
          "duration": 0.4032258333333232
        },
        {
          "name": "G4",
          "midi": 67,
          "time": 146.85484849999986,
          "velocity": 1,
          "duration": 0.4032258333333232
        },
        {
          "name": "E5",
          "midi": 76,
          "time": 146.85484849999986,
          "velocity": 1,
          "duration": 0.42338712499997655
        },
        {
          "name": "G5",
          "midi": 79,
          "time": 146.85484849999986,
          "velocity": 1,
          "duration": 0.4032258333333232
        },
        {
          "name": "F4",
          "midi": 65,
          "time": 147.33871949999983,
          "velocity": 1,
          "duration": 0.473790354166681
        },
        {
          "name": "A4",
          "midi": 69,
          "time": 147.33871949999983,
          "velocity": 1,
          "duration": 0.40826615624999363
        },
        {
          "name": "A5",
          "midi": 81,
          "time": 147.33871949999983,
          "velocity": 1,
          "duration": 0.362903249999988
        },
        {
          "name": "F5",
          "midi": 77,
          "time": 147.33871949999983,
          "velocity": 1,
          "duration": 0.4183468020833345
        },
        {
          "name": "G4",
          "midi": 67,
          "time": 147.82259049999985,
          "velocity": 1,
          "duration": 0.48891132291666395
        },
        {
          "name": "G5",
          "midi": 79,
          "time": 147.82259049999985,
          "velocity": 1,
          "duration": 0.4586693854166697
        },
        {
          "name": "A#5",
          "midi": 82,
          "time": 147.82259049999985,
          "velocity": 1,
          "duration": 0.4586693854166697
        },
        {
          "name": "F4",
          "midi": 65,
          "time": 148.30646149999984,
          "velocity": 1,
          "duration": 0.46370970833334013
        },
        {
          "name": "A4",
          "midi": 69,
          "time": 148.30646149999984,
          "velocity": 1,
          "duration": 0.46370970833334013
        },
        {
          "name": "A5",
          "midi": 81,
          "time": 148.30646149999984,
          "velocity": 1,
          "duration": 0.4485887395833288
        },
        {
          "name": "F5",
          "midi": 77,
          "time": 148.30646149999984,
          "velocity": 1,
          "duration": 0.44354841666665834
        },
        {
          "name": "E4",
          "midi": 64,
          "time": 148.79033249999983,
          "velocity": 1,
          "duration": 0.5040322916666184
        },
        {
          "name": "G4",
          "midi": 67,
          "time": 148.79033249999983,
          "velocity": 1,
          "duration": 0.5040322916666184
        },
        {
          "name": "G5",
          "midi": 79,
          "time": 148.79033249999983,
          "velocity": 1,
          "duration": 0.4385080937499879
        },
        {
          "name": "E5",
          "midi": 76,
          "time": 148.79033249999983,
          "velocity": 1,
          "duration": 0.4637097083333117
        },
        {
          "name": "F4",
          "midi": 65,
          "time": 149.2742034999998,
          "velocity": 1,
          "duration": 0.4838709999999651
        },
        {
          "name": "D4",
          "midi": 62,
          "time": 149.2742034999998,
          "velocity": 1,
          "duration": 0.4989919687499764
        },
        {
          "name": "C4",
          "midi": 60,
          "time": 149.2742034999998,
          "velocity": 1,
          "duration": 0.12096774999997706
        },
        {
          "name": "D5",
          "midi": 74,
          "time": 149.2742034999998,
          "velocity": 1,
          "duration": 0.4536290624999708
        },
        {
          "name": "F5",
          "midi": 77,
          "time": 149.2742034999998,
          "velocity": 1,
          "duration": 0.4183468020833061
        },
        {
          "name": "G4",
          "midi": 67,
          "time": 149.75807449999976,
          "velocity": 1,
          "duration": 0.534274229166698
        },
        {
          "name": "E4",
          "midi": 64,
          "time": 149.75807449999976,
          "velocity": 1,
          "duration": 0.4788306770833515
        },
        {
          "name": "G5",
          "midi": 79,
          "time": 149.75807449999976,
          "velocity": 1,
          "duration": 0.5241935833333571
        },
        {
          "name": "E5",
          "midi": 76,
          "time": 149.75807449999976,
          "velocity": 1,
          "duration": 0.46370970833334013
        },
        {
          "name": "D4",
          "midi": 62,
          "time": 150.2419454999998,
          "velocity": 1,
          "duration": 0.44354841666668676
        },
        {
          "name": "F4",
          "midi": 65,
          "time": 150.2419454999998,
          "velocity": 1,
          "duration": 0.4586693854166981
        },
        {
          "name": "F5",
          "midi": 77,
          "time": 150.2419454999998,
          "velocity": 1,
          "duration": 0.45362906250002766
        },
        {
          "name": "D5",
          "midi": 74,
          "time": 150.2419454999998,
          "velocity": 1,
          "duration": 0.4284274479166754
        },
        {
          "name": "C#4",
          "midi": 61,
          "time": 150.7258164999998,
          "velocity": 1,
          "duration": 0.4133064791666641
        },
        {
          "name": "E4",
          "midi": 64,
          "time": 150.7258164999998,
          "velocity": 1,
          "duration": 0.4032258333333232
        },
        {
          "name": "C#5",
          "midi": 73,
          "time": 150.7258164999998,
          "velocity": 1,
          "duration": 0.26209679166666433
        },
        {
          "name": "E5",
          "midi": 76,
          "time": 150.7258164999998,
          "velocity": 1,
          "duration": 0.36794357291665847
        },
        {
          "name": "D2",
          "midi": 38,
          "time": 162.82259149999982,
          "velocity": 1,
          "duration": 1.4213710624999862
        },
        {
          "name": "D4",
          "midi": 62,
          "time": 162.82259149999982,
          "velocity": 1,
          "duration": 1.4213710624999862
        },
        {
          "name": "A2",
          "midi": 45,
          "time": 162.82259149999982,
          "velocity": 1,
          "duration": 1.4213710624999862
        },
        {
          "name": "F#3",
          "midi": 54,
          "time": 162.82259149999982,
          "velocity": 1,
          "duration": 1.4213710624999862
        },
        {
          "name": "D4",
          "midi": 62,
          "time": 162.82259149999982,
          "velocity": 1,
          "duration": 1.4213710624999862
        },
        {
          "name": "D5",
          "midi": 74,
          "time": 162.82259149999982,
          "velocity": 1,
          "duration": 1.4213710624999862
        }
      ],
      "controlChanges": {
        "7": [
          {
            "number": 7,
            "time": 0,
            "value": 0.968503937007874
          }
        ]
      },
      "id": 16,
      "name": "Choir Aahs",
      "instrumentNumber": 52,
      "instrument": "choir aahs",
      "instrumentFamily": "ensemble",
      "channelNumber": 14,
      "isPercussion": false
    },
    {
      "startTime": 0,
      "duration": 163.0292447395833,
      "length": 63,
      "notes": [
        {
          "name": "D2",
          "midi": 38,
          "time": 0,
          "velocity": 1,
          "duration": 0.6451613333333333
        },
        {
          "name": "D1",
          "midi": 26,
          "time": 0,
          "velocity": 1,
          "duration": 0.6451613333333333
        },
        {
          "name": "D2",
          "midi": 38,
          "time": 5.806451999999999,
          "velocity": 1,
          "duration": 0.6451613333333333
        },
        {
          "name": "D1",
          "midi": 26,
          "time": 5.806451999999999,
          "velocity": 1,
          "duration": 0.6451613333333333
        },
        {
          "name": "A0",
          "midi": 21,
          "time": 11.612903999999999,
          "velocity": 1,
          "duration": 0.6451613333333324
        },
        {
          "name": "A1",
          "midi": 33,
          "time": 11.612903999999999,
          "velocity": 1,
          "duration": 0.6451613333333324
        },
        {
          "name": "G2",
          "midi": 43,
          "time": 46.6935515,
          "velocity": 0.5590551181102362,
          "duration": 0.4939516458333344
        },
        {
          "name": "G2",
          "midi": 43,
          "time": 49.5967775,
          "velocity": 0.48031496062992124,
          "duration": 0.4737903541666668
        },
        {
          "name": "G2",
          "midi": 43,
          "time": 52.500003500000005,
          "velocity": 0.4645669291338583,
          "duration": 0.2469758229166672
        },
        {
          "name": "G2",
          "midi": 43,
          "time": 81.5322635,
          "velocity": 0.48031496062992124,
          "duration": 0.4032258333333374
        },
        {
          "name": "G2",
          "midi": 43,
          "time": 84.4354895,
          "velocity": 0.4881889763779528,
          "duration": 0.4838709999999935
        },
        {
          "name": "G2",
          "midi": 43,
          "time": 87.33871549999999,
          "velocity": 0.4645669291338583,
          "duration": 0.4939516458333344
        },
        {
          "name": "G2",
          "midi": 43,
          "time": 93.1451675,
          "velocity": 0.4881889763779528,
          "duration": 0.6854839166666693
        },
        {
          "name": "G2",
          "midi": 43,
          "time": 96.0483935,
          "velocity": 0.5039370078740157,
          "duration": 0.5241935833333287
        },
        {
          "name": "D1",
          "midi": 26,
          "time": 104.7580715,
          "velocity": 1,
          "duration": 0.36290325000000223
        },
        {
          "name": "D2",
          "midi": 38,
          "time": 104.7580715,
          "velocity": 1,
          "duration": 0.37802421874999936
        },
        {
          "name": "D1",
          "midi": 26,
          "time": 107.6612975,
          "velocity": 1,
          "duration": 0.3024193749999995
        },
        {
          "name": "D2",
          "midi": 38,
          "time": 107.6612975,
          "velocity": 1,
          "duration": 0.2923387291666728
        },
        {
          "name": "D1",
          "midi": 26,
          "time": 110.5645235,
          "velocity": 1,
          "duration": 0.3125000208333404
        },
        {
          "name": "D2",
          "midi": 38,
          "time": 110.5645235,
          "velocity": 1,
          "duration": 0.32258066666666707
        },
        {
          "name": "D1",
          "midi": 26,
          "time": 116.37097550000001,
          "velocity": 1,
          "duration": 0.3931451874999965
        },
        {
          "name": "D2",
          "midi": 38,
          "time": 116.37097550000001,
          "velocity": 1,
          "duration": 0.3931451874999965
        },
        {
          "name": "D1",
          "midi": 26,
          "time": 119.2742015,
          "velocity": 1,
          "duration": 0.4385080937500021
        },
        {
          "name": "D2",
          "midi": 38,
          "time": 119.2742015,
          "velocity": 1,
          "duration": 0.4485887395833288
        },
        {
          "name": "D1",
          "midi": 26,
          "time": 122.1774275,
          "velocity": 1,
          "duration": 0.579637135416661
        },
        {
          "name": "D2",
          "midi": 38,
          "time": 122.1774275,
          "velocity": 1,
          "duration": 0.579637135416661
        },
        {
          "name": "G2",
          "midi": 43,
          "time": 127.98387949999999,
          "velocity": 1,
          "duration": 0.22681453125001383
        },
        {
          "name": "D1",
          "midi": 26,
          "time": 127.98387949999999,
          "velocity": 1,
          "duration": 0.34274195833334886
        },
        {
          "name": "D2",
          "midi": 38,
          "time": 127.98387949999999,
          "velocity": 1,
          "duration": 0.34274195833334886
        },
        {
          "name": "A4",
          "midi": 69,
          "time": 128.4677505,
          "velocity": 0.7874015748031497,
          "duration": 0.35282260416667555
        },
        {
          "name": "A4",
          "midi": 69,
          "time": 128.95162150000002,
          "velocity": 0.7716535433070866,
          "duration": 0.34274195833333465
        },
        {
          "name": "G2",
          "midi": 43,
          "time": 130.88710550000002,
          "velocity": 1,
          "duration": 0.2016129166666758
        },
        {
          "name": "D2",
          "midi": 38,
          "time": 130.88710550000002,
          "velocity": 1,
          "duration": 0.3931451875000107
        },
        {
          "name": "D1",
          "midi": 26,
          "time": 130.88710550000002,
          "velocity": 1,
          "duration": 0.35282260416667555
        },
        {
          "name": "A4",
          "midi": 69,
          "time": 131.37097650000004,
          "velocity": 0.8818897637795275,
          "duration": 0.357862927083346
        },
        {
          "name": "A4",
          "midi": 69,
          "time": 131.85484750000006,
          "velocity": 0.9291338582677166,
          "duration": 0.39818551041665273
        },
        {
          "name": "G2",
          "midi": 43,
          "time": 133.79033150000004,
          "velocity": 1,
          "duration": 0.2016129166666758
        },
        {
          "name": "D1",
          "midi": 26,
          "time": 133.79033150000004,
          "velocity": 1,
          "duration": 0.34274195833333465
        },
        {
          "name": "D2",
          "midi": 38,
          "time": 133.79033150000004,
          "velocity": 1,
          "duration": 0.35282260416667555
        },
        {
          "name": "A4",
          "midi": 69,
          "time": 134.27420250000006,
          "velocity": 0.7716535433070866,
          "duration": 0.3276209895833233
        },
        {
          "name": "A4",
          "midi": 69,
          "time": 134.75807350000005,
          "velocity": 0.8031496062992126,
          "duration": 0.4032258333333232
        },
        {
          "name": "G2",
          "midi": 43,
          "time": 139.59678350000004,
          "velocity": 1,
          "duration": 0.17137097916665311
        },
        {
          "name": "D1",
          "midi": 26,
          "time": 139.59678350000004,
          "velocity": 1,
          "duration": 0.3830645416666414
        },
        {
          "name": "D2",
          "midi": 38,
          "time": 139.59678350000004,
          "velocity": 1,
          "duration": 0.3830645416666414
        },
        {
          "name": "A4",
          "midi": 69,
          "time": 140.0806545,
          "velocity": 0.7322834645669292,
          "duration": 0.3830645416666698
        },
        {
          "name": "A4",
          "midi": 69,
          "time": 140.5645255,
          "velocity": 0.7322834645669292,
          "duration": 0.362903249999988
        },
        {
          "name": "G2",
          "midi": 43,
          "time": 142.50000949999998,
          "velocity": 1,
          "duration": 0.181451624999994
        },
        {
          "name": "D1",
          "midi": 26,
          "time": 142.50000949999998,
          "velocity": 1,
          "duration": 0.33266131249999376
        },
        {
          "name": "D2",
          "midi": 38,
          "time": 142.50000949999998,
          "velocity": 1,
          "duration": 0.34274195833333465
        },
        {
          "name": "A4",
          "midi": 69,
          "time": 142.98388049999997,
          "velocity": 0.7874015748031497,
          "duration": 0.3377016354166642
        },
        {
          "name": "A4",
          "midi": 69,
          "time": 143.46775149999996,
          "velocity": 0.7716535433070866,
          "duration": 0.3830645416666698
        },
        {
          "name": "G2",
          "midi": 43,
          "time": 145.40323549999997,
          "velocity": 1,
          "duration": 0.2671371145833348
        },
        {
          "name": "D1",
          "midi": 26,
          "time": 145.40323549999997,
          "velocity": 1,
          "duration": 0.3225806666666813
        },
        {
          "name": "D2",
          "midi": 38,
          "time": 145.40323549999997,
          "velocity": 1,
          "duration": 0.3326613125000222
        },
        {
          "name": "A4",
          "midi": 69,
          "time": 145.8871065,
          "velocity": 0.7401574803149606,
          "duration": 0.33266131249999376
        },
        {
          "name": "A4",
          "midi": 69,
          "time": 146.37097749999998,
          "velocity": 0.8267716535433071,
          "duration": 0.4032258333333232
        },
        {
          "name": "A4",
          "midi": 69,
          "time": 147.33871949999997,
          "velocity": 0.7401574803149606,
          "duration": 0.40826615624999363
        },
        {
          "name": "A#4",
          "midi": 70,
          "time": 147.82259049999996,
          "velocity": 0.6850393700787402,
          "duration": 0.5090726145833173
        },
        {
          "name": "A4",
          "midi": 69,
          "time": 148.30646149999995,
          "velocity": 0.7244094488188977,
          "duration": 0.4637097083333117
        },
        {
          "name": "D2",
          "midi": 38,
          "time": 151.20968749999994,
          "velocity": 1,
          "duration": 0.5645161666666638
        },
        {
          "name": "D1",
          "midi": 26,
          "time": 151.20968749999994,
          "velocity": 1,
          "duration": 0.5796371354166752
        },
        {
          "name": "D1",
          "midi": 26,
          "time": 162.82259149999996,
          "velocity": 1,
          "duration": 0.2016129166666758
        },
        {
          "name": "D2",
          "midi": 38,
          "time": 162.82259149999996,
          "velocity": 1,
          "duration": 0.20665323958334625
        }
      ],
      "controlChanges": {},
      "id": 17,
      "name": "Melodic Tom",
      "instrumentNumber": 117,
      "instrument": "melodic tom",
      "instrumentFamily": "percussive",
      "channelNumber": 2,
      "isPercussion": false
    }
  ]
}